<svg version="1.1" viewBox="0.0 0.0 302.3622047244094 68.03149606299213" fill="none" stroke="none" stroke-linecap="square" stroke-miterlimit="10" xmlns:xlink="http://www.w3.org/1999/xlink" xmlns="http://www.w3.org/2000/svg"><clipPath id="p.0"><path d="m0 0l302.3622 0l0 68.031494l-302.3622 0l0 -68.031494z" clip-rule="nonzero"/></clipPath><g clip-path="url(#p.0)"><path fill="#ffffff" d="m0 0l302.3622 0l0 68.031494l-302.3622 0z" fill-rule="evenodd"/><path fill="#000000" fill-opacity="0.0" d="m122.45801 5.2992125l67.87401 0l0 58.14173l-67.87401 0z" fill-rule="evenodd"/><path fill="#000000" d="m138.67676 17.694214l0.1875 2.703125l-0.1875 0q-0.359375 -1.21875 -1.03125 -1.75q-0.671875 -0.53125 -1.609375 -0.53125q-0.796875 0 -1.4375 0.40625q-0.640625 0.390625 -1.015625 1.28125q-0.359375 0.875 -0.359375 2.171875q0 1.078125 0.34375 1.875q0.359375 0.796875 1.046875 1.21875q0.6875 0.421875 1.578125 0.421875q0.78125 0 1.375 -0.328125q0.59375 -0.34375 1.296875 -1.328125l0.1875 0.125q-0.609375 1.0625 -1.40625 1.5625q-0.796875 0.484375 -1.890625 0.484375q-1.96875 0 -3.046875 -1.46875q-0.8125 -1.09375 -0.8125 -2.5625q0 -1.203125 0.53125 -2.1875q0.53125 -1.0 1.46875 -1.546875q0.9375 -0.546875 2.046875 -0.546875q0.859375 0 1.6875 0.421875q0.25 0.125 0.359375 0.125q0.15625 0 0.265625 -0.109375q0.15625 -0.15625 0.21875 -0.4375l0.203125 0zm2.7382812 -0.203125l0 3.921875q0.65625 -0.71875 1.03125 -0.921875q0.375 -0.203125 0.765625 -0.203125q0.453125 0 0.78125 0.265625q0.328125 0.25 0.484375 0.78125q0.109375 0.375 0.109375 1.375l0 1.890625q0 0.515625 0.078125 0.703125q0.0625 0.140625 0.203125 0.21875q0.140625 0.078125 0.515625 0.078125l0 0.21875l-2.640625 0l0 -0.21875l0.125 0q0.375 0 0.515625 -0.109375q0.15625 -0.109375 0.21875 -0.328125q0.015625 -0.09375 0.015625 -0.5625l0 -1.890625q0 -0.875 -0.09375 -1.15625q-0.09375 -0.28125 -0.296875 -0.40625q-0.1875 -0.140625 -0.46875 -0.140625q-0.296875 0 -0.609375 0.15625q-0.296875 0.140625 -0.734375 0.609375l0 2.828125q0 0.5625 0.0625 0.703125q0.0625 0.125 0.21875 0.21875q0.171875 0.078125 0.578125 0.078125l0 0.21875l-2.65625 0l0 -0.21875q0.359375 0 0.5625 -0.109375q0.125 -0.046875 0.1875 -0.203125q0.078125 -0.171875 0.078125 -0.6875l0 -4.859375q0 -0.90625 -0.046875 -1.109375q-0.046875 -0.21875 -0.140625 -0.296875q-0.09375 -0.078125 -0.234375 -0.078125q-0.125 0 -0.40625 0.09375l-0.078125 -0.203125l1.609375 -0.65625l0.265625 0zm5.78125 0q0.25 0 0.421875 0.171875q0.171875 0.171875 0.171875 0.421875q0 0.234375 -0.171875 0.421875q-0.171875 0.171875 -0.421875 0.171875q-0.234375 0 -0.421875 -0.171875q-0.171875 -0.1875 -0.171875 -0.421875q0 -0.25 0.171875 -0.421875q0.171875 -0.171875 0.421875 -0.171875zm0.5 2.796875l0 4.3125q0 0.515625 0.0625 0.6875q0.078125 0.15625 0.21875 0.234375q0.140625 0.078125 0.53125 0.078125l0 0.21875l-2.609375 0l0 -0.21875q0.390625 0 0.515625 -0.0625q0.140625 -0.078125 0.21875 -0.25q0.078125 -0.1875 0.078125 -0.6875l0 -2.0625q0 -0.875 -0.046875 -1.125q-0.046875 -0.1875 -0.140625 -0.265625q-0.078125 -0.078125 -0.234375 -0.078125q-0.15625 0 -0.390625 0.09375l-0.078125 -0.21875l1.609375 -0.65625l0.265625 0zm4.9433594 0l0 1.828125l-0.1875 0q-0.234375 -0.859375 -0.578125 -1.171875q-0.34375 -0.3125 -0.890625 -0.3125q-0.40625 0 -0.65625 0.21875q-0.25 0.21875 -0.25 0.484375q0 0.328125 0.1875 0.5625q0.171875 0.234375 0.734375 0.515625l0.859375 0.40625q1.1875 0.578125 1.1875 1.53125q0 0.734375 -0.5625 1.1875q-0.546875 0.453125 -1.234375 0.453125q-0.484375 0 -1.125 -0.1875q-0.1875 -0.0625 -0.3125 -0.0625q-0.140625 0 -0.21875 0.15625l-0.1875 0l0 -1.90625l0.1875 0q0.171875 0.8125 0.625 1.234375q0.46875 0.40625 1.046875 0.40625q0.40625 0 0.65625 -0.234375q0.25 -0.234375 0.25 -0.5625q0 -0.40625 -0.28125 -0.6875q-0.28125 -0.28125 -1.140625 -0.703125q-0.84375 -0.421875 -1.109375 -0.75q-0.25 -0.34375 -0.25 -0.84375q0 -0.671875 0.453125 -1.109375q0.453125 -0.453125 1.171875 -0.453125q0.3125 0 0.765625 0.140625q0.296875 0.09375 0.390625 0.09375q0.09375 0 0.140625 -0.046875q0.0625 -0.046875 0.140625 -0.1875l0.1875 0zm2.1074219 2.1875q-0.015625 1.1875 0.578125 1.875q0.578125 0.671875 1.375 0.671875q0.53125 0 0.921875 -0.28125q0.390625 -0.296875 0.65625 -1.0l0.171875 0.125q-0.125 0.796875 -0.71875 1.46875q-0.578125 0.65625 -1.46875 0.65625q-0.96875 0 -1.65625 -0.75q-0.6875 -0.765625 -0.6875 -2.03125q0 -1.375 0.703125 -2.140625q0.703125 -0.78125 1.765625 -0.78125q0.90625 0 1.484375 0.59375q0.578125 0.59375 0.578125 1.59375l-3.703125 0zm0 -0.34375l2.484375 0q-0.03125 -0.515625 -0.125 -0.71875q-0.140625 -0.328125 -0.4375 -0.515625q-0.296875 -0.1875 -0.609375 -0.1875q-0.484375 0 -0.875 0.375q-0.375 0.375 -0.4375 1.046875zm6.263672 -4.640625l0 7.109375q0 0.515625 0.078125 0.6875q0.078125 0.15625 0.21875 0.234375q0.15625 0.078125 0.578125 0.078125l0 0.21875l-2.640625 0l0 -0.21875q0.375 0 0.5 -0.0625q0.140625 -0.078125 0.21875 -0.25q0.078125 -0.1875 0.078125 -0.6875l0 -4.875q0 -0.90625 -0.046875 -1.109375q-0.03125 -0.203125 -0.125 -0.28125q-0.09375 -0.078125 -0.234375 -0.078125q-0.15625 0 -0.390625 0.09375l-0.09375 -0.203125l1.59375 -0.65625l0.265625 0zm6.0527344 1.203125l0 1.75l1.25 0l0 0.421875l-1.25 0l0 3.46875q0 0.53125 0.140625 0.71875q0.15625 0.171875 0.390625 0.171875q0.1875 0 0.375 -0.109375q0.1875 -0.125 0.28125 -0.359375l0.234375 0q-0.21875 0.5625 -0.59375 0.859375q-0.375 0.296875 -0.765625 0.296875q-0.265625 0 -0.53125 -0.15625q-0.25 -0.15625 -0.375 -0.421875q-0.125 -0.28125 -0.125 -0.859375l0 -3.609375l-0.84375 0l0 -0.203125q0.3125 -0.125 0.640625 -0.421875q0.34375 -0.3125 0.609375 -0.734375q0.140625 -0.234375 0.375 -0.8125l0.1875 0zm4.3964844 1.59375q1.21875 0 1.953125 0.9375q0.625 0.78125 0.625 1.8125q0 0.71875 -0.34375 1.453125q-0.34375 0.734375 -0.953125 1.125q-0.59375 0.375 -1.34375 0.375q-1.21875 0 -1.921875 -0.96875q-0.609375 -0.828125 -0.609375 -1.828125q0 -0.75 0.359375 -1.46875q0.375 -0.734375 0.96875 -1.078125q0.59375 -0.359375 1.265625 -0.359375zm-0.1875 0.390625q-0.296875 0 -0.625 0.1875q-0.3125 0.171875 -0.5 0.640625q-0.1875 0.46875 -0.1875 1.1875q0 1.171875 0.453125 2.03125q0.46875 0.84375 1.234375 0.84375q0.5625 0 0.9375 -0.46875q0.375 -0.46875 0.375 -1.609375q0 -1.4375 -0.625 -2.25q-0.40625 -0.5625 -1.0625 -0.5625z" fill-rule="nonzero"/><path fill="#000000" d="m135.30176 34.687965l0 1.828125l-0.1875 0q-0.234375 -0.859375 -0.578125 -1.171875q-0.34375 -0.3125 -0.890625 -0.3125q-0.40625 0 -0.65625 0.21875q-0.25 0.21875 -0.25 0.484375q0 0.328125 0.1875 0.5625q0.171875 0.234375 0.734375 0.515625l0.859375 0.40625q1.1875 0.578125 1.1875 1.53125q0 0.734375 -0.5625 1.1875q-0.546875 0.453125 -1.234375 0.453125q-0.484375 0 -1.125 -0.1875q-0.1875 -0.0625 -0.3125 -0.0625q-0.140625 0 -0.21875 0.15625l-0.1875 0l0 -1.90625l0.1875 0q0.171875 0.8125 0.625 1.234375q0.46875 0.40625 1.046875 0.40625q0.40625 0 0.65625 -0.234375q0.25 -0.234375 0.25 -0.5625q0 -0.40625 -0.28125 -0.6875q-0.28125 -0.28125 -1.140625 -0.703125q-0.84375 -0.421875 -1.109375 -0.75q-0.25 -0.34375 -0.25 -0.84375q0 -0.671875 0.453125 -1.109375q0.453125 -0.453125 1.171875 -0.453125q0.3125 0 0.765625 0.140625q0.296875 0.09375 0.390625 0.09375q0.09375 0 0.140625 -0.046875q0.0625 -0.046875 0.140625 -0.1875l0.1875 0zm2.7636719 -1.59375l0 1.75l1.25 0l0 0.421875l-1.25 0l0 3.46875q0 0.53125 0.140625 0.71875q0.15625 0.171875 0.390625 0.171875q0.1875 0 0.375 -0.109375q0.1875 -0.125 0.28125 -0.359375l0.234375 0q-0.21875 0.5625 -0.59375 0.859375q-0.375 0.296875 -0.765625 0.296875q-0.265625 0 -0.53125 -0.15625q-0.25 -0.15625 -0.375 -0.421875q-0.125 -0.28125 -0.125 -0.859375l0 -3.609375l-0.84375 0l0 -0.203125q0.3125 -0.125 0.640625 -0.421875q0.34375 -0.3125 0.609375 -0.734375q0.140625 -0.234375 0.375 -0.8125l0.1875 0zm3.3496094 1.59375l0 1.21875q0.671875 -1.21875 1.375 -1.21875q0.328125 0 0.53125 0.203125q0.21875 0.1875 0.21875 0.453125q0 0.234375 -0.15625 0.390625q-0.15625 0.15625 -0.359375 0.15625q-0.203125 0 -0.46875 -0.203125q-0.25 -0.203125 -0.375 -0.203125q-0.109375 0 -0.234375 0.109375q-0.25 0.25 -0.53125 0.796875l0 2.578125q0 0.4375 0.109375 0.671875q0.078125 0.15625 0.265625 0.265625q0.1875 0.09375 0.5625 0.09375l0 0.21875l-2.75 0l0 -0.21875q0.40625 0 0.609375 -0.125q0.140625 -0.09375 0.203125 -0.296875q0.03125 -0.09375 0.03125 -0.5625l0 -2.078125q0 -0.9375 -0.046875 -1.109375q-0.03125 -0.1875 -0.140625 -0.265625q-0.09375 -0.09375 -0.25 -0.09375q-0.1875 0 -0.40625 0.09375l-0.0625 -0.21875l1.625 -0.65625l0.25 0zm7.1210938 0.15625l0 3.265625q0 0.921875 0.046875 1.140625q0.046875 0.203125 0.140625 0.28125q0.09375 0.078125 0.21875 0.078125q0.1875 0 0.421875 -0.09375l0.078125 0.203125l-1.609375 0.671875l-0.265625 0l0 -1.140625q-0.6875 0.75 -1.046875 0.953125q-0.359375 0.1875 -0.765625 0.1875q-0.453125 0 -0.796875 -0.265625q-0.328125 -0.265625 -0.453125 -0.671875q-0.125 -0.40625 -0.125 -1.15625l0 -2.40625q0 -0.375 -0.09375 -0.515625q-0.078125 -0.15625 -0.234375 -0.234375q-0.15625 -0.078125 -0.578125 -0.078125l0 -0.21875l1.875 0l0 3.59375q0 0.75 0.265625 0.984375q0.265625 0.234375 0.625 0.234375q0.25 0 0.5625 -0.15625q0.328125 -0.15625 0.765625 -0.59375l0 -3.046875q0 -0.453125 -0.171875 -0.609375q-0.15625 -0.171875 -0.6875 -0.1875l0 -0.21875l1.828125 0zm5.859375 3.328125q-0.21875 1.0625 -0.859375 1.640625q-0.625 0.578125 -1.390625 0.578125q-0.921875 0 -1.609375 -0.765625q-0.671875 -0.78125 -0.671875 -2.078125q0 -1.265625 0.75 -2.0625q0.765625 -0.796875 1.8125 -0.796875q0.796875 0 1.296875 0.421875q0.515625 0.421875 0.515625 0.875q0 0.21875 -0.140625 0.359375q-0.140625 0.140625 -0.40625 0.140625q-0.34375 0 -0.515625 -0.234375q-0.109375 -0.109375 -0.140625 -0.453125q-0.03125 -0.359375 -0.234375 -0.53125q-0.203125 -0.1875 -0.5625 -0.1875q-0.59375 0 -0.953125 0.4375q-0.46875 0.578125 -0.46875 1.515625q0 0.96875 0.46875 1.703125q0.46875 0.734375 1.28125 0.734375q0.578125 0 1.03125 -0.390625q0.3125 -0.265625 0.625 -0.984375l0.171875 0.078125zm2.3261719 -5.078125l0 1.75l1.25 0l0 0.421875l-1.25 0l0 3.46875q0 0.53125 0.140625 0.71875q0.15625 0.171875 0.390625 0.171875q0.1875 0 0.375 -0.109375q0.1875 -0.125 0.28125 -0.359375l0.234375 0q-0.21875 0.5625 -0.59375 0.859375q-0.375 0.296875 -0.765625 0.296875q-0.265625 0 -0.53125 -0.15625q-0.25 -0.15625 -0.375 -0.421875q-0.125 -0.28125 -0.125 -0.859375l0 -3.609375l-0.84375 0l0 -0.203125q0.3125 -0.125 0.640625 -0.421875q0.34375 -0.3125 0.609375 -0.734375q0.140625 -0.234375 0.375 -0.8125l0.1875 0zm6.4746094 1.75l0 3.265625q0 0.921875 0.046875 1.140625q0.046875 0.203125 0.140625 0.28125q0.09375 0.078125 0.21875 0.078125q0.1875 0 0.421875 -0.09375l0.078125 0.203125l-1.609375 0.671875l-0.265625 0l0 -1.140625q-0.6875 0.75 -1.046875 0.953125q-0.359375 0.1875 -0.765625 0.1875q-0.453125 0 -0.796875 -0.265625q-0.328125 -0.265625 -0.453125 -0.671875q-0.125 -0.40625 -0.125 -1.15625l0 -2.40625q0 -0.375 -0.09375 -0.515625q-0.078125 -0.15625 -0.234375 -0.234375q-0.15625 -0.078125 -0.578125 -0.078125l0 -0.21875l1.875 0l0 3.59375q0 0.75 0.265625 0.984375q0.265625 0.234375 0.625 0.234375q0.25 0 0.5625 -0.15625q0.328125 -0.15625 0.765625 -0.59375l0 -3.046875q0 -0.453125 -0.171875 -0.609375q-0.15625 -0.171875 -0.6875 -0.1875l0 -0.21875l1.828125 0zm2.875 -0.15625l0 1.21875q0.671875 -1.21875 1.375 -1.21875q0.328125 0 0.53125 0.203125q0.21875 0.1875 0.21875 0.453125q0 0.234375 -0.15625 0.390625q-0.15625 0.15625 -0.359375 0.15625q-0.203125 0 -0.46875 -0.203125q-0.25 -0.203125 -0.375 -0.203125q-0.109375 0 -0.234375 0.109375q-0.25 0.25 -0.53125 0.796875l0 2.578125q0 0.4375 0.109375 0.671875q0.078125 0.15625 0.265625 0.265625q0.1875 0.09375 0.5625 0.09375l0 0.21875l-2.75 0l0 -0.21875q0.40625 0 0.609375 -0.125q0.140625 -0.09375 0.203125 -0.296875q0.03125 -0.09375 0.03125 -0.5625l0 -2.078125q0 -0.9375 -0.046875 -1.109375q-0.03125 -0.1875 -0.140625 -0.265625q-0.09375 -0.09375 -0.25 -0.09375q-0.1875 0 -0.40625 0.09375l-0.0625 -0.21875l1.625 -0.65625l0.25 0zm5.4648438 4.75q-0.828125 0.640625 -1.046875 0.75q-0.3125 0.140625 -0.671875 0.140625q-0.546875 0 -0.921875 -0.375q-0.359375 -0.390625 -0.359375 -1.0q0 -0.40625 0.1875 -0.6875q0.234375 -0.390625 0.828125 -0.734375q0.59375 -0.359375 1.984375 -0.875l0 -0.203125q0 -0.8125 -0.265625 -1.109375q-0.25 -0.296875 -0.734375 -0.296875q-0.375 0 -0.59375 0.203125q-0.21875 0.203125 -0.21875 0.453125l0.015625 0.34375q0 0.265625 -0.140625 0.421875q-0.140625 0.140625 -0.359375 0.140625q-0.21875 0 -0.359375 -0.15625q-0.125 -0.15625 -0.125 -0.40625q0 -0.515625 0.515625 -0.9375q0.515625 -0.421875 1.4375 -0.421875q0.71875 0 1.171875 0.25q0.34375 0.171875 0.515625 0.5625q0.109375 0.25 0.109375 1.03125l0 1.828125q0 0.765625 0.015625 0.9375q0.03125 0.171875 0.09375 0.234375q0.078125 0.046875 0.171875 0.046875q0.09375 0 0.15625 -0.03125q0.125 -0.078125 0.46875 -0.4375l0 0.328125q-0.65625 0.890625 -1.25 0.890625q-0.28125 0 -0.453125 -0.203125q-0.171875 -0.203125 -0.171875 -0.6875zm0 -0.375l0 -2.046875q-0.890625 0.359375 -1.140625 0.5q-0.46875 0.265625 -0.671875 0.546875q-0.203125 0.28125 -0.203125 0.609375q0 0.421875 0.25 0.703125q0.265625 0.28125 0.59375 0.28125q0.4375 0 1.171875 -0.59375zm4.123047 -7.171875l0 7.109375q0 0.515625 0.078125 0.6875q0.078125 0.15625 0.21875 0.234375q0.15625 0.078125 0.578125 0.078125l0 0.21875l-2.640625 0l0 -0.21875q0.375 0 0.5 -0.0625q0.140625 -0.078125 0.21875 -0.25q0.078125 -0.1875 0.078125 -0.6875l0 -4.875q0 -0.90625 -0.046875 -1.109375q-0.03125 -0.203125 -0.125 -0.28125q-0.09375 -0.078125 -0.234375 -0.078125q-0.15625 0 -0.390625 0.09375l-0.09375 -0.203125l1.59375 -0.65625l0.265625 0z" fill-rule="nonzero"/><path fill="#000000" d="m139.97363 46.666092l0 0.21875q-0.421875 0.078125 -0.640625 0.28125q-0.296875 0.28125 -0.546875 0.875l-2.765625 6.765625l-0.21875 0l-2.984375 -6.859375q-0.21875 -0.53125 -0.3125 -0.640625q-0.15625 -0.1875 -0.375 -0.28125q-0.203125 -0.109375 -0.5625 -0.140625l0 -0.21875l3.25 0l0 0.21875q-0.5625 0.0625 -0.734375 0.203125q-0.15625 0.125 -0.15625 0.328125q0 0.296875 0.28125 0.921875l2.015625 4.65625l1.875 -4.59375q0.28125 -0.6875 0.28125 -0.953125q0 -0.171875 -0.171875 -0.3125q-0.171875 -0.15625 -0.578125 -0.234375q-0.03125 0 -0.09375 -0.015625l0 -0.21875l2.4375 0zm0.1015625 4.609375q-0.015625 1.1875 0.578125 1.875q0.578125 0.671875 1.375 0.671875q0.53125 0 0.921875 -0.28125q0.390625 -0.296875 0.65625 -1.0l0.171875 0.125q-0.125 0.796875 -0.71875 1.46875q-0.578125 0.65625 -1.46875 0.65625q-0.96875 0 -1.65625 -0.75q-0.6875 -0.765625 -0.6875 -2.03125q0 -1.375 0.703125 -2.140625q0.703125 -0.78125 1.765625 -0.78125q0.90625 0 1.484375 0.59375q0.578125 0.59375 0.578125 1.59375l-3.703125 0zm0 -0.34375l2.484375 0q-0.03125 -0.515625 -0.125 -0.71875q-0.140625 -0.328125 -0.4375 -0.515625q-0.296875 -0.1875 -0.609375 -0.1875q-0.484375 0 -0.875 0.375q-0.375 0.375 -0.4375 1.046875zm5.998047 -1.84375l0 1.21875q0.671875 -1.21875 1.375 -1.21875q0.328125 0 0.53125 0.203125q0.21875 0.1875 0.21875 0.453125q0 0.234375 -0.15625 0.390625q-0.15625 0.15625 -0.359375 0.15625q-0.203125 0 -0.46875 -0.203125q-0.25 -0.203125 -0.375 -0.203125q-0.109375 0 -0.234375 0.109375q-0.25 0.25 -0.53125 0.796875l0 2.578125q0 0.4375 0.109375 0.671875q0.078125 0.15625 0.265625 0.265625q0.1875 0.09375 0.5625 0.09375l0 0.21875l-2.75 0l0 -0.21875q0.40625 0 0.609375 -0.125q0.140625 -0.09375 0.203125 -0.296875q0.03125 -0.09375 0.03125 -0.5625l0 -2.078125q0 -0.9375 -0.046875 -1.109375q-0.03125 -0.1875 -0.140625 -0.265625q-0.09375 -0.09375 -0.25 -0.09375q-0.1875 0 -0.40625 0.09375l-0.0625 -0.21875l1.625 -0.65625l0.25 0zm3.7773438 -2.796875q0.25 0 0.421875 0.171875q0.171875 0.171875 0.171875 0.421875q0 0.234375 -0.171875 0.421875q-0.171875 0.171875 -0.421875 0.171875q-0.234375 0 -0.421875 -0.171875q-0.171875 -0.1875 -0.171875 -0.421875q0 -0.25 0.171875 -0.421875q0.171875 -0.171875 0.421875 -0.171875zm0.5 2.796875l0 4.3125q0 0.515625 0.0625 0.6875q0.078125 0.15625 0.21875 0.234375q0.140625 0.078125 0.53125 0.078125l0 0.21875l-2.609375 0l0 -0.21875q0.390625 0 0.515625 -0.0625q0.140625 -0.078125 0.21875 -0.25q0.078125 -0.1875 0.078125 -0.6875l0 -2.0625q0 -0.875 -0.046875 -1.125q-0.046875 -0.1875 -0.140625 -0.265625q-0.078125 -0.078125 -0.234375 -0.078125q-0.15625 0 -0.390625 0.09375l-0.078125 -0.21875l1.609375 -0.65625l0.265625 0zm3.3183594 -2.796875l0 7.109375q0 0.515625 0.078125 0.6875q0.078125 0.15625 0.21875 0.234375q0.15625 0.078125 0.578125 0.078125l0 0.21875l-2.640625 0l0 -0.21875q0.375 0 0.5 -0.0625q0.140625 -0.078125 0.21875 -0.25q0.078125 -0.1875 0.078125 -0.6875l0 -4.875q0 -0.90625 -0.046875 -1.109375q-0.03125 -0.203125 -0.125 -0.28125q-0.09375 -0.078125 -0.234375 -0.078125q-0.15625 0 -0.390625 0.09375l-0.09375 -0.203125l1.59375 -0.65625l0.265625 0zm4.1152344 2.796875q1.21875 0 1.953125 0.9375q0.625 0.78125 0.625 1.8125q0 0.71875 -0.34375 1.453125q-0.34375 0.734375 -0.953125 1.125q-0.59375 0.375 -1.34375 0.375q-1.21875 0 -1.921875 -0.96875q-0.609375 -0.828125 -0.609375 -1.828125q0 -0.75 0.359375 -1.46875q0.375 -0.734375 0.96875 -1.078125q0.59375 -0.359375 1.265625 -0.359375zm-0.1875 0.390625q-0.296875 0 -0.625 0.1875q-0.3125 0.171875 -0.5 0.640625q-0.1875 0.46875 -0.1875 1.1875q0 1.171875 0.453125 2.03125q0.46875 0.84375 1.234375 0.84375q0.5625 0 0.9375 -0.46875q0.375 -0.46875 0.375 -1.609375q0 -1.4375 -0.625 -2.25q-0.40625 -0.5625 -1.0625 -0.5625zm5.0 3.1875q-0.5 -0.25 -0.765625 -0.671875q-0.25 -0.4375 -0.25 -0.953125q0 -0.796875 0.59375 -1.375q0.609375 -0.578125 1.546875 -0.578125q0.765625 0 1.328125 0.375l1.125 0q0.265625 0 0.296875 0.015625q0.046875 0.015625 0.0625 0.046875q0.03125 0.0625 0.03125 0.1875q0 0.15625 -0.03125 0.21875q-0.015625 0.03125 -0.0625 0.046875q-0.03125 0.015625 -0.296875 0.015625l-0.6875 0q0.328125 0.421875 0.328125 1.078125q0 0.75 -0.578125 1.28125q-0.578125 0.53125 -1.546875 0.53125q-0.390625 0 -0.8125 -0.109375q-0.25 0.21875 -0.34375 0.390625q-0.09375 0.15625 -0.09375 0.28125q0 0.09375 0.09375 0.1875q0.109375 0.09375 0.390625 0.140625q0.15625 0.015625 0.8125 0.046875q1.203125 0.015625 1.5625 0.078125q0.546875 0.078125 0.875 0.40625q0.328125 0.328125 0.328125 0.8125q0 0.65625 -0.625 1.234375q-0.921875 0.859375 -2.390625 0.859375q-1.125 0 -1.90625 -0.515625q-0.4375 -0.296875 -0.4375 -0.609375q0 -0.140625 0.0625 -0.28125q0.09375 -0.21875 0.40625 -0.59375q0.046875 -0.0625 0.609375 -0.640625q-0.3125 -0.1875 -0.4375 -0.328125q-0.125 -0.140625 -0.125 -0.328125q0 -0.203125 0.15625 -0.46875q0.171875 -0.28125 0.78125 -0.78125zm1.015625 -3.296875q-0.4375 0 -0.734375 0.359375q-0.28125 0.34375 -0.28125 1.046875q0 0.9375 0.390625 1.4375q0.3125 0.390625 0.78125 0.390625q0.4375 0 0.71875 -0.328125q0.296875 -0.34375 0.296875 -1.0625q0 -0.921875 -0.40625 -1.453125q-0.296875 -0.390625 -0.765625 -0.390625zm-1.078125 5.25q-0.265625 0.296875 -0.40625 0.546875q-0.140625 0.265625 -0.140625 0.484375q0 0.28125 0.328125 0.5q0.59375 0.359375 1.703125 0.359375q1.046875 0 1.546875 -0.375q0.5 -0.375 0.5 -0.796875q0 -0.296875 -0.296875 -0.4375q-0.296875 -0.125 -1.203125 -0.140625q-1.3125 -0.046875 -2.03125 -0.140625z" fill-rule="nonzero"/><path fill="#000000" fill-opacity="0.0" d="m4.178478 0.72440946l113.13386 0l0 66.614174l-113.13386 0z" fill-rule="evenodd"/><path stroke="#999999" stroke-width="1.0" stroke-linejoin="round" stroke-linecap="butt" d="m4.178478 0.72440946l113.13386 0l0 66.614174l-113.13386 0z" fill-rule="evenodd"/><path fill="#ffffff" d="m13.178477 2.0314982l65.18561 0l0 12.799999l-65.18561 0l0 -12.799999z" fill-rule="nonzero"/><path fill="#000000" fill-opacity="0.0" d="m13.178477 3.3999617l25.579163 0l0 12.071533l-25.579163 0l0 -12.071533z" fill-rule="nonzero"/><path fill="#008000" d="m16.381603 10.302748l-0.73437595 1.96875l-1.0 0l-0.90625 -3.65625q-0.28125 -0.015625 -0.4375 -0.15625q-0.140625 -0.15625 -0.140625 -0.375q0 -0.23437452 0.15625 -0.37499952q0.171875 -0.15625 0.546875 -0.15625l1.0 0q0.390625 0 0.546875 0.15625q0.171875 0.140625 0.171875 0.37499952q0 0.234375 -0.1875 0.40625q-0.140625 0.125 -0.5625 0.125l0.40625 1.6875l0.65625 -1.734375l0.95312595 0l0.671875 1.734375l0.40625 -1.6875q-0.390625 0 -0.515625 -0.078125q-0.25 -0.15625 -0.25 -0.453125q0 -0.23437452 0.15625 -0.37499952q0.171875 -0.15625 0.5625 -0.15625l1.0 0q0.390625 0 0.546875 0.15625q0.171875 0.140625 0.171875 0.37499952q0 0.21875 -0.15625 0.375q-0.140625 0.140625 -0.421875 0.15625l-0.875 3.65625l-0.984375 0l-0.78125 -1.96875zm5.2854156 -4.7812495l0 2.28125q0.34375 -0.203125 0.671875 -0.296875q0.34375 -0.09375 0.6875 -0.09375q0.5625 0 0.984375 0.1875q0.4375 0.1875 0.71875 0.5937495q0.28125 0.390625 0.28125 1.015625l0 2.0q0.40625 0 0.53125 0.078125q0.25 0.15625 0.25 0.453125q0 0.234375 -0.15625 0.390625q-0.15625 0.140625 -0.546875 0.140625l-1.21875 0q-0.375 0 -0.546875 -0.140625q-0.15625 -0.15625 -0.15625 -0.390625q0 -0.296875 0.25 -0.453125q0.125 -0.09375 0.53125 -0.078125l0 -1.9375q0 -0.40625 -0.1875 -0.578125q-0.25 -0.21875 -0.734375 -0.21875q-0.34375 0 -0.625 0.140625q-0.265625 0.140625 -0.734375 0.59375l0 2.0q0.421875 0 0.53125 0.078125q0.25 0.15625 0.25 0.453125q0 0.234375 -0.15625 0.390625q-0.15625 0.140625 -0.546875 0.140625l-1.21875 0q-0.375 0 -0.546875 -0.140625q-0.15625 -0.15625 -0.15625 -0.390625q0 -0.296875 0.25 -0.453125q0.125 -0.09375 0.53125 -0.078125l0 -4.6249995l-0.1875 0q-0.375 0 -0.546875 -0.140625q-0.15625 -0.15625 -0.15625 -0.390625q0 -0.234375 0.15625 -0.375q0.171875 -0.15625 0.546875 -0.15625l1.25 0zm10.176041 4.9218745l-4.375 0q0.171875 0.421875 0.59375 0.6875q0.421875 0.25 1.140625 0.25q0.59375 0 1.578125 -0.265625q0.40625 -0.09375 0.5625 -0.09375q0.21875 0 0.359375 0.15625q0.140625 0.140625 0.140625 0.375q0 0.203125 -0.15625 0.34375q-0.203125 0.203125 -1.015625 0.375q-0.796875 0.171875 -1.546875 0.171875q-1.28125 0 -2.046875 -0.71875q-0.765625 -0.734375 -0.765625 -1.78125q0 -1.125 0.828125 -1.828125q0.828125 -0.7031245 1.90625 -0.7031245q0.65625 0 1.203125 0.234375q0.546875 0.21875 0.8125 0.48437452q0.375 0.390625 0.609375 0.953125q0.171875 0.390625 0.171875 0.90625l0 0.453125zm-1.1875 -1.0625q-0.234375 -0.453125 -0.640625 -0.671875q-0.390625 -0.234375 -0.9375 -0.234375q-0.53125 0 -0.9375 0.234375q-0.390625 0.21875 -0.640625 0.671875l3.15625 0zm3.8322906 -1.8281245l0 0.359375q0.28125 -0.25 0.625 -0.375q0.359375 -0.125 0.765625 -0.125q0.953125 0 1.5 0.578125q0.4375 0.46874952 0.4375 1.2343745l0 1.984375q0.34375 0 0.5 0.15625q0.171875 0.140625 0.171875 0.375q0 0.234375 -0.171875 0.390625q-0.15625 0.140625 -0.546875 0.140625l-0.96875 0q-0.375 0 -0.546875 -0.140625q-0.15625 -0.15625 -0.15625 -0.390625q0 -0.234375 0.15625 -0.375q0.15625 -0.15625 0.5 -0.15625l0 -2.015625q0 -0.34375 -0.1875 -0.515625q-0.25 -0.203125 -0.734375 -0.203125q-0.375 0 -0.65625 0.140625q-0.265625 0.140625 -0.6875 0.609375l0 1.984375q0.40625 0 0.53125 0.078125q0.25 0.15625 0.25 0.453125q0 0.234375 -0.171875 0.390625q-0.15625 0.140625 -0.546875 0.140625l-1.203125 0q-0.390625 0 -0.5625 -0.140625q-0.15625 -0.15625 -0.15625 -0.390625q0 -0.296875 0.25 -0.453125q0.125 -0.078125 0.53125 -0.078125l0 -2.59375q-0.328125 0 -0.5 -0.140625q-0.15625 -0.15625 -0.15625 -0.390625q0 -0.23437452 0.15625 -0.37499952q0.171875 -0.15625 0.5625 -0.15625l1.015625 0z" fill-rule="nonzero"/><path fill="#010000" fill-opacity="0.0" d="m38.75764 3.1137831l6.601074 0l0 12.4609375l-6.601074 0l0 -12.4609375z" fill-rule="nonzero"/><path fill="#080808" d="m42.00764 9.599623q0 -0.625 0.15625 -1.3125q0.171875 -0.6874995 0.625 -1.5937495q0.453125 -0.921875 0.65625 -1.109375q0.078125 -0.046875 0.140625 -0.046875q0.109375 0 0.171875 0.0625q0.0625 0.0625 0.0625 0.15625q0 0.046875 -0.03125 0.109375q-0.59375 1.09375 -0.84375 1.96875q-0.25 0.8749995 -0.25 1.7656245q0 0.890625 0.25 1.765625q0.25 0.875 0.84375 1.953125q0.03125 0.078125 0.03125 0.125q0 0.09375 -0.0625 0.15625q-0.0625 0.0625 -0.171875 0.0625q-0.0625 0 -0.140625 -0.046875q-0.1875 -0.1875 -0.640625 -1.078125q-0.453125 -0.890625 -0.625 -1.5625q-0.171875 -0.6875 -0.171875 -1.375z" fill-rule="nonzero"/><path fill="#000000" fill-opacity="0.0" d="m45.358715 3.1137831l13.202148 0l0 12.4609375l-13.202148 0l0 -12.4609375z" fill-rule="nonzero"/><path fill="#000000" d="m48.889965 5.302748l0 1.171875l-0.671875 0l0 -1.171875l0.671875 0zm0.015625 2.3125l0 4.2031245l1.765625 0q0.171875 0 0.234375 0.0625q0.078125 0.0625 0.078125 0.171875q0 0.09375 -0.078125 0.15625q-0.0625 0.0625 -0.234375 0.0625l-4.0 0q-0.15625 0 -0.234375 -0.0625q-0.0625 -0.0625 -0.0625 -0.15625q0 -0.109375 0.0625 -0.171875q0.078125 -0.0625 0.234375 -0.0625l1.78125 0l0 -3.734375l-1.328125 0q-0.15625 0 -0.234375 -0.0625q-0.0625 -0.07812452 -0.0625 -0.17187452q0 -0.09375 0.0625 -0.15625q0.078125 -0.078125 0.234375 -0.078125l1.78125 0zm4.897949 0l0 0.6874995q0.46875 -0.48437452 0.84375 -0.6562495q0.390625 -0.1875 0.875 -0.1875q0.515625 0 0.9375 0.21875q0.296875 0.15625 0.53125 0.5312495q0.25 0.375 0.25 0.765625l0 2.84375l0.390625 0q0.15625 0 0.21875 0.0625q0.078125 0.0625 0.078125 0.171875q0 0.09375 -0.078125 0.15625q-0.0625 0.0625 -0.21875 0.0625l-1.21875 0q-0.15625 0 -0.234375 -0.0625q-0.0625 -0.0625 -0.0625 -0.15625q0 -0.109375 0.0625 -0.171875q0.078125 -0.0625 0.234375 -0.0625l0.375 0l0 -2.765625q0 -0.484375 -0.34375 -0.8125q-0.34375 -0.32812452 -0.9375 -0.32812452q-0.4375 0 -0.765625 0.18749952q-0.328125 0.171875 -0.9375 0.890625l0 2.828125l0.515625 0q0.15625 0 0.21875 0.0625q0.078125 0.0625 0.078125 0.171875q0 0.09375 -0.078125 0.15625q-0.0625 0.0625 -0.21875 0.0625l-1.484375 0q-0.15625 0 -0.234375 -0.0625q-0.0625 -0.0625 -0.0625 -0.15625q0 -0.109375 0.0625 -0.171875q0.078125 -0.0625 0.234375 -0.0625l0.515625 0l0 -3.734375l-0.375 0q-0.171875 0 -0.25 -0.0625q-0.0625 -0.07812452 -0.0625 -0.17187452q0 -0.09375 0.0625 -0.15625q0.078125 -0.078125 0.25 -0.078125l0.828125 0z" fill-rule="nonzero"/><path fill="#010000" fill-opacity="0.0" d="m58.560863 3.1137831l19.803219 0l0 12.4609375l-19.803219 0l0 -12.4609375z" fill-rule="nonzero"/><path fill="#080808" d="m61.998363 9.599623q0 0.625 -0.171875 1.3125q-0.15625 0.6875 -0.609375 1.59375q-0.453125 0.921875 -0.671875 1.09375q-0.0625 0.0625 -0.140625 0.0625q-0.09375 0 -0.171875 -0.0625q-0.0625 -0.0625 -0.0625 -0.15625q0 -0.046875 0.046875 -0.125q0.59375 -1.078125 0.84375 -1.953125q0.25 -0.875 0.25 -1.765625q0 -0.890625 -0.25 -1.7656245q-0.25 -0.875 -0.84375 -1.96875q-0.046875 -0.0625 -0.046875 -0.109375q0 -0.09375 0.0625 -0.15625q0.078125 -0.0625 0.171875 -0.0625q0.078125 0 0.140625 0.046875q0.203125 0.1875 0.65625 1.078125q0.453125 0.875 0.625 1.5624995q0.171875 0.6875 0.171875 1.375zm12.81152 0q0.265625 0.203125 0.359375 0.390625q0.125 0.234375 0.125 0.5625l0 1.9375q0 0.296875 0.171875 0.484375q0.1875 0.203125 0.4375 0.234375q0.171875 0.015625 0.21875 0.0625q0.078125 0.0625 0.078125 0.171875q0 0.09375 -0.078125 0.15625q-0.0625 0.0625 -0.203125 0.0625q-0.421875 0 -0.703125 -0.265625q-0.375 -0.375 -0.375 -0.90625l0 -1.9375q0 -0.296875 -0.1875 -0.484375q-0.171875 -0.203125 -0.453125 -0.234375q-0.140625 -0.015625 -0.203125 -0.0625q-0.0625 -0.0625 -0.0625 -0.171875q0 -0.109375 0.0625 -0.15625q0.0625 -0.0625 0.203125 -0.078125q0.28125 -0.03125 0.453125 -0.21875q0.1875 -0.203125 0.1875 -0.5l0 -1.9374995q0 -0.5 0.3125 -0.828125q0.328125 -0.34375 0.78125 -0.34375q0.125 0 0.1875 0.0625q0.078125 0.0625 0.078125 0.15625q0 0.09375 -0.078125 0.15625q-0.046875 0.0625 -0.21875 0.078125q-0.265625 0.03125 -0.4375 0.234375q-0.171875 0.1875 -0.171875 0.484375l0 1.9374995q0 0.328125 -0.109375 0.546875q-0.109375 0.203125 -0.375 0.40625z" fill-rule="nonzero"/><path fill="#010000" fill-opacity="0.0" d="m78.36408 3.1137831l0 0l0 12.4609375l0 0l0 -12.4609375z" fill-rule="nonzero"/><path fill="#ffffff" d="m13.178477 14.831497l72.61182 0l0 12.799999l-72.61182 0l0 -12.799999z" fill-rule="nonzero"/><path fill="#000000" fill-opacity="0.0" d="m13.178477 15.913782l6.601075 0l0 12.4609375l-6.601075 0l0 -12.4609375z" fill-rule="nonzero"/><path fill="#010000" fill-opacity="0.0" d="m19.779552 15.913782l19.803223 0l0 12.4609375l-19.803223 0l0 -12.4609375z" fill-rule="nonzero"/><path fill="#000000" d="m25.607677 22.758997q0 1.03125 -0.75 1.765625q-0.734375 0.71875 -1.78125 0.71875q-1.046875 0 -1.78125 -0.734375q-0.734375 -0.734375 -0.734375 -1.75q0 -1.03125 0.734375 -1.765625q0.734375 -0.734375 1.78125 -0.734375q1.046875 0 1.78125 0.734375q0.75 0.71875 0.75 1.765625zm-0.46875 0q0 -0.84375 -0.609375 -1.4375q-0.59375 -0.609375 -1.453125 -0.609375q-0.859375 0 -1.46875 0.609375q-0.59375 0.59375 -0.59375 1.4375q0 0.828125 0.59375 1.4375q0.609375 0.59375 1.46875 0.59375q0.859375 0 1.453125 -0.59375q0.609375 -0.59375 0.609375 -1.4375zm6.085449 2.3125l0 -0.65625q-0.921875 0.828125 -2.0 0.828125q-0.65625 0 -1.0 -0.359375q-0.453125 -0.46875 -0.453125 -1.09375l0 -2.90625l-0.59375 0q-0.171875 0 -0.25 -0.0625q-0.0625 -0.078125 -0.0625 -0.171875q0 -0.09375 0.0625 -0.15625q0.078125 -0.078125 0.25 -0.078125l1.046875 0l0 3.375q0 0.4375 0.28125 0.71875q0.28125 0.28125 0.703125 0.28125q1.09375 0 2.015625 -1.0l0 -2.90625l-0.828125 0q-0.171875 0 -0.234375 -0.0625q-0.0625 -0.078125 -0.0625 -0.171875q0 -0.09375 0.0625 -0.15625q0.0625 -0.078125 0.234375 -0.078125l1.28125 0l0 4.203125l0.375 0q0.171875 0 0.234375 0.0625q0.078125 0.0625 0.078125 0.171875q0 0.09375 -0.078125 0.15625q-0.0625 0.0625 -0.234375 0.0625l-0.828125 0zm4.132324 -4.65625l2.453125 0q0.15625 0 0.21875 0.078125q0.078125 0.0625 0.078125 0.15625q0 0.09375 -0.078125 0.171875q-0.0625 0.0625 -0.21875 0.0625l-2.453125 0l0 3.0q0 0.390625 0.3125 0.65625q0.3125 0.25 0.921875 0.25q0.453125 0 0.984375 -0.125q0.53125 -0.140625 0.828125 -0.3125q0.109375 -0.078125 0.1875 -0.078125q0.078125 0 0.140625 0.078125q0.0625 0.0625 0.0625 0.15625q0 0.078125 -0.0625 0.15625q-0.171875 0.171875 -0.84375 0.375q-0.65625 0.203125 -1.265625 0.203125q-0.78125 0 -1.25 -0.359375q-0.46875 -0.375 -0.46875 -1.0l0 -3.0l-0.84375 0q-0.15625 0 -0.234375 -0.0625q-0.0625 -0.078125 -0.0625 -0.171875q0 -0.09375 0.0625 -0.15625q0.078125 -0.078125 0.234375 -0.078125l0.84375 0l0 -1.328125q0 -0.15625 0.0625 -0.21875q0.0625 -0.078125 0.15625 -0.078125q0.109375 0 0.171875 0.078125q0.0625 0.0625 0.0625 0.21875l0 1.328125z" fill-rule="nonzero"/><path fill="#000000" fill-opacity="0.0" d="m39.582775 15.913782l6.601074 0l0 12.4609375l-6.601074 0l0 -12.4609375z" fill-rule="nonzero"/><path fill="#010000" fill-opacity="0.0" d="m46.18385 15.913782l39.60644 0l0 12.4609375l-39.60644 0l0 -12.4609375z" fill-rule="nonzero"/><path fill="#434343" d="m49.386974 20.415247l0.203125 0q0.296875 0 0.5 0.21875q0.21875 0.21875 0.21875 0.515625q0 0.3125 -0.21875 0.53125q-0.203125 0.203125 -0.5 0.203125l-0.203125 0q-0.296875 0 -0.515625 -0.21875q-0.21875 -0.21875 -0.21875 -0.515625q0 -0.3125 0.21875 -0.515625q0.21875 -0.21875 0.515625 -0.21875zm0 3.359375l0.203125 0q0.296875 0 0.5 0.21875q0.21875 0.203125 0.21875 0.515625q0 0.296875 -0.21875 0.515625q-0.203125 0.203125 -0.5 0.203125l-0.203125 0q-0.296875 0 -0.515625 -0.203125q-0.21875 -0.21875 -0.21875 -0.515625q0 -0.3125 0.21875 -0.515625q0.21875 -0.21875 0.515625 -0.21875zm9.163574 -2.4375l-4.921875 0q-0.15625 0 -0.234375 -0.0625q-0.0625 -0.0625 -0.0625 -0.171875q0 -0.09375 0.0625 -0.15625q0.078125 -0.0625 0.234375 -0.0625l4.921875 0q0.15625 0 0.21875 0.0625q0.078125 0.0625 0.078125 0.171875q0 0.09375 -0.078125 0.15625q-0.0625 0.0625 -0.21875 0.0625zm0 1.625l-4.921875 0q-0.15625 0 -0.234375 -0.0625q-0.0625 -0.0625 -0.0625 -0.171875q0 -0.09375 0.0625 -0.15625q0.078125 -0.0625 0.234375 -0.0625l4.921875 0q0.15625 0 0.21875 0.0625q0.078125 0.0625 0.078125 0.15625q0 0.109375 -0.078125 0.171875q-0.0625 0.0625 -0.21875 0.0625zm10.96777 -4.71875l0 6.375l1.546875 0q0.15625 0 0.21875 0.0625q0.078125 0.0625 0.078125 0.171875q0 0.09375 -0.078125 0.15625q-0.0625 0.0625 -0.21875 0.0625l-3.546875 0q-0.171875 0 -0.25 -0.0625q-0.0625 -0.0625 -0.0625 -0.15625q0 -0.109375 0.0625 -0.171875q0.078125 -0.0625 0.25 -0.0625l1.546875 0l0 -5.75l-1.484375 0.453125q-0.09375 0.03125 -0.15625 0.03125q-0.078125 0 -0.140625 -0.0625q-0.0625 -0.0625 -0.0625 -0.15625q0 -0.078125 0.046875 -0.15625q0.046875 -0.046875 0.1875 -0.09375l2.0625 -0.640625zm6.272949 5.53125l0.203125 0q0.296875 0 0.5 0.21875q0.21875 0.203125 0.21875 0.515625q0 0.296875 -0.21875 0.515625q-0.203125 0.203125 -0.5 0.203125l-0.203125 0q-0.296875 0 -0.515625 -0.203125q-0.21875 -0.21875 -0.21875 -0.515625q0 -0.3125 0.21875 -0.515625q0.21875 -0.21875 0.515625 -0.21875zm8.882324 -4.53125l0 3.765625q0 0.953125 -0.640625 1.59375q-0.625 0.640625 -1.53125 0.640625q-0.59375 0 -1.0625 -0.25q-0.46875 -0.265625 -0.796875 -0.796875q-0.328125 -0.546875 -0.328125 -1.1875l0 -3.765625l-0.375 0q-0.171875 0 -0.234375 -0.0625q-0.0625 -0.0625 -0.0625 -0.171875q0 -0.09375 0.0625 -0.171875q0.0625 -0.046875 0.234375 -0.046875l1.65625 0q0.171875 0 0.234375 0.0625q0.078125 0.0625 0.078125 0.15625q0 0.109375 -0.078125 0.171875q-0.0625 0.0625 -0.234375 0.0625l-0.828125 0l0 3.765625q0 0.75 0.5 1.265625q0.515625 0.515625 1.21875 0.515625q0.453125 0 0.8125 -0.203125q0.375 -0.203125 0.640625 -0.625q0.28125 -0.421875 0.28125 -0.953125l0 -3.765625l-0.828125 0q-0.15625 0 -0.234375 -0.0625q-0.0625 -0.0625 -0.0625 -0.171875q0 -0.09375 0.0625 -0.15625q0.078125 -0.0625 0.234375 -0.0625l1.65625 0q0.171875 0 0.234375 0.0625q0.078125 0.0625 0.078125 0.15625q0 0.109375 -0.078125 0.171875q-0.0625 0.0625 -0.234375 0.0625l-0.375 0z" fill-rule="nonzero"/><path fill="#010000" fill-opacity="0.0" d="m85.79029 15.913782l0 0l0 12.4609375l0 0l0 -12.4609375z" fill-rule="nonzero"/><path fill="#ffffff" d="m13.178477 27.631496l90.55849 0l0 12.799999l-90.55849 0l0 -12.799999z" fill-rule="nonzero"/><path fill="#000000" fill-opacity="0.0" d="m13.178477 28.713781l19.803223 0l0 12.460939l-19.803223 0l0 -12.460939z" fill-rule="nonzero"/><path fill="#080808" d="m16.740978 35.199623q-0.265625 -0.203125 -0.359375 -0.390625q-0.125 -0.234375 -0.125 -0.5625l0 -1.9375q0 -0.296875 -0.1875 -0.5000019q-0.17187595 -0.203125 -0.43750095 -0.21875q-0.171875 -0.015625 -0.21875 -0.0625q-0.0625 -0.078125 -0.0625 -0.171875q0 -0.09375 0.0625 -0.15625q0.0625 -0.0625 0.203125 -0.0625q0.43750095 0 0.70312595 0.265625q0.390625 0.359375 0.390625 0.9062519l0 1.9375q0 0.296875 0.171875 0.5q0.1875 0.1875 0.453125 0.21875q0.15625 0.015625 0.21875 0.078125q0.0625 0.046875 0.0625 0.15625q0 0.109375 -0.0625 0.171875q-0.0625 0.046875 -0.21875 0.0625q-0.265625 0.03125 -0.453125 0.234375q-0.171875 0.1875 -0.171875 0.484375l0 1.9375q0 0.5 -0.328125 0.828125q-0.3125 0.34375 -0.76562595 0.34375q-0.140625 0 -0.203125 -0.0625q-0.0625 -0.0625 -0.0625 -0.15625q0 -0.109375 0.0625 -0.171875q0.046875 -0.046875 0.21875 -0.0625q0.28125 -0.03125 0.45312595 -0.234375q0.171875 -0.1875 0.171875 -0.484375l0 -1.9375q0 -0.328125 0.109375 -0.53125q0.109375 -0.21875 0.375 -0.421875zm12.842773 1.375l0.203125 0q0.296875 0 0.5 0.21875q0.21875 0.203125 0.21875 0.515625q0 0.296875 -0.21875 0.515625q-0.203125 0.203125 -0.5 0.203125l-0.203125 0q-0.296875 0 -0.515625 -0.203125q-0.21875 -0.21875 -0.21875 -0.515625q0 -0.3125 0.21875 -0.515625q0.21875 -0.21875 0.515625 -0.21875z" fill-rule="nonzero"/><path fill="#010000" fill-opacity="0.0" d="m32.9817 28.99996l57.553112 0l0 12.071535l-57.553112 0l0 -12.071535z" fill-rule="nonzero"/><path fill="#008000" d="m38.95045 35.59025q0 0.625 -0.34375 1.203125q-0.34375 0.5625 -1.015625 0.90625q-0.671875 0.34375 -1.40625 0.34375q-0.71875 0 -1.390625 -0.328125q-0.671875 -0.34375 -1.015625 -0.921875q-0.34375 -0.578125 -0.34375 -1.203125q0 -0.640625 0.34375 -1.25q0.359375 -0.625 1.015625 -0.96875q0.671875 -0.359375 1.390625 -0.359375q0.734375 0 1.40625 0.359375q0.671875 0.359375 1.015625 0.96875q0.34375 0.609375 0.34375 1.25zm-1.0625 0.015625q0 -0.515625 -0.375 -0.953125q-0.5 -0.578125 -1.328125 -0.578125q-0.71875 0 -1.203125 0.46875q-0.484375 0.453125 -0.484375 1.0625q0 0.5 0.484375 0.9375q0.5 0.4375 1.203125 0.4375q0.71875 0 1.203125 -0.4375q0.5 -0.4375 0.5 -0.9375zm4.4260406 -1.390625l0 2.140625q0 0.34375 0.140625 0.453125q0.21875 0.171875 0.78125 0.171875q0.8125 0 1.5 -0.359375q0.265625 -0.125 0.421875 -0.125q0.203125 0 0.359375 0.15625q0.15625 0.15625 0.15625 0.375q0 0.203125 -0.171875 0.359375q-0.25 0.25 -1.0 0.453125q-0.75 0.203125 -1.265625 0.203125q-1.0 0 -1.5 -0.421875q-0.484375 -0.4375 -0.484375 -1.0625l0 -2.34375l-0.390625 0q-0.390625 0 -0.5625 -0.140625q-0.15625 -0.15625 -0.15625 -0.390625q0 -0.234375 0.15625 -0.375q0.171875 -0.15625 0.5625 -0.15625l0.390625 0l0 -0.96875q0 -0.3906269 0.140625 -0.5468769q0.15625 -0.171875 0.390625 -0.171875q0.234375 0 0.375 0.171875q0.15625 0.15625 0.15625 0.5468769l0 0.96875l1.96875 0q0.390625 0 0.546875 0.15625q0.171875 0.140625 0.171875 0.375q0 0.234375 -0.171875 0.390625q-0.15625 0.140625 -0.546875 0.140625l-1.96875 0zm5.5510406 -3.093752l0 2.281252q0.34375 -0.203125 0.671875 -0.296875q0.34375 -0.09375 0.6875 -0.09375q0.5625 0 0.984375 0.1875q0.4375 0.1875 0.71875 0.59375q0.28125 0.390625 0.28125 1.015625l0 2.0q0.40625 0 0.53125 0.078125q0.25 0.15625 0.25 0.453125q0 0.234375 -0.15625 0.390625q-0.15625 0.140625 -0.546875 0.140625l-1.21875 0q-0.375 0 -0.546875 -0.140625q-0.15625 -0.15625 -0.15625 -0.390625q0 -0.296875 0.25 -0.453125q0.125 -0.09375 0.53125 -0.078125l0 -1.9375q0 -0.40625 -0.1875 -0.578125q-0.25 -0.21875 -0.734375 -0.21875q-0.34375 0 -0.625 0.140625q-0.265625 0.140625 -0.734375 0.59375l0 2.0q0.421875 0 0.53125 0.078125q0.25 0.15625 0.25 0.453125q0 0.234375 -0.15625 0.390625q-0.15625 0.140625 -0.546875 0.140625l-1.21875 0q-0.375 0 -0.546875 -0.140625q-0.15625 -0.15625 -0.15625 -0.390625q0 -0.296875 0.25 -0.453125q0.125 -0.09375 0.53125 -0.078125l0 -4.625l-0.1875 0q-0.375 0 -0.546875 -0.140625q-0.15625 -0.1562519 -0.15625 -0.3906269q0 -0.234375 0.15625 -0.375q0.171875 -0.15625 0.546875 -0.15625l1.25 0zm10.176041 4.921877l-4.375 0q0.171875 0.421875 0.59375 0.6875q0.421875 0.25 1.140625 0.25q0.59375 0 1.578125 -0.265625q0.40625 -0.09375 0.5625 -0.09375q0.21875 0 0.359375 0.15625q0.140625 0.140625 0.140625 0.375q0 0.203125 -0.15625 0.34375q-0.203125 0.203125 -1.015625 0.375q-0.796875 0.171875 -1.546875 0.171875q-1.28125 0 -2.046875 -0.71875q-0.765625 -0.734375 -0.765625 -1.78125q0 -1.125 0.828125 -1.828125q0.828125 -0.703125 1.90625 -0.703125q0.65625 0 1.203125 0.234375q0.546875 0.21875 0.8125 0.484375q0.375 0.390625 0.609375 0.953125q0.171875 0.390625 0.171875 0.90625l0 0.453125zm-1.1875 -1.0625q-0.234375 -0.453125 -0.640625 -0.671875q-0.390625 -0.234375 -0.9375 -0.234375q-0.53125 0 -0.9375 0.234375q-0.390625 0.21875 -0.640625 0.671875l3.15625 0zm4.6760406 -1.828125l0 0.65625q0.671875 -0.484375 1.0625 -0.640625q0.390625 -0.15625 0.734375 -0.15625q0.515625 0 0.9999962 0.375q0.34375 0.265625 0.34375 0.53125q0 0.234375 -0.171875 0.390625q-0.15625 0.15625 -0.375 0.15625q-0.20312119 0 -0.4218712 -0.1875q-0.21875 -0.203125 -0.390625 -0.203125q-0.21875 0 -0.671875 0.28125q-0.4375 0.28125 -1.109375 0.84375l0 1.609375l1.53125 0q0.375 0 0.53125 0.15625q0.171875 0.140625 0.171875 0.375q0 0.234375 -0.171875 0.390625q-0.15625 0.140625 -0.53125 0.140625l-3.21875 0q-0.390625 0 -0.5625 -0.140625q-0.15625 -0.15625 -0.15625 -0.390625q0 -0.234375 0.15625 -0.375q0.171875 -0.15625 0.5625 -0.15625l0.625 0l0 -2.59375l-0.375 0q-0.390625 0 -0.5625 -0.140625q-0.15625 -0.15625 -0.15625 -0.390625q0 -0.234375 0.15625 -0.375q0.171875 -0.15625 0.5625 -0.15625l1.4375 0zm6.629162 2.75l-0.734375 1.96875l-1.0 0l-0.90625 -3.65625q-0.28125 -0.015625 -0.4375 -0.15625q-0.140625 -0.15625 -0.140625 -0.375q0 -0.234375 0.15625 -0.375q0.171875 -0.15625 0.546875 -0.15625l1.0 0q0.390625 0 0.546875 0.15625q0.171875 0.140625 0.171875 0.375q0 0.234375 -0.1875 0.40625q-0.140625 0.125 -0.5625 0.125l0.40625 1.6875l0.65625 -1.734375l0.953125 0l0.671875 1.734375l0.40625 -1.6875q-0.390625 0 -0.515625 -0.078125q-0.25 -0.15625 -0.25 -0.453125q0 -0.234375 0.15625 -0.375q0.171875 -0.15625 0.5625 -0.15625l1.0 0q0.390625 0 0.546875 0.15625q0.171875 0.140625 0.171875 0.375q0 0.21875 -0.15625 0.375q-0.140625 0.140625 -0.421875 0.15625l-0.875 3.65625l-0.984375 0l-0.78125 -1.96875zm6.7697906 -4.781252l0 1.1250019l-1.265625 0l0 -1.1250019l1.265625 0zm0.140625 2.031252l0 3.65625l1.28125 0q0.390625 0 0.546875 0.15625q0.171875 0.140625 0.171875 0.375q0 0.234375 -0.171875 0.390625q-0.15625 0.140625 -0.546875 0.140625l-3.625 0q-0.375 0 -0.546875 -0.140625q-0.15625 -0.15625 -0.15625 -0.390625q0 -0.234375 0.15625 -0.375q0.171875 -0.15625 0.546875 -0.15625l1.28125 0l0 -2.59375l-0.859375 0q-0.375 0 -0.546875 -0.140625q-0.15625 -0.15625 -0.15625 -0.390625q0 -0.234375 0.15625 -0.375q0.171875 -0.15625 0.546875 -0.15625l1.921875 0zm7.0197906 1.25q-0.25 -0.171875 -0.546875 -0.25q-0.28125 -0.078125 -0.59375 -0.078125q-0.609375 0 -0.984375 0.203125q-0.15625 0.09375 -0.15625 0.1875q0 0.125 0.21875 0.234375q0.171875 0.09375 0.734375 0.171875q1.0625 0.140625 1.484375 0.28125q0.546875 0.1875 0.84375 0.578125q0.296875 0.375 0.296875 0.796875q0 0.578125 -0.5 0.953125q-0.734375 0.5625 -1.890625 0.5625q-0.453125 0 -0.84375 -0.078125q-0.390625 -0.078125 -0.71875 -0.234375q-0.078125 0.0625 -0.171875 0.109375q-0.09375 0.03125 -0.1875 0.03125q-0.25 0 -0.40625 -0.15625q-0.140625 -0.171875 -0.140625 -0.5625l0 -0.359375q0 -0.390625 0.140625 -0.546875q0.15625 -0.171875 0.40625 -0.171875q0.1875 0 0.3125 0.109375q0.140625 0.109375 0.203125 0.375q0.25 0.203125 0.59375 0.3125q0.34375 0.109375 0.78125 0.109375q0.734375 0 1.140625 -0.234375q0.203125 -0.109375 0.203125 -0.234375q0 -0.21875 -0.28125 -0.34375q-0.28125 -0.140625 -1.140625 -0.234375q-1.28125 -0.140625 -1.71875 -0.515625q-0.421875 -0.375 -0.421875 -0.9375q0 -0.578125 0.484375 -0.953125q0.65625 -0.515625 1.703125 -0.515625q0.375 0 0.71875 0.078125q0.34375 0.0625 0.65625 0.203125q0.09375 -0.078125 0.171875 -0.109375q0.09375 -0.03125 0.171875 -0.03125q0.21875 0 0.359375 0.171875q0.140625 0.15625 0.140625 0.53125l0 0.265625q0 0.34375 -0.078125 0.46875q-0.171875 0.25 -0.453125 0.25q-0.1875 0 -0.34375 -0.125q-0.140625 -0.125 -0.1875 -0.3125zm7.9260406 1.640625l-4.375 0q0.171875 0.421875 0.59375 0.6875q0.421875 0.25 1.140625 0.25q0.59375 0 1.578125 -0.265625q0.40625 -0.09375 0.5625 -0.09375q0.21875 0 0.359375 0.15625q0.140625 0.140625 0.140625 0.375q0 0.203125 -0.15625 0.34375q-0.203125 0.203125 -1.015625 0.375q-0.796875 0.171875 -1.546875 0.171875q-1.28125 0 -2.046875 -0.71875q-0.765625 -0.734375 -0.765625 -1.78125q0 -1.125 0.828125 -1.828125q0.828125 -0.703125 1.90625 -0.703125q0.65625 0 1.203125 0.234375q0.546875 0.21875 0.8125 0.484375q0.375 0.390625 0.609375 0.953125q0.171875 0.390625 0.171875 0.90625l0 0.453125zm-1.1875 -1.0625q-0.234375 -0.453125 -0.640625 -0.671875q-0.390625 -0.234375 -0.9375 -0.234375q-0.53125 0 -0.9375 0.234375q-0.390625 0.21875 -0.640625 0.671875l3.15625 0z" fill-rule="nonzero"/><path fill="#000000" fill-opacity="0.0" d="m90.53481 28.713781l13.202148 0l0 12.460939l-13.202148 0l0 -12.460939z" fill-rule="nonzero"/><path fill="#080808" d="m100.18276 35.199623q0.265625 0.203125 0.359375 0.390625q0.125 0.234375 0.125 0.5625l0 1.9375q0 0.296875 0.171875 0.484375q0.1875 0.203125 0.4375 0.234375q0.171875 0.015625 0.21875 0.0625q0.078125 0.0625 0.078125 0.171875q0 0.09375 -0.078125 0.15625q-0.0625 0.0625 -0.203125 0.0625q-0.421875 0 -0.703125 -0.265625q-0.375 -0.375 -0.375 -0.90625l0 -1.9375q0 -0.296875 -0.1875 -0.484375q-0.171875 -0.203125 -0.453125 -0.234375q-0.140625 -0.015625 -0.203125 -0.0625q-0.0625 -0.0625 -0.0625 -0.171875q0 -0.109375 0.0625 -0.15625q0.0625 -0.0625 0.203125 -0.078125q0.28125 -0.03125 0.453125 -0.21875q0.1875 -0.203125 0.1875 -0.5l0 -1.9375q0 -0.5000019 0.3125 -0.8281269q0.328125 -0.34375 0.78125 -0.34375q0.125 0 0.1875 0.0625q0.078125 0.0625 0.078125 0.15625q0 0.09375 -0.078125 0.15625q-0.046875 0.0625 -0.21875 0.078125q-0.265625 0.03125 -0.4375 0.234375q-0.171875 0.1875019 -0.171875 0.4843769l0 1.9375q0 0.328125 -0.109375 0.546875q-0.109375 0.203125 -0.375 0.40625z" fill-rule="nonzero"/><path fill="#000000" fill-opacity="0.0" d="m103.73696 28.713781l0 0l0 12.460939l0 0l0 -12.460939z" fill-rule="nonzero"/><path fill="#ffffff" d="m13.178477 40.43149l72.61182 0l0 12.799999l-72.61182 0l0 -12.799999z" fill-rule="nonzero"/><path fill="#000000" fill-opacity="0.0" d="m13.178477 41.51378l6.601075 0l0 12.4609375l-6.601075 0l0 -12.4609375z" fill-rule="nonzero"/><path fill="#010000" fill-opacity="0.0" d="m19.779552 41.51378l19.803223 0l0 12.4609375l-19.803223 0l0 -12.4609375z" fill-rule="nonzero"/><path fill="#000000" d="m25.607677 48.358994q0 1.03125 -0.75 1.765625q-0.734375 0.71875 -1.78125 0.71875q-1.046875 0 -1.78125 -0.734375q-0.734375 -0.734375 -0.734375 -1.75q0 -1.03125 0.734375 -1.765625q0.734375 -0.734375 1.78125 -0.734375q1.046875 0 1.78125 0.734375q0.75 0.71875 0.75 1.765625zm-0.46875 0q0 -0.84375 -0.609375 -1.4375q-0.59375 -0.609375 -1.453125 -0.609375q-0.859375 0 -1.46875 0.609375q-0.59375 0.59375 -0.59375 1.4375q0 0.828125 0.59375 1.4375q0.609375 0.59375 1.46875 0.59375q0.859375 0 1.453125 -0.59375q0.609375 -0.59375 0.609375 -1.4375zm6.085449 2.3125l0 -0.65625q-0.921875 0.828125 -2.0 0.828125q-0.65625 0 -1.0 -0.359375q-0.453125 -0.46875 -0.453125 -1.09375l0 -2.90625l-0.59375 0q-0.171875 0 -0.25 -0.0625q-0.0625 -0.078125 -0.0625 -0.171875q0 -0.09375 0.0625 -0.15625q0.078125 -0.078125 0.25 -0.078125l1.046875 0l0 3.375q0 0.4375 0.28125 0.71875q0.28125 0.28125 0.703125 0.28125q1.09375 0 2.015625 -1.0l0 -2.90625l-0.828125 0q-0.171875 0 -0.234375 -0.0625q-0.0625 -0.078125 -0.0625 -0.171875q0 -0.09375 0.0625 -0.15625q0.0625 -0.078125 0.234375 -0.078125l1.28125 0l0 4.203125l0.375 0q0.171875 0 0.234375 0.0625q0.078125 0.0625 0.078125 0.171875q0 0.09375 -0.078125 0.15625q-0.0625 0.0625 -0.234375 0.0625l-0.828125 0zm4.132324 -4.65625l2.453125 0q0.15625 0 0.21875 0.078125q0.078125 0.0625 0.078125 0.15625q0 0.09375 -0.078125 0.171875q-0.0625 0.0625 -0.21875 0.0625l-2.453125 0l0 3.0q0 0.390625 0.3125 0.65625q0.3125 0.25 0.921875 0.25q0.453125 0 0.984375 -0.125q0.53125 -0.140625 0.828125 -0.3125q0.109375 -0.078125 0.1875 -0.078125q0.078125 0 0.140625 0.078125q0.0625 0.0625 0.0625 0.15625q0 0.078125 -0.0625 0.15625q-0.171875 0.171875 -0.84375 0.375q-0.65625 0.203125 -1.265625 0.203125q-0.78125 0 -1.25 -0.359375q-0.46875 -0.375 -0.46875 -1.0l0 -3.0l-0.84375 0q-0.15625 0 -0.234375 -0.0625q-0.0625 -0.078125 -0.0625 -0.171875q0 -0.09375 0.0625 -0.15625q0.078125 -0.078125 0.234375 -0.078125l0.84375 0l0 -1.328125q0 -0.15625 0.0625 -0.21875q0.0625 -0.078125 0.15625 -0.078125q0.109375 0 0.171875 0.078125q0.0625 0.0625 0.0625 0.21875l0 1.328125z" fill-rule="nonzero"/><path fill="#000000" fill-opacity="0.0" d="m39.582775 41.51378l6.601074 0l0 12.4609375l-6.601074 0l0 -12.4609375z" fill-rule="nonzero"/><path fill="#010000" fill-opacity="0.0" d="m46.18385 41.51378l39.60644 0l0 12.4609375l-39.60644 0l0 -12.4609375z" fill-rule="nonzero"/><path fill="#434343" d="m49.386974 46.015244l0.203125 0q0.296875 0 0.5 0.21875q0.21875 0.21875 0.21875 0.515625q0 0.3125 -0.21875 0.53125q-0.203125 0.203125 -0.5 0.203125l-0.203125 0q-0.296875 0 -0.515625 -0.21875q-0.21875 -0.21875 -0.21875 -0.515625q0 -0.3125 0.21875 -0.515625q0.21875 -0.21875 0.515625 -0.21875zm0 3.359375l0.203125 0q0.296875 0 0.5 0.21875q0.21875 0.203125 0.21875 0.515625q0 0.296875 -0.21875 0.515625q-0.203125 0.203125 -0.5 0.203125l-0.203125 0q-0.296875 0 -0.515625 -0.203125q-0.21875 -0.21875 -0.21875 -0.515625q0 -0.3125 0.21875 -0.515625q0.21875 -0.21875 0.515625 -0.21875zm9.163574 -2.4375l-4.921875 0q-0.15625 0 -0.234375 -0.0625q-0.0625 -0.0625 -0.0625 -0.171875q0 -0.09375 0.0625 -0.15625q0.078125 -0.0625 0.234375 -0.0625l4.921875 0q0.15625 0 0.21875 0.0625q0.078125 0.0625 0.078125 0.171875q0 0.09375 -0.078125 0.15625q-0.0625 0.0625 -0.21875 0.0625zm0 1.625l-4.921875 0q-0.15625 0 -0.234375 -0.0625q-0.0625 -0.0625 -0.0625 -0.171875q0 -0.09375 0.0625 -0.15625q0.078125 -0.0625 0.234375 -0.0625l4.921875 0q0.15625 0 0.21875 0.0625q0.078125 0.0625 0.078125 0.15625q0 0.109375 -0.078125 0.171875q-0.0625 0.0625 -0.21875 0.0625zm8.795895 1.65625l3.46875 0l0 -0.171875q0 -0.171875 0.0625 -0.234375q0.0625 -0.0625 0.15625 -0.0625q0.109375 0 0.171875 0.0625q0.0625 0.0625 0.0625 0.234375l0 0.625l-4.359375 0l0 -0.671875q1.375 -1.234375 2.671875 -2.515625q0.609375 -0.59375 0.828125 -0.859375q0.234375 -0.28125 0.3125 -0.5q0.078125 -0.21875 0.078125 -0.421875q0 -0.578125 -0.46875 -1.03125q-0.453125 -0.453125 -1.125 -0.453125q-0.59375 0 -1.046875 0.34375q-0.453125 0.34375 -0.59375 0.84375q-0.03125 0.125 -0.078125 0.15625q-0.0625 0.0625 -0.140625 0.0625q-0.09375 0 -0.15625 -0.0625q-0.0625 -0.0625 -0.0625 -0.15625q0 -0.25 0.28125 -0.6875q0.28125 -0.4375 0.78125 -0.6875q0.5 -0.265625 1.015625 -0.265625q0.84375 0 1.453125 0.59375q0.609375 0.578125 0.609375 1.328125q0 0.3125 -0.109375 0.578125q-0.09375 0.25 -0.34375 0.5625q-0.25 0.296875 -0.875 0.921875q-1.59375 1.578125 -2.59375 2.4375l0 0.03125zm8.444824 -0.84375l0.203125 0q0.296875 0 0.5 0.21875q0.21875 0.203125 0.21875 0.515625q0 0.296875 -0.21875 0.515625q-0.203125 0.203125 -0.5 0.203125l-0.203125 0q-0.296875 0 -0.515625 -0.203125q-0.21875 -0.21875 -0.21875 -0.515625q0 -0.3125 0.21875 -0.515625q0.21875 -0.21875 0.515625 -0.21875zm8.882324 -4.53125l0 3.765625q0 0.953125 -0.640625 1.59375q-0.625 0.640625 -1.53125 0.640625q-0.59375 0 -1.0625 -0.25q-0.46875 -0.265625 -0.796875 -0.796875q-0.328125 -0.546875 -0.328125 -1.1875l0 -3.765625l-0.375 0q-0.171875 0 -0.234375 -0.0625q-0.0625 -0.0625 -0.0625 -0.171875q0 -0.09375 0.0625 -0.171875q0.0625 -0.046875 0.234375 -0.046875l1.65625 0q0.171875 0 0.234375 0.0625q0.078125 0.0625 0.078125 0.15625q0 0.109375 -0.078125 0.171875q-0.0625 0.0625 -0.234375 0.0625l-0.828125 0l0 3.765625q0 0.75 0.5 1.265625q0.515625 0.515625 1.21875 0.515625q0.453125 0 0.8125 -0.203125q0.375 -0.203125 0.640625 -0.625q0.28125 -0.421875 0.28125 -0.953125l0 -3.765625l-0.828125 0q-0.15625 0 -0.234375 -0.0625q-0.0625 -0.0625 -0.0625 -0.171875q0 -0.09375 0.0625 -0.15625q0.078125 -0.0625 0.234375 -0.0625l1.65625 0q0.171875 0 0.234375 0.0625q0.078125 0.0625 0.078125 0.15625q0 0.109375 -0.078125 0.171875q-0.0625 0.0625 -0.234375 0.0625l-0.375 0z" fill-rule="nonzero"/><path fill="#010000" fill-opacity="0.0" d="m85.79029 41.51378l0 0l0 12.4609375l0 0l0 -12.4609375z" fill-rule="nonzero"/><path fill="#ffffff" d="m13.178477 53.231487l6.601075 0l0 12.799999l-6.601075 0l0 -12.799999z" fill-rule="nonzero"/><path fill="#000000" fill-opacity="0.0" d="m13.178477 54.313774l6.601075 0l0 12.4609375l-6.601075 0l0 -12.4609375z" fill-rule="nonzero"/><path fill="#080808" d="m16.740978 60.799614q-0.265625 -0.203125 -0.359375 -0.390625q-0.125 -0.234375 -0.125 -0.5625l0 -1.9375q0 -0.296875 -0.1875 -0.5q-0.17187595 -0.203125 -0.43750095 -0.21875q-0.171875 -0.015625 -0.21875 -0.0625q-0.0625 -0.078125 -0.0625 -0.171875q0 -0.09375 0.0625 -0.15625q0.0625 -0.0625 0.203125 -0.0625q0.43750095 0 0.70312595 0.265625q0.390625 0.359375 0.390625 0.90625l0 1.9375q0 0.296875 0.171875 0.5q0.1875 0.1875 0.453125 0.21875q0.15625 0.015625 0.21875 0.078125q0.0625 0.046875 0.0625 0.15625q0 0.109375 -0.0625 0.171875q-0.0625 0.046875 -0.21875 0.0625q-0.265625 0.03125 -0.453125 0.234375q-0.171875 0.1875 -0.171875 0.484375l0 1.9375q0 0.5 -0.328125 0.828125q-0.3125 0.34375 -0.76562595 0.34375q-0.140625 0 -0.203125 -0.0625q-0.0625 -0.0625 -0.0625 -0.15625q0 -0.109375 0.0625 -0.171875q0.046875 -0.046875 0.21875 -0.0625q0.28125 -0.03125 0.45312595 -0.234375q0.171875 -0.1875 0.171875 -0.484375l0 -1.9375q0 -0.328125 0.109375 -0.53125q0.109375 -0.21875 0.375 -0.421875z" fill-rule="nonzero"/><path fill="#000000" fill-opacity="0.0" d="m19.779552 54.313774l0 0l0 12.4609375l0 0l0 -12.4609375z" fill-rule="nonzero"/><path fill="#000000" fill-opacity="0.0" d="m196.27559 0.72440946l102.708664 0l0 66.614174l-102.708664 0z" fill-rule="evenodd"/><path stroke="#999999" stroke-width="1.0" stroke-linejoin="round" stroke-linecap="butt" d="m196.27559 0.72440946l102.708664 0l0 66.614174l-102.708664 0z" fill-rule="evenodd"/><path fill="#008000" d="m209.43184 25.071497l0 -0.25q-0.40625 0.21875 -0.890625 0.3125q-0.484375 0.109375 -0.875 0.109375q-0.859375 0 -1.390625 -0.453125q-0.53125 -0.453125 -0.53125 -1.0q0 -0.671875 0.671875 -1.25q0.6875 -0.578125 1.890625 -0.578125q0.484375 0 1.125 0.109375l0 -0.25q0 -0.25 -0.203125 -0.390625q-0.203125 -0.15625 -0.78125 -0.15625q-0.484375 0 -1.234375 0.1875q-0.28125 0.0625 -0.4375 0.0625q-0.203125 0 -0.359375 -0.140625q-0.140625 -0.15625 -0.140625 -0.40625q0 -0.125 0.046875 -0.21875q0.046875 -0.109375 0.140625 -0.171875q0.09375 -0.0625 0.390625 -0.140625q0.40625 -0.109375 0.8125 -0.171875q0.40625 -0.0625 0.734375 -0.0625q1.0 0 1.546875 0.4375q0.546875 0.421875 0.546875 1.15625l0 2.203125l0.1875 0q0.390625 0 0.546875 0.15625q0.171875 0.140625 0.171875 0.375q0 0.234375 -0.171875 0.390625q-0.15625 0.140625 -0.546875 0.140625l-1.25 0zm0 -1.90625q-0.640625 -0.125 -1.1875 -0.125q-0.640625 0 -1.109375 0.3125q-0.296875 0.203125 -0.296875 0.40625q0 0.15625 0.140625 0.25q0.265625 0.171875 0.71875 0.171875q0.375 0 0.859375 -0.140625q0.5 -0.15625 0.875 -0.421875l0 -0.453125zm6.5822906 -1.5625q-0.25 -0.171875 -0.546875 -0.25q-0.28125 -0.078125 -0.59375 -0.078125q-0.609375 0 -0.984375 0.203125q-0.15625 0.09375 -0.15625 0.1875q0 0.125 0.21875 0.234375q0.171875 0.09375 0.734375 0.171875q1.0625 0.140625 1.484375 0.28125q0.546875 0.1875 0.84375 0.578125q0.296875 0.375 0.296875 0.796875q0 0.578125 -0.5 0.953125q-0.734375 0.5625 -1.890625 0.5625q-0.453125 0 -0.84375 -0.078125q-0.390625 -0.078125 -0.71875 -0.234375q-0.078125 0.0625 -0.171875 0.109375q-0.09375 0.03125 -0.1875 0.03125q-0.25 0 -0.40625 -0.15625q-0.140625 -0.171875 -0.140625 -0.5625l0 -0.359375q0 -0.390625 0.140625 -0.546875q0.15625 -0.171875 0.40625 -0.171875q0.1875 0 0.3125 0.109375q0.140625 0.109375 0.203125 0.375q0.25 0.203125 0.59375 0.3125q0.34375 0.109375 0.78125 0.109375q0.734375 0 1.140625 -0.234375q0.203125 -0.109375 0.203125 -0.234375q0 -0.21875 -0.28125 -0.34375q-0.28125 -0.140625 -1.140625 -0.234375q-1.28125 -0.140625 -1.71875 -0.515625q-0.421875 -0.375 -0.421875 -0.9375q0 -0.578125 0.484375 -0.953125q0.65625 -0.515625 1.703125 -0.515625q0.375 0 0.71875 0.078125q0.34375 0.0625 0.65625 0.203125q0.09375 -0.078125 0.171875 -0.109375q0.09375 -0.03125 0.171875 -0.03125q0.21875 0 0.359375 0.171875q0.140625 0.15625 0.140625 0.53125l0 0.265625q0 0.34375 -0.078125 0.46875q-0.171875 0.25 -0.453125 0.25q-0.1875 0 -0.34375 -0.125q-0.140625 -0.125 -0.1875 -0.3125zm6.3947906 0q-0.25 -0.171875 -0.546875 -0.25q-0.28125 -0.078125 -0.59375 -0.078125q-0.609375 0 -0.984375 0.203125q-0.15625 0.09375 -0.15625 0.1875q0 0.125 0.21875 0.234375q0.171875 0.09375 0.734375 0.171875q1.0625 0.140625 1.484375 0.28125q0.546875 0.1875 0.84375 0.578125q0.296875 0.375 0.296875 0.796875q0 0.578125 -0.5 0.953125q-0.734375 0.5625 -1.890625 0.5625q-0.453125 0 -0.84375 -0.078125q-0.390625 -0.078125 -0.71875 -0.234375q-0.078125 0.0625 -0.171875 0.109375q-0.09375 0.03125 -0.1875 0.03125q-0.25 0 -0.40625 -0.15625q-0.140625 -0.171875 -0.140625 -0.5625l0 -0.359375q0 -0.390625 0.140625 -0.546875q0.15625 -0.171875 0.40625 -0.171875q0.1875 0 0.3125 0.109375q0.140625 0.109375 0.203125 0.375q0.25 0.203125 0.59375 0.3125q0.34375 0.109375 0.78125 0.109375q0.734375 0 1.140625 -0.234375q0.203125 -0.109375 0.203125 -0.234375q0 -0.21875 -0.28125 -0.34375q-0.28125 -0.140625 -1.140625 -0.234375q-1.28125 -0.140625 -1.71875 -0.515625q-0.421875 -0.375 -0.421875 -0.9375q0 -0.578125 0.484375 -0.953125q0.65625 -0.515625 1.703125 -0.515625q0.375 0 0.71875 0.078125q0.34375 0.0625 0.65625 0.203125q0.09375 -0.078125 0.171875 -0.109375q0.09375 -0.03125 0.171875 -0.03125q0.21875 0 0.359375 0.171875q0.140625 0.15625 0.140625 0.53125l0 0.265625q0 0.34375 -0.078125 0.46875q-0.171875 0.25 -0.453125 0.25q-0.1875 0 -0.34375 -0.125q-0.140625 -0.125 -0.1875 -0.3125zm5.6291656 -3.28125l0 1.125l-1.265625 0l0 -1.125l1.265625 0zm0.140625 2.03125l0 3.65625l1.28125 0q0.390625 0 0.546875 0.15625q0.171875 0.140625 0.171875 0.375q0 0.234375 -0.171875 0.390625q-0.15625 0.140625 -0.546875 0.140625l-3.625 0q-0.375 0 -0.546875 -0.140625q-0.15625 -0.15625 -0.15625 -0.390625q0 -0.234375 0.15625 -0.375q0.171875 -0.15625 0.546875 -0.15625l1.28125 0l0 -2.59375l-0.859375 0q-0.375 0 -0.546875 -0.140625q-0.15625 -0.15625 -0.15625 -0.390625q0 -0.234375 0.15625 -0.375q0.171875 -0.15625 0.546875 -0.15625l1.921875 0zm7.0510406 0.3125l0 -0.3125l1.25 0q0.375 0 0.53125 0.15625q0.171875 0.140625 0.171875 0.375q0 0.234375 -0.171875 0.390625q-0.15625 0.140625 -0.53125 0.140625l-0.1875 0l0 3.875q0 0.5625 -0.234375 0.984375q-0.234375 0.421875 -0.734375 0.71875q-0.484375 0.3125 -1.09375 0.3125l-1.203125 0q-0.390625 0 -0.5625 -0.15625q-0.15625 -0.140625 -0.15625 -0.375q0 -0.25 0.15625 -0.40625q0.171875 -0.140625 0.5625 -0.140625l1.171875 0q0.484375 0 0.75 -0.265625q0.28125 -0.265625 0.28125 -0.671875l0 -0.515625q-0.359375 0.234375 -0.734375 0.34375q-0.359375 0.109375 -0.75 0.109375q-1.078125 0 -1.8125 -0.71875q-0.734375 -0.734375 -0.734375 -1.796875q0 -1.0625 0.734375 -1.78125q0.734375 -0.734375 1.8125 -0.734375q0.40625 0 0.765625 0.125q0.375 0.109375 0.71875 0.34375zm-0.015625 2.046875q0 -0.59375 -0.4375 -1.015625q-0.421875 -0.4375 -1.03125 -0.4375q-0.609375 0 -1.046875 0.4375q-0.4375 0.421875 -0.4375 1.015625q0 0.59375 0.4375 1.03125q0.4375 0.421875 1.046875 0.421875q0.609375 0 1.03125 -0.421875q0.4375 -0.4375 0.4375 -1.03125zm4.1604156 -2.359375l0 0.359375q0.28125 -0.25 0.625 -0.375q0.359375 -0.125 0.765625 -0.125q0.953125 0 1.5 0.578125q0.4375 0.46875 0.4375 1.234375l0 1.984375q0.34375 0 0.5 0.15625q0.171875 0.140625 0.171875 0.375q0 0.234375 -0.171875 0.390625q-0.15625 0.140625 -0.546875 0.140625l-0.96875 0q-0.375 0 -0.546875 -0.140625q-0.15625 -0.15625 -0.15625 -0.390625q0 -0.234375 0.15625 -0.375q0.15625 -0.15625 0.5 -0.15625l0 -2.015625q0 -0.34375 -0.1875 -0.515625q-0.25 -0.203125 -0.734375 -0.203125q-0.375 0 -0.65625 0.140625q-0.265625 0.140625 -0.6875 0.609375l0 1.984375q0.40625 0 0.53125 0.078125q0.25 0.15625 0.25 0.453125q0 0.234375 -0.171875 0.390625q-0.15625 0.140625 -0.546875 0.140625l-1.203125 0q-0.390625 0 -0.5625 -0.140625q-0.15625 -0.15625 -0.15625 -0.390625q0 -0.296875 0.25 -0.453125q0.125 -0.078125 0.53125 -0.078125l0 -2.59375q-0.328125 0 -0.5 -0.140625q-0.15625 -0.15625 -0.15625 -0.390625q0 -0.234375 0.15625 -0.375q0.171875 -0.15625 0.5625 -0.15625l1.015625 0z" fill-rule="nonzero"/><path fill="#000000" d="m256.07355 22.758997q0 1.03125 -0.75001526 1.765625q-0.734375 0.71875 -1.78125 0.71875q-1.046875 0 -1.78125 -0.734375q-0.734375 -0.734375 -0.734375 -1.75q0 -1.03125 0.734375 -1.765625q0.734375 -0.734375 1.78125 -0.734375q1.046875 0 1.78125 0.734375q0.75001526 0.71875 0.75001526 1.765625zm-0.46876526 0q0 -0.84375 -0.609375 -1.4375q-0.59375 -0.609375 -1.453125 -0.609375q-0.859375 0 -1.46875 0.609375q-0.59375 0.59375 -0.59375 1.4375q0 0.828125 0.59375 1.4375q0.609375 0.59375 1.46875 0.59375q0.859375 0 1.453125 -0.59375q0.609375 -0.59375 0.609375 -1.4375zm6.0854645 2.3125l0 -0.65625q-0.921875 0.828125 -2.0 0.828125q-0.65625 0 -1.0 -0.359375q-0.453125 -0.46875 -0.453125 -1.09375l0 -2.90625l-0.59375 0q-0.171875 0 -0.25 -0.0625q-0.0625 -0.078125 -0.0625 -0.171875q0 -0.09375 0.0625 -0.15625q0.078125 -0.078125 0.25 -0.078125l1.046875 0l0 3.375q0 0.4375 0.28125 0.71875q0.28125 0.28125 0.703125 0.28125q1.09375 0 2.015625 -1.0l0 -2.90625l-0.828125 0q-0.171875 0 -0.234375 -0.0625q-0.0625 -0.078125 -0.0625 -0.171875q0 -0.09375 0.0625 -0.15625q0.0625 -0.078125 0.234375 -0.078125l1.28125 0l0 4.203125l0.375 0q0.171875 0 0.234375 0.0625q0.078125 0.0625 0.078125 0.171875q0 0.09375 -0.078125 0.15625q-0.0625 0.0625 -0.234375 0.0625l-0.828125 0zm4.132324 -4.65625l2.453125 0q0.15625 0 0.21875 0.078125q0.078125 0.0625 0.078125 0.15625q0 0.09375 -0.078125 0.171875q-0.0625 0.0625 -0.21875 0.0625l-2.453125 0l0 3.0q0 0.390625 0.3125 0.65625q0.3125 0.25 0.921875 0.25q0.453125 0 0.984375 -0.125q0.53125 -0.140625 0.828125 -0.3125q0.109375 -0.078125 0.1875 -0.078125q0.078125 0 0.140625 0.078125q0.0625 0.0625 0.0625 0.15625q0 0.078125 -0.0625 0.15625q-0.171875 0.171875 -0.84375 0.375q-0.65625 0.203125 -1.265625 0.203125q-0.78125 0 -1.25 -0.359375q-0.46875 -0.375 -0.46875 -1.0l0 -3.0l-0.84375 0q-0.15625 0 -0.234375 -0.0625q-0.0625 -0.078125 -0.0625 -0.171875q0 -0.09375 0.0625 -0.15625q0.078125 -0.078125 0.234375 -0.078125l0.84375 0l0 -1.328125q0 -0.15625 0.0625 -0.21875q0.0625 -0.078125 0.15625 -0.078125q0.109375 0 0.171875 0.078125q0.0625 0.0625 0.0625 0.21875l0 1.328125z" fill-rule="nonzero"/><path fill="#666666" d="m282.41534 21.337122l-4.921875 0q-0.15625 0 -0.234375 -0.0625q-0.0625 -0.0625 -0.0625 -0.171875q0 -0.09375 0.0625 -0.15625q0.078125 -0.0625 0.234375 -0.0625l4.921875 0q0.15625 0 0.21875 0.0625q0.078125 0.0625 0.078125 0.171875q0 0.09375 -0.078125 0.15625q-0.0625 0.0625 -0.21875 0.0625zm0 1.625l-4.921875 0q-0.15625 0 -0.234375 -0.0625q-0.0625 -0.0625 -0.0625 -0.171875q0 -0.09375 0.0625 -0.15625q0.078125 -0.0625 0.234375 -0.0625l4.921875 0q0.15625 0 0.21875 0.0625q0.078125 0.0625 0.078125 0.15625q0 0.109375 -0.078125 0.171875q-0.0625 0.0625 -0.21875 0.0625z" fill-rule="nonzero"/><path fill="#000000" d="m215.40791 30.902746l0 1.1718769l-0.671875 0l0 -1.1718769l0.671875 0zm0.015625 2.312502l0 4.203125l1.765625 0q0.171875 0 0.234375 0.0625q0.078125 0.0625 0.078125 0.171875q0 0.09375 -0.078125 0.15625q-0.0625 0.0625 -0.234375 0.0625l-4.0 0q-0.15625 0 -0.234375 -0.0625q-0.0625 -0.0625 -0.0625 -0.15625q0 -0.109375 0.0625 -0.171875q0.078125 -0.0625 0.234375 -0.0625l1.78125 0l0 -3.734375l-1.328125 0q-0.15625 0 -0.234375 -0.0625q-0.0625 -0.078125 -0.0625 -0.171875q0 -0.09375 0.0625 -0.15625q0.078125 -0.078125 0.234375 -0.078125l1.78125 0zm4.897949 0l0 0.6875q0.46875 -0.484375 0.84375 -0.65625q0.390625 -0.1875 0.875 -0.1875q0.515625 0 0.9375 0.21875q0.296875 0.15625 0.53125 0.53125q0.25 0.375 0.25 0.765625l0 2.84375l0.390625 0q0.15625 0 0.21875 0.0625q0.078125 0.0625 0.078125 0.171875q0 0.09375 -0.078125 0.15625q-0.0625 0.0625 -0.21875 0.0625l-1.21875 0q-0.15625 0 -0.234375 -0.0625q-0.0625 -0.0625 -0.0625 -0.15625q0 -0.109375 0.0625 -0.171875q0.078125 -0.0625 0.234375 -0.0625l0.375 0l0 -2.765625q0 -0.484375 -0.34375 -0.8125q-0.34375 -0.328125 -0.9375 -0.328125q-0.4375 0 -0.765625 0.1875q-0.328125 0.171875 -0.9375 0.890625l0 2.828125l0.515625 0q0.15625 0 0.21875 0.0625q0.078125 0.0625 0.078125 0.171875q0 0.09375 -0.078125 0.15625q-0.0625 0.0625 -0.21875 0.0625l-1.484375 0q-0.15625 0 -0.234375 -0.0625q-0.0625 -0.0625 -0.0625 -0.15625q0 -0.109375 0.0625 -0.171875q0.078125 -0.0625 0.234375 -0.0625l0.515625 0l0 -3.734375l-0.375 0q-0.171875 0 -0.25 -0.0625q-0.0625 -0.078125 -0.0625 -0.171875q0 -0.09375 0.0625 -0.15625q0.078125 -0.078125 0.25 -0.078125l0.828125 0z" fill-rule="nonzero"/><path fill="#434343" d="m235.22676 35.105873l0 0.46875q0 0.15625 -0.0625 0.234375q-0.0625 0.0625 -0.171875 0.0625q-0.09375 0 -0.15625 -0.0625q-0.0625 -0.078125 -0.0625 -0.234375l0 -0.765625q1.171875 -0.4375 1.59375 -0.875q0.25 -0.234375 0.25 -0.59375q0 -0.609375 -0.4375 -1.03125q-0.4375 -0.4375019 -1.140625 -0.4375019q-0.34375 0 -0.671875 0.09375q-0.3125 0.07812691 -0.765625 0.2968769l0 0.453125q0 0.171875 -0.0625 0.25q-0.046875 0.0625 -0.15625 0.0625q-0.09375 0 -0.15625 -0.0625q-0.0625 -0.078125 -0.0625 -0.25l0 -0.7500019q0.828125 -0.375 1.078125 -0.4375q0.421875 -0.109375 0.84375 -0.109375q0.890625 0 1.4375 0.546875q0.546875 0.5312519 0.546875 1.3593769q0 0.5 -0.328125 0.890625q-0.328125 0.390625 -1.515625 0.890625zm-0.46875 1.8125l0.453125 0q0.234375 0 0.390625 0.171875q0.171875 0.15625 0.171875 0.390625q0 0.234375 -0.171875 0.390625q-0.15625 0.15625 -0.390625 0.15625l-0.453125 0q-0.21875 0 -0.390625 -0.15625q-0.15625 -0.171875 -0.15625 -0.390625q0 -0.25 0.15625 -0.40625q0.171875 -0.15625 0.390625 -0.15625zm11.483398 0.5l3.46875 0l0 -0.171875q0 -0.171875 0.0625 -0.234375q0.0625 -0.0625 0.15625 -0.0625q0.109375 0 0.171875 0.0625q0.0625 0.0625 0.0625 0.234375l0 0.625l-4.359375 0l0 -0.671875q1.375 -1.234375 2.671875 -2.515625q0.609375 -0.59375 0.828125 -0.859375q0.234375 -0.28125 0.3125 -0.5q0.078125 -0.21875 0.078125 -0.421875q0 -0.578125 -0.46875 -1.0312519q-0.453125 -0.453125 -1.125 -0.453125q-0.59375 0 -1.046875 0.34375q-0.453125 0.3437519 -0.59375 0.8437519q-0.03125 0.125 -0.078125 0.15625q-0.0625 0.0625 -0.140625 0.0625q-0.09375 0 -0.15625 -0.0625q-0.0625 -0.0625 -0.0625 -0.15625q0 -0.25 0.28125 -0.6875019q0.28125 -0.4375 0.78125 -0.6875q0.5 -0.265625 1.015625 -0.265625q0.84375 0 1.453125 0.59375q0.609375 0.5781269 0.609375 1.3281269q0 0.3125 -0.109375 0.578125q-0.09375 0.25 -0.34375 0.5625q-0.25 0.296875 -0.875 0.921875q-1.59375 1.578125 -2.59375 2.4375l0 0.03125zm7.819824 -6.281252l1.4375 0l-0.375 2.812502q-0.03125 0.21875 -0.125 0.3125q-0.09375 0.09375 -0.21875 0.09375q-0.140625 0 -0.234375 -0.09375q-0.078125 -0.09375 -0.109375 -0.3125l-0.375 -2.812502zm5.8354645 0l0 2.765627q0.4375 -0.46875 0.828125 -0.65625q0.390625 -0.1875 0.890625 -0.1875q0.515625 0 0.875 0.1875q0.375 0.1875 0.625 0.578125q0.25 0.375 0.25 0.796875l0 2.796875l0.5 0q0.171875 0 0.234375 0.0625q0.0625 0.0625 0.0625 0.171875q0 0.09375 -0.0625 0.15625q-0.0625 0.0625 -0.234375 0.0625l-1.46875 0q-0.15625 0 -0.234375 -0.0625q-0.0625 -0.0625 -0.0625 -0.15625q0 -0.109375 0.0625 -0.171875q0.078125 -0.0625 0.234375 -0.0625l0.515625 0l0 -2.765625q0 -0.484375 -0.359375 -0.8125q-0.34375 -0.328125 -0.984375 -0.328125q-0.484375 0 -0.84375 0.234375q-0.25 0.171875 -0.828125 0.8125l0 2.859375l0.515625 0q0.15625 0 0.21875 0.0625q0.078125 0.0625 0.078125 0.171875q0 0.09375 -0.078125 0.15625q-0.0625 0.0625 -0.21875 0.0625l-1.46875 0q-0.171875 0 -0.25 -0.0625q-0.0625 -0.0625 -0.0625 -0.15625q0 -0.109375 0.0625 -0.171875q0.078125 -0.0625 0.25 -0.0625l0.5 0l0 -5.828127l-0.609375 0q-0.15625 0 -0.234375 -0.0625q-0.0625 -0.0625 -0.0625 -0.171875q0 -0.09375 0.0625 -0.15625q0.078125 -0.0625 0.234375 -0.0625l1.0625 0zm8.319824 -0.09375l0 6.375002l1.546875 0q0.15625 0 0.21875 0.0625q0.078125 0.0625 0.078125 0.171875q0 0.09375 -0.078125 0.15625q-0.0625 0.0625 -0.21875 0.0625l-3.546875 0q-0.171875 0 -0.25 -0.0625q-0.0625 -0.0625 -0.0625 -0.15625q0 -0.109375 0.0625 -0.171875q0.078125 -0.0625 0.25 -0.0625l1.546875 0l0 -5.750002l-1.484375 0.4531269q-0.09375 0.03125 -0.15625 0.03125q-0.078125 0 -0.140625 -0.0625q-0.0625 -0.0625 -0.0625 -0.1562519q0 -0.078125 0.046875 -0.15625q0.046875 -0.046875 0.1875 -0.09375l2.0625 -0.640625z" fill-rule="nonzero"/><path fill="#434343" d="m234.88301 46.015244l0.203125 0q0.296875 0 0.5 0.21875q0.21875 0.21875 0.21875 0.515625q0 0.3125 -0.21875 0.53125q-0.203125 0.203125 -0.5 0.203125l-0.203125 0q-0.296875 0 -0.515625 -0.21875q-0.21875 -0.21875 -0.21875 -0.515625q0 -0.3125 0.21875 -0.515625q0.21875 -0.21875 0.515625 -0.21875zm0 3.359375l0.203125 0q0.296875 0 0.5 0.21875q0.21875 0.203125 0.21875 0.515625q0 0.296875 -0.21875 0.515625q-0.203125 0.203125 -0.5 0.203125l-0.203125 0q-0.296875 0 -0.515625 -0.203125q-0.21875 -0.21875 -0.21875 -0.515625q0 -0.3125 0.21875 -0.515625q0.21875 -0.21875 0.515625 -0.21875zm11.358398 0.84375l3.46875 0l0 -0.171875q0 -0.171875 0.0625 -0.234375q0.0625 -0.0625 0.15625 -0.0625q0.109375 0 0.171875 0.0625q0.0625 0.0625 0.0625 0.234375l0 0.625l-4.359375 0l0 -0.671875q1.375 -1.234375 2.671875 -2.515625q0.609375 -0.59375 0.828125 -0.859375q0.234375 -0.28125 0.3125 -0.5q0.078125 -0.21875 0.078125 -0.421875q0 -0.578125 -0.46875 -1.03125q-0.453125 -0.453125 -1.125 -0.453125q-0.59375 0 -1.046875 0.34375q-0.453125 0.34375 -0.59375 0.84375q-0.03125 0.125 -0.078125 0.15625q-0.0625 0.0625 -0.140625 0.0625q-0.09375 0 -0.15625 -0.0625q-0.0625 -0.0625 -0.0625 -0.15625q0 -0.25 0.28125 -0.6875q0.28125 -0.4375 0.78125 -0.6875q0.5 -0.265625 1.015625 -0.265625q0.84375 0 1.453125 0.59375q0.609375 0.578125 0.609375 1.328125q0 0.3125 -0.109375 0.578125q-0.09375 0.25 -0.34375 0.5625q-0.25 0.296875 -0.875 0.921875q-1.59375 1.578125 -2.59375 2.4375l0 0.03125zm7.819824 -6.28125l1.4375 0l-0.375 2.8125q-0.03125 0.21875 -0.125 0.3125q-0.09375 0.09375 -0.21875 0.09375q-0.140625 0 -0.234375 -0.09375q-0.078125 -0.09375 -0.109375 -0.3125l-0.375 -2.8125zm5.8354645 0l0 2.765625q0.4375 -0.46875 0.828125 -0.65625q0.390625 -0.1875 0.890625 -0.1875q0.515625 0 0.875 0.1875q0.375 0.1875 0.625 0.578125q0.25 0.375 0.25 0.796875l0 2.796875l0.5 0q0.171875 0 0.234375 0.0625q0.0625 0.0625 0.0625 0.171875q0 0.09375 -0.0625 0.15625q-0.0625 0.0625 -0.234375 0.0625l-1.46875 0q-0.15625 0 -0.234375 -0.0625q-0.0625 -0.0625 -0.0625 -0.15625q0 -0.109375 0.0625 -0.171875q0.078125 -0.0625 0.234375 -0.0625l0.515625 0l0 -2.765625q0 -0.484375 -0.359375 -0.8125q-0.34375 -0.328125 -0.984375 -0.328125q-0.484375 0 -0.84375 0.234375q-0.25 0.171875 -0.828125 0.8125l0 2.859375l0.515625 0q0.15625 0 0.21875 0.0625q0.078125 0.0625 0.078125 0.171875q0 0.09375 -0.078125 0.15625q-0.0625 0.0625 -0.21875 0.0625l-1.46875 0q-0.171875 0 -0.25 -0.0625q-0.0625 -0.0625 -0.0625 -0.15625q0 -0.109375 0.0625 -0.171875q0.078125 -0.0625 0.25 -0.0625l0.5 0l0 -5.828125l-0.609375 0q-0.15625 0 -0.234375 -0.0625q-0.0625 -0.0625 -0.0625 -0.171875q0 -0.09375 0.0625 -0.15625q0.078125 -0.0625 0.234375 -0.0625l1.0625 0zm6.147949 6.28125l3.46875 0l0 -0.171875q0 -0.171875 0.0625 -0.234375q0.0625 -0.0625 0.15625 -0.0625q0.109375 0 0.171875 0.0625q0.0625 0.0625 0.0625 0.234375l0 0.625l-4.359375 0l0 -0.671875q1.375 -1.234375 2.671875 -2.515625q0.609375 -0.59375 0.828125 -0.859375q0.234375 -0.28125 0.3125 -0.5q0.078125 -0.21875 0.078125 -0.421875q0 -0.578125 -0.46875 -1.03125q-0.453125 -0.453125 -1.125 -0.453125q-0.59375 0 -1.046875 0.34375q-0.453125 0.34375 -0.59375 0.84375q-0.03125 0.125 -0.078125 0.15625q-0.0625 0.0625 -0.140625 0.0625q-0.09375 0 -0.15625 -0.0625q-0.0625 -0.0625 -0.0625 -0.15625q0 -0.25 0.28125 -0.6875q0.28125 -0.4375 0.78125 -0.6875q0.5 -0.265625 1.015625 -0.265625q0.84375 0 1.453125 0.59375q0.609375 0.578125 0.609375 1.328125q0 0.3125 -0.109375 0.578125q-0.09375 0.25 -0.34375 0.5625q-0.25 0.296875 -0.875 0.921875q-1.59375 1.578125 -2.59375 2.4375l0 0.03125z" fill-rule="nonzero"/><path fill="#000000" d="m274.48947 46.015244l0.203125 0q0.296875 0 0.5 0.21875q0.21875 0.21875 0.21875 0.515625q0 0.3125 -0.21875 0.53125q-0.203125 0.203125 -0.5 0.203125l-0.203125 0q-0.296875 0 -0.515625 -0.21875q-0.21875 -0.21875 -0.21875 -0.515625q0 -0.3125 0.21875 -0.515625q0.21875 -0.21875 0.515625 -0.21875zm-0.78125 3.03125l1.40625 0l-1.515625 2.5q-0.109375 0.171875 -0.1875 0.21875q-0.0625 0.0625 -0.140625 0.0625q-0.140625 0 -0.234375 -0.09375q-0.078125 -0.078125 -0.078125 -0.1875q0 -0.0625 0.03125 -0.171875l0.71875 -2.328125z" fill-rule="nonzero"/><path fill="#010000" fill-opacity="0.0" d="m277.88742 41.51378l0 0l0 12.4609375l0 0l0 -12.4609375z" fill-rule="nonzero"/><path fill="#000000" fill-opacity="0.0" d="m121.50131 63.440945l70.01575 0" fill-rule="evenodd"/><path stroke="#595959" stroke-width="1.0" stroke-linejoin="round" stroke-linecap="butt" d="m121.50131 63.440945l64.01575 0" fill-rule="evenodd"/><path fill="#595959" stroke="#595959" stroke-width="1.0" stroke-linecap="butt" d="m185.51706 65.092674l4.538101 -1.6517296l-4.538101 -1.6517334z" fill-rule="evenodd"/></g></svg>