<svg version="1.1" viewBox="0.0 0.0 302.3622047244094 113.38582677165354" fill="none" stroke="none" stroke-linecap="square" stroke-miterlimit="10" xmlns:xlink="http://www.w3.org/1999/xlink" xmlns="http://www.w3.org/2000/svg"><clipPath id="p.0"><path d="m0 0l302.3622 0l0 113.385826l-302.3622 0l0 -113.385826z" clip-rule="nonzero"/></clipPath><g clip-path="url(#p.0)"><path fill="#ffffff" d="m0 0l302.3622 0l0 113.385826l-302.3622 0z" fill-rule="evenodd"/><path fill="#000000" fill-opacity="0.0" d="m0.54068244 12.242783l298.70865 0l0 99.779526l-298.70865 0z" fill-rule="evenodd"/><path stroke="#080808" stroke-width="1.0" stroke-linejoin="round" stroke-linecap="butt" d="m0.54068244 12.242783l298.70865 0l0 99.779526l-298.70865 0z" fill-rule="evenodd"/><path fill="#000000" fill-opacity="0.0" d="m85.784775 16.94357l210.5197 0l0 64.34645l-210.5197 0z" fill-rule="evenodd"/><path stroke="#595959" stroke-width="1.0" stroke-linejoin="round" stroke-linecap="butt" stroke-dasharray="4.0,3.0" d="m85.784775 16.94357l210.5197 0l0 64.34645l-210.5197 0z" fill-rule="evenodd"/><path fill="#000000" fill-opacity="0.0" d="m26.572178 80.75459l52.22047 0l0 32.314964l-52.22047 0z" fill-rule="evenodd"/><path fill="#000000" d="m37.119053 92.58834q0.21875 0 0.375 0.15625q0.15625 0.15625 0.15625 0.375q0 0.21875 -0.15625 0.375q-0.15625 0.15625 -0.375 0.15625q-0.21875 0 -0.375 -0.15625q-0.15625 -0.15625 -0.15625 -0.375q0 -0.21875 0.15625 -0.375q0.15625 -0.15625 0.375 -0.15625zm0.4375 2.5l0 3.828125q0 0.453125 0.0625 0.609375q0.0625 0.140625 0.1875 0.21875q0.125 0.0625 0.46875 0.0625l0 0.1875l-2.3125 0l0 -0.1875q0.34375 0 0.453125 -0.0625q0.125 -0.078125 0.1875 -0.234375q0.078125 -0.15625 0.078125 -0.59375l0 -1.828125q0 -0.78125 -0.046875 -1.015625q-0.03125 -0.15625 -0.109375 -0.21875q-0.078125 -0.078125 -0.21875 -0.078125q-0.140625 0 -0.34375 0.078125l-0.078125 -0.1875l1.4375 -0.578125l0.234375 0zm2.6950226 1.015625q0.84375 -1.015625 1.59375 -1.015625q0.390625 0 0.671875 0.203125q0.28125 0.1875 0.453125 0.640625q0.109375 0.3125 0.109375 0.953125l0 2.03125q0 0.453125 0.078125 0.609375q0.0625 0.140625 0.1875 0.21875q0.125 0.0625 0.46875 0.0625l0 0.1875l-2.359375 0l0 -0.1875l0.09375 0q0.34375 0 0.46875 -0.09375q0.140625 -0.109375 0.1875 -0.3125q0.015625 -0.078125 0.015625 -0.484375l0 -1.953125q0 -0.640625 -0.171875 -0.9375q-0.15625 -0.296875 -0.5625 -0.296875q-0.609375 0 -1.234375 0.671875l0 2.515625q0 0.484375 0.0625 0.59375q0.078125 0.15625 0.203125 0.234375q0.125 0.0625 0.515625 0.0625l0 0.1875l-2.359375 0l0 -0.1875l0.109375 0q0.359375 0 0.484375 -0.1875q0.125 -0.1875 0.125 -0.703125l0 -1.765625q0 -0.859375 -0.046875 -1.046875q-0.03125 -0.1875 -0.109375 -0.25q-0.078125 -0.078125 -0.21875 -0.078125q-0.140625 0 -0.34375 0.078125l-0.078125 -0.1875l1.4375 -0.578125l0.21875 0l0 1.015625z" fill-rule="nonzero"/><path fill="#ffffff" d="m120.51706 33.343834l16.40944 0l0 33.700783l-16.40944 0z" fill-rule="evenodd"/><path stroke="#080808" stroke-width="1.0" stroke-linejoin="round" stroke-linecap="butt" d="m120.51706 33.343834l16.40944 0l0 33.700783l-16.40944 0z" fill-rule="evenodd"/><path fill="#000000" fill-opacity="0.0" d="m18.564304 91.24016l99.055115 0l0 16.283463l-99.055115 0z" fill-rule="evenodd"/><path stroke="#080808" stroke-width="1.0" stroke-linejoin="round" stroke-linecap="butt" d="m18.564304 91.24016l99.055115 0l0 16.283463l-99.055115 0z" fill-rule="evenodd"/><path fill="#000000" fill-opacity="0.0" d="m126.068245 91.24016l97.66929 0l0 16.283463l-97.66929 0z" fill-rule="evenodd"/><path stroke="#080808" stroke-width="1.0" stroke-linejoin="round" stroke-linecap="butt" d="m126.068245 91.24016l97.66929 0l0 16.283463l-97.66929 0z" fill-rule="evenodd"/><path fill="#000000" fill-opacity="0.0" d="m27.624672 84.938324l113.04713 0l0 18.425194l0.023742676 0" fill-rule="evenodd"/><path stroke="#080808" stroke-width="1.0" stroke-linejoin="round" stroke-linecap="butt" d="m27.624672 84.938324l113.04713 0l0 12.425247" fill-rule="evenodd"/><path fill="#080808" stroke="#080808" stroke-width="1.0" stroke-linecap="butt" d="m139.02008 97.3701l1.6696777 4.5315247l1.6337585 -4.5446014z" fill-rule="evenodd"/><path fill="#000000" fill-opacity="0.0" d="m52.682415 84.938324l0 18.456688" fill-rule="evenodd"/><path stroke="#080808" stroke-width="1.0" stroke-linejoin="round" stroke-linecap="butt" d="m52.682415 84.938324l0 12.456688" fill-rule="evenodd"/><path fill="#080808" stroke="#080808" stroke-width="1.0" stroke-linecap="butt" d="m51.03068 97.39501l1.6517334 4.538101l1.6517334 -4.538101z" fill-rule="evenodd"/><path fill="#000000" fill-opacity="0.0" d="m100.64304 88.178474l0 -37.98425l19.874016 0" fill-rule="evenodd"/><path stroke="#080808" stroke-width="1.0" stroke-linejoin="round" stroke-linecap="butt" d="m100.64304 84.38847l0 -34.19425l19.874016 0" fill-rule="evenodd"/><path stroke="#080808" stroke-width="1.0" stroke-linecap="butt" d="m100.64304 87.678474c-0.9085083 0 -1.6449966 -0.73648834 -1.6449966 -1.6449966c0 -0.9085083 0.73648834 -1.6449966 1.6449966 -1.6449966c0.9085083 0 1.6450043 0.73648834 1.6450043 1.6449966c0 0.9085083 -0.736496 1.6449966 -1.6450043 1.6449966z" fill-rule="nonzero"/><path fill="#000000" fill-opacity="0.0" d="m99.86089 71.444885l57.385826 0" fill-rule="evenodd"/><path stroke="#080808" stroke-width="1.0" stroke-linejoin="round" stroke-linecap="butt" d="m99.86089 71.444885l51.385826 0" fill-rule="evenodd"/><path fill="#080808" stroke="#080808" stroke-width="1.0" stroke-linecap="butt" d="m151.24672 73.09661l4.538101 -1.6517258l-4.538101 -1.6517334z" fill-rule="evenodd"/><path fill="#000000" fill-opacity="0.0" d="m136.9265 50.194225l20.0 0" fill-rule="evenodd"/><path stroke="#080808" stroke-width="1.0" stroke-linejoin="round" stroke-linecap="butt" d="m136.92651 50.194225l14.0 0" fill-rule="evenodd"/><path fill="#080808" stroke="#080808" stroke-width="1.0" stroke-linecap="butt" d="m150.92651 51.84596l4.538086 -1.6517334l-4.538086 -1.6517334z" fill-rule="evenodd"/><path fill="#000000" fill-opacity="0.0" d="m195.65092 50.158794l92.69292 0l0 17.574802l-92.69292 0z" fill-rule="evenodd"/><path stroke="#080808" stroke-width="1.0" stroke-linejoin="round" stroke-linecap="butt" d="m195.65092 50.158794l92.69292 0l0 17.574802l-92.69292 0z" fill-rule="evenodd"/><path fill="#000000" d="m208.8853 58.968693l0 -0.125q0 -0.125 0.046875 -0.1875q0.0625 -0.0625 0.140625 -0.0625q0.09375 0 0.140625 0.0625q0.046875 0.0625 0.046875 0.1875l0 0.84375q0 0.140625 -0.046875 0.203125q-0.046875 0.046875 -0.140625 0.046875q-0.078125 0 -0.125 -0.046875q-0.046875 -0.0625 -0.0625 -0.171875q-0.015625 -0.3125 -0.40625 -0.59375q-0.375 -0.28125 -1.03125 -0.28125q-0.828125 0 -1.25 0.515625q-0.421875 0.515625 -0.421875 1.171875q0 0.71875 0.46875 1.1875q0.46875 0.46875 1.21875 0.46875q0.421875 0 0.859375 -0.15625q0.453125 -0.171875 0.8125 -0.515625q0.09375 -0.09375 0.171875 -0.09375q0.078125 0 0.125 0.0625q0.046875 0.046875 0.046875 0.125q0 0.1875 -0.4375 0.46875q-0.71875 0.46875 -1.59375 0.46875q-0.890625 0 -1.46875 -0.5625q-0.578125 -0.578125 -0.578125 -1.453125q0 -0.890625 0.578125 -1.46875q0.59375 -0.59375 1.484375 -0.59375q0.859375 0 1.421875 0.5zm5.932129 1.546875q0 0.84375 -0.609375 1.4375q-0.59375 0.59375 -1.453125 0.59375q-0.859375 0 -1.46875 -0.59375q-0.59375 -0.609375 -0.59375 -1.4375q0 -0.84375 0.59375 -1.4375q0.609375 -0.609375 1.46875 -0.609375q0.859375 0 1.453125 0.59375q0.609375 0.59375 0.609375 1.453125zm-0.375 0q0 -0.703125 -0.5 -1.1875q-0.484375 -0.484375 -1.1875 -0.484375q-0.703125 0 -1.203125 0.5q-0.5 0.484375 -0.5 1.171875q0 0.6875 0.5 1.1875q0.5 0.484375 1.203125 0.484375q0.703125 0 1.1875 -0.484375q0.5 -0.5 0.5 -1.1875zm4.041504 1.890625l-0.625 0l-1.515625 -3.4375l-0.390625 0q-0.125 0 -0.1875 -0.046875q-0.046875 -0.046875 -0.046875 -0.140625q0 -0.078125 0.046875 -0.125q0.0625 -0.0625 0.1875 -0.0625l1.390625 0q0.125 0 0.1875 0.0625q0.0625 0.046875 0.0625 0.140625q0 0.078125 -0.0625 0.125q-0.0625 0.046875 -0.1875 0.046875l-0.609375 0l1.34375 3.0625l0.171875 0l1.328125 -3.0625l-0.625 0q-0.125 0 -0.1875 -0.046875q-0.046875 -0.046875 -0.046875 -0.140625q0 -0.078125 0.046875 -0.125q0.0625 -0.0625 0.1875 -0.0625l1.390625 0q0.140625 0 0.1875 0.0625q0.0625 0.046875 0.0625 0.140625q0 0.078125 -0.0625 0.125q-0.046875 0.046875 -0.1875 0.046875l-0.375 0l-1.484375 3.4375zm7.072754 -1.8125l-3.765625 0q0.09375 0.71875 0.59375 1.15625q0.515625 0.4375 1.25 0.4375q0.40625 0 0.859375 -0.140625q0.453125 -0.140625 0.75 -0.359375q0.078125 -0.0625 0.140625 -0.0625q0.0625 0 0.109375 0.0625q0.0625 0.046875 0.0625 0.109375q0 0.078125 -0.0625 0.15625q-0.21875 0.21875 -0.765625 0.40625q-0.53125 0.1875 -1.09375 0.1875q-0.953125 0 -1.59375 -0.609375q-0.625 -0.625 -0.625 -1.515625q0 -0.796875 0.59375 -1.375q0.59375 -0.578125 1.46875 -0.578125q0.90625 0 1.484375 0.59375q0.59375 0.59375 0.59375 1.53125zm-0.375 -0.375q-0.109375 -0.609375 -0.578125 -0.984375q-0.46875 -0.390625 -1.125 -0.390625q-0.640625 0 -1.109375 0.375q-0.453125 0.375 -0.578125 1.0l3.390625 0zm3.338379 -1.625l0 0.9375q0.71875 -0.65625 1.078125 -0.828125q0.359375 -0.1875 0.65625 -0.1875q0.328125 0 0.609375 0.21875q0.28125 0.21875 0.28125 0.328125q0 0.09375 -0.0625 0.15625q-0.046875 0.046875 -0.125 0.046875q-0.046875 0 -0.078125 -0.015625q-0.03125 -0.015625 -0.109375 -0.109375q-0.15625 -0.15625 -0.28125 -0.203125q-0.109375 -0.0625 -0.21875 -0.0625q-0.234375 0 -0.578125 0.203125q-0.34375 0.1875 -1.171875 0.9375l0 2.015625l1.625 0q0.140625 0 0.1875 0.0625q0.0625 0.046875 0.0625 0.125q0 0.078125 -0.0625 0.140625q-0.046875 0.046875 -0.1875 0.046875l-2.890625 0q-0.140625 0 -0.203125 -0.046875q-0.046875 -0.046875 -0.046875 -0.140625q0 -0.0625 0.046875 -0.109375q0.0625 -0.0625 0.203125 -0.0625l0.890625 0l0 -3.078125l-0.6875 0q-0.125 0 -0.1875 -0.046875q-0.046875 -0.046875 -0.046875 -0.140625q0 -0.078125 0.046875 -0.125q0.0625 -0.0625 0.1875 -0.0625l1.0625 0zm5.791504 1.625q0 -0.5 0.125 -1.0625q0.140625 -0.578125 0.515625 -1.3125q0.375 -0.75 0.546875 -0.90625q0.046875 -0.046875 0.109375 -0.046875q0.078125 0 0.125 0.0625q0.0625 0.046875 0.0625 0.125q0 0.03125 -0.03125 0.09375q-0.484375 0.890625 -0.6875 1.609375q-0.203125 0.71875 -0.203125 1.4375q0 0.71875 0.203125 1.453125q0.203125 0.71875 0.6875 1.59375q0.03125 0.0625 0.03125 0.09375q0 0.078125 -0.0625 0.125q-0.046875 0.0625 -0.125 0.0625q-0.0625 0 -0.109375 -0.046875q-0.171875 -0.15625 -0.546875 -0.875q-0.359375 -0.71875 -0.5 -1.28125q-0.140625 -0.5625 -0.140625 -1.125zm5.369629 1.125l0.15625 0q0.25 0 0.421875 0.171875q0.171875 0.171875 0.171875 0.421875q0 0.25 -0.171875 0.421875q-0.171875 0.171875 -0.421875 0.171875l-0.15625 0q-0.25 0 -0.421875 -0.171875q-0.171875 -0.171875 -0.171875 -0.421875q0 -0.25 0.171875 -0.421875q0.171875 -0.171875 0.421875 -0.171875zm5.400879 0l0.15625 0q0.25 0 0.421875 0.171875q0.171875 0.171875 0.171875 0.421875q0 0.25 -0.171875 0.421875q-0.171875 0.171875 -0.421875 0.171875l-0.15625 0q-0.25 0 -0.421875 -0.171875q-0.171875 -0.171875 -0.171875 -0.421875q0 -0.25 0.171875 -0.421875q0.171875 -0.171875 0.421875 -0.171875zm5.400879 0l0.15625 0q0.25 0 0.421875 0.171875q0.171875 0.171875 0.171875 0.421875q0 0.25 -0.171875 0.421875q-0.171875 0.171875 -0.421875 0.171875l-0.15625 0q-0.25 0 -0.421875 -0.171875q-0.171875 -0.171875 -0.171875 -0.421875q0 -0.25 0.171875 -0.421875q0.171875 -0.171875 0.421875 -0.171875zm5.5883636 -1.125q0 0.515625 -0.14060974 1.078125q-0.125 0.5625 -0.5 1.296875q-0.375 0.75 -0.546875 0.90625q-0.046875 0.046875 -0.109375 0.046875q-0.078125 0 -0.140625 -0.0625q-0.046875 -0.046875 -0.046875 -0.125q0 -0.03125 0.03125 -0.09375q0.484375 -0.875 0.6875 -1.59375q0.203125 -0.734375 0.203125 -1.453125q0 -0.71875 -0.203125 -1.4375q-0.203125 -0.71875 -0.6875 -1.609375q-0.03125 -0.0625 -0.03125 -0.09375q0 -0.078125 0.046875 -0.125q0.0625 -0.0625 0.140625 -0.0625q0.0625 0 0.109375 0.046875q0.15625 0.15625 0.53125 0.875q0.375 0.71875 0.515625 1.28125q0.14060974 0.5625 0.14060974 1.125z" fill-rule="nonzero"/><path fill="#000000" fill-opacity="0.0" d="m175.7769 58.9147l19.874023 0.03149414" fill-rule="evenodd"/><path stroke="#080808" stroke-width="1.0" stroke-linejoin="round" stroke-linecap="butt" d="m175.7769 58.9147l13.874023 0.0219841" fill-rule="evenodd"/><path fill="#080808" stroke="#080808" stroke-width="1.0" stroke-linecap="butt" d="m189.64832 60.588417l4.540695 -1.6445389l-4.5354614 -1.6589241z" fill-rule="evenodd"/><path fill="#ffffff" d="m175.656 48.429134l0 21.448818l-9.070862 9.070869l-9.070877 0l0 0l0 -39.590553l0 0l9.070877 0z" fill-rule="evenodd"/><path stroke="#080808" stroke-width="1.0" stroke-linejoin="round" stroke-linecap="butt" d="m175.656 48.429134l0 21.448818l-9.070862 9.070869l-9.070877 0l0 0l0 -39.590553l0 0l9.070877 0z" fill-rule="evenodd"/><path fill="#000000" fill-opacity="0.0" d="m153.65617 34.710175l25.858261 0l0 48.472443l-25.858261 0z" fill-rule="evenodd"/><path fill="#000000" d="m166.77866 49.046425l1.5625 2.015625l0.125 0q0.125 0 0.171875 0.046875q0.046875 0.046875 0.046875 0.109375q0 0.078125 -0.046875 0.125q-0.046875 0.046875 -0.171875 0.046875l-1.046875 0q-0.125 0 -0.171875 -0.046875q-0.046875 -0.046875 -0.046875 -0.125q0 -0.0625 0.046875 -0.109375q0.046875 -0.046875 0.171875 -0.046875l0.515625 0l-1.359375 -1.75l-1.328125 1.75l0.515625 0q0.125 0 0.171875 0.046875q0.046875 0.046875 0.046875 0.109375q0 0.078125 -0.046875 0.125q-0.046875 0.046875 -0.171875 0.046875l-1.046875 0q-0.109375 0 -0.171875 -0.046875q-0.046875 -0.046875 -0.046875 -0.125q0 -0.046875 0.03125 -0.09375q0.03125 -0.046875 0.0625 -0.046875q0.046875 -0.015625 0.25 -0.015625l1.53125 -2.015625l-1.46875 -1.90625l-0.109375 0q-0.125 0 -0.171875 -0.03125q-0.046875 -0.046875 -0.046875 -0.125q0 -0.078125 0.046875 -0.125q0.046875 -0.046875 0.171875 -0.046875l0.890625 0q0.125 0 0.171875 0.046875q0.046875 0.046875 0.046875 0.125q0 0.078125 -0.046875 0.125q-0.046875 0.03125 -0.171875 0.03125l-0.375 0l1.265625 1.640625l1.265625 -1.640625l-0.375 0q-0.109375 0 -0.171875 -0.03125q-0.046875 -0.046875 -0.046875 -0.125q0 -0.078125 0.046875 -0.125q0.0625 -0.046875 0.171875 -0.046875l0.90625 0q0.109375 0 0.15625 0.046875q0.0625 0.046875 0.0625 0.125q0 0.078125 -0.0625 0.125q-0.046875 0.03125 -0.15625 0.03125l-0.125 0l-1.46875 1.90625z" fill-rule="nonzero"/><path fill="#000000" d="m168.59116 58.708927q0 0.65625 -0.265625 1.21875q-0.265625 0.5625 -0.734375 0.875q-0.46875 0.3125 -1.0 0.3125q-0.796875 0 -1.40625 -0.671875q-0.59375 -0.671875 -0.59375 -1.734375q0 -1.046875 0.59375 -1.71875q0.609375 -0.671875 1.40625 -0.671875q0.53125 0 1.0 0.3125q0.46875 0.3125 0.734375 0.875q0.265625 0.546875 0.265625 1.203125zm-0.328125 0q0 -0.796875 -0.46875 -1.421875q-0.46875 -0.640625 -1.203125 -0.640625q-0.6875 0 -1.1875 0.609375q-0.484375 0.59375 -0.484375 1.453125q0 0.921875 0.515625 1.5q0.515625 0.578125 1.15625 0.578125q0.734375 0 1.203125 -0.625q0.46875 -0.640625 0.46875 -1.453125z" fill-rule="nonzero"/><path fill="#000000" d="m165.51303 68.543304l0 1.71875l0.609375 0q0.125 0 0.171875 0.046875q0.046875 0.046875 0.046875 0.109375q0 0.078125 -0.046875 0.125q-0.046875 0.046875 -0.171875 0.046875l-1.375 0q-0.109375 0 -0.171875 -0.046875q-0.046875 -0.046875 -0.046875 -0.125q0 -0.0625 0.046875 -0.109375q0.0625 -0.046875 0.171875 -0.046875l0.4375 0l0 -3.921875l-0.4375 0q-0.109375 0 -0.171875 -0.03125q-0.046875 -0.046875 -0.046875 -0.125q0 -0.078125 0.046875 -0.125q0.0625 -0.046875 0.171875 -0.046875l1.984375 0q0.609375 0 1.03125 0.390625q0.421875 0.390625 0.421875 0.875q0 0.359375 -0.265625 0.671875q-0.25 0.3125 -0.859375 0.515625q0.34375 0.234375 0.59375 0.546875q0.25 0.296875 0.8125 1.25l0.25 0q0.109375 0 0.15625 0.046875q0.0625 0.046875 0.0625 0.109375q0 0.078125 -0.0625 0.125q-0.046875 0.046875 -0.15625 0.046875l-0.4375 0q-0.609375 -1.09375 -0.953125 -1.453125q-0.328125 -0.375 -0.765625 -0.59375l-1.046875 0zm0 -0.328125l0.90625 0q0.421875 0 0.765625 -0.15625q0.359375 -0.15625 0.515625 -0.359375q0.15625 -0.21875 0.15625 -0.4375q0 -0.328125 -0.328125 -0.625q-0.328125 -0.296875 -0.796875 -0.296875l-1.21875 0l0 1.875z" fill-rule="nonzero"/><path fill="#000000" fill-opacity="0.0" d="m25.608925 4.9002624l0 16.432222l205.70645 0l0 28.82302" fill-rule="evenodd"/><path stroke="#080808" stroke-width="1.0" stroke-linejoin="round" stroke-linecap="butt" d="m25.608923 4.9002624l0 16.432222l205.70647 0l0 22.82302" fill-rule="evenodd"/><path fill="#080808" stroke="#080808" stroke-width="1.0" stroke-linecap="butt" d="m229.66367 44.155506l1.6517181 4.5380974l1.6517334 -4.5380974z" fill-rule="evenodd"/><path fill="#000000" fill-opacity="0.0" d="m128.91731 21.385826l0 12.283466" fill-rule="evenodd"/><path stroke="#080808" stroke-width="1.0" stroke-linejoin="round" stroke-linecap="butt" d="m128.91733 21.385826l0 6.2834644" fill-rule="evenodd"/><path fill="#080808" stroke="#080808" stroke-width="1.0" stroke-linecap="butt" d="m127.26559 27.669292l1.651741 4.5380974l1.6517334 -4.5380974z" fill-rule="evenodd"/><path fill="#000000" fill-opacity="0.0" d="m25.608189 19.607916l0 40.472443" fill-rule="evenodd"/><path stroke="#080808" stroke-width="1.0" stroke-linejoin="round" stroke-linecap="butt" d="m25.608189 19.607916l0 34.472443" fill-rule="evenodd"/><path fill="#080808" stroke="#080808" stroke-width="1.0" stroke-linecap="butt" d="m23.956455 54.080357l1.6517334 4.5380974l1.6517315 -4.5380974z" fill-rule="evenodd"/><path fill="#000000" fill-opacity="0.0" d="m23.750656 -1.4343832l48.34646 0l0 14.897638l-48.34646 0z" fill-rule="evenodd"/><path fill="#000000" d="m37.125656 8.041936q-0.1875 0.9375 -0.75 1.453125q-0.5625 0.5 -1.234375 0.5q-0.8125 0 -1.421875 -0.671875q-0.609375 -0.6875 -0.609375 -1.84375q0 -1.125 0.671875 -1.828125q0.671875 -0.703125 1.609375 -0.703125q0.703125 0 1.15625 0.375q0.453125 0.375 0.453125 0.765625q0 0.203125 -0.140625 0.328125q-0.125 0.125 -0.34375 0.125q-0.3125 0 -0.46875 -0.203125q-0.09375 -0.109375 -0.125 -0.40625q-0.015625 -0.3125 -0.203125 -0.484375q-0.1875 -0.15625 -0.5 -0.15625q-0.515625 0 -0.84375 0.390625q-0.421875 0.515625 -0.421875 1.34375q0 0.859375 0.421875 1.515625q0.421875 0.640625 1.125 0.640625q0.515625 0 0.921875 -0.34375q0.28125 -0.234375 0.5625 -0.875l0.140625 0.078125zm2.3235016 -5.59375l0 6.328125q0 0.453125 0.0625 0.59375q0.078125 0.140625 0.203125 0.21875q0.140625 0.078125 0.5 0.078125l0 0.1875l-2.328125 0l0 -0.1875q0.328125 0 0.4375 -0.0625q0.125 -0.078125 0.1875 -0.234375q0.078125 -0.15625 0.078125 -0.59375l0 -4.328125q0 -0.81249976 -0.046875 -0.98437476q-0.03125 -0.1875 -0.109375 -0.25q-0.078125 -0.078125 -0.203125 -0.078125q-0.140625 0 -0.34375 0.078125l-0.09375 -0.171875l1.421875 -0.59375l0.234375 0zm3.6637726 2.4999998q1.078125 0 1.734375 0.828125q0.546875 0.703125 0.546875 1.609375q0 0.640625 -0.3125 1.296875q-0.296875 0.65625 -0.84375 0.984375q-0.53125 0.328125 -1.1875 0.328125q-1.078125 0 -1.71875 -0.859375q-0.53125 -0.71875 -0.53125 -1.625q0 -0.640625 0.328125 -1.28125q0.328125 -0.65625 0.859375 -0.96875q0.53125 -0.3125 1.125 -0.3125zm-0.171875 0.34375q-0.265625 0 -0.546875 0.171875q-0.28125 0.15625 -0.453125 0.5625q-0.171875 0.40625 -0.171875 1.0625q0 1.03125 0.40625 1.796875q0.421875 0.75 1.09375 0.75q0.5 0 0.828125 -0.421875q0.328125 -0.421875 0.328125 -1.4375q0 -1.265625 -0.546875 -1.984375q-0.359375 -0.5 -0.9375 -0.5zm7.203125 2.75q-0.1875 0.9375 -0.75 1.453125q-0.5625 0.5 -1.234375 0.5q-0.8125 0 -1.421875 -0.671875q-0.609375 -0.6875 -0.609375 -1.84375q0 -1.125 0.671875 -1.828125q0.671875 -0.703125 1.609375 -0.703125q0.703125 0 1.15625 0.375q0.453125 0.375 0.453125 0.765625q0 0.203125 -0.140625 0.328125q-0.125 0.125 -0.34375 0.125q-0.3125 0 -0.46875 -0.203125q-0.09375 -0.109375 -0.125 -0.40625q-0.015625 -0.3125 -0.203125 -0.484375q-0.1875 -0.15625 -0.5 -0.15625q-0.515625 0 -0.84375 0.390625q-0.421875 0.515625 -0.421875 1.34375q0 0.859375 0.421875 1.515625q0.421875 0.640625 1.125 0.640625q0.515625 0 0.921875 -0.34375q0.28125 -0.234375 0.5625 -0.875l0.140625 0.078125zm2.1047516 -5.59375l0 4.75l1.203125 -1.109375q0.390625 -0.34375 0.453125 -0.4375q0.03125 -0.0625 0.03125 -0.125q0 -0.109375 -0.09375 -0.1875q-0.078125 -0.078125 -0.265625 -0.078125l0 -0.171875l2.0625 0l0 0.171875q-0.421875 0 -0.703125 0.125q-0.28125 0.125 -0.625 0.421875l-1.21875 1.140625l1.21875 1.53125q0.515625 0.640625 0.6875 0.8125q0.25 0.25 0.4375 0.328125q0.125 0.046875 0.453125 0.046875l0 0.1875l-2.3125 0l0 -0.1875q0.1875 0 0.25 -0.046875q0.078125 -0.0625 0.078125 -0.171875q0 -0.109375 -0.203125 -0.375l-1.453125 -1.875l0 1.578125q0 0.46875 0.0625 0.625q0.0625 0.140625 0.171875 0.203125q0.125 0.0625 0.53125 0.0625l0 0.1875l-2.421875 0l0 -0.1875q0.359375 0 0.546875 -0.09375q0.109375 -0.046875 0.15625 -0.171875q0.078125 -0.171875 0.078125 -0.59375l0 -4.34375q0 -0.82812476 -0.03125 -0.99999976q-0.03125 -0.1875 -0.125 -0.25q-0.078125 -0.078125 -0.21875 -0.078125q-0.109375 0 -0.328125 0.078125l-0.078125 -0.171875l1.40625 -0.59375l0.25 0z" fill-rule="nonzero"/><path fill="#000000" fill-opacity="0.0" d="m65.42519 81.96982l52.220474 0l0 32.314957l-52.220474 0z" fill-rule="evenodd"/><path fill="#000000" d="m78.80019 99.397316q-0.1875 0.9375 -0.75 1.453125q-0.5625 0.5 -1.234375 0.5q-0.8125 0 -1.421875 -0.671875q-0.609375 -0.6875 -0.609375 -1.84375q0 -1.125 0.671875 -1.828125q0.671875 -0.703125 1.609375 -0.703125q0.703125 0 1.15625 0.375q0.453125 0.375 0.453125 0.765625q0 0.203125 -0.140625 0.328125q-0.125 0.125 -0.34375 0.125q-0.3125 0 -0.46875 -0.203125q-0.09375 -0.109375 -0.125 -0.40625q-0.015625 -0.3125 -0.203125 -0.484375q-0.1875 -0.15625 -0.5 -0.15625q-0.515625 0 -0.84375 0.390625q-0.421875 0.515625 -0.421875 1.34375q0 0.859375 0.421875 1.515625q0.421875 0.640625 1.125 0.640625q0.515625 0 0.921875 -0.34375q0.28125 -0.234375 0.5625 -0.875l0.140625 0.078125zm2.0891266 -5.59375l0 3.5q0.578125 -0.640625 0.90625 -0.8125q0.34375 -0.1875 0.6875 -0.1875q0.40625 0 0.6875 0.234375q0.296875 0.21875 0.4375 0.6875q0.09375 0.34375 0.09375 1.21875l0 1.6875q0 0.453125 0.078125 0.625q0.046875 0.125 0.171875 0.203125q0.125 0.0625 0.46875 0.0625l0 0.1875l-2.34375 0l0 -0.1875l0.109375 0q0.328125 0 0.453125 -0.09375q0.140625 -0.109375 0.1875 -0.3125q0.015625 -0.078125 0.015625 -0.484375l0 -1.6875q0 -0.78125 -0.078125 -1.015625q-0.078125 -0.25 -0.265625 -0.375q-0.171875 -0.125 -0.421875 -0.125q-0.25 0 -0.53125 0.140625q-0.265625 0.140625 -0.65625 0.546875l0 2.515625q0 0.484375 0.046875 0.609375q0.0625 0.125 0.203125 0.203125q0.15625 0.078125 0.515625 0.078125l0 0.1875l-2.359375 0l0 -0.1875q0.3125 0 0.5 -0.09375q0.109375 -0.0625 0.171875 -0.203125q0.0625 -0.140625 0.0625 -0.59375l0 -4.3125q0 -0.8125 -0.046875 -1.0q-0.03125 -0.1875 -0.125 -0.25q-0.078125 -0.078125 -0.203125 -0.078125q-0.109375 0 -0.359375 0.078125l-0.078125 -0.171875l1.4375 -0.59375l0.234375 0zm5.140625 0q0.21875 0 0.375 0.15625q0.15625 0.15625 0.15625 0.375q0 0.21875 -0.15625 0.375q-0.15625 0.15625 -0.375 0.15625q-0.21875 0 -0.375 -0.15625q-0.15625 -0.15625 -0.15625 -0.375q0 -0.21875 0.15625 -0.375q0.15625 -0.15625 0.375 -0.15625zm0.4375 2.5l0 3.828125q0 0.453125 0.0625 0.609375q0.0625 0.140625 0.1875 0.21875q0.125 0.0625 0.46875 0.0625l0 0.1875l-2.3125 0l0 -0.1875q0.34375 0 0.453125 -0.0625q0.125 -0.078125 0.1875 -0.234375q0.078125 -0.15625 0.078125 -0.59375l0 -1.828125q0 -0.78125 -0.046875 -1.015625q-0.03125 -0.15625 -0.109375 -0.21875q-0.078125 -0.078125 -0.21875 -0.078125q-0.140625 0 -0.34375 0.078125l-0.078125 -0.1875l1.4375 -0.578125l0.234375 0zm2.9450226 -2.5l0 6.328125q0 0.453125 0.0625 0.59375q0.078125 0.140625 0.203125 0.21875q0.140625 0.078125 0.5 0.078125l0 0.1875l-2.328125 0l0 -0.1875q0.328125 0 0.4375 -0.0625q0.125 -0.078125 0.1875 -0.234375q0.078125 -0.15625 0.078125 -0.59375l0 -4.328125q0 -0.8125 -0.046875 -0.984375q-0.03125 -0.1875 -0.109375 -0.25q-0.078125 -0.078125 -0.203125 -0.078125q-0.140625 0 -0.34375 0.078125l-0.09375 -0.171875l1.421875 -0.59375l0.234375 0zm4.6950226 6.875q-0.359375 0.359375 -0.6875 0.515625q-0.328125 0.15625 -0.71875 0.15625q-0.78125 0 -1.359375 -0.640625q-0.578125 -0.65625 -0.578125 -1.6875q0 -1.015625 0.640625 -1.859375q0.640625 -0.859375 1.65625 -0.859375q0.625 0 1.046875 0.390625l0 -0.875q0 -0.8125 -0.046875 -1.0q-0.03125 -0.1875 -0.125 -0.25q-0.078125 -0.078125 -0.203125 -0.078125q-0.140625 0 -0.359375 0.078125l-0.0625 -0.171875l1.421875 -0.59375l0.234375 0l0 5.515625q0 0.84375 0.03125 1.03125q0.046875 0.171875 0.125 0.25q0.09375 0.078125 0.203125 0.078125q0.140625 0 0.375 -0.09375l0.0625 0.1875l-1.421875 0.578125l-0.234375 0l0 -0.671875zm0 -0.375l0 -2.453125q-0.03125 -0.34375 -0.1875 -0.640625q-0.15625 -0.296875 -0.421875 -0.4375q-0.25 -0.15625 -0.5 -0.15625q-0.453125 0 -0.8125 0.421875q-0.46875 0.53125 -0.46875 1.578125q0 1.046875 0.453125 1.609375q0.453125 0.5625 1.015625 0.5625q0.46875 0 0.921875 -0.484375zm6.5 -1.453125l-2.734375 0l-0.46875 1.109375q-0.1875 0.40625 -0.1875 0.609375q0 0.171875 0.15625 0.296875q0.15625 0.109375 0.671875 0.15625l0 0.1875l-2.234375 0l0 -0.1875q0.453125 -0.078125 0.578125 -0.203125q0.265625 -0.25 0.59375 -1.015625l2.46875 -5.8125l0.1875 0l2.453125 5.875q0.296875 0.703125 0.53125 0.921875q0.25 0.203125 0.6875 0.234375l0 0.1875l-2.78125 0l0 -0.1875q0.421875 -0.03125 0.5625 -0.140625q0.15625 -0.125 0.15625 -0.296875q0 -0.234375 -0.21875 -0.71875l-0.421875 -1.015625zm-0.140625 -0.390625l-1.203125 -2.84375l-1.21875 2.84375l2.421875 0z" fill-rule="nonzero"/><path fill="#000000" fill-opacity="0.0" d="m171.51706 81.96982l52.220474 0l0 32.314957l-52.220474 0z" fill-rule="evenodd"/><path fill="#000000" d="m184.89206 99.397316q-0.1875 0.9375 -0.75 1.453125q-0.5625 0.5 -1.234375 0.5q-0.8125 0 -1.421875 -0.671875q-0.609375 -0.6875 -0.609375 -1.84375q0 -1.125 0.671875 -1.828125q0.671875 -0.703125 1.609375 -0.703125q0.703125 0 1.15625 0.375q0.453125 0.375 0.453125 0.765625q0 0.203125 -0.140625 0.328125q-0.125 0.125 -0.34375 0.125q-0.3125 0 -0.46875 -0.203125q-0.09375 -0.109375 -0.125 -0.40625q-0.015625 -0.3125 -0.203125 -0.484375q-0.1875 -0.15625 -0.5 -0.15625q-0.515625 0 -0.84375 0.390625q-0.421875 0.515625 -0.421875 1.34375q0 0.859375 0.421875 1.515625q0.421875 0.640625 1.125 0.640625q0.515625 0 0.921875 -0.34375q0.28125 -0.234375 0.5625 -0.875l0.140625 0.078125zm2.0891266 -5.59375l0 3.5q0.578125 -0.640625 0.90625 -0.8125q0.34375 -0.1875 0.6875 -0.1875q0.40625 0 0.6875 0.234375q0.296875 0.21875 0.4375 0.6875q0.09375 0.34375 0.09375 1.21875l0 1.6875q0 0.453125 0.078125 0.625q0.046875 0.125 0.171875 0.203125q0.125 0.0625 0.46875 0.0625l0 0.1875l-2.34375 0l0 -0.1875l0.109375 0q0.328125 0 0.453125 -0.09375q0.140625 -0.109375 0.1875 -0.3125q0.015625 -0.078125 0.015625 -0.484375l0 -1.6875q0 -0.78125 -0.078125 -1.015625q-0.078125 -0.25 -0.265625 -0.375q-0.171875 -0.125 -0.421875 -0.125q-0.25 0 -0.53125 0.140625q-0.265625 0.140625 -0.65625 0.546875l0 2.515625q0 0.484375 0.046875 0.609375q0.0625 0.125 0.203125 0.203125q0.15625 0.078125 0.515625 0.078125l0 0.1875l-2.359375 0l0 -0.1875q0.3125 0 0.5 -0.09375q0.109375 -0.0625 0.171875 -0.203125q0.0625 -0.140625 0.0625 -0.59375l0 -4.3125q0 -0.8125 -0.046875 -1.0q-0.03125 -0.1875 -0.125 -0.25q-0.078125 -0.078125 -0.203125 -0.078125q-0.109375 0 -0.359375 0.078125l-0.078125 -0.171875l1.4375 -0.59375l0.234375 0zm5.140625 0q0.21875 0 0.375 0.15625q0.15625 0.15625 0.15625 0.375q0 0.21875 -0.15625 0.375q-0.15625 0.15625 -0.375 0.15625q-0.21875 0 -0.375 -0.15625q-0.15625 -0.15625 -0.15625 -0.375q0 -0.21875 0.15625 -0.375q0.15625 -0.15625 0.375 -0.15625zm0.4375 2.5l0 3.828125q0 0.453125 0.0625 0.609375q0.0625 0.140625 0.1875 0.21875q0.125 0.0625 0.46875 0.0625l0 0.1875l-2.3125 0l0 -0.1875q0.34375 0 0.453125 -0.0625q0.125 -0.078125 0.1875 -0.234375q0.078125 -0.15625 0.078125 -0.59375l0 -1.828125q0 -0.78125 -0.046875 -1.015625q-0.03125 -0.15625 -0.109375 -0.21875q-0.078125 -0.078125 -0.21875 -0.078125q-0.140625 0 -0.34375 0.078125l-0.078125 -0.1875l1.4375 -0.578125l0.234375 0zm2.9450226 -2.5l0 6.328125q0 0.453125 0.0625 0.59375q0.078125 0.140625 0.203125 0.21875q0.140625 0.078125 0.5 0.078125l0 0.1875l-2.328125 0l0 -0.1875q0.328125 0 0.4375 -0.0625q0.125 -0.078125 0.1875 -0.234375q0.078125 -0.15625 0.078125 -0.59375l0 -4.328125q0 -0.8125 -0.046875 -0.984375q-0.03125 -0.1875 -0.109375 -0.25q-0.078125 -0.078125 -0.203125 -0.078125q-0.140625 0 -0.34375 0.078125l-0.09375 -0.171875l1.421875 -0.59375l0.234375 0zm4.6950226 6.875q-0.359375 0.359375 -0.6875 0.515625q-0.328125 0.15625 -0.71875 0.15625q-0.78125 0 -1.359375 -0.640625q-0.578125 -0.65625 -0.578125 -1.6875q0 -1.015625 0.640625 -1.859375q0.640625 -0.859375 1.65625 -0.859375q0.625 0 1.046875 0.390625l0 -0.875q0 -0.8125 -0.046875 -1.0q-0.03125 -0.1875 -0.125 -0.25q-0.078125 -0.078125 -0.203125 -0.078125q-0.140625 0 -0.359375 0.078125l-0.0625 -0.171875l1.421875 -0.59375l0.234375 0l0 5.515625q0 0.84375 0.03125 1.03125q0.046875 0.171875 0.125 0.25q0.09375 0.078125 0.203125 0.078125q0.140625 0 0.375 -0.09375l0.0625 0.1875l-1.421875 0.578125l-0.234375 0l0 -0.671875zm0 -0.375l0 -2.453125q-0.03125 -0.34375 -0.1875 -0.640625q-0.15625 -0.296875 -0.421875 -0.4375q-0.25 -0.15625 -0.5 -0.15625q-0.453125 0 -0.8125 0.421875q-0.46875 0.53125 -0.46875 1.578125q0 1.046875 0.453125 1.609375q0.453125 0.5625 1.015625 0.5625q0.46875 0 0.921875 -0.484375zm6.546875 -2.6875q0.734375 0.15625 1.09375 0.5q0.515625 0.46875 0.515625 1.15625q0 0.53125 -0.34375 1.015625q-0.328125 0.484375 -0.90625 0.703125q-0.578125 0.21875 -1.78125 0.21875l-3.328125 0l0 -0.1875l0.265625 0q0.453125 0 0.640625 -0.28125q0.125 -0.1875 0.125 -0.78125l0 -4.5625q0 -0.65625 -0.15625 -0.828125q-0.203125 -0.21875 -0.609375 -0.21875l-0.265625 0l0 -0.203125l3.046875 0q0.859375 0 1.375 0.125q0.78125 0.1875 1.1875 0.671875q0.421875 0.46875 0.421875 1.09375q0 0.53125 -0.328125 0.953125q-0.328125 0.421875 -0.953125 0.625zm-2.71875 -0.28125q0.1875 0.03125 0.421875 0.046875q0.25 0.015625 0.546875 0.015625q0.765625 0 1.140625 -0.15625q0.390625 -0.171875 0.59375 -0.5q0.203125 -0.34375 0.203125 -0.75q0 -0.609375 -0.515625 -1.046875q-0.5 -0.4375 -1.46875 -0.4375q-0.515625 0 -0.921875 0.109375l0 2.71875zm0 3.359375q0.59375 0.140625 1.1875 0.140625q0.9375 0 1.421875 -0.421875q0.5 -0.421875 0.5 -1.046875q0 -0.40625 -0.21875 -0.78125q-0.21875 -0.390625 -0.734375 -0.609375q-0.5 -0.21875 -1.25 -0.21875q-0.3125 0 -0.546875 0.015625q-0.21875 0.015625 -0.359375 0.03125l0 2.890625z" fill-rule="nonzero"/><path fill="#000000" fill-opacity="0.0" d="m136.91864 80.75459l52.220474 0l0 32.314964l-52.220474 0z" fill-rule="evenodd"/><path fill="#000000" d="m147.46552 92.58834q0.21875 0 0.375 0.15625q0.15625 0.15625 0.15625 0.375q0 0.21875 -0.15625 0.375q-0.15625 0.15625 -0.375 0.15625q-0.21875 0 -0.375 -0.15625q-0.15625 -0.15625 -0.15625 -0.375q0 -0.21875 0.15625 -0.375q0.15625 -0.15625 0.375 -0.15625zm0.4375 2.5l0 3.828125q0 0.453125 0.0625 0.609375q0.0625 0.140625 0.1875 0.21875q0.125 0.0625 0.46875 0.0625l0 0.1875l-2.3125 0l0 -0.1875q0.34375 0 0.453125 -0.0625q0.125 -0.078125 0.1875 -0.234375q0.078125 -0.15625 0.078125 -0.59375l0 -1.828125q0 -0.78125 -0.046875 -1.015625q-0.03125 -0.15625 -0.109375 -0.21875q-0.078125 -0.078125 -0.21875 -0.078125q-0.140625 0 -0.34375 0.078125l-0.078125 -0.1875l1.4375 -0.578125l0.234375 0zm2.6950226 1.015625q0.84375 -1.015625 1.59375 -1.015625q0.390625 0 0.671875 0.203125q0.28125 0.1875 0.453125 0.640625q0.109375 0.3125 0.109375 0.953125l0 2.03125q0 0.453125 0.078125 0.609375q0.0625 0.140625 0.1875 0.21875q0.125 0.0625 0.46875 0.0625l0 0.1875l-2.359375 0l0 -0.1875l0.09375 0q0.34375 0 0.46875 -0.09375q0.140625 -0.109375 0.1875 -0.3125q0.015625 -0.078125 0.015625 -0.484375l0 -1.953125q0 -0.640625 -0.171875 -0.9375q-0.15625 -0.296875 -0.5625 -0.296875q-0.609375 0 -1.234375 0.671875l0 2.515625q0 0.484375 0.0625 0.59375q0.078125 0.15625 0.203125 0.234375q0.125 0.0625 0.515625 0.0625l0 0.1875l-2.359375 0l0 -0.1875l0.109375 0q0.359375 0 0.484375 -0.1875q0.125 -0.1875 0.125 -0.703125l0 -1.765625q0 -0.859375 -0.046875 -1.046875q-0.03125 -0.1875 -0.109375 -0.25q-0.078125 -0.078125 -0.21875 -0.078125q-0.140625 0 -0.34375 0.078125l-0.078125 -0.1875l1.4375 -0.578125l0.21875 0l0 1.015625z" fill-rule="nonzero"/><path fill="#000000" fill-opacity="0.0" d="m39.818897 71.98819l52.22047 0l0 12.283463l-52.22047 0z" fill-rule="evenodd"/><path fill="#000000" d="m52.225147 77.063675l0 1.625l-0.171875 0q-0.1875 -0.765625 -0.5 -1.03125q-0.3125 -0.28125 -0.78125 -0.28125q-0.375 0 -0.59375 0.1875q-0.21875 0.1875 -0.21875 0.421875q0 0.296875 0.15625 0.5q0.171875 0.21875 0.65625 0.453125l0.765625 0.375q1.046875 0.515625 1.046875 1.359375q0 0.640625 -0.5 1.046875q-0.484375 0.390625 -1.078125 0.390625q-0.4375 0 -1.0 -0.15625q-0.171875 -0.046875 -0.28125 -0.046875q-0.125 0 -0.1875 0.140625l-0.171875 0l0 -1.703125l0.171875 0q0.140625 0.71875 0.546875 1.09375q0.421875 0.375 0.921875 0.375q0.359375 0 0.578125 -0.203125q0.234375 -0.21875 0.234375 -0.515625q0 -0.359375 -0.25 -0.609375q-0.25 -0.25 -1.015625 -0.625q-0.75 -0.375 -0.984375 -0.671875q-0.234375 -0.296875 -0.234375 -0.75q0 -0.578125 0.40625 -0.96875q0.40625 -0.40625 1.046875 -0.40625q0.28125 0 0.6875 0.125q0.25 0.078125 0.34375 0.078125q0.078125 0 0.125 -0.03125q0.046875 -0.046875 0.109375 -0.171875l0.171875 0zm2.287613 -2.5q0.21875 0 0.375 0.15625q0.15625 0.15625 0.15625 0.375q0 0.21875 -0.15625 0.375q-0.15625 0.15625 -0.375 0.15625q-0.21875 0 -0.375 -0.15625q-0.15625 -0.15625 -0.15625 -0.375q0 -0.21875 0.15625 -0.375q0.15625 -0.15625 0.375 -0.15625zm0.4375 2.5l0 3.828125q0 0.453125 0.0625 0.609375q0.0625 0.140625 0.1875 0.21875q0.125 0.0625 0.46875 0.0625l0 0.1875l-2.3125 0l0 -0.1875q0.34375 0 0.453125 -0.0625q0.125 -0.078125 0.1875 -0.234375q0.078125 -0.15625 0.078125 -0.59375l0 -1.828125q0 -0.78125 -0.046875 -1.015625q-0.03125 -0.15625 -0.109375 -0.21875q-0.078125 -0.078125 -0.21875 -0.078125q-0.140625 0 -0.34375 0.078125l-0.078125 -0.1875l1.4375 -0.578125l0.234375 0zm2.5856476 3.171875q-0.4375 -0.21875 -0.671875 -0.59375q-0.234375 -0.390625 -0.234375 -0.84375q0 -0.71875 0.53125 -1.21875q0.53125 -0.515625 1.375 -0.515625q0.671875 0 1.171875 0.328125l1.015625 0q0.21875 0 0.25 0.015625q0.046875 0.015625 0.0625 0.046875q0.03125 0.046875 0.03125 0.171875q0 0.125 -0.03125 0.1875q-0.015625 0.015625 -0.0625 0.03125q-0.03125 0.015625 -0.25 0.015625l-0.625 0q0.296875 0.375 0.296875 0.96875q0 0.65625 -0.515625 1.140625q-0.515625 0.46875 -1.359375 0.46875q-0.359375 0 -0.734375 -0.109375q-0.21875 0.203125 -0.3125 0.359375q-0.078125 0.140625 -0.078125 0.234375q0 0.09375 0.078125 0.1875q0.09375 0.078125 0.34375 0.109375q0.15625 0.015625 0.734375 0.03125q1.0625 0.03125 1.390625 0.078125q0.484375 0.0625 0.765625 0.359375q0.296875 0.296875 0.296875 0.71875q0 0.59375 -0.5625 1.109375q-0.8125 0.75 -2.109375 0.75q-1.0 0 -1.703125 -0.453125q-0.390625 -0.25 -0.390625 -0.53125q0 -0.125 0.0625 -0.25q0.09375 -0.203125 0.359375 -0.546875q0.046875 -0.046875 0.53125 -0.5625q-0.265625 -0.15625 -0.375 -0.28125q-0.109375 -0.125 -0.109375 -0.296875q0 -0.171875 0.140625 -0.421875q0.15625 -0.25 0.6875 -0.6875zm0.90625 -2.921875q-0.390625 0 -0.65625 0.3125q-0.25 0.296875 -0.25 0.9375q0 0.8125 0.359375 1.265625q0.265625 0.34375 0.6875 0.34375q0.390625 0 0.640625 -0.296875q0.25 -0.296875 0.25 -0.921875q0 -0.828125 -0.359375 -1.296875q-0.265625 -0.34375 -0.671875 -0.34375zm-0.953125 4.65625q-0.25 0.265625 -0.375 0.484375q-0.125 0.234375 -0.125 0.4375q0 0.25 0.296875 0.4375q0.53125 0.3125 1.5 0.3125q0.9375 0 1.375 -0.328125q0.453125 -0.328125 0.453125 -0.703125q0 -0.265625 -0.265625 -0.390625q-0.265625 -0.109375 -1.0625 -0.125q-1.171875 -0.03125 -1.796875 -0.125zm5.484375 -3.890625q0.84375 -1.015625 1.5937538 -1.015625q0.390625 0 0.671875 0.203125q0.28125 0.1875 0.453125 0.640625q0.109375 0.3125 0.109375 0.953125l0 2.03125q0 0.453125 0.078125 0.609375q0.0625 0.140625 0.1875 0.21875q0.125 0.0625 0.46875 0.0625l0 0.1875l-2.359375 0l0 -0.1875l0.09375 0q0.34375 0 0.46875 -0.09375q0.140625 -0.109375 0.1875 -0.3125q0.015625 -0.078125 0.015625 -0.484375l0 -1.953125q0 -0.640625 -0.171875 -0.9375q-0.15625 -0.296875 -0.5625 -0.296875q-0.6093788 0 -1.2343788 0.671875l0 2.515625q0 0.484375 0.0625 0.59375q0.078125 0.15625 0.203125 0.234375q0.125 0.0625 0.515625 0.0625l0 0.1875l-2.359375 0l0 -0.1875l0.109375 0q0.359375 0 0.484375 -0.1875q0.125 -0.1875 0.125 -0.703125l0 -1.765625q0 -0.859375 -0.046875 -1.046875q-0.03125 -0.1875 -0.109375 -0.25q-0.078125 -0.078125 -0.21875 -0.078125q-0.140625 0 -0.34375 0.078125l-0.078125 -0.1875l1.4375 -0.578125l0.21875 0l0 1.015625zm6.640629 3.203125q-0.734375 0.5625 -0.921875 0.65625q-0.28125 0.125 -0.59375 0.125q-0.5 0 -0.828125 -0.328125q-0.3125 -0.34375 -0.3125 -0.890625q0 -0.359375 0.15625 -0.609375q0.21875 -0.359375 0.75 -0.65625q0.53125 -0.3125 1.75 -0.765625l0 -0.1875q0 -0.71875 -0.234375 -0.984375q-0.21875 -0.265625 -0.640625 -0.265625q-0.328125 0 -0.53125 0.1875q-0.1875 0.171875 -0.1875 0.40625l0 0.296875q0 0.234375 -0.125 0.375q-0.109375 0.125 -0.3125 0.125q-0.1875 0 -0.3125 -0.125q-0.125 -0.140625 -0.125 -0.375q0 -0.453125 0.453125 -0.828125q0.46875 -0.375 1.296875 -0.375q0.625 0 1.03125 0.21875q0.3125 0.15625 0.453125 0.5q0.09375 0.21875 0.09375 0.921875l0 1.609375q0 0.6875 0.015625 0.84375q0.03125 0.140625 0.09375 0.203125q0.0625 0.046875 0.140625 0.046875q0.078125 0 0.140625 -0.03125q0.109375 -0.078125 0.421875 -0.390625l0 0.296875q-0.578125 0.78125 -1.109375 0.78125q-0.25 0 -0.40625 -0.171875q-0.15625 -0.1875 -0.15625 -0.609375zm0 -0.34375l0 -1.8125q-0.78125 0.3125 -1.015625 0.4375q-0.40625 0.234375 -0.59375 0.484375q-0.171875 0.25 -0.171875 0.546875q0 0.375 0.21875 0.625q0.234375 0.25 0.53125 0.25q0.390625 0 1.03125 -0.53125zm3.6672516 -6.375l0 6.328125q0 0.453125 0.0625 0.59375q0.078125 0.140625 0.203125 0.21875q0.140625 0.078125 0.5 0.078125l0 0.1875l-2.328125 0l0 -0.1875q0.328125 0 0.4375 -0.0625q0.125 -0.078125 0.1875 -0.234375q0.078125 -0.15625 0.078125 -0.59375l0 -4.328125q0 -0.8125 -0.046875 -0.984375q-0.03125 -0.1875 -0.109375 -0.25q-0.078125 -0.078125 -0.203125 -0.078125q-0.140625 0 -0.34375 0.078125l-0.09375 -0.171875l1.421875 -0.59375l0.234375 0z" fill-rule="nonzero"/><path fill="#ffffff" d="m11.592205 68.28854l0 0c-0.27581596 -2.4036407 0.62974167 -4.7830963 2.3324108 -6.1286774c1.7026701 -1.3455849 3.903841 -1.4213104 5.6694736 -0.19504166l0 0c0.6254406 -1.3975754 1.7701797 -2.362503 3.0879574 -2.6029167c1.3177757 -0.24040985 2.6538124 0.2719345 3.603983 1.382061l0 0c0.53279495 -1.2671318 1.578949 -2.1184845 2.767229 -2.2519493c1.188282 -0.13346481 2.3505192 0.469841 3.0742931 1.5958366l0 0c0.962574 -1.3431549 2.494049 -1.90868 3.9317513 -1.4518661c1.437706 0.45681 2.5234108 1.8539124 2.787323 3.586773l0 0c1.1793175 0.3814621 2.1616592 1.3511887 2.6932297 2.658638c0.5315666 1.3074417 0.5602112 2.8243484 0.07853317 4.158798l0 0c1.1612816 1.7923126 1.4329338 4.180542 0.7135849 6.2734528c-0.7193527 2.0929031 -2.3216324 3.5760498 -4.2089005 3.895958c-0.013305664 1.9642715 -0.9217377 3.766655 -2.3751488 4.712448c-1.4534149 0.9457855 -3.2248535 0.88729095 -4.631527 -0.15294647l0 0c-0.59916687 2.3525543 -2.2856274 4.0835342 -4.330765 4.4451065c-2.0451355 0.36157227 -4.082321 -0.7110977 -5.231413 -2.7545624l0 0c-1.4085464 1.0072327 -3.0986843 1.2973785 -4.6891556 0.8050003c-1.5904694 -0.49237823 -2.9472961 -1.7258224 -3.764408 -3.4220734l0 0c-1.4393578 0.19973755 -2.8310175 -0.6845932 -3.4843044 -2.2141037c-0.653286 -1.5295105 -0.4291296 -3.378601 0.5612211 -4.6295853l0 0c-1.2839441 -0.89614105 -1.9390907 -2.6743774 -1.623805 -4.40744c0.31528568 -1.7330551 1.5295582 -3.0282135 3.0096216 -3.2100983z" fill-rule="evenodd"/><path fill="#000000" fill-opacity="0.0" d="m10.177937 75.998726l0 0c0.60589695 0.4228897 1.305851 0.6147232 2.0058804 0.54974365m0.91688824 6.2940903c0.3010378 -0.041770935 0.5961132 -0.13023376 0.877614 -0.2631073m7.575529 2.8800735c-0.21173096 -0.37652588 -0.38900375 -0.7788849 -0.52879524 -1.200203m10.091339 -0.49040985l0 0c0.10923767 -0.42890167 0.18001366 -0.87033844 0.21114731 -1.3169403m6.7952595 -3.2423935c0.014163971 -2.0912704 -0.98747253 -4.0060577 -2.5746803 -4.9219055m6.0699654 -5.247284c-0.25704193 0.7121124 -0.6494446 1.3438187 -1.1464424 1.8455963m-1.6250801 -8.663223l0 0c0.043800354 0.28756714 0.06406784 0.57946014 0.0605278 0.8716278m-6.7794876 -3.0064468l0 0c-0.24011421 0.3350525 -0.43793678 0.709465 -0.587307 1.1115875m-5.2542706 -0.45562363l0 0c-0.1279602 0.3043251 -0.22351265 0.6263542 -0.28445625 0.95866394m-6.4075813 0.26221848l0 0c0.37360573 0.25947952 0.7192421 0.5717888 1.0293179 0.93006897m-9.031099 5.3936844l0 0c0.038014412 0.33128357 0.09807873 0.6584854 0.17963219 0.9785385" fill-rule="evenodd"/><path stroke="#080808" stroke-width="1.0" stroke-linejoin="round" stroke-linecap="butt" d="m11.592205 68.28854l0 0c-0.27581596 -2.4036407 0.62974167 -4.7830963 2.3324108 -6.1286774c1.7026701 -1.3455849 3.903841 -1.4213104 5.6694736 -0.19504166l0 0c0.6254406 -1.3975754 1.7701797 -2.362503 3.0879574 -2.6029167c1.3177757 -0.24040985 2.6538124 0.2719345 3.603983 1.382061l0 0c0.53279495 -1.2671318 1.578949 -2.1184845 2.767229 -2.2519493c1.188282 -0.13346481 2.3505192 0.469841 3.0742931 1.5958366l0 0c0.962574 -1.3431549 2.494049 -1.90868 3.9317513 -1.4518661c1.437706 0.45681 2.5234108 1.8539124 2.787323 3.586773l0 0c1.1793175 0.3814621 2.1616592 1.3511887 2.6932297 2.658638c0.5315666 1.3074417 0.5602112 2.8243484 0.07853317 4.158798l0 0c1.1612816 1.7923126 1.4329338 4.180542 0.7135849 6.2734528c-0.7193527 2.0929031 -2.3216324 3.5760498 -4.2089005 3.895958c-0.013305664 1.9642715 -0.9217377 3.766655 -2.3751488 4.712448c-1.4534149 0.9457855 -3.2248535 0.88729095 -4.631527 -0.15294647l0 0c-0.59916687 2.3525543 -2.2856274 4.0835342 -4.330765 4.4451065c-2.0451355 0.36157227 -4.082321 -0.7110977 -5.231413 -2.7545624l0 0c-1.4085464 1.0072327 -3.0986843 1.2973785 -4.6891556 0.8050003c-1.5904694 -0.49237823 -2.9472961 -1.7258224 -3.764408 -3.4220734l0 0c-1.4393578 0.19973755 -2.8310175 -0.6845932 -3.4843044 -2.2141037c-0.653286 -1.5295105 -0.4291296 -3.378601 0.5612211 -4.6295853l0 0c-1.2839441 -0.89614105 -1.9390907 -2.6743774 -1.623805 -4.40744c0.31528568 -1.7330551 1.5295582 -3.0282135 3.0096216 -3.2100983z" fill-rule="evenodd"/><path stroke="#080808" stroke-width="1.0" stroke-linejoin="round" stroke-linecap="butt" d="m10.177937 75.998726l0 0c0.60589695 0.4228897 1.305851 0.6147232 2.0058804 0.54974365m0.91688824 6.2940903c0.3010378 -0.041770935 0.5961132 -0.13023376 0.877614 -0.2631073m7.575529 2.8800735c-0.21173096 -0.37652588 -0.38900375 -0.7788849 -0.52879524 -1.200203m10.091339 -0.49040985l0 0c0.10923767 -0.42890167 0.18001366 -0.87033844 0.21114731 -1.3169403m6.7952595 -3.2423935c0.014163971 -2.0912704 -0.98747253 -4.0060577 -2.5746803 -4.9219055m6.0699654 -5.247284c-0.25704193 0.7121124 -0.6494446 1.3438187 -1.1464424 1.8455963m-1.6250801 -8.663223l0 0c0.043800354 0.28756714 0.06406784 0.57946014 0.0605278 0.8716278m-6.7794876 -3.0064468l0 0c-0.24011421 0.3350525 -0.43793678 0.709465 -0.587307 1.1115875m-5.2542706 -0.45562363l0 0c-0.1279602 0.3043251 -0.22351265 0.6263542 -0.28445625 0.95866394m-6.4075813 0.26221848l0 0c0.37360573 0.25947952 0.7192421 0.5717888 1.0293179 0.93006897m-9.031099 5.3936844l0 0c0.038014412 0.33128357 0.09807873 0.6584854 0.17963219 0.9785385" fill-rule="evenodd"/><path fill="#000000" fill-opacity="0.0" d="m125.18372 33.19685l3.8661423 12.530186l3.601059 -12.3989525" fill-rule="evenodd"/><path stroke="#000000" stroke-width="1.0" stroke-linejoin="round" stroke-linecap="butt" d="m125.18372 33.19685l3.8661423 12.530186l3.601059 -12.3989525" fill-rule="evenodd"/></g></svg>