<?xml version="1.0" encoding="UTF-8" standalone="no"?>
<svg
   version="1.1"
   viewBox="0 0 800.81628 135.50392"
   fill="none"
   stroke="none"
   stroke-linecap="square"
   stroke-miterlimit="10"
   id="svg143"
   sodipodi:docname="losing_semantics.svg"
   width="800.81628"
   height="135.50392"
   inkscape:version="1.2.2 (b0a8486541, 2022-12-01)"
   xmlns:inkscape="http://www.inkscape.org/namespaces/inkscape"
   xmlns:sodipodi="http://sodipodi.sourceforge.net/DTD/sodipodi-0.dtd"
   xmlns="http://www.w3.org/2000/svg"
   xmlns:svg="http://www.w3.org/2000/svg">
  <defs
     id="defs147" />
  <sodipodi:namedview
     id="namedview145"
     pagecolor="#ffffff"
     bordercolor="#000000"
     borderopacity="0.25"
     inkscape:showpageshadow="2"
     inkscape:pageopacity="0.0"
     inkscape:pagecheckerboard="0"
     inkscape:deskcolor="#d1d1d1"
     showgrid="false"
     inkscape:zoom="2.0055556"
     inkscape:cx="448.00554"
     inkscape:cy="129.39058"
     inkscape:window-width="2560"
     inkscape:window-height="1373"
     inkscape:window-x="3840"
     inkscape:window-y="30"
     inkscape:window-maximized="1"
     inkscape:current-layer="svg143" />
  <clipPath
     id="p.0">
    <path
       d="M 0,0 H 960 V 540 H 0 Z"
       clip-rule="nonzero"
       id="path2" />
  </clipPath>
  <g
     clip-path="url(#p.0)"
     id="g141"
     transform="translate(-32.560368,-140.73097)">
    <path
       fill="#000000"
       fill-opacity="0"
       d="M 284.0866,151.99738 H 452.84252"
       fill-rule="evenodd"
       id="path7" />
    <path
       stroke="#595959"
       stroke-width="3"
       stroke-linejoin="round"
       stroke-linecap="butt"
       d="M 284.0866,151.99738 H 434.84252"
       fill-rule="evenodd"
       id="path9" />
    <path
       fill="#595959"
       stroke="#595959"
       stroke-width="3"
       stroke-linecap="butt"
       d="m 434.84253,156.95258 13.61429,-4.9552 -13.61429,-4.9552 z"
       fill-rule="evenodd"
       id="path11" />
    <path
       fill="#000000"
       fill-opacity="0"
       d="M 282.54855,154.6693 H 496.34384 V 261.31498 H 282.54855 Z"
       fill-rule="evenodd"
       id="path13" />
    <path
       fill="#000000"
       d="m 301.25168,182.14679 2.07813,0.26562 q -0.34375,2.15625 -1.75,3.375 -1.39063,1.20313 -3.4375,1.20313 -2.54688,0 -4.10938,-1.67188 -1.54687,-1.67187 -1.54687,-4.78125 0,-2.01562 0.67187,-3.53125 0.67188,-1.51562 2.03125,-2.26562 1.35938,-0.76563 2.96875,-0.76563 2.03125,0 3.3125,1.03125 1.29688,1.03125 1.65625,2.90625 l -2.04687,0.32813 q -0.29688,-1.26563 -1.04688,-1.89063 -0.73437,-0.64062 -1.79687,-0.64062 -1.59375,0 -2.59375,1.15625 -0.98438,1.14062 -0.98438,3.60937 0,2.5 0.95313,3.64063 0.96875,1.14062 2.51562,1.14062 1.23438,0 2.0625,-0.76562 0.84375,-0.76563 1.0625,-2.34375 z m 3.09375,-1.65625 q 0,-3.46875 1.92188,-5.125 1.60937,-1.39063 3.92187,-1.39063 2.5625,0 4.1875,1.6875 1.625,1.6875 1.625,4.64063 0,2.40625 -0.71875,3.78125 -0.71875,1.375 -2.09375,2.14062 -1.375,0.76563 -3,0.76563 -2.625,0 -4.23437,-1.67188 -1.60938,-1.6875 -1.60938,-4.82812 z m 2.17188,0 q 0,2.39062 1.03125,3.57812 1.04687,1.1875 2.64062,1.1875 1.5625,0 2.60938,-1.1875 1.04687,-1.20312 1.04687,-3.65625 0,-2.3125 -1.0625,-3.5 -1.04687,-1.1875 -2.59375,-1.1875 -1.59375,0 -2.64062,1.1875 -1.03125,1.1875 -1.03125,3.57813 z m 11.95703,6.21875 v -12.45313 h 1.89062 v 1.75 q 0.59375,-0.90625 1.5625,-1.46875 0.96875,-0.5625 2.21875,-0.5625 1.375,0 2.25,0.57813 0.89063,0.57812 1.26563,1.60937 1.46875,-2.1875 3.84375,-2.1875 1.84375,0 2.84375,1.03125 1,1.03125 1,3.15625 v 8.54688 h -2.10938 v -7.84375 q 0,-1.26563 -0.20312,-1.8125 -0.20313,-0.5625 -0.75,-0.90625 -0.53125,-0.34375 -1.25,-0.34375 -1.3125,0 -2.1875,0.875 -0.85938,0.875 -0.85938,2.79687 v 7.23438 h -2.10937 v -8.09375 q 0,-1.40625 -0.51563,-2.10938 -0.51562,-0.70312 -1.6875,-0.70312 -0.89062,0 -1.65625,0.46875 -0.75,0.46875 -1.09375,1.375 -0.34375,0.90625 -0.34375,2.60937 v 6.45313 z m 19.99218,4.76562 v -17.21875 h 1.92188 v 1.625 q 0.6875,-0.95312 1.53125,-1.42187 0.85937,-0.48438 2.07812,-0.48438 1.59375,0 2.8125,0.82813 1.21875,0.8125 1.84375,2.3125 0.625,1.5 0.625,3.28125 0,1.90625 -0.6875,3.4375 -0.6875,1.53125 -2,2.34375 -1.29687,0.8125 -2.73437,0.8125 -1.0625,0 -1.90625,-0.4375 -0.82813,-0.45313 -1.375,-1.14063 v 6.0625 z m 1.92188,-10.92187 q 0,2.40625 0.96875,3.5625 0.96875,1.14062 2.35937,1.14062 1.40625,0 2.40625,-1.1875 1,-1.1875 1,-3.6875 0,-2.375 -0.98437,-3.5625 -0.96875,-1.1875 -2.32813,-1.1875 -1.35937,0 -2.39062,1.26563 -1.03125,1.25 -1.03125,3.65625 z m 11.4414,-8.59375 v -2.4375 h 2.10938 v 2.4375 z m 0,14.75 v -12.45313 h 2.10938 v 12.45313 z m 5.26954,0 v -17.1875 h 2.10937 v 17.1875 z m 5.39453,-14.75 v -2.4375 h 2.10937 v 2.4375 z m 0,14.75 v -12.45313 h 2.10937 v 12.45313 z m 5.3164,0 v -12.45313 h 1.90625 v 1.78125 q 1.375,-2.0625 3.95313,-2.0625 1.125,0 2.0625,0.40625 0.95312,0.40625 1.42187,1.0625 0.46875,0.65625 0.65625,1.5625 0.125,0.57813 0.125,2.04688 v 7.65625 h -2.10937 v -7.57813 q 0,-1.28125 -0.25,-1.92187 -0.25,-0.64063 -0.875,-1.01563 -0.625,-0.39062 -1.46875,-0.39062 -1.34375,0 -2.32813,0.85937 -0.98437,0.85938 -0.98437,3.25 v 6.79688 z m 12.97266,1.03125 2.04687,0.3125 q 0.125,0.9375 0.71875,1.375 0.78125,0.59375 2.14063,0.59375 1.46875,0 2.26562,-0.59375 0.79688,-0.57813 1.07813,-1.64063 0.15625,-0.64062 0.14062,-2.70312 -1.375,1.625 -3.4375,1.625 -2.5625,0 -3.96875,-1.84375 -1.40625,-1.85938 -1.40625,-4.45313 0,-1.78125 0.64063,-3.28125 0.64062,-1.51562 1.85937,-2.32812 1.23438,-0.82813 2.89063,-0.82813 2.20312,0 3.625,1.78125 v -1.5 h 1.95312 v 10.76563 q 0,2.90625 -0.59375,4.10937 -0.59375,1.21875 -1.875,1.92188 -1.28125,0.70312 -3.15625,0.70312 -2.23437,0 -3.60937,-1 -1.35938,-1 -1.3125,-3.01562 z m 1.73437,-7.48438 q 0,2.45313 0.96875,3.57813 0.98438,1.125 2.45313,1.125 1.45312,0 2.4375,-1.10938 0.98437,-1.125 0.98437,-3.51562 0,-2.28125 -1.01562,-3.4375 -1.01563,-1.17188 -2.45313,-1.17188 -1.40625,0 -2.39062,1.14063 -0.98438,1.14062 -0.98438,3.39062 z m 23.26563,4.5625 0.3125,1.85938 q -0.89063,0.20312 -1.59375,0.20312 -1.15625,0 -1.79688,-0.35937 -0.625,-0.375 -0.89062,-0.96875 -0.25,-0.59375 -0.25,-2.48438 v -7.17187 h -1.54688 v -1.64063 h 1.54688 v -3.07812 l 2.09375,-1.26563 v 4.34375 h 2.125 v 1.64063 h -2.125 v 7.28125 q 0,0.90625 0.10937,1.17187 0.125,0.25 0.375,0.40625 0.25,0.14063 0.71875,0.14063 0.34375,0 0.92188,-0.0781 z m 1.27734,-4.32812 q 0,-3.46875 1.92188,-5.125 1.60937,-1.39063 3.92187,-1.39063 2.5625,0 4.1875,1.6875 1.625,1.6875 1.625,4.64063 0,2.40625 -0.71875,3.78125 -0.71875,1.375 -2.09375,2.14062 -1.375,0.76563 -3,0.76563 -2.625,0 -4.23437,-1.67188 -1.60938,-1.6875 -1.60938,-4.82812 z m 2.17188,0 q 0,2.39062 1.03125,3.57812 1.04687,1.1875 2.64062,1.1875 1.5625,0 2.60938,-1.1875 1.04687,-1.20312 1.04687,-3.65625 0,-2.3125 -1.0625,-3.5 -1.04687,-1.1875 -2.59375,-1.1875 -1.59375,0 -2.64062,1.1875 -1.03125,1.1875 -1.03125,3.57813 z"
       fill-rule="nonzero"
       id="path15" />
    <path
       fill="#000000"
       d="m 298.31418,215.5093 -6.65625,-17.1875 h 2.45313 l 4.46875,12.48437 q 0.54687,1.5 0.90625,2.8125 0.39062,-1.40625 0.92187,-2.8125 l 4.64063,-12.48437 h 2.32812 l -6.73437,17.1875 z m 18.02734,-4.01563 2.17188,0.28125 q -0.51563,1.90625 -1.90625,2.96875 -1.39063,1.04688 -3.5625,1.04688 -2.73438,0 -4.34375,-1.67188 -1.59375,-1.6875 -1.59375,-4.73437 0,-3.14063 1.60937,-4.875 1.625,-1.73438 4.20313,-1.73438 2.5,0 4.07812,1.70313 1.59375,1.70312 1.59375,4.78125 0,0.1875 -0.0156,0.5625 h -9.28125 q 0.10937,2.04687 1.15625,3.14062 1.04687,1.09375 2.60937,1.09375 1.15625,0 1.96875,-0.60937 0.82813,-0.60938 1.3125,-1.95313 z m -6.9375,-3.40625 h 6.95313 q -0.14063,-1.5625 -0.79688,-2.35937 -1,-1.21875 -2.60937,-1.21875 -1.45313,0 -2.45313,0.98437 -0.98437,0.96875 -1.09375,2.59375 z m 11.73829,7.42188 v -12.45313 h 1.89062 v 1.89063 q 0.73438,-1.32813 1.34375,-1.75 0.625,-0.42188 1.35938,-0.42188 1.0625,0 2.17187,0.6875 l -0.73437,1.95313 q -0.76563,-0.45313 -1.54688,-0.45313 -0.6875,0 -1.25,0.42188 -0.54687,0.40625 -0.78125,1.14062 -0.34375,1.125 -0.34375,2.46875 v 6.51563 z m 8.02343,-14.75 v -2.4375 h 2.10938 v 2.4375 z m 0,14.75 v -12.45313 h 2.10938 v 12.45313 z m 5.26953,0 v -17.1875 h 2.10938 v 17.1875 z m 4.59766,-6.21875 q 0,-3.46875 1.92187,-5.125 1.60938,-1.39063 3.92188,-1.39063 2.5625,0 4.1875,1.6875 1.625,1.6875 1.625,4.64063 0,2.40625 -0.71875,3.78125 -0.71875,1.375 -2.09375,2.14062 -1.375,0.76563 -3,0.76563 -2.625,0 -4.23438,-1.67188 -1.60937,-1.6875 -1.60937,-4.82812 z m 2.17187,0 q 0,2.39062 1.03125,3.57812 1.04688,1.1875 2.64063,1.1875 1.5625,0 2.60937,-1.1875 1.04688,-1.20312 1.04688,-3.65625 0,-2.3125 -1.0625,-3.5 -1.04688,-1.1875 -2.59375,-1.1875 -1.59375,0 -2.64063,1.1875 -1.03125,1.1875 -1.03125,3.57813 z m 11.58204,7.25 2.04687,0.3125 q 0.125,0.9375 0.71875,1.375 0.78125,0.59375 2.14063,0.59375 1.46875,0 2.26562,-0.59375 0.79688,-0.57813 1.07813,-1.64063 0.15625,-0.64062 0.14062,-2.70312 -1.375,1.625 -3.4375,1.625 -2.5625,0 -3.96875,-1.84375 -1.40625,-1.85938 -1.40625,-4.45313 0,-1.78125 0.64063,-3.28125 0.64062,-1.51562 1.85937,-2.32812 1.23438,-0.82813 2.89063,-0.82813 2.20312,0 3.625,1.78125 v -1.5 h 1.95312 v 10.76563 q 0,2.90625 -0.59375,4.10937 -0.59375,1.21875 -1.875,1.92188 -1.28125,0.70312 -3.15625,0.70312 -2.23437,0 -3.60937,-1 -1.35938,-1 -1.3125,-3.01562 z m 1.73437,-7.48438 q 0,2.45313 0.96875,3.57813 0.98438,1.125 2.45313,1.125 1.45312,0 2.4375,-1.10938 0.98437,-1.125 0.98437,-3.51562 0,-2.28125 -1.01562,-3.4375 -1.01563,-1.17188 -2.45313,-1.17188 -1.40625,0 -2.39062,1.14063 -0.98438,1.14062 -0.98438,3.39062 z m 18.60938,6.45313 v -17.1875 h 2.10937 v 17.1875 z m 4.59765,-6.21875 q 0,-3.46875 1.92188,-5.125 1.60937,-1.39063 3.92187,-1.39063 2.5625,0 4.1875,1.6875 1.625,1.6875 1.625,4.64063 0,2.40625 -0.71875,3.78125 -0.71875,1.375 -2.09375,2.14062 -1.375,0.76563 -3,0.76563 -2.625,0 -4.23437,-1.67188 -1.60938,-1.6875 -1.60938,-4.82812 z m 2.17188,0 q 0,2.39062 1.03125,3.57812 1.04687,1.1875 2.64062,1.1875 1.5625,0 2.60938,-1.1875 1.04687,-1.20312 1.04687,-3.65625 0,-2.3125 -1.0625,-3.5 -1.04687,-1.1875 -2.59375,-1.1875 -1.59375,0 -2.64062,1.1875 -1.03125,1.1875 -1.03125,3.57813 z m 11.11328,2.5 2.09375,-0.32813 q 0.17187,1.25 0.96875,1.92188 0.8125,0.67187 2.25,0.67187 1.45312,0 2.15625,-0.59375 0.70312,-0.59375 0.70312,-1.39062 0,-0.71875 -0.625,-1.125 -0.42187,-0.28125 -2.15625,-0.71875 -2.3125,-0.57813 -3.21875,-1 -0.89062,-0.4375 -1.35937,-1.1875 -0.45313,-0.76563 -0.45313,-1.67188 0,-0.82812 0.375,-1.53125 0.39063,-0.71875 1.04688,-1.1875 0.48437,-0.35937 1.32812,-0.60937 0.85938,-0.26563 1.82813,-0.26563 1.46875,0 2.57812,0.42188 1.10938,0.42187 1.625,1.15625 0.53125,0.71875 0.73438,1.92187 l -2.0625,0.28125 q -0.14063,-0.96875 -0.8125,-1.5 -0.67188,-0.54687 -1.90625,-0.54687 -1.45313,0 -2.07813,0.48437 -0.625,0.48438 -0.625,1.125 0,0.40625 0.26563,0.73438 0.25,0.34375 0.8125,0.5625 0.3125,0.125 1.85937,0.54687 2.23438,0.59375 3.10938,0.98438 0.89062,0.375 1.39062,1.10937 0.51563,0.71875 0.51563,1.79688 0,1.04687 -0.625,1.98437 -0.60938,0.9375 -1.76563,1.45313 -1.15625,0.5 -2.625,0.5 -2.42187,0 -3.70312,-1 -1.26563,-1.01563 -1.625,-3 z m 21.375,-0.29688 2.17187,0.28125 q -0.51562,1.90625 -1.90625,2.96875 -1.39062,1.04688 -3.5625,1.04688 -2.73437,0 -4.34375,-1.67188 -1.59375,-1.6875 -1.59375,-4.73437 0,-3.14063 1.60938,-4.875 1.625,-1.73438 4.20312,-1.73438 2.5,0 4.07813,1.70313 1.59375,1.70312 1.59375,4.78125 0,0.1875 -0.0156,0.5625 h -9.28125 q 0.10938,2.04687 1.15625,3.14062 1.04688,1.09375 2.60938,1.09375 1.15625,0 1.96875,-0.60937 0.82812,-0.60938 1.3125,-1.95313 z m -6.9375,-3.40625 h 6.95312 q -0.14062,-1.5625 -0.79687,-2.35937 -1,-1.21875 -2.60938,-1.21875 -1.45312,0 -2.45312,0.98437 -0.98438,0.96875 -1.09375,2.59375 z m 10.91015,3.70313 2.09375,-0.32813 q 0.17188,1.25 0.96875,1.92188 0.8125,0.67187 2.25,0.67187 1.45313,0 2.15625,-0.59375 0.70313,-0.59375 0.70313,-1.39062 0,-0.71875 -0.625,-1.125 -0.42188,-0.28125 -2.15625,-0.71875 -2.3125,-0.57813 -3.21875,-1 -0.89063,-0.4375 -1.35938,-1.1875 -0.45312,-0.76563 -0.45312,-1.67188 0,-0.82812 0.375,-1.53125 0.39062,-0.71875 1.04687,-1.1875 0.48438,-0.35937 1.32813,-0.60937 0.85937,-0.26563 1.82812,-0.26563 1.46875,0 2.57813,0.42188 1.10937,0.42187 1.625,1.15625 0.53125,0.71875 0.73437,1.92187 l -2.0625,0.28125 q -0.14062,-0.96875 -0.8125,-1.5 -0.67187,-0.54687 -1.90625,-0.54687 -1.45312,0 -2.07812,0.48437 -0.625,0.48438 -0.625,1.125 0,0.40625 0.26562,0.73438 0.25,0.34375 0.8125,0.5625 0.3125,0.125 1.85938,0.54687 2.23437,0.59375 3.10937,0.98438 0.89063,0.375 1.39063,1.10937 0.51562,0.71875 0.51562,1.79688 0,1.04687 -0.625,1.98437 -0.60937,0.9375 -1.76562,1.45313 -1.15625,0.5 -2.625,0.5 -2.42188,0 -3.70313,-1 -1.26562,-1.01563 -1.625,-3 z"
       fill-rule="nonzero"
       id="path17" />
    <path
       fill="#000000"
       d="m 293.1423,229.5593 v -2.4375 h 2.10937 v 2.4375 z m 0,14.75 v -12.45313 h 2.10937 v 12.45313 z m 5.31641,0 v -12.45313 h 1.90625 v 1.78125 q 1.375,-2.0625 3.95312,-2.0625 1.125,0 2.0625,0.40625 0.95313,0.40625 1.42188,1.0625 0.46875,0.65625 0.65625,1.5625 0.125,0.57813 0.125,2.04688 v 7.65625 h -2.10938 v -7.57813 q 0,-1.28125 -0.25,-1.92187 -0.25,-0.64063 -0.875,-1.01563 -0.625,-0.39062 -1.46875,-0.39062 -1.34375,0 -2.32812,0.85937 -0.98438,0.85938 -0.98438,3.25 v 6.79688 z m 13.86328,0 v -10.8125 h -1.875 v -1.64063 h 1.875 v -1.3125 q 0,-1.26562 0.21875,-1.875 0.29687,-0.8125 1.0625,-1.3125 0.78125,-0.51562 2.15625,-0.51562 0.89062,0 1.96875,0.20312 l -0.3125,1.84375 q -0.65625,-0.125 -1.25,-0.125 -0.95313,0 -1.35938,0.42188 -0.39062,0.40625 -0.39062,1.53125 v 1.14062 h 2.42187 v 1.64063 h -2.42187 v 10.8125 z m 5.37109,-6.21875 q 0,-3.46875 1.92188,-5.125 1.60937,-1.39063 3.92187,-1.39063 2.5625,0 4.1875,1.6875 1.625,1.6875 1.625,4.64063 0,2.40625 -0.71875,3.78125 -0.71875,1.375 -2.09375,2.14062 -1.375,0.76563 -3,0.76563 -2.625,0 -4.23437,-1.67188 -1.60938,-1.6875 -1.60938,-4.82812 z m 2.17188,0 q 0,2.39062 1.03125,3.57812 1.04687,1.1875 2.64062,1.1875 1.5625,0 2.60938,-1.1875 1.04687,-1.20312 1.04687,-3.65625 0,-2.3125 -1.0625,-3.5 -1.04687,-1.1875 -2.59375,-1.1875 -1.59375,0 -2.64062,1.1875 -1.03125,1.1875 -1.03125,3.57813 z m 11.9414,6.21875 v -12.45313 h 1.89063 v 1.89063 q 0.73437,-1.32813 1.34375,-1.75 0.625,-0.42188 1.35937,-0.42188 1.0625,0 2.17188,0.6875 l -0.73438,1.95313 q -0.76562,-0.45313 -1.54687,-0.45313 -0.6875,0 -1.25,0.42188 -0.54688,0.40625 -0.78125,1.14062 -0.34375,1.125 -0.34375,2.46875 v 6.51563 z m 8.00781,0 v -12.45313 h 1.89063 v 1.75 q 0.59375,-0.90625 1.5625,-1.46875 0.96875,-0.5625 2.21875,-0.5625 1.375,0 2.25,0.57813 0.89062,0.57812 1.26562,1.60937 1.46875,-2.1875 3.84375,-2.1875 1.84375,0 2.84375,1.03125 1,1.03125 1,3.15625 v 8.54688 h -2.10937 v -7.84375 q 0,-1.26563 -0.20313,-1.8125 -0.20312,-0.5625 -0.75,-0.90625 -0.53125,-0.34375 -1.25,-0.34375 -1.3125,0 -2.1875,0.875 -0.85937,0.875 -0.85937,2.79687 v 7.23438 h -2.10938 v -8.09375 q 0,-1.40625 -0.51562,-2.10938 -0.51563,-0.70312 -1.6875,-0.70312 -0.89063,0 -1.65625,0.46875 -0.75,0.46875 -1.09375,1.375 -0.34375,0.90625 -0.34375,2.60937 v 6.45313 z m 28.11719,-1.53125 q -1.17187,0.98437 -2.26562,1.40625 -1.07813,0.40625 -2.3125,0.40625 -2.04688,0 -3.15625,-1 -1.09375,-1 -1.09375,-2.5625 0,-0.92188 0.40625,-1.67188 0.42187,-0.75 1.09375,-1.20312 0.67187,-0.46875 1.51562,-0.70313 0.625,-0.15625 1.875,-0.3125 2.5625,-0.3125 3.76563,-0.73437 0.0156,-0.42188 0.0156,-0.54688 0,-1.28125 -0.60937,-1.8125 -0.79688,-0.71875 -2.39063,-0.71875 -1.5,0 -2.20312,0.53125 -0.70313,0.51563 -1.04688,1.84375 l -2.0625,-0.28125 q 0.28125,-1.32812 0.92188,-2.14062 0.64062,-0.8125 1.85937,-1.25 1.21875,-0.45313 2.82813,-0.45313 1.59375,0 2.59375,0.375 1,0.375 1.46875,0.95313 0.46875,0.5625 0.65625,1.4375 0.0937,0.53125 0.0937,1.9375 v 2.8125 q 0,2.9375 0.14062,3.71875 0.14063,0.78125 0.53125,1.5 h -2.20312 q -0.32813,-0.65625 -0.42188,-1.53125 z m -0.17187,-4.71875 q -1.15625,0.46875 -3.45313,0.79687 -1.29687,0.1875 -1.84375,0.42188 -0.53125,0.23437 -0.82812,0.6875 -0.28125,0.45312 -0.28125,1 0,0.84375 0.625,1.40625 0.64062,0.5625 1.875,0.5625 1.21875,0 2.17187,-0.53125 0.95313,-0.53125 1.39063,-1.45313 0.34375,-0.71875 0.34375,-2.10937 z m 10.0039,4.35937 0.3125,1.85938 q -0.89062,0.20312 -1.59375,0.20312 -1.15625,0 -1.79687,-0.35937 -0.625,-0.375 -0.89063,-0.96875 -0.25,-0.59375 -0.25,-2.48438 v -7.17187 h -1.54687 v -1.64063 h 1.54687 v -3.07812 l 2.09375,-1.26563 v 4.34375 h 2.125 v 1.64063 h -2.125 v 7.28125 q 0,0.90625 0.10938,1.17187 0.125,0.25 0.375,0.40625 0.25,0.14063 0.71875,0.14063 0.34375,0 0.92187,-0.0781 z m 2.07422,-12.85937 v -2.4375 h 2.10938 v 2.4375 z m 0,14.75 v -12.45313 h 2.10938 v 12.45313 z m 4.53516,-6.21875 q 0,-3.46875 1.92187,-5.125 1.60938,-1.39063 3.92188,-1.39063 2.5625,0 4.1875,1.6875 1.625,1.6875 1.625,4.64063 0,2.40625 -0.71875,3.78125 -0.71875,1.375 -2.09375,2.14062 -1.375,0.76563 -3,0.76563 -2.625,0 -4.23438,-1.67188 -1.60937,-1.6875 -1.60937,-4.82812 z m 2.17187,0 q 0,2.39062 1.03125,3.57812 1.04688,1.1875 2.64063,1.1875 1.5625,0 2.60937,-1.1875 1.04688,-1.20312 1.04688,-3.65625 0,-2.3125 -1.0625,-3.5 -1.04688,-1.1875 -2.59375,-1.1875 -1.59375,0 -2.64063,1.1875 -1.03125,1.1875 -1.03125,3.57813 z m 11.95703,6.21875 v -12.45313 h 1.90625 v 1.78125 q 1.375,-2.0625 3.95313,-2.0625 1.125,0 2.0625,0.40625 0.95312,0.40625 1.42187,1.0625 0.46875,0.65625 0.65625,1.5625 0.125,0.57813 0.125,2.04688 v 7.65625 h -2.10937 v -7.57813 q 0,-1.28125 -0.25,-1.92187 -0.25,-0.64063 -0.875,-1.01563 -0.625,-0.39062 -1.46875,-0.39062 -1.34375,0 -2.32813,0.85937 -0.98437,0.85938 -0.98437,3.25 v 6.79688 z"
       fill-rule="nonzero"
       id="path19" />
    <path
       fill="#000000"
       fill-opacity="0"
       d="m 469.76642,142.23097 h 362.11023 v 43.2441 H 469.76642 Z"
       fill-rule="evenodd"
       id="path21" />
    <path
       stroke="#999999"
       stroke-width="3"
       stroke-linejoin="round"
       stroke-linecap="butt"
       d="m 469.76642,142.23097 h 362.11023 v 43.2441 H 469.76642 Z"
       fill-rule="evenodd"
       id="path23" />
    <path
       fill="#008000"
       d="m 486.04767,170.57301 v -0.4375 q -0.70313,0.375 -1.5625,0.5625 -0.84375,0.1875 -1.53125,0.1875 -1.5,0 -2.4375,-0.79688 -0.9375,-0.79687 -0.9375,-1.76562 0,-1.17188 1.1875,-2.17188 1.20312,-1.01562 3.3125,-1.01562 0.85937,0 1.96875,0.1875 v -0.45313 q 0,-0.42187 -0.35938,-0.6875 -0.35937,-0.26562 -1.375,-0.26562 -0.82812,0 -2.15625,0.32812 -0.48437,0.125 -0.76562,0.125 -0.35938,0 -0.625,-0.26562 -0.26563,-0.26563 -0.26563,-0.6875 0,-0.23438 0.0937,-0.40625 0.0937,-0.1875 0.25,-0.28125 0.17188,-0.10938 0.6875,-0.25 0.70313,-0.20313 1.42188,-0.3125 0.71875,-0.10938 1.29687,-0.10938 1.73438,0 2.6875,0.75 0.96875,0.75 0.96875,2.04688 v 3.84375 h 0.32813 q 0.67187,0 0.95312,0.26562 0.29688,0.26563 0.29688,0.6875 0,0.40625 -0.29688,0.67188 -0.28125,0.25 -0.95312,0.25 z m 0,-3.34375 q -1.125,-0.21875 -2.07813,-0.21875 -1.125,0 -1.95312,0.5625 -0.51563,0.34375 -0.51563,0.71875 0,0.26562 0.25,0.42187 0.45313,0.29688 1.25,0.29688 0.67188,0 1.51563,-0.26563 0.85937,-0.26562 1.53125,-0.71875 z m 11.52368,-2.73438 q -0.45312,-0.29687 -0.95312,-0.4375 -0.5,-0.14062 -1.04688,-0.14062 -1.07812,0 -1.71875,0.35937 -0.28125,0.15625 -0.28125,0.34375 0,0.20313 0.375,0.40625 0.29688,0.14063 1.3125,0.28125 1.85938,0.25 2.57813,0.51563 0.96875,0.32812 1.48437,1 0.51563,0.65625 0.51563,1.40625 0,1 -0.89063,1.67187 -1.26562,0.96875 -3.28125,0.96875 -0.8125,0 -1.5,-0.14062 -0.6875,-0.14063 -1.26562,-0.40625 -0.125,0.10937 -0.28125,0.17187 -0.15625,0.0625 -0.32813,0.0625 -0.4375,0 -0.70312,-0.28125 -0.25,-0.28125 -0.25,-0.95312 v -0.64063 q 0,-0.67187 0.25,-0.95312 0.26562,-0.29688 0.6875,-0.29688 0.34375,0 0.5625,0.1875 0.23437,0.1875 0.35937,0.64063 0.42188,0.375 1.01563,0.5625 0.60937,0.1875 1.39062,0.1875 1.29688,0 2,-0.40625 0.34375,-0.20313 0.34375,-0.42188 0,-0.35937 -0.48437,-0.59375 -0.48438,-0.23437 -2,-0.40625 -2.25,-0.23437 -3,-0.90625 -0.76563,-0.67187 -0.76563,-1.64062 0,-1 0.85938,-1.67188 1.14062,-0.90625 3,-0.90625 0.64062,0 1.23437,0.125 0.60938,0.125 1.15625,0.375 0.17188,-0.125 0.3125,-0.1875 0.15625,-0.0625 0.28125,-0.0625 0.39063,0 0.64063,0.28125 0.25,0.28125 0.25,0.96875 v 0.45313 q 0,0.60937 -0.14063,0.82812 -0.29687,0.42188 -0.79687,0.42188 -0.32813,0 -0.59375,-0.20313 -0.25,-0.21875 -0.32813,-0.5625 z m 11.19559,0 q -0.45313,-0.29687 -0.95313,-0.4375 -0.5,-0.14062 -1.04687,-0.14062 -1.07813,0 -1.71875,0.35937 -0.28125,0.15625 -0.28125,0.34375 0,0.20313 0.375,0.40625 0.29687,0.14063 1.3125,0.28125 1.85937,0.25 2.57812,0.51563 0.96875,0.32812 1.48438,1 0.51562,0.65625 0.51562,1.40625 0,1 -0.89062,1.67187 -1.26563,0.96875 -3.28125,0.96875 -0.8125,0 -1.5,-0.14062 -0.6875,-0.14063 -1.26563,-0.40625 -0.125,0.10937 -0.28125,0.17187 -0.15625,0.0625 -0.32812,0.0625 -0.4375,0 -0.70313,-0.28125 -0.25,-0.28125 -0.25,-0.95312 v -0.64063 q 0,-0.67187 0.25,-0.95312 0.26563,-0.29688 0.6875,-0.29688 0.34375,0 0.5625,0.1875 0.23438,0.1875 0.35938,0.64063 0.42187,0.375 1.01562,0.5625 0.60938,0.1875 1.39063,0.1875 1.29687,0 2,-0.40625 0.34375,-0.20313 0.34375,-0.42188 0,-0.35937 -0.48438,-0.59375 -0.48437,-0.23437 -2,-0.40625 -2.25,-0.23437 -3,-0.90625 -0.76562,-0.67187 -0.76562,-1.64062 0,-1 0.85937,-1.67188 1.14063,-0.90625 3,-0.90625 0.64063,0 1.23438,0.125 0.60937,0.125 1.15625,0.375 0.17187,-0.125 0.3125,-0.1875 0.15625,-0.0625 0.28125,-0.0625 0.39062,0 0.64062,0.28125 0.25,0.28125 0.25,0.96875 v 0.45313 q 0,0.60937 -0.14062,0.82812 -0.29688,0.42188 -0.79688,0.42188 -0.32812,0 -0.59375,-0.20313 -0.25,-0.21875 -0.32812,-0.5625 z m 9.85184,-5.73437 v 1.96875 h -2.21875 v -1.96875 z m 0.25,3.54687 v 6.39063 h 2.25 q 0.67187,0 0.95312,0.26562 0.29688,0.26563 0.29688,0.6875 0,0.40625 -0.29688,0.67188 -0.28125,0.25 -0.95312,0.25 h -6.35938 q -0.67187,0 -0.95312,-0.25 -0.28125,-0.26563 -0.28125,-0.6875 0,-0.40625 0.28125,-0.67188 0.28125,-0.26562 0.95312,-0.26562 h 2.25 v -4.53125 h -1.5 q -0.67187,0 -0.96875,-0.25 -0.28125,-0.26563 -0.28125,-0.6875 0,-0.40625 0.28125,-0.65625 0.29688,-0.26563 0.96875,-0.26563 z m 12.33618,0.54688 v -0.54688 h 2.1875 q 0.67187,0 0.95312,0.26563 0.29688,0.25 0.29688,0.67187 0,0.40625 -0.29688,0.67188 -0.28125,0.25 -0.95312,0.25 h -0.32813 v 6.79687 q 0,0.98438 -0.42187,1.71875 -0.40625,0.73438 -1.26563,1.26563 -0.84375,0.53125 -1.92187,0.53125 h -2.10938 q -0.6875,0 -0.96875,-0.26563 -0.28125,-0.26562 -0.28125,-0.67187 0,-0.42188 0.28125,-0.6875 0.28125,-0.25 0.96875,-0.25 h 2.04688 q 0.85937,0 1.32812,-0.46875 0.48438,-0.45313 0.48438,-1.17188 v -0.90625 q -0.625,0.39063 -1.26563,0.59375 -0.64062,0.20313 -1.3125,0.20313 -1.90625,0 -3.20312,-1.26563 -1.28125,-1.28125 -1.28125,-3.14062 0,-1.875 1.28125,-3.14063 1.29687,-1.28125 3.20312,-1.28125 0.70313,0 1.34375,0.20313 0.64063,0.20312 1.23438,0.625 z m -0.0156,3.57812 q 0,-1.03125 -0.76562,-1.78125 -0.75,-0.75 -1.8125,-0.75 -1.07813,0 -1.84375,0.75 -0.75,0.75 -0.75,1.78125 0,1.04688 0.75,1.79688 0.76562,0.75 1.84375,0.75 1.0625,0 1.8125,-0.75 0.76562,-0.75 0.76562,-1.79688 z m 7.25806,-4.125 v 0.625 q 0.51562,-0.4375 1.125,-0.65625 0.625,-0.21875 1.34375,-0.21875 1.65625,0 2.625,1.03125 0.76562,0.8125 0.76562,2.14063 v 3.46875 q 0.57813,0 0.85938,0.26562 0.29687,0.26563 0.29687,0.6875 0,0.40625 -0.29687,0.67188 -0.28125,0.25 -0.95313,0.25 h -1.6875 q -0.67187,0 -0.96875,-0.25 -0.28125,-0.26563 -0.28125,-0.6875 0,-0.40625 0.28125,-0.67188 0.28125,-0.26562 0.875,-0.26562 v -3.51563 q 0,-0.60937 -0.32812,-0.89062 -0.42188,-0.375 -1.28125,-0.375 -0.65625,0 -1.14063,0.25 -0.48437,0.25 -1.23437,1.0625 v 3.46875 q 0.71875,0 0.9375,0.14062 0.4375,0.28125 0.4375,0.8125 0,0.40625 -0.28125,0.67188 -0.28125,0.25 -0.96875,0.25 h -2.10938 q -0.6875,0 -0.96875,-0.25 -0.28125,-0.26563 -0.28125,-0.6875 0,-0.51563 0.4375,-0.79688 0.21875,-0.14062 0.9375,-0.14062 v -4.53125 q -0.59375,0 -0.875,-0.26563 -0.28125,-0.26562 -0.28125,-0.67187 0,-0.40625 0.28125,-0.65625 0.28125,-0.26563 0.96875,-0.26563 z"
       fill-rule="nonzero"
       id="path25" />
    <path
       fill="#000000"
       d="m 567.4042,166.57301 q 0,1.78125 -1.28125,3.04687 -1.28125,1.26563 -3.07813,1.26563 -1.8125,0 -3.09375,-1.26563 -1.26562,-1.28125 -1.26562,-3.04687 0,-1.78125 1.26562,-3.04688 1.28125,-1.26562 3.09375,-1.26562 1.79688,0 3.07813,1.26562 1.28125,1.25 1.28125,3.04688 z m -0.79688,0 q 0,-1.46875 -1.04687,-2.5 -1.03125,-1.03125 -2.51563,-1.03125 -1.48437,0 -2.53125,1.04687 -1.04687,1.03125 -1.04687,2.48438 0,1.45312 1.04687,2.5 1.04688,1.03125 2.53125,1.03125 1.48438,0 2.51563,-1.03125 1.04687,-1.04688 1.04687,-2.5 z m 10.51123,4 v -1.14063 q -1.60937,1.45313 -3.45312,1.45313 -1.14063,0 -1.73438,-0.625 -0.78125,-0.8125 -0.78125,-1.90625 v -5.03125 h -1.04687 q -0.28125,0 -0.40625,-0.10938 -0.10938,-0.10937 -0.10938,-0.28125 0,-0.17187 0.10938,-0.28125 0.125,-0.10937 0.40625,-0.10937 h 1.82812 v 5.8125 q 0,0.76562 0.48438,1.26562 0.48437,0.48438 1.20312,0.48438 1.90625,0 3.5,-1.75 v -5.03125 h -1.4375 q -0.28125,0 -0.40625,-0.10938 -0.125,-0.10937 -0.125,-0.28125 0,-0.17187 0.125,-0.28125 0.125,-0.10937 0.40625,-0.10937 h 2.20313 v 7.25 h 0.67187 q 0.26563,0 0.39063,0.10937 0.125,0.10938 0.125,0.28125 0,0.17188 -0.125,0.28125 -0.125,0.10938 -0.39063,0.10938 z m 7.12061,-8.03125 h 4.23438 q 0.28125,0 0.39062,0.10937 0.125,0.10938 0.125,0.28125 0,0.17188 -0.125,0.28125 -0.10937,0.10938 -0.39062,0.10938 h -4.23438 v 5.1875 q 0,0.6875 0.54688,1.14062 0.54687,0.45313 1.59375,0.45313 0.78125,0 1.70312,-0.23438 0.92188,-0.25 1.4375,-0.54687 0.1875,-0.10938 0.29688,-0.10938 0.15625,0 0.26562,0.125 0.10938,0.10938 0.10938,0.26563 0,0.14062 -0.125,0.25 -0.29688,0.3125 -1.4375,0.67187 -1.14063,0.35938 -2.1875,0.35938 -1.375,0 -2.1875,-0.64063 -0.79688,-0.64062 -0.79688,-1.73437 v -5.1875 h -1.4375 q -0.28125,0 -0.40625,-0.10938 -0.10937,-0.10937 -0.10937,-0.28125 0,-0.17187 0.10937,-0.28125 0.125,-0.10937 0.40625,-0.10937 h 1.4375 v -2.29688 q 0,-0.28125 0.10938,-0.40625 0.10937,-0.125 0.28125,-0.125 0.17187,0 0.28125,0.125 0.10937,0.125 0.10937,0.40625 z"
       fill-rule="nonzero"
       id="path27" />
    <path
       fill="#666666"
       d="m 612.9022,164.11989 h -8.5 q -0.28125,0 -0.40625,-0.10938 -0.10938,-0.10937 -0.10938,-0.28125 0,-0.17187 0.10938,-0.28125 0.125,-0.10937 0.40625,-0.10937 h 8.5 q 0.28125,0 0.39062,0.10937 0.125,0.10938 0.125,0.28125 0,0.17188 -0.125,0.28125 -0.10937,0.10938 -0.39062,0.10938 z m 0,2.79687 h -8.5 q -0.28125,0 -0.40625,-0.10937 -0.10938,-0.10938 -0.10938,-0.28125 0,-0.17188 0.10938,-0.28125 0.125,-0.10938 0.40625,-0.10938 h 8.5 q 0.28125,0 0.39062,0.10938 0.125,0.10937 0.125,0.28125 0,0.17187 -0.125,0.28125 -0.10937,0.10937 -0.39062,0.10937 z"
       fill-rule="nonzero"
       id="path29" />
    <path
       fill="#000000"
       d="m 631.84656,158.54176 v 2.01562 h -1.15625 v -2.01562 z m 0.0156,4 v 7.25 h 3.0625 q 0.29688,0 0.40625,0.10937 0.125,0.10938 0.125,0.28125 0,0.17188 -0.125,0.28125 -0.10937,0.10938 -0.40625,0.10938 h -6.90625 q -0.26562,0 -0.39062,-0.10938 -0.125,-0.10937 -0.125,-0.28125 0,-0.17187 0.125,-0.28125 0.125,-0.10937 0.39062,-0.10937 h 3.0625 v -6.46875 h -2.26562 q -0.28125,0 -0.40625,-0.10938 -0.125,-0.10937 -0.125,-0.28125 0,-0.17187 0.125,-0.28125 0.125,-0.10937 0.40625,-0.10937 z m 8.47998,0 v 1.17187 q 0.8125,-0.82812 1.46875,-1.14062 0.65625,-0.3125 1.48438,-0.3125 0.89062,0 1.625,0.375 0.51562,0.28125 0.9375,0.9375 0.42187,0.64062 0.42187,1.3125 v 4.90625 h 0.65625 q 0.28125,0 0.40625,0.10937 0.125,0.10938 0.125,0.28125 0,0.17188 -0.125,0.28125 -0.125,0.10938 -0.40625,0.10938 h -2.07812 q -0.29688,0 -0.42188,-0.10938 -0.10937,-0.10937 -0.10937,-0.28125 0,-0.17187 0.10937,-0.28125 0.125,-0.10937 0.42188,-0.10937 h 0.64062 v -4.78125 q 0,-0.82813 -0.60937,-1.39063 -0.59375,-0.57812 -1.60938,-0.57812 -0.76562,0 -1.32812,0.3125 -0.5625,0.3125 -1.60938,1.54687 v 4.89063 h 0.875 q 0.28125,0 0.39063,0.10937 0.125,0.10938 0.125,0.28125 0,0.17188 -0.125,0.28125 -0.10938,0.10938 -0.39063,0.10938 h -2.54687 q -0.26563,0 -0.39063,-0.10938 -0.125,-0.10937 -0.125,-0.28125 0,-0.17187 0.125,-0.28125 0.125,-0.10937 0.39063,-0.10937 h 0.89062 v -6.46875 h -0.65625 q -0.28125,0 -0.40625,-0.10938 -0.125,-0.10937 -0.125,-0.28125 0,-0.17187 0.125,-0.28125 0.125,-0.10937 0.40625,-0.10937 z"
       fill-rule="nonzero"
       id="path31" />
    <path
       fill="#434343"
       d="m 666.0834,165.80739 v 0.78125 q 0,0.28125 -0.10938,0.40625 -0.10937,0.125 -0.28125,0.125 -0.17187,0 -0.29687,-0.125 -0.10938,-0.125 -0.10938,-0.40625 v -1.29688 q 2.03125,-0.76562 2.78125,-1.51562 0.42188,-0.40625 0.42188,-1.04688 0,-1.03125 -0.76563,-1.76562 -0.75,-0.75 -1.95312,-0.75 -0.60938,0 -1.15625,0.14062 -0.54688,0.14063 -1.32813,0.53125 v 0.79688 q 0,0.26562 -0.10937,0.39062 -0.0937,0.125 -0.28125,0.125 -0.15625,0 -0.28125,-0.125 -0.10938,-0.125 -0.10938,-0.39062 v -1.3125 q 1.45313,-0.64063 1.875,-0.75 0.73438,-0.1875 1.45313,-0.1875 1.54687,0 2.48437,0.9375 0.95313,0.92187 0.95313,2.34375 0,0.875 -0.5625,1.54687 -0.5625,0.67188 -2.625,1.54688 z m -0.79688,3.10937 h 0.78125 q 0.40625,0 0.6875,0.29688 0.28125,0.28125 0.28125,0.67187 0,0.40625 -0.29687,0.6875 -0.28125,0.28125 -0.67188,0.28125 h -0.78125 q -0.40625,0 -0.6875,-0.28125 -0.28125,-0.28125 -0.28125,-0.67187 0,-0.42188 0.28125,-0.70313 0.29688,-0.28125 0.6875,-0.28125 z m 19.81934,0.875 h 5.98438 v -0.29687 q 0,-0.28125 0.10937,-0.40625 0.10938,-0.125 0.29688,-0.125 0.15625,0 0.26562,0.125 0.125,0.125 0.125,0.40625 v 1.07812 h -7.53125 v -1.15625 q 2.375,-2.125 4.60938,-4.34375 1.04687,-1.01562 1.4375,-1.5 0.39062,-0.48437 0.53125,-0.84375 0.15625,-0.375 0.15625,-0.75 0,-1 -0.8125,-1.76562 -0.8125,-0.78125 -1.95313,-0.78125 -1.01562,0 -1.8125,0.59375 -0.78125,0.57812 -1.01562,1.45312 -0.0469,0.21875 -0.14063,0.28125 -0.10937,0.0937 -0.25,0.0937 -0.15625,0 -0.26562,-0.10937 -0.10938,-0.10938 -0.10938,-0.25 0,-0.45313 0.48438,-1.20313 0.48437,-0.76562 1.34375,-1.20312 0.85937,-0.4375 1.76562,-0.4375 1.45313,0 2.5,1.01562 1.04688,1 1.04688,2.28125 0,0.54688 -0.17188,1 -0.17187,0.4375 -0.60937,0.98438 -0.42188,0.53125 -1.51563,1.60937 -2.73437,2.70313 -4.46875,4.20313 z m 13.52686,-10.85937 h 2.46875 l -0.65625,4.875 q -0.0625,0.375 -0.21875,0.53125 -0.14063,0.15625 -0.35938,0.15625 -0.23437,0 -0.39062,-0.15625 -0.14063,-0.15625 -0.20313,-0.53125 z m 10.07373,0 v 4.79687 q 0.73437,-0.8125 1.40625,-1.14062 0.6875,-0.32813 1.54687,-0.32813 0.90625,0 1.53125,0.32813 0.64063,0.3125 1.0625,0.98437 0.4375,0.65625 0.4375,1.39063 v 4.82812 h 0.85938 q 0.29687,0 0.40625,0.10938 0.125,0.10937 0.125,0.28125 0,0.17187 -0.125,0.28125 -0.10938,0.10937 -0.40625,0.10937 h -2.53125 q -0.28125,0 -0.40625,-0.10937 -0.10938,-0.10938 -0.10938,-0.28125 0,-0.17188 0.10938,-0.28125 0.125,-0.10938 0.40625,-0.10938 h 0.875 v -4.78125 q 0,-0.84375 -0.60938,-1.40625 -0.60937,-0.5625 -1.6875,-0.5625 -0.85937,0 -1.45312,0.42188 -0.4375,0.29687 -1.4375,1.39062 v 4.9375 h 0.875 q 0.28125,0 0.39062,0.10938 0.125,0.10937 0.125,0.28125 0,0.17187 -0.125,0.28125 -0.10937,0.10937 -0.39062,0.10937 h -2.54688 q -0.26562,0 -0.39062,-0.10937 -0.125,-0.10938 -0.125,-0.28125 0,-0.17188 0.125,-0.28125 0.125,-0.10938 0.39062,-0.10938 h 0.89063 v -10.07812 h -1.04688 q -0.28125,0 -0.40625,-0.10938 -0.125,-0.10937 -0.125,-0.28125 0,-0.17187 0.125,-0.28125 0.125,-0.10937 0.40625,-0.10937 z m 14.35498,-0.15625 v 11.01562 h 2.67187 q 0.26563,0 0.39063,0.10938 0.125,0.10937 0.125,0.28125 0,0.17187 -0.125,0.28125 -0.125,0.10937 -0.39063,0.10937 h -6.125 q -0.28125,0 -0.40625,-0.10937 -0.125,-0.10938 -0.125,-0.28125 0,-0.17188 0.125,-0.28125 0.125,-0.10938 0.40625,-0.10938 h 2.67188 v -9.9375 l -2.54688,0.79688 q -0.1875,0.0469 -0.26562,0.0469 -0.14063,0 -0.26563,-0.10937 -0.10937,-0.125 -0.10937,-0.28125 0,-0.14063 0.0937,-0.25 0.0781,-0.0781 0.3125,-0.15625 z"
       fill-rule="nonzero"
       id="path33" />
    <path
       fill="#434343"
       d="m 745.3026,162.54176 h 0.34375 q 0.51562,0 0.89062,0.375 0.375,0.35937 0.375,0.875 0,0.54687 -0.375,0.90625 -0.375,0.35937 -0.89062,0.35937 h -0.34375 q -0.51563,0 -0.89063,-0.35937 -0.35937,-0.375 -0.35937,-0.89063 0,-0.54687 0.375,-0.90625 0.375,-0.35937 0.875,-0.35937 z m 0,5.79687 h 0.34375 q 0.51562,0 0.89062,0.375 0.375,0.35938 0.375,0.875 0,0.53125 -0.375,0.90625 -0.375,0.35938 -0.89062,0.35938 h -0.34375 q -0.51563,0 -0.89063,-0.35938 -0.35937,-0.375 -0.35937,-0.89062 0,-0.54688 0.375,-0.90625 0.375,-0.35938 0.875,-0.35938 z m 19.61621,1.45313 h 5.98437 v -0.29688 q 0,-0.28125 0.10938,-0.40625 0.10937,-0.125 0.29687,-0.125 0.15625,0 0.26563,0.125 0.125,0.125 0.125,0.40625 v 1.07813 h -7.53125 v -1.15625 q 2.375,-2.125 4.60937,-4.34375 1.04688,-1.01563 1.4375,-1.5 0.39063,-0.48438 0.53125,-0.84375 0.15625,-0.375 0.15625,-0.75 0,-1 -0.8125,-1.76563 -0.8125,-0.78125 -1.95312,-0.78125 -1.01563,0 -1.8125,0.59375 -0.78125,0.57813 -1.01563,1.45313 -0.0469,0.21875 -0.14062,0.28125 -0.10938,0.0937 -0.25,0.0937 -0.15625,0 -0.26563,-0.10938 -0.10937,-0.10937 -0.10937,-0.25 0,-0.45312 0.48437,-1.20312 0.48438,-0.76563 1.34375,-1.20313 0.85938,-0.4375 1.76563,-0.4375 1.45312,0 2.5,1.01563 1.04687,1 1.04687,2.28125 0,0.54687 -0.17187,1 -0.17188,0.4375 -0.60938,0.98437 -0.42187,0.53125 -1.51562,1.60938 -2.73438,2.70312 -4.46875,4.20312 z m 13.52685,-10.85938 h 2.46875 l -0.65625,4.875 q -0.0625,0.375 -0.21875,0.53125 -0.14062,0.15625 -0.35937,0.15625 -0.23438,0 -0.39063,-0.15625 -0.14062,-0.15625 -0.20312,-0.53125 z m 10.07373,0 v 4.79688 q 0.73438,-0.8125 1.40625,-1.14063 0.6875,-0.32812 1.54688,-0.32812 0.90625,0 1.53125,0.32812 0.64062,0.3125 1.0625,0.98438 0.4375,0.65625 0.4375,1.39062 v 4.82813 h 0.85937 q 0.29688,0 0.40625,0.10937 0.125,0.10938 0.125,0.28125 0,0.17188 -0.125,0.28125 -0.10937,0.10938 -0.40625,0.10938 h -2.53125 q -0.28125,0 -0.40625,-0.10938 -0.10937,-0.10937 -0.10937,-0.28125 0,-0.17187 0.10937,-0.28125 0.125,-0.10937 0.40625,-0.10937 h 0.875 v -4.78125 q 0,-0.84375 -0.60937,-1.40625 -0.60938,-0.5625 -1.6875,-0.5625 -0.85938,0 -1.45313,0.42187 -0.4375,0.29688 -1.4375,1.39063 v 4.9375 h 0.875 q 0.28125,0 0.39063,0.10937 0.125,0.10938 0.125,0.28125 0,0.17188 -0.125,0.28125 -0.10938,0.10938 -0.39063,0.10938 h -2.54687 q -0.26563,0 -0.39063,-0.10938 -0.125,-0.10937 -0.125,-0.28125 0,-0.17187 0.125,-0.28125 0.125,-0.10937 0.39063,-0.10937 h 0.89062 v -10.07813 h -1.04687 q -0.28125,0 -0.40625,-0.10937 -0.125,-0.10938 -0.125,-0.28125 0,-0.17188 0.125,-0.28125 0.125,-0.10938 0.40625,-0.10938 z m 10.60498,10.85938 h 5.98438 v -0.29688 q 0,-0.28125 0.10937,-0.40625 0.10938,-0.125 0.29688,-0.125 0.15625,0 0.26562,0.125 0.125,0.125 0.125,0.40625 v 1.07813 h -7.53125 v -1.15625 q 2.375,-2.125 4.60938,-4.34375 1.04687,-1.01563 1.4375,-1.5 0.39062,-0.48438 0.53125,-0.84375 0.15625,-0.375 0.15625,-0.75 0,-1 -0.8125,-1.76563 -0.8125,-0.78125 -1.95313,-0.78125 -1.01562,0 -1.8125,0.59375 -0.78125,0.57813 -1.01562,1.45313 -0.0469,0.21875 -0.14063,0.28125 -0.10937,0.0937 -0.25,0.0937 -0.15625,0 -0.26562,-0.10938 -0.10938,-0.10937 -0.10938,-0.25 0,-0.45312 0.48438,-1.20312 0.48437,-0.76563 1.34375,-1.20313 0.85937,-0.4375 1.76562,-0.4375 1.45313,0 2.5,1.01563 1.04688,1 1.04688,2.28125 0,0.54687 -0.17188,1 -0.17187,0.4375 -0.60937,0.98437 -0.42188,0.53125 -1.51563,1.60938 -2.73437,2.70312 -4.46875,4.20312 z"
       fill-rule="nonzero"
       id="path35" />
    <path
       fill="#000000"
       d="m 813.71375,162.54176 h 0.34375 q 0.51562,0 0.875,0.375 0.375,0.35937 0.375,0.875 0,0.54687 -0.375,0.90625 -0.35938,0.35937 -0.875,0.35937 h -0.34375 q -0.51563,0 -0.89063,-0.35937 -0.35937,-0.375 -0.35937,-0.89063 0,-0.54687 0.375,-0.90625 0.375,-0.35937 0.875,-0.35937 z m -1.35938,5.23437 h 2.45313 l -2.625,4.29688 q -0.20313,0.3125 -0.3125,0.39062 -0.10938,0.0937 -0.26563,0.0937 -0.23437,0 -0.39062,-0.14062 -0.14063,-0.14063 -0.14063,-0.32813 0,-0.10937 0.0625,-0.29687 z"
       fill-rule="nonzero"
       id="path37" />
    <path
       fill="#000000"
       fill-opacity="0"
       d="m 819.58435,154.75514 v 0 21.52344 0 z"
       fill-rule="nonzero"
       id="path39" />
    <path
       fill="#000000"
       fill-opacity="0"
       d="M 34.060368,142.23097 H 267.16273 V 274.73489 H 34.060368 Z"
       fill-rule="evenodd"
       id="path41" />
    <path
       stroke="#999999"
       stroke-width="3"
       stroke-linejoin="round"
       stroke-linecap="butt"
       d="M 34.060368,142.23097 H 267.16273 V 274.73489 H 34.060368 Z"
       fill-rule="evenodd"
       id="path43" />
    <path
       fill="#ffffff"
       d="M 43.060368,152.48294 H 201.65493 v 22.40001 H 43.060368 Z"
       fill-rule="nonzero"
       id="path45" />
    <path
       fill="#000000"
       fill-opacity="0"
       d="m 43.060368,154.58507 h 34.205563 v 21.52344 H 43.060368 Z"
       fill-rule="nonzero"
       id="path47" />
    <path
       fill="#000000"
       d="m 49.154118,158.60606 v 11.01563 h 2.671875 q 0.265625,0 0.390625,0.10937 0.125,0.10938 0.125,0.28125 0,0.17188 -0.125,0.28125 -0.125,0.10938 -0.390625,0.10938 h -6.125 q -0.28125,0 -0.40625,-0.10938 -0.125,-0.10937 -0.125,-0.28125 0,-0.17187 0.125,-0.28125 0.125,-0.10937 0.40625,-0.10937 h 2.671875 v -9.9375 l -2.546875,0.79687 q -0.1875,0.0469 -0.265625,0.0469 -0.140625,0 -0.265625,-0.10938 -0.109375,-0.125 -0.109375,-0.28125 0,-0.14062 0.09375,-0.25 0.07813,-0.0781 0.3125,-0.15625 z m 14.589355,5.01563 v 1.92187 q 0,2.51563 -1.203125,3.98438 -0.9375,1.15625 -2.359375,1.15625 -0.6875,0 -1.296875,-0.28125 -0.609375,-0.26563 -1.03125,-0.76563 -0.265625,-0.29687 -0.59375,-0.96875 -0.3125,-0.6875 -0.453125,-1.25 -0.21875,-0.79687 -0.21875,-1.875 v -1.92187 q 0,-2.53125 1.203125,-3.98438 0.9375,-1.15625 2.359375,-1.15625 0.703125,0 1.296875,0.28125 0.609375,0.26563 1.03125,0.76563 0.28125,0.3125 0.59375,0.98437 0.3125,0.67188 0.46875,1.23438 0.203125,0.79687 0.203125,1.875 z m -0.78125,0.0937 q 0,-1.09375 -0.3125,-2.04688 -0.3125,-0.95312 -0.703125,-1.51562 -0.234375,-0.32813 -0.59375,-0.5625 -0.53125,-0.32813 -1.1875,-0.32813 -1.3125,0 -2.0625,1.34375 -0.734375,1.32813 -0.734375,3.10938 v 1.71875 q 0,1.10937 0.3125,2.0625 0.3125,0.95312 0.703125,1.53125 0.21875,0.3125 0.59375,0.54687 0.53125,0.32813 1.203125,0.32813 1.296875,0 2.03125,-1.34375 0.75,-1.34375 0.75,-3.125 z"
       fill-rule="nonzero"
       id="path49" />
    <path
       fill="#010000"
       fill-opacity="0"
       d="m 77.26593,154.87125 h 55.97786 v 21.13403 H 77.26593 Z"
       fill-rule="nonzero"
       id="path51" />
    <path
       fill="#008000"
       d="m 94.07088,166.96544 -1.296875,3.4375 h -1.75 l -1.5625,-6.40625 q -0.515625,-0.0312 -0.78125,-0.28125 -0.25,-0.26563 -0.25,-0.65625 0,-0.40625 0.28125,-0.65625 0.28125,-0.26563 0.96875,-0.26563 h 1.734375 q 0.671875,0 0.953125,0.26563 0.296875,0.25 0.296875,0.67187 0,0.40625 -0.328125,0.70313 -0.25,0.21875 -0.96875,0.21875 l 0.703125,2.96875 1.15625,-3.04688 h 1.671875 l 1.15625,3.04688 0.734375,-2.96875 q -0.6875,0 -0.90625,-0.14063 -0.4375,-0.28125 -0.4375,-0.79687 0,-0.40625 0.28125,-0.65625 0.28125,-0.26563 0.953125,-0.26563 h 1.765625 q 0.671875,0 0.953125,0.26563 0.296875,0.25 0.296875,0.67187 0,0.375 -0.25,0.64063 -0.25,0.25 -0.75,0.28125 l -1.53125,6.40625 h -1.71875 z m 9.25807,-8.375 v 3.98437 q 0.57813,-0.35937 1.17188,-0.51562 0.60937,-0.17188 1.21875,-0.17188 0.95312,0 1.70312,0.32813 0.76563,0.32812 1.26563,1.03125 0.5,0.70312 0.5,1.78125 v 3.5 q 0.70312,0 0.92187,0.14062 0.4375,0.28125 0.4375,0.8125 0,0.40625 -0.28125,0.67188 -0.28125,0.25 -0.95312,0.25 h -2.125 q -0.67188,0 -0.96875,-0.25 -0.28125,-0.26563 -0.28125,-0.6875 0,-0.51563 0.4375,-0.79688 0.23437,-0.14062 0.9375,-0.14062 v -3.375 q 0,-0.71875 -0.32813,-1.01563 -0.4375,-0.39062 -1.26562,-0.39062 -0.625,0 -1.10938,0.25 -0.46875,0.23437 -1.28125,1.04687 v 3.48438 q 0.71875,0 0.92188,0.14062 0.45312,0.28125 0.45312,0.8125 0,0.40625 -0.29687,0.67188 -0.28125,0.25 -0.95313,0.25 h -2.125 q -0.67187,0 -0.96875,-0.25 -0.28125,-0.26563 -0.28125,-0.6875 0,-0.51563 0.45313,-0.79688 0.21875,-0.14062 0.92187,-0.14062 v -8.07813 h -0.3125 q -0.67187,0 -0.96875,-0.25 -0.281248,-0.26562 -0.281248,-0.6875 0,-0.40625 0.281248,-0.65625 0.29688,-0.26562 0.96875,-0.26562 z m 17.80495,8.625 h -7.65625 q 0.29687,0.73437 1.03125,1.1875 0.75,0.4375 2.01562,0.4375 1.03125,0 2.75,-0.45313 0.71875,-0.1875 0.98438,-0.1875 0.375,0 0.625,0.26563 0.26562,0.26562 0.26562,0.67187 0,0.35938 -0.28125,0.625 -0.35937,0.32813 -1.78125,0.64063 -1.40625,0.29687 -2.70312,0.29687 -2.25,0 -3.59375,-1.26562 -1.34375,-1.26563 -1.34375,-3.10938 0,-1.96875 1.45312,-3.20312 1.45313,-1.23438 3.35938,-1.23438 1.14062,0 2.07812,0.40625 0.95313,0.39063 1.42188,0.85938 0.65625,0.67187 1.09375,1.67187 0.28125,0.6875 0.28125,1.59375 z m -2.0625,-1.875 q -0.4375,-0.79688 -1.125,-1.1875 -0.6875,-0.40625 -1.64063,-0.40625 -0.95312,0 -1.65625,0.40625 -0.6875,0.39062 -1.125,1.1875 z m 6.67995,-3.20313 v 0.625 q 0.51562,-0.4375 1.125,-0.65625 0.625,-0.21875 1.34375,-0.21875 1.65625,0 2.625,1.03125 0.76562,0.8125 0.76562,2.14063 v 3.46875 q 0.57813,0 0.85938,0.26562 0.29687,0.26563 0.29687,0.6875 0,0.40625 -0.29687,0.67188 -0.28125,0.25 -0.95313,0.25 h -1.6875 q -0.67187,0 -0.96875,-0.25 -0.28125,-0.26563 -0.28125,-0.6875 0,-0.40625 0.28125,-0.67188 0.28125,-0.26562 0.875,-0.26562 v -3.51563 q 0,-0.60937 -0.32812,-0.89062 -0.42188,-0.375 -1.28125,-0.375 -0.65625,0 -1.14063,0.25 -0.48437,0.25 -1.23437,1.0625 v 3.46875 q 0.71875,0 0.9375,0.14062 0.4375,0.28125 0.4375,0.8125 0,0.40625 -0.28125,0.67188 -0.28125,0.25 -0.96875,0.25 h -2.10938 q -0.6875,0 -0.96875,-0.25 -0.28125,-0.26563 -0.28125,-0.6875 0,-0.51563 0.4375,-0.79688 0.21875,-0.14062 0.9375,-0.14062 v -4.53125 q -0.59375,0 -0.875,-0.26563 -0.28125,-0.26562 -0.28125,-0.67187 0,-0.40625 0.28125,-0.65625 0.28125,-0.26563 0.96875,-0.26563 z"
       fill-rule="nonzero"
       id="path53" />
    <path
       fill="#000000"
       fill-opacity="0"
       d="m 133.24379,154.58507 h 11.40185 v 21.52344 h -11.40185 z"
       fill-rule="nonzero"
       id="path55" />
    <path
       fill="#080808"
       d="m 138.85316,165.77794 q 0,-1.0625 0.28125,-2.25 0.28125,-1.20313 1.0625,-2.76563 0.79687,-1.57812 1.15625,-1.90625 0.10937,-0.0937 0.23437,-0.0937 0.17188,0 0.28125,0.10938 0.125,0.10937 0.125,0.26562 0,0.0937 -0.0625,0.20313 -1.03125,1.875 -1.46875,3.40625 -0.42187,1.51562 -0.42187,3.03125 0,1.53125 0.42187,3.0625 0.4375,1.51562 1.46875,3.375 0.0625,0.125 0.0625,0.20312 0,0.17188 -0.125,0.28125 -0.10937,0.10938 -0.28125,0.10938 -0.125,0 -0.23437,-0.0937 -0.34375,-0.3125 -1.125,-1.84375 -0.78125,-1.53125 -1.07813,-2.70313 -0.29687,-1.1875 -0.29687,-2.39062 z"
       fill-rule="nonzero"
       id="path57" />
    <path
       fill="#010000"
       fill-opacity="0"
       d="m 144.64565,154.58507 h 22.80371 v 21.52344 h -22.80371 z"
       fill-rule="nonzero"
       id="path59" />
    <path
       fill="#000000"
       d="m 150.7394,158.37169 v 2.01562 h -1.15625 v -2.01562 z m 0.0156,4 v 7.25 h 3.0625 q 0.29688,0 0.40625,0.10937 0.125,0.10938 0.125,0.28125 0,0.17188 -0.125,0.28125 -0.10937,0.10938 -0.40625,0.10938 h -6.90625 q -0.26562,0 -0.39062,-0.10938 -0.125,-0.10937 -0.125,-0.28125 0,-0.17187 0.125,-0.28125 0.125,-0.10937 0.39062,-0.10937 h 3.0625 v -6.46875 h -2.26562 q -0.28125,0 -0.40625,-0.10938 -0.125,-0.10937 -0.125,-0.28125 0,-0.17187 0.125,-0.28125 0.125,-0.10937 0.40625,-0.10937 z m 8.47998,0 v 1.17187 q 0.8125,-0.82812 1.46875,-1.14062 0.65625,-0.3125 1.48438,-0.3125 0.89062,0 1.625,0.375 0.51562,0.28125 0.9375,0.9375 0.42187,0.64062 0.42187,1.3125 v 4.90625 h 0.65625 q 0.28125,0 0.40625,0.10937 0.125,0.10938 0.125,0.28125 0,0.17188 -0.125,0.28125 -0.125,0.10938 -0.40625,0.10938 h -2.07812 q -0.29688,0 -0.42188,-0.10938 -0.10937,-0.10937 -0.10937,-0.28125 0,-0.17187 0.10937,-0.28125 0.125,-0.10937 0.42188,-0.10937 h 0.64062 v -4.78125 q 0,-0.82813 -0.60937,-1.39063 -0.59375,-0.57812 -1.60938,-0.57812 -0.76562,0 -1.32812,0.3125 -0.5625,0.3125 -1.60938,1.54687 v 4.89063 h 0.875 q 0.28125,0 0.39063,0.10937 0.125,0.10938 0.125,0.28125 0,0.17188 -0.125,0.28125 -0.10938,0.10938 -0.39063,0.10938 h -2.54687 q -0.26563,0 -0.39063,-0.10938 -0.125,-0.10937 -0.125,-0.28125 0,-0.17187 0.125,-0.28125 0.125,-0.10937 0.39063,-0.10937 h 0.89062 v -6.46875 h -0.65625 q -0.28125,0 -0.40625,-0.10938 -0.125,-0.10937 -0.125,-0.28125 0,-0.17187 0.125,-0.28125 0.125,-0.10937 0.40625,-0.10937 z"
       fill-rule="nonzero"
       id="path61" />
    <path
       fill="#000000"
       fill-opacity="0"
       d="m 167.44936,154.58507 h 34.20557 v 21.52344 h -34.20557 z"
       fill-rule="nonzero"
       id="path63" />
    <path
       fill="#080808"
       d="m 173.37123,165.79356 q 0,1.0625 -0.28125,2.26563 -0.26563,1.1875 -1.0625,2.75 -0.78125,1.57812 -1.14063,1.89062 -0.10937,0.10938 -0.25,0.10938 -0.15625,0 -0.28125,-0.10938 -0.10937,-0.10937 -0.10937,-0.28125 0,-0.0781 0.0625,-0.20312 1.01562,-1.85938 1.45312,-3.375 0.4375,-1.53125 0.4375,-3.04688 0,-1.53125 -0.4375,-3.04687 -0.4375,-1.53125 -1.45312,-3.40625 -0.0625,-0.10938 -0.0625,-0.20313 0,-0.15625 0.10937,-0.26562 0.125,-0.10938 0.28125,-0.10938 0.14063,0 0.25,0.0937 0.34375,0.32813 1.10938,1.85938 0.78125,1.51562 1.07812,2.70312 0.29688,1.17188 0.29688,2.375 z m 22.13184,-0.0156 q 0.46875,0.35937 0.625,0.67187 0.21875,0.42188 0.21875,1 v 3.32813 q 0,0.53125 0.29687,0.85937 0.3125,0.34375 0.76563,0.39063 0.29687,0.0312 0.39062,0.10937 0.10938,0.10938 0.10938,0.28125 0,0.17188 -0.125,0.28125 -0.10938,0.10938 -0.34375,0.10938 -0.73438,0 -1.21875,-0.46875 -0.65625,-0.64063 -0.65625,-1.5625 v -3.32813 q 0,-0.51562 -0.3125,-0.85937 -0.3125,-0.35938 -0.78125,-0.39063 -0.25,-0.0312 -0.35938,-0.125 -0.10937,-0.10937 -0.10937,-0.29687 0,-0.17188 0.10937,-0.26563 0.10938,-0.10937 0.35938,-0.14062 0.48437,-0.0312 0.78125,-0.375 0.3125,-0.35938 0.3125,-0.85938 v -3.34375 q 0,-0.875 0.54687,-1.45312 0.5625,-0.57813 1.34375,-0.57813 0.21875,0 0.32813,0.10938 0.125,0.10937 0.125,0.28125 0,0.15625 -0.10938,0.28125 -0.0937,0.0937 -0.39062,0.10937 -0.45313,0.0469 -0.76563,0.39063 -0.29687,0.34375 -0.29687,0.85937 v 3.34375 q 0,0.57813 -0.1875,0.9375 -0.1875,0.35938 -0.65625,0.70313 z"
       fill-rule="nonzero"
       id="path65" />
    <path
       fill="#000000"
       fill-opacity="0"
       d="m 201.65492,154.58507 v 0 21.52344 0 z"
       fill-rule="nonzero"
       id="path67" />
    <path
       fill="#fff2cc"
       d="m 43.060368,174.88295 h 22.803707 v 22.39999 H 43.060368 Z"
       fill-rule="nonzero"
       id="path69" />
    <path
       fill="#ffffff"
       d="M 65.864075,174.88295 H 214.08819 v 22.39999 H 65.864075 Z"
       fill-rule="nonzero"
       id="path71" />
    <path
       fill="#000000"
       fill-opacity="0"
       d="m 43.060368,176.98508 h 22.803707 v 21.52344 H 43.060368 Z"
       fill-rule="nonzero"
       id="path73" />
    <path
       fill="#080808"
       d="m 49.154118,181.00607 v 11.01562 h 2.671875 q 0.265625,0 0.390625,0.10938 0.125,0.10937 0.125,0.28125 0,0.17187 -0.125,0.28125 -0.125,0.10937 -0.390625,0.10937 h -6.125 q -0.28125,0 -0.40625,-0.10937 -0.125,-0.10938 -0.125,-0.28125 0,-0.17188 0.125,-0.28125 0.125,-0.10938 0.40625,-0.10938 h 2.671875 v -9.9375 l -2.546875,0.79688 q -0.1875,0.0469 -0.265625,0.0469 -0.140625,0 -0.265625,-0.10937 -0.109375,-0.125 -0.109375,-0.28125 0,-0.14063 0.09375,-0.25 0.07813,-0.0781 0.3125,-0.15625 z m 11.401855,0 v 11.01562 h 2.671875 q 0.265625,0 0.390625,0.10938 0.125,0.10937 0.125,0.28125 0,0.17187 -0.125,0.28125 -0.125,0.10937 -0.390625,0.10937 h -6.125 q -0.28125,0 -0.40625,-0.10937 -0.125,-0.10938 -0.125,-0.28125 0,-0.17188 0.125,-0.28125 0.125,-0.10938 0.40625,-0.10938 h 2.671875 v -9.9375 l -2.546875,0.79688 q -0.1875,0.0469 -0.265625,0.0469 -0.140625,0 -0.265625,-0.10937 -0.109375,-0.125 -0.109375,-0.28125 0,-0.14063 0.09375,-0.25 0.07813,-0.0781 0.3125,-0.15625 z"
       fill-rule="nonzero"
       id="path75" />
    <path
       fill="#010000"
       fill-opacity="0"
       d="m 65.864075,176.98508 h 34.205565 v 21.52344 H 65.864075 Z"
       fill-rule="nonzero"
       id="path77" />
    <path
       fill="#000000"
       fill-opacity="0"
       d="m 100.06964,176.98508 h 34.20557 v 21.52344 h -34.20557 z"
       fill-rule="nonzero"
       id="path79" />
    <path
       fill="#000000"
       d="m 110.13214,188.80295 q 0,1.78125 -1.28125,3.04687 -1.28125,1.26563 -3.07812,1.26563 -1.8125,0 -3.09375,-1.26563 -1.26563,-1.28125 -1.26563,-3.04687 0,-1.78125 1.26563,-3.04688 1.28125,-1.26562 3.09375,-1.26562 1.79687,0 3.07812,1.26562 1.28125,1.25 1.28125,3.04688 z m -0.79687,0 q 0,-1.46875 -1.04688,-2.5 -1.03125,-1.03125 -2.51562,-1.03125 -1.48438,0 -2.53125,1.04687 -1.04688,1.03125 -1.04688,2.48438 0,1.45312 1.04688,2.5 1.04687,1.03125 2.53125,1.03125 1.48437,0 2.51562,-1.03125 1.04688,-1.04688 1.04688,-2.5 z m 10.51123,4 v -1.14063 q -1.60938,1.45313 -3.45313,1.45313 -1.14062,0 -1.73437,-0.625 -0.78125,-0.8125 -0.78125,-1.90625 v -5.03125 h -1.04688 q -0.28125,0 -0.40625,-0.10938 -0.10937,-0.10937 -0.10937,-0.28125 0,-0.17187 0.10937,-0.28125 0.125,-0.10937 0.40625,-0.10937 h 1.82813 v 5.8125 q 0,0.76562 0.48437,1.26562 0.48438,0.48438 1.20313,0.48438 1.90625,0 3.5,-1.75 v -5.03125 h -1.4375 q -0.28125,0 -0.40625,-0.10938 -0.125,-0.10937 -0.125,-0.28125 0,-0.17187 0.125,-0.28125 0.125,-0.10937 0.40625,-0.10937 h 2.20312 v 7.25 h 0.67188 q 0.26562,0 0.39062,0.10937 0.125,0.10938 0.125,0.28125 0,0.17188 -0.125,0.28125 -0.125,0.10938 -0.39062,0.10938 z m 7.1206,-8.03125 h 4.23438 q 0.28125,0 0.39062,0.10937 0.125,0.10938 0.125,0.28125 0,0.17188 -0.125,0.28125 -0.10937,0.10938 -0.39062,0.10938 h -4.23438 v 5.1875 q 0,0.6875 0.54688,1.14062 0.54687,0.45313 1.59375,0.45313 0.78125,0 1.70312,-0.23438 0.92188,-0.25 1.4375,-0.54687 0.1875,-0.10938 0.29688,-0.10938 0.15625,0 0.26562,0.125 0.10938,0.10938 0.10938,0.26563 0,0.14062 -0.125,0.25 -0.29688,0.3125 -1.4375,0.67187 -1.14063,0.35938 -2.1875,0.35938 -1.375,0 -2.1875,-0.64063 -0.79688,-0.64062 -0.79688,-1.73437 v -5.1875 h -1.4375 q -0.28125,0 -0.40625,-0.10938 -0.10937,-0.10937 -0.10937,-0.28125 0,-0.17187 0.10937,-0.28125 0.125,-0.10937 0.40625,-0.10937 h 1.4375 v -2.29688 q 0,-0.28125 0.10938,-0.40625 0.10937,-0.125 0.28125,-0.125 0.17187,0 0.28125,0.125 0.10937,0.125 0.10937,0.40625 z"
       fill-rule="nonzero"
       id="path81" />
    <path
       fill="#010000"
       fill-opacity="0"
       d="m 134.2752,176.98508 h 11.40186 v 21.52344 H 134.2752 Z"
       fill-rule="nonzero"
       id="path83" />
    <path
       fill="#000000"
       fill-opacity="0"
       d="m 145.67706,176.98508 h 68.41113 v 21.52344 h -68.41113 z"
       fill-rule="nonzero"
       id="path85" />
    <path
       fill="#434343"
       d="m 151.20831,184.7717 h 0.34375 q 0.51562,0 0.89062,0.375 0.375,0.35937 0.375,0.875 0,0.54687 -0.375,0.90625 -0.375,0.35937 -0.89062,0.35937 h -0.34375 q -0.51563,0 -0.89063,-0.35937 -0.35937,-0.375 -0.35937,-0.89063 0,-0.54687 0.375,-0.90625 0.375,-0.35937 0.875,-0.35937 z m 0,5.79687 h 0.34375 q 0.51562,0 0.89062,0.375 0.375,0.35938 0.375,0.875 0,0.53125 -0.375,0.90625 -0.375,0.35938 -0.89062,0.35938 h -0.34375 q -0.51563,0 -0.89063,-0.35938 -0.35937,-0.375 -0.35937,-0.89062 0,-0.54688 0.375,-0.90625 0.375,-0.35938 0.875,-0.35938 z m 15.82373,-4.21875 h -8.5 q -0.28125,0 -0.40625,-0.10937 -0.10937,-0.10938 -0.10937,-0.28125 0,-0.17188 0.10937,-0.28125 0.125,-0.10938 0.40625,-0.10938 h 8.5 q 0.28125,0 0.39063,0.10938 0.125,0.10937 0.125,0.28125 0,0.17187 -0.125,0.28125 -0.10938,0.10937 -0.39063,0.10937 z m 0,2.79688 h -8.5 q -0.28125,0 -0.40625,-0.10938 -0.10937,-0.10937 -0.10937,-0.28125 0,-0.17187 0.10937,-0.28125 0.125,-0.10937 0.40625,-0.10937 h 8.5 q 0.28125,0 0.39063,0.10937 0.125,0.10938 0.125,0.28125 0,0.17188 -0.125,0.28125 -0.10938,0.10938 -0.39063,0.10938 z m 18.94434,-8.14063 v 11.01563 h 2.67187 q 0.26563,0 0.39063,0.10937 0.125,0.10938 0.125,0.28125 0,0.17188 -0.125,0.28125 -0.125,0.10938 -0.39063,0.10938 h -6.125 q -0.28125,0 -0.40625,-0.10938 -0.125,-0.10937 -0.125,-0.28125 0,-0.17187 0.125,-0.28125 0.125,-0.10937 0.40625,-0.10937 h 2.67188 v -9.9375 l -2.54688,0.79687 q -0.1875,0.0469 -0.26562,0.0469 -0.14063,0 -0.26563,-0.10938 -0.10937,-0.125 -0.10937,-0.28125 0,-0.14062 0.0937,-0.25 0.0781,-0.0781 0.3125,-0.15625 z m 10.83935,9.5625 h 0.34375 q 0.51563,0 0.89063,0.375 0.375,0.35938 0.375,0.875 0,0.53125 -0.375,0.90625 -0.375,0.35938 -0.89063,0.35938 h -0.34375 q -0.51562,0 -0.89062,-0.35938 -0.35938,-0.375 -0.35938,-0.89062 0,-0.54688 0.375,-0.90625 0.375,-0.35938 0.875,-0.35938 z m 15.33936,-7.84375 v 6.51563 q 0,1.64062 -1.09375,2.76562 -1.09375,1.10938 -2.64063,1.10938 -1.04687,0 -1.85937,-0.45313 -0.79688,-0.46875 -1.35938,-1.39062 -0.5625,-0.92188 -0.5625,-2.03125 v -6.51563 h -0.65625 q -0.28125,0 -0.40625,-0.0937 -0.125,-0.10937 -0.125,-0.29687 0,-0.17188 0.14063,-0.29688 0.10937,-0.0937 0.39062,-0.0937 h 2.875 q 0.26563,0 0.39063,0.10938 0.125,0.10937 0.125,0.28125 0,0.1875 -0.125,0.29687 -0.125,0.0937 -0.39063,0.0937 h -1.4375 v 6.51563 q 0,1.29687 0.875,2.20312 0.875,0.89063 2.09375,0.89063 0.76563,0 1.39063,-0.34375 0.64062,-0.35938 1.10937,-1.09375 0.48438,-0.73438 0.48438,-1.65625 v -6.51563 h -1.4375 q -0.26563,0 -0.39063,-0.0937 -0.125,-0.10937 -0.125,-0.29687 0,-0.17188 0.125,-0.28125 0.125,-0.10938 0.39063,-0.10938 h 2.875 q 0.28125,0 0.40625,0.10938 0.125,0.10937 0.125,0.28125 0,0.1875 -0.125,0.29687 -0.125,0.0937 -0.40625,0.0937 z"
       fill-rule="nonzero"
       id="path87" />
    <path
       fill="#000000"
       fill-opacity="0"
       d="m 214.0882,176.98508 v 0 21.52344 0 z"
       fill-rule="nonzero"
       id="path89" />
    <path
       fill="#ffffff"
       d="M 43.060368,197.28294 H 246.43722 v 22.39999 H 43.060368 Z"
       fill-rule="nonzero"
       id="path91" />
    <path
       fill="#000000"
       fill-opacity="0"
       d="m 43.060368,199.38507 h 79.812992 v 21.52344 H 43.060368 Z"
       fill-rule="nonzero"
       id="path93" />
    <path
       fill="#080808"
       d="m 49.154118,203.40607 v 11.01562 h 2.671875 q 0.265625,0 0.390625,0.10938 0.125,0.10937 0.125,0.28125 0,0.17187 -0.125,0.28125 -0.125,0.10937 -0.390625,0.10937 h -6.125 q -0.28125,0 -0.40625,-0.10937 -0.125,-0.10938 -0.125,-0.28125 0,-0.17188 0.125,-0.28125 0.125,-0.10938 0.40625,-0.10938 h 2.671875 v -9.9375 l -2.546875,0.79688 q -0.1875,0.0469 -0.265625,0.0469 -0.140625,0 -0.265625,-0.10937 -0.109375,-0.125 -0.109375,-0.28125 0,-0.14063 0.09375,-0.25 0.07813,-0.0781 0.3125,-0.15625 z m 7.651855,11.01562 h 5.984375 v -0.29687 q 0,-0.28125 0.109375,-0.40625 0.109375,-0.125 0.296875,-0.125 0.15625,0 0.265625,0.125 0.125,0.125 0.125,0.40625 v 1.07812 h -7.53125 v -1.15625 q 2.375,-2.125 4.609375,-4.34375 1.046875,-1.01562 1.4375,-1.5 0.390625,-0.48437 0.53125,-0.84375 0.15625,-0.375 0.15625,-0.75 0,-1 -0.8125,-1.76562 -0.8125,-0.78125 -1.953125,-0.78125 -1.015625,0 -1.8125,0.59375 -0.78125,0.57812 -1.015625,1.45312 -0.04687,0.21875 -0.140625,0.28125 -0.109375,0.0937 -0.25,0.0937 -0.15625,0 -0.265625,-0.10937 -0.109375,-0.10938 -0.109375,-0.25 0,-0.45313 0.484375,-1.20313 0.484375,-0.76562 1.34375,-1.20312 0.859375,-0.4375 1.765625,-0.4375 1.453125,0 2.5,1.01562 1.046875,1 1.046875,2.28125 0,0.54688 -0.171875,1 -0.171875,0.4375 -0.609375,0.98438 -0.421875,0.53125 -1.515625,1.60937 -2.734375,2.70313 -4.46875,4.20313 z m 38.018063,-3.84375 q -0.46875,-0.34375 -0.625,-0.65625 -0.21875,-0.42187 -0.21875,-0.98437 v -3.34375 q 0,-0.51563 -0.3125,-0.85938 -0.296875,-0.34375 -0.75,-0.39062 -0.296875,-0.0156 -0.375,-0.10938 -0.125,-0.125 -0.125,-0.28125 0,-0.17187 0.109375,-0.28125 0.125,-0.10937 0.359375,-0.10937 0.734375,0 1.21875,0.46875 0.65625,0.625 0.65625,1.5625 v 3.34375 q 0,0.5 0.3125,0.85937 0.3125,0.34375 0.78125,0.375 0.25,0.0312 0.359375,0.14063 0.109375,0.0937 0.109375,0.26562 0,0.1875 -0.109375,0.29688 -0.109375,0.0937 -0.359375,0.125 -0.484375,0.0312 -0.796875,0.39062 -0.296875,0.34375 -0.296875,0.85938 v 3.32812 q 0,0.875 -0.5625,1.45313 -0.546875,0.57812 -1.3125,0.57812 -0.234375,0 -0.359375,-0.10937 -0.109375,-0.10938 -0.109375,-0.28125 0,-0.17188 0.109375,-0.28125 0.09375,-0.0781 0.390625,-0.10938 0.46875,-0.0469 0.765625,-0.40625 0.296875,-0.34375 0.296875,-0.84375 v -3.32812 q 0,-0.59375 0.1875,-0.95313 0.1875,-0.35937 0.65625,-0.71875 z m 22.178714,2.39063 h 0.34375 q 0.51562,0 0.89062,0.375 0.375,0.35937 0.375,0.875 0,0.53125 -0.375,0.90625 -0.375,0.35937 -0.89062,0.35937 h -0.34375 q -0.51563,0 -0.89063,-0.35937 -0.35937,-0.375 -0.35937,-0.89063 0,-0.54687 0.375,-0.90625 0.375,-0.35937 0.875,-0.35937 z"
       fill-rule="nonzero"
       id="path95" />
    <path
       fill="#010000"
       fill-opacity="0"
       d="M 122.87335,199.67125 H 223.6335 v 21.13403 H 122.87335 Z"
       fill-rule="nonzero"
       id="path97" />
    <path
       fill="#008000"
       d="m 133.32648,211.21857 q 0,1.07812 -0.60938,2.09375 -0.59375,1 -1.78125,1.59375 -1.17187,0.59375 -2.45312,0.59375 -1.26562,0 -2.4375,-0.57813 -1.17187,-0.59375 -1.78125,-1.59375 -0.60937,-1.01562 -0.60937,-2.125 0,-1.125 0.60937,-2.20312 0.625,-1.07813 1.78125,-1.6875 1.17188,-0.625 2.4375,-0.625 1.28125,0 2.45312,0.64062 1.1875,0.625 1.78125,1.70313 0.60938,1.0625 0.60938,2.1875 z m -1.875,0.0156 q 0,-0.90625 -0.64063,-1.65625 -0.89062,-1.03125 -2.32812,-1.03125 -1.26562,0 -2.10937,0.8125 -0.84375,0.8125 -0.84375,1.875 0,0.875 0.84375,1.64063 0.85937,0.76562 2.10937,0.76562 1.26562,0 2.10937,-0.76562 0.85938,-0.76563 0.85938,-1.64063 z m 7.75807,-2.4375 v 3.75 q 0,0.59375 0.25,0.78125 0.375,0.3125 1.35938,0.3125 1.4375,0 2.64062,-0.60937 0.46875,-0.23438 0.73438,-0.23438 0.35937,0 0.625,0.26563 0.26562,0.26562 0.26562,0.67187 0,0.35938 -0.28125,0.625 -0.45312,0.42188 -1.76562,0.78125 -1.3125,0.35938 -2.21875,0.35938 -1.73438,0 -2.60938,-0.75 -0.875,-0.75 -0.875,-1.84375 v -4.10938 h -0.67187 q -0.67188,0 -0.96875,-0.25 -0.28125,-0.26562 -0.28125,-0.6875 0,-0.40625 0.28125,-0.65625 0.29687,-0.26562 0.96875,-0.26562 h 0.67187 v -1.6875 q 0,-0.67188 0.26563,-0.95313 0.26562,-0.29687 0.67187,-0.29687 0.42188,0 0.67188,0.29687 0.26562,0.28125 0.26562,0.95313 v 1.6875 h 3.45313 q 0.67187,0 0.95312,0.26562 0.29688,0.25 0.29688,0.67188 0,0.40625 -0.29688,0.67187 -0.28125,0.25 -0.95312,0.25 z m 9.72682,-5.40625 v 3.98438 q 0.57813,-0.35938 1.17188,-0.51563 0.60937,-0.17187 1.21875,-0.17187 0.95312,0 1.70312,0.32812 0.76563,0.32813 1.26563,1.03125 0.5,0.70313 0.5,1.78125 v 3.5 q 0.70312,0 0.92187,0.14063 0.4375,0.28125 0.4375,0.8125 0,0.40625 -0.28125,0.67187 -0.28125,0.25 -0.95312,0.25 h -2.125 q -0.67188,0 -0.96875,-0.25 -0.28125,-0.26562 -0.28125,-0.6875 0,-0.51562 0.4375,-0.79687 0.23437,-0.14063 0.9375,-0.14063 v -3.375 q 0,-0.71875 -0.32813,-1.01562 -0.4375,-0.39063 -1.26562,-0.39063 -0.625,0 -1.10938,0.25 -0.46875,0.23438 -1.28125,1.04688 v 3.48437 q 0.71875,0 0.92188,0.14063 0.45312,0.28125 0.45312,0.8125 0,0.40625 -0.29687,0.67187 -0.28125,0.25 -0.95313,0.25 h -2.125 q -0.67187,0 -0.96875,-0.25 -0.28125,-0.26562 -0.28125,-0.6875 0,-0.51562 0.45313,-0.79687 0.21875,-0.14063 0.92187,-0.14063 v -8.07812 h -0.3125 q -0.67187,0 -0.96875,-0.25 -0.28125,-0.26563 -0.28125,-0.6875 0,-0.40625 0.28125,-0.65625 0.29688,-0.26563 0.96875,-0.26563 z m 17.80495,8.625 h -7.65625 q 0.29688,0.73438 1.03125,1.1875 0.75,0.4375 2.01563,0.4375 1.03125,0 2.75,-0.45312 0.71875,-0.1875 0.98437,-0.1875 0.375,0 0.625,0.26562 0.26563,0.26563 0.26563,0.67188 0,0.35937 -0.28125,0.625 -0.35938,0.32812 -1.78125,0.64062 -1.40625,0.29688 -2.70313,0.29688 -2.25,0 -3.59375,-1.26563 -1.34375,-1.26562 -1.34375,-3.10937 0,-1.96875 1.45313,-3.20313 1.45312,-1.23437 3.35937,-1.23437 1.14063,0 2.07813,0.40625 0.95312,0.39062 1.42187,0.85937 0.65625,0.67188 1.09375,1.67188 0.28125,0.6875 0.28125,1.59375 z m -2.0625,-1.875 q -0.4375,-0.79687 -1.125,-1.1875 -0.6875,-0.40625 -1.64062,-0.40625 -0.95313,0 -1.65625,0.40625 -0.6875,0.39063 -1.125,1.1875 z m 8.17995,-3.20312 v 1.15625 q 1.1875,-0.84375 1.85937,-1.125 0.6875,-0.28125 1.26563,-0.28125 0.92187,0 1.78125,0.67187 0.57812,0.45313 0.57812,0.92188 0,0.40625 -0.28125,0.6875 -0.28125,0.28125 -0.67187,0.28125 -0.34375,0 -0.73438,-0.34375 -0.375,-0.35938 -0.67187,-0.35938 -0.39063,0 -1.17188,0.5 -0.78125,0.48438 -1.95312,1.46875 v 2.8125 h 2.67187 q 0.67188,0 0.95313,0.26563 0.29687,0.26562 0.29687,0.6875 0,0.40625 -0.29687,0.67187 -0.28125,0.25 -0.95313,0.25 h -5.64062 q -0.67188,0 -0.96875,-0.25 -0.28125,-0.26562 -0.28125,-0.6875 0,-0.40625 0.28125,-0.67187 0.29687,-0.26563 0.96875,-0.26563 h 1.10937 v -4.53125 h -0.67187 q -0.67188,0 -0.96875,-0.25 -0.28125,-0.26562 -0.28125,-0.6875 0,-0.40625 0.28125,-0.65625 0.29687,-0.26562 0.96875,-0.26562 z m 11.60182,4.82812 -1.29688,3.4375 h -1.75 l -1.5625,-6.40625 q -0.51562,-0.0312 -0.78125,-0.28125 -0.25,-0.26562 -0.25,-0.65625 0,-0.40625 0.28125,-0.65625 0.28125,-0.26562 0.96875,-0.26562 h 1.73438 q 0.67187,0 0.95312,0.26562 0.29688,0.25 0.29688,0.67188 0,0.40625 -0.32813,0.70312 -0.25,0.21875 -0.96875,0.21875 l 0.70313,2.96875 1.15625,-3.04687 h 1.67187 l 1.15625,3.04687 0.73438,-2.96875 q -0.6875,0 -0.90625,-0.14062 -0.4375,-0.28125 -0.4375,-0.79688 0,-0.40625 0.28125,-0.65625 0.28125,-0.26562 0.95312,-0.26562 h 1.76563 q 0.67187,0 0.95312,0.26562 0.29688,0.25 0.29688,0.67188 0,0.375 -0.25,0.64062 -0.25,0.25 -0.75,0.28125 l -1.53125,6.40625 h -1.71875 z m 11.85182,-8.375 v 1.96875 h -2.21875 v -1.96875 z m 0.25,3.54688 v 6.39062 h 2.25 q 0.67188,0 0.95313,0.26563 0.29687,0.26562 0.29687,0.6875 0,0.40625 -0.29687,0.67187 -0.28125,0.25 -0.95313,0.25 h -6.35937 q -0.67188,0 -0.95313,-0.25 -0.28125,-0.26562 -0.28125,-0.6875 0,-0.40625 0.28125,-0.67187 0.28125,-0.26563 0.95313,-0.26563 h 2.25 v -4.53125 h -1.5 q -0.67188,0 -0.96875,-0.25 -0.28125,-0.26562 -0.28125,-0.6875 0,-0.40625 0.28125,-0.65625 0.29687,-0.26562 0.96875,-0.26562 z m 12.28932,2.1875 q -0.45312,-0.29688 -0.95312,-0.4375 -0.5,-0.14063 -1.04688,-0.14063 -1.07812,0 -1.71875,0.35938 -0.28125,0.15625 -0.28125,0.34375 0,0.20312 0.375,0.40625 0.29688,0.14062 1.3125,0.28125 1.85938,0.25 2.57813,0.51562 0.96875,0.32813 1.48437,1 0.51563,0.65625 0.51563,1.40625 0,1 -0.89063,1.67188 -1.26562,0.96875 -3.28125,0.96875 -0.8125,0 -1.5,-0.14063 -0.6875,-0.14062 -1.26562,-0.40625 -0.125,0.10938 -0.28125,0.17188 -0.15625,0.0625 -0.32813,0.0625 -0.4375,0 -0.70312,-0.28125 -0.25,-0.28125 -0.25,-0.95313 v -0.64062 q 0,-0.67188 0.25,-0.95313 0.26562,-0.29687 0.6875,-0.29687 0.34375,0 0.5625,0.1875 0.23437,0.1875 0.35937,0.64062 0.42188,0.375 1.01563,0.5625 0.60937,0.1875 1.39062,0.1875 1.29688,0 2,-0.40625 0.34375,-0.20312 0.34375,-0.42187 0,-0.35938 -0.48437,-0.59375 -0.48438,-0.23438 -2,-0.40625 -2.25,-0.23438 -3,-0.90625 -0.76563,-0.67188 -0.76563,-1.64063 0,-1 0.85938,-1.67187 1.14062,-0.90625 3,-0.90625 0.64062,0 1.23437,0.125 0.60938,0.125 1.15625,0.375 0.17188,-0.125 0.3125,-0.1875 0.15625,-0.0625 0.28125,-0.0625 0.39063,0 0.64063,0.28125 0.25,0.28125 0.25,0.96875 v 0.45312 q 0,0.60938 -0.14063,0.82813 -0.29687,0.42187 -0.79687,0.42187 -0.32813,0 -0.59375,-0.20312 -0.25,-0.21875 -0.32813,-0.5625 z m 13.86745,2.89062 h -7.65625 q 0.29688,0.73438 1.03125,1.1875 0.75,0.4375 2.01563,0.4375 1.03125,0 2.75,-0.45312 0.71875,-0.1875 0.98437,-0.1875 0.375,0 0.625,0.26562 0.26563,0.26563 0.26563,0.67188 0,0.35937 -0.28125,0.625 -0.35938,0.32812 -1.78125,0.64062 -1.40625,0.29688 -2.70313,0.29688 -2.25,0 -3.59375,-1.26563 -1.34375,-1.26562 -1.34375,-3.10937 0,-1.96875 1.45313,-3.20313 1.45312,-1.23437 3.35937,-1.23437 1.14063,0 2.07813,0.40625 0.95312,0.39062 1.42187,0.85937 0.65625,0.67188 1.09375,1.67188 0.28125,0.6875 0.28125,1.59375 z m -2.0625,-1.875 q -0.4375,-0.79687 -1.125,-1.1875 -0.6875,-0.40625 -1.64062,-0.40625 -0.95313,0 -1.65625,0.40625 -0.6875,0.39063 -1.125,1.1875 z"
       fill-rule="nonzero"
       id="path99" />
    <path
       fill="#000000"
       fill-opacity="0"
       d="m 223.6335,199.38507 h 22.80371 v 21.52344 H 223.6335 Z"
       fill-rule="nonzero"
       id="path101" />
    <path
       fill="#080808"
       d="m 240.28535,210.57794 q 0.46875,0.35937 0.625,0.67187 0.21875,0.42188 0.21875,1 v 3.32813 q 0,0.53125 0.29687,0.85937 0.3125,0.34375 0.76563,0.39063 0.29687,0.0312 0.39062,0.10937 0.10938,0.10938 0.10938,0.28125 0,0.17188 -0.125,0.28125 -0.10938,0.10938 -0.34375,0.10938 -0.73438,0 -1.21875,-0.46875 -0.65625,-0.64063 -0.65625,-1.5625 v -3.32813 q 0,-0.51562 -0.3125,-0.85937 -0.3125,-0.35938 -0.78125,-0.39063 -0.25,-0.0312 -0.35938,-0.125 -0.10937,-0.10937 -0.10937,-0.29687 0,-0.17188 0.10937,-0.26563 0.10938,-0.10937 0.35938,-0.14062 0.48437,-0.0312 0.78125,-0.375 0.3125,-0.35938 0.3125,-0.85938 v -3.34375 q 0,-0.875 0.54687,-1.45312 0.5625,-0.57813 1.34375,-0.57813 0.21875,0 0.32813,0.10938 0.125,0.10937 0.125,0.28125 0,0.15625 -0.10938,0.28125 -0.0937,0.0937 -0.39062,0.10937 -0.45313,0.0469 -0.76563,0.39063 -0.29687,0.34375 -0.29687,0.85937 v 3.34375 q 0,0.57813 -0.1875,0.9375 -0.1875,0.35938 -0.65625,0.70313 z"
       fill-rule="nonzero"
       id="path103" />
    <path
       fill="#000000"
       fill-opacity="0"
       d="m 246.43721,199.38507 v 0 21.52344 0 z"
       fill-rule="nonzero"
       id="path105" />
    <path
       fill="#e6b8af"
       d="m 43.060368,219.68294 h 22.803707 v 22.39999 H 43.060368 Z"
       fill-rule="nonzero"
       id="path107" />
    <path
       fill="#ffffff"
       d="M 65.864075,219.68294 H 214.08819 v 22.39999 H 65.864075 Z"
       fill-rule="nonzero"
       id="path109" />
    <path
       fill="#000000"
       fill-opacity="0"
       d="M 43.060368,221.78506 H 65.864075 V 243.3085 H 43.060368 Z"
       fill-rule="nonzero"
       id="path111" />
    <path
       fill="#080808"
       d="m 49.154118,225.80606 v 11.01562 h 2.671875 q 0.265625,0 0.390625,0.10938 0.125,0.10937 0.125,0.28125 0,0.17187 -0.125,0.28125 -0.125,0.10937 -0.390625,0.10937 h -6.125 q -0.28125,0 -0.40625,-0.10937 -0.125,-0.10938 -0.125,-0.28125 0,-0.17188 0.125,-0.28125 0.125,-0.10938 0.40625,-0.10938 h 2.671875 v -9.9375 l -2.546875,0.79688 q -0.1875,0.0469 -0.265625,0.0469 -0.140625,0 -0.265625,-0.10937 -0.109375,-0.125 -0.109375,-0.28125 0,-0.14063 0.09375,-0.25 0.07813,-0.0781 0.3125,-0.15625 z m 12.60498,5.45312 q 1.078125,0.48438 1.640625,1.32813 0.578125,0.84375 0.578125,1.75 0,1.40625 -1.140625,2.48437 -1.140625,1.0625 -2.84375,1.0625 -1,0 -2.078125,-0.42187 -1.078125,-0.4375 -1.5,-0.875 -0.140625,-0.15625 -0.140625,-0.32813 0,-0.14062 0.09375,-0.25 0.109375,-0.10937 0.265625,-0.10937 0.140625,0 0.328125,0.14062 1.4375,1.0625 3.046875,1.0625 1.359375,0 2.265625,-0.84375 0.921875,-0.85937 0.921875,-1.89062 0,-0.70313 -0.453125,-1.35938 -0.453125,-0.67187 -1.296875,-1.0625 -0.84375,-0.39062 -1.703125,-0.39062 -0.28125,0 -0.40625,-0.0937 -0.109375,-0.10938 -0.109375,-0.28125 0,-0.17188 0.109375,-0.28125 0.109375,-0.10938 0.34375,-0.10938 h 0.671875 q 1.046875,0 1.71875,-0.64062 0.6875,-0.64063 0.6875,-1.48438 0,-0.875 -0.71875,-1.53125 -0.703125,-0.67187 -1.859375,-0.67187 -0.796875,0 -1.484375,0.28125 -0.671875,0.28125 -1.078125,0.75 -0.15625,0.1875 -0.234375,0.23437 -0.07813,0.0469 -0.171875,0.0469 -0.15625,0 -0.28125,-0.10938 -0.109375,-0.10937 -0.109375,-0.26562 0,-0.35938 0.8125,-0.9375 1.125,-0.78125 2.546875,-0.78125 1.484375,0 2.421875,0.89062 0.953125,0.875 0.953125,2.10938 0,0.78125 -0.453125,1.48437 -0.453125,0.6875 -1.34375,1.09375 z"
       fill-rule="nonzero"
       id="path113" />
    <path
       fill="#010000"
       fill-opacity="0"
       d="M 65.864075,221.78506 H 100.06964 V 243.3085 H 65.864075 Z"
       fill-rule="nonzero"
       id="path115" />
    <path
       fill="#000000"
       fill-opacity="0"
       d="m 100.06964,221.78506 h 34.20557 v 21.52344 h -34.20557 z"
       fill-rule="nonzero"
       id="path117" />
    <path
       fill="#000000"
       d="m 110.13214,233.60294 q 0,1.78125 -1.28125,3.04687 -1.28125,1.26563 -3.07812,1.26563 -1.8125,0 -3.09375,-1.26563 -1.26563,-1.28125 -1.26563,-3.04687 0,-1.78125 1.26563,-3.04688 1.28125,-1.26562 3.09375,-1.26562 1.79687,0 3.07812,1.26562 1.28125,1.25 1.28125,3.04688 z m -0.79687,0 q 0,-1.46875 -1.04688,-2.5 -1.03125,-1.03125 -2.51562,-1.03125 -1.48438,0 -2.53125,1.04687 -1.04688,1.03125 -1.04688,2.48438 0,1.45312 1.04688,2.5 1.04687,1.03125 2.53125,1.03125 1.48437,0 2.51562,-1.03125 1.04688,-1.04688 1.04688,-2.5 z m 10.51123,4 v -1.14063 q -1.60938,1.45313 -3.45313,1.45313 -1.14062,0 -1.73437,-0.625 -0.78125,-0.8125 -0.78125,-1.90625 v -5.03125 h -1.04688 q -0.28125,0 -0.40625,-0.10938 -0.10937,-0.10937 -0.10937,-0.28125 0,-0.17187 0.10937,-0.28125 0.125,-0.10937 0.40625,-0.10937 h 1.82813 v 5.8125 q 0,0.76562 0.48437,1.26562 0.48438,0.48438 1.20313,0.48438 1.90625,0 3.5,-1.75 v -5.03125 h -1.4375 q -0.28125,0 -0.40625,-0.10938 -0.125,-0.10937 -0.125,-0.28125 0,-0.17187 0.125,-0.28125 0.125,-0.10937 0.40625,-0.10937 h 2.20312 v 7.25 h 0.67188 q 0.26562,0 0.39062,0.10937 0.125,0.10938 0.125,0.28125 0,0.17188 -0.125,0.28125 -0.125,0.10938 -0.39062,0.10938 z m 7.1206,-8.03125 h 4.23438 q 0.28125,0 0.39062,0.10937 0.125,0.10938 0.125,0.28125 0,0.17188 -0.125,0.28125 -0.10937,0.10938 -0.39062,0.10938 h -4.23438 v 5.1875 q 0,0.6875 0.54688,1.14062 0.54687,0.45313 1.59375,0.45313 0.78125,0 1.70312,-0.23438 0.92188,-0.25 1.4375,-0.54687 0.1875,-0.10938 0.29688,-0.10938 0.15625,0 0.26562,0.125 0.10938,0.10938 0.10938,0.26563 0,0.14062 -0.125,0.25 -0.29688,0.3125 -1.4375,0.67187 -1.14063,0.35938 -2.1875,0.35938 -1.375,0 -2.1875,-0.64063 -0.79688,-0.64062 -0.79688,-1.73437 v -5.1875 h -1.4375 q -0.28125,0 -0.40625,-0.10938 -0.10937,-0.10937 -0.10937,-0.28125 0,-0.17187 0.10937,-0.28125 0.125,-0.10937 0.40625,-0.10937 h 1.4375 v -2.29688 q 0,-0.28125 0.10938,-0.40625 0.10937,-0.125 0.28125,-0.125 0.17187,0 0.28125,0.125 0.10937,0.125 0.10937,0.40625 z"
       fill-rule="nonzero"
       id="path119" />
    <path
       fill="#010000"
       fill-opacity="0"
       d="m 134.2752,221.78506 h 11.40186 V 243.3085 H 134.2752 Z"
       fill-rule="nonzero"
       id="path121" />
    <path
       fill="#000000"
       fill-opacity="0"
       d="m 145.67706,221.78506 h 68.41113 v 21.52344 h -68.41113 z"
       fill-rule="nonzero"
       id="path123" />
    <path
       fill="#434343"
       d="m 151.20831,229.57169 h 0.34375 q 0.51562,0 0.89062,0.375 0.375,0.35937 0.375,0.875 0,0.54687 -0.375,0.90625 -0.375,0.35937 -0.89062,0.35937 h -0.34375 q -0.51563,0 -0.89063,-0.35937 -0.35937,-0.375 -0.35937,-0.89063 0,-0.54687 0.375,-0.90625 0.375,-0.35937 0.875,-0.35937 z m 0,5.79687 h 0.34375 q 0.51562,0 0.89062,0.375 0.375,0.35938 0.375,0.875 0,0.53125 -0.375,0.90625 -0.375,0.35938 -0.89062,0.35938 h -0.34375 q -0.51563,0 -0.89063,-0.35938 -0.35937,-0.375 -0.35937,-0.89062 0,-0.54688 0.375,-0.90625 0.375,-0.35938 0.875,-0.35938 z m 15.82373,-4.21875 h -8.5 q -0.28125,0 -0.40625,-0.10937 -0.10937,-0.10938 -0.10937,-0.28125 0,-0.17188 0.10937,-0.28125 0.125,-0.10938 0.40625,-0.10938 h 8.5 q 0.28125,0 0.39063,0.10938 0.125,0.10937 0.125,0.28125 0,0.17187 -0.125,0.28125 -0.10938,0.10937 -0.39063,0.10937 z m 0,2.79688 h -8.5 q -0.28125,0 -0.40625,-0.10938 -0.10937,-0.10937 -0.10937,-0.28125 0,-0.17187 0.10937,-0.28125 0.125,-0.10937 0.40625,-0.10937 h 8.5 q 0.28125,0 0.39063,0.10937 0.125,0.10938 0.125,0.28125 0,0.17188 -0.125,0.28125 -0.10938,0.10938 -0.39063,0.10938 z m 15.19434,2.875 h 5.98437 v -0.29688 q 0,-0.28125 0.10938,-0.40625 0.10937,-0.125 0.29687,-0.125 0.15625,0 0.26563,0.125 0.125,0.125 0.125,0.40625 v 1.07813 h -7.53125 v -1.15625 q 2.375,-2.125 4.60937,-4.34375 1.04688,-1.01563 1.4375,-1.5 0.39063,-0.48438 0.53125,-0.84375 0.15625,-0.375 0.15625,-0.75 0,-1 -0.8125,-1.76563 -0.8125,-0.78125 -1.95312,-0.78125 -1.01563,0 -1.8125,0.59375 -0.78125,0.57813 -1.01563,1.45313 -0.0469,0.21875 -0.14062,0.28125 -0.10938,0.0937 -0.25,0.0937 -0.15625,0 -0.26563,-0.10938 -0.10937,-0.10937 -0.10937,-0.25 0,-0.45312 0.48437,-1.20312 0.48438,-0.76563 1.34375,-1.20313 0.85938,-0.4375 1.76563,-0.4375 1.45312,0 2.5,1.01563 1.04687,1 1.04687,2.28125 0,0.54687 -0.17187,1 -0.17188,0.4375 -0.60938,0.98437 -0.42187,0.53125 -1.51562,1.60938 -2.73438,2.70312 -4.46875,4.20312 z m 14.58935,-1.45313 h 0.34375 q 0.51563,0 0.89063,0.375 0.375,0.35938 0.375,0.875 0,0.53125 -0.375,0.90625 -0.375,0.35938 -0.89063,0.35938 h -0.34375 q -0.51562,0 -0.89062,-0.35938 -0.35938,-0.375 -0.35938,-0.89062 0,-0.54688 0.375,-0.90625 0.375,-0.35938 0.875,-0.35938 z m 15.33936,-7.84375 v 6.51563 q 0,1.64062 -1.09375,2.76562 -1.09375,1.10938 -2.64063,1.10938 -1.04687,0 -1.85937,-0.45313 -0.79688,-0.46875 -1.35938,-1.39062 -0.5625,-0.92188 -0.5625,-2.03125 v -6.51563 h -0.65625 q -0.28125,0 -0.40625,-0.0937 -0.125,-0.10937 -0.125,-0.29687 0,-0.17188 0.14063,-0.29688 0.10937,-0.0937 0.39062,-0.0937 h 2.875 q 0.26563,0 0.39063,0.10938 0.125,0.10937 0.125,0.28125 0,0.1875 -0.125,0.29687 -0.125,0.0937 -0.39063,0.0937 h -1.4375 v 6.51563 q 0,1.29687 0.875,2.20312 0.875,0.89063 2.09375,0.89063 0.76563,0 1.39063,-0.34375 0.64062,-0.35938 1.10937,-1.09375 0.48438,-0.73438 0.48438,-1.65625 v -6.51563 h -1.4375 q -0.26563,0 -0.39063,-0.0937 -0.125,-0.10937 -0.125,-0.29687 0,-0.17188 0.125,-0.28125 0.125,-0.10938 0.39063,-0.10938 h 2.875 q 0.28125,0 0.40625,0.10938 0.125,0.10937 0.125,0.28125 0,0.1875 -0.125,0.29687 -0.125,0.0937 -0.40625,0.0937 z"
       fill-rule="nonzero"
       id="path125" />
    <path
       fill="#000000"
       fill-opacity="0"
       d="m 214.0882,221.78506 v 0 21.52344 0 z"
       fill-rule="nonzero"
       id="path127" />
    <path
       fill="#ffffff"
       d="m 43.060368,242.08293 h 57.009272 v 22.40001 H 43.060368 Z"
       fill-rule="nonzero"
       id="path129" />
    <path
       fill="#000000"
       fill-opacity="0"
       d="M 43.060368,244.18506 H 100.06964 V 265.7085 H 43.060368 Z"
       fill-rule="nonzero"
       id="path131" />
    <path
       fill="#080808"
       d="m 49.154118,248.20605 v 11.01562 h 2.671875 q 0.265625,0 0.390625,0.10938 0.125,0.10937 0.125,0.28125 0,0.17187 -0.125,0.28125 -0.125,0.10937 -0.390625,0.10937 h -6.125 q -0.28125,0 -0.40625,-0.10937 -0.125,-0.10938 -0.125,-0.28125 0,-0.17188 0.125,-0.28125 0.125,-0.10938 0.40625,-0.10938 h 2.671875 v -9.9375 l -2.546875,0.79688 q -0.1875,0.0469 -0.265625,0.0469 -0.140625,0 -0.265625,-0.10937 -0.109375,-0.125 -0.109375,-0.28125 0,-0.14063 0.09375,-0.25 0.07813,-0.0781 0.3125,-0.15625 z m 12.464355,8.54687 h -5.171875 v -0.90625 l 4.328125,-7.48437 h 1.625 v 7.60937 h 0.65625 q 0.28125,0 0.40625,0.10938 0.125,0.0937 0.125,0.28125 0,0.15625 -0.125,0.28125 -0.125,0.10937 -0.40625,0.10937 h -0.65625 v 2.46875 h 0.65625 q 0.28125,0 0.40625,0.10938 0.125,0.10937 0.125,0.28125 0,0.17187 -0.125,0.28125 -0.125,0.10937 -0.40625,0.10937 h -2.890625 q -0.296875,0 -0.421875,-0.10937 -0.109375,-0.10938 -0.109375,-0.28125 0,-0.17188 0.109375,-0.28125 0.125,-0.10938 0.421875,-0.10938 h 1.453125 z m 0,-0.78125 v -6.82812 h -0.40625 l -3.953125,6.82812 z m 33.205563,-0.59375 q -0.46875,-0.34375 -0.625,-0.65625 -0.21875,-0.42187 -0.21875,-0.98437 v -3.34375 q 0,-0.51563 -0.3125,-0.85938 -0.296875,-0.34375 -0.75,-0.39062 -0.296875,-0.0156 -0.375,-0.10938 -0.125,-0.125 -0.125,-0.28125 0,-0.17187 0.109375,-0.28125 0.125,-0.10937 0.359375,-0.10937 0.734375,0 1.21875,0.46875 0.65625,0.625 0.65625,1.5625 v 3.34375 q 0,0.5 0.3125,0.85937 0.3125,0.34375 0.78125,0.375 0.25,0.0312 0.359375,0.14063 0.109375,0.0937 0.109375,0.26562 0,0.1875 -0.109375,0.29688 -0.109375,0.0937 -0.359375,0.125 -0.484375,0.0312 -0.796875,0.39062 -0.296875,0.34375 -0.296875,0.85938 v 3.32812 q 0,0.875 -0.5625,1.45313 -0.546875,0.57812 -1.3125,0.57812 -0.234375,0 -0.359375,-0.10937 -0.109375,-0.10938 -0.109375,-0.28125 0,-0.17188 0.109375,-0.28125 0.09375,-0.0781 0.390625,-0.10938 0.46875,-0.0469 0.765625,-0.40625 0.296875,-0.34375 0.296875,-0.84375 v -3.32812 q 0,-0.59375 0.1875,-0.95313 0.1875,-0.35937 0.65625,-0.71875 z"
       fill-rule="nonzero"
       id="path133" />
    <path
       fill="#000000"
       fill-opacity="0"
       d="m 100.06964,244.18506 v 0 21.52344 0 z"
       fill-rule="nonzero"
       id="path135" />
    <path
       fill="#000000"
       fill-opacity="0"
       d="M 77.03937,142.23097 V 271.08136"
       fill-rule="evenodd"
       id="path137" />
    <path
       stroke="#b7b7b7"
       stroke-width="3"
       stroke-linejoin="round"
       stroke-linecap="butt"
       d="M 77.03937,142.23097 V 271.08136"
       fill-rule="evenodd"
       id="path139" />
  </g>
</svg>
