<?xml version="1.0" encoding="utf-8"?>
<!-- Generator: Adobe Illustrator 22.1.0, SVG Export Plug-In . SVG Version: 6.00 Build 0)  -->
<svg version="1.1" id="Layer_1" xmlns="http://www.w3.org/2000/svg" xmlns:xlink="http://www.w3.org/1999/xlink" x="0px" y="0px"
	 viewBox="0 0 1323.6 316.4" style="enable-background:new 0 0 1323.6 316.4;" xml:space="preserve">
<style type="text/css">
	.st0{fill:#FDB515;}
	.st1{fill:#FFFFFF;}
</style>
<title>chipyard_sticker</title>
<g id="Layer_1_1_">
	<path class="st0" d="M546.5,79.3v-4.6c-5.9-1.7-9.4-7.8-7.7-13.7c1.1-3.9,4.2-6.9,8.1-7.8V0.1l5.2,0.2v52.9c6,1.4,9.6,7.4,8.2,13.4
		c-0.9,3.9-3.9,7-7.8,8.1v10.3h-3c-2.8,0-5.6,1.1-7.6,3.1l0,0c-4.2,4.2-4.2,11,0,15.2l0,0c4.2,4.2,11,4.2,15.1,0l0,0
		c2-2,3.1-4.7,3.1-7.6h6c0,4.4-1.8,8.7-4.9,11.8l0,0c-6.5,6.5-17.1,6.5-23.6,0c0,0,0,0,0,0l0,0c-6.5-6.5-6.5-17.1,0-23.6l0,0
		C540.1,81.5,543.2,79.9,546.5,79.3z"/>
	<path class="st1" d="M145,129.9v56.3c-7-7.9-14.1-13.6-21.1-17.3c-6.9-3.6-14.7-5.5-22.5-5.5c-14.8,0-26.8,5.1-36,15.2
		c-9.2,10.1-13.8,23.3-13.8,39.6c0,15.2,4.7,27.7,14,37.7c9.3,10,21.2,15,35.7,15c7.8,0,15.6-1.9,22.5-5.5
		c7.1-3.7,14.1-9.5,21.2-17.4v56.5c-7.8,3.8-16,6.8-24.4,8.9c-8,2-16.2,3-24.5,3c-9.7,0.1-19.3-1.2-28.6-3.7
		c-8.6-2.4-16.7-6.1-24.1-11.2c-13.6-9-24.8-21.3-32.3-35.8C3.7,251.3,0,235.2,0,217.2c0-14.5,2.3-27.6,7-39.4
		c4.8-12.1,12.1-23,21.2-32.2c8.5-8.9,18.9-16,30.3-20.7c11.2-4.5,23.7-6.8,37.5-6.8c8.3,0,16.5,1,24.5,3
		C129,123.1,137.2,126.1,145,129.9L145,129.9z M174.1,311.6v-189h51.5V196h68.7v-73.5h51.7v189h-51.7v-76.9h-68.7v77L174.1,311.6z
		 M387.4,311.6v-189h52v189H387.4z M529.3,311.6h-21.2V198.2h19.7v14.5H554c10.2,0,23.8-10.7,23.8-23.7v-0.5h44.6
		c-0.2,10.6-2,19.9-5.4,28c-3.4,8.3-8.9,15.6-16,21.1c-5.6,4.3-12,7.3-18.9,8.9c-7.2,1.8-18.8,2.7-34.7,2.7h-18.1V311.6L529.3,311.6
		z M502.2,311.6V192.3h25.6v-12.4h-25.6v-57.4H481v189L502.2,311.6z M508.1,122.6h26.8c21.1,0,35.9,1,44.4,3.1
		c8,1.8,15.4,5.4,21.7,10.6c7,5.8,12.5,13.2,16,21.6c3.2,7.9,5.1,16.2,5.4,24.7h-44.5v-0.5c0-13-14.4-23.7-24.5-23.7h-25.5v15.7
		h-19.7L508.1,122.6z"/>
	<polygon class="st0" points="744.6,121.9 727.5,148.3 713.1,170.6 702.7,186.6 677.9,225 677.9,311 727.6,311 727.6,224.7 
		793.7,121.9 	"/>
	<path class="st0" d="M835.8,121.9l-65.2,189h51.2l9.8-33.8h73.2l9.6,33.8h51.3l-65.3-189H835.8z M842.8,240.3l19-62.4
		c1.1-3.9,2.2-7.9,3.3-12.1s2.2-8.6,3.3-13.3c1.6,6.7,2.9,12.1,4,16.3s1.8,7.3,2.4,9.2l19.3,62.4H842.8z"/>
	<path class="st0" d="M1113.6,216.5c7.2-9.2,10.8-21.1,10.8-35.7c0.1-9.1-1.7-18.2-5.5-26.5c-3.5-7.8-8.9-14.6-15.7-19.8
		c-6.4-4.7-13.7-8-21.5-9.7c-8.3-1.9-23-2.9-44.1-2.9h-53.8v189h48.3v-74l43.4,74h58.2l-51.5-76.2
		C1095.9,231.8,1106.4,225.7,1113.6,216.5z M1066,205.6c-5.1,3.8-13.2,5.7-24.3,5.7h-9.6v-49.7h10.4c11.3,0,19.3,2,24.1,6
		c4.8,4,7.2,10.7,7.2,20.2C1073.7,195.9,1071.1,201.8,1066,205.6z"/>
	<path class="st0" d="M1314.3,171.9c-6.1-12.9-15.5-23.9-27.2-32c-9.7-6.6-20.6-11.3-32.1-13.8c-12.2-2.8-32.9-4.2-62.3-4.2h-39.4
		v189h48c24.6,0,42.7-1.3,54.5-4c11.2-2.5,21.8-7.1,31.2-13.6c11.7-8.1,21.1-19.2,27.2-32.1c6.2-13,9.3-27.9,9.3-44.7
		C1323.6,199.9,1320.5,185,1314.3,171.9z M1257.3,256.1c-9.3,8.3-24.1,12.5-44.3,12.5h-8.6V164.1h8.6c20.2,0,35,4.2,44.3,12.7
		c9.3,8.4,14,21.7,13.9,39.8C1271.2,234.7,1266.6,247.9,1257.3,256.1L1257.3,256.1z"/>
	<path class="st0" d="M622.4,130.8l-2.1-3.7l47.4-0.1l2.1,3.7c7.3,12.7,16.1,27.7,23.4,40.4l-25.1,38.7L622.4,130.8z"/>
	<path class="st0" d="M668.2,127.7L594.2,0L547,0.1l73.8,127.7L668.2,127.7L668.2,127.7z M589.7,8.6l-14.1,24.6L561.4,8.6L589.7,8.6
		L589.7,8.6z M641.9,98.7l14.5,25h-28.9L641.9,98.7L641.9,98.7z M637.3,90.7l-14.1,24.6l-14.2-24.5L637.3,90.7L637.3,90.7z
		 M618.1,57.7l14.5,25h-28.9L618.1,57.7L618.1,57.7z M613.5,49.7l-14.1,24.6l-14.2-24.5L613.5,49.7L613.5,49.7z M594.4,16.7l14.5,25
		h-28.9L594.4,16.7z"/>
</g>
</svg>
