<svg version="1.1" id="Layer_1" xmlns="http://www.w3.org/2000/svg" xmlns:xlink="http://www.w3.org/1999/xlink" x="0px" y="0px"
	 width="100%" viewBox="0 0 658 216" enable-background="new 0 0 658 216" xml:space="preserve">
<path fill="#FDFDFD" opacity="1.000000" stroke="none" 
	d="
M516.000000,217.000000 
	C345.548553,217.000000 175.597122,216.978302 5.645806,217.124451 
	C1.372245,217.128128 0.893738,215.988205 0.901293,212.148209 
	C1.037012,143.168198 1.039133,74.187752 0.892453,5.207779 
	C0.884543,1.487868 1.797127,0.911041 5.290061,0.912611 
	C221.728180,1.009870 438.166321,1.006465 654.604492,0.937742 
	C657.812012,0.936724 659.138855,1.088000 659.128540,5.102372 
	C658.949951,74.415436 658.965210,143.729156 659.101562,213.042419 
	C659.108459,216.550720 658.293518,217.101242 654.959412,217.091461 
	C608.806580,216.956192 562.653198,217.000000 516.000000,217.000000 
z"/>
<path fill="#252522" opacity="1.000000" stroke="none" 
	d="
M359.834595,143.540482 
	C361.239075,145.983154 363.365906,145.536682 365.301575,145.526886 
	C384.591187,145.429245 403.880829,145.230774 423.170380,145.240372 
	C448.628815,145.253036 474.087799,145.358719 499.544861,145.603134 
	C503.463928,145.640762 506.128662,145.318939 505.138519,140.430679 
	C504.998535,139.739639 504.882294,138.574158 506.080902,138.536163 
	C507.595367,138.488159 507.487244,139.798843 507.332855,140.691910 
	C506.524139,145.369873 509.144928,145.617279 512.829651,145.597336 
	C536.628601,145.468414 560.429382,145.623123 584.227661,145.440613 
	C588.174866,145.410355 589.665771,146.081802 589.584045,150.483368 
	C589.290100,166.305237 589.345947,182.137527 589.558899,197.961990 
	C589.609131,201.692200 588.651733,202.713196 584.869385,202.684570 
	C560.897034,202.503189 536.922119,202.672363 512.949463,202.514084 
	C508.944305,202.487640 506.388062,202.931320 507.331787,207.776352 
	C507.502380,208.652130 507.718018,210.053360 506.296906,210.128082 
	C504.811066,210.206192 504.954742,208.806870 505.131348,207.915390 
	C506.136475,202.842484 503.371674,202.496872 499.291412,202.519241 
	C460.178558,202.733887 421.064758,202.803406 381.951172,202.852692 
	C370.464294,202.867172 358.971954,202.853806 347.492920,202.501068 
	C343.461182,202.377151 341.516144,203.282379 342.231842,207.612198 
	C342.375305,208.480270 342.685394,209.944214 341.353577,210.083328 
	C339.370697,210.290451 339.951843,208.481522 340.092560,207.582031 
	C340.769562,203.254211 338.828827,202.477829 334.834198,202.502396 
	C295.556976,202.743881 256.278503,202.803650 217.000336,202.852600 
	C205.346817,202.867111 193.687836,202.855881 182.042328,202.498672 
	C178.021179,202.375336 176.100372,203.231979 176.830643,207.571579 
	C176.987305,208.502518 177.475479,210.266174 175.532928,210.075195 
	C174.170441,209.941254 174.638931,208.525940 174.611801,207.614914 
	C173.952545,185.478073 173.913635,163.340393 174.623764,141.204102 
	C174.655945,140.201462 174.001678,138.436752 175.862946,138.572388 
	C177.574463,138.697144 176.953033,140.464706 176.821106,141.396423 
	C176.282639,145.199020 178.179779,145.782623 181.410355,145.589905 
	C185.893402,145.322479 190.400787,145.462906 195.400452,145.260712 
	C196.123978,144.862656 196.344803,144.632614 196.992249,144.189423 
	C200.186844,143.160141 203.032135,143.426392 205.848694,143.425156 
	C247.256699,143.407059 288.664703,143.417709 330.072693,143.406570 
	C333.847351,143.405563 337.887207,144.086380 339.371582,138.958557 
	C339.809204,137.446945 341.827118,137.054245 342.406097,138.654327 
	C344.698364,144.989059 349.968994,143.248032 354.961304,143.476898 
	C356.747711,143.071808 358.097412,143.141083 359.834595,143.540482 
z"/>
<path fill="#22211F" opacity="1.000000" stroke="none" 
	d="
M197.268341,144.788605 
	C196.926804,145.019272 196.582825,145.004547 196.582825,145.004547 
	C196.582825,145.004547 196.238739,145.016327 196.070938,145.054520 
	C194.955368,143.335709 193.912766,141.621780 193.089096,139.808395 
	C192.401001,138.293411 190.280121,136.538742 193.859818,135.447174 
	C195.098358,135.069489 194.525024,133.031631 194.526382,131.740585 
	C194.549286,110.081787 194.482010,88.422607 194.608887,66.764534 
	C194.627640,63.562428 193.821396,62.312458 190.465408,62.521107 
	C186.150375,62.789383 181.796402,62.409538 177.477478,62.644718 
	C174.516785,62.805939 173.908432,61.653244 173.927307,58.923794 
	C174.040314,42.597160 174.091614,26.268063 173.897598,9.942951 
	C173.855591,6.409161 174.893112,5.587281 178.313507,5.611195 
	C200.471054,5.766106 222.630234,5.690606 244.788864,5.690605 
	C295.564362,5.690604 346.339935,5.725950 397.115234,5.616828 
	C400.783813,5.608943 402.207367,6.209010 402.132355,10.371343 
	C401.847198,26.193800 401.854797,42.027271 402.127869,57.850155 
	C402.199097,61.978027 400.855713,62.762619 397.099701,62.669518 
	C387.161346,62.423176 377.212860,62.586025 367.236938,62.586025 
	C367.102509,64.611427 368.531342,65.189522 369.380371,66.040970 
	C391.496460,88.220184 413.638550,110.373604 435.835358,132.471985 
	C437.108032,133.739014 438.189026,136.676758 440.900787,133.947006 
	C441.926819,132.914154 442.214233,134.341064 442.430450,134.924881 
	C443.388000,137.510529 444.235107,140.137070 445.401276,143.570541 
	C441.925354,142.450592 439.298615,141.612778 436.678772,140.754089 
	C436.027405,140.540604 435.143524,139.903061 435.524658,139.429062 
	C438.568634,135.643356 434.482788,134.503403 432.896973,132.903595 
	C410.612915,110.422348 388.202209,88.066689 365.835022,65.667755 
	C364.179810,64.010193 362.664124,62.523556 359.947144,62.533630 
	C334.137146,62.629356 308.326691,62.596954 282.516357,62.617176 
	C282.061035,62.617535 281.605865,62.812874 281.092010,62.930668 
	C280.991394,64.816422 282.596466,65.454369 283.556427,66.417183 
	C306.142181,89.069771 328.758514,111.691902 351.413055,134.275650 
	C352.845337,135.703430 353.995728,138.583420 356.922913,135.882401 
	C357.920654,134.961731 358.039215,136.541779 358.262939,137.143402 
	C358.959198,139.015762 359.549774,140.927414 360.204742,143.196777 
	C359.585785,145.028870 358.515015,144.084793 357.289246,144.023285 
	C353.233551,144.867798 350.429047,144.340302 349.893677,139.723846 
	C349.674225,137.831390 348.093353,136.588837 346.799744,135.294449 
	C324.438721,112.920021 302.052673,90.570557 279.725677,68.162300 
	C277.064789,65.491730 274.120026,64.348831 270.375122,64.361725 
	C248.399002,64.437393 226.422379,64.378288 204.445999,64.414902 
	C198.839859,64.424240 198.423874,64.840126 198.413559,70.350388 
	C198.377136,89.829430 198.392929,109.308571 198.407852,128.787674 
	C198.409119,130.442154 198.307297,132.115356 199.136642,133.665604 
	C202.088531,139.183395 201.942581,140.164810 197.268341,144.788605 
z"/>
<path fill="#0F0F0F" opacity="1.000000" stroke="none" 
	d="
M74.279381,35.166435 
	C74.600800,30.093613 78.273308,30.669382 81.552277,30.738993 
	C85.066742,30.813608 85.791595,33.148617 85.889847,36.163597 
	C86.144363,43.973259 84.354721,45.710747 76.759804,44.005466 
	C74.572678,43.514389 72.803886,42.283680 70.521484,43.966591 
	C69.683670,44.584347 67.942703,44.181633 66.929153,42.993164 
	C66.092369,42.011963 65.895691,40.840271 66.092369,39.715488 
	C66.786072,35.748352 63.047806,31.796034 66.131203,27.815355 
	C66.906471,26.814474 67.838181,26.938879 68.777710,27.026926 
	C71.309486,27.264185 68.953896,30.166321 70.777283,30.812990 
	C73.655029,31.833590 72.540939,32.262779 70.824722,33.761574 
	C69.025558,35.332809 69.958092,38.077297 70.399109,40.302269 
	C70.474533,40.682793 71.457756,41.104477 72.035835,41.126053 
	C74.559570,41.220253 73.053947,38.307579 74.782127,37.278725 
	C75.890343,35.880524 77.277115,35.705482 78.452545,35.129314 
	C77.165482,35.609566 75.895248,36.093201 74.279381,35.166435 
z"/>
<path fill="#111111" opacity="1.000000" stroke="none" 
	d="
M97.457024,180.380692 
	C99.515587,180.390945 101.482452,179.938492 101.226219,182.658051 
	C101.016151,184.887634 99.244347,183.944672 98.137001,183.993805 
	C87.621933,184.460342 87.620872,184.436340 87.620972,173.971588 
	C87.621048,165.958725 87.621040,165.958755 95.702293,165.962936 
	C96.535408,165.963364 97.378036,165.883926 98.199326,165.982544 
	C99.342834,166.119812 101.042870,165.282547 101.087097,167.557251 
	C101.134651,170.002731 99.365044,169.504761 97.950546,169.554214 
	C96.619080,169.600784 95.282791,169.620956 93.952583,169.562546 
	C92.498787,169.498718 91.798248,170.057297 91.874603,171.574829 
	C91.947861,173.030823 92.947853,172.989090 93.957901,172.991974 
	C95.457489,172.996277 96.958038,173.030548 98.456375,172.988159 
	C99.653351,172.954315 100.330063,173.321045 100.269188,174.667221 
	C100.210022,175.976013 99.505775,176.371490 98.332954,176.307175 
	C97.834648,176.279831 97.288452,176.174057 96.841606,176.328461 
	C95.136192,176.917725 91.832428,174.699677 91.974014,178.451157 
	C92.109138,182.031601 95.317734,179.704254 97.457024,180.380692 
z"/>
<path fill="#121212" opacity="1.000000" stroke="none" 
	d="
M115.993439,34.999046 
	C115.993271,25.949839 115.993271,25.949837 124.414520,25.960554 
	C125.410004,25.961821 126.405724,25.950268 127.400917,25.967754 
	C128.568924,25.988277 129.793350,25.899487 129.687439,27.690313 
	C129.595108,29.251812 128.621445,29.566719 127.330177,29.564888 
	C125.671112,29.562536 124.012009,29.573997 122.352966,29.586123 
	C121.033653,29.595766 120.083595,29.971466 120.210251,31.581600 
	C120.323029,33.015087 121.403381,32.776085 122.334129,33.017941 
	C124.511978,33.583866 128.562958,31.563057 128.607758,34.379601 
	C128.672394,38.441425 124.497963,35.540104 122.308853,36.242195 
	C121.055008,36.644329 120.208908,36.869968 120.184822,38.362946 
	C120.159279,39.946880 121.064590,40.346886 122.380890,40.359486 
	C124.205788,40.376961 126.030815,40.379494 127.855774,40.391159 
	C129.268265,40.400196 129.926788,41.051403 129.924973,42.525261 
	C129.923111,44.031590 128.910339,43.985382 127.927895,44.018440 
	C126.767761,44.057480 125.605385,44.030785 124.443985,44.031620 
	C115.993469,44.037697 115.993469,44.037621 115.993439,34.999046 
z"/>
<path fill="#101010" opacity="1.000000" stroke="none" 
	d="
M52.200272,26.224869 
	C55.530060,25.530163 58.550644,25.146854 61.036026,27.377413 
	C62.071857,28.307043 63.419102,29.728077 62.120716,31.130093 
	C61.222637,32.099857 59.662407,31.862068 58.595158,30.693468 
	C58.154560,30.211027 57.755997,29.536072 57.200951,29.342443 
	C55.783501,28.847971 54.035999,28.433727 53.306122,30.178806 
	C52.484871,32.142334 54.605595,32.013634 55.604847,32.605778 
	C56.011856,32.846966 56.559990,32.845001 57.040016,32.968792 
	C59.979225,33.726761 62.978104,34.440392 63.242226,38.290775 
	C63.423302,40.930561 62.237831,42.967529 59.760746,43.658688 
	C56.196789,44.653103 52.512905,45.016628 49.620914,41.880230 
	C48.740532,40.925446 47.795563,39.312199 48.646076,38.409222 
	C49.606533,37.389523 51.457928,37.321480 52.508980,38.885448 
	C53.186657,39.893841 53.856701,40.786224 55.142521,40.907646 
	C56.645420,41.049576 58.438625,41.267227 58.926804,39.462643 
	C59.373737,37.810543 57.838253,37.317581 56.500175,36.959618 
	C55.541740,36.703224 54.592484,36.407017 53.651604,36.091396 
	C47.938614,34.174946 47.275242,30.575949 52.200272,26.224869 
z"/>
<path fill="#141414" opacity="1.000000" stroke="none" 
	d="
M121.252258,183.302368 
	C117.775391,180.571442 117.246284,177.364685 118.819946,173.795853 
	C120.353699,170.317581 123.323334,171.242050 126.347847,170.953812 
	C131.064377,170.504288 131.506775,172.392578 131.122849,176.091553 
	C130.867371,178.553085 131.098114,181.061768 131.034088,183.547379 
	C130.964752,186.239166 129.364395,187.796707 126.938141,188.533081 
	C124.228485,189.355469 121.633179,189.019821 119.547226,186.994522 
	C118.640755,186.114410 118.337257,184.932999 120.471397,184.268539 
	C121.783470,183.942062 122.700851,184.329742 123.675896,184.172989 
	C122.876175,184.092880 122.186935,183.856979 121.252258,183.302368 
z"/>
<path fill="#0D0D0D" opacity="1.000000" stroke="none" 
	d="
M96.764969,31.346188 
	C98.462112,30.915592 98.827629,29.971033 98.747398,28.649612 
	C98.670029,27.375113 99.357414,26.899704 100.582497,26.973551 
	C101.448143,27.025730 102.436653,27.113997 102.326363,28.183699 
	C102.098206,30.396528 107.347832,32.346958 102.561913,34.945503 
	C101.908424,35.300320 102.511528,38.077217 102.636856,39.724781 
	C102.738113,41.055801 104.052734,40.967896 104.886375,41.296833 
	C106.461372,41.918308 106.200256,40.264660 106.455101,39.638084 
	C108.014191,35.804783 109.461678,31.923590 110.841705,28.021345 
	C111.316750,26.678059 111.777924,25.246071 113.456795,25.725227 
	C115.702927,26.366282 114.032585,27.948219 113.732574,28.876827 
	C112.562996,32.496952 110.749931,35.943928 109.895866,39.622398 
	C108.843758,44.153797 106.136421,44.629757 102.268608,44.131035 
	C99.798309,43.812511 98.868103,42.770115 98.674034,40.356869 
	C98.496284,38.146702 99.684517,35.726791 97.434998,33.609642 
	C96.425125,32.980316 96.347633,32.334148 96.764969,31.346188 
z"/>
<path fill="#101010" opacity="1.000000" stroke="none" 
	d="
M145.951691,37.115555 
	C146.471542,32.346264 148.694702,29.993629 153.263840,30.932913 
	C155.376419,31.367199 155.450943,30.325598 155.393051,28.852699 
	C155.331390,27.283871 155.304626,25.770227 157.596252,25.973049 
	C160.129883,26.197290 159.063461,28.147219 159.135681,29.380703 
	C159.289963,32.015602 159.543137,34.731743 159.074631,37.289852 
	C158.664474,39.529404 161.337433,43.164246 157.411087,43.900219 
	C149.375244,45.406498 147.148849,43.911095 145.951691,37.115555 
z"/>
<path fill="#101010" opacity="1.000000" stroke="none" 
	d="
M113.013138,183.716888 
	C105.638191,184.949066 101.968781,182.115051 103.043739,175.959167 
	C103.956230,170.733688 107.577293,170.025009 112.191818,171.222321 
	C112.283005,169.788208 112.371956,168.646408 112.424065,167.502899 
	C112.486351,166.136047 113.397011,165.970520 114.478363,165.974335 
	C115.398445,165.977570 116.133224,166.225174 116.136749,167.294754 
	C116.153755,172.449615 116.214966,177.606079 116.105316,182.758682 
	C116.066338,184.590698 114.464691,183.864380 113.013138,183.716888 
z"/>
<path fill="#0D0D0D" opacity="1.000000" stroke="none" 
	d="
M145.677094,179.967865 
	C143.937866,184.562973 140.387268,185.129456 136.701401,183.524338 
	C133.153564,181.979340 132.386246,178.641647 133.558411,175.058670 
	C134.826828,171.181488 137.817459,170.142380 141.499268,170.942673 
	C144.761551,171.651779 145.904236,174.132126 146.023605,177.606720 
	C144.727829,179.429688 142.886215,178.727951 141.267593,179.277985 
	C142.766281,179.231415 144.219879,178.698929 145.677094,179.967865 
z"/>
<path fill="#090908" opacity="1.000000" stroke="none" 
	d="
M140.139160,40.821991 
	C139.449722,38.148643 141.882568,34.004833 137.698593,34.108601 
	C134.492905,34.188107 135.889160,38.018139 135.469238,40.275253 
	C135.210541,41.665863 136.502487,43.968437 133.618027,43.979683 
	C130.684021,43.991123 132.136063,41.654907 131.817383,40.302387 
	C131.668747,39.671532 131.791977,38.976662 131.791702,38.310806 
	C131.788925,31.339172 131.790573,31.357763 138.627731,30.740635 
	C141.866608,30.448292 143.782806,31.760891 143.969986,35.092167 
	C144.091202,37.249863 144.055389,39.419621 144.007874,41.582169 
	C143.984680,42.637241 144.436172,43.960526 142.491226,44.047413 
	C140.330185,44.143963 139.969620,43.012974 140.139160,40.821991 
z"/>
<path fill="#100F0E" opacity="1.000000" stroke="none" 
	d="
M151.178986,178.379425 
	C148.445068,177.535751 147.283508,176.019897 147.974838,173.421906 
	C148.625198,170.977982 150.696594,170.757782 152.702225,170.665375 
	C155.059662,170.556763 157.719131,170.566071 158.625336,173.204773 
	C159.661987,176.223389 156.966705,174.462143 155.570679,174.847244 
	C154.794647,174.555954 154.568771,174.728653 154.409515,175.364777 
	C156.479614,176.385483 159.131195,176.473495 159.337494,179.533020 
	C159.472458,181.534561 158.597778,183.273209 156.688904,183.769699 
	C154.003998,184.468048 151.032288,184.943619 148.787933,182.727936 
	C147.026794,180.989288 147.111740,179.498886 150.590607,179.799347 
	C151.419128,179.935486 152.055374,180.157166 152.201157,179.820999 
	C152.458481,179.227646 151.752563,178.952255 151.178986,178.379425 
z"/>
<path fill="#141414" opacity="1.000000" stroke="none" 
	d="
M96.713882,30.925709 
	C96.996323,31.679897 97.011871,32.285397 97.023941,33.193737 
	C92.634003,34.174240 91.590332,37.016590 91.990349,40.981285 
	C92.118805,42.254379 92.718338,44.074097 90.140213,44.068291 
	C87.701096,44.062794 88.097244,42.446369 88.106293,41.015957 
	C88.126129,37.878700 87.203239,34.177513 88.559158,31.775822 
	C89.732269,29.697947 93.782097,31.699978 96.713882,30.925709 
z"/>
<path fill="#CECECE" opacity="1.000000" stroke="none" 
	d="
M145.904892,179.893066 
	C143.774414,179.274979 142.139160,180.782715 140.300598,181.153824 
	C138.982712,181.419830 137.384781,181.049011 137.222443,179.485825 
	C137.028183,177.615311 138.776443,178.316376 139.738266,178.248276 
	C141.526077,178.121643 143.327881,178.192520 145.559967,178.086792 
	C145.988205,178.500427 145.980377,179.008438 145.904892,179.893066 
z"/>
<path fill="#121212" opacity="1.000000" stroke="none" 
	d="
M601.882080,180.454437 
	C603.781677,179.988739 605.848328,178.985550 605.855103,182.117386 
	C605.858459,183.668304 605.115967,183.982147 603.766296,184.055450 
	C601.020752,184.204620 601.615906,182.343643 601.882080,180.454437 
z"/>
<path fill="#121212" opacity="1.000000" stroke="none" 
	d="
M427.508484,43.921806 
	C426.575745,42.172894 425.507477,40.295876 428.492462,39.937313 
	C429.635986,39.799950 430.714447,39.845524 430.876831,41.539459 
	C431.112579,43.999104 429.721924,44.202454 427.508484,43.921806 
z"/>
<path fill="#2B2A26" opacity="1.000000" stroke="none" 
	d="
M419.951599,44.065933 
	C417.228333,42.972164 417.675934,41.281029 419.120392,40.109741 
	C419.911896,39.467934 421.884766,39.260845 422.388336,40.853176 
	C422.856964,42.334850 423.013885,44.252777 419.951599,44.065933 
z"/>
<path fill="#000000" opacity="1.000000" stroke="none" 
	d="
M613.992310,181.976639 
	C613.470825,185.097198 611.535645,184.238220 610.324524,183.491547 
	C609.451416,182.953156 609.448120,180.993988 610.323181,180.454453 
	C611.538574,179.705048 613.475464,178.850510 613.992310,181.976639 
z"/>
<path fill="#090908" opacity="1.000000" stroke="none" 
	d="
M619.180115,179.985657 
	C622.153870,179.534653 622.322388,181.107529 622.006104,182.905334 
	C621.696655,184.663864 620.061707,184.226700 619.268066,183.883698 
	C617.308655,183.036865 617.688538,181.498871 619.180115,179.985657 
z"/>
<path fill="#CECECE" opacity="1.000000" stroke="none" 
	d="
M120.946991,183.276840 
	C121.937943,183.187317 122.905212,183.277008 123.872849,183.362640 
	C124.947464,183.457764 126.093864,182.311768 127.035362,183.371582 
	C127.288795,183.656860 127.015694,184.691910 126.678818,185.165466 
	C125.757072,186.461212 124.475227,186.294418 123.224495,185.651581 
	C122.654251,185.358505 122.142281,184.952057 121.234764,184.377029 
	C120.797173,183.915558 120.816452,183.681290 120.946991,183.276840 
z"/>
<path fill="#000000" opacity="1.000000" stroke="none" 
	d="
M438.968781,41.084595 
	C439.406006,44.064030 437.846588,44.268192 436.026825,43.936840 
	C434.270874,43.617115 434.702209,41.953049 435.045654,41.170845 
	C435.903259,39.217369 437.466614,39.630959 438.968781,41.084595 
z"/>
<path fill="#F0F0F0" opacity="1.000000" stroke="none" 
	d="
M74.110619,35.209366 
	C75.441757,34.911041 76.962090,35.599640 78.157829,34.136162 
	C78.966949,33.145863 80.058830,32.747692 81.181419,33.681843 
	C81.479683,33.930042 81.740250,34.579205 81.624809,34.904846 
	C81.214188,36.063183 80.071342,35.893040 79.120415,36.082661 
	C77.986412,36.308784 76.869133,36.618683 75.369080,36.927624 
	C74.729271,36.467255 74.464981,35.971550 74.110619,35.209366 
z"/>
<path fill="#BFBFBF" opacity="1.000000" stroke="none" 
	d="
M150.905243,178.496933 
	C151.416016,178.238235 152.003174,178.114578 152.365860,178.344727 
	C153.441010,179.026962 156.045029,178.597061 155.240616,180.662704 
	C154.423447,182.761124 152.587173,181.862808 151.108978,180.314606 
	C150.961929,179.571777 150.920486,179.182724 150.905243,178.496933 
z"/>
<path fill="#FBFBFB" opacity="1.000000" stroke="none" 
	d="
M197.357025,145.236389 
	C198.198959,142.316956 199.471130,139.614639 200.979416,136.410706 
	C196.683044,136.683395 196.764099,134.001694 196.777786,130.924500 
	C196.872604,109.601204 196.904404,88.276726 196.749710,66.954124 
	C196.724976,63.545452 197.488937,62.465942 201.084488,62.491566 
	C224.890610,62.661175 248.698685,62.623497 272.505585,62.522194 
	C275.424408,62.509773 277.459320,63.452648 279.490753,65.494507 
	C302.754822,88.878143 326.116150,112.164986 349.386688,135.542206 
	C350.869019,137.031326 353.707794,138.054062 351.432190,141.550751 
	C350.700928,142.674408 354.560364,143.057785 356.596924,143.991821 
	C356.203033,147.162689 353.687042,145.387589 352.145294,145.431473 
	C343.537415,145.676407 343.534149,145.562119 341.422180,138.534332 
	C341.120331,138.601273 340.584259,138.618011 340.552643,138.752914 
	C338.963501,145.536163 338.968170,145.537277 331.267761,145.537277 
	C295.560608,145.537277 259.853424,145.542648 224.146255,145.533447 
	C215.359924,145.531189 206.573593,145.481445 197.357025,145.236389 
z"/>
<path fill="#F9F2DD" opacity="1.000000" stroke="none" 
	d="
M548.905151,184.997192 
	C548.905090,173.683029 548.996704,162.867340 548.846130,152.055023 
	C548.804138,149.042374 549.273987,147.678574 552.808838,147.767197 
	C563.117676,148.025650 573.437866,147.928680 583.751831,147.809525 
	C586.251282,147.780670 587.224304,148.336655 587.201477,151.078964 
	C587.074036,166.384476 587.074402,181.692123 587.200684,196.997635 
	C587.223511,199.755081 586.204102,200.281250 583.729553,200.254715 
	C573.249023,200.142273 562.765930,200.137939 552.285583,200.257339 
	C549.774963,200.285919 548.692078,199.709946 548.850342,196.973679 
	C549.070984,193.159805 548.905457,189.323593 548.905151,184.997192 
z"/>
<path fill="#F9F2DD" opacity="1.000000" stroke="none" 
	d="
M300.850861,164.001892 
	C301.164581,158.409653 298.680664,151.615738 301.868774,148.710526 
	C304.636627,146.188278 311.331451,147.918091 316.291718,147.873398 
	C322.783447,147.814926 329.278503,147.962082 335.767090,147.808060 
	C338.290466,147.748154 339.230560,148.365326 339.208221,151.092117 
	C339.082825,166.406113 339.079468,181.722244 339.209839,197.036148 
	C339.233795,199.849991 338.111694,200.274124 335.693665,200.250565 
	C325.207214,200.148422 314.717102,200.090851 304.233002,200.278137 
	C301.140778,200.333374 300.776978,199.041550 300.804138,196.462601 
	C300.916260,185.809845 300.850983,175.155243 300.850861,164.001892 
z"/>
<path fill="#F8F1DC" opacity="1.000000" stroke="none" 
	d="
M504.814880,179.000580 
	C504.814728,185.163101 504.694763,190.829239 504.867065,196.486481 
	C504.947845,199.138275 504.401001,200.319443 501.397827,200.273346 
	C490.741516,200.109772 480.080505,200.146851 469.422852,200.258438 
	C466.964935,200.284180 465.930725,199.803650 465.954742,197.024719 
	C466.087128,181.703827 466.086151,166.380615 465.955048,151.059692 
	C465.931488,148.309402 466.904694,147.777985 469.396240,147.805710 
	C480.053741,147.924286 490.714844,147.956985 501.371094,147.792145 
	C504.327057,147.746414 504.917267,148.824020 504.871826,151.521393 
	C504.720337,160.512222 504.814728,169.507187 504.814880,179.000580 
z"/>
<path fill="#F9F2DD" opacity="1.000000" stroke="none" 
	d="
M387.112610,200.208191 
	C384.475159,200.345581 382.937683,200.335205 382.974060,197.200821 
	C383.153534,181.727859 383.118347,166.251205 382.994537,150.777161 
	C382.973724,148.176895 383.974243,147.799759 386.205750,147.818466 
	C397.020874,147.909042 407.838104,147.935669 418.652374,147.803284 
	C421.230621,147.771713 422.047760,148.453445 422.026367,151.117661 
	C421.903320,166.425308 421.895630,181.735062 422.030609,197.042511 
	C422.055328,199.843613 420.981934,200.279465 418.550049,200.253845 
	C408.234528,200.145218 397.917145,200.208084 387.112610,200.208191 
z"/>
<path fill="#F8F1DC" opacity="1.000000" stroke="none" 
	d="
M256.969208,186.991699 
	C256.674713,191.598862 258.755951,196.984863 256.158600,199.482391 
	C253.601288,201.941391 248.256226,200.120605 244.138550,200.180664 
	C236.652405,200.289871 229.160843,200.096939 221.677170,200.271652 
	C218.946106,200.335419 217.955109,199.713669 217.984238,196.757355 
	C218.133469,181.616943 218.130096,166.473541 217.986221,151.333023 
	C217.958572,148.423157 218.889755,147.754852 221.644547,147.794571 
	C232.125214,147.945724 242.613617,148.025192 253.089828,147.761398 
	C256.648407,147.671799 257.063538,149.065460 257.026642,152.050064 
	C256.884796,163.529526 256.969177,175.011765 256.969208,186.991699 
z"/>
<path fill="#F6EFDB" opacity="1.000000" stroke="none" 
	d="
M177.021133,162.005814 
	C177.021133,158.676865 177.276047,155.817612 176.960037,153.022919 
	C176.512161,149.062119 177.534729,147.562286 181.937271,147.730972 
	C191.912384,148.113098 201.913696,147.949265 211.900925,147.790527 
	C214.819519,147.744125 215.940918,148.342346 215.901489,151.584549 
	C215.719284,166.566956 215.763107,181.553223 215.874207,196.537018 
	C215.894272,199.243958 215.280441,200.324554 212.329193,200.279556 
	C201.675934,200.117096 191.016556,200.095963 180.364334,200.289444 
	C177.238800,200.346207 176.953491,199.006485 176.976547,196.469055 
	C177.079468,185.148285 177.021179,173.826050 177.021133,162.005814 
z"/>
<path fill="#F6EFDA" opacity="1.000000" stroke="none" 
	d="
M284.993317,147.849854 
	C289.585144,148.191132 295.011047,146.031494 297.401367,148.749847 
	C299.417542,151.042709 298.118378,156.327591 298.133698,160.288712 
	C298.179474,172.109283 298.038330,183.931885 298.222382,195.749756 
	C298.273438,199.027451 297.725922,200.413315 293.987640,200.311935 
	C283.839264,200.036697 273.677185,200.126999 263.523438,200.272659 
	C260.488159,200.316193 259.176300,199.745728 259.225250,196.245529 
	C259.432495,181.430878 259.435944,166.609879 259.223114,151.795395 
	C259.172546,148.277664 260.496704,147.720139 263.517975,147.795013 
	C270.506226,147.968216 277.501709,147.849930 284.993317,147.849854 
z"/>
<path fill="#F5EED9" opacity="1.000000" stroke="none" 
	d="
M463.521729,197.008453 
	C463.812317,199.831528 462.538696,200.256729 460.538788,200.246170 
	C449.552917,200.188095 438.565796,200.147888 427.580994,200.271011 
	C424.987366,200.300079 424.609619,199.178223 424.618958,196.982574 
	C424.684143,181.668793 424.720917,166.354019 424.592133,151.041031 
	C424.568512,148.236984 425.666443,147.778763 428.108093,147.802689 
	C438.760345,147.907104 449.415833,147.950485 460.066437,147.782043 
	C463.068329,147.734558 463.593536,148.897263 463.574768,151.561142 
	C463.469147,166.541550 463.523804,181.523087 463.521729,197.008453 
z"/>
<path fill="#F5EED9" opacity="1.000000" stroke="none" 
	d="
M354.005188,147.846497 
	C362.159760,147.846756 369.815399,147.934952 377.466949,147.797897 
	C380.019775,147.752167 380.903076,148.462463 380.882233,151.140259 
	C380.763306,166.447403 380.784027,181.756149 380.867493,197.063766 
	C380.880157,199.382477 380.272827,200.288940 377.812958,200.264709 
	C366.998535,200.158218 356.180939,200.118057 345.368011,200.283310 
	C342.413605,200.328491 342.231049,198.942154 342.240173,196.654755 
	C342.300568,181.513336 342.318695,166.371246 342.225098,151.230164 
	C342.209595,148.729065 342.804413,147.584122 345.521576,147.802094 
	C348.166748,148.014282 350.842407,147.847107 354.005188,147.846497 
z"/>
<path fill="#F2EBD7" opacity="1.000000" stroke="none" 
	d="
M513.021729,147.838501 
	C523.336365,147.838852 533.151184,147.935226 542.962036,147.779480 
	C545.806274,147.734329 546.615234,148.619965 546.591797,151.437241 
	C546.466187,166.572021 546.482666,181.708710 546.579224,196.843903 
	C546.595520,199.399246 545.873230,200.311020 543.222839,200.280304 
	C532.413025,200.155014 521.600037,200.156311 510.790131,200.279678 
	C508.156647,200.309738 507.403137,199.429642 507.419891,196.856873 
	C507.518524,181.721710 507.632996,166.582672 507.367401,151.451508 
	C507.286865,146.864212 510.033478,147.919159 513.021729,147.838501 
z"/>
<path fill="#F5EEDA" opacity="1.000000" stroke="none" 
	d="
M227.999924,7.830036 
	C234.329056,7.830387 240.159256,7.894351 245.986847,7.799542 
	C248.291611,7.762046 249.621552,8.045941 249.596344,10.955162 
	C249.463608,26.276346 249.478226,41.599701 249.587982,56.921249 
	C249.607086,59.587112 248.700638,60.286285 246.147949,60.277008 
	C223.997467,60.196548 201.846329,60.181381 179.696106,60.292095 
	C176.793213,60.306599 176.089493,59.347282 176.111359,56.587276 
	C176.230057,41.598969 176.262955,26.608139 176.090652,11.620874 
	C176.054321,8.460079 177.035477,7.739432 180.034561,7.765581 
	C195.855331,7.903526 211.677963,7.830123 227.999924,7.830036 
z"/>
<path fill="#F5EFDA" opacity="1.000000" stroke="none" 
	d="
M251.873383,36.999947 
	C251.873428,28.349762 251.980759,20.197422 251.817200,12.050523 
	C251.757339,9.069519 252.195221,7.710262 255.756668,7.740299 
	C277.378082,7.922654 299.002045,7.883959 320.624390,7.769849 
	C323.574341,7.754281 324.647491,8.390362 324.611115,11.584549 
	C324.440765,26.552336 324.438232,41.524269 324.612244,56.491974 
	C324.649902,59.731098 323.492584,60.302464 320.584991,60.288193 
	C298.962555,60.182041 277.339050,60.172432 255.716827,60.297867 
	C252.707123,60.315331 251.668365,59.616982 251.797272,56.458393 
	C252.054779,50.148384 251.873474,43.820465 251.873383,36.999947 
z"/>
<path fill="#F6EFDA" opacity="1.000000" stroke="none" 
	d="
M330.116150,7.833557 
	C352.236023,7.832712 373.865082,7.910763 395.492371,7.753125 
	C398.957428,7.727870 399.963562,8.620836 399.915100,12.142768 
	C399.713745,26.780802 399.747131,41.424065 399.896820,56.063339 
	C399.928925,59.202515 399.249695,60.336128 395.832520,60.310722 
	C374.205261,60.149933 352.575684,60.155613 330.948303,60.307007 
	C327.634796,60.330200 326.818054,59.360729 326.853821,56.148563 
	C327.018646,41.343220 326.917725,26.535007 326.937622,11.727857 
	C326.940125,9.864477 326.225586,7.399856 330.116150,7.833557 
z"/>
<path fill="#CECECE" opacity="1.000000" stroke="none" 
	d="
M81.903320,39.676025 
	C80.789879,41.451214 79.627998,42.506908 77.841583,41.161587 
	C77.048141,40.564056 76.972786,39.626358 77.812469,39.189800 
	C79.140518,38.499340 80.687370,36.756351 81.903320,39.676025 
z"/>
<path fill="#F0F0F0" opacity="1.000000" stroke="none" 
	d="
M122.711861,179.511902 
	C121.801491,176.879761 121.219414,174.345413 124.448074,173.795135 
	C126.857414,173.384521 127.416000,175.504440 127.242638,177.375916 
	C127.006210,179.928177 125.791344,181.378860 122.711861,179.511902 
z"/>
<path fill="#F0F0F0" opacity="1.000000" stroke="none" 
	d="
M150.219666,35.309875 
	C151.706528,33.469242 153.239212,33.018246 154.594971,34.616673 
	C155.868576,36.118263 155.762650,37.969818 154.957031,39.742405 
	C154.391861,40.985962 153.332947,41.442764 152.120255,41.048405 
	C149.337723,40.143547 149.827728,37.850651 150.219666,35.309875 
z"/>
<path fill="#F0F0F0" opacity="1.000000" stroke="none" 
	d="
M112.038200,175.298752 
	C112.676384,177.906418 112.900490,180.081497 110.275688,181.057755 
	C109.103577,181.493698 107.930374,180.948608 107.389061,179.766617 
	C106.600388,178.044495 106.388626,176.152374 107.695793,174.652145 
	C109.007843,173.146301 110.565681,173.303329 112.038200,175.298752 
z"/>
<path fill="#CECECE" opacity="1.000000" stroke="none" 
	d="
M141.449097,174.366455 
	C140.686447,177.638748 138.742111,175.463013 136.975937,175.819244 
	C137.930679,173.355972 139.387589,173.283401 141.449097,174.366455 
z"/>
<path fill="#FDFDFD" opacity="1.000000" stroke="none" 
	d="
M154.596771,175.424591 
	C153.404602,175.410202 151.671585,175.477966 152.101166,174.120575 
	C152.636749,172.428268 153.990280,173.195999 155.075562,174.475159 
	C155.053421,174.948441 154.923538,175.085037 154.596771,175.424591 
z"/>
<path fill="#1F1E1B" opacity="1.000000" stroke="none" 
	d="
M570.562561,175.538071 
	C571.491821,177.606567 570.663513,178.206909 569.000916,178.068832 
	C567.412109,177.936905 565.574280,178.659409 564.322327,177.457825 
	C563.716003,176.875916 564.111633,175.439133 565.370972,175.307388 
	C566.973877,175.139679 568.606812,175.258423 570.562561,175.538071 
z"/>
<path fill="#1F1E1B" opacity="1.000000" stroke="none" 
	d="
M320.017883,175.163391 
	C321.742004,175.416824 323.685547,174.417786 323.916718,176.740829 
	C324.061798,178.198669 322.752625,178.155731 321.859863,178.031998 
	C320.231354,177.806351 317.930695,179.053497 317.120758,177.039352 
	C316.390625,175.223694 318.243713,175.162338 320.017883,175.163391 
z"/>
<path fill="#252522" opacity="1.000000" stroke="none" 
	d="
M484.362488,178.080536 
	C482.697449,177.964798 481.928467,177.141602 482.679749,176.131256 
	C484.115173,174.200806 486.333923,175.384018 488.213593,175.257126 
	C489.036682,175.201569 489.306305,176.041489 489.308655,176.665176 
	C489.315735,178.560120 487.803375,177.973602 486.759033,178.075439 
	C486.099396,178.139755 485.428314,178.087051 484.362488,178.080536 
z"/>
<path fill="#1F1E1B" opacity="1.000000" stroke="none" 
	d="
M405.945618,172.283295 
	C405.945251,175.233795 405.970062,177.731796 405.933838,180.228897 
	C405.915558,181.487610 406.293884,182.992722 404.176025,183.058182 
	C402.156433,183.120605 402.158325,181.827316 402.171021,180.420822 
	C402.186035,178.755890 402.208099,177.089523 402.155090,175.426071 
	C402.125610,174.501434 402.495331,173.349106 401.173157,172.928711 
	C399.929993,172.533417 397.016876,172.404541 398.603394,170.870193 
	C400.197845,169.328201 402.175659,166.443222 404.882874,167.060196 
	C407.095490,167.564438 405.484283,170.211761 405.945618,172.283295 
z"/>
<path fill="#090908" opacity="1.000000" stroke="none" 
	d="
M242.431046,167.818970 
	C247.031616,174.122131 240.986084,176.149338 237.923050,179.272324 
	C238.501160,179.629379 238.728027,179.813171 238.986465,179.922028 
	C240.679749,180.635361 244.171661,178.483459 243.950989,181.691345 
	C243.754700,184.544769 240.415802,182.794571 238.553452,182.904114 
	C236.613007,183.018234 233.574188,184.221985 232.815079,182.045807 
	C231.924606,179.492966 234.511108,177.679626 236.552094,176.189041 
	C237.351746,175.605011 238.218582,175.101471 238.962341,174.454910 
	C240.299393,173.292587 241.450058,171.817810 239.687927,170.328568 
	C238.138580,169.019226 236.817764,170.074295 236.312683,171.696579 
	C235.820160,173.278473 234.617538,173.432816 233.628006,172.980331 
	C232.247971,172.349258 232.826996,170.893219 233.313568,169.952438 
	C235.349335,166.016342 238.524216,165.917679 242.431046,167.818970 
z"/>
<path fill="#131211" opacity="1.000000" stroke="none" 
	d="
M196.996094,166.054962 
	C198.646210,166.467300 200.041611,166.644363 201.129654,167.317947 
	C202.391510,168.099182 203.824219,169.549301 202.766342,170.996002 
	C201.692917,172.463913 200.123779,171.694626 199.044739,170.345917 
	C198.096603,169.160828 196.816971,168.843643 195.481461,169.433426 
	C195.023697,169.635574 194.465714,170.565201 194.590515,170.962219 
	C195.059814,172.454956 196.597046,172.571869 197.828812,172.841476 
	C200.736954,173.478027 203.480133,174.336578 203.810196,177.829437 
	C204.040573,180.267471 202.609512,182.161438 200.364014,182.750549 
	C197.111618,183.603806 193.705841,183.919693 191.131989,180.930618 
	C190.374496,180.050919 189.487411,178.756775 190.361618,177.804123 
	C191.322617,176.756897 192.897934,176.869171 193.780640,178.198746 
	C194.477753,179.248749 195.203781,180.047241 196.489365,180.102341 
	C197.803711,180.158707 199.427979,180.400055 199.789886,178.707336 
	C200.111572,177.202744 198.549408,176.991226 197.529999,176.536728 
	C197.079239,176.335785 196.585754,176.223694 196.104385,176.099533 
	C193.280624,175.371216 190.399628,174.599258 190.654419,170.820084 
	C190.898849,167.194534 193.613785,166.382782 196.996094,166.054962 
z"/>
<path fill="#100F0E" opacity="1.000000" stroke="none" 
	d="
M278.164429,171.633514 
	C276.661285,172.091736 275.121460,172.880127 274.459839,171.336380 
	C274.148834,170.610748 274.996185,169.091888 275.712524,168.280075 
	C277.629181,166.107849 280.203003,166.176086 282.600769,167.167038 
	C284.908508,168.120789 285.804626,170.223602 284.823639,172.518066 
	C284.220276,173.929321 284.414429,174.734375 285.116852,176.000290 
	C286.900604,179.215088 285.326202,181.668503 282.350922,182.730179 
	C279.222168,183.846619 276.025177,183.502670 274.263153,179.954926 
	C273.811554,179.045654 273.636230,177.877457 274.667694,177.290344 
	C275.311279,176.924042 276.449341,176.910522 276.916138,177.731506 
	C278.029297,179.689209 279.600952,181.470886 281.430115,179.218033 
	C283.612823,176.529724 280.085571,176.417969 278.926880,175.226120 
	C278.678253,174.970383 278.867645,174.288788 279.047333,173.444107 
	C279.509888,172.301178 280.009277,171.394821 278.164429,171.633514 
z"/>
<path fill="#D3CDBB" opacity="1.000000" stroke="none" 
	d="
M278.035706,171.974030 
	C278.137756,169.377930 279.525970,168.844986 281.097992,170.197327 
	C282.770386,171.635971 281.723175,172.665924 279.602722,173.102692 
	C278.887634,172.815689 278.535889,172.546555 278.035706,171.974030 
z"/>
<path fill="#131211" opacity="1.000000" stroke="none" 
	d="
M446.772949,173.156708 
	C449.968628,174.230469 451.747833,175.931183 451.094299,179.181442 
	C450.549500,181.890869 448.582458,182.904388 446.058929,183.120819 
	C442.997192,183.383392 439.989105,183.345901 438.178070,180.271881 
	C437.705750,179.470169 437.293030,178.307465 438.325378,177.582550 
	C439.183136,176.980194 440.203125,177.071823 440.992737,177.900040 
	C441.556396,178.491211 441.957977,179.405365 442.634827,179.686035 
	C444.160889,180.318878 446.196259,180.902771 447.018707,179.038620 
	C447.924591,176.985321 445.622375,176.908066 444.419250,176.293091 
	C443.992157,176.074799 443.444366,176.107452 442.970673,175.963074 
	C440.518463,175.215622 438.094360,174.320435 438.029205,171.208389 
	C437.977448,168.737946 439.467896,167.236557 441.739838,166.503922 
	C444.638550,165.569168 447.341492,165.936691 449.540894,168.134644 
	C450.302307,168.895554 451.215820,170.111893 450.205078,171.154999 
	C449.366791,172.020157 448.088501,171.952225 447.103729,171.002228 
	C446.750061,170.661011 446.503235,170.190918 446.114441,169.907486 
	C444.760529,168.920486 443.129730,168.531265 442.277710,170.203888 
	C441.273102,172.176086 443.476349,172.064651 444.470062,172.616394 
	C445.023346,172.923553 445.749054,172.920090 446.772949,173.156708 
z"/>
<path fill="#141412" opacity="1.000000" stroke="none" 
	d="
M357.345886,174.812866 
	C354.270081,171.877518 354.664154,169.254227 357.631775,167.122116 
	C360.632965,164.965912 365.819183,166.060211 367.368530,168.917130 
	C367.769806,169.657043 368.262146,170.495270 367.597137,171.182404 
	C366.824707,171.980545 365.682800,171.821625 364.823364,171.335815 
	C363.855804,170.788956 363.153107,169.708527 362.155121,169.297836 
	C361.041199,168.839432 359.716736,169.146561 359.271790,170.474411 
	C358.799805,171.882935 360.185242,172.022705 361.019196,172.340256 
	C362.403229,172.867249 363.856720,173.208786 365.269897,173.662811 
	C367.690094,174.440369 368.638184,176.261185 368.461884,178.637573 
	C368.297241,180.856659 366.910431,182.416885 364.830841,182.867859 
	C361.897491,183.503937 358.831940,183.767899 356.358032,181.484711 
	C355.274780,180.484955 354.071594,179.032516 355.436432,177.664902 
	C356.495758,176.603455 357.865845,177.239166 358.774750,178.499176 
	C359.146973,179.015198 359.608002,179.682373 360.147369,179.822021 
	C361.729218,180.231567 363.765900,180.826981 364.447144,178.790527 
	C364.997101,177.146530 363.049225,176.863022 361.908081,176.396835 
	C360.537476,175.836929 359.091705,175.461075 357.345886,174.812866 
z"/>
<path fill="#100F0E" opacity="1.000000" stroke="none" 
	d="
M529.073364,173.079117 
	C527.212646,169.803329 529.165039,167.984283 531.712891,167.018799 
	C534.339478,166.023468 537.246948,166.328583 538.704407,169.121643 
	C540.051941,171.703964 539.488525,174.298141 537.010193,176.202850 
	C535.737061,177.181274 534.465942,178.162292 533.146606,179.178589 
	C533.578308,179.556885 533.751709,179.799484 533.986084,179.899765 
	C535.769287,180.662811 539.268005,178.423630 539.305237,181.445023 
	C539.344482,184.636185 535.849121,182.898102 534.095398,182.864960 
	C532.067566,182.826630 528.893555,184.643982 528.057434,181.747452 
	C527.300171,179.124130 530.016602,177.467987 532.072144,176.016510 
	C532.615112,175.633102 533.174805,175.269669 533.689880,174.851501 
	C534.842590,173.915619 536.252686,173.041107 535.655701,171.235367 
	C535.481995,170.709900 534.824951,170.151764 534.273071,169.977890 
	C532.155823,169.310791 531.996277,171.251328 531.162231,172.378815 
	C530.847351,172.804504 530.049866,172.873154 529.073364,173.079117 
z"/>
<path fill="#1F1E1B" opacity="1.000000" stroke="none" 
	d="
M520.191895,177.942230 
	C519.935974,175.466949 521.349609,172.642792 517.331299,172.566498 
	C516.064453,172.542480 515.560364,170.475784 517.055847,170.204834 
	C519.511353,169.759964 520.450317,166.068558 522.777771,167.066895 
	C525.376343,168.181519 523.579102,171.170486 523.866455,173.300262 
	C524.151672,175.414429 524.005920,177.601059 523.899292,179.748459 
	C523.834778,181.048965 524.642944,182.952774 522.150085,183.025955 
	C519.685486,183.098282 520.304382,181.265686 520.198975,179.889206 
	C520.161133,179.395294 520.192261,178.896118 520.191895,177.942230 
z"/>
<path fill="#0C0B0A" opacity="1.000000" stroke="none" 
	d="
M206.227325,32.573502 
	C206.562469,40.374191 204.788025,43.368790 200.244064,43.138966 
	C196.057617,42.927223 194.234253,39.329708 194.874847,32.770645 
	C195.195328,29.489077 196.372726,26.944321 200.043350,26.677437 
	C203.872879,26.399004 205.809433,28.480650 206.227325,32.573502 
z"/>
<path fill="#161614" opacity="1.000000" stroke="none" 
	d="
M221.431824,33.781284 
	C222.081177,32.939957 222.377426,32.298393 222.861633,31.868603 
	C224.732391,30.208031 225.154343,26.133709 228.423325,27.051474 
	C231.554016,27.930418 229.641632,31.283175 229.809937,33.473415 
	C230.000671,35.955231 233.613129,38.411018 229.996078,41.113297 
	C229.487183,41.493488 229.763855,43.003948 228.370056,43.026611 
	C227.198090,43.045666 226.442520,42.638447 226.447144,41.357159 
	C226.453705,39.543671 225.365387,39.126945 223.825241,39.250381 
	C218.807037,39.652576 218.839828,37.454422 221.431824,33.781284 
z"/>
<path fill="#161614" opacity="1.000000" stroke="none" 
	d="
M235.726898,45.741463 
	C234.898224,47.091877 233.897095,47.347824 232.929855,46.965107 
	C231.306870,46.322929 232.628387,45.288380 232.880020,44.564892 
	C234.686722,39.370403 234.658218,34.217804 233.003464,28.985880 
	C232.741623,28.158051 231.134796,26.874830 233.047455,26.134588 
	C234.738480,25.480141 235.338959,26.901907 235.900894,28.129135 
	C238.534134,33.880020 238.669006,39.637905 235.726898,45.741463 
z"/>
<path fill="#100F0E" opacity="1.000000" stroke="none" 
	d="
M188.681885,36.058514 
	C188.806732,32.585922 189.502686,29.731388 191.027084,27.089653 
	C191.638428,26.030245 192.650803,25.800339 193.557938,26.188517 
	C194.511520,26.596577 194.121002,27.633846 193.818344,28.358736 
	C191.533295,33.831448 191.519424,39.283695 193.795654,44.762535 
	C194.092682,45.477482 194.553253,46.506107 193.568802,46.914673 
	C192.683609,47.282040 191.666977,47.126713 191.052582,46.026199 
	C189.396408,43.059662 188.765060,39.853733 188.681885,36.058514 
z"/>
<path fill="#252522" opacity="1.000000" stroke="none" 
	d="
M208.981689,43.068752 
	C207.879440,41.553444 207.499390,40.120949 209.198166,39.257236 
	C209.958847,38.870476 211.355087,38.633995 211.814133,39.733471 
	C212.454926,41.268288 212.356033,43.007900 211.720734,44.545563 
	C211.280502,45.611153 210.179779,46.807304 209.077133,46.340332 
	C206.862030,45.402229 209.897003,44.339321 208.981689,43.068752 
z"/>
<path fill="#0C0B0A" opacity="1.000000" stroke="none" 
	d="
M295.736938,35.024490 
	C296.520264,28.370384 299.087830,25.786119 303.493866,26.793451 
	C305.438263,27.237989 307.294586,28.426352 306.727142,30.366671 
	C306.312592,31.784069 304.264526,31.198778 302.929504,30.448709 
	C301.359283,29.566471 300.115448,29.791155 299.239960,31.744564 
	C300.067017,31.869301 300.826843,32.105721 301.576202,32.076256 
	C305.208069,31.933460 307.334167,33.629238 307.419617,37.248695 
	C307.487213,40.113075 306.314331,42.500633 303.120239,43.022537 
	C299.442963,43.623398 297.029388,42.010468 296.055054,38.411968 
	C295.799072,37.466530 295.834808,36.442116 295.736938,35.024490 
z"/>
<path fill="#0C0B0A" opacity="1.000000" stroke="none" 
	d="
M276.251709,27.697540 
	C277.289551,27.215975 278.104950,26.842505 278.865387,26.932627 
	C280.643158,27.143316 280.159332,28.719435 279.990875,29.652700 
	C279.199036,34.039589 283.546509,38.674770 279.398499,42.799187 
	C278.847260,43.347290 276.964020,43.322384 276.984985,42.245773 
	C277.051422,38.830948 274.881927,39.120842 272.705750,39.221722 
	C268.907379,39.397793 269.506012,37.189465 270.742920,35.181957 
	C272.292206,32.667412 274.232666,30.393866 276.251709,27.697540 
z"/>
<path fill="#161614" opacity="1.000000" stroke="none" 
	d="
M268.674225,30.106216 
	C267.428589,35.269138 267.425690,39.994686 269.155731,44.663090 
	C269.422638,45.383377 270.664703,46.435406 268.978333,46.992001 
	C267.951660,47.330860 267.201111,46.879635 266.493530,45.931686 
	C263.591370,42.043747 263.499756,31.189814 266.338898,27.290388 
	C267.155853,26.168377 268.276459,25.502188 269.233429,26.206665 
	C270.695618,27.283100 268.723358,28.496611 268.674225,30.106216 
z"/>
<path fill="#100F0E" opacity="1.000000" stroke="none" 
	d="
M309.653442,47.007362 
	C307.762726,47.041515 307.656616,46.149532 308.104675,45.088657 
	C310.411255,39.627613 310.449127,34.161167 308.311676,28.642805 
	C307.984161,27.797184 307.285278,26.617859 308.652252,26.148951 
	C309.960632,25.700140 310.697021,26.577641 311.219482,27.815903 
	C313.998108,34.401569 314.675751,40.826630 309.653442,47.007362 
z"/>
<path fill="#2B2A26" opacity="1.000000" stroke="none" 
	d="
M283.784424,41.625763 
	C283.634155,39.478737 284.515137,38.866261 286.150970,39.089031 
	C287.719208,39.302597 287.776123,40.466927 287.739136,41.654644 
	C287.668823,43.913670 287.184692,45.924538 284.499939,46.565842 
	C282.800446,45.299339 286.054688,43.191113 283.784424,41.625763 
z"/>
<path fill="#0C0B0A" opacity="1.000000" stroke="none" 
	d="
M339.302429,30.897896 
	C340.619751,27.728844 342.727844,26.454243 345.714233,26.664917 
	C348.160370,26.837477 349.598022,28.145550 350.050842,30.359238 
	C347.677917,33.054527 344.323242,27.484299 342.192413,31.729137 
	C344.817596,32.356491 347.826904,31.467579 349.561493,34.167286 
	C350.842407,36.160896 350.734802,38.337753 349.780151,40.346981 
	C348.751862,42.511253 346.785583,43.269497 344.411316,43.135136 
	C341.980835,42.997597 340.347992,41.755547 339.462738,39.591694 
	C338.354065,36.881676 338.685211,34.062603 339.302429,30.897896 
z"/>
<path fill="#0C0B0A" opacity="1.000000" stroke="none" 
	d="
M377.131409,30.769077 
	C378.499908,27.362125 380.725555,26.142487 383.935486,26.789080 
	C387.115448,27.429638 388.041412,29.797401 388.207458,32.605988 
	C388.313385,34.397934 388.331635,36.225574 388.102295,38.000134 
	C387.696655,41.139153 386.030182,43.154915 382.610321,43.151463 
	C378.925720,43.147739 377.289673,40.896801 376.976898,37.581871 
	C376.777283,35.466110 376.998932,33.310608 377.131409,30.769077 
z"/>
<path fill="#22211F" opacity="1.000000" stroke="none" 
	d="
M372.678528,37.804901 
	C372.652893,39.438686 372.721588,40.615921 372.577179,41.766411 
	C372.408325,43.111542 371.304016,43.049599 370.288788,43.032345 
	C369.166412,43.013271 368.984955,42.255249 368.977600,41.373123 
	C368.963776,39.707066 368.979004,38.040699 368.957062,36.374790 
	C368.934235,34.642899 369.555023,32.489353 366.507477,32.744869 
	C365.520599,32.827610 365.034637,32.192280 365.007599,31.208914 
	C364.976410,30.076868 365.810181,29.815287 366.630219,29.788542 
	C368.847687,29.716228 369.419922,25.492359 371.884674,27.238894 
	C373.711731,28.533556 372.455566,31.261671 372.654938,33.339851 
	C372.781647,34.660675 372.678619,36.003536 372.678528,37.804901 
z"/>
<path fill="#100F0E" opacity="1.000000" stroke="none" 
	d="
M389.158936,26.452339 
	C390.435181,26.006165 391.368988,26.043194 391.925781,27.151508 
	C394.929626,33.131031 395.201416,39.175449 392.437775,45.317883 
	C391.916779,46.475895 391.175568,47.404247 389.818481,46.990814 
	C387.911255,46.409775 389.101013,45.141693 389.473602,44.237766 
	C391.913666,38.318485 390.724152,32.541496 389.158936,26.452339 
z"/>
<path fill="#100F0E" opacity="1.000000" stroke="none" 
	d="
M333.239319,31.366390 
	C333.709229,30.058626 334.019928,29.112907 334.428741,28.211704 
	C334.985382,26.984711 335.705658,25.482704 337.287476,26.166435 
	C339.215759,26.999928 337.654144,28.407166 337.306458,29.484671 
	C335.664612,34.572865 335.667450,39.580353 337.697418,44.571117 
	C338.024109,45.374298 338.805634,46.521755 337.302979,46.971344 
	C336.303711,47.270321 335.506073,46.856079 334.922485,45.774136 
	C332.513977,41.309029 332.352783,36.598339 333.239319,31.366390 
z"/>
<path fill="#1F1E1B" opacity="1.000000" stroke="none" 
	d="
M355.963318,41.819355 
	C355.889160,44.450542 354.989655,46.053894 352.033142,46.717625 
	C353.952057,44.171024 350.014404,41.232227 353.188660,39.251656 
	C354.529388,38.415131 356.146576,39.248276 355.963318,41.819355 
z"/>
<path fill="#E9E2CF" opacity="1.000000" stroke="none" 
	d="
M199.383209,39.647537 
	C197.640564,36.895809 197.832092,34.268364 198.426010,31.642717 
	C198.651642,30.645208 199.291901,29.735640 200.403091,29.652838 
	C201.796188,29.549025 202.839783,30.660170 202.719482,31.740187 
	C202.393631,34.665783 205.401062,38.970623 199.383209,39.647537 
z"/>
<path fill="#BFBFBF" opacity="1.000000" stroke="none" 
	d="
M226.605927,34.793800 
	C225.958435,36.802628 224.792816,36.663563 223.217514,35.953667 
	C224.048859,34.591702 224.429367,33.001415 226.290237,32.638531 
	C226.401550,33.250015 226.512878,33.861504 226.605927,34.793800 
z"/>
<path fill="#E2DBC8" opacity="1.000000" stroke="none" 
	d="
M301.270752,34.976746 
	C304.225189,35.342709 304.416229,37.065674 303.631958,38.986012 
	C303.133698,40.206013 301.786224,40.684563 300.712311,39.859444 
	C298.690979,38.306400 298.785156,36.575108 301.270752,34.976746 
z"/>
<path fill="#E2DBC8" opacity="1.000000" stroke="none" 
	d="
M275.842957,33.783958 
	C276.071442,34.943417 276.352325,35.841331 275.406891,36.242207 
	C275.071930,36.384228 274.216797,36.147923 274.139648,35.909416 
	C273.697296,34.542614 274.686096,33.936668 275.842957,33.783958 
z"/>
<path fill="#E2DBC8" opacity="1.000000" stroke="none" 
	d="
M343.004639,39.312935 
	C341.875092,36.900333 342.266052,35.273510 344.700623,34.978775 
	C346.330536,34.781448 347.091858,36.103954 346.969330,37.596878 
	C346.768860,40.038212 345.446564,40.774410 343.004639,39.312935 
z"/>
<path fill="#E9E2CF" opacity="1.000000" stroke="none" 
	d="
M384.920776,32.348701 
	C384.987762,33.113388 385.036072,33.447906 385.008575,33.776077 
	C384.823639,35.983105 385.790283,38.608570 383.102081,39.959206 
	C382.065857,40.479851 381.149506,39.804234 380.751953,38.758083 
	C379.712433,36.022575 379.277710,33.042561 381.022736,30.652308 
	C382.774689,28.252516 384.039795,30.037659 384.920776,32.348701 
z"/>
</svg>