<svg version="1.1" id="Layer_1" xmlns="http://www.w3.org/2000/svg" xmlns:xlink="http://www.w3.org/1999/xlink" x="0px" y="0px"
	 width="100%" viewBox="0 0 690 298" enable-background="new 0 0 690 298" xml:space="preserve">
<path fill="#FEFEFE" opacity="1.000000" stroke="none" 
	d="
M536.000000,299.000000 
	C358.833374,299.000000 182.166733,298.986145 5.500184,299.093719 
	C1.751130,299.096008 0.900442,298.250122 0.905111,294.500000 
	C1.025239,198.000183 1.023291,101.500145 0.904404,5.000315 
	C0.900186,1.576616 1.575887,0.904099 4.999844,0.905670 
	C232.333084,1.009953 459.666351,1.009942 686.999573,0.905747 
	C690.422363,0.904178 691.099854,1.574876 691.095642,4.999753 
	C690.976685,101.666252 690.976807,198.332962 691.095642,294.999451 
	C691.099792,298.422638 690.426331,299.107269 687.000122,299.097565 
	C636.833740,298.955597 586.666809,299.000000 536.000000,299.000000 
z"/>
<path fill="#141313" opacity="1.000000" stroke="none" 
	d="
M487.858521,199.411835 
	C487.968018,198.145721 488.007050,197.274933 489.157104,197.245880 
	C490.655518,197.208023 490.510681,198.307785 490.624176,199.295135 
	C490.884338,201.558304 489.498657,204.794983 491.382172,205.862900 
	C493.426178,207.021820 496.508545,206.456528 499.138275,206.458679 
	C530.276123,206.484146 561.414368,206.546402 592.551392,206.384903 
	C596.448792,206.364700 597.548950,207.324219 597.510925,211.303528 
	C597.303955,232.960861 597.308838,254.622192 597.509399,276.279663 
	C597.545044,280.121338 596.429504,280.899872 592.768005,280.882477 
	C560.785400,280.730286 528.801147,280.890656 496.819092,280.689209 
	C492.116577,280.659607 489.484497,281.352417 490.593536,286.711884 
	C490.758575,287.509308 490.605713,288.372772 490.597900,289.205688 
	C490.589355,290.116608 490.309601,290.855072 489.265717,290.926544 
	C488.161957,291.002075 487.913818,290.246246 487.874939,289.344452 
	C487.867767,289.178101 487.877686,289.009735 487.855469,288.845551 
	C487.505341,286.257690 489.166656,282.524658 487.070038,281.326080 
	C484.783142,280.018738 481.257050,280.806000 478.271088,280.805359 
	C412.642151,280.791260 347.013000,280.854828 281.384583,280.671356 
	C276.538544,280.657806 274.701874,281.837830 275.563507,286.626953 
	C275.737183,287.592377 275.592468,288.622375 275.536713,289.619354 
	C275.495758,290.351440 275.082397,290.836273 274.323425,290.915497 
	C273.221039,291.030579 272.909821,290.343445 272.867737,289.412689 
	C272.860229,289.246338 272.866699,289.078094 272.843628,288.913940 
	C272.480988,286.332489 274.164825,282.624817 272.048676,281.405334 
	C269.763885,280.088654 266.248474,280.809784 263.269836,280.808929 
	C197.640884,280.790161 132.011810,280.850555 66.383286,280.681946 
	C61.453823,280.669281 58.996639,281.472595 59.861389,286.947449 
	C60.052662,288.158386 61.247749,290.828522 58.526337,290.831329 
	C55.824036,290.834106 57.129272,288.265656 57.125336,286.927612 
	C57.041634,258.438354 57.061787,229.948807 57.062302,201.459320 
	C57.062317,200.626328 57.032566,199.791153 57.082462,198.960953 
	C57.131042,198.152710 57.142952,197.315536 58.314339,197.216644 
	C59.765160,197.094177 59.837814,198.024780 59.974220,199.076874 
	C60.287128,201.490250 58.687237,204.968933 60.792133,206.082550 
	C63.022079,207.262299 66.317108,206.475983 69.146736,206.467926 
	C101.440475,206.376038 133.734161,206.186615 166.027863,206.188202 
	C199.658615,206.189865 233.290268,206.275116 266.919128,206.584946 
	C271.675262,206.628769 273.649658,205.466354 272.911957,200.588837 
	C272.751221,199.526108 272.064819,197.480499 274.018005,197.349152 
	C276.575104,197.177185 275.682159,199.544724 275.508728,200.662399 
	C274.741425,205.608429 276.759949,206.637177 281.503296,206.591141 
	C314.794525,206.268051 348.088898,206.185608 381.382263,206.185623 
	C414.679810,206.185623 447.977325,206.374435 481.274872,206.472137 
	C487.850616,206.491440 487.850677,206.473938 487.858521,199.411835 
z"/>
<path fill="#141313" opacity="1.000000" stroke="none" 
	d="
M332.996460,110.794617 
	C315.507050,110.794617 298.515137,110.968178 281.531036,110.680138 
	C276.928589,110.602081 274.587341,111.426865 275.562561,116.483192 
	C275.748016,117.444672 275.581268,118.477028 275.552612,119.475990 
	C275.524414,120.460892 275.015778,120.978981 274.009857,120.951965 
	C273.171295,120.929451 272.927673,120.368584 272.874969,119.656700 
	C272.850372,119.324806 272.874084,118.988724 272.839905,118.658257 
	C272.026947,110.794525 272.026062,110.794609 264.012054,110.794609 
	C198.045593,110.794609 132.079025,110.844688 66.112938,110.689293 
	C61.385918,110.678154 58.846771,111.396996 59.936642,116.708252 
	C60.133064,117.665466 59.971916,118.702385 59.928226,119.700417 
	C59.896778,120.418694 59.582588,120.920509 58.760517,120.971321 
	C57.803345,121.030479 57.146061,120.721634 57.098801,119.675415 
	C57.053715,118.677483 57.063141,117.676712 57.063087,116.677185 
	C57.061550,88.352455 57.061787,60.027729 57.062130,31.703003 
	C57.062141,30.869905 57.047565,30.036222 57.073479,29.203861 
	C57.106030,28.158440 57.220078,27.193518 58.687546,27.320305 
	C59.837925,27.419693 59.843094,28.249647 59.960876,29.064959 
	C60.309490,31.478058 58.692799,34.968098 60.781914,36.080982 
	C63.005421,37.265453 66.305573,36.475941 69.135414,36.467892 
	C101.431252,36.376007 133.727036,36.186619 166.022842,36.188217 
	C199.655777,36.189880 233.289612,36.275101 266.920654,36.584885 
	C271.677765,36.628704 273.655365,35.463737 272.907776,30.588148 
	C272.744202,29.521547 272.090393,27.465527 274.116211,27.431448 
	C276.580536,27.389990 275.651245,29.695627 275.507660,30.820593 
	C274.932739,35.324627 276.501434,36.634468 281.160248,36.589916 
	C314.453735,36.271538 347.750214,36.187645 381.045746,36.188053 
	C414.678680,36.188465 448.312561,36.273197 481.943512,36.587975 
	C486.652374,36.632046 488.747131,35.645817 487.922638,30.678185 
	C487.745361,29.610117 487.091125,27.591188 489.039459,27.434233 
	C491.664612,27.222757 490.701721,29.620253 490.531555,30.700716 
	C489.743286,35.706852 491.881165,36.621342 496.559052,36.589420 
	C528.530518,36.371243 560.504517,36.534283 592.476868,36.395752 
	C596.228760,36.379498 597.565430,37.097679 597.521118,41.229614 
	C597.289062,62.887859 597.322266,84.550652 597.499634,106.209938 
	C597.529968,109.909798 596.658142,110.915749 592.837219,110.894966 
	C560.519531,110.719147 528.199707,110.897919 495.882629,110.675362 
	C491.400208,110.644493 489.853241,111.844406 490.592285,116.148827 
	C490.758850,117.119072 490.615082,118.143898 490.601135,119.143417 
	C490.588959,120.016571 490.414032,120.824089 489.359680,120.948677 
	C487.827545,121.129715 487.953827,119.998169 487.848328,119.007195 
	C487.570862,116.401466 489.125580,112.652893 487.158386,111.454132 
	C484.939209,110.101814 481.397247,110.812164 478.430511,110.810768 
	C430.119293,110.787979 381.808105,110.794617 332.996460,110.794617 
z"/>
<path fill="#101010" opacity="1.000000" stroke="none" 
	d="
M368.026672,171.026474 
	C366.778625,170.987442 365.732635,171.064194 365.713623,169.960220 
	C365.630890,165.150833 365.651550,160.339600 365.644135,155.529037 
	C365.641418,153.763535 367.028107,153.662384 368.075348,153.982880 
	C370.312408,154.667542 372.315125,154.131836 374.522675,153.803680 
	C377.092896,153.421616 379.816101,154.502701 379.323669,150.139816 
	C379.139709,148.510056 380.992889,149.038742 382.043488,148.924210 
	C383.362213,148.780441 384.323273,149.086777 384.193329,150.746872 
	C384.059265,152.459122 384.032013,153.843109 386.528595,154.122726 
	C388.323334,154.323700 388.051392,155.974777 386.912262,157.022568 
	C383.199554,160.437653 383.002136,164.173904 386.658142,167.117416 
	C387.627106,167.897537 387.692505,168.692612 387.669617,169.660110 
	C387.635895,171.084549 386.520111,170.974136 385.548706,171.107910 
	C381.317963,171.690506 379.433350,170.106644 379.202209,165.690033 
	C379.141541,164.531387 379.448761,163.290115 379.130127,162.223236 
	C378.653656,160.627991 380.708252,157.500168 377.503815,157.657883 
	C374.881531,157.786942 371.127960,157.828049 370.804291,162.078781 
	C370.640839,164.224960 370.571442,166.382416 370.565735,168.535065 
	C370.561798,170.027023 370.374176,171.214127 368.026672,171.026474 
z"/>
<path fill="#212121" opacity="1.000000" stroke="none" 
	d="
M280.417175,140.293854 
	C281.006592,137.805832 279.058746,134.022720 281.877350,134.009033 
	C284.460205,133.996506 283.103729,137.793503 283.148163,139.833359 
	C283.332672,148.300522 283.405029,156.779526 283.146027,165.242783 
	C283.026062,169.162994 283.454071,171.866226 289.052612,170.662628 
	C286.758728,175.305328 284.823273,179.222595 282.567596,183.787979 
	C280.256927,179.294113 278.252136,175.395081 276.011810,171.038010 
	C279.989471,171.332291 280.542847,169.254379 280.478119,166.162766 
	C280.300842,157.695297 280.417114,149.221695 280.417175,140.293854 
z"/>
<path fill="#131313" opacity="1.000000" stroke="none" 
	d="
M311.313263,170.839783 
	C310.806122,165.861313 310.704956,161.049210 310.608490,156.237000 
	C310.583679,154.999100 310.857880,153.408676 312.345825,154.016708 
	C315.371918,155.253220 318.043945,153.491547 320.880005,153.586823 
	C323.877289,153.687531 326.093445,154.950516 326.330505,158.216278 
	C326.582916,161.693268 326.542236,165.190536 326.728485,168.673676 
	C326.842712,170.809601 325.669617,171.038132 323.934845,171.077347 
	C322.118439,171.118454 321.658173,170.342300 321.703461,168.705582 
	C321.772461,166.212311 321.798065,163.707169 321.628021,161.221710 
	C321.515045,159.571121 321.205017,157.745941 318.934814,157.696426 
	C316.539093,157.644165 315.844910,159.297012 315.725555,161.297592 
	C315.606781,163.288239 315.385895,165.312164 315.612213,167.275085 
	C315.975983,170.430298 314.785950,171.604431 311.313263,170.839783 
z"/>
<path fill="#101010" opacity="1.000000" stroke="none" 
	d="
M350.713501,170.404846 
	C346.045319,167.395630 345.574860,163.300156 346.996765,158.880783 
	C348.207336,155.118149 351.326843,153.608063 355.091003,153.533005 
	C358.358765,153.467850 360.748810,155.005630 362.197540,157.994904 
	C364.351257,162.438766 363.530701,163.820175 358.651184,163.847260 
	C357.491333,163.853699 356.328491,163.796906 355.172424,163.863281 
	C354.063141,163.926987 352.772217,163.427917 351.931274,164.406738 
	C351.679565,164.699783 351.948090,165.725708 352.288177,166.187775 
	C353.319244,167.588593 354.822693,167.682465 356.303986,167.090500 
	C358.236267,166.318329 359.912079,164.632751 362.262695,165.636398 
	C361.100861,170.928650 358.594025,172.049149 350.713501,170.404846 
z"/>
<path fill="#0B0B0B" opacity="1.000000" stroke="none" 
	d="
M415.092407,163.988190 
	C413.964142,166.041397 411.014740,166.469574 412.031830,169.528488 
	C412.464050,170.828339 411.211761,171.078461 410.141479,171.010254 
	C409.059082,170.941238 407.296112,171.340927 407.482605,169.697815 
	C408.021851,164.947098 404.843018,165.921097 402.139130,165.796661 
	C400.773041,165.733795 398.825867,166.695221 398.148529,164.939926 
	C397.515045,163.298386 397.570496,161.417618 398.856476,159.768127 
	C401.506866,156.368500 404.128479,152.937500 406.568024,149.386200 
	C407.792175,147.604233 409.429474,147.808945 410.980499,148.080627 
	C412.951508,148.425858 411.827026,150.212540 412.076416,151.350281 
	C412.215363,151.984238 412.094299,152.673706 412.102600,153.338013 
	C412.148651,157.023804 411.228699,160.994003 415.092407,163.988190 
z"/>
<path fill="#0E0E0E" opacity="1.000000" stroke="none" 
	d="
M329.580261,168.177872 
	C328.599304,163.041504 331.644165,165.080368 333.419861,165.812149 
	C334.312714,166.180084 334.764374,167.664581 336.052032,167.858124 
	C337.261169,168.039917 338.509338,168.008575 339.075226,166.733856 
	C339.813416,165.070953 338.256531,164.756760 337.289703,164.401154 
	C335.580902,163.772705 333.696289,163.587875 332.036011,162.869141 
	C328.964325,161.539368 328.420227,159.109726 329.940857,156.299118 
	C331.458771,153.493607 334.333740,153.522217 336.975891,153.541870 
	C339.497711,153.560623 342.019623,153.990402 343.410095,156.573013 
	C343.787292,157.273636 344.414948,158.344147 343.586853,158.728043 
	C342.621552,159.175537 341.339722,159.034943 340.201019,158.992813 
	C338.201965,158.918854 335.575134,155.113113 334.613586,158.279678 
	C333.839020,160.830536 338.163422,159.914474 340.106232,160.713821 
	C342.651245,161.760925 344.710724,162.834244 344.480133,165.884659 
	C344.250092,168.927780 342.468597,170.805939 339.403198,171.082550 
	C335.924438,171.396515 332.325317,171.842773 329.580261,168.177872 
z"/>
<path fill="#131313" opacity="1.000000" stroke="none" 
	d="
M423.592834,161.995239 
	C423.301117,166.421799 422.648895,170.322647 420.945648,174.016251 
	C419.814514,176.469223 418.324738,177.798187 415.285492,176.412140 
	C419.540161,166.829742 419.726501,157.186951 415.222351,147.538437 
	C418.206573,146.039597 419.774536,147.293915 420.958984,149.975479 
	C422.599091,153.688736 423.360535,157.560059 423.592834,161.995239 
z"/>
<path fill="#101010" opacity="1.000000" stroke="none" 
	d="
M397.135742,174.634796 
	C396.564545,177.214935 394.883545,177.630859 393.304108,175.988724 
	C388.544678,171.040344 388.482483,153.234756 393.154114,147.993286 
	C394.543854,146.434067 396.068756,146.929886 397.866577,147.351883 
	C393.861938,156.250565 393.323792,165.204422 397.135742,174.634796 
z"/>
<path fill="#0B0B0B" opacity="1.000000" stroke="none" 
	d="
M302.137878,169.628387 
	C302.110657,165.207336 302.152435,161.253723 302.089233,157.301758 
	C302.058105,155.355820 301.980133,153.827988 304.790466,153.847275 
	C307.479736,153.865723 307.105743,155.445572 307.104675,157.063095 
	C307.102448,160.521912 306.983582,163.985992 307.133911,167.438263 
	C307.331879,171.985046 305.214600,171.821884 302.137878,169.628387 
z"/>
<path fill="#1B1A18" opacity="1.000000" stroke="none" 
	d="
M634.945496,251.074097 
	C636.858582,251.285187 639.424805,249.096451 639.944092,252.416351 
	C640.106689,253.455933 640.576538,254.915085 639.513062,255.646164 
	C638.257019,256.509613 636.433350,256.459442 635.281738,255.790451 
	C633.594910,254.810486 634.507385,252.879135 634.945496,251.074097 
z"/>
<path fill="#1B1A18" opacity="1.000000" stroke="none" 
	d="
M637.196838,80.687225 
	C640.662598,80.349754 639.915405,82.578300 640.001343,84.261101 
	C640.110352,86.394707 638.558228,86.046028 637.303772,86.030800 
	C636.067322,86.015793 634.450806,86.435547 634.440247,84.366974 
	C634.431580,82.675125 633.761963,80.460457 637.196838,80.687225 
z"/>
<path fill="#000000" opacity="1.000000" stroke="none" 
	d="
M612.996704,84.811424 
	C612.523865,81.632271 613.444336,80.413506 616.399658,80.721153 
	C619.300720,81.023163 618.504639,83.319969 618.103027,84.413124 
	C617.105103,87.128738 614.947144,86.190125 612.996704,84.811424 
z"/>
<path fill="#000000" opacity="1.000000" stroke="none" 
	d="
M624.225525,85.619469 
	C624.413391,83.741829 622.211304,80.939255 625.802124,80.818092 
	C627.048767,80.776016 629.065918,79.907555 629.060974,82.514511 
	C629.057678,84.262146 629.628906,86.424416 626.561829,86.006714 
	C625.907227,85.917572 625.234619,85.960472 624.225525,85.619469 
z"/>
<path fill="#000000" opacity="1.000000" stroke="none" 
	d="
M612.963562,253.876389 
	C612.579590,251.069427 613.818176,250.550018 615.836182,250.746292 
	C616.992615,250.858765 618.345215,250.629135 618.205383,252.399063 
	C618.109436,253.613861 618.961792,255.555542 617.282043,255.806549 
	C615.931274,256.008392 613.461304,257.450958 612.963562,253.876389 
z"/>
<path fill="#000000" opacity="1.000000" stroke="none" 
	d="
M625.044922,255.968124 
	C623.549561,254.030334 622.695984,251.905563 625.397217,250.909943 
	C626.450439,250.521759 628.794067,249.625885 629.110107,252.559769 
	C629.426575,255.497528 628.237976,256.445892 625.044922,255.968124 
z"/>
<path fill="#212121" opacity="1.000000" stroke="none" 
	d="
M304.204803,151.814911 
	C301.485077,151.512726 301.825989,149.808533 302.282501,148.449844 
	C302.745605,147.071579 304.224823,147.569489 305.323059,147.499756 
	C306.537659,147.422638 307.066772,148.030319 307.162842,149.252151 
	C307.313507,151.169281 306.585449,152.075226 304.204803,151.814911 
z"/>
<path fill="#F6EFDB" opacity="1.000000" stroke="none" 
	d="
M462.000061,209.188721 
	C469.498840,209.188797 476.501129,209.317154 483.494690,209.126617 
	C486.341827,209.049042 487.140289,209.933792 487.125122,212.761490 
	C487.014587,233.423950 487.012207,254.087570 487.128143,274.749969 
	C487.143585,277.503845 486.172028,278.009735 483.695374,277.993134 
	C469.031952,277.894653 454.366516,277.855347 439.704193,278.017090 
	C436.645233,278.050812 436.265137,276.858032 436.276611,274.253418 
	C436.366364,253.924026 436.406494,233.593445 436.246887,213.264908 
	C436.220215,209.872131 437.290375,209.020599 440.505829,209.121277 
	C447.497772,209.340195 454.501282,209.188766 462.000061,209.188721 
z"/>
<path fill="#F6EFDB" opacity="1.000000" stroke="none" 
	d="
M221.571503,210.146332 
	C231.704102,208.538895 241.679611,209.444901 251.636978,209.213440 
	C257.463531,209.077988 263.297516,209.269135 269.124695,209.147552 
	C271.259857,209.102997 272.033173,209.720062 272.026215,211.942551 
	C271.959869,233.095917 271.967285,254.249619 272.019196,275.403046 
	C272.023895,277.321747 271.449951,277.987885 269.479736,277.979309 
	C254.322723,277.913452 239.164566,277.861633 224.008621,278.004425 
	C220.582230,278.036743 221.341843,275.893036 221.341339,274.060852 
	C221.335587,252.907654 221.362198,231.754471 221.571503,210.146332 
z"/>
<path fill="#F5EED9" opacity="1.000000" stroke="none" 
	d="
M573.999817,277.948364 
	C565.000183,277.948273 556.498352,277.842499 548.001892,278.008362 
	C545.223206,278.062592 544.328552,277.331207 544.345886,274.434235 
	C544.468628,253.935654 544.476990,233.435562 544.342590,212.937103 
	C544.321411,209.706467 545.531006,209.103195 548.427002,209.128494 
	C562.592102,209.252289 576.760010,209.277557 590.924255,209.112289 
	C594.055298,209.075775 594.842773,210.023712 594.823792,213.067993 
	C594.696899,233.399872 594.696228,253.733307 594.825317,274.065155 
	C594.844360,277.063721 594.191223,278.179962 590.995605,278.022827 
	C585.509033,277.753052 579.999573,277.948303 573.999817,277.948364 
z"/>
<path fill="#F8F1DC" opacity="1.000000" stroke="none" 
	d="
M177.997131,209.195648 
	C190.473328,209.195770 202.450531,209.288086 214.424484,209.130936 
	C217.398697,209.091888 218.443527,209.807388 218.423080,212.962662 
	C218.290558,233.420822 218.306259,253.880508 218.414062,274.338959 
	C218.428558,277.088501 217.796066,278.039093 214.872498,278.009064 
	C200.403030,277.860291 185.929504,277.823639 171.461426,278.029724 
	C168.122452,278.077301 167.759323,276.817444 167.773788,274.007599 
	C167.876450,254.048111 167.974564,234.085922 167.713181,214.129349 
	C167.656189,209.778122 169.044983,208.571304 173.011169,209.160599 
	C174.475830,209.378235 175.999954,209.195694 177.997131,209.195648 
z"/>
<path fill="#F8F1DC" opacity="1.000000" stroke="none" 
	d="
M387.127380,277.941528 
	C384.205322,278.221924 382.730042,277.928070 382.753479,274.687592 
	C382.902740,254.060822 382.872894,233.432220 382.776459,212.804810 
	C382.763733,210.079285 383.404633,209.097015 386.336731,209.127655 
	C400.807922,209.278885 415.282227,209.270767 429.753693,209.133469 
	C432.619965,209.106277 433.418518,210.006104 433.405762,212.793228 
	C433.311157,233.420654 433.284332,254.049210 433.427582,274.676056 
	C433.449921,277.895081 431.970642,277.990936 429.534882,277.977905 
	C415.561584,277.903015 401.587646,277.941528 387.127380,277.941528 
z"/>
<path fill="#F8F1DC" opacity="1.000000" stroke="none" 
	d="
M60.036972,270.918121 
	C60.036983,251.454849 60.124260,232.482101 59.956059,213.511627 
	C59.926006,210.122421 60.658710,209.047318 64.238091,209.103271 
	C78.546783,209.326965 92.862137,209.289444 107.172340,209.121002 
	C110.229416,209.085022 111.042191,209.853714 111.019188,212.951828 
	C110.868484,233.254044 110.874336,253.558380 111.012108,273.860779 
	C111.033546,277.020325 110.344177,278.079041 106.972977,278.027222 
	C93.496071,277.820190 80.014114,277.941895 66.534027,277.941803 
	C60.038364,277.941742 60.038364,277.941589 60.036972,270.918121 
z"/>
<path fill="#F6EFDA" opacity="1.000000" stroke="none" 
	d="
M164.750092,268.999390 
	C164.749680,277.945251 164.749680,277.945282 156.174606,277.945251 
	C143.363998,277.945251 130.551697,277.832550 117.743988,278.025818 
	C114.616318,278.073059 113.892921,277.202179 113.913918,274.156525 
	C114.053856,253.860138 114.059120,233.561813 113.912392,213.265533 
	C113.888954,210.023651 114.713066,209.065170 118.024429,209.108856 
	C132.163544,209.295425 146.308304,209.309296 160.446915,209.104095 
	C164.023102,209.052200 164.853958,210.184387 164.824509,213.595657 
	C164.666595,231.895172 164.750000,250.196777 164.750092,268.999390 
z"/>
<path fill="#F7F0DB" opacity="1.000000" stroke="none" 
	d="
M275.593750,223.005737 
	C275.866760,218.231049 273.776581,212.664932 276.463562,210.016724 
	C279.143860,207.375122 284.694061,209.270126 288.978973,209.227158 
	C299.962769,209.116989 310.951202,209.328201 321.931671,209.107971 
	C325.298279,209.040451 326.036591,210.107330 326.014557,213.302063 
	C325.874725,233.606537 325.864807,253.913055 326.025085,274.217224 
	C326.050201,277.397278 325.112793,278.047424 322.118317,278.013947 
	C307.972870,277.855804 293.823486,277.847412 279.678314,278.016571 
	C276.473938,278.054871 275.479584,277.265442 275.514221,273.934113 
	C275.688934,257.125671 275.594086,240.314468 275.593750,223.005737 
z"/>
<path fill="#F6EFDA" opacity="1.000000" stroke="none" 
	d="
M337.076904,209.187668 
	C349.878296,209.187668 362.194916,209.353561 374.502472,209.092224 
	C378.483093,209.007690 379.907837,209.823944 379.855591,214.149994 
	C379.616577,233.947891 379.674255,253.750885 379.825592,273.550507 
	C379.850800,276.846375 379.303864,278.105377 375.607727,278.042633 
	C361.468384,277.802551 347.320312,277.809418 333.180634,278.039642 
	C329.557495,278.098602 328.875885,276.970581 328.905579,273.594177 
	C329.072418,254.626831 328.985931,235.657242 328.985962,216.688431 
	C328.985962,209.187836 328.985992,209.187836 337.076904,209.187668 
z"/>
<path fill="#F5EED9" opacity="1.000000" stroke="none" 
	d="
M541.756958,224.010742 
	C541.756897,240.822983 541.675598,257.138397 541.825867,273.451660 
	C541.855713,276.695160 541.388428,278.106323 537.612427,278.043396 
	C523.299438,277.804871 508.979034,277.853943 494.664093,278.022217 
	C491.610535,278.058075 490.755096,277.304657 490.777679,274.188202 
	C490.924774,253.879196 490.929657,233.568008 490.775970,213.259094 
	C490.750977,209.957062 491.668701,209.070465 494.938721,209.110336 
	C509.253510,209.284912 523.572571,209.271393 537.887878,209.117111 
	C540.951538,209.084091 542.050232,209.908722 541.816528,213.029617 
	C541.556213,216.506119 541.756897,220.017136 541.756958,224.010742 
z"/>
<path fill="#F6EFDB" opacity="1.000000" stroke="none" 
	d="
M487.065857,82.000000 
	C487.065765,89.665413 486.955933,96.833351 487.120605,103.994972 
	C487.184875,106.789299 486.822662,108.084503 483.448639,108.035156 
	C468.954254,107.823158 454.454559,107.883560 439.958008,107.999458 
	C437.275940,108.020897 436.235718,107.497223 436.255463,104.507278 
	C436.390808,84.011765 436.390411,63.514519 436.258270,43.018959 
	C436.238037,39.880157 437.227570,39.093693 440.250244,39.124271 
	C454.579620,39.269238 468.912384,39.284576 483.241180,39.113251 
	C486.346130,39.076130 487.175934,39.938072 487.136047,43.007713 
	C486.969269,55.836609 487.065826,68.668930 487.065857,82.000000 
z"/>
<path fill="#F6EFDB" opacity="1.000000" stroke="none" 
	d="
M234.008224,107.944794 
	C229.539841,107.709473 224.101608,109.654427 222.002625,107.184319 
	C219.998489,104.825821 221.344101,99.561905 221.337677,95.574951 
	C221.309708,78.253189 221.412766,60.930546 221.251709,43.610233 
	C221.219833,40.184551 222.079102,39.054165 225.655685,39.105446 
	C239.810043,39.308388 253.970016,39.278427 268.125427,39.117115 
	C271.145294,39.082699 272.085999,39.784073 272.063354,42.942112 
	C271.916443,63.427429 271.935883,83.914604 272.049164,104.400352 
	C272.064575,107.192986 271.341461,108.051773 268.482910,108.011017 
	C257.159424,107.849564 245.832291,107.944748 234.008224,107.944794 
z"/>
<path fill="#F5EED9" opacity="1.000000" stroke="none" 
	d="
M594.758118,90.997772 
	C594.757935,95.830475 594.642883,100.167908 594.802185,104.495247 
	C594.892517,106.949448 594.382385,108.036781 591.567200,108.010811 
	C576.902222,107.875519 562.234375,107.859550 547.569946,108.022682 
	C544.657227,108.055099 544.368652,106.864075 544.375732,104.502892 
	C544.437317,84.003677 544.473999,63.503807 544.344421,43.005226 
	C544.324524,39.856400 545.356812,39.091274 548.359070,39.121368 
	C562.523926,39.263348 576.692993,39.315350 590.855835,39.094372 
	C594.483704,39.037769 594.830566,40.538670 594.809753,43.500065 
	C594.699585,59.165485 594.758118,74.832092 594.758118,90.997772 
z"/>
<path fill="#F6EFDB" opacity="1.000000" stroke="none" 
	d="
M328.987183,102.874619 
	C328.987183,82.752724 329.078064,63.118282 328.903046,43.486214 
	C328.871765,39.976490 329.812531,39.051991 333.305389,39.103714 
	C347.278809,39.310631 361.259949,39.344761 375.231750,39.088913 
	C379.132568,39.017487 379.861023,40.285789 379.830414,43.883003 
	C379.660522,63.847961 379.648529,83.816078 379.840363,103.780640 
	C379.875305,107.415932 378.696777,108.064568 375.376343,108.021355 
	C361.402252,107.839508 347.421204,107.780167 333.449982,108.051102 
	C329.584442,108.126068 328.334656,106.973083 328.987183,102.874619 
z"/>
<path fill="#F8F1DC" opacity="1.000000" stroke="none" 
	d="
M423.972076,107.941513 
	C411.331879,107.941498 399.188507,107.866676 387.047272,107.995491 
	C384.108704,108.026665 382.700012,107.688683 382.734497,104.094261 
	C382.929230,83.803017 382.900269,63.508423 382.756287,43.216328 
	C382.733002,39.934826 383.684296,39.078281 386.923126,39.119205 
	C401.059509,39.297829 415.201202,39.315674 429.336853,39.110275 
	C432.784149,39.060184 433.427765,40.298801 433.410919,43.374493 
	C433.303558,63.001667 433.155090,82.633224 433.496216,102.255066 
	C433.583191,107.256645 432.086395,108.767502 427.459442,107.965912 
	C426.490509,107.798050 425.467682,107.941513 423.972076,107.941513 
z"/>
<path fill="#F8F1DC" opacity="1.000000" stroke="none" 
	d="
M206.002396,39.195667 
	C218.356750,39.195881 218.356842,39.195881 218.356735,51.007587 
	C218.356583,68.638901 218.270950,86.270996 218.432831,103.900818 
	C218.462845,107.168823 217.578644,108.060844 214.311874,108.019012 
	C200.175888,107.837990 186.035065,107.844688 171.898819,108.015221 
	C168.699005,108.053818 167.721817,107.270699 167.748383,103.945946 
	C167.909195,83.820930 167.904144,63.693409 167.753860,43.568222 
	C167.728714,40.199722 168.462006,39.024311 172.071152,39.105019 
	C183.209900,39.354107 194.357758,39.195778 206.002396,39.195667 
z"/>
<path fill="#F8F1DC" opacity="1.000000" stroke="none" 
	d="
M94.999664,39.195343 
	C100.483322,39.274921 107.249710,37.423939 109.979950,39.944630 
	C113.081306,42.807945 110.873703,49.640560 110.904831,54.740791 
	C111.004379,71.048256 110.830582,87.358063 111.030182,103.663689 
	C111.073051,107.165451 110.186211,108.085205 106.670692,108.031380 
	C92.529259,107.814865 78.380325,107.805321 64.239342,108.036079 
	C60.628437,108.095001 59.927338,107.001366 59.955273,103.606400 
	C60.120922,83.472282 60.112286,63.335556 59.960968,43.201218 
	C59.936577,39.956039 60.789333,39.045910 64.048851,39.115852 
	C74.195122,39.333569 84.349030,39.195469 94.999664,39.195343 
z"/>
<path fill="#F5EEDA" opacity="1.000000" stroke="none" 
	d="
M148.993317,39.186455 
	C153.483749,39.186707 157.483322,39.338291 161.464722,39.134769 
	C164.185196,38.995705 164.810898,40.074211 164.800964,42.601418 
	C164.719772,63.225533 164.696579,83.850464 164.820862,104.474152 
	C164.838745,107.439278 163.799408,108.023140 161.093918,108.001389 
	C146.624481,107.885048 132.153229,107.893486 117.683594,107.996002 
	C115.108376,108.014244 113.890335,107.690201 113.911598,104.600334 
	C114.053490,83.976875 114.037384,63.351681 113.924515,42.727863 
	C113.908951,39.884338 114.750359,39.083267 117.559013,39.125370 
	C127.868896,39.279907 138.182495,39.186520 148.993317,39.186455 
z"/>
<path fill="#F7F0DB" opacity="1.000000" stroke="none" 
	d="
M325.942871,75.000015 
	C325.942841,84.990425 325.860443,94.481987 325.994476,103.970505 
	C326.033203,106.713730 325.780457,108.086479 322.360596,108.035034 
	C307.878540,107.817184 293.390808,107.881516 278.906403,107.998726 
	C276.299774,108.019814 275.531036,107.275993 275.543427,104.657341 
	C275.641022,84.012016 275.644806,63.365784 275.544128,42.720482 
	C275.530029,39.827854 276.539062,39.114815 279.295746,39.138000 
	C293.780060,39.259815 308.266602,39.263290 322.750793,39.134766 
	C325.451019,39.110806 326.023346,40.034683 325.994629,42.532902 
	C325.872162,53.187397 325.942719,63.844105 325.942871,75.000015 
z"/>
<path fill="#F5EED9" opacity="1.000000" stroke="none" 
	d="
M499.069336,39.185490 
	C512.045288,39.185497 524.533936,39.311222 537.017090,39.105499 
	C540.558167,39.047138 541.903809,39.682110 541.859375,43.654957 
	C541.635986,63.630970 541.672791,83.611519 541.837219,103.588669 
	C541.865601,107.033394 541.039795,108.088554 537.475037,108.034935 
	C523.326843,107.822075 509.171204,107.808922 495.023621,108.041840 
	C491.350067,108.102310 490.749268,106.868866 490.777008,103.547516 
	C490.934021,84.735733 490.852875,65.921967 490.852844,47.108871 
	C490.852844,39.185658 490.852844,39.185658 499.069336,39.185490 
z"/>
<path fill="#C5C5C5" opacity="1.000000" stroke="none" 
	d="
M354.832855,157.210022 
	C356.512512,157.596237 358.058075,158.225388 357.833405,159.634979 
	C357.552460,161.397690 355.720581,160.551346 354.558044,160.631516 
	C353.518005,160.703217 351.896393,161.053574 351.764191,159.573593 
	C351.630493,158.077347 353.182190,157.611023 354.832855,157.210022 
z"/>
<path fill="#BBBBBB" opacity="1.000000" stroke="none" 
	d="
M407.633667,159.067108 
	C407.375916,163.137283 404.903839,161.631775 402.605225,161.726471 
	C403.426941,158.893829 405.163666,157.245590 406.760681,155.409042 
	C408.221649,156.410858 407.368591,157.676727 407.633667,159.067108 
z"/>
<path fill="#22211F" opacity="1.000000" stroke="none" 
	d="
M461.977905,248.627472 
	C460.118683,248.356140 457.902832,249.453217 457.858856,246.726791 
	C457.811920,243.813156 460.159027,245.328949 461.470215,244.946121 
	C461.772858,244.857773 462.149414,244.851410 462.447296,244.946823 
	C463.933838,245.422989 466.572723,243.715012 466.774902,246.468796 
	C467.021545,249.828522 464.042145,248.190948 461.977905,248.627472 
z"/>
<path fill="#22211F" opacity="1.000000" stroke="none" 
	d="
M251.726227,247.613861 
	C249.417358,249.201630 247.077225,248.429245 244.820618,248.599518 
	C243.358017,248.709885 242.809952,247.884262 242.813858,246.481857 
	C242.817734,245.090439 243.815796,244.591660 244.716110,245.000214 
	C247.022919,246.047058 250.795959,242.360596 251.726227,247.613861 
z"/>
<path fill="#22211F" opacity="1.000000" stroke="none" 
	d="
M565.701172,245.262970 
	C568.207336,245.017746 570.329773,244.979431 572.452393,244.948273 
	C574.489319,244.918381 574.716370,246.481873 573.971802,247.539337 
	C572.371582,249.812134 569.782837,248.302307 567.645142,248.570343 
	C565.347595,248.858398 564.855103,247.440964 565.701172,245.262970 
z"/>
<path fill="#141312" opacity="1.000000" stroke="none" 
	d="
M197.911346,245.450653 
	C198.347855,247.778778 197.912277,249.227295 195.539688,248.795120 
	C193.386124,248.402847 190.743622,250.044342 189.153732,247.801437 
	C188.433624,246.785538 188.320679,244.724335 190.819397,244.810318 
	C193.122055,244.889557 195.424332,244.980209 197.911346,245.450653 
z"/>
<path fill="#141312" opacity="1.000000" stroke="none" 
	d="
M405.562256,244.817688 
	C407.802734,244.808380 409.621521,244.844635 411.438843,244.808487 
	C413.169403,244.774078 413.152740,245.909180 413.118011,247.130600 
	C413.082153,248.392029 412.366272,248.943558 411.222076,248.792252 
	C408.857086,248.479477 406.175110,249.863998 404.199921,247.955490 
	C403.564484,247.341492 403.171051,245.383408 405.562256,244.817688 
z"/>
<path fill="#1B1A18" opacity="1.000000" stroke="none" 
	d="
M88.956238,234.155701 
	C89.428604,240.309113 89.478683,246.261002 89.657501,252.209015 
	C89.720619,254.308502 89.044518,255.147293 86.833923,255.099472 
	C84.255821,255.043716 85.027740,253.272324 84.972672,251.972717 
	C84.881561,249.822784 84.875824,247.663132 84.967216,245.513229 
	C85.064636,243.221527 85.217026,241.160126 81.810272,241.550140 
	C79.466995,241.818390 79.568924,238.785782 80.009422,238.738571 
	C83.636047,238.349792 84.681053,233.531921 88.956238,234.155701 
z"/>
<path fill="#0C0B0A" opacity="1.000000" stroke="none" 
	d="
M136.605896,239.565475 
	C137.730713,238.077469 138.760239,236.956116 139.482651,235.663162 
	C140.497650,233.846527 142.102310,233.651047 143.760788,233.996353 
	C146.040344,234.470993 144.685822,236.424820 144.967331,237.695572 
	C145.678925,240.907776 143.204956,244.900131 147.494293,247.290985 
	C148.138748,247.650192 148.048141,249.191742 147.074829,249.886124 
	C146.581680,250.237946 145.781723,250.199402 145.350433,250.590759 
	C144.058197,251.763321 146.600159,254.862442 143.003006,255.053146 
	C139.365051,255.246017 141.371521,252.152618 140.332016,250.895187 
	C139.057739,249.353760 137.231934,250.234711 135.667114,250.161911 
	C131.483688,249.967331 130.560547,248.338257 132.844421,244.679565 
	C133.896561,242.994003 135.189697,241.458878 136.605896,239.565475 
z"/>
<path fill="#121110" opacity="1.000000" stroke="none" 
	d="
M299.528381,251.029755 
	C302.060394,251.694595 303.477997,250.834229 303.984253,248.713348 
	C304.297699,247.400131 304.193695,246.080795 303.037323,245.061371 
	C301.506622,243.711929 300.051270,244.025833 298.530457,245.089249 
	C297.230927,245.997955 295.602692,246.377258 294.420258,245.356873 
	C293.314850,244.402954 294.201630,242.865204 294.401550,241.587311 
	C294.427002,241.424530 294.484741,241.265701 294.537445,241.108398 
	C295.308075,238.808960 294.212097,235.139404 296.534149,234.339417 
	C299.508942,233.314560 303.076111,233.989944 306.388214,233.972519 
	C307.765228,233.965271 307.904907,234.913818 307.841095,236.008759 
	C307.769470,237.237625 307.097015,237.769424 305.929901,237.780075 
	C304.269318,237.795227 302.606842,237.849091 300.948425,237.792038 
	C299.402771,237.738846 298.813385,238.572220 298.949524,239.924667 
	C299.116150,241.579803 300.378357,240.811417 301.215454,240.736786 
	C304.805939,240.416672 307.376831,241.651520 308.472076,245.284576 
	C309.498535,248.689301 308.591583,251.610657 305.852631,253.722046 
	C302.941406,255.966248 299.687683,255.670456 296.466919,254.212112 
	C294.622803,253.377106 293.850037,251.773621 293.338318,249.968338 
	C293.106812,249.151749 293.537567,248.717804 294.254883,248.551834 
	C296.484772,248.035812 298.104675,248.866623 299.528381,251.029755 
z"/>
<path fill="#0B0B0A" opacity="1.000000" stroke="none" 
	d="
M351.616638,254.914932 
	C346.181549,251.647263 345.428741,249.171112 348.840485,244.515396 
	C350.015839,242.911423 348.763794,242.716705 348.417358,241.868530 
	C347.394623,239.364441 347.363220,236.889191 349.737396,235.177765 
	C352.859833,232.926941 356.306061,232.990005 359.478638,235.008835 
	C361.834381,236.507919 362.415131,238.770462 361.287201,241.523193 
	C360.963562,242.312988 359.655304,242.677734 360.580383,244.341019 
	C364.383179,251.178177 361.795044,255.253036 354.001495,255.195251 
	C353.342010,255.190353 352.683411,255.072952 351.616638,254.914932 
z"/>
<path fill="#0F0F0D" opacity="1.000000" stroke="none" 
	d="
M517.241943,246.585800 
	C516.944763,243.474762 517.225220,240.813660 518.119690,238.285110 
	C519.247681,235.096588 521.691650,233.585892 525.041931,233.612473 
	C528.387024,233.639008 530.846130,235.163254 531.896484,238.379395 
	C532.996826,241.748474 533.147461,245.190948 532.359924,248.723434 
	C531.496277,252.597107 529.548767,255.040100 525.360107,255.195023 
	C520.978943,255.357071 518.539612,253.151978 517.724243,248.951126 
	C517.597412,248.297867 517.430237,247.652451 517.241943,246.585800 
z"/>
<path fill="#0C0B0A" opacity="1.000000" stroke="none" 
	d="
M515.965332,241.582794 
	C515.361511,244.002029 514.034058,245.449615 512.371704,246.632889 
	C510.788055,247.760117 509.188629,248.865173 507.793091,250.990555 
	C510.006775,250.990555 512.221008,251.020889 514.433899,250.978790 
	C515.695740,250.954773 516.209534,251.495758 516.206604,252.747772 
	C516.203613,254.005371 516.153992,255.040253 514.448792,255.019241 
	C510.454742,254.970001 506.459503,255.025146 502.465057,254.995239 
	C500.117523,254.977661 500.868011,253.196320 501.146240,252.131851 
	C501.857056,249.412369 503.961365,247.724899 506.149506,246.151337 
	C507.628510,245.087723 509.249359,244.122620 510.443817,242.788498 
	C511.767059,241.310516 512.160034,239.338791 510.131073,238.077011 
	C508.391663,236.995300 506.594330,237.790176 506.163513,239.631927 
	C505.583862,242.110031 503.983154,242.849747 502.235199,241.908218 
	C500.041534,240.726639 501.662842,238.642746 502.348999,237.269806 
	C504.107269,233.751678 507.366699,233.168640 510.878479,233.879883 
	C514.802673,234.674606 516.320007,237.337311 515.965332,241.582794 
z"/>
<path fill="#22211F" opacity="1.000000" stroke="none" 
	d="
M459.335236,78.572159 
	C457.204803,76.583618 456.862488,74.752228 460.158173,75.057381 
	C462.382568,75.263344 466.601471,73.036240 466.551788,76.635628 
	C466.499298,80.438065 462.121307,77.877907 459.335236,78.572159 
z"/>
<path fill="#22211F" opacity="1.000000" stroke="none" 
	d="
M250.412796,78.540131 
	C248.180603,78.601326 246.373276,78.611679 244.566437,78.586166 
	C242.972626,78.563660 242.316406,77.227036 242.924896,76.279144 
	C244.834183,73.304970 247.962708,75.031693 250.412109,75.150742 
	C252.793198,75.266457 252.344635,77.112495 250.412796,78.540131 
z"/>
<path fill="#22211F" opacity="1.000000" stroke="none" 
	d="
M570.051270,78.621346 
	C568.479065,78.562759 567.312439,78.634048 566.207947,78.405380 
	C565.282471,78.213791 565.172974,77.306900 565.159058,76.447319 
	C565.141785,75.382133 565.769531,75.021873 566.677429,74.989914 
	C567.983398,74.943954 569.315430,74.789948 570.591614,74.981064 
	C571.923950,75.180595 574.246948,73.841957 574.171021,76.745728 
	C574.100464,79.439987 571.901978,78.353493 570.051270,78.621346 
z"/>
<path fill="#1B1A18" opacity="1.000000" stroke="none" 
	d="
M358.222168,78.755966 
	C355.819366,78.822487 353.828613,78.835052 351.838104,78.817162 
	C350.240173,78.802811 350.066071,77.727219 350.037048,76.451851 
	C350.004913,75.040131 350.926208,74.976517 351.958679,74.782990 
	C357.462738,73.751266 359.470734,74.902481 358.222168,78.755966 
z"/>
<path fill="#141312" opacity="1.000000" stroke="none" 
	d="
M404.079315,77.953903 
	C403.970978,76.286346 403.510529,74.655151 405.667908,74.831642 
	C408.069092,75.028107 410.836273,73.820465 412.755707,75.508598 
	C413.722382,76.358734 413.810913,78.896111 411.049530,78.790390 
	C408.770081,78.703133 406.438263,79.313416 404.079315,77.953903 
z"/>
<path fill="#141312" opacity="1.000000" stroke="none" 
	d="
M194.767456,74.801224 
	C196.624527,74.844513 198.259018,74.419258 198.161362,76.873917 
	C198.082169,78.864639 196.872894,78.858322 195.484543,78.821098 
	C195.154205,78.812241 194.788116,78.914902 194.498581,78.806183 
	C192.653519,78.113358 189.138901,80.651077 189.070038,76.842735 
	C188.999725,72.954216 192.557663,75.535965 194.767456,74.801224 
z"/>
<path fill="#1B1A18" opacity="1.000000" stroke="none" 
	d="
M89.631905,81.643509 
	C89.821571,84.077736 89.265877,85.120018 86.945969,85.112373 
	C84.404816,85.104012 84.992599,83.454376 84.962143,82.090179 
	C84.910477,79.775200 84.875648,77.455353 84.968407,75.142960 
	C85.056107,72.956825 85.006027,71.082420 81.947571,71.577263 
	C80.896446,71.747337 79.971039,71.469391 79.831398,70.135307 
	C79.693108,68.814003 79.932671,67.916695 81.563286,67.810951 
	C82.334793,67.760918 83.158745,67.324730 83.810265,66.856583 
	C85.390770,65.720909 86.239082,62.471996 88.799911,64.234169 
	C90.675377,65.524719 89.511902,68.211967 89.592918,70.263268 
	C89.736450,73.897217 89.632889,77.540924 89.631905,81.643509 
z"/>
<path fill="#0E0E0D" opacity="1.000000" stroke="none" 
	d="
M133.593033,69.523697 
	C134.279846,67.452492 133.277252,64.627945 135.276657,64.262436 
	C138.646927,63.646328 142.206909,64.003555 145.683670,64.089676 
	C146.366852,64.106598 146.500732,64.994858 146.471695,65.692947 
	C146.435989,66.551346 146.292252,67.371025 145.350586,67.661880 
	C144.888367,67.804642 144.343201,67.668060 143.871826,67.793816 
	C141.840500,68.335823 138.169403,66.410973 138.013519,69.307831 
	C137.820190,72.900497 141.501068,69.920189 143.343445,70.875107 
	C146.666077,72.597252 147.819504,75.197380 147.414444,78.585724 
	C146.910294,82.802963 144.351715,85.065384 140.084305,85.222420 
	C136.484924,85.354858 133.525803,84.287422 132.211960,80.541344 
	C131.918030,79.703300 131.910004,78.750931 132.974396,78.585716 
	C134.250717,78.387611 135.913071,78.027718 136.676712,79.283539 
	C138.144318,81.697006 139.864868,82.173058 141.903915,80.346741 
	C143.253098,79.138321 143.448532,77.382301 142.388397,75.806641 
	C140.997498,73.739410 139.187469,73.643845 137.271561,75.107216 
	C136.082489,76.015434 134.290588,76.295563 133.552460,75.574112 
	C131.923935,73.982414 133.252640,71.855103 133.593033,69.523697 
z"/>
<path fill="#0B0B0A" opacity="1.000000" stroke="none" 
	d="
M306.599701,83.636383 
	C302.664185,85.789803 298.971588,85.942734 295.483429,83.689156 
	C293.550079,82.440086 291.991974,79.282196 293.199341,78.194397 
	C297.597565,74.231911 290.621399,67.345238 297.120514,64.444359 
	C300.142761,63.095375 303.314758,63.054436 306.040558,65.211098 
	C308.492493,67.151077 308.729645,69.708992 307.031586,72.271645 
	C306.386108,73.245804 306.263123,73.688484 307.164581,74.593483 
	C310.114166,77.554535 309.314209,80.531898 306.599701,83.636383 
z"/>
<path fill="#0F0F0D" opacity="1.000000" stroke="none" 
	d="
M526.617432,85.076950 
	C521.725403,85.607361 518.907166,83.800438 517.777893,79.299515 
	C516.232361,73.139191 517.511292,66.571205 521.074097,64.642265 
	C524.266663,62.913822 527.571533,63.021019 530.267273,65.704742 
	C535.120361,70.536263 533.164795,81.836128 526.617432,85.076950 
z"/>
<path fill="#0C0B0A" opacity="1.000000" stroke="none" 
	d="
M505.204987,85.015533 
	C500.557770,84.733673 499.926025,83.595589 502.029266,80.136795 
	C503.185028,78.236099 504.973145,77.014427 506.728027,75.754295 
	C507.803558,74.982040 508.908875,74.242012 509.919403,73.390839 
	C511.144562,72.358856 511.744812,71.005928 511.253693,69.407967 
	C510.940857,68.390099 510.157257,67.732460 509.045532,67.694504 
	C507.276550,67.634125 506.241913,68.599625 505.914825,70.267586 
	C505.424347,72.768967 503.476135,72.450859 502.044006,71.898956 
	C500.217590,71.195122 501.524170,69.569603 501.831390,68.485283 
	C502.768158,65.179115 505.268616,63.720699 508.555664,63.628471 
	C511.784668,63.537872 514.584717,64.583405 515.700684,67.881851 
	C516.753845,70.994926 515.909424,73.812660 513.275574,75.899864 
	C511.464752,77.334915 509.550598,78.639664 506.330475,80.989296 
	C509.901886,80.989296 512.075500,81.041031 514.245239,80.971710 
	C515.775146,80.922836 516.204468,81.603844 516.227844,83.052528 
	C516.253113,84.625015 515.563721,85.051788 514.148987,85.027069 
	C511.324738,84.977715 508.499054,85.014389 505.204987,85.015533 
z"/>
<path fill="#CEC8B7" opacity="1.000000" stroke="none" 
	d="
M140.649857,245.409821 
	C139.269165,246.740570 137.913193,246.668671 136.052429,245.934326 
	C137.375031,244.079269 138.592590,242.371536 140.014069,240.377792 
	C141.223663,242.288818 140.618607,243.722534 140.649857,245.409821 
z"/>
<path fill="#DED8C5" opacity="1.000000" stroke="none" 
	d="
M351.917786,250.251038 
	C350.807159,247.781235 351.623962,246.422653 353.694641,245.679443 
	C355.329834,245.092514 356.695343,245.693085 357.604004,247.016861 
	C358.421936,248.208420 358.332275,249.605087 357.304901,250.676743 
	C355.583984,252.471741 353.796478,252.210129 351.917786,250.251038 
z"/>
<path fill="#DED8C5" opacity="1.000000" stroke="none" 
	d="
M356.304565,237.418182 
	C358.408783,239.676102 358.092133,241.265945 355.413422,241.944244 
	C353.885986,242.331009 352.181061,241.971893 352.040009,240.039200 
	C351.836731,237.253815 353.671783,236.781326 356.304565,237.418182 
z"/>
<path fill="#EDE7D3" opacity="1.000000" stroke="none" 
	d="
M522.300659,248.966095 
	C522.141479,245.803711 521.965637,242.996384 522.203613,240.224564 
	C522.333618,238.710754 523.429626,237.423141 525.204102,237.546066 
	C526.687012,237.648788 527.525452,238.817978 527.798645,240.158081 
	C528.363037,242.927048 528.590088,245.845657 527.764893,248.495468 
	C526.778564,251.662598 524.871643,253.156219 522.300659,248.966095 
z"/>
<path fill="#DED8C5" opacity="1.000000" stroke="none" 
	d="
M300.223267,81.777374 
	C297.917023,80.710274 297.191467,79.159286 298.041473,77.201164 
	C298.711395,75.657921 300.178528,75.270760 301.764648,75.610680 
	C303.178589,75.913681 304.171021,76.758705 304.240784,78.279037 
	C304.354675,80.761543 302.946960,81.817230 300.223267,81.777374 
z"/>
<path fill="#DED8C5" opacity="1.000000" stroke="none" 
	d="
M303.111237,67.867981 
	C304.659698,70.765060 303.484222,71.932373 300.925354,72.011032 
	C299.241028,72.062798 297.736053,71.190666 298.189423,69.352654 
	C298.790222,66.916916 300.623444,66.442581 303.111237,67.867981 
z"/>
<path fill="#EDE7D3" opacity="1.000000" stroke="none" 
	d="
M522.222839,69.933769 
	C525.426636,66.772209 527.265442,67.137367 527.899475,70.846519 
	C528.369690,73.596977 528.464050,76.439140 527.575012,79.161842 
	C527.217712,80.256035 526.555237,81.298447 525.228699,81.415962 
	C523.615540,81.558846 522.807434,80.405937 522.410950,79.136406 
	C521.508911,76.248016 521.811951,73.272743 522.222839,69.933769 
z"/>
</svg>