<svg version="1.1" viewBox="0.0 0.0 451.1994750656168 355.1994750656168" fill="none" stroke="none" stroke-linecap="square" stroke-miterlimit="10" xmlns:xlink="http://www.w3.org/1999/xlink" xmlns="http://www.w3.org/2000/svg"><clipPath id="p.0"><path d="m0 0l451.19946 0l0 355.19946l-451.19946 0l0 -355.19946z" clip-rule="nonzero"/></clipPath><g clip-path="url(#p.0)"><path fill="#ffffff" d="m0 0l451.19946 0l0 355.19946l-451.19946 0z" fill-rule="evenodd"/><path fill="#000000" fill-opacity="0.0" d="m5.913386 3.2125983l434.2362 0l0 43.496063l-434.2362 0z" fill-rule="evenodd"/><path stroke="#595959" stroke-width="1.0" stroke-linejoin="round" stroke-linecap="butt" d="m5.913386 3.2125983l434.2362 0l0 43.496063l-434.2362 0z" fill-rule="evenodd"/><path fill="#000000" d="m173.04712 32.397503q-0.78125 0.8125 -1.53125 1.171875q-0.75 0.359375 -1.609375 0.359375q-1.765625 0 -3.078125 -1.46875q-1.3125 -1.4687481 -1.3125 -3.781248q0 -2.3125 1.453125 -4.21875q1.453125 -1.921875 3.734375 -1.921875q1.421875 0 2.34375 0.90625l0 -1.984375q0 -1.84375 -0.09375 -2.265625q-0.078125 -0.421875 -0.265625 -0.5625q-0.1875 -0.15625 -0.46875 -0.15625q-0.296875 0 -0.8125 0.1875l-0.140625 -0.421875l3.1875 -1.3125l0.53125 0l0 12.421875q0 1.875 0.078125 2.296875q0.09375 0.4218731 0.28125 0.5937481q0.203125 0.15625 0.46875 0.15625q0.3125 0 0.84375 -0.203125l0.125 0.40625l-3.1875 1.328125l-0.546875 0l0 -1.53125zm0 -0.8281231l0 -5.53125q-0.0625 -0.796875 -0.421875 -1.453125q-0.34375 -0.65625 -0.921875 -0.984375q-0.578125 -0.34375 -1.140625 -0.34375q-1.03125 0 -1.828125 0.9375q-1.078125 1.21875 -1.078125 3.5625q0 2.359375 1.03125 3.625q1.03125 1.2499981 2.296875 1.2499981q1.078125 0 2.0625 -1.0624981zm6.234375 -4.65625q-0.015625 2.390625 1.15625 3.75q1.171875 1.3593731 2.75 1.3593731q1.0625 0 1.828125 -0.5781231q0.78125 -0.59375 1.3125 -2.0l0.359375 0.234375q-0.234375 1.609375 -1.421875 2.937498q-1.1875 1.3125 -2.96875 1.3125q-1.9375 0 -3.3125 -1.5q-1.375 -1.5156231 -1.375 -4.062498q0 -2.75 1.40625 -4.28125q1.421875 -1.546875 3.546875 -1.546875q1.8125 0 2.96875 1.1875q1.15625 1.1875 1.15625 3.1875l-7.40625 0zm0 -0.6875l4.96875 0q-0.0625 -1.03125 -0.25 -1.453125q-0.296875 -0.65625 -0.875 -1.03125q-0.578125 -0.375 -1.21875 -0.375q-0.96875 0 -1.734375 0.765625q-0.765625 0.75 -0.890625 2.09375zm15.777344 -3.671875l0 3.65625l-0.390625 0q-0.4375 -1.734375 -1.140625 -2.34375q-0.6875 -0.625 -1.765625 -0.625q-0.828125 0 -1.328125 0.4375q-0.5 0.421875 -0.5 0.953125q0 0.65625 0.375 1.125q0.359375 0.484375 1.46875 1.015625l1.71875 0.84375q2.375 1.15625 2.375 3.046875q0 1.4687481 -1.109375 2.374998q-1.109375 0.890625 -2.484375 0.890625q-0.984375 0 -2.25 -0.359375q-0.375 -0.109375 -0.625 -0.109375q-0.265625 0 -0.421875 0.3125l-0.390625 0l0 -3.843748l0.390625 0q0.328125 1.640625 1.25 2.484373q0.921875 0.828125 2.078125 0.828125q0.8125 0 1.3125 -0.46875q0.515625 -0.484375 0.515625 -1.1562481q0 -0.8125 -0.578125 -1.359375q-0.5625 -0.546875 -2.265625 -1.390625q-1.6875 -0.84375 -2.21875 -1.53125q-0.53125 -0.65625 -0.53125 -1.6875q0 -1.3125 0.90625 -2.203125q0.90625 -0.890625 2.359375 -0.890625q0.625 0 1.53125 0.265625q0.59375 0.171875 0.796875 0.171875q0.1875 0 0.28125 -0.078125q0.109375 -0.078125 0.25 -0.359375l0.390625 0zm5.1367188 -5.625q0.484375 0 0.828125 0.359375q0.359375 0.34375 0.359375 0.828125q0 0.5 -0.359375 0.859375q-0.34375 0.34375 -0.828125 0.34375q-0.5 0 -0.859375 -0.34375q-0.34375 -0.359375 -0.34375 -0.859375q0 -0.484375 0.34375 -0.828125q0.359375 -0.359375 0.859375 -0.359375zm0.96875 5.625l0 8.625q0 0.9999981 0.140625 1.3437481q0.15625 0.328125 0.4375 0.5q0.296875 0.15625 1.046875 0.15625l0 0.421875l-5.203125 0l0 -0.421875q0.78125 0 1.046875 -0.15625q0.265625 -0.15625 0.421875 -0.5q0.171875 -0.359375 0.171875 -1.3437481l0 -4.140625q0 -1.75 -0.109375 -2.265625q-0.078125 -0.375 -0.265625 -0.515625q-0.171875 -0.15625 -0.46875 -0.15625q-0.328125 0 -0.796875 0.1875l-0.171875 -0.421875l3.234375 -1.3125l0.515625 0zm5.8398438 7.125q-0.984375 -0.46875 -1.515625 -1.328125q-0.53125 -0.875 -0.53125 -1.90625q0 -1.59375 1.203125 -2.734375q1.203125 -1.15625 3.078125 -1.15625q1.53125 0 2.65625 0.75l2.28125 0q0.5 0 0.578125 0.03125q0.09375 0.015625 0.125 0.09375q0.0625 0.109375 0.0625 0.375q0 0.296875 -0.046875 0.421875q-0.046875 0.0625 -0.140625 0.09375q-0.078125 0.03125 -0.578125 0.03125l-1.390625 0q0.65625 0.84375 0.65625 2.15625q0 1.5 -1.15625 2.578125q-1.140625 1.0625 -3.078125 1.0625q-0.796875 0 -1.625 -0.234375q-0.515625 0.4375 -0.703125 0.78125q-0.1875 0.328125 -0.1875 0.5625q0 0.203125 0.1875 0.390625q0.203125 0.1875 0.765625 0.265625q0.328125 0.046875 1.640625 0.078125q2.421875 0.062498093 3.125 0.1718731q1.09375 0.140625 1.734375 0.8125q0.65625 0.65625 0.65625 1.609375q0 1.328125 -1.234375 2.484375q-1.828125 1.71875 -4.765625 1.71875q-2.265625 0 -3.828125 -1.03125q-0.875 -0.578125 -0.875 -1.21875q0 -0.28125 0.125 -0.5625q0.203125 -0.421875 0.828125 -1.203125q0.078125 -0.109375 1.1875 -1.265625q-0.609375 -0.359375 -0.859375 -0.640625q-0.25 -0.296875 -0.25 -0.65625q0 -0.4218731 0.328125 -0.9687481q0.34375 -0.546875 1.546875 -1.5625zm2.03125 -6.5625q-0.859375 0 -1.453125 0.6875q-0.578125 0.6875 -0.578125 2.125q0 1.84375 0.796875 2.859375q0.609375 0.78125 1.546875 0.78125q0.890625 0 1.453125 -0.671875q0.578125 -0.671875 0.578125 -2.09375q0 -1.859375 -0.796875 -2.921875q-0.609375 -0.765625 -1.546875 -0.765625zm-2.15625 10.484373q-0.546875 0.59375 -0.828125 1.109375q-0.28125 0.515625 -0.28125 0.953125q0 0.5625 0.6875 0.984375q1.171875 0.734375 3.375 0.734375q2.109375 0 3.109375 -0.75q1.015625 -0.75 1.015625 -1.59375q0 -0.609375 -0.609375 -0.859375q-0.609375 -0.265625 -2.40625 -0.3125q-2.640625 -0.0625 -4.0625 -0.265625zm12.375 -8.781248q1.890625 -2.265625 3.609375 -2.265625q0.875 0 1.5 0.4375q0.640625 0.4375 1.015625 1.4375q0.25 0.703125 0.25 2.15625l0 4.59375q0 1.0156231 0.171875 1.3749981q0.125 0.296875 0.40625 0.46875q0.296875 0.15625 1.0625 0.15625l0 0.421875l-5.296875 0l0 -0.421875l0.21875 0q0.75 0 1.046875 -0.21875q0.296875 -0.234375 0.421875 -0.6875q0.046875 -0.171875 0.046875 -1.0937481l0 -4.40625q0 -1.453125 -0.390625 -2.109375q-0.375 -0.671875 -1.28125 -0.671875q-1.390625 0 -2.78125 1.515625l0 5.671875q0 1.0781231 0.140625 1.3437481q0.15625 0.34375 0.4375 0.5q0.296875 0.15625 1.171875 0.15625l0 0.421875l-5.3125 0l0 -0.421875l0.234375 0q0.828125 0 1.109375 -0.40625q0.296875 -0.421875 0.296875 -1.5937481l0 -3.984375q0 -1.9375 -0.09375 -2.359375q-0.09375 -0.421875 -0.28125 -0.578125q-0.171875 -0.15625 -0.46875 -0.15625q-0.328125 0 -0.796875 0.1875l-0.171875 -0.421875l3.234375 -1.3125l0.5 0l0 2.265625zm11.125 6.5q0.546875 0 0.921875 0.390625q0.375 0.3749981 0.375 0.9218731q0 0.53125 -0.375 0.921875q-0.375 0.375 -0.921875 0.375q-0.53125 0 -0.921875 -0.375q-0.375 -0.390625 -0.375 -0.921875q0 -0.5625 0.375 -0.9374981q0.390625 -0.375 0.921875 -0.375zm10.6875 -8.765625l0 3.65625l-0.390625 0q-0.4375 -1.734375 -1.140625 -2.34375q-0.6875 -0.625 -1.765625 -0.625q-0.828125 0 -1.328125 0.4375q-0.5 0.421875 -0.5 0.953125q0 0.65625 0.375 1.125q0.359375 0.484375 1.46875 1.015625l1.71875 0.84375q2.375 1.15625 2.375 3.046875q0 1.4687481 -1.109375 2.374998q-1.109375 0.890625 -2.484375 0.890625q-0.984375 0 -2.25 -0.359375q-0.375 -0.109375 -0.625 -0.109375q-0.265625 0 -0.421875 0.3125l-0.390625 0l0 -3.843748l0.390625 0q0.328125 1.640625 1.25 2.484373q0.921875 0.828125 2.078125 0.828125q0.8125 0 1.3125 -0.46875q0.515625 -0.484375 0.515625 -1.1562481q0 -0.8125 -0.578125 -1.359375q-0.5625 -0.546875 -2.265625 -1.390625q-1.6875 -0.84375 -2.21875 -1.53125q-0.53125 -0.65625 -0.53125 -1.6875q0 -1.3125 0.90625 -2.203125q0.90625 -0.890625 2.359375 -0.890625q0.625 0 1.53125 0.265625q0.59375 0.171875 0.796875 0.171875q0.1875 0 0.28125 -0.078125q0.109375 -0.078125 0.25 -0.359375l0.390625 0zm11.527344 6.96875q-0.4375 2.125 -1.703125 3.265623q-1.265625 1.140625 -2.796875 1.140625q-1.828125 0 -3.1875 -1.53125q-1.359375 -1.5468731 -1.359375 -4.156248q0 -2.53125 1.5 -4.109375q1.5 -1.578125 3.609375 -1.578125q1.59375 0 2.609375 0.84375q1.015625 0.828125 1.015625 1.734375q0 0.4375 -0.296875 0.71875q-0.28125 0.265625 -0.796875 0.265625q-0.6875 0 -1.03125 -0.4375q-0.203125 -0.25 -0.265625 -0.9375q-0.0625 -0.6875 -0.484375 -1.0625q-0.40625 -0.34375 -1.125 -0.34375q-1.171875 0 -1.890625 0.859375q-0.953125 1.15625 -0.953125 3.046875q0 1.921875 0.9375 3.390625q0.953125 1.4687481 2.5625 1.4687481q1.140625 0 2.0625 -0.7812481q0.640625 -0.546875 1.25 -1.96875l0.34375 0.171875zm7.6054688 2.531248q-1.640625 1.28125 -2.0625 1.46875q-0.640625 0.296875 -1.359375 0.296875q-1.109375 0 -1.828125 -0.75q-0.71875 -0.765625 -0.71875 -2.015623q0 -0.78125 0.34375 -1.359375q0.484375 -0.796875 1.671875 -1.5q1.1875 -0.703125 3.953125 -1.703125l0 -0.421875q0 -1.609375 -0.515625 -2.203125q-0.5 -0.609375 -1.46875 -0.609375q-0.734375 0 -1.171875 0.40625q-0.453125 0.390625 -0.453125 0.90625l0.03125 0.6875q0 0.53125 -0.28125 0.828125q-0.265625 0.296875 -0.71875 0.296875q-0.4375 0 -0.71875 -0.296875q-0.265625 -0.3125 -0.265625 -0.84375q0 -1.0 1.03125 -1.84375q1.03125 -0.84375 2.890625 -0.84375q1.4375 0 2.34375 0.46875q0.703125 0.375 1.03125 1.140625q0.203125 0.5 0.203125 2.0625l0 3.640625q0 1.546875 0.0625 1.890625q0.0625 0.3437481 0.1875 0.4687481q0.140625 0.109375 0.3125 0.109375q0.1875 0 0.328125 -0.078125q0.25 -0.15625 0.953125 -0.8593731l0 0.6562481q-1.3125 1.765625 -2.515625 1.765625q-0.5625 0 -0.90625 -0.40625q-0.34375 -0.40625 -0.359375 -1.359375zm0 -0.7656231l0 -4.09375q-1.765625 0.703125 -2.28125 1.0q-0.921875 0.515625 -1.328125 1.078125q-0.390625 0.5625 -0.390625 1.234375q0 0.84375 0.5 1.40625q0.5 0.5468731 1.15625 0.5468731q0.890625 0 2.34375 -1.1718731zm8.261719 -14.359375l0 14.25q0 0.9999981 0.140625 1.3281231q0.15625 0.328125 0.453125 0.5q0.3125 0.171875 1.140625 0.171875l0 0.421875l-5.25 0l0 -0.421875q0.734375 0 1.0 -0.15625q0.265625 -0.15625 0.421875 -0.5q0.15625 -0.359375 0.15625 -1.3437481l0 -9.75q0 -1.828125 -0.09375 -2.234375q-0.078125 -0.421875 -0.265625 -0.5625q-0.171875 -0.15625 -0.453125 -0.15625q-0.296875 0 -0.765625 0.1875l-0.203125 -0.421875l3.203125 -1.3125l0.515625 0zm9.058594 15.124998q-1.640625 1.28125 -2.0625 1.46875q-0.640625 0.296875 -1.359375 0.296875q-1.109375 0 -1.828125 -0.75q-0.71875 -0.765625 -0.71875 -2.015623q0 -0.78125 0.34375 -1.359375q0.484375 -0.796875 1.671875 -1.5q1.1875 -0.703125 3.953125 -1.703125l0 -0.421875q0 -1.609375 -0.515625 -2.203125q-0.5 -0.609375 -1.46875 -0.609375q-0.734375 0 -1.171875 0.40625q-0.453125 0.390625 -0.453125 0.90625l0.03125 0.6875q0 0.53125 -0.28125 0.828125q-0.265625 0.296875 -0.71875 0.296875q-0.4375 0 -0.71875 -0.296875q-0.265625 -0.3125 -0.265625 -0.84375q0 -1.0 1.03125 -1.84375q1.03125 -0.84375 2.890625 -0.84375q1.4375 0 2.34375 0.46875q0.703125 0.375 1.03125 1.140625q0.203125 0.5 0.203125 2.0625l0 3.640625q0 1.546875 0.0625 1.890625q0.0625 0.3437481 0.1875 0.4687481q0.140625 0.109375 0.3125 0.109375q0.1875 0 0.328125 -0.078125q0.25 -0.15625 0.953125 -0.8593731l0 0.6562481q-1.3125 1.765625 -2.515625 1.765625q-0.5625 0 -0.90625 -0.40625q-0.34375 -0.40625 -0.359375 -1.359375zm0 -0.7656231l0 -4.09375q-1.765625 0.703125 -2.28125 1.0q-0.921875 0.515625 -1.328125 1.078125q-0.390625 0.5625 -0.390625 1.234375q0 0.84375 0.5 1.40625q0.5 0.5468731 1.15625 0.5468731q0.890625 0 2.34375 -1.1718731z" fill-rule="nonzero"/><path fill="#f3f3f3" d="m4.92126 57.545933l434.2362 0l0 47.275593l-434.2362 0z" fill-rule="evenodd"/><path stroke="#595959" stroke-width="1.0" stroke-linejoin="round" stroke-linecap="butt" stroke-dasharray="4.0,3.0" d="m4.92126 57.545933l434.2362 0l0 47.275593l-434.2362 0z" fill-rule="evenodd"/><path fill="#000000" fill-opacity="0.0" d="m13.92126 68.19921l135.28125 0l0 27.597656l-135.28125 0l0 -27.597656z" fill-rule="nonzero"/><path fill="#000000" d="m18.874384 79.695305l0 7.046875q0 1.5 0.328125 1.90625q0.421875 0.515625 1.15625 0.515625l0.96875 0l0 0.421875l-6.406249 0l0 -0.421875l0.484375 0q0.46875 0 0.84374905 -0.234375q0.390625 -0.234375 0.53125 -0.625q0.15625 -0.40625 0.15625 -1.5625l0 -7.046875l-2.093749 0l0 -0.84375l2.093749 0l0 -0.703125q0 -1.609375 0.515625 -2.71875q0.515625 -1.109375 1.578125 -1.796875q1.0625 -0.6875 2.375 -0.6875q1.234375 0 2.265625 0.796875q0.6875 0.53125 0.6875 1.1875q0 0.34375 -0.3125 0.65625q-0.296875 0.3125 -0.65625 0.3125q-0.265625 0 -0.5625 -0.1875q-0.296875 -0.203125 -0.734375 -0.84375q-0.4375 -0.640625 -0.796875 -0.859375q-0.359375 -0.21875 -0.8125 -0.21875q-0.53125 0 -0.90625 0.296875q-0.375 0.28125 -0.546875 0.890625q-0.15625 0.59375 -0.15625 3.09375l0 0.78125l2.765625 0l0 0.84375l-2.765625 0zm6.5234375 -6.78125q0.484375 0 0.828125 0.359375q0.359375 0.34375 0.359375 0.828125q0 0.5 -0.359375 0.859375q-0.34375 0.34375 -0.828125 0.34375q-0.5 0 -0.859375 -0.34375q-0.34375 -0.359375 -0.34375 -0.859375q0 -0.484375 0.34375 -0.828125q0.359375 -0.359375 0.859375 -0.359375zm0.96875 5.625l0 8.625q0 1.0 0.140625 1.34375q0.15625 0.328125 0.4375 0.5q0.296875 0.15625 1.046875 0.15625l0 0.421875l-5.203125 0l0 -0.421875q0.78125 0 1.046875 -0.15625q0.265625 -0.15625 0.421875 -0.5q0.171875 -0.359375 0.171875 -1.34375l0 -4.140625q0 -1.75 -0.109375 -2.265625q-0.078125 -0.375 -0.265625 -0.515625q-0.171875 -0.15625 -0.46875 -0.15625q-0.328125 0 -0.796875 0.1875l-0.171875 -0.421875l3.234375 -1.3125l0.515625 0zm6.1054707 0l0 2.40625q1.34375 -2.40625 2.765625 -2.40625q0.640625 0 1.0625 0.390625q0.421875 0.390625 0.421875 0.90625q0 0.453125 -0.3125 0.78125q-0.296875 0.3125 -0.71875 0.3125q-0.40625 0 -0.921875 -0.40625q-0.5 -0.40625 -0.75 -0.40625q-0.203125 0 -0.453125 0.234375q-0.53125 0.484375 -1.09375 1.578125l0 5.140625q0 0.890625 0.21875 1.359375q0.15625 0.3125 0.546875 0.53125q0.390625 0.203125 1.109375 0.203125l0 0.421875l-5.500002 0l0 -0.421875q0.828125 0 1.21875 -0.265625q0.296875 -0.1875 0.421875 -0.59375q0.046875 -0.203125 0.046875 -1.140625l0 -4.15625q0 -1.875 -0.078125 -2.234375q-0.0625 -0.359375 -0.28125 -0.515625q-0.203125 -0.171875 -0.5 -0.171875q-0.359375 0 -0.828125 0.1875l-0.109375 -0.421875l3.25 -1.3125l0.4843769 0zm7.9921875 0l0 2.40625q1.34375 -2.40625 2.765625 -2.40625q0.640625 0 1.0625 0.390625q0.421875 0.390625 0.421875 0.90625q0 0.453125 -0.3125 0.78125q-0.296875 0.3125 -0.71875 0.3125q-0.40625 0 -0.921875 -0.40625q-0.5 -0.40625 -0.75 -0.40625q-0.203125 0 -0.453125 0.234375q-0.53125 0.484375 -1.09375 1.578125l0 5.140625q0 0.890625 0.21875 1.359375q0.15625 0.3125 0.546875 0.53125q0.390625 0.203125 1.109375 0.203125l0 0.421875l-5.5 0l0 -0.421875q0.828125 0 1.21875 -0.265625q0.296875 -0.1875 0.421875 -0.59375q0.046875 -0.203125 0.046875 -1.140625l0 -4.15625q0 -1.875 -0.078125 -2.234375q-0.0625 -0.359375 -0.28125 -0.515625q-0.203125 -0.171875 -0.5 -0.171875q-0.359375 0 -0.828125 0.1875l-0.109375 -0.421875l3.25 -1.3125l0.484375 0zm7.9765625 -3.21875l0 3.53125l2.5 0l0 0.8125l-2.5 0l0 6.96875q0 1.046875 0.296875 1.40625q0.296875 0.359375 0.765625 0.359375q0.390625 0 0.75 -0.234375q0.359375 -0.25 0.5625 -0.71875l0.453125 0q-0.40625 1.15625 -1.15625 1.734375q-0.75 0.578125 -1.546875 0.578125q-0.546875 0 -1.0625 -0.296875q-0.515625 -0.296875 -0.765625 -0.84375q-0.234375 -0.5625 -0.234375 -1.734375l0 -7.21875l-1.703125 0l0 -0.375q0.640625 -0.265625 1.3125 -0.875q0.6875 -0.625 1.203125 -1.46875q0.28125 -0.4375 0.75 -1.625l0.375 0zm7.2304688 -2.40625l0 14.25q0 1.0 0.140625 1.328125q0.15625 0.328125 0.453125 0.5q0.3125 0.171875 1.140625 0.171875l0 0.421875l-5.25 0l0 -0.421875q0.734375 0 1.0 -0.15625q0.265625 -0.15625 0.421875 -0.5q0.15625 -0.359375 0.15625 -1.34375l0 -9.75q0 -1.828125 -0.09375 -2.234375q-0.078125 -0.421875 -0.265625 -0.5625q-0.171875 -0.15625 -0.453125 -0.15625q-0.296875 0 -0.765625 0.1875l-0.203125 -0.421875l3.203125 -1.3125l0.515625 0zm18.105465 12.59375q-0.4375 2.125 -1.703125 3.265625q-1.265625 1.140625 -2.796875 1.140625q-1.828125 0 -3.1875 -1.53125q-1.359375 -1.546875 -1.359375 -4.15625q0 -2.53125 1.5 -4.109375q1.5 -1.578125 3.609375 -1.578125q1.59375 0 2.609375 0.84375q1.015625 0.828125 1.015625 1.734375q0 0.4375 -0.296875 0.71875q-0.28125 0.265625 -0.796875 0.265625q-0.6875 0 -1.03125 -0.4375q-0.203125 -0.25 -0.265625 -0.9375q-0.0625 -0.6875 -0.484375 -1.0625q-0.40625 -0.34375 -1.125 -0.34375q-1.171875 0 -1.890625 0.859375q-0.953125 1.15625 -0.953125 3.046875q0 1.921875 0.9375 3.390625q0.953125 1.46875 2.5625 1.46875q1.140625 0 2.0625 -0.78125q0.640625 -0.546875 1.25 -1.96875l0.34375 0.171875zm6.7773438 -6.96875q2.4375 0 3.921875 1.84375q1.25 1.578125 1.25 3.640625q0 1.4375 -0.703125 2.921875q-0.6875 1.46875 -1.90625 2.21875q-1.203125 0.75 -2.6875 0.75q-2.421875 0 -3.859375 -1.9375q-1.203125 -1.625 -1.203125 -3.65625q0 -1.46875 0.734375 -2.921875q0.734375 -1.46875 1.921875 -2.15625q1.203125 -0.703125 2.53125 -0.703125zm-0.359375 0.75q-0.625 0 -1.25 0.375q-0.625 0.375 -1.015625 1.296875q-0.390625 0.921875 -0.390625 2.375q0 2.34375 0.9375 4.046875q0.9375 1.703125 2.453125 1.703125q1.140625 0 1.875 -0.9375q0.734375 -0.9375 0.734375 -3.234375q0 -2.859375 -1.21875 -4.5q-0.84375 -1.125 -2.125 -1.125zm10.296875 1.53125q1.171875 -1.171875 1.390625 -1.34375q0.515625 -0.453125 1.125 -0.6875q0.609375 -0.25 1.21875 -0.25q1.0 0 1.71875 0.59375q0.734375 0.578125 0.984375 1.6875q1.203125 -1.40625 2.03125 -1.84375q0.84375 -0.4375 1.71875 -0.4375q0.859375 0 1.515625 0.4375q0.65625 0.4375 1.046875 1.4375q0.265625 0.671875 0.265625 2.125l0 4.625q0 1.0 0.140625 1.375q0.125 0.265625 0.4375 0.453125q0.3125 0.171875 1.03125 0.171875l0 0.421875l-5.296875 0l0 -0.421875l0.21875 0q0.703125 0 1.078125 -0.265625q0.28125 -0.1875 0.390625 -0.609375q0.046875 -0.1875 0.046875 -1.125l0 -4.625q0 -1.3125 -0.3125 -1.84375q-0.453125 -0.75 -1.46875 -0.75q-0.625 0 -1.25 0.3125q-0.625 0.296875 -1.515625 1.140625l-0.015625 0.140625l0.015625 0.5l0 5.125q0 1.09375 0.125 1.375q0.125 0.265625 0.453125 0.453125q0.34375 0.171875 1.171875 0.171875l0 0.421875l-5.421875 0l0 -0.421875q0.890625 0 1.21875 -0.203125q0.328125 -0.21875 0.46875 -0.640625q0.046875 -0.203125 0.046875 -1.15625l0 -4.625q0 -1.3125 -0.375 -1.890625q-0.515625 -0.75 -1.453125 -0.75q-0.625 0 -1.25 0.34375q-0.96875 0.515625 -1.5 1.15625l0 5.765625q0 1.046875 0.140625 1.375q0.15625 0.3125 0.4375 0.46875q0.296875 0.15625 1.171875 0.15625l0 0.421875l-5.3125 0l0 -0.421875q0.734375 0 1.03125 -0.15625q0.296875 -0.15625 0.4375 -0.5q0.15625 -0.359375 0.15625 -1.34375l0 -4.109375q0 -1.765625 -0.09375 -2.28125q-0.09375 -0.390625 -0.265625 -0.53125q-0.171875 -0.15625 -0.484375 -0.15625q-0.328125 0 -0.78125 0.1875l-0.171875 -0.421875l3.234375 -1.3125l0.5 0l0 2.28125zm14.699219 -0.90625l3.3125 -1.328125l0.453125 0l0 2.5q0.828125 -1.421875 1.65625 -1.984375q0.84375 -0.5625 1.765625 -0.5625q1.625 0 2.703125 1.265625q1.328125 1.546875 1.328125 4.03125q0 2.765625 -1.59375 4.59375q-1.3125 1.484375 -3.3125 1.484375q-0.859375 0 -1.5 -0.25q-0.46875 -0.171875 -1.046875 -0.703125l0 3.28125q0 1.09375 0.125 1.390625q0.140625 0.296875 0.46875 0.46875q0.34375 0.1875 1.21875 0.1875l0 0.4375l-5.625 0l0 -0.4375l0.296875 0q0.640625 0.015625 1.09375 -0.25q0.21875 -0.125 0.34375 -0.421875q0.125 -0.28125 0.125 -1.453125l0 -10.15625q0 -1.03125 -0.09375 -1.3125q-0.09375 -0.28125 -0.296875 -0.421875q-0.203125 -0.140625 -0.5625 -0.140625q-0.28125 0 -0.703125 0.15625l-0.15625 -0.375zm3.765625 1.859375l0 4.015625q0 1.296875 0.09375 1.703125q0.171875 0.6875 0.8125 1.203125q0.640625 0.515625 1.609375 0.515625q1.171875 0 1.890625 -0.921875q0.953125 -1.1875 0.953125 -3.359375q0 -2.453125 -1.078125 -3.78125q-0.75 -0.921875 -1.78125 -0.921875q-0.5625 0 -1.109375 0.28125q-0.421875 0.21875 -1.390625 1.265625zm11.75 -8.859375q0.484375 0 0.828125 0.359375q0.359375 0.34375 0.359375 0.828125q0 0.5 -0.359375 0.859375q-0.34375 0.34375 -0.828125 0.34375q-0.5 0 -0.859375 -0.34375q-0.34375 -0.359375 -0.34375 -0.859375q0 -0.484375 0.34375 -0.828125q0.359375 -0.359375 0.859375 -0.359375zm0.96875 5.625l0 8.625q0 1.0 0.140625 1.34375q0.15625 0.328125 0.4375 0.5q0.296875 0.15625 1.046875 0.15625l0 0.421875l-5.203125 0l0 -0.421875q0.78125 0 1.046875 -0.15625q0.265625 -0.15625 0.421875 -0.5q0.171875 -0.359375 0.171875 -1.34375l0 -4.140625q0 -1.75 -0.109375 -2.265625q-0.078125 -0.375 -0.265625 -0.515625q-0.171875 -0.15625 -0.46875 -0.15625q-0.328125 0 -0.796875 0.1875l-0.171875 -0.421875l3.234375 -1.3125l0.515625 0zm6.6523514 -5.625l0 14.25q0 1.0 0.140625 1.328125q0.15625 0.328125 0.453125 0.5q0.3125 0.171875 1.140625 0.171875l0 0.421875l-5.2500076 0l0 -0.421875q0.734375 0 1.0 -0.15625q0.265625 -0.15625 0.421875 -0.5q0.15625 -0.359375 0.15625 -1.34375l0 -9.75q0 -1.828125 -0.09375 -2.234375q-0.078125 -0.421875 -0.265625 -0.5625q-0.171875 -0.15625 -0.453125 -0.15625q-0.296875 0 -0.765625 0.1875l-0.203125 -0.421875l3.203125 -1.3125l0.5156326 0zm4.7929688 9.984375q-0.015625 2.390625 1.15625 3.75q1.171875 1.359375 2.75 1.359375q1.0625 0 1.828125 -0.578125q0.78125 -0.59375 1.3125 -2.0l0.359375 0.234375q-0.234375 1.609375 -1.421875 2.9375q-1.1875 1.3125 -2.96875 1.3125q-1.9375 0 -3.3125 -1.5q-1.375 -1.515625 -1.375 -4.0625q0 -2.75 1.40625 -4.28125q1.421875 -1.546875 3.546875 -1.546875q1.8125 0 2.96875 1.1875q1.15625 1.1875 1.15625 3.1875l-7.40625 0zm0 -0.6875l4.96875 0q-0.0625 -1.03125 -0.25 -1.453125q-0.296875 -0.65625 -0.875 -1.03125q-0.578125 -0.375 -1.21875 -0.375q-0.96875 0 -1.734375 0.765625q-0.765625 0.75 -0.890625 2.09375zm11.980469 -3.671875l0 2.40625q1.34375 -2.40625 2.765625 -2.40625q0.640625 0 1.0625 0.390625q0.421875 0.390625 0.421875 0.90625q0 0.453125 -0.3125 0.78125q-0.296875 0.3125 -0.71875 0.3125q-0.40625 0 -0.921875 -0.40625q-0.5 -0.40625 -0.75 -0.40625q-0.203125 0 -0.453125 0.234375q-0.53125 0.484375 -1.09375 1.578125l0 5.140625q0 0.890625 0.21875 1.359375q0.15625 0.3125 0.546875 0.53125q0.390625 0.203125 1.109375 0.203125l0 0.421875l-5.5 0l0 -0.421875q0.828125 0 1.21875 -0.265625q0.296875 -0.1875 0.421875 -0.59375q0.046875 -0.203125 0.046875 -1.140625l0 -4.15625q0 -1.875 -0.078125 -2.234375q-0.0625 -0.359375 -0.28125 -0.515625q-0.203125 -0.171875 -0.5 -0.171875q-0.359375 0 -0.828125 0.1875l-0.109375 -0.421875l3.25 -1.3125l0.484375 0z" fill-rule="nonzero"/><path fill="#010000" fill-opacity="0.0" d="m149.20251 78.89257l0 0l0 13.798828l0 0l0 -13.798828z" fill-rule="nonzero"/><path fill="#000000" d="m13.92126 91.145935l135.28125 0l0 2.159996l-135.28125 0l0 -2.159996z" fill-rule="nonzero"/><path fill="#ffffff" d="m4.92126 115.65879l165.51181 0l0 37.00788l-165.51181 0z" fill-rule="evenodd"/><path stroke="#595959" stroke-width="1.0" stroke-linejoin="round" stroke-linecap="butt" d="m4.92126 115.65879l165.51181 0l0 37.00788l-165.51181 0z" fill-rule="evenodd"/><path fill="#000000" d="m69.397865 126.9121l0 0.4375q-0.84375 0.140625 -1.28125 0.53125q-0.625 0.5781326 -1.109375 1.7656326l-5.531246 13.515625l-0.4375 0l-5.953125 -13.703125q-0.453125 -1.046875 -0.640625 -1.28125q-0.296875 -0.35938263 -0.734375 -0.5625076q-0.421875 -0.21875 -1.140625 -0.265625l0 -0.4375l6.484375 0l0 0.4375q-1.09375 0.09375 -1.421875 0.375q-0.328125 0.265625 -0.328125 0.6875076q0 0.578125 0.53125 1.828125l4.046875 9.3125l3.7499962 -9.203125q0.546875 -1.359375 0.546875 -1.875q0 -0.34375 -0.34375 -0.6562576q-0.328125 -0.3125 -1.140625 -0.4375q-0.0625 -0.015625 -0.203125 -0.03125l0 -0.4375l4.90625 0zm0.1875 9.203133q-0.015625 2.390625 1.15625 3.75q1.171875 1.359375 2.75 1.359375q1.0625 0 1.828125 -0.578125q0.78125 -0.59375 1.3125 -2.0l0.359375 0.234375q-0.234375 1.609375 -1.421875 2.9375q-1.1875 1.3125 -2.96875 1.3125q-1.9375 0 -3.3125 -1.5q-1.375 -1.515625 -1.375 -4.0625q0 -2.75 1.40625 -4.28125q1.421875 -1.546875 3.546875 -1.546875q1.8125 0 2.96875 1.1875q1.15625 1.1875 1.15625 3.1875l-7.40625 0zm0 -0.6875l4.96875 0q-0.0625 -1.03125 -0.25 -1.453125q-0.296875 -0.65625 -0.875 -1.03125q-0.578125 -0.375 -1.21875 -0.375q-0.96875 0 -1.734375 0.765625q-0.765625 0.75 -0.890625 2.09375zm11.980469 -3.671875l0 2.40625q1.34375 -2.40625 2.765625 -2.40625q0.640625 0 1.0625 0.390625q0.421875 0.390625 0.421875 0.90625q0 0.453125 -0.3125 0.78125q-0.296875 0.3125 -0.71875 0.3125q-0.40625 0 -0.921875 -0.40625q-0.5 -0.40625 -0.75 -0.40625q-0.203125 0 -0.453125 0.234375q-0.53125 0.484375 -1.09375 1.578125l0 5.140625q0 0.890625 0.21875 1.359375q0.15625 0.3125 0.546875 0.53125q0.390625 0.203125 1.109375 0.203125l0 0.421875l-5.5 0l0 -0.421875q0.828125 0 1.21875 -0.265625q0.296875 -0.1875 0.421875 -0.59375q0.046875 -0.203125 0.046875 -1.140625l0 -4.15625q0 -1.875 -0.078125 -2.234375q-0.0625 -0.359375 -0.28125 -0.515625q-0.203125 -0.171875 -0.5 -0.171875q-0.359375 0 -0.828125 0.1875l-0.109375 -0.421875l3.25 -1.3125l0.484375 0zm7.5859375 -5.6250076q0.484375 0 0.828125 0.359375q0.359375 0.34375 0.359375 0.828125q0 0.5 -0.359375 0.8593826q-0.34375 0.34375 -0.828125 0.34375q-0.5 0 -0.859375 -0.34375q-0.34375 -0.35938263 -0.34375 -0.8593826q0 -0.484375 0.34375 -0.828125q0.359375 -0.359375 0.859375 -0.359375zm0.96875 5.6250076l0 8.625q0 1.0 0.140625 1.34375q0.15625 0.328125 0.4375 0.5q0.296875 0.15625 1.046875 0.15625l0 0.421875l-5.203125 0l0 -0.421875q0.78125 0 1.046875 -0.15625q0.265625 -0.15625 0.421875 -0.5q0.171875 -0.359375 0.171875 -1.34375l0 -4.140625q0 -1.75 -0.109375 -2.265625q-0.078125 -0.375 -0.265625 -0.515625q-0.171875 -0.15625 -0.46875 -0.15625q-0.328125 0 -0.796875 0.1875l-0.171875 -0.421875l3.234375 -1.3125l0.515625 0zm6.6523438 -5.6250076l0 14.250008q0 1.0 0.140625 1.328125q0.15625 0.328125 0.453125 0.5q0.3125 0.171875 1.140625 0.171875l0 0.421875l-5.25 0l0 -0.421875q0.734375 0 1.0 -0.15625q0.265625 -0.15625 0.421875 -0.5q0.15625 -0.359375 0.15625 -1.34375l0 -9.75q0 -1.828125 -0.09375 -2.234375q-0.078125 -0.42188263 -0.265625 -0.5625076q-0.171875 -0.15625 -0.453125 -0.15625q-0.296875 0 -0.765625 0.1875l-0.203125 -0.421875l3.203125 -1.3125l0.515625 0zm8.230469 5.6250076q2.4375 0 3.921875 1.84375q1.25 1.578125 1.25 3.640625q0 1.4375 -0.703125 2.921875q-0.6875 1.46875 -1.90625 2.21875q-1.203125 0.75 -2.6875 0.75q-2.421875 0 -3.859375 -1.9375q-1.203125 -1.625 -1.203125 -3.65625q0 -1.46875 0.734375 -2.921875q0.734375 -1.46875 1.921875 -2.15625q1.203125 -0.703125 2.53125 -0.703125zm-0.359375 0.75q-0.625 0 -1.25 0.375q-0.625 0.375 -1.015625 1.296875q-0.390625 0.921875 -0.390625 2.375q0 2.34375 0.9375 4.046875q0.9375 1.703125 2.453125 1.703125q1.140625 0 1.875 -0.9375q0.734375 -0.9375 0.734375 -3.234375q0 -2.859375 -1.21875 -4.5q-0.84375 -1.125 -2.125 -1.125zm9.984375 6.375q-0.984375 -0.46875 -1.515625 -1.328125q-0.53125 -0.875 -0.53125 -1.90625q0 -1.59375 1.203125 -2.734375q1.203125 -1.15625 3.078125 -1.15625q1.53125 0 2.65625 0.75l2.28125 0q0.5 0 0.578125 0.03125q0.09375 0.015625 0.125 0.09375q0.0625 0.109375 0.0625 0.375q0 0.296875 -0.046875 0.421875q-0.046875 0.0625 -0.140625 0.09375q-0.078125 0.03125 -0.578125 0.03125l-1.390625 0q0.65625 0.84375 0.65625 2.15625q0 1.5 -1.15625 2.578125q-1.140625 1.0625 -3.078125 1.0625q-0.796875 0 -1.625 -0.234375q-0.515625 0.4375 -0.703125 0.78125q-0.1875 0.328125 -0.1875 0.5625q0 0.203125 0.1875 0.390625q0.203125 0.1875 0.765625 0.265625q0.328125 0.046875 1.640625 0.078125q2.421875 0.0625 3.125 0.171875q1.09375 0.140625 1.734375 0.8125q0.65625 0.65625 0.65625 1.609375q0 1.328125 -1.234375 2.484375q-1.828125 1.71875 -4.765625 1.71875q-2.265625 0 -3.828125 -1.03125q-0.875 -0.578125 -0.875 -1.21875q0 -0.28125 0.125 -0.5625q0.203125 -0.421875 0.828125 -1.203125q0.078125 -0.109375 1.1875 -1.265625q-0.609375 -0.359375 -0.859375 -0.640625q-0.25 -0.296875 -0.25 -0.65625q0 -0.421875 0.328125 -0.96875q0.34375 -0.546875 1.546875 -1.5625zm2.03125 -6.5625q-0.859375 0 -1.453125 0.6875q-0.578125 0.6875 -0.578125 2.125q0 1.84375 0.796875 2.859375q0.609375 0.78125 1.546875 0.78125q0.890625 0 1.453125 -0.671875q0.578125 -0.671875 0.578125 -2.09375q0 -1.859375 -0.796875 -2.921875q-0.609375 -0.765625 -1.546875 -0.765625zm-2.15625 10.484375q-0.546875 0.59375 -0.828125 1.109375q-0.28125 0.515625 -0.28125 0.953125q0 0.5625 0.6875 0.984375q1.171875 0.734375 3.375 0.734375q2.109375 0 3.109375 -0.75q1.015625 -0.75 1.015625 -1.59375q0 -0.609375 -0.609375 -0.859375q-0.609375 -0.265625 -2.40625 -0.3125q-2.640625 -0.0625 -4.0625 -0.265625z" fill-rule="nonzero"/><path fill="#ffffff" d="m5.913386 163.50394l165.51181 0l0 183.77954l-165.51181 0z" fill-rule="evenodd"/><path stroke="#595959" stroke-width="1.0" stroke-linejoin="round" stroke-linecap="butt" d="m5.913386 163.50394l165.51181 0l0 183.77954l-165.51181 0z" fill-rule="evenodd"/><path fill="#000000" d="m63.733746 179.65332l0 0.4375q-0.84375 0.140625 -1.28125 0.53125q-0.625 0.578125 -1.109375 1.765625l-5.53125 13.515625l-0.4375 0l-5.953125 -13.703125q-0.453125 -1.046875 -0.640625 -1.28125q-0.296875 -0.359375 -0.734375 -0.5625q-0.421875 -0.21875 -1.140625 -0.265625l0 -0.4375l6.484375 0l0 0.4375q-1.09375 0.09375 -1.421875 0.375q-0.328125 0.265625 -0.328125 0.6875q0 0.578125 0.53125 1.828125l4.046875 9.3125l3.75 -9.203125q0.546875 -1.359375 0.546875 -1.875q0 -0.34375 -0.34375 -0.65625q-0.328125 -0.3125 -1.140625 -0.4375q-0.0625 -0.015625 -0.203125 -0.03125l0 -0.4375l4.90625 0zm0.1875 9.203125q-0.015625 2.390625 1.1562462 3.75q1.171875 1.359375 2.75 1.359375q1.0625 0 1.828125 -0.578125q0.78125 -0.59375 1.3125 -2.0l0.359375 0.234375q-0.234375 1.609375 -1.421875 2.9375q-1.1875 1.3125 -2.96875 1.3125q-1.9375 0 -3.3124962 -1.5q-1.375 -1.515625 -1.375 -4.0625q0 -2.75 1.40625 -4.28125q1.4218712 -1.546875 3.5468712 -1.546875q1.8125 0 2.96875 1.1875q1.15625 1.1875 1.15625 3.1875l-7.406246 0zm0 -0.6875l4.968746 0q-0.0625 -1.03125 -0.25 -1.453125q-0.296875 -0.65625 -0.875 -1.03125q-0.578125 -0.375 -1.21875 -0.375q-0.96875 0 -1.734375 0.765625q-0.765625 0.75 -0.8906212 2.09375zm11.980465 -3.671875l0 2.40625q1.34375 -2.40625 2.765625 -2.40625q0.640625 0 1.0625 0.390625q0.421875 0.390625 0.421875 0.90625q0 0.453125 -0.3125 0.78125q-0.296875 0.3125 -0.71875 0.3125q-0.40625 0 -0.921875 -0.40625q-0.5 -0.40625 -0.75 -0.40625q-0.203125 0 -0.453125 0.234375q-0.53125 0.484375 -1.09375 1.578125l0 5.140625q0 0.890625 0.21875 1.359375q0.15625 0.3125 0.546875 0.53125q0.390625 0.203125 1.109375 0.203125l0 0.421875l-5.5 0l0 -0.421875q0.828125 0 1.21875 -0.265625q0.296875 -0.1875 0.421875 -0.59375q0.046875 -0.203125 0.046875 -1.140625l0 -4.15625q0 -1.875 -0.078125 -2.234375q-0.0625 -0.359375 -0.28125 -0.515625q-0.203125 -0.171875 -0.5 -0.171875q-0.359375 0 -0.828125 0.1875l-0.109375 -0.421875l3.25 -1.3125l0.484375 0zm7.5859375 -5.625q0.484375 0 0.828125 0.359375q0.359375 0.34375 0.359375 0.828125q0 0.5 -0.359375 0.859375q-0.34375 0.34375 -0.828125 0.34375q-0.5 0 -0.859375 -0.34375q-0.34375 -0.359375 -0.34375 -0.859375q0 -0.484375 0.34375 -0.828125q0.359375 -0.359375 0.859375 -0.359375zm0.96875 5.625l0 8.625q0 1.0 0.140625 1.34375q0.15625 0.328125 0.4375 0.5q0.296875 0.15625 1.046875 0.15625l0 0.421875l-5.203125 0l0 -0.421875q0.78125 0 1.046875 -0.15625q0.265625 -0.15625 0.421875 -0.5q0.171875 -0.359375 0.171875 -1.34375l0 -4.140625q0 -1.75 -0.109375 -2.265625q-0.078125 -0.375 -0.265625 -0.515625q-0.171875 -0.15625 -0.46875 -0.15625q-0.328125 0 -0.796875 0.1875l-0.171875 -0.421875l3.234375 -1.3125l0.515625 0zm6.6523438 -5.625l0 14.25q0 1.0 0.140625 1.328125q0.15625 0.328125 0.453125 0.5q0.3125 0.171875 1.140625 0.171875l0 0.421875l-5.25 0l0 -0.421875q0.734375 0 1.0 -0.15625q0.265625 -0.15625 0.421875 -0.5q0.15625 -0.359375 0.15625 -1.34375l0 -9.75q0 -1.828125 -0.09375 -2.234375q-0.078125 -0.421875 -0.265625 -0.5625q-0.171875 -0.15625 -0.453125 -0.15625q-0.296875 0 -0.765625 0.1875l-0.203125 -0.421875l3.203125 -1.3125l0.515625 0zm9.058594 15.125q-1.640625 1.28125 -2.0625 1.46875q-0.640625 0.296875 -1.359375 0.296875q-1.109375 0 -1.828125 -0.75q-0.71875 -0.765625 -0.71875 -2.015625q0 -0.78125 0.34375 -1.359375q0.484375 -0.796875 1.671875 -1.5q1.1875 -0.703125 3.953125 -1.703125l0 -0.421875q0 -1.609375 -0.515625 -2.203125q-0.5 -0.609375 -1.46875 -0.609375q-0.734375 0 -1.171875 0.40625q-0.453125 0.390625 -0.453125 0.90625l0.03125 0.6875q0 0.53125 -0.28125 0.828125q-0.265625 0.296875 -0.71875 0.296875q-0.4375 0 -0.71875 -0.296875q-0.265625 -0.3125 -0.265625 -0.84375q0 -1.0 1.03125 -1.84375q1.03125 -0.84375 2.890625 -0.84375q1.4375 0 2.34375 0.46875q0.703125 0.375 1.03125 1.140625q0.203125 0.5 0.203125 2.0625l0 3.640625q0 1.546875 0.0625 1.890625q0.0625 0.34375 0.1875 0.46875q0.140625 0.109375 0.3125 0.109375q0.1875 0 0.328125 -0.078125q0.25 -0.15625 0.953125 -0.859375l0 0.65625q-1.3125 1.765625 -2.515625 1.765625q-0.5625 0 -0.90625 -0.40625q-0.34375 -0.40625 -0.359375 -1.359375zm0 -0.765625l0 -4.09375q-1.765625 0.703125 -2.28125 1.0q-0.921875 0.515625 -1.328125 1.078125q-0.390625 0.5625 -0.390625 1.234375q0 0.84375 0.5 1.40625q0.5 0.546875 1.15625 0.546875q0.890625 0 2.34375 -1.171875zm7.6992188 -11.953125l0 3.53125l2.5 0l0 0.8125l-2.5 0l0 6.96875q0 1.046875 0.296875 1.40625q0.296875 0.359375 0.765625 0.359375q0.390625 0 0.75 -0.234375q0.359375 -0.25 0.5625 -0.71875l0.453125 0q-0.40625 1.15625 -1.15625 1.734375q-0.75 0.578125 -1.546875 0.578125q-0.546875 0 -1.0625 -0.296875q-0.515625 -0.296875 -0.765625 -0.84375q-0.234375 -0.5625 -0.234375 -1.734375l0 -7.21875l-1.703125 0l0 -0.375q0.640625 -0.265625 1.3125 -0.875q0.6875 -0.625 1.203125 -1.46875q0.28125 -0.4375 0.75 -1.625l0.375 0zm8.792969 3.21875q2.4375 0 3.921875 1.84375q1.25 1.578125 1.25 3.640625q0 1.4375 -0.703125 2.921875q-0.6875 1.46875 -1.90625 2.21875q-1.203125 0.75 -2.6875 0.75q-2.421875 0 -3.859375 -1.9375q-1.203125 -1.625 -1.203125 -3.65625q0 -1.46875 0.734375 -2.921875q0.734375 -1.46875 1.921875 -2.15625q1.203125 -0.703125 2.53125 -0.703125zm-0.359375 0.75q-0.625 0 -1.25 0.375q-0.625 0.375 -1.015625 1.296875q-0.390625 0.921875 -0.390625 2.375q0 2.34375 0.9375 4.046875q0.9375 1.703125 2.453125 1.703125q1.140625 0 1.875 -0.9375q0.734375 -0.9375 0.734375 -3.234375q0 -2.859375 -1.21875 -4.5q-0.84375 -1.125 -2.125 -1.125zm10.25 -0.75l0 2.40625q1.34375 -2.40625 2.7656326 -2.40625q0.640625 0 1.0625 0.390625q0.421875 0.390625 0.421875 0.90625q0 0.453125 -0.3125 0.78125q-0.296875 0.3125 -0.71875 0.3125q-0.40625 0 -0.921875 -0.40625q-0.5 -0.40625 -0.75 -0.40625q-0.20313263 0 -0.45313263 0.234375q-0.53125 0.484375 -1.09375 1.578125l0 5.140625q0 0.890625 0.21875 1.359375q0.15625 0.3125 0.546875 0.53125q0.390625 0.203125 1.1093826 0.203125l0 0.421875l-5.5000076 0l0 -0.421875q0.828125 0 1.21875 -0.265625q0.296875 -0.1875 0.421875 -0.59375q0.046875 -0.203125 0.046875 -1.140625l0 -4.15625q0 -1.875 -0.078125 -2.234375q-0.0625 -0.359375 -0.28125 -0.515625q-0.203125 -0.171875 -0.5 -0.171875q-0.359375 0 -0.828125 0.1875l-0.109375 -0.421875l3.25 -1.3125l0.484375 0z" fill-rule="nonzero"/><path fill="#ffffff" d="m15.072983 209.29659l142.04724 0l0 37.007874l-142.04724 0z" fill-rule="evenodd"/><path stroke="#595959" stroke-width="1.0" stroke-linejoin="round" stroke-linecap="butt" d="m15.072983 209.29659l142.04724 0l0 37.007874l-142.04724 0z" fill-rule="evenodd"/><path fill="#000000" d="m66.834885 220.5499l0.171875 3.71875l-0.4375 0q-0.140625 -0.984375 -0.359375 -1.40625q-0.359375 -0.671875 -0.96875 -0.984375q-0.59375 -0.328125 -1.578125 -0.328125l-2.25 0l0 12.140625q0 1.453125 0.328125 1.828125q0.4375 0.484375 1.359375 0.484375l0.5625 0l0 0.4375l-6.75 0l0 -0.4375l0.5625 0q1.015625 0 1.4375 -0.609375q0.25 -0.375 0.25 -1.703125l0 -12.140625l-1.90625 0q-1.109375 0 -1.578125 0.15625q-0.609375 0.21875 -1.046875 0.859375q-0.4375 0.625 -0.515625 1.703125l-0.4375 0l0.1875 -3.71875l12.96875 0zm5.09375 4.84375q2.4375 0 3.921875 1.84375q1.25 1.578125 1.25 3.640625q0 1.4375 -0.703125 2.921875q-0.6875 1.46875 -1.90625 2.21875q-1.203125 0.75 -2.6875 0.75q-2.421875 0 -3.859375 -1.9375q-1.203125 -1.625 -1.203125 -3.65625q0 -1.46875 0.734375 -2.921875q0.734375 -1.46875 1.921875 -2.15625q1.203125 -0.703125 2.53125 -0.703125zm-0.359375 0.75q-0.625 0 -1.25 0.375q-0.625 0.375 -1.015625 1.296875q-0.390625 0.921875 -0.390625 2.375q0 2.34375 0.9375 4.046875q0.9375 1.703125 2.453125 1.703125q1.140625 0 1.875 -0.9375q0.734375 -0.9375 0.734375 -3.234375q0 -2.859375 -1.21875 -4.5q-0.84375 -1.125 -2.125 -1.125zm9.984375 6.375q-0.984375 -0.46875 -1.515625 -1.328125q-0.53125 -0.875 -0.53125 -1.90625q0 -1.59375 1.203125 -2.734375q1.203125 -1.15625 3.078125 -1.15625q1.53125 0 2.65625 0.75l2.28125 0q0.5 0 0.578125 0.03125q0.09375 0.015625 0.125 0.09375q0.0625 0.109375 0.0625 0.375q0 0.296875 -0.046875 0.421875q-0.046875 0.0625 -0.140625 0.09375q-0.078125 0.03125 -0.578125 0.03125l-1.390625 0q0.65625 0.84375 0.65625 2.15625q0 1.5 -1.15625 2.578125q-1.140625 1.0625 -3.078125 1.0625q-0.796875 0 -1.625 -0.234375q-0.515625 0.4375 -0.703125 0.78125q-0.1875 0.328125 -0.1875 0.5625q0 0.203125 0.1875 0.390625q0.203125 0.1875 0.765625 0.265625q0.328125 0.046875 1.640625 0.078125q2.421875 0.0625 3.125 0.171875q1.09375 0.140625 1.734375 0.8125q0.65625 0.65625 0.65625 1.609375q0 1.328125 -1.234375 2.484375q-1.828125 1.71875 -4.765625 1.71875q-2.265625 0 -3.828125 -1.03125q-0.875 -0.578125 -0.875 -1.21875q0 -0.28125 0.125 -0.5625q0.203125 -0.421875 0.828125 -1.203125q0.078125 -0.109375 1.1875 -1.265625q-0.609375 -0.359375 -0.859375 -0.640625q-0.25 -0.296875 -0.25 -0.65625q0 -0.421875 0.328125 -0.96875q0.34375 -0.546875 1.546875 -1.5625zm2.03125 -6.5625q-0.859375 0 -1.453125 0.6875q-0.578125 0.6875 -0.578125 2.125q0 1.84375 0.796875 2.859375q0.609375 0.78125 1.546875 0.78125q0.890625 0 1.453125 -0.671875q0.578125 -0.671875 0.578125 -2.09375q0 -1.859375 -0.796875 -2.921875q-0.609375 -0.765625 -1.546875 -0.765625zm-2.15625 10.484375q-0.546875 0.59375 -0.828125 1.109375q-0.28125 0.515625 -0.28125 0.953125q0 0.5625 0.6875 0.984375q1.171875 0.734375 3.375 0.734375q2.109375 0 3.109375 -0.75q1.015625 -0.75 1.015625 -1.59375q0 -0.609375 -0.609375 -0.859375q-0.609375 -0.265625 -2.40625 -0.3125q-2.640625 -0.0625 -4.0625 -0.265625zm12.125 -3.921875q-0.984375 -0.46875 -1.515625 -1.328125q-0.53125 -0.875 -0.53125 -1.90625q0 -1.59375 1.203125 -2.734375q1.203125 -1.15625 3.078125 -1.15625q1.53125 0 2.65625 0.75l2.28125 0q0.5 0 0.578125 0.03125q0.09375 0.015625 0.125 0.09375q0.0625 0.109375 0.0625 0.375q0 0.296875 -0.046875 0.421875q-0.046875 0.0625 -0.140625 0.09375q-0.078125 0.03125 -0.578125 0.03125l-1.390625 0q0.65625 0.84375 0.65625 2.15625q0 1.5 -1.15625 2.578125q-1.140625 1.0625 -3.078125 1.0625q-0.796875 0 -1.625 -0.234375q-0.515625 0.4375 -0.703125 0.78125q-0.1875 0.328125 -0.1875 0.5625q0 0.203125 0.1875 0.390625q0.203125 0.1875 0.765625 0.265625q0.328125 0.046875 1.640625 0.078125q2.421875 0.0625 3.125 0.171875q1.09375 0.140625 1.734375 0.8125q0.65625 0.65625 0.65625 1.609375q0 1.328125 -1.234375 2.484375q-1.828125 1.71875 -4.765625 1.71875q-2.265625 0 -3.828125 -1.03125q-0.875 -0.578125 -0.875 -1.21875q0 -0.28125 0.125 -0.5625q0.203125 -0.421875 0.828125 -1.203125q0.078125 -0.109375 1.1875 -1.265625q-0.609375 -0.359375 -0.859375 -0.640625q-0.25 -0.296875 -0.25 -0.65625q0 -0.421875 0.328125 -0.96875q0.34375 -0.546875 1.546875 -1.5625zm2.03125 -6.5625q-0.859375 0 -1.453125 0.6875q-0.578125 0.6875 -0.578125 2.125q0 1.84375 0.796875 2.859375q0.609375 0.78125 1.546875 0.78125q0.890625 0 1.453125 -0.671875q0.578125 -0.671875 0.578125 -2.09375q0 -1.859375 -0.796875 -2.921875q-0.609375 -0.765625 -1.546875 -0.765625zm-2.15625 10.484375q-0.546875 0.59375 -0.828125 1.109375q-0.28125 0.515625 -0.28125 0.953125q0 0.5625 0.6875 0.984375q1.171875 0.734375 3.375 0.734375q2.109375 0 3.109375 -0.75q1.015625 -0.75 1.015625 -1.59375q0 -0.609375 -0.609375 -0.859375q-0.609375 -0.265625 -2.40625 -0.3125q-2.640625 -0.0625 -4.0625 -0.265625zm12.9375 -16.671875l0 14.25q0 1.0 0.140625 1.328125q0.15625 0.328125 0.453125 0.5q0.3125 0.171875 1.140625 0.171875l0 0.421875l-5.25 0l0 -0.421875q0.734375 0 1.0 -0.15625q0.265625 -0.15625 0.421875 -0.5q0.15625 -0.359375 0.15625 -1.34375l0 -9.75q0 -1.828125 -0.09375 -2.234375q-0.078125 -0.421875 -0.265625 -0.5625q-0.171875 -0.15625 -0.453125 -0.15625q-0.296875 0 -0.765625 0.1875l-0.203125 -0.421875l3.203125 -1.3125l0.515625 0zm4.7929688 9.984375q-0.015625 2.390625 1.15625 3.75q1.171875 1.359375 2.75 1.359375q1.0625 0 1.828125 -0.578125q0.78125 -0.59375 1.3125 -2.0l0.359375 0.234375q-0.234375 1.609375 -1.421875 2.9375q-1.1875 1.3125 -2.96875 1.3125q-1.9375 0 -3.3125 -1.5q-1.375 -1.515625 -1.375 -4.0625q0 -2.75 1.40625 -4.28125q1.421875 -1.546875 3.546875 -1.546875q1.8125 0 2.96875 1.1875q1.15625 1.1875 1.15625 3.1875l-7.40625 0zm0 -0.6875l4.96875 0q-0.0625 -1.03125 -0.25 -1.453125q-0.296875 -0.65625 -0.875 -1.03125q-0.578125 -0.375 -1.21875 -0.375q-0.96875 0 -1.734375 0.765625q-0.765625 0.75 -0.890625 2.09375z" fill-rule="nonzero"/><path fill="#ffffff" d="m15.07299 255.6063l142.04724 0l0 37.007874l-142.04724 0z" fill-rule="evenodd"/><path stroke="#595959" stroke-width="1.0" stroke-linejoin="round" stroke-linecap="butt" d="m15.07299 255.6063l142.04724 0l0 37.007874l-142.04724 0z" fill-rule="evenodd"/><path fill="#000000" d="m77.872 278.35962l0.375 0.078125l-1.359375 4.3125l-12.296875 0l0 -0.4375l0.59375 0q1.015625 0 1.4375 -0.65625q0.25 -0.375 0.25 -1.734375l0 -10.25q0 -1.484375 -0.328125 -1.859375q-0.453125 -0.515625 -1.359375 -0.515625l-0.59375 0l0 -0.4375l7.1875 0l0 0.4375q-1.265625 -0.015625 -1.78125 0.234375q-0.5 0.234375 -0.6875 0.609375q-0.1875 0.375 -0.1875 1.796875l0 9.984375q0 0.96875 0.1875 1.34375q0.140625 0.234375 0.4375 0.359375q0.296875 0.109375 1.828125 0.109375l1.15625 0q1.828125 0 2.5625 -0.265625q0.75 -0.265625 1.359375 -0.953125q0.609375 -0.6875 1.21875 -2.15625zm4.3789062 -12.28125q0.484375 0 0.828125 0.359375q0.359375 0.34375 0.359375 0.828125q0 0.5 -0.359375 0.859375q-0.34375 0.34375 -0.828125 0.34375q-0.5 0 -0.859375 -0.34375q-0.34375 -0.359375 -0.34375 -0.859375q0 -0.484375 0.34375 -0.828125q0.359375 -0.359375 0.859375 -0.359375zm0.96875 5.625l0 8.625q0 1.0 0.140625 1.34375q0.15625 0.328125 0.4375 0.5q0.296875 0.15625 1.046875 0.15625l0 0.421875l-5.203125 0l0 -0.421875q0.78125 0 1.046875 -0.15625q0.265625 -0.15625 0.421875 -0.5q0.171875 -0.359375 0.171875 -1.34375l0 -4.140625q0 -1.75 -0.109375 -2.265625q-0.078125 -0.375 -0.265625 -0.515625q-0.171875 -0.15625 -0.46875 -0.15625q-0.328125 0 -0.796875 0.1875l-0.171875 -0.421875l3.234375 -1.3125l0.515625 0zm6.0898438 2.265625q1.890625 -2.265625 3.609375 -2.265625q0.875 0 1.5 0.4375q0.640625 0.4375 1.015625 1.4375q0.25 0.703125 0.25 2.15625l0 4.59375q0 1.015625 0.171875 1.375q0.125 0.296875 0.40625 0.46875q0.296875 0.15625 1.0625 0.15625l0 0.421875l-5.296875 0l0 -0.421875l0.21875 0q0.75 0 1.046875 -0.21875q0.296875 -0.234375 0.421875 -0.6875q0.046875 -0.171875 0.046875 -1.09375l0 -4.40625q0 -1.453125 -0.390625 -2.109375q-0.375 -0.671875 -1.28125 -0.671875q-1.390625 0 -2.78125 1.515625l0 5.671875q0 1.078125 0.140625 1.34375q0.15625 0.34375 0.4375 0.5q0.296875 0.15625 1.171875 0.15625l0 0.421875l-5.3125 0l0 -0.421875l0.234375 0q0.828125 0 1.109375 -0.40625q0.296875 -0.421875 0.296875 -1.59375l0 -3.984375q0 -1.9375 -0.09375 -2.359375q-0.09375 -0.421875 -0.28125 -0.578125q-0.171875 -0.15625 -0.46875 -0.15625q-0.328125 0 -0.796875 0.1875l-0.171875 -0.421875l3.234375 -1.3125l0.5 0l0 2.265625zm10.6875 2.09375q-0.015625 2.390625 1.15625 3.75q1.171875 1.359375 2.75 1.359375q1.0625 0 1.828125 -0.578125q0.78125 -0.59375 1.3125 -2.0l0.359375 0.234375q-0.234375 1.609375 -1.421875 2.9375q-1.1875 1.3125 -2.96875 1.3125q-1.9375 0 -3.3125 -1.5q-1.375 -1.515625 -1.375 -4.0625q0 -2.75 1.40625 -4.28125q1.421875 -1.546875 3.546875 -1.546875q1.8125 0 2.96875 1.1875q1.15625 1.1875 1.15625 3.1875l-7.40625 0zm0 -0.6875l4.96875 0q-0.0625 -1.03125 -0.25 -1.453125q-0.296875 -0.65625 -0.875 -1.03125q-0.578125 -0.375 -1.21875 -0.375q-0.96875 0 -1.734375 0.765625q-0.765625 0.75 -0.890625 2.09375z" fill-rule="nonzero"/><path fill="#ffffff" d="m187.16798 115.65879l251.99998 0l0 37.00788l-251.99998 0z" fill-rule="evenodd"/><path stroke="#595959" stroke-width="1.0" stroke-linejoin="round" stroke-linecap="butt" d="m187.16798 115.65879l251.99998 0l0 37.00788l-251.99998 0z" fill-rule="evenodd"/><path fill="#000000" d="m278.40625 127.77148l0 6.2500076l2.90625 0q0.984375 0 1.453125 -0.4375q0.46875 -0.4375 0.609375 -1.734375l0.4375 0l0 5.375l-0.4375 0q0 -0.921875 -0.234375 -1.359375q-0.234375 -0.4375 -0.640625 -0.65625q-0.390625 -0.21875 -1.1875 -0.21875l-2.90625 0l0 5.0q0 1.203125 0.15625 1.59375q0.125 0.296875 0.5 0.5q0.515625 0.28125 1.078125 0.28125l0.5625 0l0 0.4375l-6.8125 0l0 -0.4375l0.5625 0q0.984375 0 1.421875 -0.578125q0.28125 -0.375 0.28125 -1.796875l0 -10.265625q0 -1.203125 -0.140625 -1.59375q-0.125 -0.29688263 -0.484375 -0.5000076q-0.5 -0.28125 -1.078125 -0.28125l-0.5625 0l0 -0.4375l11.828125 0l0.140625 3.4843826l-0.40625 0q-0.296875 -1.109375 -0.703125 -1.625q-0.40625 -0.53125 -1.0 -0.765625q-0.59375 -0.23438263 -1.828125 -0.23438263l-3.515625 0zm11.925781 -1.640625q0.484375 0 0.828125 0.359375q0.359375 0.34375 0.359375 0.828125q0 0.5 -0.359375 0.8593826q-0.34375 0.34375 -0.828125 0.34375q-0.5 0 -0.859375 -0.34375q-0.34375 -0.35938263 -0.34375 -0.8593826q0 -0.484375 0.34375 -0.828125q0.359375 -0.359375 0.859375 -0.359375zm0.96875 5.6250076l0 8.625q0 1.0 0.140625 1.34375q0.15625 0.328125 0.4375 0.5q0.296875 0.15625 1.046875 0.15625l0 0.421875l-5.203125 0l0 -0.421875q0.78125 0 1.046875 -0.15625q0.265625 -0.15625 0.421875 -0.5q0.171875 -0.359375 0.171875 -1.34375l0 -4.140625q0 -1.75 -0.109375 -2.265625q-0.078125 -0.375 -0.265625 -0.515625q-0.171875 -0.15625 -0.46875 -0.15625q-0.328125 0 -0.796875 0.1875l-0.171875 -0.421875l3.234375 -1.3125l0.515625 0zm6.1054688 0l0 2.40625q1.34375 -2.40625 2.765625 -2.40625q0.640625 0 1.0625 0.390625q0.421875 0.390625 0.421875 0.90625q0 0.453125 -0.3125 0.78125q-0.296875 0.3125 -0.71875 0.3125q-0.40625 0 -0.921875 -0.40625q-0.5 -0.40625 -0.75 -0.40625q-0.203125 0 -0.453125 0.234375q-0.53125 0.484375 -1.09375 1.578125l0 5.140625q0 0.890625 0.21875 1.359375q0.15625 0.3125 0.546875 0.53125q0.390625 0.203125 1.109375 0.203125l0 0.421875l-5.5 0l0 -0.421875q0.828125 0 1.21875 -0.265625q0.296875 -0.1875 0.421875 -0.59375q0.046875 -0.203125 0.046875 -1.140625l0 -4.15625q0 -1.875 -0.078125 -2.234375q-0.0625 -0.359375 -0.28125 -0.515625q-0.203125 -0.171875 -0.5 -0.171875q-0.359375 0 -0.828125 0.1875l-0.109375 -0.421875l3.25 -1.3125l0.484375 0zm7.9921875 0l0 2.40625q1.34375 -2.40625 2.765625 -2.40625q0.640625 0 1.0625 0.390625q0.421875 0.390625 0.421875 0.90625q0 0.453125 -0.3125 0.78125q-0.296875 0.3125 -0.71875 0.3125q-0.40625 0 -0.921875 -0.40625q-0.5 -0.40625 -0.75 -0.40625q-0.203125 0 -0.453125 0.234375q-0.53125 0.484375 -1.09375 1.578125l0 5.140625q0 0.890625 0.21875 1.359375q0.15625 0.3125 0.546875 0.53125q0.390625 0.203125 1.109375 0.203125l0 0.421875l-5.5 0l0 -0.421875q0.828125 0 1.21875 -0.265625q0.296875 -0.1875 0.421875 -0.59375q0.046875 -0.203125 0.046875 -1.140625l0 -4.15625q0 -1.875 -0.078125 -2.234375q-0.0625 -0.359375 -0.28125 -0.515625q-0.203125 -0.171875 -0.5 -0.171875q-0.359375 0 -0.828125 0.1875l-0.109375 -0.421875l3.25 -1.3125l0.484375 0zm7.9765625 -3.21875l0 3.53125l2.5 0l0 0.8125l-2.5 0l0 6.96875q0 1.046875 0.296875 1.40625q0.296875 0.359375 0.765625 0.359375q0.390625 0 0.75 -0.234375q0.359375 -0.25 0.5625 -0.71875l0.453125 0q-0.40625 1.15625 -1.15625 1.734375q-0.75 0.578125 -1.546875 0.578125q-0.546875 0 -1.0625 -0.296875q-0.515625 -0.296875 -0.765625 -0.84375q-0.234375 -0.5625 -0.234375 -1.734375l0 -7.21875l-1.703125 0l0 -0.375q0.640625 -0.265625 1.3125 -0.875q0.6875 -0.625 1.203125 -1.46875q0.28125 -0.4375 0.75 -1.625l0.375 0zm7.2304688 -2.4062576l0 14.250008q0 1.0 0.140625 1.328125q0.15625 0.328125 0.453125 0.5q0.3125 0.171875 1.140625 0.171875l0 0.421875l-5.25 0l0 -0.421875q0.734375 0 1.0 -0.15625q0.265625 -0.15625 0.421875 -0.5q0.15625 -0.359375 0.15625 -1.34375l0 -9.75q0 -1.828125 -0.09375 -2.234375q-0.078125 -0.42188263 -0.265625 -0.5625076q-0.171875 -0.15625 -0.453125 -0.15625q-0.296875 0 -0.765625 0.1875l-0.203125 -0.421875l3.203125 -1.3125l0.515625 0zm15.636719 16.234383l0 0.4375l-6.8125 0l0 -0.4375l0.5625 0q0.984375 0 1.4375 -0.578125q0.28125 -0.375 0.28125 -1.796875l0 -10.265625q0 -1.203125 -0.15625 -1.59375q-0.109375 -0.29688263 -0.484375 -0.5000076q-0.515625 -0.28125 -1.078125 -0.28125l-0.5625 0l0 -0.4375l6.8125 0l0 0.4375l-0.578125 0q-0.96875 0 -1.40625 0.5625q-0.296875 0.37500763 -0.296875 1.8125076l0 10.265625q0 1.203125 0.15625 1.59375q0.109375 0.296875 0.484375 0.5q0.5 0.28125 1.0625 0.28125l0.578125 0zm16.804688 0.4375l-4.234375 0l-5.390625 -7.4375q-0.59375 0.03125 -0.96875 0.03125q-0.15625 0 -0.328125 0q-0.171875 -0.015625 -0.359375 -0.03125l0 4.625q0 1.5 0.328125 1.859375q0.4375 0.515625 1.328125 0.515625l0.625 0l0 0.4375l-6.8125 0l0 -0.4375l0.609375 0q1.0 0 1.4375 -0.65625q0.25 -0.359375 0.25 -1.71875l0 -10.265625q0 -1.5 -0.328125 -1.8593826q-0.46875 -0.515625 -1.359375 -0.515625l-0.609375 0l0 -0.4375l5.796875 0q2.53125 0 3.734375 0.375q1.203125 0.359375 2.03125 1.3593826q0.84375 0.984375 0.84375 2.359375q0 1.453125 -0.953125 2.53125q-0.953125 1.078125 -2.96875 1.53125l3.28125 4.5625q1.125 1.5625 1.9375 2.078125q0.8125 0.515625 2.109375 0.65625l0 0.4375zm-11.28125 -8.171875q0.21875 0 0.375 0.015625q0.171875 0 0.28125 0q2.265625 0 3.421875 -0.984375q1.15625 -0.984375 1.15625 -2.515625q0 -1.484375 -0.9375 -2.40625q-0.921875 -0.9375076 -2.453125 -0.9375076q-0.6875 0 -1.84375 0.21875763l0 6.609375z" fill-rule="nonzero"/><path fill="#ffffff" d="m187.16798 163.50394l123.68504 0l0 183.77954l-123.68504 0z" fill-rule="evenodd"/><path stroke="#595959" stroke-width="1.0" stroke-linejoin="round" stroke-linecap="butt" d="m187.16798 163.50394l123.68504 0l0 183.77954l-123.68504 0z" fill-rule="evenodd"/><path fill="#000000" d="m226.68433 179.65332l0.171875 3.71875l-0.4375 0q-0.140625 -0.984375 -0.359375 -1.40625q-0.359375 -0.671875 -0.96875 -0.984375q-0.59375 -0.328125 -1.578125 -0.328125l-2.25 0l0 12.140625q0 1.453125 0.328125 1.828125q0.4375 0.484375 1.359375 0.484375l0.5625 0l0 0.4375l-6.75 0l0 -0.4375l0.5625 0q1.015625 0 1.4375 -0.609375q0.25 -0.375 0.25 -1.703125l0 -12.140625l-1.90625 0q-1.109375 0 -1.578125 0.15625q-0.609375 0.21875 -1.046875 0.859375q-0.4375 0.625 -0.515625 1.703125l-0.4375 0l0.1875 -3.71875l12.96875 0zm3.8164062 4.84375l0 2.40625q1.34375 -2.40625 2.765625 -2.40625q0.640625 0 1.0625 0.390625q0.421875 0.390625 0.421875 0.90625q0 0.453125 -0.3125 0.78125q-0.296875 0.3125 -0.71875 0.3125q-0.40625 0 -0.921875 -0.40625q-0.5 -0.40625 -0.75 -0.40625q-0.203125 0 -0.453125 0.234375q-0.53125 0.484375 -1.09375 1.578125l0 5.140625q0 0.890625 0.21875 1.359375q0.15625 0.3125 0.546875 0.53125q0.390625 0.203125 1.109375 0.203125l0 0.421875l-5.5 0l0 -0.421875q0.828125 0 1.21875 -0.265625q0.296875 -0.1875 0.421875 -0.59375q0.046875 -0.203125 0.046875 -1.140625l0 -4.15625q0 -1.875 -0.078125 -2.234375q-0.0625 -0.359375 -0.28125 -0.515625q-0.203125 -0.171875 -0.5 -0.171875q-0.359375 0 -0.828125 0.1875l-0.109375 -0.421875l3.25 -1.3125l0.484375 0zm6.6640625 4.359375q-0.015625 2.390625 1.15625 3.75q1.171875 1.359375 2.75 1.359375q1.0625 0 1.828125 -0.578125q0.78125 -0.59375 1.3125 -2.0l0.359375 0.234375q-0.234375 1.609375 -1.421875 2.9375q-1.1875 1.3125 -2.96875 1.3125q-1.9375 0 -3.3125 -1.5q-1.375 -1.515625 -1.375 -4.0625q0 -2.75 1.40625 -4.28125q1.421875 -1.546875 3.546875 -1.546875q1.8125 0 2.96875 1.1875q1.15625 1.1875 1.15625 3.1875l-7.40625 0zm0 -0.6875l4.96875 0q-0.0625 -1.03125 -0.25 -1.453125q-0.296875 -0.65625 -0.875 -1.03125q-0.578125 -0.375 -1.21875 -0.375q-0.96875 0 -1.734375 0.765625q-0.765625 0.75 -0.890625 2.09375zm14.917969 5.828125q-1.640625 1.28125 -2.0625 1.46875q-0.640625 0.296875 -1.359375 0.296875q-1.109375 0 -1.828125 -0.75q-0.71875 -0.765625 -0.71875 -2.015625q0 -0.78125 0.34375 -1.359375q0.484375 -0.796875 1.671875 -1.5q1.1875 -0.703125 3.953125 -1.703125l0 -0.421875q0 -1.609375 -0.515625 -2.203125q-0.5 -0.609375 -1.46875 -0.609375q-0.734375 0 -1.171875 0.40625q-0.453125 0.390625 -0.453125 0.90625l0.03125 0.6875q0 0.53125 -0.28125 0.828125q-0.265625 0.296875 -0.71875 0.296875q-0.4375 0 -0.71875 -0.296875q-0.265625 -0.3125 -0.265625 -0.84375q0 -1.0 1.03125 -1.84375q1.03125 -0.84375 2.890625 -0.84375q1.4375 0 2.34375 0.46875q0.703125 0.375 1.03125 1.140625q0.203125 0.5 0.203125 2.0625l0 3.640625q0 1.546875 0.0625 1.890625q0.0625 0.34375 0.1875 0.46875q0.140625 0.109375 0.3125 0.109375q0.1875 0 0.328125 -0.078125q0.25 -0.15625 0.953125 -0.859375l0 0.65625q-1.3125 1.765625 -2.515625 1.765625q-0.5625 0 -0.90625 -0.40625q-0.34375 -0.40625 -0.359375 -1.359375zm0 -0.765625l0 -4.09375q-1.765625 0.703125 -2.28125 1.0q-0.921875 0.515625 -1.328125 1.078125q-0.390625 0.5625 -0.390625 1.234375q0 0.84375 0.5 1.40625q0.5 0.546875 1.15625 0.546875q0.890625 0 2.34375 -1.171875zm12.152344 1.109375q-0.78125 0.8125 -1.53125 1.171875q-0.75 0.359375 -1.609375 0.359375q-1.765625 0 -3.078125 -1.46875q-1.3125 -1.46875 -1.3125 -3.78125q0 -2.3125 1.453125 -4.21875q1.453125 -1.921875 3.734375 -1.921875q1.421875 0 2.34375 0.90625l0 -1.984375q0 -1.84375 -0.09375 -2.265625q-0.078125 -0.421875 -0.265625 -0.5625q-0.1875 -0.15625 -0.46875 -0.15625q-0.296875 0 -0.8125 0.1875l-0.140625 -0.421875l3.1875 -1.3125l0.53125 0l0 12.421875q0 1.875 0.078125 2.296875q0.09375 0.421875 0.28125 0.59375q0.203125 0.15625 0.46875 0.15625q0.3125 0 0.84375 -0.203125l0.125 0.40625l-3.1875 1.328125l-0.546875 0l0 -1.53125zm0 -0.828125l0 -5.53125q-0.0625 -0.796875 -0.421875 -1.453125q-0.34375 -0.65625 -0.921875 -0.984375q-0.578125 -0.34375 -1.140625 -0.34375q-1.03125 0 -1.828125 0.9375q-1.078125 1.21875 -1.078125 3.5625q0 2.359375 1.03125 3.625q1.03125 1.25 2.296875 1.25q1.078125 0 2.0625 -1.0625zm8.109375 -14.640625l0 14.25q0 1.0 0.140625 1.328125q0.15625 0.328125 0.453125 0.5q0.3125 0.171875 1.140625 0.171875l0 0.421875l-5.25 0l0 -0.421875q0.734375 0 1.0 -0.15625q0.265625 -0.15625 0.421875 -0.5q0.15625 -0.359375 0.15625 -1.34375l0 -9.75q0 -1.828125 -0.09375 -2.234375q-0.078125 -0.421875 -0.265625 -0.5625q-0.171875 -0.15625 -0.453125 -0.15625q-0.296875 0 -0.765625 0.1875l-0.203125 -0.421875l3.203125 -1.3125l0.515625 0zm4.7929688 9.984375q-0.015625 2.390625 1.15625 3.75q1.171875 1.359375 2.75 1.359375q1.0625 0 1.828125 -0.578125q0.78125 -0.59375 1.3125 -2.0l0.359375 0.234375q-0.234375 1.609375 -1.421875 2.9375q-1.1875 1.3125 -2.96875 1.3125q-1.9375 0 -3.3125 -1.5q-1.375 -1.515625 -1.375 -4.0625q0 -2.75 1.40625 -4.28125q1.421875 -1.546875 3.546875 -1.546875q1.8125 0 2.96875 1.1875q1.15625 1.1875 1.15625 3.1875l-7.40625 0zm0 -0.6875l4.96875 0q-0.0625 -1.03125 -0.25 -1.453125q-0.296875 -0.65625 -0.875 -1.03125q-0.578125 -0.375 -1.21875 -0.375q-0.96875 0 -1.734375 0.765625q-0.765625 0.75 -0.890625 2.09375z" fill-rule="nonzero"/><path fill="#ffffff" d="m316.46457 163.50394l123.68503 0l0 183.77954l-123.68503 0z" fill-rule="evenodd"/><path stroke="#595959" stroke-width="1.0" stroke-linejoin="round" stroke-linecap="butt" d="m316.46457 163.50394l123.68503 0l0 183.77954l-123.68503 0z" fill-rule="evenodd"/><path fill="#000000" d="m344.54147 180.5127l0 6.25l2.90625 0q0.984375 0 1.453125 -0.4375q0.46875 -0.4375 0.609375 -1.734375l0.4375 0l0 5.375l-0.4375 0q0 -0.921875 -0.234375 -1.359375q-0.234375 -0.4375 -0.640625 -0.65625q-0.390625 -0.21875 -1.1875 -0.21875l-2.90625 0l0 5.0q0 1.203125 0.15625 1.59375q0.125 0.296875 0.5 0.5q0.515625 0.28125 1.078125 0.28125l0.5625 0l0 0.4375l-6.8125 0l0 -0.4375l0.5625 0q0.984375 0 1.421875 -0.578125q0.28125 -0.375 0.28125 -1.796875l0 -10.265625q0 -1.203125 -0.140625 -1.59375q-0.125 -0.296875 -0.484375 -0.5q-0.5 -0.28125 -1.078125 -0.28125l-0.5625 0l0 -0.4375l11.828125 0l0.140625 3.484375l-0.40625 0q-0.296875 -1.109375 -0.703125 -1.625q-0.40625 -0.53125 -1.0 -0.765625q-0.59375 -0.234375 -1.828125 -0.234375l-3.515625 0zm11.925781 -1.640625q0.484375 0 0.828125 0.359375q0.359375 0.34375 0.359375 0.828125q0 0.5 -0.359375 0.859375q-0.34375 0.34375 -0.828125 0.34375q-0.5 0 -0.859375 -0.34375q-0.34375 -0.359375 -0.34375 -0.859375q0 -0.484375 0.34375 -0.828125q0.359375 -0.359375 0.859375 -0.359375zm0.96875 5.625l0 8.625q0 1.0 0.140625 1.34375q0.15625 0.328125 0.4375 0.5q0.296875 0.15625 1.046875 0.15625l0 0.421875l-5.203125 0l0 -0.421875q0.78125 0 1.046875 -0.15625q0.265625 -0.15625 0.421875 -0.5q0.171875 -0.359375 0.171875 -1.34375l0 -4.140625q0 -1.75 -0.109375 -2.265625q-0.078125 -0.375 -0.265625 -0.515625q-0.171875 -0.15625 -0.46875 -0.15625q-0.328125 0 -0.796875 0.1875l-0.171875 -0.421875l3.234375 -1.3125l0.515625 0zm6.1054688 0l0 2.40625q1.34375 -2.40625 2.765625 -2.40625q0.640625 0 1.0625 0.390625q0.421875 0.390625 0.421875 0.90625q0 0.453125 -0.3125 0.78125q-0.296875 0.3125 -0.71875 0.3125q-0.40625 0 -0.921875 -0.40625q-0.5 -0.40625 -0.75 -0.40625q-0.203125 0 -0.453125 0.234375q-0.53125 0.484375 -1.09375 1.578125l0 5.140625q0 0.890625 0.21875 1.359375q0.15625 0.3125 0.546875 0.53125q0.390625 0.203125 1.109375 0.203125l0 0.421875l-5.5 0l0 -0.421875q0.828125 0 1.21875 -0.265625q0.296875 -0.1875 0.421875 -0.59375q0.046875 -0.203125 0.046875 -1.140625l0 -4.15625q0 -1.875 -0.078125 -2.234375q-0.0625 -0.359375 -0.28125 -0.515625q-0.203125 -0.171875 -0.5 -0.171875q-0.359375 0 -0.828125 0.1875l-0.109375 -0.421875l3.25 -1.3125l0.484375 0zm6.6640625 4.359375q-0.015625 2.390625 1.15625 3.75q1.171875 1.359375 2.75 1.359375q1.0625 0 1.828125 -0.578125q0.78125 -0.59375 1.3125 -2.0l0.359375 0.234375q-0.234375 1.609375 -1.421875 2.9375q-1.1875 1.3125 -2.96875 1.3125q-1.9375 0 -3.3125 -1.5q-1.375 -1.515625 -1.375 -4.0625q0 -2.75 1.40625 -4.28125q1.421875 -1.546875 3.546875 -1.546875q1.8125 0 2.96875 1.1875q1.15625 1.1875 1.15625 3.1875l-7.40625 0zm0 -0.6875l4.96875 0q-0.0625 -1.03125 -0.25 -1.453125q-0.296875 -0.65625 -0.875 -1.03125q-0.578125 -0.375 -1.21875 -0.375q-0.96875 0 -1.734375 0.765625q-0.765625 0.75 -0.890625 2.09375zm19.089813 -8.875l0 5.484375l-0.421875 0q-0.21875 -1.578125 -0.765625 -2.515625q-0.546875 -0.9375 -1.5625 -1.484375q-1.0 -0.546875 -2.078125 -0.546875q-1.21875 0 -2.015625 0.75q-0.796875 0.734375 -0.796875 1.6875q0 0.71875 0.515625 1.3125q0.71875 0.890625 3.453125 2.34375q2.21875 1.203125 3.03125 1.84375q0.828125 0.640625 1.265625 1.515625q0.4375 0.859375 0.4375 1.796875q0 1.8125 -1.40625 3.125q-1.390625 1.296875 -3.59375 1.296875q-0.703125 0 -1.3125 -0.09375q-0.359375 -0.0625 -1.5 -0.4375q-1.140625 -0.375 -1.453125 -0.375q-0.28125 0 -0.453125 0.1875q-0.171875 0.171875 -0.24996948 0.71875l-0.4375 0l0 -5.453125l0.4375 0q0.29684448 1.71875 0.8124695 2.578125q0.515625 0.84375 1.578125 1.40625q1.0625 0.5625 2.328125 0.5625q1.46875 0 2.3125 -0.765625q0.84375 -0.78125 0.84375 -1.84375q0 -0.578125 -0.328125 -1.171875q-0.3125 -0.609375 -0.984375 -1.125q-0.46875 -0.34375 -2.515625 -1.484375q-2.03125 -1.15625 -2.890625 -1.828125q-0.859375 -0.6875 -1.3124695 -1.5q-0.4375 -0.828125 -0.4375 -1.8125q0 -1.703125 1.3124695 -2.9375q1.3125 -1.234375 3.34375 -1.234375q1.265625 0 2.6875 0.609375q0.65625 0.296875 0.921875 0.296875q0.296875 0 0.484375 -0.171875q0.203125 -0.1875 0.328125 -0.734375l0.421875 0zm5.8320312 -0.421875q0.484375 0 0.828125 0.359375q0.359375 0.34375 0.359375 0.828125q0 0.5 -0.359375 0.859375q-0.34375 0.34375 -0.828125 0.34375q-0.5 0 -0.859375 -0.34375q-0.34375 -0.359375 -0.34375 -0.859375q0 -0.484375 0.34375 -0.828125q0.359375 -0.359375 0.859375 -0.359375zm0.96875 5.625l0 8.625q0 1.0 0.140625 1.34375q0.15625 0.328125 0.4375 0.5q0.296875 0.15625 1.046875 0.15625l0 0.421875l-5.203125 0l0 -0.421875q0.78125 0 1.046875 -0.15625q0.265625 -0.15625 0.421875 -0.5q0.171875 -0.359375 0.171875 -1.34375l0 -4.140625q0 -1.75 -0.109375 -2.265625q-0.078125 -0.375 -0.265625 -0.515625q-0.171875 -0.15625 -0.46875 -0.15625q-0.328125 0 -0.796875 0.1875l-0.171875 -0.421875l3.234375 -1.3125l0.515625 0zm6.1523438 2.28125q1.171875 -1.171875 1.390625 -1.34375q0.515625 -0.453125 1.125 -0.6875q0.609375 -0.25 1.21875 -0.25q1.0 0 1.71875 0.59375q0.734375 0.578125 0.984375 1.6875q1.203125 -1.40625 2.03125 -1.84375q0.84375 -0.4375 1.71875 -0.4375q0.859375 0 1.515625 0.4375q0.65625 0.4375 1.046875 1.4375q0.265625 0.671875 0.265625 2.125l0 4.625q0 1.0 0.140625 1.375q0.125 0.265625 0.4375 0.453125q0.3125 0.171875 1.03125 0.171875l0 0.421875l-5.296875 0l0 -0.421875l0.21875 0q0.703125 0 1.078125 -0.265625q0.28125 -0.1875 0.390625 -0.609375q0.046875 -0.1875 0.046875 -1.125l0 -4.625q0 -1.3125 -0.3125 -1.84375q-0.453125 -0.75 -1.46875 -0.75q-0.625 0 -1.25 0.3125q-0.625 0.296875 -1.515625 1.140625l-0.015625 0.140625l0.015625 0.5l0 5.125q0 1.09375 0.125 1.375q0.125 0.265625 0.453125 0.453125q0.34375 0.171875 1.171875 0.171875l0 0.421875l-5.421875 0l0 -0.421875q0.890625 0 1.21875 -0.203125q0.328125 -0.21875 0.46875 -0.640625q0.046875 -0.203125 0.046875 -1.15625l0 -4.625q0 -1.3125 -0.375 -1.890625q-0.515625 -0.75 -1.453125 -0.75q-0.625 0 -1.25 0.34375q-0.96875 0.515625 -1.5 1.15625l0 5.765625q0 1.046875 0.140625 1.375q0.15625 0.3125 0.4375 0.46875q0.296875 0.15625 1.171875 0.15625l0 0.421875l-5.3125 0l0 -0.421875q0.734375 0 1.03125 -0.15625q0.296875 -0.15625 0.4375 -0.5q0.15625 -0.359375 0.15625 -1.34375l0 -4.109375q0 -1.765625 -0.09375 -2.28125q-0.09375 -0.390625 -0.265625 -0.53125q-0.171875 -0.15625 -0.484375 -0.15625q-0.328125 0 -0.78125 0.1875l-0.171875 -0.421875l3.234375 -1.3125l0.5 0l0 2.28125z" fill-rule="nonzero"/><path fill="#000000" d="m347.08835 229.04707l0 0.4375q-1.765625 -0.890625 -2.953125 -2.09375q-1.6875 -1.703125 -2.609375 -4.0q-0.90625 -2.3125 -0.90625 -4.796875q0 -3.640625 1.796875 -6.625q1.796875 -3.0 4.671875 -4.296875l0 0.5q-1.4375 0.796875 -2.375 2.1875q-0.921875 1.375 -1.375 3.5q-0.453125 2.109375 -0.453125 4.421875q0 2.515625 0.390625 4.5625q0.296875 1.625 0.734375 2.59375q0.4375 0.984375 1.15625 1.875q0.734375 0.90625 1.921875 1.734375zm5.4453125 -19.734375l0 6.25l2.90625 0q0.984375 0 1.453125 -0.4375q0.46875 -0.4375 0.609375 -1.734375l0.4375 0l0 5.375l-0.4375 0q0 -0.921875 -0.234375 -1.359375q-0.234375 -0.4375 -0.640625 -0.65625q-0.390625 -0.21875 -1.1875 -0.21875l-2.90625 0l0 5.0q0 1.203125 0.15625 1.59375q0.125 0.296875 0.5 0.5q0.515625 0.28125 1.078125 0.28125l0.5625 0l0 0.4375l-6.8125 0l0 -0.4375l0.5625 0q0.984375 0 1.421875 -0.578125q0.28125 -0.375 0.28125 -1.796875l0 -10.265625q0 -1.203125 -0.140625 -1.59375q-0.125 -0.296875 -0.484375 -0.5q-0.5 -0.28125 -1.078125 -0.28125l-0.5625 0l0 -0.4375l11.828125 0l0.140625 3.484375l-0.40625 0q-0.296875 -1.109375 -0.703125 -1.625q-0.40625 -0.53125 -1.0 -0.765625q-0.59375 -0.234375 -1.828125 -0.234375l-3.515625 0zm13.363281 7.59375l0 4.625q0 1.5 0.328125 1.859375q0.453125 0.515625 1.34375 0.515625l0.609375 0l0 0.4375l-6.796875 0l0 -0.4375l0.59375 0q1.0 0 1.4375 -0.65625q0.234375 -0.359375 0.234375 -1.71875l0 -10.265625q0 -1.5 -0.3125 -1.859375q-0.453125 -0.515625 -1.359375 -0.515625l-0.59375 0l0 -0.4375l5.8125 0q2.140625 0 3.359375 0.4375q1.234375 0.4375 2.078125 1.484375q0.84375 1.046875 0.84375 2.46875q0 1.953125 -1.28125 3.171875q-1.28125 1.21875 -3.625 1.21875q-0.578125 0 -1.25 -0.078125q-0.65625 -0.09375 -1.421875 -0.25zm0 -0.671875q0.625 0.109375 1.09375 0.171875q0.484375 0.0625 0.828125 0.0625q1.21875 0 2.09375 -0.9375q0.890625 -0.953125 0.890625 -2.453125q0 -1.03125 -0.421875 -1.90625q-0.421875 -0.890625 -1.203125 -1.328125q-0.765625 -0.4375 -1.75 -0.4375q-0.59375 0 -1.53125 0.21875l0 6.609375zm23.160126 -8.140625l0.40625 5.015625l-0.40625 0q-0.625 -1.875 -1.609375 -2.828125q-1.421875 -1.375 -3.640625 -1.375q-3.03125 0 -4.6249695 2.40625q-1.3125 2.03125 -1.3125 4.828125q0 2.265625 0.875 4.140625q0.875 1.875 2.2968445 2.75q1.421875 0.875 2.921875 0.875q0.890625 0 1.703125 -0.21875q0.828125 -0.21875 1.578125 -0.65625l0 -4.59375q0 -1.203125 -0.1875 -1.5625q-0.171875 -0.375 -0.5625 -0.5625q-0.375 -0.203125 -1.328125 -0.203125l0 -0.4375l6.15625 0l0 0.4375l-0.296875 0q-0.921875 0 -1.25 0.609375q-0.234375 0.4375 -0.234375 1.71875l0 4.859375q-1.359375 0.734375 -2.671875 1.0625q-1.3125 0.34375 -2.90625 0.34375q-4.6093445 0 -6.9999695 -2.953125q-1.796875 -2.21875 -1.796875 -5.109375q0 -2.09375 1.015625 -4.015625q1.1875 -2.28125 3.28125 -3.515625q1.7343445 -1.015625 4.1249695 -1.015625q0.859375 0 1.5625 0.140625q0.71875 0.140625 2.015625 0.609375q0.65625 0.25 0.875 0.25q0.234375 0 0.390625 -0.203125q0.15625 -0.203125 0.1875 -0.796875l0.4375 0zm13.582031 10.921875l-6.15625 0l-1.078125 2.515625q-0.390625 0.921875 -0.390625 1.375q0 0.375 0.34375 0.65625q0.34375 0.265625 1.484375 0.34375l0 0.4375l-5.0 0l0 -0.4375q1.0 -0.171875 1.296875 -0.453125q0.59375 -0.5625 1.3125 -2.28125l5.59375 -13.078125l0.40625 0l5.53125 13.21875q0.671875 1.59375 1.21875 2.0625q0.546875 0.46875 1.515625 0.53125l0 0.4375l-6.265625 0l0 -0.4375q0.953125 -0.046875 1.28125 -0.3125q0.328125 -0.265625 0.328125 -0.65625q0 -0.515625 -0.46875 -1.625l-0.953125 -2.296875zm-0.328125 -0.859375l-2.703125 -6.421875l-2.765625 6.421875l5.46875 0zm7.2226562 -9.984375l0 -0.5q1.78125 0.890625 2.953125 2.078125q1.6875 1.71875 2.59375 4.015625q0.921875 2.296875 0.921875 4.796875q0 3.640625 -1.796875 6.625q-1.78125 3.0 -4.671875 4.296875l0 -0.4375q1.4375 -0.8125 2.359375 -2.1875q0.9375 -1.375 1.390625 -3.5q0.453125 -2.140625 0.453125 -4.4375q0 -2.5 -0.390625 -4.5625q-0.296875 -1.625 -0.734375 -2.59375q-0.4375 -0.96875 -1.171875 -1.875q-0.71875 -0.90625 -1.90625 -1.71875z" fill-rule="nonzero"/><path fill="#ffffff" d="m196.09698 255.6063l105.82678 0l0 37.007874l-105.82678 0z" fill-rule="evenodd"/><path stroke="#595959" stroke-width="1.0" stroke-linejoin="round" stroke-linecap="butt" d="m196.09698 255.6063l105.82678 0l0 37.007874l-105.82678 0z" fill-rule="evenodd"/><path fill="#000000" d="m228.03186 266.85962l4.3125 0l9.71875 11.921875l0 -9.171875q0 -1.46875 -0.328125 -1.828125q-0.4375 -0.484375 -1.375 -0.484375l-0.546875 0l0 -0.4375l5.53125 0l0 0.4375l-0.5625 0q-1.015625 0 -1.4375 0.609375q-0.25 0.375 -0.25 1.703125l0 13.40625l-0.421875 0l-10.484375 -12.8125l0 9.796875q0 1.453125 0.3125 1.828125q0.453125 0.484375 1.375 0.484375l0.5625 0l0 0.4375l-5.53125 0l0 -0.4375l0.546875 0q1.03125 0 1.453125 -0.609375q0.25 -0.375 0.25 -1.703125l0 -11.0625q-0.6875 -0.796875 -1.046875 -1.046875q-0.359375 -0.265625 -1.046875 -0.5q-0.34375 -0.09375 -1.03125 -0.09375l0 -0.4375zm24.378906 -0.78125l-5.765625 17.0l-0.9375 0l5.765625 -17.0l0.9375 0zm10.917969 11.34375l-6.15625 0l-1.078125 2.515625q-0.390625 0.921875 -0.390625 1.375q0 0.375 0.34375 0.65625q0.34375 0.265625 1.484375 0.34375l0 0.4375l-5.0 0l0 -0.4375q1.0 -0.171875 1.296875 -0.453125q0.59375 -0.5625 1.3125 -2.28125l5.59375 -13.078125l0.40625 0l5.53125 13.21875q0.671875 1.59375 1.21875 2.0625q0.546875 0.46875 1.515625 0.53125l0 0.4375l-6.265625 0l0 -0.4375q0.953125 -0.046875 1.28125 -0.3125q0.328125 -0.265625 0.328125 -0.65625q0 -0.515625 -0.46875 -1.625l-0.953125 -2.296875zm-0.328125 -0.859375l-2.703125 -6.421875l-2.765625 6.421875l5.46875 0z" fill-rule="nonzero"/><path fill="#ffffff" d="m325.3936 255.6063l105.82675 0l0 37.007874l-105.82675 0z" fill-rule="evenodd"/><path stroke="#595959" stroke-width="1.0" stroke-linejoin="round" stroke-linecap="butt" d="m325.3936 255.6063l105.82675 0l0 37.007874l-105.82675 0z" fill-rule="evenodd"/><path fill="#000000" d="m357.32843 266.85962l4.3125 0l9.71875 11.921875l0 -9.171875q0 -1.46875 -0.328125 -1.828125q-0.4375 -0.484375 -1.375 -0.484375l-0.546875 0l0 -0.4375l5.53125 0l0 0.4375l-0.5625 0q-1.015625 0 -1.4375 0.609375q-0.25 0.375 -0.25 1.703125l0 13.40625l-0.421875 0l-10.484375 -12.8125l0 9.796875q0 1.453125 0.3125 1.828125q0.453125 0.484375 1.375 0.484375l0.5625 0l0 0.4375l-5.53125 0l0 -0.4375l0.546875 0q1.03125 0 1.453125 -0.609375q0.25 -0.375 0.25 -1.703125l0 -11.0625q-0.6875 -0.796875 -1.046875 -1.046875q-0.359375 -0.265625 -1.046875 -0.5q-0.34375 -0.09375 -1.03125 -0.09375l0 -0.4375zm24.378906 -0.78125l-5.765625 17.0l-0.9375 0l5.765625 -17.0l0.9375 0zm10.917999 11.34375l-6.1562805 0l-1.078125 2.515625q-0.390625 0.921875 -0.390625 1.375q0 0.375 0.34375 0.65625q0.34375 0.265625 1.484375 0.34375l0 0.4375l-5.0 0l0 -0.4375q1.0 -0.171875 1.296875 -0.453125q0.59375 -0.5625 1.3125 -2.28125l5.5937805 -13.078125l0.40625 0l5.53125 13.21875q0.671875 1.59375 1.21875 2.0625q0.546875 0.46875 1.515625 0.53125l0 0.4375l-6.265625 0l0 -0.4375q0.953125 -0.046875 1.28125 -0.3125q0.328125 -0.265625 0.328125 -0.65625q0 -0.515625 -0.46875 -1.625l-0.953125 -2.296875zm-0.328125 -0.859375l-2.703125 -6.421875l-2.7656555 6.421875l5.4687805 0z" fill-rule="nonzero"/></g></svg>