<?xml version="1.0" encoding="UTF-8" standalone="no"?>
<!-- Created with Inkscape (http://www.inkscape.org/) -->

<svg
   version="1.1"
   id="svg1"
   width="384"
   height="118.18667"
   viewBox="0 0 384 118.18667"
   xmlns="http://www.w3.org/2000/svg"
   xmlns:svg="http://www.w3.org/2000/svg">
  <defs
     id="defs1" />
  <g
     id="g1"
     transform="matrix(1.3333333,0,0,-1.3333333,0,118.18667)">
    <g
       id="g2"
       transform="scale(0.1)">
      <path
         d="m 272.004,235.227 c -44.113,0 -88.227,10.496 -134.438,10.496 -44.1051,0 -67.2066,-4.2 -100.8082,-4.2 -10.5078,0 -17.8555,1.055 -17.8555,11.543 0,10.52 6.2969,12.618 29.3985,12.618 47.2617,0 49.3711,2.089 49.3711,17.832 v 483.117 c 0,82.957 -16.8242,92.41 -46.211,92.41 C 4.1875,859.043 0,860.102 0,872.699 c 0,7.356 3.14063,8.406 20.9922,8.406 32.5664,0 65.1172,-1.05 101.8788,-1.05 22.051,0 72.473,6.297 166.977,6.297 136.543,0 195.351,-70.36 195.351,-144.922 0,-74.571 -45.16,-111.328 -78.769,-134.426 -19.961,-13.664 -43.071,-25.211 -43.071,-28.359 0,-2.102 19.961,-7.352 40.973,-17.852 49.352,-25.211 111.328,-60.918 111.328,-152.297 0,-117.617 -97.672,-173.269 -243.656,-173.269 M 258.34,861.152 c -69.313,0 -72.449,-9.449 -72.449,-30.449 v -227.91 c 0,-16.801 13.64,-14.703 38.851,-14.703 64.059,0 108.168,-6.297 108.168,-6.297 30.449,23.102 65.121,43.062 65.121,126.02 0,52.511 -44.109,153.339 -139.691,153.339 M 223.699,568.156 c -29.406,0 -37.808,-4.215 -37.808,-27.324 v -187.98 c 0,-9.473 3.136,-68.262 12.589,-78.778 11.559,-12.597 45.157,-19.953 78.782,-19.953 79.801,0 138.617,54.621 138.617,145.977 0,94.535 -77.711,168.058 -192.18,168.058"
         style="fill:#223a6d;fill-opacity:1;fill-rule:nonzero;stroke:none"
         id="path2" />
      <path
         d="m 850.453,496.02 c -23.75,-5.489 -115.101,-25.59 -219.219,-31.977 -14.632,-0.922 -17.371,-5.484 -17.371,-26.492 0,-126.067 97.739,-159.856 167.184,-159.856 60.277,0 93.168,21.926 98.644,21.926 4.571,0 7.313,-5.48 7.313,-7.316 0,-4.551 -77.649,-62.11 -151.652,-62.11 -74.887,0 -186.336,36.543 -186.336,189.082 0,128.805 86.785,205.543 169.894,205.543 47.512,0 105.973,-30.156 138.856,-68.519 15.535,-18.27 30.148,-40.188 30.148,-47.488 0,-3.661 -12.781,-7.313 -37.461,-12.793 M 709.785,605.621 c -69.426,0 -91.351,-104.121 -91.351,-116.918 0,-4.57 0,-5.48 10.968,-5.48 47.5,0 96.821,11.89 165.328,22.847 10.055,1.821 10.973,3.653 10.973,9.129 0,22.832 -53.89,90.422 -95.918,90.422"
         style="fill:#223a6d;fill-opacity:1;fill-rule:nonzero;stroke:none"
         id="path3" />
      <path
         d="m 1184.79,520.684 c -12.79,0 -23.75,37.453 -69.43,37.453 -52.98,0 -73.07,-21.926 -73.07,-60.285 V 309.668 c 0,-44.754 2.73,-44.754 70.33,-44.754 23.75,0 24.66,-2.746 24.66,-10.969 0,-10.058 -0.91,-9.14 -24.66,-9.14 -12.8,0 -73.99,4.57 -103.23,4.57 -31.054,0 -62.105,-4.57 -74.894,-4.57 -21.019,0 -22.851,0 -22.851,9.14 0,9.141 0.918,10.969 22.851,10.969 37.445,0 40.188,0.906 40.188,13.699 v 250.289 c 0,62.114 1.82,63.93 -49.317,63.93 -16.461,0 -16.461,-0.906 -16.461,9.141 0,10.972 -0.914,13.711 14.629,13.711 31.051,0 48.406,-1.821 66.68,-1.821 14.605,0 31.955,4.559 46.595,4.559 3.65,0 7.31,-2.738 7.31,-10.059 0,-4.57 -1.83,-24.66 -1.83,-27.402 0,-8.215 0.9,-14.609 4.57,-14.609 13.7,0 56.63,47.511 99.55,47.511 16.46,0 58.46,-20.109 58.46,-43.859 0,-9.129 -14.61,-49.32 -20.08,-49.32"
         style="fill:#223a6d;fill-opacity:1;fill-rule:nonzero;stroke:none"
         id="path4" />
      <path
         d="m 1616.86,241.152 c -10.96,0 -22.83,0.911 -31.05,0.911 -10.96,0 -38.37,-0.911 -51.14,-0.911 -16.47,0 -24.69,22.852 -63.05,66.692 -38.36,43.836 -76.75,101.394 -82.23,101.394 -3.65,0 -16.44,-9.14 -31.97,-19.179 -14.61,-9.141 -27.4,-15.547 -27.4,-23.77 V 308.75 c 0,-42.918 -1.83,-42.918 54.8,-42.918 21.01,0 24.66,-4.57 24.66,-11.887 0,-9.14 -4.56,-9.14 -24.66,-9.14 -13.7,0 -55.71,1.828 -84.94,1.828 -31.07,0 -64.86,-1.828 -77.65,-1.828 -21.01,0 -26.49,0.918 -26.49,9.14 0,7.317 4.57,11.887 26.49,11.887 31.05,0 39.28,0 39.28,13.699 0,26.485 2.74,296.871 2.74,489.61 0,64.847 -7.31,73.07 -31.97,73.07 -37.45,0 -41.1,2.742 -41.1,9.152 0,9.129 1.82,12.789 11.87,12.789 65.76,0 119.66,20.09 127.88,20.09 4.57,0 6.4,-2.738 6.4,-8.222 0,-11.868 -1.83,-50.247 -1.83,-79.477 0,-138.844 -5.48,-241.152 -5.48,-390.039 0,-3.66 0.91,-6.406 3.66,-6.406 22.83,0 117.85,84.035 147.08,111.457 35.63,33.789 43.84,49.316 43.84,68.496 0,14.613 -2.74,16.437 -42.93,16.437 -13.7,0 -18.27,1.832 -18.27,10.055 0,7.32 4.57,9.152 16.44,9.152 9.12,0 26.49,-2.746 37.45,-2.746 11.87,0 64.86,2.746 75.82,2.746 7.31,0 10.96,-0.925 10.96,-3.664 0,-8.23 -31.04,-47.508 -59.36,-74.91 -45.69,-44.766 -102.32,-84.949 -102.32,-91.348 0,-8.222 16.44,-25.578 80.38,-102.316 31.08,-37.441 60.3,-82.195 91.35,-82.195 21.92,0 29.23,-4.582 29.23,-11.887 0,-6.387 -6.4,-8.223 -26.49,-8.223"
         style="fill:#223a6d;fill-opacity:1;fill-rule:nonzero;stroke:none"
         id="path5" />
      <path
         d="m 1915.59,496.02 c -23.76,-5.489 -115.1,-25.59 -219.23,-31.977 -14.62,-0.922 -17.36,-5.484 -17.36,-26.492 0,-126.067 97.73,-159.856 167.15,-159.856 60.29,0 93.19,21.926 98.67,21.926 4.56,0 7.3,-5.48 7.3,-7.316 0,-4.551 -77.65,-62.11 -151.63,-62.11 -74.91,0 -186.35,36.543 -186.35,189.082 0,128.805 86.78,205.543 169.9,205.543 47.5,0 105.96,-30.156 138.86,-68.519 15.52,-18.27 30.14,-40.188 30.14,-47.488 0,-3.661 -12.79,-7.313 -37.45,-12.793 M 1774.9,605.621 c -69.41,0 -91.33,-104.121 -91.33,-116.918 0,-4.57 0,-5.48 10.96,-5.48 47.48,0 96.81,11.89 165.33,22.847 10.04,1.821 10.96,3.653 10.96,9.129 0,22.832 -53.89,90.422 -95.92,90.422"
         style="fill:#223a6d;fill-opacity:1;fill-rule:nonzero;stroke:none"
         id="path6" />
      <path
         d="m 2116.72,244.805 c -13.71,0 -33.79,1.836 -50.25,1.836 -31.05,0 -79.46,-1.836 -92.25,-1.836 -21.02,0 -22.85,1.836 -22.85,9.133 0,6.394 0.92,11.882 22.85,11.882 37.45,0 52.98,-0.906 52.98,15.528 v 503.324 c 0,57.547 -5.48,57.547 -46.57,57.547 -16.45,0 -25.6,1.816 -25.6,11.886 0,10.958 7.31,10.04 22.85,10.958 71.25,4.562 105.95,20.093 111.44,20.093 4.57,0 9.12,-4.57 9.12,-14.609 0,-10.961 -4.55,-43.863 -4.55,-71.258 0,-348.035 -4.57,-420.187 -4.57,-446.691 0,-75.809 6.39,-85.86 22.83,-85.86 45.67,0 43.85,-5.468 43.85,-12.8 0,-9.133 -6.41,-9.133 -39.28,-9.133"
         style="fill:#223a6d;fill-opacity:1;fill-rule:nonzero;stroke:none"
         id="path7" />
      <path
         d="m 2442.47,496.02 c -23.75,-5.489 -115.1,-25.59 -219.24,-31.977 -14.61,-0.922 -17.37,-5.484 -17.37,-26.492 0,-126.067 97.76,-159.856 167.17,-159.856 60.3,0 93.19,21.926 98.65,21.926 4.57,0 7.31,-5.48 7.31,-7.316 0,-4.551 -77.64,-62.11 -151.62,-62.11 -74.92,0 -186.37,36.543 -186.37,189.082 0,128.805 86.8,205.543 169.92,205.543 47.5,0 105.98,-30.156 138.85,-68.519 15.53,-18.27 30.14,-40.188 30.14,-47.488 0,-3.661 -12.8,-7.313 -37.44,-12.793 m -140.69,109.601 c -69.41,0 -91.35,-104.121 -91.35,-116.918 0,-4.57 0,-5.48 10.96,-5.48 47.52,0 96.84,11.89 165.35,22.847 10.04,1.821 10.98,3.653 10.98,9.129 0,22.832 -53.93,90.422 -95.94,90.422"
         style="fill:#223a6d;fill-opacity:1;fill-rule:nonzero;stroke:none"
         id="path8" />
      <path
         d="m 2856.25,593.75 c -20.09,0 -60.29,-109.617 -132.44,-285 C 2666.24,169.004 2625.14,95 2595.92,34.707 2585.88,14.6094 2574.91,13.7031 2554.81,10.957 2527.41,7.30469 2521.02,0 2500.92,0 c -15.54,0 -24.67,4.5625 -24.67,9.13281 0,5.47659 42.93,10.95699 73.99,50.24219 32.89,41.105 111.44,148.898 111.44,176.289 0,10.059 -73.06,179.063 -123.32,297.809 -22.83,54.8 -29.23,59.371 -45.66,59.371 -18.28,0 -19.18,0.906 -19.18,9.129 0,8.218 2.73,12.797 19.18,12.797 25.57,0 31.97,-1.821 53.89,-1.821 25.56,0 57.54,2.739 86.77,2.739 19.18,0 22.84,-3.657 22.84,-13.715 0,-8.223 -3.66,-9.129 -22.84,-9.129 -21.91,0 -27.4,-5.485 -27.4,-26.492 0,-26.493 23.75,-58.461 78.56,-199.145 7.32,-19.18 18.28,-34.707 21.93,-34.707 6.39,0 11.88,12.793 26.48,55.734 21.92,65.754 54.81,160.766 54.81,173.547 0,27.399 0,32.879 -31.06,32.879 -28.3,0 -31.97,0 -31.97,9.141 0,11.887 2.74,11.887 19.18,11.887 24.67,0 41.1,-1.825 65.78,-1.825 13.71,0 38.36,3.649 51.16,3.649 14.6,0 19.17,-0.91 19.17,-10.969 0,-8.223 -12.79,-12.793 -23.75,-12.793"
         style="fill:#223a6d;fill-opacity:1;fill-rule:nonzero;stroke:none"
         id="path9" />
      <path
         d="m 124.41,13.3789 c -29.953,0 -45.1092,16.9336 -45.1092,44.3945 V 137.453 H 100.508 V 56.6992 c 0,-15.332 6.43,-25.3125 23.902,-25.3125 17.289,0 23.699,9.9805 23.699,25.1367 v 80.9296 h 21.223 V 57.9492 c 0,-27.6367 -15.152,-44.5703 -44.922,-44.5703"
         style="fill:#223a6d;fill-opacity:1;fill-rule:nonzero;stroke:none"
         id="path10" />
      <path
         d="m 272.172,15.332 -51.52,82.0118 h -0.347 V 15.332 H 199.082 V 135.5 l 20.496,2.137 49.742,-80.4104 h 0.543 v 80.2344 h 21.211 V 15.332 h -18.902"
         style="fill:#223a6d;fill-opacity:1;fill-rule:nonzero;stroke:none"
         id="path11" />
      <path
         d="m 321.348,137.453 h 21.211 V 15.332 h -21.211 v 122.121"
         style="fill:#223a6d;fill-opacity:1;fill-rule:nonzero;stroke:none"
         id="path12" />
      <path
         d="m 428.832,15.332 h -23.348 l -42.07,122.129 h 22.449 l 23.36,-68.1055 c 0,0 2.32,-7.1289 8.203,-27.9883 h 1.07 c 6.07,20.8594 8.379,27.8125 8.379,27.8125 l 23.352,68.2813 h 20.859 L 428.832,15.332"
         style="fill:#223a6d;fill-opacity:1;fill-rule:nonzero;stroke:none"
         id="path13" />
      <path
         d="m 565.902,15.332 h -74.16 v 122.305 h 72.731 v -18.008 h -51.52 V 85.9375 h 45.82 V 67.9297 h -45.82 V 33.3398 h 54.551 L 565.902,15.332"
         style="fill:#223a6d;fill-opacity:1;fill-rule:nonzero;stroke:none"
         id="path14" />
      <path
         d="m 659.652,15.332 -16.933,34.4141 c -3.571,7.3047 -8.028,14.4336 -15.699,14.4336 H 616.859 V 15.332 h -21.211 v 122.129 h 39.223 c 26.922,0 40.289,-14.981 40.289,-36.191 0,-14.6098 -6.945,-27.1098 -22.996,-33.1645 v -0.3516 c 3.926,-2.3242 6.066,-5.5273 7.488,-8.3789 l 23.36,-44.043 z M 634.34,119.277 H 616.859 V 82.0117 h 17.832 c 12.836,0 18.723,7.4805 18.723,19.0743 0,11.414 -4.637,18.191 -19.074,18.191"
         style="fill:#223a6d;fill-opacity:1;fill-rule:nonzero;stroke:none"
         id="path15" />
      <path
         d="m 737.891,13.3789 c -16.758,0 -30.309,6.5938 -40.278,13.5469 l 8.903,15.6914 c 9.988,-6.7774 21.925,-11.2305 31.375,-11.2305 14.082,0 21.039,7.8516 21.039,16.9336 0,22.8242 -54.02,15.5078 -54.02,56.5157 0,21.57 18,34.578 39.582,34.578 12.832,0 25.141,-4.461 35.469,-10.867 l -7.66,-15.332 c -9.098,4.629 -17.301,8.191 -27.809,8.191 -11.773,0 -17.832,-6.59 -17.832,-15.683 0,-27.6371 54.024,-15.1566 54.024,-56.6878 0,-20.6758 -19.446,-35.6563 -42.793,-35.6563"
         style="fill:#223a6d;fill-opacity:1;fill-rule:nonzero;stroke:none"
         id="path16" />
      <path
         d="m 805.973,137.453 h 21.215 V 15.332 h -21.215 v 122.121"
         style="fill:#223a6d;fill-opacity:1;fill-rule:nonzero;stroke:none"
         id="path17" />
      <path
         d="m 935.918,119.453 h -30.84 V 15.3438 H 883.867 V 119.277 h -32.269 v 18.184 h 85.922 l -1.602,-18.008"
         style="fill:#223a6d;fill-opacity:1;fill-rule:nonzero;stroke:none"
         id="path18" />
      <path
         d="M 1011.13,67.5781 V 15.332 h -21.224 v 52.2461 l -38.5,69.8829 h 23.891 l 16.223,-34.773 c 0,0 2.32,-4.4458 8.74,-18.0005 h 0.53 c 6.06,13.5547 8.2,18.0005 8.2,18.0005 l 17.29,34.773 h 23.36 l -38.51,-69.8829"
         style="fill:#223a6d;fill-opacity:1;fill-rule:nonzero;stroke:none"
         id="path19" />
      <path
         d="m 1175.11,13.3789 c -36.91,0 -53.13,28.1641 -53.13,63.1055 0,36.7306 16.4,62.9296 53.13,62.9296 36.72,0 53.12,-26.199 53.12,-62.9296 0,-34.9414 -16.22,-63.1055 -53.12,-63.1055 m 0,108.0271 c -21.03,0 -31.38,-18.183 -31.38,-44.7458 0,-26.7383 10.35,-45.2735 31.38,-45.2735 20.87,0 31.19,18.5352 31.19,45.0977 0,26.5626 -10.16,44.9216 -31.19,44.9216"
         style="fill:#223a6d;fill-opacity:1;fill-rule:nonzero;stroke:none"
         id="path20" />
      <path
         d="M 1276.69,119.629 V 85.9297 h 44.94 v -18 h -44.94 V 15.3438 h -21.2 V 137.637 h 71.3 v -18.008 h -50.1"
         style="fill:#223a6d;fill-opacity:1;fill-rule:nonzero;stroke:none"
         id="path21" />
      <path
         d="m 1460.64,13.3789 c -37.6,0 -54.01,25.4883 -54.01,62.9297 0,36.7184 18.01,63.1054 54.73,63.1054 15.14,0 27.81,-5.156 40.63,-15.691 l -11.03,-14.25 c -9.46,7.843 -18.01,11.933 -29.6,11.933 -21.57,0 -32.98,-16.218 -32.98,-44.9216 0,-28.8867 10.69,-45.0977 33.33,-45.0977 10.88,0 22.29,4.9805 32.27,14.0821 l 10.88,-13.9063 c -12.48,-11.4062 -27.81,-18.1836 -44.22,-18.1836"
         style="fill:#223a6d;fill-opacity:1;fill-rule:nonzero;stroke:none"
         id="path22" />
      <path
         d="m 1605.02,15.332 -10.16,29.4258 h -49.2 L 1535.5,15.332 h -19.8 l 42.97,120.344 24.78,1.961 43.33,-122.305 z m -24.95,71.5039 c 0,0 -1.44,3.9063 -9.82,29.2191 h -0.35 c -8.2,-25.3128 -9.63,-29.2191 -9.63,-29.2191 l -9.44,-26.9336 h 38.68 l -9.44,26.9336"
         style="fill:#223a6d;fill-opacity:1;fill-rule:nonzero;stroke:none"
         id="path23" />
      <path
         d="m 1716.25,15.332 h -72.21 v 122.129 h 21.21 V 33.3398 h 52.6 l -1.6,-18.0078"
         style="fill:#223a6d;fill-opacity:1;fill-rule:nonzero;stroke:none"
         id="path24" />
      <path
         d="m 1738.52,137.453 h 21.21 V 15.332 h -21.21 v 122.121"
         style="fill:#223a6d;fill-opacity:1;fill-rule:nonzero;stroke:none"
         id="path25" />
      <path
         d="M 1808.55,119.629 V 85.9297 h 44.93 v -18 h -44.93 V 15.3438 h -21.22 V 137.637 h 71.32 v -18.008 h -50.1"
         style="fill:#223a6d;fill-opacity:1;fill-rule:nonzero;stroke:none"
         id="path26" />
      <path
         d="m 1925.49,13.3789 c -36.91,0 -53.14,28.1641 -53.14,63.1055 0,36.7306 16.4,62.9296 53.14,62.9296 36.72,0 53.11,-26.199 53.11,-62.9296 0,-34.9414 -16.22,-63.1055 -53.11,-63.1055 m 0,108.0271 c -21.05,0 -31.39,-18.183 -31.39,-44.7458 0,-26.7383 10.34,-45.2735 31.39,-45.2735 20.86,0 31.19,18.5352 31.19,45.0977 0,26.5626 -10.16,44.9216 -31.19,44.9216"
         style="fill:#223a6d;fill-opacity:1;fill-rule:nonzero;stroke:none"
         id="path27" />
      <path
         d="m 2060.94,15.332 -16.93,34.4141 c -3.56,7.3047 -8.02,14.4336 -15.69,14.4336 h -10.17 V 15.332 h -21.21 v 122.129 h 39.23 c 26.92,0 40.28,-14.981 40.28,-36.191 0,-14.6098 -6.93,-27.1098 -22.99,-33.1645 v -0.3516 c 3.93,-2.3242 6.08,-5.5273 7.48,-8.3789 l 23.36,-44.043 z m -25.31,103.945 h -17.48 V 82.0117 h 17.84 c 12.84,0 18.72,7.4805 18.72,19.0743 0,11.414 -4.63,18.191 -19.08,18.191"
         style="fill:#223a6d;fill-opacity:1;fill-rule:nonzero;stroke:none"
         id="path28" />
      <path
         d="m 2173.95,15.332 -51.5,82.0118 h -0.37 V 15.332 h -21.22 V 135.5 l 20.51,2.137 49.73,-80.4104 h 0.55 v 80.2344 h 21.21 V 15.332 h -18.91"
         style="fill:#223a6d;fill-opacity:1;fill-rule:nonzero;stroke:none"
         id="path29" />
      <path
         d="m 2219.56,137.453 h 21.21 V 15.332 h -21.21 v 122.121"
         style="fill:#223a6d;fill-opacity:1;fill-rule:nonzero;stroke:none"
         id="path30" />
      <path
         d="m 2347.37,15.332 -10.16,29.4258 h -49.2 L 2277.86,15.332 h -19.81 l 42.97,120.344 24.79,1.961 43.32,-122.305 z m -24.94,71.5039 c 0,0 -1.45,3.9063 -9.83,29.2191 h -0.35 c -8.2,-25.3128 -9.63,-29.2191 -9.63,-29.2191 l -9.45,-26.9336 h 38.69 l -9.43,26.9336"
         style="fill:#223a6d;fill-opacity:1;fill-rule:nonzero;stroke:none"
         id="path31" />
    </g>
  </g>
</svg>
