<?xml version="1.0" encoding="UTF-8" standalone="no"?>
<svg
   version="1.1"
   viewBox="0 0 890.55383 327.29007"
   fill="none"
   stroke="none"
   stroke-linecap="square"
   stroke-miterlimit="10"
   id="svg231"
   sodipodi:docname="recipe_compilation.svg"
   width="890.55383"
   height="327.29007"
   inkscape:version="1.2.2 (b0a8486541, 2022-12-01)"
   xmlns:inkscape="http://www.inkscape.org/namespaces/inkscape"
   xmlns:sodipodi="http://sodipodi.sourceforge.net/DTD/sodipodi-0.dtd"
   xmlns="http://www.w3.org/2000/svg"
   xmlns:svg="http://www.w3.org/2000/svg">
  <defs
     id="defs235" />
  <sodipodi:namedview
     id="namedview233"
     pagecolor="#ffffff"
     bordercolor="#000000"
     borderopacity="0.25"
     inkscape:showpageshadow="2"
     inkscape:pageopacity="0.0"
     inkscape:pagecheckerboard="0"
     inkscape:deskcolor="#d1d1d1"
     showgrid="false"
     inkscape:zoom="2.0055556"
     inkscape:cx="445.26316"
     inkscape:cy="243.57341"
     inkscape:window-width="3840"
     inkscape:window-height="2093"
     inkscape:window-x="0"
     inkscape:window-y="30"
     inkscape:window-maximized="1"
     inkscape:current-layer="svg231" />
  <clipPath
     id="g244bbc4bcb3_0_237.0">
    <path
       d="M 0,0 H 960 V 540 H 0 Z"
       clip-rule="nonzero"
       id="path2" />
  </clipPath>
  <g
     clip-path="url(#g244bbc4bcb3_0_237.0)"
     id="g229"
     transform="translate(-34.7231,-26.248032)">
    <path
       fill="#000000"
       fill-opacity="0"
       d="M 58.541996,26.248032 H 199.14043 V 77.964569 H 58.541996 Z"
       fill-rule="evenodd"
       id="path7" />
    <path
       fill="#000000"
       d="M 109.79041,60.84803 V 46.394905 h -5.1875 V 43.06678 h 14.17187 v 3.328125 h -5.17187 V 60.84803 Z m 13.01388,-14.265625 q -0.82812,0 -1.4375,-0.578125 -0.59375,-0.59375 -0.59375,-1.4375 0,-0.859375 0.59375,-1.421875 0.60938,-0.578125 1.4375,-0.578125 0.85938,0 1.4375,0.578125 0.59375,0.5625 0.59375,1.421875 0,0.84375 -0.59375,1.4375 -0.57812,0.578125 -1.4375,0.578125 z m -1.6875,14.265625 v -12.875 h 3.39063 v 12.875 z m 12.744,0.3125 q -3.03125,0 -4.92187,-1.90625 -1.89063,-1.921875 -1.89063,-4.859375 0,-2.90625 1.89063,-4.8125 1.89062,-1.921875 4.92187,-1.921875 1.98438,0 3.21875,0.71875 1.23438,0.71875 1.875,1.59375 l -2.20312,2.078125 q -0.9375,-1.390625 -2.71875,-1.390625 -1.54688,0 -2.53125,1.03125 -0.96875,1.03125 -0.96875,2.703125 0,1.6875 0.96875,2.734375 0.98437,1.03125 2.53125,1.03125 1.71875,0 2.71875,-1.390625 l 2.20312,2.046875 q -0.64062,0.90625 -1.875,1.625 -1.23437,0.71875 -3.21875,0.71875 z m 15.64518,-0.3125 -3.40625,-4.953125 -1.54688,1.640625 v 3.3125 h -3.39062 V 43.06678 h 3.39062 v 10.640625 l 4.875,-5.734375 h 4.15625 l -5.07812,5.84375 5.25,7.03125 z"
       fill-rule="nonzero"
       id="path9" />
    <path
       fill="#000000"
       d="m 103.93103,62.581364 h 49.82036 v 2.399998 h -49.82036 z"
       fill-rule="nonzero"
       id="path11" />
    <path
       fill="#eeeeee"
       d="m 111.04593,87.75722 h 35.59056 v 77.48032 h -35.59056 z"
       fill-rule="evenodd"
       id="path13" />
    <path
       stroke="#595959"
       stroke-width="2"
       stroke-linejoin="round"
       stroke-linecap="butt"
       d="m 111.04593,87.75722 h 35.59056 v 77.48032 h -35.59056 z"
       fill-rule="evenodd"
       id="path15" />
    <path
       fill="#000000"
       fill-opacity="0"
       d="m 111.04593,165.22966 18.11024,-18.11025"
       fill-rule="evenodd"
       id="path17" />
    <path
       stroke="#595959"
       stroke-width="2"
       stroke-linejoin="round"
       stroke-linecap="butt"
       d="m 111.04593,165.22966 18.11024,-18.11025"
       fill-rule="evenodd"
       id="path19" />
    <path
       fill="#000000"
       fill-opacity="0"
       d="M 146.63649,165.37138 128.71522,147.45013"
       fill-rule="evenodd"
       id="path21" />
    <path
       stroke="#595959"
       stroke-width="2"
       stroke-linejoin="round"
       stroke-linecap="butt"
       d="M 146.63649,165.37138 128.71522,147.45013"
       fill-rule="evenodd"
       id="path23" />
    <path
       fill="#000000"
       fill-opacity="0"
       d="m 34.7231,105.4895 h 44.188972 v 42.01575 H 34.7231 Z"
       fill-rule="evenodd"
       id="path25" />
    <path
       fill="#000000"
       d="m 53.547634,136.06575 q -1.15625,0 -2,-0.28125 -0.828125,-0.28125 -1.640625,-1.0625 l 0.71875,-1.04688 q 0.5625,0.67188 1.25,0.95313 0.703125,0.28125 1.671875,0.28125 1.390625,0 2.140625,-0.71875 0.75,-0.71875 0.75,-1.98438 v -1.29687 q -0.484375,0.70312 -1.28125,1.15625 -0.78125,0.45312 -1.734375,0.45312 -1.828125,0 -2.921875,-1.28125 -1.09375,-1.29687 -1.09375,-3.37499 0,-2.17188 1.109375,-3.42188 1.109375,-1.26562 2.90625,-1.26562 1.859375,0 3.015625,1.57812 v -1.35937 h 1.40625 v 8.74999 q 0,1.90625 -1.125,2.90625 -1.109375,1.01563 -3.171875,1.01563 z m 0.203125,-4.78125 q 0.765625,0 1.515625,-0.40625 0.765625,-0.40625 1.171875,-1.0625 v -3.9375 q -0.40625,-0.65625 -1.171875,-1.04687 -0.765625,-0.40625 -1.515625,-0.40625 -1.3125,0 -2.109375,0.95312 -0.78125,0.95313 -0.78125,2.48438 0,1.54687 0.796875,2.48437 0.8125,0.9375 2.09375,0.9375 z m 10.818066,1.34375 q -1.953121,0 -3.203121,-1.32813 -1.25,-1.32812 -1.25,-3.40624 0,-2.09375 1.25,-3.40625 1.25,-1.3125 3.203121,-1.3125 1.96875,0 3.21875,1.3125 1.25,1.3125 1.25,3.40625 0,2.07812 -1.25,3.40624 -1.25,1.32813 -3.21875,1.32813 z m 0,-1.25 q 1.3125,0 2.15625,-0.96875 0.84375,-0.98438 0.84375,-2.51562 0,-1.51563 -0.84375,-2.48438 -0.84375,-0.98437 -2.15625,-0.98437 -1.296871,0 -2.156246,0.96875 -0.84375,0.96875 -0.84375,2.5 0,1.54687 0.84375,2.51562 0.84375,0.96875 2.156246,0.96875 z"
       fill-rule="nonzero"
       id="path27" />
    <path
       fill="#000000"
       fill-opacity="0"
       d="m 78.91207,126.49738 h 32.12598"
       fill-rule="evenodd"
       id="path29" />
    <path
       stroke="#595959"
       stroke-width="2"
       stroke-linejoin="round"
       stroke-linecap="butt"
       d="m 78.91207,126.49738 h 32.12598"
       fill-rule="evenodd"
       id="path31" />
    <path
       fill="#000000"
       fill-opacity="0"
       d="m 178.77034,105.4895 h 63.37009 v 42.01575 h -63.37009 z"
       fill-rule="evenodd"
       id="path33" />
    <path
       fill="#000000"
       d="m 195.69221,132.4095 v -1.34375 q -0.5,0.6875 -1.29688,1.125 -0.78125,0.4375 -1.73437,0.4375 -1.8125,0 -2.92188,-1.28125 -1.09375,-1.28125 -1.09375,-3.4375 0,-2.15625 1.10938,-3.4375 1.10937,-1.29687 2.90625,-1.29687 0.90625,0 1.70312,0.42187 0.79688,0.42188 1.32813,1.15625 V 119.972 h 1.40625 v 12.4375 z m -2.70313,-1.03125 q 0.84375,0 1.59375,-0.40625 0.75,-0.40625 1.10938,-1 v -4.09375 q -0.35938,-0.59375 -1.10938,-1.01562 -0.75,-0.4375 -1.59375,-0.4375 -1.29687,0 -2.09375,0.95312 -0.79687,0.95313 -0.79687,2.53125 0,1.54687 0.78125,2.51562 0.79687,0.95313 2.10937,0.95313 z m 10.83672,1.25 q -1.95312,0 -3.20312,-1.32813 -1.25,-1.32812 -1.25,-3.40624 0,-2.09375 1.25,-3.40625 1.25,-1.3125 3.20312,-1.3125 1.96875,0 3.21875,1.3125 1.25,1.3125 1.25,3.40625 0,2.07812 -1.25,3.40624 -1.25,1.32813 -3.21875,1.32813 z m 0,-1.25 q 1.3125,0 2.15625,-0.96875 0.84375,-0.98438 0.84375,-2.51562 0,-1.51563 -0.84375,-2.48438 -0.84375,-0.98437 -2.15625,-0.98437 -1.29687,0 -2.15625,0.96875 -0.84375,0.96875 -0.84375,2.5 0,1.54687 0.84375,2.51562 0.84375,0.96875 2.15625,0.96875 z m 12.82762,1.03125 v -5.89062 q 0,-1.20313 -0.5625,-1.64063 -0.54687,-0.45312 -1.45312,-0.45312 -0.78125,0 -1.54688,0.42187 -0.75,0.42188 -1.125,0.98438 v 6.57812 h -1.39062 v -9.01562 h 1.39062 v 1.3125 q 0.57813,-0.67188 1.42188,-1.09375 0.85937,-0.4375 1.78125,-0.4375 2.875,0 2.875,2.90625 v 6.32812 z m 8.26398,0.21875 q -2.03125,0 -3.3125,-1.3125 -1.28125,-1.32813 -1.28125,-3.42187 0,-2 1.26562,-3.35938 1.28125,-1.35937 3.17188,-1.35937 1.9375,0 3.125,1.34375 1.20312,1.34375 1.20312,3.48437 v 0.35937 h -7.29687 q 0.0781,1.375 1,2.25 0.92187,0.85938 2.25,0.85938 1.64062,0 2.78125,-1.14063 l 0.67187,0.92188 q -1.375,1.375 -3.57812,1.375 z m 2.79687,-5.29687 q 0,-1.25 -0.82812,-2.125 -0.8125,-0.875 -2.14063,-0.875 -1.25,0 -2.07812,0.875 -0.82813,0.875 -0.875,2.125 z"
       fill-rule="nonzero"
       id="path35" />
    <path
       fill="#000000"
       fill-opacity="0"
       d="m 146.63649,126.49738 h 32.12598"
       fill-rule="evenodd"
       id="path37" />
    <path
       stroke="#595959"
       stroke-width="2"
       stroke-linejoin="round"
       stroke-linecap="butt"
       d="m 146.63649,126.49738 h 32.12598"
       fill-rule="evenodd"
       id="path39" />
    <path
       fill="#000000"
       fill-opacity="0"
       d="m 273.1273,146.89502 h 44.18899 v 42.01575 H 273.1273 Z"
       fill-rule="evenodd"
       id="path41" />
    <path
       fill="#000000"
       d="m 291.95184,177.47127 q -1.15625,0 -2,-0.28125 -0.82813,-0.28125 -1.64063,-1.0625 l 0.71875,-1.04688 q 0.5625,0.67188 1.25,0.95313 0.70313,0.28125 1.67188,0.28125 1.39062,0 2.14062,-0.71875 0.75,-0.71875 0.75,-1.98438 v -1.29687 q -0.48437,0.70312 -1.28125,1.15625 -0.78125,0.45312 -1.73437,0.45312 -1.82813,0 -2.92188,-1.28125 -1.09375,-1.29687 -1.09375,-3.375 0,-2.17187 1.10938,-3.42187 1.10937,-1.26563 2.90625,-1.26563 1.85937,0 3.01562,1.57813 v -1.35938 h 1.40625 v 8.75 q 0,1.90625 -1.125,2.90625 -1.10937,1.01563 -3.17187,1.01563 z m 0.20312,-4.78125 q 0.76563,0 1.51563,-0.40625 0.76562,-0.40625 1.17187,-1.0625 v -3.9375 q -0.40625,-0.65625 -1.17187,-1.04688 -0.76563,-0.40625 -1.51563,-0.40625 -1.3125,0 -2.10937,0.95313 -0.78125,0.95312 -0.78125,2.48437 0,1.54688 0.79687,2.48438 0.8125,0.9375 2.09375,0.9375 z m 10.81806,1.34375 q -1.95313,0 -3.20313,-1.32813 -1.25,-1.32812 -1.25,-3.40625 0,-2.09375 1.25,-3.40625 1.25,-1.3125 3.20313,-1.3125 1.96875,0 3.21875,1.3125 1.25,1.3125 1.25,3.40625 0,2.07813 -1.25,3.40625 -1.25,1.32813 -3.21875,1.32813 z m 0,-1.25 q 1.3125,0 2.15625,-0.96875 0.84375,-0.98438 0.84375,-2.51563 0,-1.51562 -0.84375,-2.48437 -0.84375,-0.98438 -2.15625,-0.98438 -1.29688,0 -2.15625,0.96875 -0.84375,0.96875 -0.84375,2.5 0,1.54688 0.84375,2.51563 0.84375,0.96875 2.15625,0.96875 z"
       fill-rule="nonzero"
       id="path43" />
    <path
       fill="#000000"
       fill-opacity="0"
       d="M 317.31628,167.9029 H 484.37139"
       fill-rule="evenodd"
       id="path45" />
    <path
       stroke="#595959"
       stroke-width="2"
       stroke-linejoin="round"
       stroke-linecap="butt"
       d="M 317.31628,167.9029 H 484.37139"
       fill-rule="evenodd"
       id="path47" />
    <path
       fill="#000000"
       fill-opacity="0"
       d="M 330.54462,26.249344 H 471.14304 V 77.965881 H 330.54462 Z"
       fill-rule="evenodd"
       id="path49" />
    <path
       fill="#000000"
       d="m 375.84818,60.849342 -1.09375,-3.015625 h -7.625 l -1.10937,3.015625 h -4.32813 l 6.89063,-17.78125 h 4.73437 l 6.85938,17.78125 z m -4.90625,-14 -2.76562,7.65625 h 5.54687 z m 16.79532,14.3125 q -3.03125,0 -4.92188,-1.90625 -1.89062,-1.921875 -1.89062,-4.859375 0,-2.90625 1.89062,-4.8125 1.89063,-1.921875 4.92188,-1.921875 1.98437,0 3.21875,0.71875 1.23437,0.71875 1.875,1.59375 l -2.20313,2.078125 q -0.9375,-1.390625 -2.71875,-1.390625 -1.54687,0 -2.53125,1.03125 -0.96875,1.03125 -0.96875,2.703125 0,1.6875 0.96875,2.734375 0.98438,1.03125 2.53125,1.03125 1.71875,0 2.71875,-1.390625 l 2.20313,2.046875 q -0.64063,0.90625 -1.875,1.625 -1.23438,0.71875 -3.21875,0.71875 z m 11.62955,0 q -3.65625,0 -3.65625,-3.515625 v -6.71875 h -2.125 v -2.953125 h 2.125 v -3.515625 h 3.40625 v 3.515625 h 2.625 v 2.953125 h -2.625 v 5.8125 q 0,0.625 0.3125,1.03125 0.3125,0.390625 0.875,0.390625 0.79687,0 1.17187,-0.375 l 0.71875,2.5625 q -0.89062,0.8125 -2.82812,0.8125 z m 6.36914,-14.578125 q -0.82813,0 -1.4375,-0.578125 -0.59375,-0.59375 -0.59375,-1.4375 0,-0.859375 0.59375,-1.421875 0.60937,-0.578125 1.4375,-0.578125 0.85937,0 1.4375,0.578125 0.59375,0.5625 0.59375,1.421875 0,0.84375 -0.59375,1.4375 -0.57813,0.578125 -1.4375,0.578125 z m -1.6875,14.265625 v -12.875 h 3.39062 v 12.875 z m 12.72839,0.3125 q -2.98437,0 -4.89062,-1.90625 -1.90625,-1.921875 -1.90625,-4.859375 0,-2.9375 1.90625,-4.828125 1.90625,-1.90625 4.89062,-1.90625 2.98438,0 4.89063,1.90625 1.92187,1.890625 1.92187,4.828125 0,2.96875 -1.92187,4.875 -1.90625,1.890625 -4.89063,1.890625 z m 0,-3 q 1.45313,0 2.375,-1.046875 0.92188,-1.0625 0.92188,-2.71875 0,-1.59375 -0.92188,-2.65625 -0.92187,-1.078125 -2.375,-1.078125 -1.42187,0 -2.35937,1.03125 -0.92188,1.03125 -0.92188,2.703125 0,1.703125 0.92188,2.734375 0.9375,1.03125 2.35937,1.03125 z m 18.01938,2.6875 v -7.78125 q 0,-2.40625 -2.375,-2.40625 -1.84375,0 -2.9375,1.53125 v 8.65625 h -3.39063 v -12.875 h 3.39063 v 1.671875 q 0.60937,-0.734375 1.75,-1.359375 1.15625,-0.625 2.75,-0.625 2.14062,0 3.15625,1.109375 1.03125,1.09375 1.03125,2.984375 v 9.09375 z"
       fill-rule="nonzero"
       id="path51" />
    <path
       fill="#000000"
       d="m 361.83255,62.582676 h 78.02255 v 2.399998 h -78.02255 z"
       fill-rule="nonzero"
       id="path53" />
    <path
       fill="#eeeeee"
       d="m 340.5866,86.51706 h 120.50394 v 60.37796 H 340.5866 Z"
       fill-rule="evenodd"
       id="path55" />
    <path
       stroke="#595959"
       stroke-width="2"
       stroke-linejoin="round"
       stroke-linecap="butt"
       d="m 340.5866,86.51706 h 120.50394 v 60.37796 H 340.5866 Z"
       fill-rule="evenodd"
       id="path57" />
    <path
       fill="#000000"
       d="m 376.61115,120.12604 v -9.01562 h 1.39062 v 1.45312 q 1.25,-1.64062 3,-1.64062 v 1.4375 l -0.54687,-0.0469 q -0.64063,0 -1.40625,0.45313 -0.76563,0.45312 -1.04688,0.98437 v 6.375 z m 10.21906,0.21875 q -2.03125,0 -3.3125,-1.3125 -1.28125,-1.32812 -1.28125,-3.42187 0,-2 1.26562,-3.35938 1.28125,-1.35937 3.17188,-1.35937 1.9375,0 3.125,1.34375 1.20312,1.34375 1.20312,3.48437 v 0.35938 h -7.29687 q 0.0781,1.375 1,2.25 0.92187,0.85937 2.25,0.85937 1.64062,0 2.78125,-1.14062 l 0.67187,0.92187 q -1.375,1.375 -3.57812,1.375 z m 2.79687,-5.29687 q 0,-1.25 -0.82812,-2.125 -0.8125,-0.875 -2.14063,-0.875 -1.25,0 -2.07812,0.875 -0.82813,0.875 -0.875,2.125 z m 7.61285,5.29687 q -1.98437,0 -3.25,-1.34375 -1.25,-1.34375 -1.25,-3.39062 0,-2.03125 1.25,-3.375 1.26563,-1.34375 3.25,-1.34375 2.09375,0 3.29688,1.5625 l -0.92188,0.85937 q -0.85937,-1.17187 -2.29687,-1.17187 -1.39063,0 -2.26563,0.96875 -0.85937,0.95312 -0.85937,2.5 0,1.5625 0.85937,2.53125 0.85938,0.95312 2.26563,0.95312 1.40625,0 2.29687,-1.17187 l 0.92188,0.85937 q -1.20313,1.5625 -3.29688,1.5625 z m 5.95359,-10.51562 q -0.375,0 -0.65625,-0.26563 -0.28125,-0.28125 -0.28125,-0.67187 0,-0.39063 0.28125,-0.67188 0.28125,-0.28125 0.65625,-0.28125 0.39062,0 0.67187,0.28125 0.28125,0.28125 0.28125,0.67188 0,0.39062 -0.28125,0.67187 -0.28125,0.26563 -0.67187,0.26563 z m -0.6875,10.29687 v -9.01562 h 1.39062 v 9.01562 z m 8.63516,0.21875 q -1.92188,0 -3.04688,-1.57812 v 4.79687 h -1.39062 v -12.45312 h 1.39062 v 1.34375 q 0.48438,-0.6875 1.28125,-1.125 0.8125,-0.4375 1.76563,-0.4375 1.8125,0 2.90625,1.26562 1.09375,1.26563 1.09375,3.45313 0,2.17187 -1.09375,3.45312 -1.07813,1.28125 -2.90625,1.28125 z m -0.35938,-1.25 q 1.3125,0 2.09375,-0.9375 0.79688,-0.95312 0.79688,-2.54687 0,-1.54688 -0.78125,-2.5 -0.78125,-0.96875 -2.10938,-0.96875 -0.84375,0 -1.57812,0.42187 -0.73438,0.42188 -1.10938,1.01563 v 4.0625 q 0.375,0.59375 1.10938,1.03125 0.73437,0.42187 1.57812,0.42187 z m 10.65577,1.25 q -2.03125,0 -3.3125,-1.3125 -1.28125,-1.32812 -1.28125,-3.42187 0,-2 1.26562,-3.35938 1.28125,-1.35937 3.17188,-1.35937 1.9375,0 3.125,1.34375 1.20312,1.34375 1.20312,3.48437 v 0.35938 h -7.29687 q 0.0781,1.375 1,2.25 0.92187,0.85937 2.25,0.85937 1.64062,0 2.78125,-1.14062 l 0.67187,0.92187 q -1.375,1.375 -3.57812,1.375 z m 2.79687,-5.29687 q 0,-1.25 -0.82812,-2.125 -0.8125,-0.875 -2.14063,-0.875 -1.25,0 -2.07812,0.875 -0.82813,0.875 -0.875,2.125 z"
       fill-rule="nonzero"
       id="path59" />
    <path
       fill="#000000"
       d="m 353.49286,137.1623 q -1.45313,0 -2.375,-0.9375 -0.90625,-0.95313 -0.90625,-2.4375 0,-1.4375 0.90625,-2.40625 0.90625,-0.96875 2.26562,-0.96875 1.39063,0 2.23438,0.96875 0.85937,0.95312 0.85937,2.48437 v 0.25 h -5.21875 q 0.0625,0.98438 0.71875,1.60938 0.65625,0.60937 1.60938,0.60937 1.17187,0 1.98437,-0.8125 l 0.48438,0.65625 q -0.98438,0.98438 -2.5625,0.98438 z m 2,-3.78125 q 0,-0.89063 -0.59375,-1.51563 -0.57813,-0.625 -1.53125,-0.625 -0.89063,0 -1.48438,0.625 -0.59375,0.625 -0.625,1.51563 z m 6.94122,3.625 v -4.21875 q 0,-0.84375 -0.39062,-1.15625 -0.39063,-0.32813 -1.04688,-0.32813 -0.5625,0 -1.10937,0.29688 -0.53125,0.29687 -0.79688,0.70312 v 4.70313 h -1 v -6.4375 h 1 v 0.9375 q 0.40625,-0.48438 1.01563,-0.78125 0.60937,-0.3125 1.28125,-0.3125 2.04687,0 2.04687,2.07812 v 4.51563 z"
       fill-rule="nonzero"
       id="path61" />
    <path
       fill="#000000"
       fill-opacity="0"
       d="m 484.3609,146.89502 h 63.37006 v 42.01575 H 484.3609 Z"
       fill-rule="evenodd"
       id="path63" />
    <path
       fill="#000000"
       d="m 501.28278,173.81502 v -1.34375 q -0.5,0.6875 -1.29688,1.125 -0.78125,0.4375 -1.73437,0.4375 -1.8125,0 -2.92188,-1.28125 -1.09375,-1.28125 -1.09375,-3.4375 0,-2.15625 1.10938,-3.4375 1.10937,-1.29688 2.90625,-1.29688 0.90625,0 1.70312,0.42188 0.79688,0.42187 1.32813,1.15625 v -4.78125 h 1.40625 v 12.4375 z m -2.70313,-1.03125 q 0.84375,0 1.59375,-0.40625 0.75,-0.40625 1.10938,-1 v -4.09375 q -0.35938,-0.59375 -1.10938,-1.01563 -0.75,-0.4375 -1.59375,-0.4375 -1.29687,0 -2.09375,0.95313 -0.79687,0.95312 -0.79687,2.53125 0,1.54687 0.78125,2.51562 0.79687,0.95313 2.10937,0.95313 z m 10.8367,1.25 q -1.95312,0 -3.20312,-1.32813 -1.25,-1.32812 -1.25,-3.40625 0,-2.09375 1.25,-3.40625 1.25,-1.3125 3.20312,-1.3125 1.96875,0 3.21879,1.3125 1.25,1.3125 1.25,3.40625 0,2.07813 -1.25,3.40625 -1.25003,1.32813 -3.21879,1.32813 z m 0,-1.25 q 1.3125,0 2.15625,-0.96875 0.84379,-0.98438 0.84379,-2.51563 0,-1.51562 -0.84378,-2.48437 -0.84375,-0.98438 -2.15625,-0.98438 -1.29688,0 -2.15625,0.96875 -0.84375,0.96875 -0.84375,2.5 0,1.54688 0.84375,2.51563 0.84375,0.96875 2.15624,0.96875 z m 12.82761,1.03125 v -5.89063 q 0,-1.20312 -0.5625,-1.64062 -0.54687,-0.45313 -1.45312,-0.45313 -0.78125,0 -1.54688,0.42188 -0.75,0.42187 -1.125,0.98437 v 6.57813 h -1.39062 v -9.01563 h 1.39062 v 1.3125 q 0.57813,-0.67187 1.42188,-1.09375 0.85937,-0.4375 1.78125,-0.4375 2.875,0 2.875,2.90625 v 6.32813 z m 8.26398,0.21875 q -2.03125,0 -3.3125,-1.3125 -1.28125,-1.32813 -1.28125,-3.42188 0,-2 1.26562,-3.35937 1.28125,-1.35938 3.17188,-1.35938 1.9375,0 3.125,1.34375 1.20312,1.34375 1.20312,3.48438 v 0.35937 h -7.29687 q 0.0781,1.375 1,2.25 0.92187,0.85938 2.25,0.85938 1.64062,0 2.78125,-1.14063 l 0.67187,0.92188 q -1.375,1.375 -3.57812,1.375 z m 2.79687,-5.29688 q 0,-1.25 -0.82812,-2.125 -0.8125,-0.875 -2.14063,-0.875 -1.25,0 -2.07812,0.875 -0.82813,0.875 -0.875,2.125 z"
       fill-rule="nonzero"
       id="path65" />
    <path
       fill="#000000"
       fill-opacity="0"
       d="m 357.23227,147.4042 v 21.22835"
       fill-rule="evenodd"
       id="path67" />
    <path
       stroke="#595959"
       stroke-width="2"
       stroke-linejoin="round"
       stroke-linecap="butt"
       d="m 357.23227,147.4042 v 21.22835"
       fill-rule="evenodd"
       id="path69" />
    <path
       fill="#000000"
       fill-opacity="0"
       d="M 672.1076,26.249344 H 812.70605 V 77.965881 H 672.1076 Z"
       fill-rule="evenodd"
       id="path71" />
    <path
       fill="#000000"
       d="m 713.11554,60.849342 -3.5,-6.3125 h -2.76563 v 6.3125 h -3.78125 v -17.78125 h 8.3125 q 2.71875,0 4.34375,1.625 1.625,1.609375 1.625,4.109375 0,2.078125 -1.10937,3.5 -1.10938,1.40625 -2.78125,1.78125 l 4,6.765625 z m -2.29688,-9.65625 q 1.14063,0 1.90625,-0.625 0.76563,-0.640625 0.76563,-1.765625 0,-1.125 -0.76563,-1.765625 -0.76562,-0.640625 -1.90625,-0.640625 h -3.96875 v 4.796875 z m 15.35865,9.96875 q -3.04688,0 -4.96875,-1.875 -1.90625,-1.875 -1.90625,-4.890625 0,-2.875 1.90625,-4.796875 1.90625,-1.9375 4.75,-1.9375 2.85937,0 4.65625,1.953125 1.79687,1.953125 1.79687,5.125 v 0.75 h -9.57812 q 0.17187,1.234375 1.10937,2.109375 0.95313,0.875 2.60938,0.875 0.79687,0 1.78125,-0.328125 0.98437,-0.328125 1.65625,-0.953125 l 1.48437,2.1875 q -0.95312,0.875 -2.375,1.328125 -1.40625,0.453125 -2.92187,0.453125 z m 2.95312,-7.96875 q -0.0781,-1.28125 -0.96875,-2.0625 -0.875,-0.78125 -2.20312,-0.78125 -1.32813,0 -2.1875,0.8125 -0.84375,0.8125 -0.98438,2.03125 z m 11.72522,7.96875 q -3.03125,0 -4.92187,-1.90625 -1.89063,-1.921875 -1.89063,-4.859375 0,-2.90625 1.89063,-4.8125 1.89062,-1.921875 4.92187,-1.921875 1.98438,0 3.21875,0.71875 1.23438,0.71875 1.875,1.59375 l -2.20312,2.078125 q -0.9375,-1.390625 -2.71875,-1.390625 -1.54688,0 -2.53125,1.03125 -0.96875,1.03125 -0.96875,2.703125 0,1.6875 0.96875,2.734375 0.98437,1.03125 2.53125,1.03125 1.71875,0 2.71875,-1.390625 l 2.20312,2.046875 q -0.64062,0.90625 -1.875,1.625 -1.23437,0.71875 -3.21875,0.71875 z m 8.98896,-14.578125 q -0.82813,0 -1.4375,-0.578125 -0.59375,-0.59375 -0.59375,-1.4375 0,-0.859375 0.59375,-1.421875 0.60937,-0.578125 1.4375,-0.578125 0.85937,0 1.4375,0.578125 0.59375,0.5625 0.59375,1.421875 0,0.84375 -0.59375,1.4375 -0.57813,0.578125 -1.4375,0.578125 z m -1.6875,14.265625 v -12.875 h 3.39062 v 12.875 z m 14.10339,0.3125 q -2.46875,0 -3.96875,-1.96875 v 6.5625 h -3.39062 v -17.78125 h 3.39062 v 1.625 q 1.54688,-1.9375 3.96875,-1.9375 2.5625,0 4.125,1.796875 1.57813,1.796875 1.57813,4.9375 0,3.09375 -1.5625,4.9375 -1.54688,1.828125 -4.14063,1.828125 z m -1.0625,-3 q 1.46875,0 2.35938,-1.03125 0.89062,-1.046875 0.89062,-2.734375 0,-1.671875 -0.89062,-2.703125 -0.89063,-1.03125 -2.35938,-1.03125 -0.82812,0 -1.65625,0.4375 -0.82812,0.421875 -1.25,1.03125 v 4.5625 q 0.42188,0.609375 1.25,1.046875 0.82813,0.421875 1.65625,0.421875 z m 15.30615,3 q -3.04687,0 -4.96875,-1.875 -1.90625,-1.875 -1.90625,-4.890625 0,-2.875 1.90625,-4.796875 1.90625,-1.9375 4.75,-1.9375 2.85938,0 4.65625,1.953125 1.79688,1.953125 1.79688,5.125 v 0.75 h -9.57813 q 0.17188,1.234375 1.10938,2.109375 0.95312,0.875 2.60937,0.875 0.79688,0 1.78125,-0.328125 0.98438,-0.328125 1.65625,-0.953125 l 1.48438,2.1875 q -0.95313,0.875 -2.375,1.328125 -1.40625,0.453125 -2.92188,0.453125 z m 2.95313,-7.96875 q -0.0781,-1.28125 -0.96875,-2.0625 -0.875,-0.78125 -2.20313,-0.78125 -1.32812,0 -2.1875,0.8125 -0.84375,0.8125 -0.98437,2.03125 z"
       fill-rule="nonzero"
       id="path73" />
    <path
       fill="#000000"
       d="m 701.30304,62.582676 h 82.20758 v 2.399998 h -82.20758 z"
       fill-rule="nonzero"
       id="path75" />
    <path
       fill="#eeeeee"
       d="m 636.2244,106.56431 h 35.59051 v 38.64567 H 636.2244 Z"
       fill-rule="evenodd"
       id="path77" />
    <path
       stroke="#595959"
       stroke-width="2"
       stroke-linejoin="round"
       stroke-linecap="butt"
       d="m 636.2244,106.56431 h 35.59051 v 38.64567 H 636.2244 Z"
       fill-rule="evenodd"
       id="path79" />
    <path
       fill="#000000"
       d="m 650.2395,128.30714 v -9.01563 h 1.39063 v 1.45312 q 1.25,-1.64062 3,-1.64062 v 1.4375 l -0.54688,-0.0469 q -0.64062,0 -1.40625,0.45313 -0.76562,0.45312 -1.04687,0.98437 v 6.37501 z"
       fill-rule="nonzero"
       id="path81" />
    <path
       fill="#000000"
       d="m 657.2086,135.30714 v -6.92188 l -1.32812,1.40625 -0.625,-0.64062 2.07812,-2.14063 h 0.90625 v 8.29688 z"
       fill-rule="nonzero"
       id="path83" />
    <path
       fill="#eeeeee"
       d="m 695.89105,106.56431 h 35.59058 v 38.64567 h -35.59058 z"
       fill-rule="evenodd"
       id="path85" />
    <path
       stroke="#595959"
       stroke-width="2"
       stroke-linejoin="round"
       stroke-linecap="butt"
       d="m 695.89105,106.56431 h 35.59058 v 38.64567 h -35.59058 z"
       fill-rule="evenodd"
       id="path87" />
    <path
       fill="#000000"
       d="m 708.3577,128.30714 v -9.01563 h 1.39063 v 1.45312 q 1.25,-1.64062 3,-1.64062 v 1.4375 l -0.54688,-0.0469 q -0.64062,0 -1.40625,0.45313 -0.76562,0.45312 -1.04687,0.98437 v 6.37501 z"
       fill-rule="nonzero"
       id="path89" />
    <path
       fill="#000000"
       d="m 713.7799,135.30714 v -0.82813 q 2.1875,-1.71875 3,-2.5 0.82812,-0.79687 1.21875,-1.42187 0.39062,-0.64063 0.39062,-1.23438 0,-0.6875 -0.48437,-1.09375 -0.46875,-0.42188 -1.25,-0.42188 -1.45313,0 -2.25,1.04688 l -0.64063,-0.65625 q 0.46875,-0.64063 1.23438,-0.96875 0.76562,-0.34375 1.65625,-0.34375 1.20312,0 1.98437,0.67187 0.79688,0.65626 0.79688,1.76563 0,1.01563 -0.85938,2.125 -0.84375,1.10938 -3.17187,2.9375 h 4.07812 v 0.92188 z"
       fill-rule="nonzero"
       id="path91" />
    <path
       fill="#eeeeee"
       d="m 805.9383,106.56431 h 35.59058 v 38.64567 H 805.9383 Z"
       fill-rule="evenodd"
       id="path93" />
    <path
       stroke="#595959"
       stroke-width="2"
       stroke-linejoin="round"
       stroke-linecap="butt"
       d="m 805.9383,106.56431 h 35.59058 v 38.64567 H 805.9383 Z"
       fill-rule="evenodd"
       id="path95" />
    <path
       fill="#000000"
       d="m 818.6351,128.30714 v -9.01563 h 1.39062 v 1.45312 q 1.25,-1.64062 3,-1.64062 v 1.4375 l -0.54687,-0.0469 q -0.64063,0 -1.40625,0.45313 -0.76563,0.45312 -1.04688,0.98437 v 6.37501 z"
       fill-rule="nonzero"
       id="path97" />
    <path
       fill="#000000"
       d="m 828.36975,135.30714 v -3.9375 q 0,-0.78125 -0.375,-1.07813 -0.35938,-0.3125 -0.96875,-0.3125 -0.51563,0 -1.03125,0.28125 -0.5,0.28125 -0.75,0.65625 v 4.39063 h -0.92188 v -6 h 0.92188 v 0.85937 q 0.39062,-0.4375 0.95312,-0.71875 0.57813,-0.29687 1.1875,-0.29687 1.92188,0 1.92188,1.9375 v 4.21875 z"
       fill-rule="nonzero"
       id="path99" />
    <path
       fill="#000000"
       fill-opacity="0"
       d="m 559.53674,104.87927 h 44.18897 v 42.01575 h -44.18897 z"
       fill-rule="evenodd"
       id="path101" />
    <path
       fill="#000000"
       d="m 578.36127,135.45552 q -1.15625,0 -2,-0.28125 -0.82813,-0.28125 -1.64063,-1.0625 l 0.71875,-1.04688 q 0.5625,0.67188 1.25,0.95313 0.70313,0.28125 1.67188,0.28125 1.39062,0 2.14062,-0.71875 0.75,-0.71875 0.75,-1.98438 v -1.29687 q -0.48437,0.70312 -1.28125,1.15625 -0.78125,0.45312 -1.73437,0.45312 -1.82813,0 -2.92188,-1.28125 -1.09375,-1.29687 -1.09375,-3.375 0,-2.17188 1.10938,-3.42188 1.10937,-1.26562 2.90625,-1.26562 1.85937,0 3.01562,1.57812 v -1.35937 h 1.40625 v 8.75001 q 0,1.90625 -1.125,2.90625 -1.10937,1.01562 -3.17187,1.01562 z m 0.20312,-4.78125 q 0.76563,0 1.51563,-0.40625 0.76562,-0.40625 1.17187,-1.0625 v -3.93751 q -0.40625,-0.65625 -1.17187,-1.04687 -0.76563,-0.40625 -1.51563,-0.40625 -1.3125,0 -2.10937,0.95312 -0.78125,0.95313 -0.78125,2.48438 0,1.54688 0.79687,2.48438 0.8125,0.9375 2.09375,0.9375 z m 10.81806,1.34375 q -1.95313,0 -3.20313,-1.32813 -1.25,-1.32812 -1.25,-3.40625 0,-2.09375 1.25,-3.40625 1.25,-1.3125 3.20313,-1.3125 1.96875,0 3.21875,1.3125 1.25,1.3125 1.25,3.40625 0,2.07813 -1.25,3.40625 -1.25,1.32813 -3.21875,1.32813 z m 0,-1.25 q 1.3125,0 2.15625,-0.96875 0.84375,-0.98438 0.84375,-2.51563 0,-1.51563 -0.84375,-2.48438 -0.84375,-0.98437 -2.15625,-0.98437 -1.29688,0 -2.15625,0.96875 -0.84375,0.96875 -0.84375,2.5 0,1.54688 0.84375,2.51563 0.84375,0.96875 2.15625,0.96875 z"
       fill-rule="nonzero"
       id="path103" />
    <path
       fill="#000000"
       fill-opacity="0"
       d="m 603.7257,125.88714 h 32.50397"
       fill-rule="evenodd"
       id="path105" />
    <path
       stroke="#595959"
       stroke-width="2"
       stroke-linejoin="round"
       stroke-linecap="butt"
       d="m 603.7257,125.88714 h 32.50397"
       fill-rule="evenodd"
       id="path107" />
    <path
       fill="#000000"
       fill-opacity="0"
       d="m 671.81494,125.88714 h 24.06299"
       fill-rule="evenodd"
       id="path109" />
    <path
       stroke="#595959"
       stroke-width="2"
       stroke-linejoin="round"
       stroke-linecap="butt"
       d="m 671.81494,125.88714 h 24.06299"
       fill-rule="evenodd"
       id="path111" />
    <path
       fill="#000000"
       fill-opacity="0"
       d="m 731.4816,125.88714 h 18.36218"
       fill-rule="evenodd"
       id="path113" />
    <path
       stroke="#595959"
       stroke-width="2"
       stroke-linejoin="round"
       stroke-linecap="butt"
       d="m 731.4816,125.88714 h 18.36218"
       fill-rule="evenodd"
       id="path115" />
    <path
       fill="#000000"
       fill-opacity="0"
       d="m 753.05646,99.750656 h 32.50391 V 141.7664 h -32.50391 z"
       fill-rule="evenodd"
       id="path117" />
    <path
       fill="#000000"
       d="m 766.02826,125.8269 q 0,0.42188 -0.29687,0.73438 -0.29688,0.29687 -0.73438,0.29687 -0.42187,0 -0.71875,-0.29687 -0.28125,-0.3125 -0.28125,-0.73438 0,-0.42187 0.28125,-0.71875 0.29688,-0.29687 0.71875,-0.29687 0.4375,0 0.73438,0.29687 0.29687,0.29688 0.29687,0.71875 z m 4.3125,0 q 0,0.42188 -0.3125,0.73438 -0.3125,0.29687 -0.73437,0.29687 -0.4375,0 -0.73438,-0.29687 -0.28125,-0.3125 -0.28125,-0.73438 0,-0.42187 0.28125,-0.71875 0.29688,-0.29687 0.73438,-0.29687 0.42187,0 0.73437,0.29687 0.3125,0.29688 0.3125,0.71875 z m 4.28125,0 q 0,0.42188 -0.29687,0.73438 -0.29688,0.29687 -0.71875,0.29687 -0.4375,0 -0.73438,-0.29687 -0.29687,-0.3125 -0.29687,-0.73438 0,-0.42187 0.29687,-0.71875 0.29688,-0.29687 0.73438,-0.29687 0.42187,0 0.71875,0.29687 0.29687,0.29688 0.29687,0.71875 z"
       fill-rule="nonzero"
       id="path119" />
    <path
       fill="#000000"
       fill-opacity="0"
       d="m 788.77295,125.88714 h 17.16534"
       fill-rule="evenodd"
       id="path121" />
    <path
       stroke="#595959"
       stroke-width="2"
       stroke-linejoin="round"
       stroke-linecap="butt"
       d="m 788.77295,125.88714 h 17.16534"
       fill-rule="evenodd"
       id="path123" />
    <path
       fill="#000000"
       fill-opacity="0"
       d="m 861.9068,104.87927 h 63.37012 v 42.01575 H 861.9068 Z"
       fill-rule="evenodd"
       id="path125" />
    <path
       fill="#000000"
       d="m 878.8287,131.79927 v -1.34375 q -0.5,0.6875 -1.29687,1.125 -0.78125,0.4375 -1.73438,0.4375 -1.8125,0 -2.92187,-1.28125 -1.09375,-1.28125 -1.09375,-3.43751 0,-2.15625 1.10937,-3.4375 1.10938,-1.29687 2.90625,-1.29687 0.90625,0 1.70313,0.42187 0.79687,0.42188 1.32812,1.15625 v -4.78125 h 1.40625 v 12.43751 z m -2.70312,-1.03125 q 0.84375,0 1.59375,-0.40625 0.75,-0.40625 1.10937,-1 v -4.09376 q -0.35937,-0.59375 -1.10937,-1.01562 -0.75,-0.4375 -1.59375,-0.4375 -1.29688,0 -2.09375,0.95312 -0.79688,0.95313 -0.79688,2.53125 0,1.54688 0.78125,2.51563 0.79688,0.95313 2.10938,0.95313 z m 10.83673,1.25 q -1.95313,0 -3.20313,-1.32813 -1.25,-1.32812 -1.25,-3.40625 0,-2.09375 1.25,-3.40625 1.25,-1.3125 3.20313,-1.3125 1.96875,0 3.21875,1.3125 1.25,1.3125 1.25,3.40625 0,2.07813 -1.25,3.40625 -1.25,1.32813 -3.21875,1.32813 z m 0,-1.25 q 1.3125,0 2.15625,-0.96875 0.84375,-0.98438 0.84375,-2.51563 0,-1.51563 -0.84375,-2.48438 -0.84375,-0.98437 -2.15625,-0.98437 -1.29688,0 -2.15625,0.96875 -0.84375,0.96875 -0.84375,2.5 0,1.54688 0.84375,2.51563 0.84375,0.96875 2.15625,0.96875 z m 12.82763,1.03125 v -5.89063 q 0,-1.20313 -0.5625,-1.64063 -0.54687,-0.45312 -1.45312,-0.45312 -0.78125,0 -1.54688,0.42187 -0.75,0.42188 -1.125,0.98438 v 6.57813 h -1.39062 v -9.01563 h 1.39062 v 1.3125 q 0.57813,-0.67188 1.42188,-1.09375 0.85937,-0.4375 1.78125,-0.4375 2.875,0 2.875,2.90625 v 6.32813 z m 8.26398,0.21875 q -2.03125,0 -3.3125,-1.3125 -1.28125,-1.32813 -1.28125,-3.42188 0,-2 1.26562,-3.35938 1.28125,-1.35937 3.17188,-1.35937 1.9375,0 3.125,1.34375 1.20312,1.34375 1.20312,3.48437 v 0.35938 h -7.29687 q 0.0781,1.375 1,2.25 0.92187,0.85938 2.25,0.85938 1.64062,0 2.78125,-1.14063 l 0.67187,0.92188 q -1.375,1.375 -3.57812,1.375 z m 2.79687,-5.29688 q 0,-1.25 -0.82812,-2.125 -0.8125,-0.875 -2.14063,-0.875 -1.25,0 -2.07812,0.875 -0.82813,0.875 -0.875,2.125 z"
       fill-rule="nonzero"
       id="path127" />
    <path
       fill="#000000"
       fill-opacity="0"
       d="m 841.5289,125.88714 h 20.37793"
       fill-rule="evenodd"
       id="path129" />
    <path
       stroke="#595959"
       stroke-width="2"
       stroke-linejoin="round"
       stroke-linecap="butt"
       d="m 841.5289,125.88714 h 20.37793"
       fill-rule="evenodd"
       id="path131" />
    <path
       fill="#000000"
       fill-opacity="0"
       d="m 409.69946,194.89502 h 140.59845 v 51.71652 H 409.69946 Z"
       fill-rule="evenodd"
       id="path133" />
    <path
       fill="#000000"
       d="m 461.27817,229.49501 -3.125,-12.20313 -3.09375,12.20313 h -4.01563 l -5.09375,-17.78125 h 4.23438 l 3.125,12.84375 3.375,-12.84375 h 2.96875 l 3.35937,12.84375 3.07813,-12.84375 h 4.26562 l -5.0625,17.78125 z m 19.50162,0 v -7.84375 q 0,-2.34375 -2.39063,-2.34375 -1.76562,0 -2.9375,1.53125 v 8.65625 h -3.39062 v -17.78125 h 3.39062 v 6.57812 q 0.60938,-0.73437 1.76563,-1.35937 1.17187,-0.625 2.76562,-0.625 2.14063,0 3.15625,1.07812 1.03125,1.07813 1.03125,2.96875 v 9.14063 z m 8.42932,-14.26563 q -0.82813,0 -1.4375,-0.57812 -0.59375,-0.59375 -0.59375,-1.4375 0,-0.85938 0.59375,-1.42188 0.60937,-0.57812 1.4375,-0.57812 0.85937,0 1.4375,0.57812 0.59375,0.5625 0.59375,1.42188 0,0.84375 -0.59375,1.4375 -0.57813,0.57812 -1.4375,0.57812 z m -1.6875,14.26563 v -12.875 h 3.39062 v 12.875 z m 6.74399,0 v -17.78125 h 3.39062 v 17.78125 z m 12.80651,0.3125 q -3.04687,0 -4.96875,-1.875 -1.90625,-1.875 -1.90625,-4.89063 0,-2.875 1.90625,-4.79687 1.90625,-1.9375 4.75,-1.9375 2.85938,0 4.65625,1.95312 1.79685,1.95313 1.79685,5.125 v 0.75 h -9.5781 q 0.17188,1.23438 1.10938,2.10938 0.95312,0.875 2.60937,0.875 0.79688,0 1.78125,-0.32813 0.98438,-0.32812 1.65625,-0.95312 l 1.48435,2.1875 q -0.9531,0.875 -2.37497,1.32812 -1.40625,0.45313 -2.92188,0.45313 z m 2.95313,-7.96875 q -0.0781,-1.28125 -0.96875,-2.0625 -0.875,-0.78125 -2.20313,-0.78125 -1.32812,0 -2.1875,0.8125 -0.84375,0.8125 -0.98437,2.03125 z"
       fill-rule="nonzero"
       id="path135" />
    <path
       fill="#000000"
       d="m 445.9188,231.22835 h 68.15976 v 2.39999 H 445.9188 Z"
       fill-rule="nonzero"
       id="path137" />
    <path
       fill="#eeeeee"
       d="m 252.22092,299.86877 h -38.69861 c 4.27454,0 7.73972,-8.50601 7.73972,-18.99869 0,-10.4927 -3.46518,-18.99869 -7.73972,-18.99869 h 38.69861 v 0 c 4.27454,0 7.73972,8.50598 7.73972,18.99869 0,10.49268 -3.46518,18.99869 -7.73972,18.99869 z"
       fill-rule="evenodd"
       id="path139" />
    <path
       stroke="#595959"
       stroke-width="2"
       stroke-linejoin="round"
       stroke-linecap="butt"
       d="m 252.22092,299.86877 h -38.69861 c 4.27454,0 7.73972,-8.50601 7.73972,-18.99869 0,-10.4927 -3.46518,-18.99869 -7.73972,-18.99869 h 38.69861 v 0 c 4.27454,0 7.73972,8.50598 7.73972,18.99869 0,10.49268 -3.46518,18.99869 -7.73972,18.99869 z"
       fill-rule="evenodd"
       id="path141" />
    <path
       fill="#eeeeee"
       d="m 307.2874,281.25723 h 20.94485 v 0 c 11.56757,0 20.94489,9.40552 20.94489,21.00787 0,11.60233 -9.37732,21.00788 -20.94489,21.00788 H 307.2874 Z"
       fill-rule="evenodd"
       id="path143" />
    <path
       stroke="#595959"
       stroke-width="2"
       stroke-linejoin="round"
       stroke-linecap="butt"
       d="m 307.2874,281.25723 h 20.94485 v 0 c 11.56757,0 20.94489,9.40552 20.94489,21.00787 0,11.60233 -9.37732,21.00788 -20.94489,21.00788 H 307.2874 Z"
       fill-rule="evenodd"
       id="path145" />
    <path
       fill="#000000"
       fill-opacity="0"
       d="m 143.44226,252.59448 h 44.18898 v 42.01575 h -44.18898 z"
       fill-rule="evenodd"
       id="path147" />
    <path
       fill="#000000"
       d="m 162.2668,283.17075 q -1.15625,0 -2,-0.28125 -0.82813,-0.28125 -1.64063,-1.0625 l 0.71875,-1.04688 q 0.5625,0.67188 1.25,0.95313 0.70313,0.28125 1.67188,0.28125 1.39062,0 2.14062,-0.71875 0.75,-0.71875 0.75,-1.98438 v -1.29687 q -0.48437,0.70312 -1.28125,1.15625 -0.78125,0.45312 -1.73437,0.45312 -1.82813,0 -2.92188,-1.28125 -1.09375,-1.29687 -1.09375,-3.375 0,-2.17187 1.10938,-3.42187 1.10937,-1.26563 2.90625,-1.26563 1.85937,0 3.01562,1.57813 v -1.35938 h 1.40625 v 8.75 q 0,1.90625 -1.125,2.90625 -1.10937,1.01563 -3.17187,1.01563 z m 0.20312,-4.78125 q 0.76563,0 1.51563,-0.40625 0.76562,-0.40625 1.17187,-1.0625 v -3.9375 q -0.40625,-0.65625 -1.17187,-1.04688 -0.76563,-0.40625 -1.51563,-0.40625 -1.3125,0 -2.10937,0.95313 -0.78125,0.95312 -0.78125,2.48437 0,1.54688 0.79687,2.48438 0.8125,0.9375 2.09375,0.9375 z m 10.81807,1.34375 q -1.95312,0 -3.20312,-1.32813 -1.25,-1.32812 -1.25,-3.40625 0,-2.09375 1.25,-3.40625 1.25,-1.3125 3.20312,-1.3125 1.96875,0 3.21875,1.3125 1.25,1.3125 1.25,3.40625 0,2.07813 -1.25,3.40625 -1.25,1.32813 -3.21875,1.32813 z m 0,-1.25 q 1.3125,0 2.15625,-0.96875 0.84375,-0.98438 0.84375,-2.51563 0,-1.51562 -0.84375,-2.48437 -0.84375,-0.98438 -2.15625,-0.98438 -1.29687,0 -2.15625,0.96875 -0.84375,0.96875 -0.84375,2.5 0,1.54688 0.84375,2.51563 0.84375,0.96875 2.15625,0.96875 z"
       fill-rule="nonzero"
       id="path149" />
    <path
       fill="#000000"
       fill-opacity="0"
       d="m 187.63124,273.60236 h 32.12598"
       fill-rule="evenodd"
       id="path151" />
    <path
       stroke="#595959"
       stroke-width="2"
       stroke-linejoin="round"
       stroke-linecap="butt"
       d="m 187.63124,273.60236 h 32.12598"
       fill-rule="evenodd"
       id="path153" />
    <path
       fill="#000000"
       fill-opacity="0"
       d="m 213.52298,294.61154 h 67.33859 v 42.01575 h -67.33859 z"
       fill-rule="evenodd"
       id="path155" />
    <path
       fill="#000000"
       d="m 236.3234,321.7503 q -1.98438,0 -3.25,-1.34375 -1.25,-1.34375 -1.25,-3.39063 0,-2.03125 1.25,-3.375 1.26562,-1.34375 3.25,-1.34375 2.09375,0 3.29687,1.5625 l -0.92187,0.85938 q -0.85938,-1.17188 -2.29688,-1.17188 -1.39062,0 -2.26562,0.96875 -0.85938,0.95313 -0.85938,2.5 0,1.5625 0.85938,2.53125 0.85937,0.95313 2.26562,0.95313 1.40625,0 2.29688,-1.17188 l 0.92187,0.85938 q -1.20312,1.5625 -3.29687,1.5625 z m 9.18797,0 q -1.95312,0 -3.20312,-1.32813 -1.25,-1.32812 -1.25,-3.40625 0,-2.09375 1.25,-3.40625 1.25,-1.3125 3.20312,-1.3125 1.96875,0 3.21875,1.3125 1.25,1.3125 1.25,3.40625 0,2.07813 -1.25,3.40625 -1.25,1.32813 -3.21875,1.32813 z m 0,-1.25 q 1.3125,0 2.15625,-0.96875 0.84375,-0.98438 0.84375,-2.51563 0,-1.51562 -0.84375,-2.48437 -0.84375,-0.98438 -2.15625,-0.98438 -1.29687,0 -2.15625,0.96875 -0.84375,0.96875 -0.84375,2.5 0,1.54688 0.84375,2.51563 0.84375,0.96875 2.15625,0.96875 z m 12.82762,1.03125 v -5.89063 q 0,-1.20312 -0.5625,-1.64062 -0.54687,-0.45313 -1.45312,-0.45313 -0.78125,0 -1.54688,0.42188 -0.75,0.42187 -1.125,0.98437 v 6.57813 h -1.39062 v -9.01563 h 1.39062 v 1.3125 q 0.57813,-0.67187 1.42188,-1.09375 0.85937,-0.4375 1.78125,-0.4375 2.875,0 2.875,2.90625 v 6.32813 z m 10.71711,0 v -1.34375 q -0.5,0.6875 -1.29688,1.125 -0.78125,0.4375 -1.73437,0.4375 -1.8125,0 -2.92188,-1.28125 -1.09375,-1.28125 -1.09375,-3.4375 0,-2.15625 1.10938,-3.4375 1.10937,-1.29688 2.90625,-1.29688 0.90625,0 1.70312,0.42188 0.79688,0.42187 1.32813,1.15625 v -4.78125 h 1.40625 v 12.4375 z m -2.70313,-1.03125 q 0.84375,0 1.59375,-0.40625 0.75,-0.40625 1.10938,-1 v -4.09375 q -0.35938,-0.59375 -1.10938,-1.01563 -0.75,-0.4375 -1.59375,-0.4375 -1.29687,0 -2.09375,0.95313 -0.79687,0.95312 -0.79687,2.53125 0,1.54687 0.78125,2.51562 0.79687,0.95313 2.10937,0.95313 z"
       fill-rule="nonzero"
       id="path157" />
    <path
       fill="#000000"
       fill-opacity="0"
       d="m 280.86157,315.61942 h 26.14172"
       fill-rule="evenodd"
       id="path159" />
    <path
       stroke="#595959"
       stroke-width="2"
       stroke-linejoin="round"
       stroke-linecap="butt"
       d="m 280.86157,315.61942 h 26.14172"
       fill-rule="evenodd"
       id="path161" />
    <path
       fill="#000000"
       fill-opacity="0"
       d="m 259.96063,280.8701 c 12.05511,0 18.08267,2.27557 24.11023,4.55118 6.02756,2.27557 12.05511,4.55118 24.11023,4.55118"
       fill-rule="evenodd"
       id="path163" />
    <path
       stroke="#595959"
       stroke-width="2"
       stroke-linejoin="round"
       stroke-linecap="butt"
       d="m 259.96063,280.8701 c 12.05511,0 18.08267,2.27557 24.11023,4.55118 6.02756,2.27557 12.05511,4.55118 24.11023,4.55118"
       fill-rule="evenodd"
       id="path165" />
    <path
       fill="#eeeeee"
       d="m 375.60413,272.0761 h 160.94489 v 60.37796 H 375.60413 Z"
       fill-rule="evenodd"
       id="path167" />
    <path
       stroke="#595959"
       stroke-width="2"
       stroke-linejoin="round"
       stroke-linecap="butt"
       d="m 375.60413,272.0761 h 160.94489 v 60.37796 H 375.60413 Z"
       fill-rule="evenodd"
       id="path169" />
    <path
       fill="#000000"
       d="m 438.23962,306.7476 q 0.375,0.59375 1.10937,1 0.73438,0.40625 1.57813,0.40625 1.32812,0 2.10937,-0.95313 0.79688,-0.96875 0.79688,-2.51562 0,-1.5625 -0.78125,-2.51563 -0.78125,-0.96875 -2.125,-0.96875 -0.84375,0 -1.57813,0.4375 -0.73437,0.42188 -1.10937,1.01563 z m -1.39063,2.4375 v -12.4375 h 1.39063 v 4.78125 q 1.15625,-1.57813 3.04687,-1.57813 1.78125,0 2.89063,1.3125 1.10937,1.29688 1.10937,3.42188 0,2.17187 -1.10937,3.45312 -1.10938,1.26563 -2.89063,1.26563 -0.95312,0 -1.75,-0.4375 -0.79687,-0.4375 -1.29687,-1.125 v 1.34375 z m 14.6492,0.21875 q -1.95312,0 -3.20312,-1.32813 -1.25,-1.32812 -1.25,-3.40625 0,-2.09375 1.25,-3.40625 1.25,-1.3125 3.20312,-1.3125 1.96875,0 3.21875,1.3125 1.25,1.3125 1.25,3.40625 0,2.07813 -1.25,3.40625 -1.25,1.32813 -3.21875,1.32813 z m 0,-1.25 q 1.3125,0 2.15625,-0.96875 0.84375,-0.98438 0.84375,-2.51563 0,-1.51562 -0.84375,-2.48437 -0.84375,-0.98438 -2.15625,-0.98438 -1.29687,0 -2.15625,0.96875 -0.84375,0.96875 -0.84375,2.5 0,1.54688 0.84375,2.51563 0.84375,0.96875 2.15625,0.96875 z m 13.26514,1.03125 v -1.34375 q -0.5,0.6875 -1.29687,1.125 -0.78125,0.4375 -1.73438,0.4375 -1.8125,0 -2.92187,-1.28125 -1.09375,-1.28125 -1.09375,-3.4375 0,-2.15625 1.10937,-3.4375 1.10938,-1.29688 2.90625,-1.29688 0.90625,0 1.70313,0.42188 0.79687,0.42187 1.32812,1.15625 v -4.78125 h 1.40625 v 12.4375 z m -2.70312,-1.03125 q 0.84375,0 1.59375,-0.40625 0.75,-0.40625 1.10937,-1 v -4.09375 q -0.35937,-0.59375 -1.10937,-1.01563 -0.75,-0.4375 -1.59375,-0.4375 -1.29688,0 -2.09375,0.95313 -0.79688,0.95312 -0.79688,2.53125 0,1.54687 0.78125,2.51562 0.79688,0.95313 2.10938,0.95313 z m 6.63357,3.28125 q 0.29688,0.15625 0.76563,0.15625 0.45312,0 0.76562,-0.20313 0.32813,-0.1875 0.57813,-0.75 l 0.59375,-1.35937 -3.76563,-9.10938 h 1.5 l 3.01563,7.39063 2.98437,-7.39063 h 1.51563 l -4.5,10.84375 q -0.75,1.79688 -2.65625,1.82813 -0.54688,0 -1.03125,-0.125 z"
       fill-rule="nonzero"
       id="path171" />
    <path
       fill="#000000"
       fill-opacity="0"
       d="m 375.60434,284.48557 h 67.33859 v 35.55905 h -67.33859 z"
       fill-rule="evenodd"
       id="path173" />
    <path
       fill="#000000"
       d="m 388.18246,308.89493 q -0.8125,0 -1.42188,-0.20313 -0.59375,-0.1875 -1.17187,-0.75 l 0.51562,-0.75 q 0.39063,0.48438 0.89063,0.67188 0.5,0.20312 1.1875,0.20312 1,0 1.53125,-0.51562 0.54687,-0.5 0.54687,-1.40625 v -0.92188 q -0.35937,0.48438 -0.92187,0.8125 -0.5625,0.32813 -1.25,0.32813 -1.29688,0 -2.07813,-0.92188 -0.78125,-0.92187 -0.78125,-2.40625 0,-1.54687 0.79688,-2.4375 0.79687,-0.90625 2.0625,-0.90625 1.34375,0 2.17187,1.125 v -0.96875 h 1 v 6.25 q 0,1.35938 -0.8125,2.07813 -0.79687,0.71875 -2.26562,0.71875 z m 0.15625,-3.40625 q 0.54687,0 1.07812,-0.29688 0.54688,-0.29687 0.84375,-0.76562 v -2.8125 q -0.29687,-0.45313 -0.84375,-0.73438 -0.54687,-0.29687 -1.07812,-0.29687 -0.95313,0 -1.51563,0.6875 -0.54687,0.67187 -0.54687,1.76562 0,1.10938 0.5625,1.78125 0.57812,0.67188 1.5,0.67188 z m 7.72845,0.95312 q -1.40625,0 -2.29687,-0.95312 -0.89063,-0.95313 -0.89063,-2.42188 0,-1.5 0.89063,-2.4375 0.89062,-0.9375 2.29687,-0.9375 1.40625,0 2.29688,0.9375 0.89062,0.9375 0.89062,2.4375 0,1.46875 -0.89062,2.42188 -0.89063,0.95312 -2.29688,0.95312 z m 0,-0.89062 q 0.9375,0 1.53125,-0.6875 0.59375,-0.70313 0.59375,-1.79688 0,-1.09375 -0.59375,-1.78125 -0.59375,-0.70312 -1.53125,-0.70312 -0.9375,0 -1.54687,0.70312 -0.59375,0.6875 -0.59375,1.78125 0,1.09375 0.59375,1.79688 0.59375,0.6875 1.54687,0.6875 z"
       fill-rule="nonzero"
       id="path175" />
    <path
       fill="#000000"
       fill-opacity="0"
       d="m 469.64633,284.48557 h 67.33859 v 35.55905 h -67.33859 z"
       fill-rule="evenodd"
       id="path177" />
    <path
       fill="#000000"
       d="m 503.522,306.28555 v -0.95313 q -0.375,0.48438 -0.9375,0.79688 -0.5625,0.3125 -1.25,0.3125 -1.28125,0 -2.07813,-0.90625 -0.78125,-0.92188 -0.78125,-2.46875 0,-1.54688 0.79688,-2.45313 0.79687,-0.92187 2.0625,-0.92187 0.65625,0 1.21875,0.29687 0.57812,0.29688 0.96875,0.82813 v -3.42188 h 0.98437 v 8.89063 z m -1.9375,-0.73438 q 0.59375,0 1.125,-0.28125 0.53125,-0.29687 0.8125,-0.73437 v -2.92188 q -0.28125,-0.42187 -0.8125,-0.71875 -0.53125,-0.3125 -1.125,-0.3125 -0.9375,0 -1.5,0.6875 -0.5625,0.67188 -0.5625,1.79688 0,1.10937 0.54687,1.79687 0.5625,0.6875 1.51563,0.6875 z m 7.74179,0.89063 q -1.40625,0 -2.29687,-0.95313 -0.89063,-0.95312 -0.89063,-2.42187 0,-1.5 0.89063,-2.4375 0.89062,-0.9375 2.29687,-0.9375 1.40625,0 2.29688,0.9375 0.89062,0.9375 0.89062,2.4375 0,1.46875 -0.89062,2.42187 -0.89063,0.95313 -2.29688,0.95313 z m 0,-0.89063 q 0.9375,0 1.53125,-0.6875 0.59375,-0.70312 0.59375,-1.79687 0,-1.09375 -0.59375,-1.78125 -0.59375,-0.70313 -1.53125,-0.70313 -0.9375,0 -1.54687,0.70313 -0.59375,0.6875 -0.59375,1.78125 0,1.09375 0.59375,1.79687 0.59375,0.6875 1.54687,0.6875 z m 9.15491,0.73438 v -4.21875 q 0,-0.84375 -0.39063,-1.15625 -0.39062,-0.32813 -1.04687,-0.32813 -0.5625,0 -1.10938,0.29688 -0.53125,0.29687 -0.79687,0.70312 v 4.70313 h -1 v -6.4375 h 1 v 0.9375 q 0.40625,-0.48438 1.01562,-0.78125 0.60938,-0.3125 1.28125,-0.3125 2.04688,0 2.04688,2.07812 v 4.51563 z m 5.90625,0.15625 q -1.45313,0 -2.375,-0.9375 -0.90625,-0.95313 -0.90625,-2.4375 0,-1.4375 0.90625,-2.40625 0.90625,-0.96875 2.26562,-0.96875 1.39063,0 2.23438,0.96875 0.85937,0.95312 0.85937,2.48437 v 0.25 h -5.21875 q 0.0625,0.98438 0.71875,1.60938 0.65625,0.60937 1.60938,0.60937 1.17187,0 1.98437,-0.8125 l 0.48438,0.65625 q -0.98438,0.98438 -2.5625,0.98438 z m 2,-3.78125 q 0,-0.89063 -0.59375,-1.51563 -0.57813,-0.625 -1.53125,-0.625 -0.89063,0 -1.48438,0.625 -0.59375,0.625 -0.625,1.51563 z"
       fill-rule="nonzero"
       id="path179" />
    <path
       fill="#000000"
       fill-opacity="0"
       d="m 349.17715,302.2651 h 26.4252"
       fill-rule="evenodd"
       id="path181" />
    <path
       stroke="#595959"
       stroke-width="2"
       stroke-linejoin="round"
       stroke-linecap="butt"
       d="m 349.17715,302.2651 h 26.4252"
       fill-rule="evenodd"
       id="path183" />
    <path
       fill="#000000"
       fill-opacity="0"
       d="m 536.9849,302.2651 h 25.00122 v 50.27301 H 192.82029 v -62.55649 h 28.13312"
       fill-rule="evenodd"
       id="path185" />
    <path
       stroke="#595959"
       stroke-width="2"
       stroke-linejoin="round"
       stroke-linecap="butt"
       d="m 536.9849,302.2651 h 25.00122 v 50.27301 H 192.82029 v -62.55649 h 28.13312"
       fill-rule="evenodd"
       id="path187" />
    <path
       fill="#eeeeee"
       d="m 648.5359,333.18634 h -38.69861 c 4.27454,0 7.73968,-8.50598 7.73968,-18.99869 0,-10.49267 -3.46514,-18.99869 -7.73968,-18.99869 h 38.69861 v 0 c 4.27454,0 7.73968,8.50602 7.73968,18.99869 0,10.49271 -3.46514,18.99869 -7.73968,18.99869 z"
       fill-rule="evenodd"
       id="path189" />
    <path
       stroke="#595959"
       stroke-width="2"
       stroke-linejoin="round"
       stroke-linecap="butt"
       d="m 648.5359,333.18634 h -38.69861 c 4.27454,0 7.73968,-8.50598 7.73968,-18.99869 0,-10.49267 -3.46514,-18.99869 -7.73968,-18.99869 h 38.69861 v 0 c 4.27454,0 7.73968,8.50602 7.73968,18.99869 0,10.49271 -3.46514,18.99869 -7.73968,18.99869 z"
       fill-rule="evenodd"
       id="path191" />
    <path
       fill="#000000"
       fill-opacity="0"
       d="m 561.9869,302.2651 h 54.33069"
       fill-rule="evenodd"
       id="path193" />
    <path
       stroke="#595959"
       stroke-width="2"
       stroke-linejoin="round"
       stroke-linecap="butt"
       d="m 561.9869,302.2651 h 54.33069"
       fill-rule="evenodd"
       id="path195" />
    <path
       fill="#000000"
       fill-opacity="0"
       d="m 563.8163,300.25067 h 44.18896 v 42.01575 H 563.8163 Z"
       fill-rule="evenodd"
       id="path197" />
    <path
       fill="#000000"
       d="m 582.6408,330.8269 q -1.15625,0 -2,-0.28125 -0.82812,-0.28125 -1.64062,-1.0625 l 0.71875,-1.04687 q 0.5625,0.67187 1.25,0.95312 0.70312,0.28125 1.67187,0.28125 1.39063,0 2.14063,-0.71875 0.75,-0.71875 0.75,-1.98437 v -1.29688 q -0.48438,0.70313 -1.28125,1.15625 -0.78125,0.45313 -1.73438,0.45313 -1.82812,0 -2.92187,-1.28125 -1.09375,-1.29688 -1.09375,-3.375 0,-2.17188 1.10937,-3.42188 1.10938,-1.26562 2.90625,-1.26562 1.85938,0 3.01563,1.57812 v -1.35937 h 1.40625 v 8.75 q 0,1.90625 -1.125,2.90625 -1.10938,1.01562 -3.17188,1.01562 z m 0.20313,-4.78125 q 0.76562,0 1.51562,-0.40625 0.76563,-0.40625 1.17188,-1.0625 v -3.9375 q -0.40625,-0.65625 -1.17188,-1.04687 -0.76562,-0.40625 -1.51562,-0.40625 -1.3125,0 -2.10938,0.95312 -0.78125,0.95313 -0.78125,2.48438 0,1.54687 0.79688,2.48437 0.8125,0.9375 2.09375,0.9375 z m 10.81805,1.34375 q -1.95313,0 -3.20313,-1.32812 -1.25,-1.32813 -1.25,-3.40625 0,-2.09375 1.25,-3.40625 1.25,-1.3125 3.20313,-1.3125 1.96875,0 3.21875,1.3125 1.25,1.3125 1.25,3.40625 0,2.07812 -1.25,3.40625 -1.25,1.32812 -3.21875,1.32812 z m 0,-1.25 q 1.3125,0 2.15625,-0.96875 0.84375,-0.98437 0.84375,-2.51562 0,-1.51563 -0.84375,-2.48438 -0.84375,-0.98437 -2.15625,-0.98437 -1.29688,0 -2.15625,0.96875 -0.84375,0.96875 -0.84375,2.5 0,1.54687 0.84375,2.51562 0.84375,0.96875 2.15625,0.96875 z"
       fill-rule="nonzero"
       id="path199" />
    <path
       fill="#000000"
       fill-opacity="0"
       d="m 608.00525,321.25854 h 9.85828"
       fill-rule="evenodd"
       id="path201" />
    <path
       stroke="#595959"
       stroke-width="2"
       stroke-linejoin="round"
       stroke-linecap="butt"
       d="m 608.00525,321.25854 h 9.85828"
       fill-rule="evenodd"
       id="path203" />
    <path
       fill="#eeeeee"
       d="m 685.7546,273.60367 h 20.94488 v 0 c 11.56757,0 20.94489,9.40555 20.94489,21.00787 0,11.60233 -9.37732,21.00788 -20.94489,21.00788 H 685.7546 Z"
       fill-rule="evenodd"
       id="path205" />
    <path
       stroke="#595959"
       stroke-width="2"
       stroke-linejoin="round"
       stroke-linecap="butt"
       d="m 685.7546,273.60367 h 20.94488 v 0 c 11.56757,0 20.94489,9.40555 20.94489,21.00787 0,11.60233 -9.37732,21.00788 -20.94489,21.00788 H 685.7546 Z"
       fill-rule="evenodd"
       id="path207" />
    <path
       fill="#000000"
       fill-opacity="0"
       d="m 656.2756,314.18765 c 7.37012,0 11.05512,-2.33856 14.74017,-4.67715 3.68506,-2.3386 7.37006,-4.67716 14.74018,-4.67716"
       fill-rule="evenodd"
       id="path209" />
    <path
       stroke="#595959"
       stroke-width="2"
       stroke-linejoin="round"
       stroke-linecap="butt"
       d="m 656.2756,314.18765 c 7.37012,0 11.05512,-2.33856 14.74017,-4.67715 3.68506,-2.3386 7.37006,-4.67716 14.74018,-4.67716"
       fill-rule="evenodd"
       id="path211" />
    <path
       fill="#000000"
       fill-opacity="0"
       d="m 590.2015,260.24933 h 67.33856 v 42.01578 H 590.2015 Z"
       fill-rule="evenodd"
       id="path213" />
    <path
       fill="#000000"
       d="m 604.89844,283.68497 -0.29687,-8.95312 h 1.75 l -0.29688,8.95312 z m 0.57813,3.67188 q -0.42188,0 -0.71875,-0.29688 -0.29688,-0.3125 -0.29688,-0.73437 0,-0.42188 0.29688,-0.71875 0.29687,-0.29688 0.71875,-0.29688 0.4375,0 0.73437,0.29688 0.29688,0.29687 0.29688,0.71875 0,0.42187 -0.29688,0.73437 -0.29687,0.29688 -0.73437,0.29688 z m 7.52532,0.0312 q -1.98437,0 -3.25,-1.34375 -1.25,-1.34375 -1.25,-3.39063 0,-2.03125 1.25,-3.375 1.26563,-1.34375 3.25,-1.34375 2.09375,0 3.29688,1.5625 l -0.92188,0.85938 q -0.85937,-1.17188 -2.29687,-1.17188 -1.39063,0 -2.26563,0.96875 -0.85937,0.95313 -0.85937,2.5 0,1.5625 0.85937,2.53125 0.85938,0.95313 2.26563,0.95313 1.40625,0 2.29687,-1.17188 l 0.92188,0.85938 q -1.20313,1.5625 -3.29688,1.5625 z m 9.18793,0 q -1.95312,0 -3.20312,-1.32813 -1.25,-1.32812 -1.25,-3.40625 0,-2.09375 1.25,-3.40625 1.25,-1.3125 3.20312,-1.3125 1.96875,0 3.21875,1.3125 1.25,1.3125 1.25,3.40625 0,2.07813 -1.25,3.40625 -1.25,1.32813 -3.21875,1.32813 z m 0,-1.25 q 1.3125,0 2.15625,-0.96875 0.84375,-0.98438 0.84375,-2.51563 0,-1.51562 -0.84375,-2.48437 -0.84375,-0.98438 -2.15625,-0.98438 -1.29687,0 -2.15625,0.96875 -0.84375,0.96875 -0.84375,2.5 0,1.54688 0.84375,2.51563 0.84375,0.96875 2.15625,0.96875 z m 12.82764,1.03125 v -5.89063 q 0,-1.20312 -0.5625,-1.64062 -0.54688,-0.45313 -1.45313,-0.45313 -0.78125,0 -1.54687,0.42188 -0.75,0.42187 -1.125,0.98437 v 6.57813 h -1.39063 v -9.01563 h 1.39063 v 1.3125 q 0.57812,-0.67187 1.42187,-1.09375 0.85938,-0.4375 1.78125,-0.4375 2.875,0 2.875,2.90625 v 6.32813 z m 10.7171,0 v -1.34375 q -0.5,0.6875 -1.29687,1.125 -0.78125,0.4375 -1.73438,0.4375 -1.8125,0 -2.92187,-1.28125 -1.09375,-1.28125 -1.09375,-3.4375 0,-2.15625 1.10937,-3.4375 1.10938,-1.29688 2.90625,-1.29688 0.90625,0 1.70313,0.42188 0.79687,0.42187 1.32812,1.15625 v -4.78125 h 1.40625 v 12.4375 z m -2.70312,-1.03125 q 0.84375,0 1.59375,-0.40625 0.75,-0.40625 1.10937,-1 v -4.09375 q -0.35937,-0.59375 -1.10937,-1.01563 -0.75,-0.4375 -1.59375,-0.4375 -1.29688,0 -2.09375,0.95313 -0.79688,0.95312 -0.79688,2.53125 0,1.54687 0.78125,2.51562 0.79688,0.95313 2.10938,0.95313 z"
       fill-rule="nonzero"
       id="path215" />
    <path
       fill="#000000"
       fill-opacity="0"
       d="m 657.54004,281.25723 h 28.78741"
       fill-rule="evenodd"
       id="path217" />
    <path
       stroke="#595959"
       stroke-width="2"
       stroke-linejoin="round"
       stroke-linecap="butt"
       d="m 657.54004,281.25723 h 28.78741"
       fill-rule="evenodd"
       id="path219" />
    <path
       fill="#000000"
       fill-opacity="0"
       d="m 753.18506,273.60367 h 63.37006 v 42.01575 h -63.37006 z"
       fill-rule="evenodd"
       id="path221" />
    <path
       fill="#000000"
       d="m 770.10693,300.52368 v -1.34375 q -0.5,0.6875 -1.29687,1.125 -0.78125,0.4375 -1.73438,0.4375 -1.8125,0 -2.92187,-1.28125 -1.09375,-1.28125 -1.09375,-3.4375 0,-2.15625 1.10937,-3.4375 1.10938,-1.29687 2.90625,-1.29687 0.90625,0 1.70313,0.42187 0.79687,0.42188 1.32812,1.15625 v -4.78125 h 1.40625 v 12.4375 z m -2.70312,-1.03125 q 0.84375,0 1.59375,-0.40625 0.75,-0.40625 1.10937,-1 v -4.09375 q -0.35937,-0.59375 -1.10937,-1.01562 -0.75,-0.4375 -1.59375,-0.4375 -1.29688,0 -2.09375,0.95312 -0.79688,0.95313 -0.79688,2.53125 0,1.54688 0.78125,2.51563 0.79688,0.95312 2.10938,0.95312 z m 10.83667,1.25 q -1.95313,0 -3.20313,-1.32812 -1.25,-1.32813 -1.25,-3.40625 0,-2.09375 1.25,-3.40625 1.25,-1.3125 3.20313,-1.3125 1.96875,0 3.21875,1.3125 1.25,1.3125 1.25,3.40625 0,2.07812 -1.25,3.40625 -1.25,1.32812 -3.21875,1.32812 z m 0,-1.25 q 1.3125,0 2.15625,-0.96875 0.84375,-0.98437 0.84375,-2.51562 0,-1.51563 -0.84375,-2.48438 -0.84375,-0.98437 -2.15625,-0.98437 -1.29688,0 -2.15625,0.96875 -0.84375,0.96875 -0.84375,2.5 0,1.54687 0.84375,2.51562 0.84375,0.96875 2.15625,0.96875 z m 12.82763,1.03125 v -5.89062 q 0,-1.20313 -0.5625,-1.64063 -0.54687,-0.45312 -1.45312,-0.45312 -0.78125,0 -1.54688,0.42187 -0.75,0.42188 -1.125,0.98438 v 6.57812 h -1.39062 v -9.01562 h 1.39062 v 1.3125 q 0.57813,-0.67188 1.42188,-1.09375 0.85937,-0.4375 1.78125,-0.4375 2.875,0 2.875,2.90625 v 6.32812 z m 8.26398,0.21875 q -2.03125,0 -3.3125,-1.3125 -1.28125,-1.32812 -1.28125,-3.42187 0,-2 1.26562,-3.35938 1.28125,-1.35937 3.17188,-1.35937 1.9375,0 3.125,1.34375 1.20312,1.34375 1.20312,3.48437 v 0.35938 h -7.29687 q 0.0781,1.375 1,2.25 0.92187,0.85937 2.25,0.85937 1.64062,0 2.78125,-1.14062 l 0.67187,0.92187 q -1.375,1.375 -3.57812,1.375 z m 2.79687,-5.29687 q 0,-1.25 -0.82812,-2.125 -0.8125,-0.875 -2.14063,-0.875 -1.25,0 -2.07812,0.875 -0.82813,0.875 -0.875,2.125 z"
       fill-rule="nonzero"
       id="path223" />
    <path
       fill="#000000"
       fill-opacity="0"
       d="m 727.64435,294.61154 h 25.54333"
       fill-rule="evenodd"
       id="path225" />
    <path
       stroke="#595959"
       stroke-width="2"
       stroke-linejoin="round"
       stroke-linecap="butt"
       d="m 727.64435,294.61154 h 25.54333"
       fill-rule="evenodd"
       id="path227" />
  </g>
</svg>
