<?xml version="1.0" encoding="utf-8" standalone="no"?>
<!DOCTYPE svg PUBLIC "-//W3C//DTD SVG 1.1//EN"
  "http://www.w3.org/Graphics/SVG/1.1/DTD/svg11.dtd">
<svg xmlns:xlink="http://www.w3.org/1999/xlink" width="936pt" height="360pt" viewBox="0 0 936 360" xmlns="http://www.w3.org/2000/svg" version="1.1">
 <metadata>
  <rdf:RDF xmlns:dc="http://purl.org/dc/elements/1.1/" xmlns:cc="http://creativecommons.org/ns#" xmlns:rdf="http://www.w3.org/1999/02/22-rdf-syntax-ns#">
   <cc:Work>
    <dc:type rdf:resource="http://purl.org/dc/dcmitype/StillImage"/>
    <dc:date>2024-05-19T16:44:03.538853</dc:date>
    <dc:format>image/svg+xml</dc:format>
    <dc:creator>
     <cc:Agent>
      <dc:title>Matplotlib v3.8.3, https://matplotlib.org/</dc:title>
     </cc:Agent>
    </dc:creator>
   </cc:Work>
  </rdf:RDF>
 </metadata>
 <defs>
  <style type="text/css">*{stroke-linejoin: round; stroke-linecap: butt}</style>
 </defs>
 <g id="figure_1">
  <g id="patch_1">
   <path d="M 0 360 
L 936 360 
L 936 0 
L 0 0 
z
" style="fill: #ffffff"/>
  </g>
  <g id="axes_1">
   <g id="patch_2">
    <path d="M 47.81 318.04 
L 914.055 318.04 
L 914.055 14.76 
L 47.81 14.76 
z
" style="fill: #ffffff"/>
   </g>
   <g id="matplotlib.axis_1">
    <g id="xtick_1">
     <g id="line2d_1">
      <defs>
       <path id="mdbf047dd9e" d="M 0 0 
L 0 3.5 
" style="stroke: #000000; stroke-width: 0.8"/>
      </defs>
      <g>
       <use xlink:href="#mdbf047dd9e" x="47.81" y="318.04" style="stroke: #000000; stroke-width: 0.8"/>
      </g>
     </g>
     <g id="text_1">
      <!-- 1.00 -->
      <g transform="translate(36.677188 332.638438) scale(0.1 -0.1)">
       <defs>
        <path id="DejaVuSans-31" d="M 794 531 
L 1825 531 
L 1825 4091 
L 703 3866 
L 703 4441 
L 1819 4666 
L 2450 4666 
L 2450 531 
L 3481 531 
L 3481 0 
L 794 0 
L 794 531 
z
" transform="scale(0.015625)"/>
        <path id="DejaVuSans-2e" d="M 684 794 
L 1344 794 
L 1344 0 
L 684 0 
L 684 794 
z
" transform="scale(0.015625)"/>
        <path id="DejaVuSans-30" d="M 2034 4250 
Q 1547 4250 1301 3770 
Q 1056 3291 1056 2328 
Q 1056 1369 1301 889 
Q 1547 409 2034 409 
Q 2525 409 2770 889 
Q 3016 1369 3016 2328 
Q 3016 3291 2770 3770 
Q 2525 4250 2034 4250 
z
M 2034 4750 
Q 2819 4750 3233 4129 
Q 3647 3509 3647 2328 
Q 3647 1150 3233 529 
Q 2819 -91 2034 -91 
Q 1250 -91 836 529 
Q 422 1150 422 2328 
Q 422 3509 836 4129 
Q 1250 4750 2034 4750 
z
" transform="scale(0.015625)"/>
       </defs>
       <use xlink:href="#DejaVuSans-31"/>
       <use xlink:href="#DejaVuSans-2e" x="63.623047"/>
       <use xlink:href="#DejaVuSans-30" x="95.410156"/>
       <use xlink:href="#DejaVuSans-30" x="159.033203"/>
      </g>
     </g>
    </g>
    <g id="xtick_2">
     <g id="line2d_2">
      <g>
       <use xlink:href="#mdbf047dd9e" x="156.090625" y="318.04" style="stroke: #000000; stroke-width: 0.8"/>
      </g>
     </g>
     <g id="text_2">
      <!-- 1.25 -->
      <g transform="translate(144.957812 332.638438) scale(0.1 -0.1)">
       <defs>
        <path id="DejaVuSans-32" d="M 1228 531 
L 3431 531 
L 3431 0 
L 469 0 
L 469 531 
Q 828 903 1448 1529 
Q 2069 2156 2228 2338 
Q 2531 2678 2651 2914 
Q 2772 3150 2772 3378 
Q 2772 3750 2511 3984 
Q 2250 4219 1831 4219 
Q 1534 4219 1204 4116 
Q 875 4013 500 3803 
L 500 4441 
Q 881 4594 1212 4672 
Q 1544 4750 1819 4750 
Q 2544 4750 2975 4387 
Q 3406 4025 3406 3419 
Q 3406 3131 3298 2873 
Q 3191 2616 2906 2266 
Q 2828 2175 2409 1742 
Q 1991 1309 1228 531 
z
" transform="scale(0.015625)"/>
        <path id="DejaVuSans-35" d="M 691 4666 
L 3169 4666 
L 3169 4134 
L 1269 4134 
L 1269 2991 
Q 1406 3038 1543 3061 
Q 1681 3084 1819 3084 
Q 2600 3084 3056 2656 
Q 3513 2228 3513 1497 
Q 3513 744 3044 326 
Q 2575 -91 1722 -91 
Q 1428 -91 1123 -41 
Q 819 9 494 109 
L 494 744 
Q 775 591 1075 516 
Q 1375 441 1709 441 
Q 2250 441 2565 725 
Q 2881 1009 2881 1497 
Q 2881 1984 2565 2268 
Q 2250 2553 1709 2553 
Q 1456 2553 1204 2497 
Q 953 2441 691 2322 
L 691 4666 
z
" transform="scale(0.015625)"/>
       </defs>
       <use xlink:href="#DejaVuSans-31"/>
       <use xlink:href="#DejaVuSans-2e" x="63.623047"/>
       <use xlink:href="#DejaVuSans-32" x="95.410156"/>
       <use xlink:href="#DejaVuSans-35" x="159.033203"/>
      </g>
     </g>
    </g>
    <g id="xtick_3">
     <g id="line2d_3">
      <g>
       <use xlink:href="#mdbf047dd9e" x="264.37125" y="318.04" style="stroke: #000000; stroke-width: 0.8"/>
      </g>
     </g>
     <g id="text_3">
      <!-- 1.50 -->
      <g transform="translate(253.238438 332.638438) scale(0.1 -0.1)">
       <use xlink:href="#DejaVuSans-31"/>
       <use xlink:href="#DejaVuSans-2e" x="63.623047"/>
       <use xlink:href="#DejaVuSans-35" x="95.410156"/>
       <use xlink:href="#DejaVuSans-30" x="159.033203"/>
      </g>
     </g>
    </g>
    <g id="xtick_4">
     <g id="line2d_4">
      <g>
       <use xlink:href="#mdbf047dd9e" x="372.651875" y="318.04" style="stroke: #000000; stroke-width: 0.8"/>
      </g>
     </g>
     <g id="text_4">
      <!-- 1.75 -->
      <g transform="translate(361.519063 332.638438) scale(0.1 -0.1)">
       <defs>
        <path id="DejaVuSans-37" d="M 525 4666 
L 3525 4666 
L 3525 4397 
L 1831 0 
L 1172 0 
L 2766 4134 
L 525 4134 
L 525 4666 
z
" transform="scale(0.015625)"/>
       </defs>
       <use xlink:href="#DejaVuSans-31"/>
       <use xlink:href="#DejaVuSans-2e" x="63.623047"/>
       <use xlink:href="#DejaVuSans-37" x="95.410156"/>
       <use xlink:href="#DejaVuSans-35" x="159.033203"/>
      </g>
     </g>
    </g>
    <g id="xtick_5">
     <g id="line2d_5">
      <g>
       <use xlink:href="#mdbf047dd9e" x="480.9325" y="318.04" style="stroke: #000000; stroke-width: 0.8"/>
      </g>
     </g>
     <g id="text_5">
      <!-- 2.00 -->
      <g transform="translate(469.799688 332.638438) scale(0.1 -0.1)">
       <use xlink:href="#DejaVuSans-32"/>
       <use xlink:href="#DejaVuSans-2e" x="63.623047"/>
       <use xlink:href="#DejaVuSans-30" x="95.410156"/>
       <use xlink:href="#DejaVuSans-30" x="159.033203"/>
      </g>
     </g>
    </g>
    <g id="xtick_6">
     <g id="line2d_6">
      <g>
       <use xlink:href="#mdbf047dd9e" x="589.213125" y="318.04" style="stroke: #000000; stroke-width: 0.8"/>
      </g>
     </g>
     <g id="text_6">
      <!-- 2.25 -->
      <g transform="translate(578.080312 332.638438) scale(0.1 -0.1)">
       <use xlink:href="#DejaVuSans-32"/>
       <use xlink:href="#DejaVuSans-2e" x="63.623047"/>
       <use xlink:href="#DejaVuSans-32" x="95.410156"/>
       <use xlink:href="#DejaVuSans-35" x="159.033203"/>
      </g>
     </g>
    </g>
    <g id="xtick_7">
     <g id="line2d_7">
      <g>
       <use xlink:href="#mdbf047dd9e" x="697.49375" y="318.04" style="stroke: #000000; stroke-width: 0.8"/>
      </g>
     </g>
     <g id="text_7">
      <!-- 2.50 -->
      <g transform="translate(686.360937 332.638438) scale(0.1 -0.1)">
       <use xlink:href="#DejaVuSans-32"/>
       <use xlink:href="#DejaVuSans-2e" x="63.623047"/>
       <use xlink:href="#DejaVuSans-35" x="95.410156"/>
       <use xlink:href="#DejaVuSans-30" x="159.033203"/>
      </g>
     </g>
    </g>
    <g id="xtick_8">
     <g id="line2d_8">
      <g>
       <use xlink:href="#mdbf047dd9e" x="805.774375" y="318.04" style="stroke: #000000; stroke-width: 0.8"/>
      </g>
     </g>
     <g id="text_8">
      <!-- 2.75 -->
      <g transform="translate(794.641562 332.638438) scale(0.1 -0.1)">
       <use xlink:href="#DejaVuSans-32"/>
       <use xlink:href="#DejaVuSans-2e" x="63.623047"/>
       <use xlink:href="#DejaVuSans-37" x="95.410156"/>
       <use xlink:href="#DejaVuSans-35" x="159.033203"/>
      </g>
     </g>
    </g>
    <g id="xtick_9">
     <g id="line2d_9">
      <g>
       <use xlink:href="#mdbf047dd9e" x="914.055" y="318.04" style="stroke: #000000; stroke-width: 0.8"/>
      </g>
     </g>
     <g id="text_9">
      <!-- 3.00 -->
      <g transform="translate(902.922188 332.638438) scale(0.1 -0.1)">
       <defs>
        <path id="DejaVuSans-33" d="M 2597 2516 
Q 3050 2419 3304 2112 
Q 3559 1806 3559 1356 
Q 3559 666 3084 287 
Q 2609 -91 1734 -91 
Q 1441 -91 1130 -33 
Q 819 25 488 141 
L 488 750 
Q 750 597 1062 519 
Q 1375 441 1716 441 
Q 2309 441 2620 675 
Q 2931 909 2931 1356 
Q 2931 1769 2642 2001 
Q 2353 2234 1838 2234 
L 1294 2234 
L 1294 2753 
L 1863 2753 
Q 2328 2753 2575 2939 
Q 2822 3125 2822 3475 
Q 2822 3834 2567 4026 
Q 2313 4219 1838 4219 
Q 1578 4219 1281 4162 
Q 984 4106 628 3988 
L 628 4550 
Q 988 4650 1302 4700 
Q 1616 4750 1894 4750 
Q 2613 4750 3031 4423 
Q 3450 4097 3450 3541 
Q 3450 3153 3228 2886 
Q 3006 2619 2597 2516 
z
" transform="scale(0.015625)"/>
       </defs>
       <use xlink:href="#DejaVuSans-33"/>
       <use xlink:href="#DejaVuSans-2e" x="63.623047"/>
       <use xlink:href="#DejaVuSans-30" x="95.410156"/>
       <use xlink:href="#DejaVuSans-30" x="159.033203"/>
      </g>
     </g>
    </g>
    <g id="text_10">
     <!-- Time (Instructions) -->
     <g transform="translate(433.844219 346.316563) scale(0.1 -0.1)">
      <defs>
       <path id="DejaVuSans-54" d="M -19 4666 
L 3928 4666 
L 3928 4134 
L 2272 4134 
L 2272 0 
L 1638 0 
L 1638 4134 
L -19 4134 
L -19 4666 
z
" transform="scale(0.015625)"/>
       <path id="DejaVuSans-69" d="M 603 3500 
L 1178 3500 
L 1178 0 
L 603 0 
L 603 3500 
z
M 603 4863 
L 1178 4863 
L 1178 4134 
L 603 4134 
L 603 4863 
z
" transform="scale(0.015625)"/>
       <path id="DejaVuSans-6d" d="M 3328 2828 
Q 3544 3216 3844 3400 
Q 4144 3584 4550 3584 
Q 5097 3584 5394 3201 
Q 5691 2819 5691 2113 
L 5691 0 
L 5113 0 
L 5113 2094 
Q 5113 2597 4934 2840 
Q 4756 3084 4391 3084 
Q 3944 3084 3684 2787 
Q 3425 2491 3425 1978 
L 3425 0 
L 2847 0 
L 2847 2094 
Q 2847 2600 2669 2842 
Q 2491 3084 2119 3084 
Q 1678 3084 1418 2786 
Q 1159 2488 1159 1978 
L 1159 0 
L 581 0 
L 581 3500 
L 1159 3500 
L 1159 2956 
Q 1356 3278 1631 3431 
Q 1906 3584 2284 3584 
Q 2666 3584 2933 3390 
Q 3200 3197 3328 2828 
z
" transform="scale(0.015625)"/>
       <path id="DejaVuSans-65" d="M 3597 1894 
L 3597 1613 
L 953 1613 
Q 991 1019 1311 708 
Q 1631 397 2203 397 
Q 2534 397 2845 478 
Q 3156 559 3463 722 
L 3463 178 
Q 3153 47 2828 -22 
Q 2503 -91 2169 -91 
Q 1331 -91 842 396 
Q 353 884 353 1716 
Q 353 2575 817 3079 
Q 1281 3584 2069 3584 
Q 2775 3584 3186 3129 
Q 3597 2675 3597 1894 
z
M 3022 2063 
Q 3016 2534 2758 2815 
Q 2500 3097 2075 3097 
Q 1594 3097 1305 2825 
Q 1016 2553 972 2059 
L 3022 2063 
z
" transform="scale(0.015625)"/>
       <path id="DejaVuSans-20" transform="scale(0.015625)"/>
       <path id="DejaVuSans-28" d="M 1984 4856 
Q 1566 4138 1362 3434 
Q 1159 2731 1159 2009 
Q 1159 1288 1364 580 
Q 1569 -128 1984 -844 
L 1484 -844 
Q 1016 -109 783 600 
Q 550 1309 550 2009 
Q 550 2706 781 3412 
Q 1013 4119 1484 4856 
L 1984 4856 
z
" transform="scale(0.015625)"/>
       <path id="DejaVuSans-49" d="M 628 4666 
L 1259 4666 
L 1259 0 
L 628 0 
L 628 4666 
z
" transform="scale(0.015625)"/>
       <path id="DejaVuSans-6e" d="M 3513 2113 
L 3513 0 
L 2938 0 
L 2938 2094 
Q 2938 2591 2744 2837 
Q 2550 3084 2163 3084 
Q 1697 3084 1428 2787 
Q 1159 2491 1159 1978 
L 1159 0 
L 581 0 
L 581 3500 
L 1159 3500 
L 1159 2956 
Q 1366 3272 1645 3428 
Q 1925 3584 2291 3584 
Q 2894 3584 3203 3211 
Q 3513 2838 3513 2113 
z
" transform="scale(0.015625)"/>
       <path id="DejaVuSans-73" d="M 2834 3397 
L 2834 2853 
Q 2591 2978 2328 3040 
Q 2066 3103 1784 3103 
Q 1356 3103 1142 2972 
Q 928 2841 928 2578 
Q 928 2378 1081 2264 
Q 1234 2150 1697 2047 
L 1894 2003 
Q 2506 1872 2764 1633 
Q 3022 1394 3022 966 
Q 3022 478 2636 193 
Q 2250 -91 1575 -91 
Q 1294 -91 989 -36 
Q 684 19 347 128 
L 347 722 
Q 666 556 975 473 
Q 1284 391 1588 391 
Q 1994 391 2212 530 
Q 2431 669 2431 922 
Q 2431 1156 2273 1281 
Q 2116 1406 1581 1522 
L 1381 1569 
Q 847 1681 609 1914 
Q 372 2147 372 2553 
Q 372 3047 722 3315 
Q 1072 3584 1716 3584 
Q 2034 3584 2315 3537 
Q 2597 3491 2834 3397 
z
" transform="scale(0.015625)"/>
       <path id="DejaVuSans-74" d="M 1172 4494 
L 1172 3500 
L 2356 3500 
L 2356 3053 
L 1172 3053 
L 1172 1153 
Q 1172 725 1289 603 
Q 1406 481 1766 481 
L 2356 481 
L 2356 0 
L 1766 0 
Q 1100 0 847 248 
Q 594 497 594 1153 
L 594 3053 
L 172 3053 
L 172 3500 
L 594 3500 
L 594 4494 
L 1172 4494 
z
" transform="scale(0.015625)"/>
       <path id="DejaVuSans-72" d="M 2631 2963 
Q 2534 3019 2420 3045 
Q 2306 3072 2169 3072 
Q 1681 3072 1420 2755 
Q 1159 2438 1159 1844 
L 1159 0 
L 581 0 
L 581 3500 
L 1159 3500 
L 1159 2956 
Q 1341 3275 1631 3429 
Q 1922 3584 2338 3584 
Q 2397 3584 2469 3576 
Q 2541 3569 2628 3553 
L 2631 2963 
z
" transform="scale(0.015625)"/>
       <path id="DejaVuSans-75" d="M 544 1381 
L 544 3500 
L 1119 3500 
L 1119 1403 
Q 1119 906 1312 657 
Q 1506 409 1894 409 
Q 2359 409 2629 706 
Q 2900 1003 2900 1516 
L 2900 3500 
L 3475 3500 
L 3475 0 
L 2900 0 
L 2900 538 
Q 2691 219 2414 64 
Q 2138 -91 1772 -91 
Q 1169 -91 856 284 
Q 544 659 544 1381 
z
M 1991 3584 
L 1991 3584 
z
" transform="scale(0.015625)"/>
       <path id="DejaVuSans-63" d="M 3122 3366 
L 3122 2828 
Q 2878 2963 2633 3030 
Q 2388 3097 2138 3097 
Q 1578 3097 1268 2742 
Q 959 2388 959 1747 
Q 959 1106 1268 751 
Q 1578 397 2138 397 
Q 2388 397 2633 464 
Q 2878 531 3122 666 
L 3122 134 
Q 2881 22 2623 -34 
Q 2366 -91 2075 -91 
Q 1284 -91 818 406 
Q 353 903 353 1747 
Q 353 2603 823 3093 
Q 1294 3584 2113 3584 
Q 2378 3584 2631 3529 
Q 2884 3475 3122 3366 
z
" transform="scale(0.015625)"/>
       <path id="DejaVuSans-6f" d="M 1959 3097 
Q 1497 3097 1228 2736 
Q 959 2375 959 1747 
Q 959 1119 1226 758 
Q 1494 397 1959 397 
Q 2419 397 2687 759 
Q 2956 1122 2956 1747 
Q 2956 2369 2687 2733 
Q 2419 3097 1959 3097 
z
M 1959 3584 
Q 2709 3584 3137 3096 
Q 3566 2609 3566 1747 
Q 3566 888 3137 398 
Q 2709 -91 1959 -91 
Q 1206 -91 779 398 
Q 353 888 353 1747 
Q 353 2609 779 3096 
Q 1206 3584 1959 3584 
z
" transform="scale(0.015625)"/>
       <path id="DejaVuSans-29" d="M 513 4856 
L 1013 4856 
Q 1481 4119 1714 3412 
Q 1947 2706 1947 2009 
Q 1947 1309 1714 600 
Q 1481 -109 1013 -844 
L 513 -844 
Q 928 -128 1133 580 
Q 1338 1288 1338 2009 
Q 1338 2731 1133 3434 
Q 928 4138 513 4856 
z
" transform="scale(0.015625)"/>
      </defs>
      <use xlink:href="#DejaVuSans-54"/>
      <use xlink:href="#DejaVuSans-69" x="57.958984"/>
      <use xlink:href="#DejaVuSans-6d" x="85.742188"/>
      <use xlink:href="#DejaVuSans-65" x="183.154297"/>
      <use xlink:href="#DejaVuSans-20" x="244.677734"/>
      <use xlink:href="#DejaVuSans-28" x="276.464844"/>
      <use xlink:href="#DejaVuSans-49" x="315.478516"/>
      <use xlink:href="#DejaVuSans-6e" x="344.970703"/>
      <use xlink:href="#DejaVuSans-73" x="408.349609"/>
      <use xlink:href="#DejaVuSans-74" x="460.449219"/>
      <use xlink:href="#DejaVuSans-72" x="499.658203"/>
      <use xlink:href="#DejaVuSans-75" x="540.771484"/>
      <use xlink:href="#DejaVuSans-63" x="604.150391"/>
      <use xlink:href="#DejaVuSans-74" x="659.130859"/>
      <use xlink:href="#DejaVuSans-69" x="698.339844"/>
      <use xlink:href="#DejaVuSans-6f" x="726.123047"/>
      <use xlink:href="#DejaVuSans-6e" x="787.304688"/>
      <use xlink:href="#DejaVuSans-73" x="850.683594"/>
      <use xlink:href="#DejaVuSans-29" x="902.783203"/>
     </g>
    </g>
    <g id="text_11">
     <!-- 1e6 -->
     <g transform="translate(895.176875 345.316563) scale(0.1 -0.1)">
      <defs>
       <path id="DejaVuSans-36" d="M 2113 2584 
Q 1688 2584 1439 2293 
Q 1191 2003 1191 1497 
Q 1191 994 1439 701 
Q 1688 409 2113 409 
Q 2538 409 2786 701 
Q 3034 994 3034 1497 
Q 3034 2003 2786 2293 
Q 2538 2584 2113 2584 
z
M 3366 4563 
L 3366 3988 
Q 3128 4100 2886 4159 
Q 2644 4219 2406 4219 
Q 1781 4219 1451 3797 
Q 1122 3375 1075 2522 
Q 1259 2794 1537 2939 
Q 1816 3084 2150 3084 
Q 2853 3084 3261 2657 
Q 3669 2231 3669 1497 
Q 3669 778 3244 343 
Q 2819 -91 2113 -91 
Q 1303 -91 875 529 
Q 447 1150 447 2328 
Q 447 3434 972 4092 
Q 1497 4750 2381 4750 
Q 2619 4750 2861 4703 
Q 3103 4656 3366 4563 
z
" transform="scale(0.015625)"/>
      </defs>
      <use xlink:href="#DejaVuSans-31"/>
      <use xlink:href="#DejaVuSans-65" x="63.623047"/>
      <use xlink:href="#DejaVuSans-36" x="125.146484"/>
     </g>
    </g>
   </g>
   <g id="matplotlib.axis_2">
    <g id="ytick_1">
     <g id="line2d_10">
      <defs>
       <path id="m5e11ea8491" d="M 0 0 
L -3.5 0 
" style="stroke: #000000; stroke-width: 0.8"/>
      </defs>
      <g>
       <use xlink:href="#m5e11ea8491" x="47.81" y="318.04" style="stroke: #000000; stroke-width: 0.8"/>
      </g>
     </g>
     <g id="text_12">
      <!-- 0.6 -->
      <g transform="translate(24.906875 321.839219) scale(0.1 -0.1)">
       <use xlink:href="#DejaVuSans-30"/>
       <use xlink:href="#DejaVuSans-2e" x="63.623047"/>
       <use xlink:href="#DejaVuSans-36" x="95.410156"/>
      </g>
     </g>
    </g>
    <g id="ytick_2">
     <g id="line2d_11">
      <g>
       <use xlink:href="#m5e11ea8491" x="47.81" y="257.384" style="stroke: #000000; stroke-width: 0.8"/>
      </g>
     </g>
     <g id="text_13">
      <!-- 0.7 -->
      <g transform="translate(24.906875 261.183219) scale(0.1 -0.1)">
       <use xlink:href="#DejaVuSans-30"/>
       <use xlink:href="#DejaVuSans-2e" x="63.623047"/>
       <use xlink:href="#DejaVuSans-37" x="95.410156"/>
      </g>
     </g>
    </g>
    <g id="ytick_3">
     <g id="line2d_12">
      <g>
       <use xlink:href="#m5e11ea8491" x="47.81" y="196.728" style="stroke: #000000; stroke-width: 0.8"/>
      </g>
     </g>
     <g id="text_14">
      <!-- 0.8 -->
      <g transform="translate(24.906875 200.527219) scale(0.1 -0.1)">
       <defs>
        <path id="DejaVuSans-38" d="M 2034 2216 
Q 1584 2216 1326 1975 
Q 1069 1734 1069 1313 
Q 1069 891 1326 650 
Q 1584 409 2034 409 
Q 2484 409 2743 651 
Q 3003 894 3003 1313 
Q 3003 1734 2745 1975 
Q 2488 2216 2034 2216 
z
M 1403 2484 
Q 997 2584 770 2862 
Q 544 3141 544 3541 
Q 544 4100 942 4425 
Q 1341 4750 2034 4750 
Q 2731 4750 3128 4425 
Q 3525 4100 3525 3541 
Q 3525 3141 3298 2862 
Q 3072 2584 2669 2484 
Q 3125 2378 3379 2068 
Q 3634 1759 3634 1313 
Q 3634 634 3220 271 
Q 2806 -91 2034 -91 
Q 1263 -91 848 271 
Q 434 634 434 1313 
Q 434 1759 690 2068 
Q 947 2378 1403 2484 
z
M 1172 3481 
Q 1172 3119 1398 2916 
Q 1625 2713 2034 2713 
Q 2441 2713 2670 2916 
Q 2900 3119 2900 3481 
Q 2900 3844 2670 4047 
Q 2441 4250 2034 4250 
Q 1625 4250 1398 4047 
Q 1172 3844 1172 3481 
z
" transform="scale(0.015625)"/>
       </defs>
       <use xlink:href="#DejaVuSans-30"/>
       <use xlink:href="#DejaVuSans-2e" x="63.623047"/>
       <use xlink:href="#DejaVuSans-38" x="95.410156"/>
      </g>
     </g>
    </g>
    <g id="ytick_4">
     <g id="line2d_13">
      <g>
       <use xlink:href="#m5e11ea8491" x="47.81" y="136.072" style="stroke: #000000; stroke-width: 0.8"/>
      </g>
     </g>
     <g id="text_15">
      <!-- 0.9 -->
      <g transform="translate(24.906875 139.871219) scale(0.1 -0.1)">
       <defs>
        <path id="DejaVuSans-39" d="M 703 97 
L 703 672 
Q 941 559 1184 500 
Q 1428 441 1663 441 
Q 2288 441 2617 861 
Q 2947 1281 2994 2138 
Q 2813 1869 2534 1725 
Q 2256 1581 1919 1581 
Q 1219 1581 811 2004 
Q 403 2428 403 3163 
Q 403 3881 828 4315 
Q 1253 4750 1959 4750 
Q 2769 4750 3195 4129 
Q 3622 3509 3622 2328 
Q 3622 1225 3098 567 
Q 2575 -91 1691 -91 
Q 1453 -91 1209 -44 
Q 966 3 703 97 
z
M 1959 2075 
Q 2384 2075 2632 2365 
Q 2881 2656 2881 3163 
Q 2881 3666 2632 3958 
Q 2384 4250 1959 4250 
Q 1534 4250 1286 3958 
Q 1038 3666 1038 3163 
Q 1038 2656 1286 2365 
Q 1534 2075 1959 2075 
z
" transform="scale(0.015625)"/>
       </defs>
       <use xlink:href="#DejaVuSans-30"/>
       <use xlink:href="#DejaVuSans-2e" x="63.623047"/>
       <use xlink:href="#DejaVuSans-39" x="95.410156"/>
      </g>
     </g>
    </g>
    <g id="ytick_5">
     <g id="line2d_14">
      <g>
       <use xlink:href="#m5e11ea8491" x="47.81" y="75.416" style="stroke: #000000; stroke-width: 0.8"/>
      </g>
     </g>
     <g id="text_16">
      <!-- 1.0 -->
      <g transform="translate(24.906875 79.215219) scale(0.1 -0.1)">
       <use xlink:href="#DejaVuSans-31"/>
       <use xlink:href="#DejaVuSans-2e" x="63.623047"/>
       <use xlink:href="#DejaVuSans-30" x="95.410156"/>
      </g>
     </g>
    </g>
    <g id="ytick_6">
     <g id="line2d_15">
      <g>
       <use xlink:href="#m5e11ea8491" x="47.81" y="14.76" style="stroke: #000000; stroke-width: 0.8"/>
      </g>
     </g>
     <g id="text_17">
      <!-- 1.1 -->
      <g transform="translate(24.906875 18.559219) scale(0.1 -0.1)">
       <use xlink:href="#DejaVuSans-31"/>
       <use xlink:href="#DejaVuSans-2e" x="63.623047"/>
       <use xlink:href="#DejaVuSans-31" x="95.410156"/>
      </g>
     </g>
    </g>
    <g id="text_18">
     <!-- IPC -->
     <g transform="translate(18.827188 174.38125) rotate(-90) scale(0.1 -0.1)">
      <defs>
       <path id="DejaVuSans-50" d="M 1259 4147 
L 1259 2394 
L 2053 2394 
Q 2494 2394 2734 2622 
Q 2975 2850 2975 3272 
Q 2975 3691 2734 3919 
Q 2494 4147 2053 4147 
L 1259 4147 
z
M 628 4666 
L 2053 4666 
Q 2838 4666 3239 4311 
Q 3641 3956 3641 3272 
Q 3641 2581 3239 2228 
Q 2838 1875 2053 1875 
L 1259 1875 
L 1259 0 
L 628 0 
L 628 4666 
z
" transform="scale(0.015625)"/>
       <path id="DejaVuSans-43" d="M 4122 4306 
L 4122 3641 
Q 3803 3938 3442 4084 
Q 3081 4231 2675 4231 
Q 1875 4231 1450 3742 
Q 1025 3253 1025 2328 
Q 1025 1406 1450 917 
Q 1875 428 2675 428 
Q 3081 428 3442 575 
Q 3803 722 4122 1019 
L 4122 359 
Q 3791 134 3420 21 
Q 3050 -91 2638 -91 
Q 1578 -91 968 557 
Q 359 1206 359 2328 
Q 359 3453 968 4101 
Q 1578 4750 2638 4750 
Q 3056 4750 3426 4639 
Q 3797 4528 4122 4306 
z
" transform="scale(0.015625)"/>
      </defs>
      <use xlink:href="#DejaVuSans-49"/>
      <use xlink:href="#DejaVuSans-50" x="29.492188"/>
      <use xlink:href="#DejaVuSans-43" x="89.794922"/>
     </g>
    </g>
   </g>
   <g id="line2d_16">
    <path d="M -1 166.062076 
L 0.166525 166.062076 
L 0.166525 201.342086 
L 4.49775 201.342086 
L 4.49775 202.557726 
L 8.828975 202.557726 
L 8.828975 204.895616 
L 13.1602 204.895616 
L 13.1602 201.494378 
L 17.491425 201.494378 
L 17.491425 181.017956 
L 21.82265 181.017956 
L 21.82265 117.103584 
L 26.153875 117.103584 
L 26.153875 103.528546 
L 30.4851 103.528546 
L 30.4851 95.41764 
L 34.816325 95.41764 
L 34.816325 95.587756 
L 39.14755 95.587756 
L 39.14755 96.210669 
L 43.478775 96.210669 
L 43.478775 95.531061 
L 47.81 95.531061 
L 47.81 95.757772 
L 52.141225 95.757772 
L 52.141225 184.224482 
L 56.47245 184.224482 
L 56.47245 214.708455 
L 60.803675 214.708455 
L 60.803675 208.877178 
L 65.1349 208.877178 
L 65.1349 214.348215 
L 69.466125 214.348215 
L 69.466125 212.647619 
L 73.79735 212.647619 
L 73.79735 210.348599 
L 78.128575 210.348599 
L 78.128575 208.987853 
L 82.4598 208.987853 
L 82.4598 213.987419 
L 86.791025 213.987419 
L 86.791025 216.715587 
L 91.12225 216.715587 
L 91.12225 83.554532 
L 95.453475 83.554532 
L 95.453475 82.134228 
L 99.7847 82.134228 
L 99.7847 76.143 
L 104.115925 76.143 
L 104.115925 86.842562 
L 108.44715 86.842562 
L 108.44715 112.489567 
L 112.778375 112.489567 
L 112.778375 168.855283 
L 117.1096 168.855283 
L 117.1096 185.121478 
L 121.440825 185.121478 
L 121.440825 200.73195 
L 125.77205 200.73195 
L 125.77205 201.532436 
L 130.103275 201.532436 
L 130.103275 203.917992 
L 134.4345 203.917992 
L 134.4345 204.332091 
L 138.765725 204.332091 
L 138.765725 108.938683 
L 143.09695 108.938683 
L 143.09695 127.685586 
L 147.428175 127.685586 
L 147.428175 96.154095 
L 151.7594 96.154095 
L 151.7594 95.701111 
L 156.090625 95.701111 
L 156.090625 95.41764 
L 160.42185 95.41764 
L 160.42185 96.380325 
L 164.753075 96.380325 
L 164.753075 94.849875 
L 169.0843 94.849875 
L 169.0843 139.96903 
L 173.415525 139.96903 
L 173.415525 215.068141 
L 177.74675 215.068141 
L 177.74675 212.320561 
L 182.077975 212.320561 
L 182.077975 208.026945 
L 186.4092 208.026945 
L 186.4092 210.42193 
L 190.740425 210.42193 
L 190.740425 212.065867 
L 195.07165 212.065867 
L 195.07165 211.263599 
L 199.402875 211.263599 
L 199.402875 211.956628 
L 203.7341 211.956628 
L 203.7341 211.263599 
L 208.065325 211.263599 
L 208.065325 157.270118 
L 212.39655 157.270118 
L 212.39655 75.416 
L 216.727775 75.416 
L 216.727775 81.956216 
L 221.059 81.956216 
L 221.059 84.321059 
L 225.390225 84.321059 
L 225.390225 95.190666 
L 229.72145 95.190666 
L 229.72145 158.447604 
L 234.052675 158.447604 
L 234.052675 180.106068 
L 238.3839 180.106068 
L 238.3839 200.693766 
L 242.715125 200.693766 
L 242.715125 202.519831 
L 247.04635 202.519831 
L 247.04635 203.465429 
L 251.377575 203.465429 
L 251.377575 202.330262 
L 255.7088 202.330262 
L 255.7088 155.676651 
L 260.040025 155.676651 
L 260.040025 121.073466 
L 264.37125 121.073466 
L 264.37125 100.645734 
L 268.702475 100.645734 
L 268.702475 95.077113 
L 273.0337 95.077113 
L 273.0337 96.154095 
L 277.364925 96.154095 
L 277.364925 95.871062 
L 286.027375 95.927691 
L 286.027375 95.757772 
L 290.3586 95.757772 
L 290.3586 205.34548 
L 294.689825 205.34548 
L 294.689825 211.847338 
L 299.02105 211.847338 
L 299.02105 209.172196 
L 303.352275 209.172196 
L 303.352275 214.240035 
L 307.6835 214.240035 
L 307.6835 211.153986 
L 312.014725 211.153986 
L 312.014725 208.914075 
L 316.34595 208.914075 
L 316.34595 213.372786 
L 320.677175 213.372786 
L 320.677175 212.065867 
L 325.0084 212.065867 
L 325.0084 197.154643 
L 329.339625 197.154643 
L 329.339625 75.779718 
L 333.67085 75.779718 
L 333.67085 82.312134 
L 338.002075 82.312134 
L 338.002075 76.143 
L 342.3333 76.143 
L 342.3333 83.318282 
L 346.664525 83.318282 
L 346.664525 137.585406 
L 350.99575 137.585406 
L 350.99575 168.42084 
L 355.326975 168.42084 
L 355.326975 195.911411 
L 359.6582 195.911411 
L 359.6582 200.50275 
L 363.989425 200.50275 
L 363.989425 202.140544 
L 368.32065 202.140544 
L 368.32065 201.151585 
L 372.651875 201.151585 
L 372.651875 199.583762 
L 376.9831 199.583762 
L 376.9831 104.189755 
L 381.314325 104.189755 
L 381.314325 109.155148 
L 385.64555 109.155148 
L 385.64555 95.871062 
L 394.308 95.871062 
L 394.308 95.247426 
L 398.639225 95.247426 
L 398.639225 96.549883 
L 402.97045 96.549883 
L 402.97045 94.849875 
L 407.301675 94.849875 
L 407.301675 164.256642 
L 411.6329 164.256642 
L 411.6329 214.996248 
L 415.964125 214.996248 
L 415.964125 210.275246 
L 420.29535 210.275246 
L 420.29535 210.861437 
L 424.626575 210.861437 
L 424.626575 210.311925 
L 428.9578 210.311925 
L 428.9578 213.191704 
L 433.289025 213.191704 
L 433.289025 209.650817 
L 437.62025 209.650817 
L 437.62025 211.737997 
L 441.951475 211.737997 
L 441.951475 212.320561 
L 446.2827 212.320561 
L 446.2827 113.55692 
L 450.613925 113.55692 
L 450.613925 79.033654 
L 454.94515 79.033654 
L 454.94515 87.658932 
L 459.276375 87.658932 
L 459.276375 84.321059 
L 463.6076 84.321059 
L 463.6076 106.928598 
L 467.938825 106.928598 
L 467.938825 159.394799 
L 472.27005 159.394799 
L 472.27005 182.585254 
L 476.601275 182.585254 
L 476.601275 199.73717 
L 480.9325 199.73717 
L 480.9325 200.693766 
L 485.263725 200.693766 
L 485.263725 202.671377 
L 489.59495 202.671377 
L 489.59495 202.406108 
L 493.926175 202.406108 
L 493.926175 132.107448 
L 498.2574 132.107448 
L 498.2574 128.141084 
L 502.588625 128.141084 
L 502.588625 96.267232 
L 506.91985 96.267232 
L 506.91985 95.474356 
L 511.251075 95.474356 
L 511.251075 96.267232 
L 515.5823 96.267232 
L 515.5823 95.531061 
L 519.913525 95.531061 
L 519.913525 95.927691 
L 524.24475 95.927691 
L 524.24475 112.329118 
L 528.575975 112.329118 
L 528.575975 215.355491 
L 532.9072 215.355491 
L 532.9072 213.155471 
L 537.238425 213.155471 
L 537.238425 209.79789 
L 541.56965 209.79789 
L 541.56965 211.993046 
L 545.900875 211.993046 
L 545.900875 211.19053 
L 550.2321 211.19053 
L 550.2321 209.981603 
L 554.563325 209.981603 
L 554.563325 213.191704 
L 558.89455 213.191704 
L 558.89455 210.165172 
L 563.225775 210.165172 
L 563.225775 167.200476 
L 567.557 167.200476 
L 567.557 75.416 
L 571.888225 75.416 
L 571.888225 86.667334 
L 576.21945 86.667334 
L 576.21945 83.43643 
L 580.550675 83.43643 
L 580.550675 81.540443 
L 584.8819 81.540443 
L 584.8819 150.372144 
L 589.213125 150.372144 
L 589.213125 167.418823 
L 593.54435 167.418823 
L 593.54435 200.426302 
L 597.875575 200.426302 
L 597.875575 200.693766 
L 602.2068 200.693766 
L 602.2068 202.671377 
L 606.538025 202.671377 
L 606.538025 201.950676 
L 610.86925 201.950676 
L 610.86925 176.719857 
L 615.200475 176.719857 
L 615.200475 111.149725 
L 619.5317 111.149725 
L 619.5317 103.363008 
L 623.862925 103.363008 
L 623.862925 95.41764 
L 628.19415 95.41764 
L 628.19415 96.380325 
L 632.525375 96.380325 
L 632.525375 95.190666 
L 636.8566 95.190666 
L 636.8566 95.814423 
L 641.187825 95.814423 
L 641.187825 95.531061 
L 645.51905 95.531061 
L 645.51905 184.387813 
L 649.850275 184.387813 
L 649.850275 213.553728 
L 654.1815 213.553728 
L 654.1815 209.209048 
L 658.512725 209.209048 
L 658.512725 213.951309 
L 662.84395 213.951309 
L 662.84395 211.117438 
L 667.175175 211.117438 
L 667.175175 209.687594 
L 671.5064 209.687594 
L 671.5064 211.336646 
L 675.837625 211.336646 
L 675.837625 213.553728 
L 680.16885 213.553728 
L 680.16885 215.678337 
L 684.500075 215.678337 
L 684.500075 78.1934 
L 688.8313 78.1934 
L 688.8313 79.752013 
L 693.162525 79.752013 
L 693.162525 76.143 
L 697.49375 76.143 
L 697.49375 83.613565 
L 701.824975 83.613565 
L 701.824975 109.101047 
L 706.1562 109.101047 
L 706.1562 169.765225 
L 710.487425 169.765225 
L 710.487425 185.812401 
L 714.81865 185.812401 
L 714.81865 198.853738 
L 719.149875 198.853738 
L 719.149875 203.125443 
L 723.4811 203.125443 
L 723.4811 202.557726 
L 727.812325 202.557726 
L 727.812325 204.369701 
L 732.14355 204.369701 
L 732.14355 105.34324 
L 736.474775 105.34324 
L 736.474775 131.558577 
L 740.806 131.558577 
L 740.806 95.927691 
L 749.46845 95.927691 
L 749.46845 95.587756 
L 753.799675 95.587756 
L 753.799675 95.701111 
L 758.1309 95.701111 
L 758.1309 95.41764 
L 762.462125 95.41764 
L 762.462125 139.67828 
L 766.79335 139.67828 
L 766.79335 213.155471 
L 771.124575 213.155471 
L 771.124575 212.574978 
L 775.4558 212.574978 
L 775.4558 209.061607 
L 779.787025 209.061607 
L 779.787025 213.155471 
L 784.11825 213.155471 
L 784.11825 215.283686 
L 788.449475 215.283686 
L 788.449475 211.519163 
L 797.111925 211.40967 
L 797.111925 212.138665 
L 801.44315 212.138665 
L 801.44315 144.388479 
L 805.774375 144.388479 
L 805.774375 75.416 
L 810.1056 75.416 
L 810.1056 79.752013 
L 814.436825 79.752013 
L 814.436825 80.468662 
L 818.76805 80.468662 
L 818.76805 90.556343 
L 823.099275 90.556343 
L 823.099275 153.199084 
L 827.4305 153.199084 
L 827.4305 174.224451 
L 831.761725 174.224451 
L 831.761725 200.540965 
L 836.09295 200.540965 
L 836.09295 202.671377 
L 840.424175 202.671377 
L 840.424175 204.068657 
L 844.7554 204.068657 
L 844.7554 202.064615 
L 849.086625 202.064615 
L 849.086625 154.486653 
L 853.41785 154.486653 
L 853.41785 123.140548 
L 857.749075 123.140548 
L 857.749075 100.979831 
L 862.0803 100.979831 
L 862.0803 95.41764 
L 866.411525 95.41764 
L 866.411525 96.097511 
L 870.74275 96.097511 
L 870.74275 95.077113 
L 875.073975 95.077113 
L 875.073975 96.154095 
L 879.4052 96.154095 
L 879.4052 95.927691 
L 883.736425 95.927691 
L 883.736425 205.906618 
L 888.06765 205.906618 
L 888.06765 211.519163 
L 892.398875 211.519163 
L 892.398875 210.788243 
L 896.7301 210.788243 
L 896.7301 213.264154 
L 901.061325 213.264154 
L 901.061325 210.495238 
L 905.39255 210.495238 
L 905.39255 206.987746 
L 909.723775 206.987746 
L 909.723775 214.059623 
L 914.055 214.059623 
L 914.055 211.883773 
L 918.386225 211.883773 
L 918.386225 189.198358 
L 922.71745 189.198358 
L 922.71745 75.416 
L 927.048675 75.416 
L 927.048675 76.143 
L 935.711125 76.143 
L 935.711125 85.789643 
L 937 85.789643 
L 937 85.789643 
" clip-path="url(#p9409a8a2b3)" style="fill: none; stroke: #008000; stroke-width: 2; stroke-linecap: square"/>
   </g>
   <g id="line2d_17">
    <path d="M -1 281.804468 
L 0.166525 281.804468 
L 0.166525 204.604628 
L 17.491425 204.604628 
L 17.491425 190.784584 
L 21.82265 190.784584 
L 21.82265 259.175617 
L 26.153875 259.175617 
L 26.153875 106.765 
L 52.141225 106.765 
L 52.141225 255.684161 
L 56.47245 255.684161 
L 56.47245 216.956355 
L 91.12225 216.956355 
L 91.12225 165.42501 
L 108.44715 165.42501 
L 108.44715 258.067552 
L 112.778375 258.067552 
L 112.778375 234.082332 
L 117.1096 234.082332 
L 117.1096 282.496293 
L 121.440825 282.496293 
L 121.440825 204.604628 
L 138.765725 204.604628 
L 138.765725 165.42501 
L 143.09695 165.42501 
L 143.09695 154.475185 
L 147.428175 154.475185 
L 147.428175 106.765 
L 169.0843 106.765 
L 169.0843 250.260698 
L 173.415525 250.260698 
L 173.415525 216.956355 
L 208.065325 216.956355 
L 208.065325 165.42501 
L 225.390225 165.42501 
L 225.390225 183.774768 
L 229.72145 183.774768 
L 229.72145 252.628982 
L 234.052675 252.628982 
L 234.052675 282.496293 
L 238.3839 282.496293 
L 238.3839 204.604628 
L 255.7088 204.604628 
L 255.7088 190.784584 
L 260.040025 190.784584 
L 260.040025 259.175617 
L 264.37125 259.175617 
L 264.37125 106.765 
L 290.3586 106.765 
L 290.3586 216.956355 
L 325.0084 216.956355 
L 325.0084 247.904974 
L 329.339625 247.904974 
L 329.339625 165.42501 
L 346.664525 165.42501 
L 346.664525 258.067552 
L 350.99575 258.067552 
L 350.99575 281.804468 
L 355.326975 281.804468 
L 355.326975 204.604628 
L 376.9831 204.604628 
L 376.9831 165.42501 
L 381.314325 165.42501 
L 381.314325 154.475185 
L 385.64555 154.475185 
L 385.64555 106.765 
L 407.301675 106.765 
L 407.301675 250.260698 
L 411.6329 250.260698 
L 411.6329 216.956355 
L 446.2827 216.956355 
L 446.2827 165.42501 
L 463.6076 165.42501 
L 463.6076 183.774768 
L 467.938825 183.774768 
L 467.938825 234.082332 
L 472.27005 234.082332 
L 472.27005 282.496293 
L 476.601275 282.496293 
L 476.601275 204.604628 
L 493.926175 204.604628 
L 493.926175 165.42501 
L 498.2574 165.42501 
L 498.2574 238.219256 
L 502.588625 238.219256 
L 502.588625 106.765 
L 528.575975 106.765 
L 528.575975 216.956355 
L 563.225775 216.956355 
L 563.225775 247.904974 
L 567.557 247.904974 
L 567.557 165.42501 
L 584.8819 165.42501 
L 584.8819 252.628982 
L 589.213125 252.628982 
L 589.213125 281.804468 
L 593.54435 281.804468 
L 593.54435 204.604628 
L 610.86925 204.604628 
L 610.86925 190.784584 
L 615.200475 190.784584 
L 615.200475 259.175617 
L 619.5317 259.175617 
L 619.5317 106.765 
L 645.51905 106.765 
L 645.51905 255.684161 
L 649.850275 255.684161 
L 649.850275 216.956355 
L 684.500075 216.956355 
L 684.500075 165.42501 
L 701.824975 165.42501 
L 701.824975 258.067552 
L 706.1562 258.067552 
L 706.1562 234.082332 
L 710.487425 234.082332 
L 710.487425 282.496293 
L 714.81865 282.496293 
L 714.81865 204.604628 
L 732.14355 204.604628 
L 732.14355 165.42501 
L 736.474775 165.42501 
L 736.474775 154.475185 
L 740.806 154.475185 
L 740.806 106.765 
L 762.462125 106.765 
L 762.462125 250.260698 
L 766.79335 250.260698 
L 766.79335 216.956355 
L 801.44315 216.956355 
L 801.44315 165.42501 
L 818.76805 165.42501 
L 818.76805 183.774768 
L 823.099275 183.774768 
L 823.099275 252.628982 
L 827.4305 252.628982 
L 827.4305 282.496293 
L 831.761725 282.496293 
L 831.761725 204.604628 
L 849.086625 204.604628 
L 849.086625 190.784584 
L 853.41785 190.784584 
L 853.41785 259.175617 
L 857.749075 259.175617 
L 857.749075 106.765 
L 883.736425 106.765 
L 883.736425 216.956355 
L 918.386225 216.956355 
L 918.386225 247.904974 
L 922.71745 247.904974 
L 922.71745 165.42501 
L 937 165.42501 
L 937 165.42501 
" clip-path="url(#p9409a8a2b3)" style="fill: none; stroke-dasharray: 1.5,2.475; stroke-dashoffset: 0; stroke: #0000ff; stroke-width: 1.5"/>
   </g>
   <g id="line2d_18">
    <path d="M -1 171.134859 
L 0.166525 171.134859 
L 0.166525 201.484862 
L 17.491425 201.484862 
L 17.491425 199.190208 
L 21.82265 199.190208 
L 21.82265 192.716069 
L 26.153875 192.716069 
L 26.153875 96.634625 
L 52.141225 96.634625 
L 52.141225 212.820049 
L 56.47245 212.820049 
L 56.47245 213.408986 
L 91.12225 213.408986 
L 91.12225 185.202863 
L 108.44715 185.202863 
L 108.44715 167.56065 
L 112.778375 167.56065 
L 112.778375 180.375835 
L 117.1096 180.375835 
L 117.1096 188.887899 
L 121.440825 188.887899 
L 121.440825 201.484862 
L 138.765725 201.484862 
L 138.765725 185.202863 
L 143.09695 185.202863 
L 143.09695 111.163154 
L 147.428175 111.163154 
L 147.428175 96.634625 
L 169.0843 96.634625 
L 169.0843 190.486078 
L 173.415525 190.486078 
L 173.415525 213.408986 
L 208.065325 213.408986 
L 208.065325 185.202863 
L 225.390225 185.202863 
L 225.390225 99.165527 
L 229.72145 99.165527 
L 229.72145 176.140495 
L 234.052675 176.140495 
L 234.052675 188.887899 
L 238.3839 188.887899 
L 238.3839 201.484862 
L 255.7088 201.484862 
L 255.7088 199.190208 
L 260.040025 199.190208 
L 260.040025 192.716069 
L 264.37125 192.716069 
L 264.37125 96.634625 
L 290.3586 96.634625 
L 290.3586 213.408986 
L 325.0084 213.408986 
L 325.0084 207.127189 
L 329.339625 207.127189 
L 329.339625 185.202863 
L 346.664525 185.202863 
L 346.664525 167.56065 
L 350.99575 167.56065 
L 350.99575 171.134859 
L 355.326975 171.134859 
L 355.326975 201.484862 
L 376.9831 201.484862 
L 376.9831 185.202863 
L 381.314325 185.202863 
L 381.314325 111.163154 
L 385.64555 111.163154 
L 385.64555 96.634625 
L 407.301675 96.634625 
L 407.301675 190.486078 
L 411.6329 190.486078 
L 411.6329 213.408986 
L 446.2827 213.408986 
L 446.2827 185.202863 
L 463.6076 185.202863 
L 463.6076 99.165527 
L 467.938825 99.165527 
L 467.938825 180.375835 
L 472.27005 180.375835 
L 472.27005 188.887899 
L 476.601275 188.887899 
L 476.601275 201.484862 
L 493.926175 201.484862 
L 493.926175 185.202863 
L 498.2574 185.202863 
L 498.2574 147.326375 
L 502.588625 147.326375 
L 502.588625 96.634625 
L 528.575975 96.634625 
L 528.575975 213.408986 
L 563.225775 213.408986 
L 563.225775 207.127189 
L 567.557 207.127189 
L 567.557 185.202863 
L 584.8819 185.202863 
L 584.8819 176.140495 
L 589.213125 176.140495 
L 589.213125 171.134859 
L 593.54435 171.134859 
L 593.54435 201.484862 
L 610.86925 201.484862 
L 610.86925 199.190208 
L 615.200475 199.190208 
L 615.200475 192.716069 
L 619.5317 192.716069 
L 619.5317 96.634625 
L 645.51905 96.634625 
L 645.51905 212.820049 
L 649.850275 212.820049 
L 649.850275 213.408986 
L 684.500075 213.408986 
L 684.500075 185.202863 
L 701.824975 185.202863 
L 701.824975 167.56065 
L 706.1562 167.56065 
L 706.1562 180.375835 
L 710.487425 180.375835 
L 710.487425 188.887899 
L 714.81865 188.887899 
L 714.81865 201.484862 
L 732.14355 201.484862 
L 732.14355 185.202863 
L 736.474775 185.202863 
L 736.474775 111.163154 
L 740.806 111.163154 
L 740.806 96.634625 
L 762.462125 96.634625 
L 762.462125 190.486078 
L 766.79335 190.486078 
L 766.79335 213.408986 
L 801.44315 213.408986 
L 801.44315 185.202863 
L 818.76805 185.202863 
L 818.76805 99.165527 
L 823.099275 99.165527 
L 823.099275 176.140495 
L 827.4305 176.140495 
L 827.4305 188.887899 
L 831.761725 188.887899 
L 831.761725 201.484862 
L 849.086625 201.484862 
L 849.086625 199.190208 
L 853.41785 199.190208 
L 853.41785 192.716069 
L 857.749075 192.716069 
L 857.749075 96.634625 
L 883.736425 96.634625 
L 883.736425 213.408986 
L 918.386225 213.408986 
L 918.386225 207.127189 
L 922.71745 207.127189 
L 922.71745 185.202863 
L 937 185.202863 
L 937 185.202863 
" clip-path="url(#p9409a8a2b3)" style="fill: none; stroke: #0000ff; stroke-width: 2; stroke-linecap: square"/>
   </g>
   <g id="patch_3">
    <path d="M 47.81 318.04 
L 47.81 14.76 
" style="fill: none; stroke: #000000; stroke-width: 0.8; stroke-linejoin: miter; stroke-linecap: square"/>
   </g>
   <g id="patch_4">
    <path d="M 914.055 318.04 
L 914.055 14.76 
" style="fill: none; stroke: #000000; stroke-width: 0.8; stroke-linejoin: miter; stroke-linecap: square"/>
   </g>
   <g id="patch_5">
    <path d="M 47.81 318.04 
L 914.055 318.04 
" style="fill: none; stroke: #000000; stroke-width: 0.8; stroke-linejoin: miter; stroke-linecap: square"/>
   </g>
   <g id="patch_6">
    <path d="M 47.81 14.76 
L 914.055 14.76 
" style="fill: none; stroke: #000000; stroke-width: 0.8; stroke-linejoin: miter; stroke-linecap: square"/>
   </g>
   <g id="legend_1">
    <g id="patch_7">
     <path d="M 683.234688 66.794375 
L 907.055 66.794375 
Q 909.055 66.794375 909.055 64.794375 
L 909.055 21.76 
Q 909.055 19.76 907.055 19.76 
L 683.234688 19.76 
Q 681.234688 19.76 681.234688 21.76 
L 681.234688 64.794375 
Q 681.234688 66.794375 683.234688 66.794375 
z
" style="fill: #ffffff; opacity: 0.8; stroke: #cccccc; stroke-linejoin: miter"/>
    </g>
    <g id="line2d_19">
     <path d="M 685.234688 27.858437 
L 685.234688 27.858437 
L 695.234688 27.858437 
L 695.234688 27.858437 
L 705.234688 27.858437 
" style="fill: none; stroke: #008000; stroke-width: 2; stroke-linecap: square"/>
    </g>
    <g id="text_19">
     <!-- True IPC (Full RTL Simulation) -->
     <g transform="translate(713.234688 31.358437) scale(0.1 -0.1)">
      <defs>
       <path id="DejaVuSans-46" d="M 628 4666 
L 3309 4666 
L 3309 4134 
L 1259 4134 
L 1259 2759 
L 3109 2759 
L 3109 2228 
L 1259 2228 
L 1259 0 
L 628 0 
L 628 4666 
z
" transform="scale(0.015625)"/>
       <path id="DejaVuSans-6c" d="M 603 4863 
L 1178 4863 
L 1178 0 
L 603 0 
L 603 4863 
z
" transform="scale(0.015625)"/>
       <path id="DejaVuSans-52" d="M 2841 2188 
Q 3044 2119 3236 1894 
Q 3428 1669 3622 1275 
L 4263 0 
L 3584 0 
L 2988 1197 
Q 2756 1666 2539 1819 
Q 2322 1972 1947 1972 
L 1259 1972 
L 1259 0 
L 628 0 
L 628 4666 
L 2053 4666 
Q 2853 4666 3247 4331 
Q 3641 3997 3641 3322 
Q 3641 2881 3436 2590 
Q 3231 2300 2841 2188 
z
M 1259 4147 
L 1259 2491 
L 2053 2491 
Q 2509 2491 2742 2702 
Q 2975 2913 2975 3322 
Q 2975 3731 2742 3939 
Q 2509 4147 2053 4147 
L 1259 4147 
z
" transform="scale(0.015625)"/>
       <path id="DejaVuSans-4c" d="M 628 4666 
L 1259 4666 
L 1259 531 
L 3531 531 
L 3531 0 
L 628 0 
L 628 4666 
z
" transform="scale(0.015625)"/>
       <path id="DejaVuSans-53" d="M 3425 4513 
L 3425 3897 
Q 3066 4069 2747 4153 
Q 2428 4238 2131 4238 
Q 1616 4238 1336 4038 
Q 1056 3838 1056 3469 
Q 1056 3159 1242 3001 
Q 1428 2844 1947 2747 
L 2328 2669 
Q 3034 2534 3370 2195 
Q 3706 1856 3706 1288 
Q 3706 609 3251 259 
Q 2797 -91 1919 -91 
Q 1588 -91 1214 -16 
Q 841 59 441 206 
L 441 856 
Q 825 641 1194 531 
Q 1563 422 1919 422 
Q 2459 422 2753 634 
Q 3047 847 3047 1241 
Q 3047 1584 2836 1778 
Q 2625 1972 2144 2069 
L 1759 2144 
Q 1053 2284 737 2584 
Q 422 2884 422 3419 
Q 422 4038 858 4394 
Q 1294 4750 2059 4750 
Q 2388 4750 2728 4690 
Q 3069 4631 3425 4513 
z
" transform="scale(0.015625)"/>
       <path id="DejaVuSans-61" d="M 2194 1759 
Q 1497 1759 1228 1600 
Q 959 1441 959 1056 
Q 959 750 1161 570 
Q 1363 391 1709 391 
Q 2188 391 2477 730 
Q 2766 1069 2766 1631 
L 2766 1759 
L 2194 1759 
z
M 3341 1997 
L 3341 0 
L 2766 0 
L 2766 531 
Q 2569 213 2275 61 
Q 1981 -91 1556 -91 
Q 1019 -91 701 211 
Q 384 513 384 1019 
Q 384 1609 779 1909 
Q 1175 2209 1959 2209 
L 2766 2209 
L 2766 2266 
Q 2766 2663 2505 2880 
Q 2244 3097 1772 3097 
Q 1472 3097 1187 3025 
Q 903 2953 641 2809 
L 641 3341 
Q 956 3463 1253 3523 
Q 1550 3584 1831 3584 
Q 2591 3584 2966 3190 
Q 3341 2797 3341 1997 
z
" transform="scale(0.015625)"/>
      </defs>
      <use xlink:href="#DejaVuSans-54"/>
      <use xlink:href="#DejaVuSans-72" x="46.333984"/>
      <use xlink:href="#DejaVuSans-75" x="87.447266"/>
      <use xlink:href="#DejaVuSans-65" x="150.826172"/>
      <use xlink:href="#DejaVuSans-20" x="212.349609"/>
      <use xlink:href="#DejaVuSans-49" x="244.136719"/>
      <use xlink:href="#DejaVuSans-50" x="273.628906"/>
      <use xlink:href="#DejaVuSans-43" x="333.931641"/>
      <use xlink:href="#DejaVuSans-20" x="403.755859"/>
      <use xlink:href="#DejaVuSans-28" x="435.542969"/>
      <use xlink:href="#DejaVuSans-46" x="474.556641"/>
      <use xlink:href="#DejaVuSans-75" x="526.576172"/>
      <use xlink:href="#DejaVuSans-6c" x="589.955078"/>
      <use xlink:href="#DejaVuSans-6c" x="617.738281"/>
      <use xlink:href="#DejaVuSans-20" x="645.521484"/>
      <use xlink:href="#DejaVuSans-52" x="677.308594"/>
      <use xlink:href="#DejaVuSans-54" x="739.541016"/>
      <use xlink:href="#DejaVuSans-4c" x="800.625"/>
      <use xlink:href="#DejaVuSans-20" x="856.337891"/>
      <use xlink:href="#DejaVuSans-53" x="888.125"/>
      <use xlink:href="#DejaVuSans-69" x="951.601562"/>
      <use xlink:href="#DejaVuSans-6d" x="979.384766"/>
      <use xlink:href="#DejaVuSans-75" x="1076.796875"/>
      <use xlink:href="#DejaVuSans-6c" x="1140.175781"/>
      <use xlink:href="#DejaVuSans-61" x="1167.958984"/>
      <use xlink:href="#DejaVuSans-74" x="1229.238281"/>
      <use xlink:href="#DejaVuSans-69" x="1268.447266"/>
      <use xlink:href="#DejaVuSans-6f" x="1296.230469"/>
      <use xlink:href="#DejaVuSans-6e" x="1357.412109"/>
      <use xlink:href="#DejaVuSans-29" x="1420.791016"/>
     </g>
    </g>
    <g id="line2d_20">
     <path d="M 685.234688 42.536562 
L 685.234688 42.536562 
L 695.234688 42.536562 
L 695.234688 42.536562 
L 705.234688 42.536562 
" style="fill: none; stroke-dasharray: 1.5,2.475; stroke-dashoffset: 0; stroke: #0000ff; stroke-width: 1.5"/>
    </g>
    <g id="text_20">
     <!-- Estimated IPC (TidalSim, no warmup) -->
     <g transform="translate(713.234688 46.036562) scale(0.1 -0.1)">
      <defs>
       <path id="DejaVuSans-45" d="M 628 4666 
L 3578 4666 
L 3578 4134 
L 1259 4134 
L 1259 2753 
L 3481 2753 
L 3481 2222 
L 1259 2222 
L 1259 531 
L 3634 531 
L 3634 0 
L 628 0 
L 628 4666 
z
" transform="scale(0.015625)"/>
       <path id="DejaVuSans-64" d="M 2906 2969 
L 2906 4863 
L 3481 4863 
L 3481 0 
L 2906 0 
L 2906 525 
Q 2725 213 2448 61 
Q 2172 -91 1784 -91 
Q 1150 -91 751 415 
Q 353 922 353 1747 
Q 353 2572 751 3078 
Q 1150 3584 1784 3584 
Q 2172 3584 2448 3432 
Q 2725 3281 2906 2969 
z
M 947 1747 
Q 947 1113 1208 752 
Q 1469 391 1925 391 
Q 2381 391 2643 752 
Q 2906 1113 2906 1747 
Q 2906 2381 2643 2742 
Q 2381 3103 1925 3103 
Q 1469 3103 1208 2742 
Q 947 2381 947 1747 
z
" transform="scale(0.015625)"/>
       <path id="DejaVuSans-2c" d="M 750 794 
L 1409 794 
L 1409 256 
L 897 -744 
L 494 -744 
L 750 256 
L 750 794 
z
" transform="scale(0.015625)"/>
       <path id="DejaVuSans-77" d="M 269 3500 
L 844 3500 
L 1563 769 
L 2278 3500 
L 2956 3500 
L 3675 769 
L 4391 3500 
L 4966 3500 
L 4050 0 
L 3372 0 
L 2619 2869 
L 1863 0 
L 1184 0 
L 269 3500 
z
" transform="scale(0.015625)"/>
       <path id="DejaVuSans-70" d="M 1159 525 
L 1159 -1331 
L 581 -1331 
L 581 3500 
L 1159 3500 
L 1159 2969 
Q 1341 3281 1617 3432 
Q 1894 3584 2278 3584 
Q 2916 3584 3314 3078 
Q 3713 2572 3713 1747 
Q 3713 922 3314 415 
Q 2916 -91 2278 -91 
Q 1894 -91 1617 61 
Q 1341 213 1159 525 
z
M 3116 1747 
Q 3116 2381 2855 2742 
Q 2594 3103 2138 3103 
Q 1681 3103 1420 2742 
Q 1159 2381 1159 1747 
Q 1159 1113 1420 752 
Q 1681 391 2138 391 
Q 2594 391 2855 752 
Q 3116 1113 3116 1747 
z
" transform="scale(0.015625)"/>
      </defs>
      <use xlink:href="#DejaVuSans-45"/>
      <use xlink:href="#DejaVuSans-73" x="63.183594"/>
      <use xlink:href="#DejaVuSans-74" x="115.283203"/>
      <use xlink:href="#DejaVuSans-69" x="154.492188"/>
      <use xlink:href="#DejaVuSans-6d" x="182.275391"/>
      <use xlink:href="#DejaVuSans-61" x="279.6875"/>
      <use xlink:href="#DejaVuSans-74" x="340.966797"/>
      <use xlink:href="#DejaVuSans-65" x="380.175781"/>
      <use xlink:href="#DejaVuSans-64" x="441.699219"/>
      <use xlink:href="#DejaVuSans-20" x="505.175781"/>
      <use xlink:href="#DejaVuSans-49" x="536.962891"/>
      <use xlink:href="#DejaVuSans-50" x="566.455078"/>
      <use xlink:href="#DejaVuSans-43" x="626.757812"/>
      <use xlink:href="#DejaVuSans-20" x="696.582031"/>
      <use xlink:href="#DejaVuSans-28" x="728.369141"/>
      <use xlink:href="#DejaVuSans-54" x="767.382812"/>
      <use xlink:href="#DejaVuSans-69" x="825.341797"/>
      <use xlink:href="#DejaVuSans-64" x="853.125"/>
      <use xlink:href="#DejaVuSans-61" x="916.601562"/>
      <use xlink:href="#DejaVuSans-6c" x="977.880859"/>
      <use xlink:href="#DejaVuSans-53" x="1005.664062"/>
      <use xlink:href="#DejaVuSans-69" x="1069.140625"/>
      <use xlink:href="#DejaVuSans-6d" x="1096.923828"/>
      <use xlink:href="#DejaVuSans-2c" x="1194.335938"/>
      <use xlink:href="#DejaVuSans-20" x="1226.123047"/>
      <use xlink:href="#DejaVuSans-6e" x="1257.910156"/>
      <use xlink:href="#DejaVuSans-6f" x="1321.289062"/>
      <use xlink:href="#DejaVuSans-20" x="1382.470703"/>
      <use xlink:href="#DejaVuSans-77" x="1414.257812"/>
      <use xlink:href="#DejaVuSans-61" x="1496.044922"/>
      <use xlink:href="#DejaVuSans-72" x="1557.324219"/>
      <use xlink:href="#DejaVuSans-6d" x="1596.6875"/>
      <use xlink:href="#DejaVuSans-75" x="1694.099609"/>
      <use xlink:href="#DejaVuSans-70" x="1757.478516"/>
      <use xlink:href="#DejaVuSans-29" x="1820.955078"/>
     </g>
    </g>
    <g id="line2d_21">
     <path d="M 685.234688 57.214687 
L 685.234688 57.214687 
L 695.234688 57.214687 
L 695.234688 57.214687 
L 705.234688 57.214687 
" style="fill: none; stroke: #0000ff; stroke-width: 2; stroke-linecap: square"/>
    </g>
    <g id="text_21">
     <!-- Estimated IPC (TidalSim, L1d warmup) -->
     <g transform="translate(713.234688 60.714687) scale(0.1 -0.1)">
      <use xlink:href="#DejaVuSans-45"/>
      <use xlink:href="#DejaVuSans-73" x="63.183594"/>
      <use xlink:href="#DejaVuSans-74" x="115.283203"/>
      <use xlink:href="#DejaVuSans-69" x="154.492188"/>
      <use xlink:href="#DejaVuSans-6d" x="182.275391"/>
      <use xlink:href="#DejaVuSans-61" x="279.6875"/>
      <use xlink:href="#DejaVuSans-74" x="340.966797"/>
      <use xlink:href="#DejaVuSans-65" x="380.175781"/>
      <use xlink:href="#DejaVuSans-64" x="441.699219"/>
      <use xlink:href="#DejaVuSans-20" x="505.175781"/>
      <use xlink:href="#DejaVuSans-49" x="536.962891"/>
      <use xlink:href="#DejaVuSans-50" x="566.455078"/>
      <use xlink:href="#DejaVuSans-43" x="626.757812"/>
      <use xlink:href="#DejaVuSans-20" x="696.582031"/>
      <use xlink:href="#DejaVuSans-28" x="728.369141"/>
      <use xlink:href="#DejaVuSans-54" x="767.382812"/>
      <use xlink:href="#DejaVuSans-69" x="825.341797"/>
      <use xlink:href="#DejaVuSans-64" x="853.125"/>
      <use xlink:href="#DejaVuSans-61" x="916.601562"/>
      <use xlink:href="#DejaVuSans-6c" x="977.880859"/>
      <use xlink:href="#DejaVuSans-53" x="1005.664062"/>
      <use xlink:href="#DejaVuSans-69" x="1069.140625"/>
      <use xlink:href="#DejaVuSans-6d" x="1096.923828"/>
      <use xlink:href="#DejaVuSans-2c" x="1194.335938"/>
      <use xlink:href="#DejaVuSans-20" x="1226.123047"/>
      <use xlink:href="#DejaVuSans-4c" x="1257.910156"/>
      <use xlink:href="#DejaVuSans-31" x="1313.623047"/>
      <use xlink:href="#DejaVuSans-64" x="1377.246094"/>
      <use xlink:href="#DejaVuSans-20" x="1440.722656"/>
      <use xlink:href="#DejaVuSans-77" x="1472.509766"/>
      <use xlink:href="#DejaVuSans-61" x="1554.296875"/>
      <use xlink:href="#DejaVuSans-72" x="1615.576172"/>
      <use xlink:href="#DejaVuSans-6d" x="1654.939453"/>
      <use xlink:href="#DejaVuSans-75" x="1752.351562"/>
      <use xlink:href="#DejaVuSans-70" x="1815.730469"/>
      <use xlink:href="#DejaVuSans-29" x="1879.207031"/>
     </g>
    </g>
   </g>
  </g>
 </g>
 <defs>
  <clipPath id="p9409a8a2b3">
   <rect x="47.81" y="14.76" width="866.245" height="303.28"/>
  </clipPath>
 </defs>
</svg>
