<?xml version="1.0" encoding="utf-8" standalone="no"?>
<!DOCTYPE svg PUBLIC "-//W3C//DTD SVG 1.1//EN"
  "http://www.w3.org/Graphics/SVG/1.1/DTD/svg11.dtd">
<svg xmlns:xlink="http://www.w3.org/1999/xlink" width="936pt" height="360pt" viewBox="0 0 936 360" xmlns="http://www.w3.org/2000/svg" version="1.1">
 <metadata>
  <rdf:RDF xmlns:dc="http://purl.org/dc/elements/1.1/" xmlns:cc="http://creativecommons.org/ns#" xmlns:rdf="http://www.w3.org/1999/02/22-rdf-syntax-ns#">
   <cc:Work>
    <dc:type rdf:resource="http://purl.org/dc/dcmitype/StillImage"/>
    <dc:date>2024-05-19T16:52:58.983566</dc:date>
    <dc:format>image/svg+xml</dc:format>
    <dc:creator>
     <cc:Agent>
      <dc:title>Matplotlib v3.8.3, https://matplotlib.org/</dc:title>
     </cc:Agent>
    </dc:creator>
   </cc:Work>
  </rdf:RDF>
 </metadata>
 <defs>
  <style type="text/css">*{stroke-linejoin: round; stroke-linecap: butt}</style>
 </defs>
 <g id="figure_1">
  <g id="patch_1">
   <path d="M 0 360 
L 936 360 
L 936 0 
L 0 0 
z
" style="fill: #ffffff"/>
  </g>
  <g id="axes_1">
   <g id="patch_2">
    <path d="M 47.81 318.04 
L 917.235 318.04 
L 917.235 14.76 
L 47.81 14.76 
z
" style="fill: #ffffff"/>
   </g>
   <g id="matplotlib.axis_1">
    <g id="xtick_1">
     <g id="line2d_1">
      <defs>
       <path id="m07c7e538df" d="M 0 0 
L 0 3.5 
" style="stroke: #000000; stroke-width: 0.8"/>
      </defs>
      <g>
       <use xlink:href="#m07c7e538df" x="98.952647" y="318.04" style="stroke: #000000; stroke-width: 0.8"/>
      </g>
     </g>
     <g id="text_1">
      <!-- 0.2 -->
      <g transform="translate(91.001085 332.638438) scale(0.1 -0.1)">
       <defs>
        <path id="DejaVuSans-30" d="M 2034 4250 
Q 1547 4250 1301 3770 
Q 1056 3291 1056 2328 
Q 1056 1369 1301 889 
Q 1547 409 2034 409 
Q 2525 409 2770 889 
Q 3016 1369 3016 2328 
Q 3016 3291 2770 3770 
Q 2525 4250 2034 4250 
z
M 2034 4750 
Q 2819 4750 3233 4129 
Q 3647 3509 3647 2328 
Q 3647 1150 3233 529 
Q 2819 -91 2034 -91 
Q 1250 -91 836 529 
Q 422 1150 422 2328 
Q 422 3509 836 4129 
Q 1250 4750 2034 4750 
z
" transform="scale(0.015625)"/>
        <path id="DejaVuSans-2e" d="M 684 794 
L 1344 794 
L 1344 0 
L 684 0 
L 684 794 
z
" transform="scale(0.015625)"/>
        <path id="DejaVuSans-32" d="M 1228 531 
L 3431 531 
L 3431 0 
L 469 0 
L 469 531 
Q 828 903 1448 1529 
Q 2069 2156 2228 2338 
Q 2531 2678 2651 2914 
Q 2772 3150 2772 3378 
Q 2772 3750 2511 3984 
Q 2250 4219 1831 4219 
Q 1534 4219 1204 4116 
Q 875 4013 500 3803 
L 500 4441 
Q 881 4594 1212 4672 
Q 1544 4750 1819 4750 
Q 2544 4750 2975 4387 
Q 3406 4025 3406 3419 
Q 3406 3131 3298 2873 
Q 3191 2616 2906 2266 
Q 2828 2175 2409 1742 
Q 1991 1309 1228 531 
z
" transform="scale(0.015625)"/>
       </defs>
       <use xlink:href="#DejaVuSans-30"/>
       <use xlink:href="#DejaVuSans-2e" x="63.623047"/>
       <use xlink:href="#DejaVuSans-32" x="95.410156"/>
      </g>
     </g>
    </g>
    <g id="xtick_2">
     <g id="line2d_2">
      <g>
       <use xlink:href="#m07c7e538df" x="201.237941" y="318.04" style="stroke: #000000; stroke-width: 0.8"/>
      </g>
     </g>
     <g id="text_2">
      <!-- 0.4 -->
      <g transform="translate(193.286379 332.638438) scale(0.1 -0.1)">
       <defs>
        <path id="DejaVuSans-34" d="M 2419 4116 
L 825 1625 
L 2419 1625 
L 2419 4116 
z
M 2253 4666 
L 3047 4666 
L 3047 1625 
L 3713 1625 
L 3713 1100 
L 3047 1100 
L 3047 0 
L 2419 0 
L 2419 1100 
L 313 1100 
L 313 1709 
L 2253 4666 
z
" transform="scale(0.015625)"/>
       </defs>
       <use xlink:href="#DejaVuSans-30"/>
       <use xlink:href="#DejaVuSans-2e" x="63.623047"/>
       <use xlink:href="#DejaVuSans-34" x="95.410156"/>
      </g>
     </g>
    </g>
    <g id="xtick_3">
     <g id="line2d_3">
      <g>
       <use xlink:href="#m07c7e538df" x="303.523235" y="318.04" style="stroke: #000000; stroke-width: 0.8"/>
      </g>
     </g>
     <g id="text_3">
      <!-- 0.6 -->
      <g transform="translate(295.571673 332.638438) scale(0.1 -0.1)">
       <defs>
        <path id="DejaVuSans-36" d="M 2113 2584 
Q 1688 2584 1439 2293 
Q 1191 2003 1191 1497 
Q 1191 994 1439 701 
Q 1688 409 2113 409 
Q 2538 409 2786 701 
Q 3034 994 3034 1497 
Q 3034 2003 2786 2293 
Q 2538 2584 2113 2584 
z
M 3366 4563 
L 3366 3988 
Q 3128 4100 2886 4159 
Q 2644 4219 2406 4219 
Q 1781 4219 1451 3797 
Q 1122 3375 1075 2522 
Q 1259 2794 1537 2939 
Q 1816 3084 2150 3084 
Q 2853 3084 3261 2657 
Q 3669 2231 3669 1497 
Q 3669 778 3244 343 
Q 2819 -91 2113 -91 
Q 1303 -91 875 529 
Q 447 1150 447 2328 
Q 447 3434 972 4092 
Q 1497 4750 2381 4750 
Q 2619 4750 2861 4703 
Q 3103 4656 3366 4563 
z
" transform="scale(0.015625)"/>
       </defs>
       <use xlink:href="#DejaVuSans-30"/>
       <use xlink:href="#DejaVuSans-2e" x="63.623047"/>
       <use xlink:href="#DejaVuSans-36" x="95.410156"/>
      </g>
     </g>
    </g>
    <g id="xtick_4">
     <g id="line2d_4">
      <g>
       <use xlink:href="#m07c7e538df" x="405.808529" y="318.04" style="stroke: #000000; stroke-width: 0.8"/>
      </g>
     </g>
     <g id="text_4">
      <!-- 0.8 -->
      <g transform="translate(397.856967 332.638438) scale(0.1 -0.1)">
       <defs>
        <path id="DejaVuSans-38" d="M 2034 2216 
Q 1584 2216 1326 1975 
Q 1069 1734 1069 1313 
Q 1069 891 1326 650 
Q 1584 409 2034 409 
Q 2484 409 2743 651 
Q 3003 894 3003 1313 
Q 3003 1734 2745 1975 
Q 2488 2216 2034 2216 
z
M 1403 2484 
Q 997 2584 770 2862 
Q 544 3141 544 3541 
Q 544 4100 942 4425 
Q 1341 4750 2034 4750 
Q 2731 4750 3128 4425 
Q 3525 4100 3525 3541 
Q 3525 3141 3298 2862 
Q 3072 2584 2669 2484 
Q 3125 2378 3379 2068 
Q 3634 1759 3634 1313 
Q 3634 634 3220 271 
Q 2806 -91 2034 -91 
Q 1263 -91 848 271 
Q 434 634 434 1313 
Q 434 1759 690 2068 
Q 947 2378 1403 2484 
z
M 1172 3481 
Q 1172 3119 1398 2916 
Q 1625 2713 2034 2713 
Q 2441 2713 2670 2916 
Q 2900 3119 2900 3481 
Q 2900 3844 2670 4047 
Q 2441 4250 2034 4250 
Q 1625 4250 1398 4047 
Q 1172 3844 1172 3481 
z
" transform="scale(0.015625)"/>
       </defs>
       <use xlink:href="#DejaVuSans-30"/>
       <use xlink:href="#DejaVuSans-2e" x="63.623047"/>
       <use xlink:href="#DejaVuSans-38" x="95.410156"/>
      </g>
     </g>
    </g>
    <g id="xtick_5">
     <g id="line2d_5">
      <g>
       <use xlink:href="#m07c7e538df" x="508.093824" y="318.04" style="stroke: #000000; stroke-width: 0.8"/>
      </g>
     </g>
     <g id="text_5">
      <!-- 1.0 -->
      <g transform="translate(500.142261 332.638438) scale(0.1 -0.1)">
       <defs>
        <path id="DejaVuSans-31" d="M 794 531 
L 1825 531 
L 1825 4091 
L 703 3866 
L 703 4441 
L 1819 4666 
L 2450 4666 
L 2450 531 
L 3481 531 
L 3481 0 
L 794 0 
L 794 531 
z
" transform="scale(0.015625)"/>
       </defs>
       <use xlink:href="#DejaVuSans-31"/>
       <use xlink:href="#DejaVuSans-2e" x="63.623047"/>
       <use xlink:href="#DejaVuSans-30" x="95.410156"/>
      </g>
     </g>
    </g>
    <g id="xtick_6">
     <g id="line2d_6">
      <g>
       <use xlink:href="#m07c7e538df" x="610.379118" y="318.04" style="stroke: #000000; stroke-width: 0.8"/>
      </g>
     </g>
     <g id="text_6">
      <!-- 1.2 -->
      <g transform="translate(602.427555 332.638438) scale(0.1 -0.1)">
       <use xlink:href="#DejaVuSans-31"/>
       <use xlink:href="#DejaVuSans-2e" x="63.623047"/>
       <use xlink:href="#DejaVuSans-32" x="95.410156"/>
      </g>
     </g>
    </g>
    <g id="xtick_7">
     <g id="line2d_7">
      <g>
       <use xlink:href="#m07c7e538df" x="712.664412" y="318.04" style="stroke: #000000; stroke-width: 0.8"/>
      </g>
     </g>
     <g id="text_7">
      <!-- 1.4 -->
      <g transform="translate(704.712849 332.638438) scale(0.1 -0.1)">
       <use xlink:href="#DejaVuSans-31"/>
       <use xlink:href="#DejaVuSans-2e" x="63.623047"/>
       <use xlink:href="#DejaVuSans-34" x="95.410156"/>
      </g>
     </g>
    </g>
    <g id="xtick_8">
     <g id="line2d_8">
      <g>
       <use xlink:href="#m07c7e538df" x="814.949706" y="318.04" style="stroke: #000000; stroke-width: 0.8"/>
      </g>
     </g>
     <g id="text_8">
      <!-- 1.6 -->
      <g transform="translate(806.998143 332.638438) scale(0.1 -0.1)">
       <use xlink:href="#DejaVuSans-31"/>
       <use xlink:href="#DejaVuSans-2e" x="63.623047"/>
       <use xlink:href="#DejaVuSans-36" x="95.410156"/>
      </g>
     </g>
    </g>
    <g id="xtick_9">
     <g id="line2d_9">
      <g>
       <use xlink:href="#m07c7e538df" x="917.235" y="318.04" style="stroke: #000000; stroke-width: 0.8"/>
      </g>
     </g>
     <g id="text_9">
      <!-- 1.8 -->
      <g transform="translate(909.283437 332.638438) scale(0.1 -0.1)">
       <use xlink:href="#DejaVuSans-31"/>
       <use xlink:href="#DejaVuSans-2e" x="63.623047"/>
       <use xlink:href="#DejaVuSans-38" x="95.410156"/>
      </g>
     </g>
    </g>
    <g id="text_10">
     <!-- Time (Instructions) -->
     <g transform="translate(435.434219 346.316563) scale(0.1 -0.1)">
      <defs>
       <path id="DejaVuSans-54" d="M -19 4666 
L 3928 4666 
L 3928 4134 
L 2272 4134 
L 2272 0 
L 1638 0 
L 1638 4134 
L -19 4134 
L -19 4666 
z
" transform="scale(0.015625)"/>
       <path id="DejaVuSans-69" d="M 603 3500 
L 1178 3500 
L 1178 0 
L 603 0 
L 603 3500 
z
M 603 4863 
L 1178 4863 
L 1178 4134 
L 603 4134 
L 603 4863 
z
" transform="scale(0.015625)"/>
       <path id="DejaVuSans-6d" d="M 3328 2828 
Q 3544 3216 3844 3400 
Q 4144 3584 4550 3584 
Q 5097 3584 5394 3201 
Q 5691 2819 5691 2113 
L 5691 0 
L 5113 0 
L 5113 2094 
Q 5113 2597 4934 2840 
Q 4756 3084 4391 3084 
Q 3944 3084 3684 2787 
Q 3425 2491 3425 1978 
L 3425 0 
L 2847 0 
L 2847 2094 
Q 2847 2600 2669 2842 
Q 2491 3084 2119 3084 
Q 1678 3084 1418 2786 
Q 1159 2488 1159 1978 
L 1159 0 
L 581 0 
L 581 3500 
L 1159 3500 
L 1159 2956 
Q 1356 3278 1631 3431 
Q 1906 3584 2284 3584 
Q 2666 3584 2933 3390 
Q 3200 3197 3328 2828 
z
" transform="scale(0.015625)"/>
       <path id="DejaVuSans-65" d="M 3597 1894 
L 3597 1613 
L 953 1613 
Q 991 1019 1311 708 
Q 1631 397 2203 397 
Q 2534 397 2845 478 
Q 3156 559 3463 722 
L 3463 178 
Q 3153 47 2828 -22 
Q 2503 -91 2169 -91 
Q 1331 -91 842 396 
Q 353 884 353 1716 
Q 353 2575 817 3079 
Q 1281 3584 2069 3584 
Q 2775 3584 3186 3129 
Q 3597 2675 3597 1894 
z
M 3022 2063 
Q 3016 2534 2758 2815 
Q 2500 3097 2075 3097 
Q 1594 3097 1305 2825 
Q 1016 2553 972 2059 
L 3022 2063 
z
" transform="scale(0.015625)"/>
       <path id="DejaVuSans-20" transform="scale(0.015625)"/>
       <path id="DejaVuSans-28" d="M 1984 4856 
Q 1566 4138 1362 3434 
Q 1159 2731 1159 2009 
Q 1159 1288 1364 580 
Q 1569 -128 1984 -844 
L 1484 -844 
Q 1016 -109 783 600 
Q 550 1309 550 2009 
Q 550 2706 781 3412 
Q 1013 4119 1484 4856 
L 1984 4856 
z
" transform="scale(0.015625)"/>
       <path id="DejaVuSans-49" d="M 628 4666 
L 1259 4666 
L 1259 0 
L 628 0 
L 628 4666 
z
" transform="scale(0.015625)"/>
       <path id="DejaVuSans-6e" d="M 3513 2113 
L 3513 0 
L 2938 0 
L 2938 2094 
Q 2938 2591 2744 2837 
Q 2550 3084 2163 3084 
Q 1697 3084 1428 2787 
Q 1159 2491 1159 1978 
L 1159 0 
L 581 0 
L 581 3500 
L 1159 3500 
L 1159 2956 
Q 1366 3272 1645 3428 
Q 1925 3584 2291 3584 
Q 2894 3584 3203 3211 
Q 3513 2838 3513 2113 
z
" transform="scale(0.015625)"/>
       <path id="DejaVuSans-73" d="M 2834 3397 
L 2834 2853 
Q 2591 2978 2328 3040 
Q 2066 3103 1784 3103 
Q 1356 3103 1142 2972 
Q 928 2841 928 2578 
Q 928 2378 1081 2264 
Q 1234 2150 1697 2047 
L 1894 2003 
Q 2506 1872 2764 1633 
Q 3022 1394 3022 966 
Q 3022 478 2636 193 
Q 2250 -91 1575 -91 
Q 1294 -91 989 -36 
Q 684 19 347 128 
L 347 722 
Q 666 556 975 473 
Q 1284 391 1588 391 
Q 1994 391 2212 530 
Q 2431 669 2431 922 
Q 2431 1156 2273 1281 
Q 2116 1406 1581 1522 
L 1381 1569 
Q 847 1681 609 1914 
Q 372 2147 372 2553 
Q 372 3047 722 3315 
Q 1072 3584 1716 3584 
Q 2034 3584 2315 3537 
Q 2597 3491 2834 3397 
z
" transform="scale(0.015625)"/>
       <path id="DejaVuSans-74" d="M 1172 4494 
L 1172 3500 
L 2356 3500 
L 2356 3053 
L 1172 3053 
L 1172 1153 
Q 1172 725 1289 603 
Q 1406 481 1766 481 
L 2356 481 
L 2356 0 
L 1766 0 
Q 1100 0 847 248 
Q 594 497 594 1153 
L 594 3053 
L 172 3053 
L 172 3500 
L 594 3500 
L 594 4494 
L 1172 4494 
z
" transform="scale(0.015625)"/>
       <path id="DejaVuSans-72" d="M 2631 2963 
Q 2534 3019 2420 3045 
Q 2306 3072 2169 3072 
Q 1681 3072 1420 2755 
Q 1159 2438 1159 1844 
L 1159 0 
L 581 0 
L 581 3500 
L 1159 3500 
L 1159 2956 
Q 1341 3275 1631 3429 
Q 1922 3584 2338 3584 
Q 2397 3584 2469 3576 
Q 2541 3569 2628 3553 
L 2631 2963 
z
" transform="scale(0.015625)"/>
       <path id="DejaVuSans-75" d="M 544 1381 
L 544 3500 
L 1119 3500 
L 1119 1403 
Q 1119 906 1312 657 
Q 1506 409 1894 409 
Q 2359 409 2629 706 
Q 2900 1003 2900 1516 
L 2900 3500 
L 3475 3500 
L 3475 0 
L 2900 0 
L 2900 538 
Q 2691 219 2414 64 
Q 2138 -91 1772 -91 
Q 1169 -91 856 284 
Q 544 659 544 1381 
z
M 1991 3584 
L 1991 3584 
z
" transform="scale(0.015625)"/>
       <path id="DejaVuSans-63" d="M 3122 3366 
L 3122 2828 
Q 2878 2963 2633 3030 
Q 2388 3097 2138 3097 
Q 1578 3097 1268 2742 
Q 959 2388 959 1747 
Q 959 1106 1268 751 
Q 1578 397 2138 397 
Q 2388 397 2633 464 
Q 2878 531 3122 666 
L 3122 134 
Q 2881 22 2623 -34 
Q 2366 -91 2075 -91 
Q 1284 -91 818 406 
Q 353 903 353 1747 
Q 353 2603 823 3093 
Q 1294 3584 2113 3584 
Q 2378 3584 2631 3529 
Q 2884 3475 3122 3366 
z
" transform="scale(0.015625)"/>
       <path id="DejaVuSans-6f" d="M 1959 3097 
Q 1497 3097 1228 2736 
Q 959 2375 959 1747 
Q 959 1119 1226 758 
Q 1494 397 1959 397 
Q 2419 397 2687 759 
Q 2956 1122 2956 1747 
Q 2956 2369 2687 2733 
Q 2419 3097 1959 3097 
z
M 1959 3584 
Q 2709 3584 3137 3096 
Q 3566 2609 3566 1747 
Q 3566 888 3137 398 
Q 2709 -91 1959 -91 
Q 1206 -91 779 398 
Q 353 888 353 1747 
Q 353 2609 779 3096 
Q 1206 3584 1959 3584 
z
" transform="scale(0.015625)"/>
       <path id="DejaVuSans-29" d="M 513 4856 
L 1013 4856 
Q 1481 4119 1714 3412 
Q 1947 2706 1947 2009 
Q 1947 1309 1714 600 
Q 1481 -109 1013 -844 
L 513 -844 
Q 928 -128 1133 580 
Q 1338 1288 1338 2009 
Q 1338 2731 1133 3434 
Q 928 4138 513 4856 
z
" transform="scale(0.015625)"/>
      </defs>
      <use xlink:href="#DejaVuSans-54"/>
      <use xlink:href="#DejaVuSans-69" x="57.958984"/>
      <use xlink:href="#DejaVuSans-6d" x="85.742188"/>
      <use xlink:href="#DejaVuSans-65" x="183.154297"/>
      <use xlink:href="#DejaVuSans-20" x="244.677734"/>
      <use xlink:href="#DejaVuSans-28" x="276.464844"/>
      <use xlink:href="#DejaVuSans-49" x="315.478516"/>
      <use xlink:href="#DejaVuSans-6e" x="344.970703"/>
      <use xlink:href="#DejaVuSans-73" x="408.349609"/>
      <use xlink:href="#DejaVuSans-74" x="460.449219"/>
      <use xlink:href="#DejaVuSans-72" x="499.658203"/>
      <use xlink:href="#DejaVuSans-75" x="540.771484"/>
      <use xlink:href="#DejaVuSans-63" x="604.150391"/>
      <use xlink:href="#DejaVuSans-74" x="659.130859"/>
      <use xlink:href="#DejaVuSans-69" x="698.339844"/>
      <use xlink:href="#DejaVuSans-6f" x="726.123047"/>
      <use xlink:href="#DejaVuSans-6e" x="787.304688"/>
      <use xlink:href="#DejaVuSans-73" x="850.683594"/>
      <use xlink:href="#DejaVuSans-29" x="902.783203"/>
     </g>
    </g>
    <g id="text_11">
     <!-- 1e6 -->
     <g transform="translate(898.356875 345.316563) scale(0.1 -0.1)">
      <use xlink:href="#DejaVuSans-31"/>
      <use xlink:href="#DejaVuSans-65" x="63.623047"/>
      <use xlink:href="#DejaVuSans-36" x="125.146484"/>
     </g>
    </g>
   </g>
   <g id="matplotlib.axis_2">
    <g id="ytick_1">
     <g id="line2d_10">
      <defs>
       <path id="mb0df7cf570" d="M 0 0 
L -3.5 0 
" style="stroke: #000000; stroke-width: 0.8"/>
      </defs>
      <g>
       <use xlink:href="#mb0df7cf570" x="47.81" y="318.04" style="stroke: #000000; stroke-width: 0.8"/>
      </g>
     </g>
     <g id="text_12">
      <!-- 0.3 -->
      <g transform="translate(24.906875 321.839219) scale(0.1 -0.1)">
       <defs>
        <path id="DejaVuSans-33" d="M 2597 2516 
Q 3050 2419 3304 2112 
Q 3559 1806 3559 1356 
Q 3559 666 3084 287 
Q 2609 -91 1734 -91 
Q 1441 -91 1130 -33 
Q 819 25 488 141 
L 488 750 
Q 750 597 1062 519 
Q 1375 441 1716 441 
Q 2309 441 2620 675 
Q 2931 909 2931 1356 
Q 2931 1769 2642 2001 
Q 2353 2234 1838 2234 
L 1294 2234 
L 1294 2753 
L 1863 2753 
Q 2328 2753 2575 2939 
Q 2822 3125 2822 3475 
Q 2822 3834 2567 4026 
Q 2313 4219 1838 4219 
Q 1578 4219 1281 4162 
Q 984 4106 628 3988 
L 628 4550 
Q 988 4650 1302 4700 
Q 1616 4750 1894 4750 
Q 2613 4750 3031 4423 
Q 3450 4097 3450 3541 
Q 3450 3153 3228 2886 
Q 3006 2619 2597 2516 
z
" transform="scale(0.015625)"/>
       </defs>
       <use xlink:href="#DejaVuSans-30"/>
       <use xlink:href="#DejaVuSans-2e" x="63.623047"/>
       <use xlink:href="#DejaVuSans-33" x="95.410156"/>
      </g>
     </g>
    </g>
    <g id="ytick_2">
     <g id="line2d_11">
      <g>
       <use xlink:href="#mb0df7cf570" x="47.81" y="280.13" style="stroke: #000000; stroke-width: 0.8"/>
      </g>
     </g>
     <g id="text_13">
      <!-- 0.4 -->
      <g transform="translate(24.906875 283.929219) scale(0.1 -0.1)">
       <use xlink:href="#DejaVuSans-30"/>
       <use xlink:href="#DejaVuSans-2e" x="63.623047"/>
       <use xlink:href="#DejaVuSans-34" x="95.410156"/>
      </g>
     </g>
    </g>
    <g id="ytick_3">
     <g id="line2d_12">
      <g>
       <use xlink:href="#mb0df7cf570" x="47.81" y="242.22" style="stroke: #000000; stroke-width: 0.8"/>
      </g>
     </g>
     <g id="text_14">
      <!-- 0.5 -->
      <g transform="translate(24.906875 246.019219) scale(0.1 -0.1)">
       <defs>
        <path id="DejaVuSans-35" d="M 691 4666 
L 3169 4666 
L 3169 4134 
L 1269 4134 
L 1269 2991 
Q 1406 3038 1543 3061 
Q 1681 3084 1819 3084 
Q 2600 3084 3056 2656 
Q 3513 2228 3513 1497 
Q 3513 744 3044 326 
Q 2575 -91 1722 -91 
Q 1428 -91 1123 -41 
Q 819 9 494 109 
L 494 744 
Q 775 591 1075 516 
Q 1375 441 1709 441 
Q 2250 441 2565 725 
Q 2881 1009 2881 1497 
Q 2881 1984 2565 2268 
Q 2250 2553 1709 2553 
Q 1456 2553 1204 2497 
Q 953 2441 691 2322 
L 691 4666 
z
" transform="scale(0.015625)"/>
       </defs>
       <use xlink:href="#DejaVuSans-30"/>
       <use xlink:href="#DejaVuSans-2e" x="63.623047"/>
       <use xlink:href="#DejaVuSans-35" x="95.410156"/>
      </g>
     </g>
    </g>
    <g id="ytick_4">
     <g id="line2d_13">
      <g>
       <use xlink:href="#mb0df7cf570" x="47.81" y="204.31" style="stroke: #000000; stroke-width: 0.8"/>
      </g>
     </g>
     <g id="text_15">
      <!-- 0.6 -->
      <g transform="translate(24.906875 208.109219) scale(0.1 -0.1)">
       <use xlink:href="#DejaVuSans-30"/>
       <use xlink:href="#DejaVuSans-2e" x="63.623047"/>
       <use xlink:href="#DejaVuSans-36" x="95.410156"/>
      </g>
     </g>
    </g>
    <g id="ytick_5">
     <g id="line2d_14">
      <g>
       <use xlink:href="#mb0df7cf570" x="47.81" y="166.4" style="stroke: #000000; stroke-width: 0.8"/>
      </g>
     </g>
     <g id="text_16">
      <!-- 0.7 -->
      <g transform="translate(24.906875 170.199219) scale(0.1 -0.1)">
       <defs>
        <path id="DejaVuSans-37" d="M 525 4666 
L 3525 4666 
L 3525 4397 
L 1831 0 
L 1172 0 
L 2766 4134 
L 525 4134 
L 525 4666 
z
" transform="scale(0.015625)"/>
       </defs>
       <use xlink:href="#DejaVuSans-30"/>
       <use xlink:href="#DejaVuSans-2e" x="63.623047"/>
       <use xlink:href="#DejaVuSans-37" x="95.410156"/>
      </g>
     </g>
    </g>
    <g id="ytick_6">
     <g id="line2d_15">
      <g>
       <use xlink:href="#mb0df7cf570" x="47.81" y="128.49" style="stroke: #000000; stroke-width: 0.8"/>
      </g>
     </g>
     <g id="text_17">
      <!-- 0.8 -->
      <g transform="translate(24.906875 132.289219) scale(0.1 -0.1)">
       <use xlink:href="#DejaVuSans-30"/>
       <use xlink:href="#DejaVuSans-2e" x="63.623047"/>
       <use xlink:href="#DejaVuSans-38" x="95.410156"/>
      </g>
     </g>
    </g>
    <g id="ytick_7">
     <g id="line2d_16">
      <g>
       <use xlink:href="#mb0df7cf570" x="47.81" y="90.58" style="stroke: #000000; stroke-width: 0.8"/>
      </g>
     </g>
     <g id="text_18">
      <!-- 0.9 -->
      <g transform="translate(24.906875 94.379219) scale(0.1 -0.1)">
       <defs>
        <path id="DejaVuSans-39" d="M 703 97 
L 703 672 
Q 941 559 1184 500 
Q 1428 441 1663 441 
Q 2288 441 2617 861 
Q 2947 1281 2994 2138 
Q 2813 1869 2534 1725 
Q 2256 1581 1919 1581 
Q 1219 1581 811 2004 
Q 403 2428 403 3163 
Q 403 3881 828 4315 
Q 1253 4750 1959 4750 
Q 2769 4750 3195 4129 
Q 3622 3509 3622 2328 
Q 3622 1225 3098 567 
Q 2575 -91 1691 -91 
Q 1453 -91 1209 -44 
Q 966 3 703 97 
z
M 1959 2075 
Q 2384 2075 2632 2365 
Q 2881 2656 2881 3163 
Q 2881 3666 2632 3958 
Q 2384 4250 1959 4250 
Q 1534 4250 1286 3958 
Q 1038 3666 1038 3163 
Q 1038 2656 1286 2365 
Q 1534 2075 1959 2075 
z
" transform="scale(0.015625)"/>
       </defs>
       <use xlink:href="#DejaVuSans-30"/>
       <use xlink:href="#DejaVuSans-2e" x="63.623047"/>
       <use xlink:href="#DejaVuSans-39" x="95.410156"/>
      </g>
     </g>
    </g>
    <g id="ytick_8">
     <g id="line2d_17">
      <g>
       <use xlink:href="#mb0df7cf570" x="47.81" y="52.67" style="stroke: #000000; stroke-width: 0.8"/>
      </g>
     </g>
     <g id="text_19">
      <!-- 1.0 -->
      <g transform="translate(24.906875 56.469219) scale(0.1 -0.1)">
       <use xlink:href="#DejaVuSans-31"/>
       <use xlink:href="#DejaVuSans-2e" x="63.623047"/>
       <use xlink:href="#DejaVuSans-30" x="95.410156"/>
      </g>
     </g>
    </g>
    <g id="ytick_9">
     <g id="line2d_18">
      <g>
       <use xlink:href="#mb0df7cf570" x="47.81" y="14.76" style="stroke: #000000; stroke-width: 0.8"/>
      </g>
     </g>
     <g id="text_20">
      <!-- 1.1 -->
      <g transform="translate(24.906875 18.559219) scale(0.1 -0.1)">
       <use xlink:href="#DejaVuSans-31"/>
       <use xlink:href="#DejaVuSans-2e" x="63.623047"/>
       <use xlink:href="#DejaVuSans-31" x="95.410156"/>
      </g>
     </g>
    </g>
    <g id="text_21">
     <!-- IPC -->
     <g transform="translate(18.827188 174.38125) rotate(-90) scale(0.1 -0.1)">
      <defs>
       <path id="DejaVuSans-50" d="M 1259 4147 
L 1259 2394 
L 2053 2394 
Q 2494 2394 2734 2622 
Q 2975 2850 2975 3272 
Q 2975 3691 2734 3919 
Q 2494 4147 2053 4147 
L 1259 4147 
z
M 628 4666 
L 2053 4666 
Q 2838 4666 3239 4311 
Q 3641 3956 3641 3272 
Q 3641 2581 3239 2228 
Q 2838 1875 2053 1875 
L 1259 1875 
L 1259 0 
L 628 0 
L 628 4666 
z
" transform="scale(0.015625)"/>
       <path id="DejaVuSans-43" d="M 4122 4306 
L 4122 3641 
Q 3803 3938 3442 4084 
Q 3081 4231 2675 4231 
Q 1875 4231 1450 3742 
Q 1025 3253 1025 2328 
Q 1025 1406 1450 917 
Q 1875 428 2675 428 
Q 3081 428 3442 575 
Q 3803 722 4122 1019 
L 4122 359 
Q 3791 134 3420 21 
Q 3050 -91 2638 -91 
Q 1578 -91 968 557 
Q 359 1206 359 2328 
Q 359 3453 968 4101 
Q 1578 4750 2638 4750 
Q 3056 4750 3426 4639 
Q 3797 4528 4122 4306 
z
" transform="scale(0.015625)"/>
      </defs>
      <use xlink:href="#DejaVuSans-49"/>
      <use xlink:href="#DejaVuSans-50" x="29.492188"/>
      <use xlink:href="#DejaVuSans-43" x="89.794922"/>
     </g>
    </g>
   </g>
   <g id="line2d_19">
    <path d="M 1.781618 167.459884 
L 1.781618 105.718568 
L 6.895882 105.718568 
L 6.895882 161.774985 
L 12.010147 161.774985 
L 12.010147 149.449476 
L 17.124412 149.449476 
L 17.124412 151.183811 
L 22.238676 151.183811 
L 22.238676 108.746823 
L 27.352941 108.746823 
L 27.352941 78.461519 
L 32.467206 78.461519 
L 32.467206 74.46557 
L 37.581471 74.46557 
L 37.581471 76.840686 
L 42.695735 76.840686 
L 42.695735 70.859871 
L 47.81 70.859871 
L 47.81 73.113425 
L 52.924265 73.113425 
L 52.924265 72.603728 
L 58.038529 72.603728 
L 58.038529 117.033595 
L 63.152794 117.033595 
L 63.152794 128.926095 
L 68.267059 128.926095 
L 68.267059 132.748072 
L 73.381324 132.748072 
L 73.381324 127.882224 
L 78.495588 127.882224 
L 78.495588 129.962819 
L 83.609853 129.962819 
L 83.609853 126.757529 
L 88.724118 126.757529 
L 88.724118 142.71167 
L 93.838382 142.71167 
L 93.838382 106.110692 
L 98.952647 106.110692 
L 98.952647 273.084357 
L 104.066912 273.084357 
L 104.066912 271.724405 
L 109.181176 271.724405 
L 109.181176 66.864812 
L 114.295441 66.864812 
L 114.295441 66.09044 
L 119.409706 66.09044 
L 119.409706 70.722381 
L 124.523971 70.722381 
L 124.523971 68.855966 
L 129.638235 68.855966 
L 129.638235 68.264391 
L 134.7525 68.264391 
L 134.7525 66.513232 
L 139.866765 66.513232 
L 139.866765 68.229532 
L 144.981029 68.229532 
L 144.981029 67.040348 
L 150.095294 67.040348 
L 150.095294 66.231479 
L 155.209559 66.231479 
L 155.209559 68.890705 
L 160.323824 68.890705 
L 160.323824 66.337187 
L 165.438088 66.337187 
L 165.438088 147.885022 
L 170.552353 147.885022 
L 170.552353 151.557124 
L 175.666618 151.557124 
L 175.666618 151.722722 
L 180.780882 151.722722 
L 180.780882 153.02 
L 185.895147 153.02 
L 185.895147 151.805448 
L 191.009412 151.805448 
L 191.009412 152.053332 
L 196.123676 152.053332 
L 196.123676 153.1634 
L 201.237941 153.1634 
L 201.237941 151.349851 
L 206.352206 151.349851 
L 206.352206 152.999502 
L 211.466471 152.999502 
L 211.466471 152.053332 
L 216.580735 152.053332 
L 216.580735 151.846792 
L 221.695 151.846792 
L 221.695 183.440379 
L 226.809265 183.440379 
L 226.809265 284.809231 
L 231.923529 284.809231 
L 231.923529 244.458374 
L 237.037794 244.458374 
L 237.037794 87.415381 
L 242.152059 87.415381 
L 242.152059 87.665434 
L 247.266324 87.665434 
L 247.266324 92.226785 
L 252.380588 92.226785 
L 252.380588 63.139117 
L 257.494853 63.139117 
L 257.494853 67.565946 
L 262.609118 67.565946 
L 262.609118 67.040348 
L 267.723382 67.040348 
L 267.723382 69.757013 
L 272.837647 69.757013 
L 272.837647 68.890705 
L 277.951912 68.890705 
L 277.951912 65.70202 
L 283.066176 65.70202 
L 283.066176 67.845646 
L 288.180441 67.845646 
L 288.180441 67.110516 
L 293.294706 67.110516 
L 293.294706 68.508214 
L 298.408971 68.508214 
L 298.408971 66.970154 
L 303.523235 66.970154 
L 303.523235 67.180656 
L 308.6375 67.180656 
L 308.6375 96.520619 
L 313.751765 96.520619 
L 313.751765 151.805448 
L 318.866029 151.805448 
L 318.866029 151.349851 
L 323.980294 151.349851 
L 323.980294 153.286198 
L 329.094559 153.286198 
L 329.094559 152.073969 
L 334.208824 152.073969 
L 334.208824 151.619246 
L 339.323088 151.619246 
L 339.323088 152.937991 
L 344.437353 152.937991 
L 344.437353 152.012049 
L 354.665882 151.991402 
L 354.665882 152.60947 
L 359.780147 152.60947 
L 359.780147 152.156488 
L 364.894412 152.156488 
L 364.894412 151.702033 
L 370.008676 151.702033 
L 370.008676 105.550225 
L 375.122941 105.550225 
L 375.122941 80.32845 
L 380.237206 80.32845 
L 380.237206 244.68023 
L 385.351471 244.68023 
L 385.351471 283.196556 
L 390.465735 283.196556 
L 390.465735 109.406054 
L 395.58 109.406054 
L 395.58 102.146489 
L 400.694265 102.146489 
L 400.694265 100.793922 
L 405.808529 100.793922 
L 405.808529 73.621677 
L 410.922794 73.621677 
L 410.922794 77.834793 
L 416.037059 77.834793 
L 416.037059 76.47478 
L 421.151324 76.47478 
L 421.151324 74.398205 
L 426.265588 74.398205 
L 426.265588 78.032947 
L 431.379853 78.032947 
L 431.379853 118.877956 
L 436.494118 118.877956 
L 436.494118 126.9047 
L 441.608382 126.9047 
L 441.608382 125.277963 
L 446.722647 125.277963 
L 446.722647 122.300612 
L 451.836912 122.300612 
L 451.836912 124.68211 
L 456.951176 124.68211 
L 456.951176 127.100708 
L 462.065441 127.100708 
L 462.065441 137.117427 
L 467.179706 137.117427 
L 467.179706 72.092581 
L 472.293971 72.092581 
L 472.293971 74.364513 
L 477.408235 74.364513 
L 477.408235 103.118071 
L 482.5225 103.118071 
L 482.5225 142.755744 
L 487.636765 142.755744 
L 487.636765 131.492772 
L 492.751029 131.492772 
L 492.751029 121.718475 
L 497.865294 121.718475 
L 497.865294 94.522424 
L 502.979559 94.522424 
L 502.979559 73.147353 
L 508.093824 73.147353 
L 508.093824 74.431891 
L 513.208088 74.431891 
L 513.208088 73.553993 
L 518.322353 73.553993 
L 518.322353 71.751007 
L 523.436618 71.751007 
L 523.436618 74.53291 
L 528.550882 74.53291 
L 528.550882 90.238468 
L 533.665147 90.238468 
L 533.665147 128.368639 
L 538.779412 128.368639 
L 538.779412 136.612728 
L 543.893676 136.612728 
L 543.893676 126.732987 
L 549.007941 126.732987 
L 549.007941 129.818586 
L 554.122206 129.818586 
L 554.122206 128.901901 
L 559.236471 128.901901 
L 559.236471 129.626061 
L 564.350735 129.626061 
L 564.350735 131.25474 
L 569.465 131.25474 
L 569.465 218.120316 
L 574.579265 218.120316 
L 574.579265 281.237916 
L 579.693529 281.237916 
L 579.693529 185.665092 
L 584.807794 185.665092 
L 584.807794 69.341702 
L 589.922059 69.341702 
L 589.922059 66.970154 
L 595.036324 66.970154 
L 595.036324 70.962919 
L 600.150588 70.962919 
L 600.150588 66.583602 
L 605.264853 66.583602 
L 605.264853 66.970154 
L 610.379118 66.970154 
L 610.379118 69.064298 
L 615.493382 69.064298 
L 615.493382 65.878677 
L 620.607647 65.878677 
L 620.607647 69.133689 
L 625.721912 69.133689 
L 625.721912 66.759409 
L 630.836176 66.759409 
L 630.836176 67.985334 
L 635.950441 67.985334 
L 635.950441 107.891316 
L 641.064706 107.891316 
L 641.064706 151.826122 
L 651.293235 151.722722 
L 651.293235 152.979001 
L 656.4075 152.979001 
L 656.4075 151.929445 
L 661.521765 151.929445 
L 661.521765 151.557124 
L 666.636029 151.557124 
L 666.636029 153.408887 
L 671.750294 153.408887 
L 671.750294 151.702033 
L 676.864559 151.702033 
L 676.864559 152.094603 
L 681.978824 152.094603 
L 681.978824 152.876452 
L 687.093088 152.876452 
L 687.093088 152.156488 
L 692.207353 152.156488 
L 692.207353 151.908786 
L 697.321618 151.908786 
L 697.321618 260.076159 
L 702.435882 260.076159 
L 702.435882 285.133246 
L 707.550147 285.133246 
L 707.550147 109.433464 
L 712.664412 109.433464 
L 712.664412 94.612405 
L 717.778676 94.612405 
L 717.778676 79.675638 
L 722.892941 79.675638 
L 722.892941 82.497842 
L 728.007206 82.497842 
L 728.007206 67.390915 
L 733.121471 67.390915 
L 733.121471 65.878677 
L 738.235735 65.878677 
L 738.235735 70.378198 
L 743.35 70.378198 
L 743.35 68.890705 
L 753.578529 68.821221 
L 753.578529 67.040348 
L 758.692794 67.040348 
L 758.692794 67.635911 
L 763.807059 67.635911 
L 763.807059 67.250769 
L 768.921324 67.250769 
L 768.921324 66.19623 
L 774.035588 66.19623 
L 774.035588 69.307049 
L 779.149853 69.307049 
L 779.149853 66.19623 
L 784.264118 66.19623 
L 784.264118 141.31643 
L 789.378382 141.31643 
L 789.378382 151.9501 
L 794.492647 151.9501 
L 794.492647 151.598542 
L 799.606912 151.598542 
L 799.606912 152.855933 
L 804.721176 152.855933 
L 804.721176 152.073969 
L 809.835441 152.073969 
L 809.835441 151.908786 
L 814.949706 151.908786 
L 814.949706 152.979001 
L 820.063971 152.979001 
L 820.063971 151.619246 
L 825.178235 151.619246 
L 825.178235 152.937991 
L 830.2925 152.937991 
L 830.2925 152.032692 
L 835.406765 152.032692 
L 835.406765 151.86746 
L 840.521029 151.86746 
L 840.521029 143.041896 
L 845.635294 143.041896 
L 845.635294 70.619195 
L 850.749559 70.619195 
L 850.749559 156.000741 
L 855.863824 156.000741 
L 855.863824 283.521916 
L 860.978088 283.521916 
L 860.978088 223.461851 
L 866.092353 223.461851 
L 866.092353 94.792222 
L 871.206618 94.792222 
L 871.206618 100.765023 
L 876.320882 100.765023 
L 876.320882 87.634198 
L 881.435147 87.634198 
L 881.435147 75.640362 
L 891.663676 75.673814 
L 891.663676 75.37252 
L 896.777941 75.37252 
L 896.777941 76.374856 
L 901.892206 76.374856 
L 901.892206 99.692214 
L 907.006471 99.692214 
L 907.006471 125.94554 
L 912.120735 125.94554 
L 912.120735 124.582576 
L 917.235 124.582576 
L 917.235 122.35113 
L 922.349265 122.35113 
L 922.349265 135.436067 
L 927.463529 135.436067 
L 927.463529 117.47718 
L 932.577794 117.47718 
L 932.577794 138.144409 
L 937 138.144409 
L 937 138.144409 
" clip-path="url(#p06a8dc87b4)" style="fill: none; stroke: #008000; stroke-width: 2; stroke-linecap: square"/>
   </g>
   <g id="line2d_20">
    <path d="M 1.781618 142.408298 
L 1.781618 151.655472 
L 6.895882 151.655472 
L 6.895882 191.567244 
L 12.010147 191.567244 
L 12.010147 182.321077 
L 17.124412 182.321077 
L 17.124412 191.567244 
L 22.238676 191.567244 
L 22.238676 148.277758 
L 27.352941 148.277758 
L 27.352941 84.569084 
L 58.038529 84.569084 
L 58.038529 182.321077 
L 88.724118 182.321077 
L 88.724118 191.567244 
L 93.838382 191.567244 
L 93.838382 171.130605 
L 98.952647 171.130605 
L 98.952647 289.784981 
L 109.181176 289.784981 
L 109.181176 84.569084 
L 165.438088 84.569084 
L 165.438088 177.745375 
L 201.237941 177.745375 
L 201.237941 191.567244 
L 206.352206 191.567244 
L 206.352206 177.745375 
L 211.466471 177.745375 
L 211.466471 191.567244 
L 216.580735 191.567244 
L 216.580735 192.910427 
L 221.695 192.910427 
L 221.695 191.567244 
L 226.809265 191.567244 
L 226.809265 291.023759 
L 237.037794 291.023759 
L 237.037794 151.655472 
L 242.152059 151.655472 
L 242.152059 142.408298 
L 247.266324 142.408298 
L 247.266324 151.655472 
L 252.380588 151.655472 
L 252.380588 142.408298 
L 257.494853 142.408298 
L 257.494853 84.569084 
L 308.6375 84.569084 
L 308.6375 157.333297 
L 313.751765 157.333297 
L 313.751765 177.745375 
L 354.665882 177.745375 
L 354.665882 191.567244 
L 359.780147 191.567244 
L 359.780147 177.745375 
L 370.008676 177.745375 
L 370.008676 182.156831 
L 375.122941 182.156831 
L 375.122941 151.655472 
L 380.237206 151.655472 
L 380.237206 231.174723 
L 385.351471 231.174723 
L 385.351471 289.190902 
L 390.465735 289.190902 
L 390.465735 151.655472 
L 395.58 151.655472 
L 395.58 154.015627 
L 405.808529 154.015627 
L 405.808529 84.569084 
L 431.379853 84.569084 
L 431.379853 182.321077 
L 462.065441 182.321077 
L 462.065441 191.567244 
L 467.179706 191.567244 
L 467.179706 171.130605 
L 472.293971 171.130605 
L 472.293971 142.408298 
L 477.408235 142.408298 
L 477.408235 151.655472 
L 482.5225 151.655472 
L 482.5225 191.567244 
L 492.751029 191.567244 
L 492.751029 148.277758 
L 497.865294 148.277758 
L 497.865294 138.23535 
L 502.979559 138.23535 
L 502.979559 84.569084 
L 528.550882 84.569084 
L 528.550882 157.333297 
L 533.665147 157.333297 
L 533.665147 182.321077 
L 569.465 182.321077 
L 569.465 171.130605 
L 574.579265 171.130605 
L 574.579265 289.784981 
L 579.693529 289.784981 
L 579.693529 84.569084 
L 635.950441 84.569084 
L 635.950441 157.333297 
L 641.064706 157.333297 
L 641.064706 177.745375 
L 681.978824 177.745375 
L 681.978824 191.567244 
L 687.093088 191.567244 
L 687.093088 192.910427 
L 692.207353 192.910427 
L 692.207353 177.745375 
L 697.321618 177.745375 
L 697.321618 291.023759 
L 707.550147 291.023759 
L 707.550147 151.655472 
L 712.664412 151.655472 
L 712.664412 142.408298 
L 717.778676 142.408298 
L 717.778676 151.655472 
L 722.892941 151.655472 
L 722.892941 142.408298 
L 728.007206 142.408298 
L 728.007206 84.569084 
L 784.264118 84.569084 
L 784.264118 177.745375 
L 820.063971 177.745375 
L 820.063971 191.567244 
L 825.178235 191.567244 
L 825.178235 177.745375 
L 830.2925 177.745375 
L 830.2925 191.567244 
L 835.406765 191.567244 
L 835.406765 192.910427 
L 840.521029 192.910427 
L 840.521029 191.567244 
L 845.635294 191.567244 
L 845.635294 142.408298 
L 850.749559 142.408298 
L 850.749559 151.655472 
L 855.863824 151.655472 
L 855.863824 289.190902 
L 860.978088 289.190902 
L 860.978088 231.174723 
L 866.092353 231.174723 
L 866.092353 151.655472 
L 871.206618 151.655472 
L 871.206618 154.015627 
L 876.320882 154.015627 
L 876.320882 138.23535 
L 881.435147 138.23535 
L 881.435147 84.569084 
L 901.892206 84.569084 
L 901.892206 157.333297 
L 907.006471 157.333297 
L 907.006471 182.321077 
L 922.349265 182.321077 
L 922.349265 191.567244 
L 927.463529 191.567244 
L 927.463529 182.321077 
L 932.577794 182.321077 
L 932.577794 191.567244 
L 937 191.567244 
L 937 191.567244 
" clip-path="url(#p06a8dc87b4)" style="fill: none; stroke-dasharray: 1.5,2.475; stroke-dashoffset: 0; stroke: #0000ff; stroke-width: 1.5"/>
   </g>
   <g id="line2d_21">
    <path d="M 1.781618 95.837346 
L 1.781618 101.255615 
L 6.895882 101.255615 
L 6.895882 147.932845 
L 12.010147 147.932845 
L 12.010147 153.862917 
L 17.124412 153.862917 
L 17.124412 147.932845 
L 22.238676 147.932845 
L 22.238676 108.788104 
L 27.352941 108.788104 
L 27.352941 75.514861 
L 58.038529 75.514861 
L 58.038529 153.862917 
L 88.724118 153.862917 
L 88.724118 147.932845 
L 93.838382 147.932845 
L 93.838382 95.837346 
L 98.952647 95.837346 
L 98.952647 281.393165 
L 109.181176 281.393165 
L 109.181176 75.514861 
L 165.438088 75.514861 
L 165.438088 159.379125 
L 201.237941 159.379125 
L 201.237941 147.932845 
L 206.352206 147.932845 
L 206.352206 159.379125 
L 211.466471 159.379125 
L 211.466471 147.932845 
L 216.580735 147.932845 
L 216.580735 156.060909 
L 221.695 156.060909 
L 221.695 147.932845 
L 226.809265 147.932845 
L 226.809265 285.03108 
L 237.037794 285.03108 
L 237.037794 101.255615 
L 242.152059 101.255615 
L 242.152059 95.837346 
L 247.266324 95.837346 
L 247.266324 101.255615 
L 252.380588 101.255615 
L 252.380588 95.837346 
L 257.494853 95.837346 
L 257.494853 75.514861 
L 308.6375 75.514861 
L 308.6375 129.065139 
L 313.751765 129.065139 
L 313.751765 159.379125 
L 354.665882 159.379125 
L 354.665882 147.932845 
L 359.780147 147.932845 
L 359.780147 159.379125 
L 370.008676 159.379125 
L 370.008676 118.01043 
L 375.122941 118.01043 
L 375.122941 101.255615 
L 380.237206 101.255615 
L 380.237206 208.982958 
L 385.351471 208.982958 
L 385.351471 283.023127 
L 390.465735 283.023127 
L 390.465735 101.255615 
L 395.58 101.255615 
L 395.58 115.259877 
L 405.808529 115.259877 
L 405.808529 75.514861 
L 431.379853 75.514861 
L 431.379853 153.862917 
L 462.065441 153.862917 
L 462.065441 147.932845 
L 467.179706 147.932845 
L 467.179706 95.837346 
L 477.408235 95.837346 
L 477.408235 101.255615 
L 482.5225 101.255615 
L 482.5225 147.932845 
L 492.751029 147.932845 
L 492.751029 108.788104 
L 497.865294 108.788104 
L 497.865294 106.536756 
L 502.979559 106.536756 
L 502.979559 75.514861 
L 528.550882 75.514861 
L 528.550882 129.065139 
L 533.665147 129.065139 
L 533.665147 153.862917 
L 569.465 153.862917 
L 569.465 95.837346 
L 574.579265 95.837346 
L 574.579265 281.393165 
L 579.693529 281.393165 
L 579.693529 75.514861 
L 635.950441 75.514861 
L 635.950441 129.065139 
L 641.064706 129.065139 
L 641.064706 159.379125 
L 681.978824 159.379125 
L 681.978824 147.932845 
L 687.093088 147.932845 
L 687.093088 156.060909 
L 692.207353 156.060909 
L 692.207353 159.379125 
L 697.321618 159.379125 
L 697.321618 285.03108 
L 707.550147 285.03108 
L 707.550147 101.255615 
L 712.664412 101.255615 
L 712.664412 95.837346 
L 717.778676 95.837346 
L 717.778676 101.255615 
L 722.892941 101.255615 
L 722.892941 95.837346 
L 728.007206 95.837346 
L 728.007206 75.514861 
L 784.264118 75.514861 
L 784.264118 159.379125 
L 820.063971 159.379125 
L 820.063971 147.932845 
L 825.178235 147.932845 
L 825.178235 159.379125 
L 830.2925 159.379125 
L 830.2925 147.932845 
L 835.406765 147.932845 
L 835.406765 156.060909 
L 840.521029 156.060909 
L 840.521029 147.932845 
L 845.635294 147.932845 
L 845.635294 95.837346 
L 850.749559 95.837346 
L 850.749559 101.255615 
L 855.863824 101.255615 
L 855.863824 283.023127 
L 860.978088 283.023127 
L 860.978088 208.982958 
L 866.092353 208.982958 
L 866.092353 101.255615 
L 871.206618 101.255615 
L 871.206618 115.259877 
L 876.320882 115.259877 
L 876.320882 106.536756 
L 881.435147 106.536756 
L 881.435147 75.514861 
L 901.892206 75.514861 
L 901.892206 129.065139 
L 907.006471 129.065139 
L 907.006471 153.862917 
L 922.349265 153.862917 
L 922.349265 147.932845 
L 927.463529 147.932845 
L 927.463529 153.862917 
L 932.577794 153.862917 
L 932.577794 147.932845 
L 937 147.932845 
L 937 147.932845 
" clip-path="url(#p06a8dc87b4)" style="fill: none; stroke: #0000ff; stroke-width: 2; stroke-linecap: square"/>
   </g>
   <g id="patch_3">
    <path d="M 47.81 318.04 
L 47.81 14.76 
" style="fill: none; stroke: #000000; stroke-width: 0.8; stroke-linejoin: miter; stroke-linecap: square"/>
   </g>
   <g id="patch_4">
    <path d="M 917.235 318.04 
L 917.235 14.76 
" style="fill: none; stroke: #000000; stroke-width: 0.8; stroke-linejoin: miter; stroke-linecap: square"/>
   </g>
   <g id="patch_5">
    <path d="M 47.81 318.04 
L 917.235 318.04 
" style="fill: none; stroke: #000000; stroke-width: 0.8; stroke-linejoin: miter; stroke-linecap: square"/>
   </g>
   <g id="patch_6">
    <path d="M 47.81 14.76 
L 917.235 14.76 
" style="fill: none; stroke: #000000; stroke-width: 0.8; stroke-linejoin: miter; stroke-linecap: square"/>
   </g>
   <g id="legend_1">
    <g id="patch_7">
     <path d="M 370.612344 66.794375 
L 594.432656 66.794375 
Q 596.432656 66.794375 596.432656 64.794375 
L 596.432656 21.76 
Q 596.432656 19.76 594.432656 19.76 
L 370.612344 19.76 
Q 368.612344 19.76 368.612344 21.76 
L 368.612344 64.794375 
Q 368.612344 66.794375 370.612344 66.794375 
z
" style="fill: #ffffff; opacity: 0.8; stroke: #cccccc; stroke-linejoin: miter"/>
    </g>
    <g id="line2d_22">
     <path d="M 372.612344 27.858438 
L 372.612344 27.858438 
L 382.612344 27.858438 
L 382.612344 27.858438 
L 392.612344 27.858438 
" style="fill: none; stroke: #008000; stroke-width: 2; stroke-linecap: square"/>
    </g>
    <g id="text_22">
     <!-- True IPC (Full RTL Simulation) -->
     <g transform="translate(400.612344 31.358438) scale(0.1 -0.1)">
      <defs>
       <path id="DejaVuSans-46" d="M 628 4666 
L 3309 4666 
L 3309 4134 
L 1259 4134 
L 1259 2759 
L 3109 2759 
L 3109 2228 
L 1259 2228 
L 1259 0 
L 628 0 
L 628 4666 
z
" transform="scale(0.015625)"/>
       <path id="DejaVuSans-6c" d="M 603 4863 
L 1178 4863 
L 1178 0 
L 603 0 
L 603 4863 
z
" transform="scale(0.015625)"/>
       <path id="DejaVuSans-52" d="M 2841 2188 
Q 3044 2119 3236 1894 
Q 3428 1669 3622 1275 
L 4263 0 
L 3584 0 
L 2988 1197 
Q 2756 1666 2539 1819 
Q 2322 1972 1947 1972 
L 1259 1972 
L 1259 0 
L 628 0 
L 628 4666 
L 2053 4666 
Q 2853 4666 3247 4331 
Q 3641 3997 3641 3322 
Q 3641 2881 3436 2590 
Q 3231 2300 2841 2188 
z
M 1259 4147 
L 1259 2491 
L 2053 2491 
Q 2509 2491 2742 2702 
Q 2975 2913 2975 3322 
Q 2975 3731 2742 3939 
Q 2509 4147 2053 4147 
L 1259 4147 
z
" transform="scale(0.015625)"/>
       <path id="DejaVuSans-4c" d="M 628 4666 
L 1259 4666 
L 1259 531 
L 3531 531 
L 3531 0 
L 628 0 
L 628 4666 
z
" transform="scale(0.015625)"/>
       <path id="DejaVuSans-53" d="M 3425 4513 
L 3425 3897 
Q 3066 4069 2747 4153 
Q 2428 4238 2131 4238 
Q 1616 4238 1336 4038 
Q 1056 3838 1056 3469 
Q 1056 3159 1242 3001 
Q 1428 2844 1947 2747 
L 2328 2669 
Q 3034 2534 3370 2195 
Q 3706 1856 3706 1288 
Q 3706 609 3251 259 
Q 2797 -91 1919 -91 
Q 1588 -91 1214 -16 
Q 841 59 441 206 
L 441 856 
Q 825 641 1194 531 
Q 1563 422 1919 422 
Q 2459 422 2753 634 
Q 3047 847 3047 1241 
Q 3047 1584 2836 1778 
Q 2625 1972 2144 2069 
L 1759 2144 
Q 1053 2284 737 2584 
Q 422 2884 422 3419 
Q 422 4038 858 4394 
Q 1294 4750 2059 4750 
Q 2388 4750 2728 4690 
Q 3069 4631 3425 4513 
z
" transform="scale(0.015625)"/>
       <path id="DejaVuSans-61" d="M 2194 1759 
Q 1497 1759 1228 1600 
Q 959 1441 959 1056 
Q 959 750 1161 570 
Q 1363 391 1709 391 
Q 2188 391 2477 730 
Q 2766 1069 2766 1631 
L 2766 1759 
L 2194 1759 
z
M 3341 1997 
L 3341 0 
L 2766 0 
L 2766 531 
Q 2569 213 2275 61 
Q 1981 -91 1556 -91 
Q 1019 -91 701 211 
Q 384 513 384 1019 
Q 384 1609 779 1909 
Q 1175 2209 1959 2209 
L 2766 2209 
L 2766 2266 
Q 2766 2663 2505 2880 
Q 2244 3097 1772 3097 
Q 1472 3097 1187 3025 
Q 903 2953 641 2809 
L 641 3341 
Q 956 3463 1253 3523 
Q 1550 3584 1831 3584 
Q 2591 3584 2966 3190 
Q 3341 2797 3341 1997 
z
" transform="scale(0.015625)"/>
      </defs>
      <use xlink:href="#DejaVuSans-54"/>
      <use xlink:href="#DejaVuSans-72" x="46.333984"/>
      <use xlink:href="#DejaVuSans-75" x="87.447266"/>
      <use xlink:href="#DejaVuSans-65" x="150.826172"/>
      <use xlink:href="#DejaVuSans-20" x="212.349609"/>
      <use xlink:href="#DejaVuSans-49" x="244.136719"/>
      <use xlink:href="#DejaVuSans-50" x="273.628906"/>
      <use xlink:href="#DejaVuSans-43" x="333.931641"/>
      <use xlink:href="#DejaVuSans-20" x="403.755859"/>
      <use xlink:href="#DejaVuSans-28" x="435.542969"/>
      <use xlink:href="#DejaVuSans-46" x="474.556641"/>
      <use xlink:href="#DejaVuSans-75" x="526.576172"/>
      <use xlink:href="#DejaVuSans-6c" x="589.955078"/>
      <use xlink:href="#DejaVuSans-6c" x="617.738281"/>
      <use xlink:href="#DejaVuSans-20" x="645.521484"/>
      <use xlink:href="#DejaVuSans-52" x="677.308594"/>
      <use xlink:href="#DejaVuSans-54" x="739.541016"/>
      <use xlink:href="#DejaVuSans-4c" x="800.625"/>
      <use xlink:href="#DejaVuSans-20" x="856.337891"/>
      <use xlink:href="#DejaVuSans-53" x="888.125"/>
      <use xlink:href="#DejaVuSans-69" x="951.601562"/>
      <use xlink:href="#DejaVuSans-6d" x="979.384766"/>
      <use xlink:href="#DejaVuSans-75" x="1076.796875"/>
      <use xlink:href="#DejaVuSans-6c" x="1140.175781"/>
      <use xlink:href="#DejaVuSans-61" x="1167.958984"/>
      <use xlink:href="#DejaVuSans-74" x="1229.238281"/>
      <use xlink:href="#DejaVuSans-69" x="1268.447266"/>
      <use xlink:href="#DejaVuSans-6f" x="1296.230469"/>
      <use xlink:href="#DejaVuSans-6e" x="1357.412109"/>
      <use xlink:href="#DejaVuSans-29" x="1420.791016"/>
     </g>
    </g>
    <g id="line2d_23">
     <path d="M 372.612344 42.536563 
L 372.612344 42.536563 
L 382.612344 42.536563 
L 382.612344 42.536563 
L 392.612344 42.536563 
" style="fill: none; stroke-dasharray: 1.5,2.475; stroke-dashoffset: 0; stroke: #0000ff; stroke-width: 1.5"/>
    </g>
    <g id="text_23">
     <!-- Estimated IPC (TidalSim, no warmup) -->
     <g transform="translate(400.612344 46.036563) scale(0.1 -0.1)">
      <defs>
       <path id="DejaVuSans-45" d="M 628 4666 
L 3578 4666 
L 3578 4134 
L 1259 4134 
L 1259 2753 
L 3481 2753 
L 3481 2222 
L 1259 2222 
L 1259 531 
L 3634 531 
L 3634 0 
L 628 0 
L 628 4666 
z
" transform="scale(0.015625)"/>
       <path id="DejaVuSans-64" d="M 2906 2969 
L 2906 4863 
L 3481 4863 
L 3481 0 
L 2906 0 
L 2906 525 
Q 2725 213 2448 61 
Q 2172 -91 1784 -91 
Q 1150 -91 751 415 
Q 353 922 353 1747 
Q 353 2572 751 3078 
Q 1150 3584 1784 3584 
Q 2172 3584 2448 3432 
Q 2725 3281 2906 2969 
z
M 947 1747 
Q 947 1113 1208 752 
Q 1469 391 1925 391 
Q 2381 391 2643 752 
Q 2906 1113 2906 1747 
Q 2906 2381 2643 2742 
Q 2381 3103 1925 3103 
Q 1469 3103 1208 2742 
Q 947 2381 947 1747 
z
" transform="scale(0.015625)"/>
       <path id="DejaVuSans-2c" d="M 750 794 
L 1409 794 
L 1409 256 
L 897 -744 
L 494 -744 
L 750 256 
L 750 794 
z
" transform="scale(0.015625)"/>
       <path id="DejaVuSans-77" d="M 269 3500 
L 844 3500 
L 1563 769 
L 2278 3500 
L 2956 3500 
L 3675 769 
L 4391 3500 
L 4966 3500 
L 4050 0 
L 3372 0 
L 2619 2869 
L 1863 0 
L 1184 0 
L 269 3500 
z
" transform="scale(0.015625)"/>
       <path id="DejaVuSans-70" d="M 1159 525 
L 1159 -1331 
L 581 -1331 
L 581 3500 
L 1159 3500 
L 1159 2969 
Q 1341 3281 1617 3432 
Q 1894 3584 2278 3584 
Q 2916 3584 3314 3078 
Q 3713 2572 3713 1747 
Q 3713 922 3314 415 
Q 2916 -91 2278 -91 
Q 1894 -91 1617 61 
Q 1341 213 1159 525 
z
M 3116 1747 
Q 3116 2381 2855 2742 
Q 2594 3103 2138 3103 
Q 1681 3103 1420 2742 
Q 1159 2381 1159 1747 
Q 1159 1113 1420 752 
Q 1681 391 2138 391 
Q 2594 391 2855 752 
Q 3116 1113 3116 1747 
z
" transform="scale(0.015625)"/>
      </defs>
      <use xlink:href="#DejaVuSans-45"/>
      <use xlink:href="#DejaVuSans-73" x="63.183594"/>
      <use xlink:href="#DejaVuSans-74" x="115.283203"/>
      <use xlink:href="#DejaVuSans-69" x="154.492188"/>
      <use xlink:href="#DejaVuSans-6d" x="182.275391"/>
      <use xlink:href="#DejaVuSans-61" x="279.6875"/>
      <use xlink:href="#DejaVuSans-74" x="340.966797"/>
      <use xlink:href="#DejaVuSans-65" x="380.175781"/>
      <use xlink:href="#DejaVuSans-64" x="441.699219"/>
      <use xlink:href="#DejaVuSans-20" x="505.175781"/>
      <use xlink:href="#DejaVuSans-49" x="536.962891"/>
      <use xlink:href="#DejaVuSans-50" x="566.455078"/>
      <use xlink:href="#DejaVuSans-43" x="626.757812"/>
      <use xlink:href="#DejaVuSans-20" x="696.582031"/>
      <use xlink:href="#DejaVuSans-28" x="728.369141"/>
      <use xlink:href="#DejaVuSans-54" x="767.382812"/>
      <use xlink:href="#DejaVuSans-69" x="825.341797"/>
      <use xlink:href="#DejaVuSans-64" x="853.125"/>
      <use xlink:href="#DejaVuSans-61" x="916.601562"/>
      <use xlink:href="#DejaVuSans-6c" x="977.880859"/>
      <use xlink:href="#DejaVuSans-53" x="1005.664062"/>
      <use xlink:href="#DejaVuSans-69" x="1069.140625"/>
      <use xlink:href="#DejaVuSans-6d" x="1096.923828"/>
      <use xlink:href="#DejaVuSans-2c" x="1194.335938"/>
      <use xlink:href="#DejaVuSans-20" x="1226.123047"/>
      <use xlink:href="#DejaVuSans-6e" x="1257.910156"/>
      <use xlink:href="#DejaVuSans-6f" x="1321.289062"/>
      <use xlink:href="#DejaVuSans-20" x="1382.470703"/>
      <use xlink:href="#DejaVuSans-77" x="1414.257812"/>
      <use xlink:href="#DejaVuSans-61" x="1496.044922"/>
      <use xlink:href="#DejaVuSans-72" x="1557.324219"/>
      <use xlink:href="#DejaVuSans-6d" x="1596.6875"/>
      <use xlink:href="#DejaVuSans-75" x="1694.099609"/>
      <use xlink:href="#DejaVuSans-70" x="1757.478516"/>
      <use xlink:href="#DejaVuSans-29" x="1820.955078"/>
     </g>
    </g>
    <g id="line2d_24">
     <path d="M 372.612344 57.214688 
L 372.612344 57.214688 
L 382.612344 57.214688 
L 382.612344 57.214688 
L 392.612344 57.214688 
" style="fill: none; stroke: #0000ff; stroke-width: 2; stroke-linecap: square"/>
    </g>
    <g id="text_24">
     <!-- Estimated IPC (TidalSim, L1d warmup) -->
     <g transform="translate(400.612344 60.714688) scale(0.1 -0.1)">
      <use xlink:href="#DejaVuSans-45"/>
      <use xlink:href="#DejaVuSans-73" x="63.183594"/>
      <use xlink:href="#DejaVuSans-74" x="115.283203"/>
      <use xlink:href="#DejaVuSans-69" x="154.492188"/>
      <use xlink:href="#DejaVuSans-6d" x="182.275391"/>
      <use xlink:href="#DejaVuSans-61" x="279.6875"/>
      <use xlink:href="#DejaVuSans-74" x="340.966797"/>
      <use xlink:href="#DejaVuSans-65" x="380.175781"/>
      <use xlink:href="#DejaVuSans-64" x="441.699219"/>
      <use xlink:href="#DejaVuSans-20" x="505.175781"/>
      <use xlink:href="#DejaVuSans-49" x="536.962891"/>
      <use xlink:href="#DejaVuSans-50" x="566.455078"/>
      <use xlink:href="#DejaVuSans-43" x="626.757812"/>
      <use xlink:href="#DejaVuSans-20" x="696.582031"/>
      <use xlink:href="#DejaVuSans-28" x="728.369141"/>
      <use xlink:href="#DejaVuSans-54" x="767.382812"/>
      <use xlink:href="#DejaVuSans-69" x="825.341797"/>
      <use xlink:href="#DejaVuSans-64" x="853.125"/>
      <use xlink:href="#DejaVuSans-61" x="916.601562"/>
      <use xlink:href="#DejaVuSans-6c" x="977.880859"/>
      <use xlink:href="#DejaVuSans-53" x="1005.664062"/>
      <use xlink:href="#DejaVuSans-69" x="1069.140625"/>
      <use xlink:href="#DejaVuSans-6d" x="1096.923828"/>
      <use xlink:href="#DejaVuSans-2c" x="1194.335938"/>
      <use xlink:href="#DejaVuSans-20" x="1226.123047"/>
      <use xlink:href="#DejaVuSans-4c" x="1257.910156"/>
      <use xlink:href="#DejaVuSans-31" x="1313.623047"/>
      <use xlink:href="#DejaVuSans-64" x="1377.246094"/>
      <use xlink:href="#DejaVuSans-20" x="1440.722656"/>
      <use xlink:href="#DejaVuSans-77" x="1472.509766"/>
      <use xlink:href="#DejaVuSans-61" x="1554.296875"/>
      <use xlink:href="#DejaVuSans-72" x="1615.576172"/>
      <use xlink:href="#DejaVuSans-6d" x="1654.939453"/>
      <use xlink:href="#DejaVuSans-75" x="1752.351562"/>
      <use xlink:href="#DejaVuSans-70" x="1815.730469"/>
      <use xlink:href="#DejaVuSans-29" x="1879.207031"/>
     </g>
    </g>
   </g>
  </g>
 </g>
 <defs>
  <clipPath id="p06a8dc87b4">
   <rect x="47.81" y="14.76" width="869.425" height="303.28"/>
  </clipPath>
 </defs>
</svg>
