<svg version="1.1" viewBox="0.0 0.0 856.7716535433071 302.6692913385827" fill="none" stroke="none" stroke-linecap="square" stroke-miterlimit="10" xmlns:xlink="http://www.w3.org/1999/xlink" xmlns="http://www.w3.org/2000/svg"><clipPath id="p.0"><path d="m0 0l856.77167 0l0 302.66928l-856.77167 0l0 -302.66928z" clip-rule="nonzero"/></clipPath><g clip-path="url(#p.0)"><path fill="#000000" fill-opacity="0.0" d="m0 0l856.77167 0l0 302.66928l-856.77167 0z" fill-rule="evenodd"/><path fill="#cfe2f3" d="m13.128609 118.485794l0 0c0 -6.3057404 5.1118126 -11.417549 11.417551 -11.417549l163.87357 0c3.028122 0 5.9322205 1.2029114 8.073425 3.3441162c2.1412048 2.1412125 3.3441162 5.045311 3.3441162 8.073433l0 45.66884c0 6.3057404 -5.111801 11.4175415 -11.4175415 11.4175415l-163.87357 0c-6.3057384 0 -11.417551 -5.111801 -11.417551 -11.4175415z" fill-rule="evenodd"/><path stroke="#000000" stroke-width="2.0" stroke-linejoin="round" stroke-linecap="butt" d="m13.128609 118.485794l0 0c0 -6.3057404 5.1118126 -11.417549 11.417551 -11.417549l163.87357 0c3.028122 0 5.9322205 1.2029114 8.073425 3.3441162c2.1412048 2.1412125 3.3441162 5.045311 3.3441162 8.073433l0 45.66884c0 6.3057404 -5.111801 11.4175415 -11.4175415 11.4175415l-163.87357 0c-6.3057384 0 -11.417551 -5.111801 -11.417551 -11.4175415z" fill-rule="evenodd"/><path fill="#000000" d="m54.113113 144.23772l-1.921875 0q-0.09375 0.6875 -0.328125 1.28125q-0.21875 0.578125 -0.609375 1.015625q-0.375 0.4375 -0.9375 0.671875q-0.5625 0.234375 -1.3125 0.234375q-0.703125 0 -1.234375 -0.21875q-0.515625 -0.21875 -0.890625 -0.625q-0.390625 -0.375 -0.640625 -0.890625q-0.25 -0.515625 -0.40625 -1.09375q-0.15625 -0.578125 -0.234375 -1.171875q-0.0625 -0.59375 -0.0625 -1.15625l0 -2.140625q0 -0.5625 0.0625 -1.15625q0.078125 -0.609375 0.234375 -1.171875q0.15625 -0.578125 0.40625 -1.078125q0.265625 -0.515625 0.640625 -0.90625q0.375 -0.375 0.90625 -0.59375q0.53125 -0.234375 1.21875 -0.234375q0.75 0 1.3125 0.265625q0.5625 0.25 0.9375 0.6875q0.390625 0.453125 0.609375 1.046875q0.234375 0.59375 0.328125 1.28125l1.921875 0q-0.125 -1.078125 -0.515625 -1.96875q-0.390625 -0.90625 -1.03125 -1.546875q-0.640625 -0.640625 -1.546875 -0.984375q-0.890625 -0.359375 -2.015625 -0.359375q-0.953125 0 -1.71875 0.265625q-0.75 0.265625 -1.34375 0.734375q-0.609375 0.46875 -1.046875 1.109375q-0.421875 0.640625 -0.703125 1.390625q-0.296875 0.75 -0.4375 1.578125q-0.140625 0.8125 -0.15625 1.65625l0 2.125q0.015625 0.84375 0.15625 1.671875q0.140625 0.8125 0.4375 1.5625q0.28125 0.75 0.703125 1.390625q0.4375 0.625 1.046875 1.09375q0.59375 0.46875 1.359375 0.734375q0.765625 0.265625 1.703125 0.265625q1.09375 0 1.984375 -0.34375q0.890625 -0.34375 1.546875 -0.984375q0.640625 -0.625 1.046875 -1.5q0.40625 -0.890625 0.53125 -1.9375zm2.4395905 -1.171875l0 0.21875q0 1.21875 0.359375 2.265625q0.359375 1.046875 1.015625 1.8125q0.65625 0.765625 1.609375 1.203125q0.953125 0.4375 2.15625 0.4375q1.1875 0 2.125 -0.4375q0.953125 -0.4375 1.625 -1.203125q0.65625 -0.765625 1.0 -1.8125q0.359375 -1.046875 0.359375 -2.265625l0 -0.21875q0 -1.21875 -0.359375 -2.265625q-0.34375 -1.046875 -1.0 -1.828125q-0.671875 -0.765625 -1.625 -1.203125q-0.953125 -0.4375 -2.140625 -0.4375q-1.1875 0 -2.140625 0.4375q-0.953125 0.4375 -1.609375 1.203125q-0.65625 0.78125 -1.015625 1.828125q-0.359375 1.046875 -0.359375 2.265625zm1.9375 0.21875l0 -0.21875q0 -0.828125 0.1875 -1.578125q0.203125 -0.765625 0.609375 -1.328125q0.390625 -0.578125 0.984375 -0.90625q0.59375 -0.34375 1.40625 -0.34375q0.796875 0 1.390625 0.34375q0.609375 0.328125 1.015625 0.90625q0.390625 0.5625 0.59375 1.328125q0.203125 0.75 0.203125 1.578125l0 0.21875q0 0.84375 -0.203125 1.59375q-0.1875 0.75 -0.59375 1.328125q-0.40625 0.578125 -1.0 0.90625q-0.59375 0.328125 -1.390625 0.328125q-0.796875 0 -1.40625 -0.328125q-0.609375 -0.328125 -1.0 -0.90625q-0.40625 -0.578125 -0.609375 -1.328125q-0.1875 -0.75 -0.1875 -1.59375zm12.298965 -5.75l-1.734375 0l0 11.265625l1.828125 0l0 -8.96875q0.0625 -0.171875 0.15625 -0.3125q0.109375 -0.140625 0.25 -0.265625q0.171875 -0.140625 0.421875 -0.21875q0.265625 -0.078125 0.609375 -0.078125q0.3125 0 0.546875 0.078125q0.234375 0.078125 0.390625 0.25q0.15625 0.171875 0.234375 0.453125q0.078125 0.265625 0.078125 0.609375l0 8.453125l1.84375 0l0 -8.4375q0 -0.0625 0 -0.109375q0 -0.046875 0 -0.09375q0.03125 -0.265625 0.125 -0.46875q0.09375 -0.21875 0.25 -0.390625q0.171875 -0.15625 0.421875 -0.25q0.25 -0.09375 0.59375 -0.09375q0.328125 0 0.5625 0.09375q0.25 0.078125 0.421875 0.234375q0.15625 0.1875 0.234375 0.453125q0.078125 0.265625 0.078125 0.625l0 8.4375l1.828125 0l0 -8.421875q0 -0.8125 -0.1875 -1.40625q-0.1875 -0.59375 -0.53125 -0.96875q-0.328125 -0.328125 -0.796875 -0.5q-0.46875 -0.171875 -1.046875 -0.171875q-0.421875 0 -0.78125 0.109375q-0.359375 0.109375 -0.65625 0.28125q-0.234375 0.15625 -0.4375 0.359375q-0.1875 0.203125 -0.328125 0.453125q-0.125 -0.265625 -0.28125 -0.46875q-0.15625 -0.203125 -0.359375 -0.359375q-0.265625 -0.1875 -0.625 -0.28125q-0.359375 -0.09375 -0.8125 -0.09375q-0.796875 0 -1.359375 0.34375q-0.546875 0.328125 -0.890625 0.921875l-0.046875 -1.0625zm12.798965 0l-1.734375 0l0 11.265625l1.828125 0l0 -8.96875q0.0625 -0.171875 0.15625 -0.3125q0.109375 -0.140625 0.25 -0.265625q0.171875 -0.140625 0.421875 -0.21875q0.265625 -0.078125 0.609375 -0.078125q0.3125 0 0.546875 0.078125q0.234375 0.078125 0.390625 0.25q0.15625 0.171875 0.234375 0.453125q0.078125 0.265625 0.078125 0.609375l0 8.453125l1.84375 0l0 -8.4375q0 -0.0625 0 -0.109375q0 -0.046875 0 -0.09375q0.03125 -0.265625 0.125 -0.46875q0.09375 -0.21875 0.25 -0.390625q0.171875 -0.15625 0.421875 -0.25q0.25 -0.09375 0.59375 -0.09375q0.328125 0 0.5625 0.09375q0.25 0.078125 0.421875 0.234375q0.15625 0.1875 0.234375 0.453125q0.078125 0.265625 0.078125 0.625l0 8.4375l1.828125 0l0 -8.421875q0 -0.8125 -0.1875 -1.40625q-0.1875 -0.59375 -0.53125 -0.96875q-0.328125 -0.328125 -0.796875 -0.5q-0.46875 -0.171875 -1.046875 -0.171875q-0.421875 0 -0.78125 0.109375q-0.359375 0.109375 -0.65625 0.28125q-0.234375 0.15625 -0.4375 0.359375q-0.1875 0.203125 -0.328125 0.453125q-0.125 -0.265625 -0.28125 -0.46875q-0.15625 -0.203125 -0.359375 -0.359375q-0.265625 -0.1875 -0.625 -0.28125q-0.359375 -0.09375 -0.8125 -0.09375q-0.796875 0 -1.359375 0.34375q-0.546875 0.328125 -0.890625 0.921875l-0.046875 -1.0625zm19.31459 11.265625l2.0 0l0 -0.171875q-0.1875 -0.46875 -0.296875 -1.09375q-0.09375 -0.625 -0.09375 -1.1875l0 -5.25q0 -0.9375 -0.34375 -1.640625q-0.34375 -0.71875 -0.9375 -1.203125q-0.59375 -0.453125 -1.421875 -0.6875q-0.828125 -0.234375 -1.78125 -0.234375q-1.046875 0 -1.875 0.296875q-0.828125 0.28125 -1.40625 0.75q-0.578125 0.46875 -0.890625 1.0625q-0.3125 0.59375 -0.3125 1.21875l1.9375 0q0 -0.359375 0.171875 -0.6875q0.171875 -0.328125 0.484375 -0.5625q0.3125 -0.25 0.765625 -0.390625q0.453125 -0.140625 1.015625 -0.140625q0.625 0 1.109375 0.15625q0.5 0.15625 0.84375 0.4375q0.34375 0.28125 0.53125 0.6875q0.1875 0.40625 0.1875 0.921875l0 0.890625l-2.109375 0q-1.171875 0 -2.125 0.234375q-0.953125 0.21875 -1.625 0.671875q-0.6875 0.46875 -1.0625 1.171875q-0.359375 0.703125 -0.359375 1.625q0 0.703125 0.265625 1.3125q0.28125 0.609375 0.796875 1.046875q0.5 0.453125 1.21875 0.71875q0.734375 0.25 1.625 0.25q0.546875 0 1.03125 -0.109375q0.5 -0.109375 0.9375 -0.3125q0.421875 -0.203125 0.78125 -0.453125q0.359375 -0.265625 0.65625 -0.5625q0.03125 0.359375 0.09375 0.6875q0.078125 0.328125 0.1875 0.546875zm-3.40625 -1.46875q-0.5625 0 -1.0 -0.140625q-0.421875 -0.15625 -0.703125 -0.40625q-0.28125 -0.25 -0.421875 -0.609375q-0.140625 -0.359375 -0.140625 -0.765625q0 -0.4375 0.15625 -0.78125q0.171875 -0.34375 0.484375 -0.59375q0.4375 -0.359375 1.171875 -0.53125q0.75 -0.171875 1.75 -0.171875l1.796875 0l0 2.28125q-0.171875 0.328125 -0.46875 0.640625q-0.28125 0.3125 -0.671875 0.546875q-0.40625 0.234375 -0.90625 0.390625q-0.484375 0.140625 -1.046875 0.140625zm8.798965 1.46875l1.921875 0l0 -8.078125q0.203125 -0.375 0.46875 -0.671875q0.265625 -0.296875 0.578125 -0.53125q0.390625 -0.265625 0.84375 -0.40625q0.453125 -0.15625 0.984375 -0.15625q0.625 0 1.09375 0.15625q0.46875 0.140625 0.8125 0.453125q0.3125 0.328125 0.484375 0.859375q0.171875 0.515625 0.171875 1.265625l0 7.109375l1.921875 0l0 -7.15625q0 -1.125 -0.28125 -1.9375q-0.265625 -0.828125 -0.78125 -1.359375q-0.515625 -0.515625 -1.234375 -0.765625q-0.71875 -0.25 -1.609375 -0.25q-0.65625 0 -1.25 0.1875q-0.578125 0.1875 -1.078125 0.515625q-0.34375 0.21875 -0.640625 0.515625q-0.296875 0.296875 -0.546875 0.640625l-0.125 -1.65625l-1.734375 0l0 11.265625zm12.43959 -5.734375l0 0.21875q0 1.21875 0.3125 2.265625q0.328125 1.046875 0.90625 1.8125q0.59375 0.765625 1.421875 1.203125q0.828125 0.4375 1.84375 0.4375q1.046875 0 1.828125 -0.34375q0.78125 -0.359375 1.34375 -1.046875l0.078125 1.1875l1.765625 0l0 -16.0l-1.921875 0l0 5.84375q-0.546875 -0.640625 -1.3125 -0.96875q-0.75 -0.34375 -1.765625 -0.34375q-1.03125 0 -1.859375 0.421875q-0.828125 0.421875 -1.421875 1.1875q-0.59375 0.75 -0.90625 1.8125q-0.3125 1.0625 -0.3125 2.3125zm1.921875 0.21875l0 -0.21875q0 -0.8125 0.171875 -1.5625q0.1875 -0.75 0.5625 -1.3125q0.359375 -0.5625 0.9375 -0.890625q0.578125 -0.34375 1.390625 -0.34375q0.953125 0 1.578125 0.453125q0.640625 0.4375 1.015625 1.125l0 5.21875q-0.375 0.75 -1.015625 1.1875q-0.625 0.4375 -1.59375 0.4375q-0.8125 0 -1.390625 -0.328125q-0.5625 -0.328125 -0.921875 -0.890625q-0.375 -0.5625 -0.5625 -1.296875q-0.171875 -0.75 -0.171875 -1.578125zm17.986465 -10.234375l0 -1.578125l-4.125 0l0 20.578125l4.125 0l0 -1.578125l-2.296875 0l0 -17.421875l2.296875 0zm11.06459 9.5625l2.984375 6.1875l2.03125 0l0 -0.125l-3.203125 -6.484375q0.625 -0.265625 1.140625 -0.640625q0.515625 -0.390625 0.890625 -0.890625q0.375 -0.5 0.578125 -1.109375q0.21875 -0.625 0.21875 -1.359375q0 -1.140625 -0.40625 -1.984375q-0.390625 -0.859375 -1.078125 -1.421875q-0.71875 -0.5625 -1.65625 -0.84375q-0.9375 -0.28125 -2.0 -0.296875l-4.4375 0l0 15.15625l1.90625 0l0 -6.1875l3.03125 0zm-3.03125 -1.578125l0 -5.8125l2.53125 0q0.703125 0.015625 1.28125 0.203125q0.59375 0.1875 1.03125 0.546875q0.421875 0.375 0.65625 0.921875q0.25 0.546875 0.25 1.265625q0 0.6875 -0.25 1.21875q-0.25 0.53125 -0.6875 0.890625q-0.4375 0.359375 -1.015625 0.5625q-0.5625 0.1875 -1.203125 0.203125l-2.59375 0zm13.220856 -9.5625l0 1.578125l2.3125 0l0 17.421875l-2.3125 0l0 1.578125l4.140625 0l0 -20.578125l-4.140625 0z" fill-rule="nonzero"/><path fill="#d9ead3" d="m241.49081 79.19423l332.47244 0l0 124.25197l-332.47244 0z" fill-rule="evenodd"/><path stroke="#000000" stroke-width="2.0" stroke-linejoin="round" stroke-linecap="butt" d="m241.49081 79.19423l332.47244 0l0 124.25197l-332.47244 0z" fill-rule="evenodd"/><path fill="#000000" d="m355.84418 132.80022l0 -15.265633l3.09375 0l0 15.265633l-3.09375 0zm16.066284 0l-2.921875 0l0 -5.6406326q0 -1.796875 -0.1875 -2.3125q-0.1875 -0.53125 -0.609375 -0.828125q-0.421875 -0.296875 -1.015625 -0.296875q-0.765625 0 -1.375 0.421875q-0.59375 0.421875 -0.828125 1.109375q-0.21875 0.6875 -0.21875 2.53125l0 5.0156326l-2.921875 0l0 -11.062508l2.71875 0l0 1.625q1.4375 -1.875 3.640625 -1.875q0.96875 0 1.765625 0.359375q0.8125 0.34375 1.21875 0.890625q0.40625 0.53125 0.5625 1.21875q0.171875 0.6875 0.171875 1.96875l0 6.8750076zm8.043701 -11.062508l0 2.328125l-2.0 0l0 4.4687576q0 1.34375 0.046875 1.578125q0.0625 0.21875 0.265625 0.375q0.203125 0.140625 0.5 0.140625q0.40625 0 1.171875 -0.28125l0.25 2.265625q-1.015625 0.4375 -2.3125 0.4375q-0.796875 0 -1.4375 -0.265625q-0.625 -0.265625 -0.921875 -0.6875q-0.296875 -0.421875 -0.40625 -1.140625q-0.09375 -0.515625 -0.09375 -2.0625l0 -4.8281326l-1.34375 0l0 -2.328125l1.34375 0l0 -2.1875l2.9375 -1.71875l0 3.90625l2.0 0zm8.430542 7.5468826l2.90625 0.484375q-0.546875 1.609375 -1.765625 2.453125q-1.21875 0.828125 -3.03125 0.828125q-2.890625 0 -4.28125 -1.890625q-1.09375 -1.5 -1.09375 -3.8125076q0 -2.75 1.4375 -4.296875q1.4375 -1.5625 3.640625 -1.5625q2.46875 0 3.890625 1.640625q1.421875 1.625 1.359375 4.9843826l-7.328125 0q0.03125 1.296875 0.703125 2.03125q0.6875 0.71875 1.703125 0.71875q0.6875 0 1.15625 -0.375q0.46875 -0.375 0.703125 -1.203125zm0.171875 -2.9687576q-0.03125 -1.265625 -0.65625 -1.921875q-0.625 -0.671875 -1.53125 -0.671875q-0.953125 0 -1.578125 0.703125q-0.625 0.703125 -0.609375 1.890625l4.375 0zm8.080444 6.4843826l-2.921875 0l0 -11.062508l2.71875 0l0 1.578125q0.703125 -1.125 1.25 -1.46875q0.5625 -0.359375 1.265625 -0.359375q1.0 0 1.9375 0.5625l-0.90625 2.546875q-0.75 -0.484375 -1.375 -0.484375q-0.625 0 -1.046875 0.34375q-0.421875 0.328125 -0.671875 1.21875q-0.25 0.890625 -0.25 3.7031326l0 3.421875zm5.4250793 -11.062508l2.71875 0l0 1.625q0.53125 -0.828125 1.4375 -1.34375q0.90625 -0.53125 2.015625 -0.53125q1.921875 0 3.265625 1.515625q1.34375 1.5 1.34375 4.203125q0 2.7656326 -1.359375 4.3125076q-1.34375 1.53125 -3.265625 1.53125q-0.921875 0 -1.671875 -0.359375q-0.734375 -0.375 -1.5625 -1.25l0 5.5625l-2.921875 0l0 -15.265633zm2.890625 5.34375q0 1.8593826 0.734375 2.7500076q0.75 0.890625 1.8125 0.890625q1.015625 0 1.6875 -0.8125q0.6875 -0.8125 0.6875 -2.6875076q0 -1.734375 -0.703125 -2.578125q-0.703125 -0.84375 -1.734375 -0.84375q-1.0625 0 -1.78125 0.828125q-0.703125 0.828125 -0.703125 2.453125zm13.012451 5.7187576l-2.921875 0l0 -11.062508l2.71875 0l0 1.578125q0.703125 -1.125 1.25 -1.46875q0.5625 -0.359375 1.265625 -0.359375q1.0 0 1.9375 0.5625l-0.90625 2.546875q-0.75 -0.484375 -1.375 -0.484375q-0.625 0 -1.046875 0.34375q-0.421875 0.328125 -0.671875 1.21875q-0.25 0.890625 -0.25 3.7031326l0 3.421875zm11.909424 -3.515625l2.90625 0.484375q-0.546875 1.609375 -1.765625 2.453125q-1.21875 0.828125 -3.03125 0.828125q-2.890625 0 -4.28125 -1.890625q-1.09375 -1.5 -1.09375 -3.8125076q0 -2.75 1.4375 -4.296875q1.4375 -1.5625 3.640625 -1.5625q2.46875 0 3.890625 1.640625q1.421875 1.625 1.359375 4.9843826l-7.328125 0q0.03125 1.296875 0.703125 2.03125q0.6875 0.71875 1.703125 0.71875q0.6875 0 1.15625 -0.375q0.46875 -0.375 0.703125 -1.203125zm0.171875 -2.9687576q-0.03125 -1.265625 -0.65625 -1.921875q-0.625 -0.671875 -1.53125 -0.671875q-0.953125 0 -1.578125 0.703125q-0.625 0.703125 -0.609375 1.890625l4.375 0zm10.361694 -4.578125l0 2.328125l-2.0 0l0 4.4687576q0 1.34375 0.046875 1.578125q0.0625 0.21875 0.265625 0.375q0.203125 0.140625 0.5 0.140625q0.40625 0 1.171875 -0.28125l0.25 2.265625q-1.015625 0.4375 -2.3125 0.4375q-0.796875 0 -1.4375 -0.265625q-0.625 -0.265625 -0.921875 -0.6875q-0.296875 -0.421875 -0.40625 -1.140625q-0.09375 -0.515625 -0.09375 -2.0625l0 -4.8281326l-1.34375 0l0 -2.328125l1.34375 0l0 -2.1875l2.9375 -1.71875l0 3.90625l2.0 0zm8.4305725 7.5468826l2.90625 0.484375q-0.546875 1.609375 -1.765625 2.453125q-1.21875 0.828125 -3.03125 0.828125q-2.890625 0 -4.28125 -1.890625q-1.09375 -1.5 -1.09375 -3.8125076q0 -2.75 1.4375 -4.296875q1.4375 -1.5625 3.640625 -1.5625q2.46875 0 3.890625 1.640625q1.421875 1.625 1.359375 4.9843826l-7.328125 0q0.03125 1.296875 0.703125 2.03125q0.6875 0.71875 1.703125 0.71875q0.6875 0 1.15625 -0.375q0.46875 -0.375 0.703125 -1.203125zm0.171875 -2.9687576q-0.03125 -1.265625 -0.65625 -1.921875q-0.625 -0.671875 -1.53125 -0.671875q-0.953125 0 -1.578125 0.703125q-0.625 0.703125 -0.609375 1.890625l4.375 0zm8.080444 6.4843826l-2.921875 0l0 -11.062508l2.71875 0l0 1.578125q0.703125 -1.125 1.25 -1.46875q0.5625 -0.359375 1.265625 -0.359375q1.0 0 1.9375 0.5625l-0.90625 2.546875q-0.75 -0.484375 -1.375 -0.484375q-0.625 0 -1.046875 0.34375q-0.421875 0.328125 -0.671875 1.21875q-0.25 0.890625 -0.25 3.7031326l0 3.421875z" fill-rule="nonzero"/><path fill="#000000" d="m282.54102 150.33147q-1.234375 0 -2.203125 0.53125q-0.953125 0.53125 -1.640625 1.453125l-0.015625 -0.28125l-0.078125 -1.5l-1.84375 0l0 11.265625l1.9375 0l0 -7.234375q0.1875 -0.515625 0.46875 -0.9375q0.296875 -0.421875 0.6875 -0.71875q0.421875 -0.328125 0.984375 -0.5q0.578125 -0.171875 1.296875 -0.171875q0.546875 0 1.046875 0.0625q0.515625 0.046875 1.0625 0.171875l0.265625 -1.875q-0.296875 -0.125 -0.875 -0.1875q-0.5625 -0.078125 -1.09375 -0.078125zm12.830231 11.46875l1.75 0l0 -11.265625l-1.9375 0l0 8.078125q-0.15625 0.359375 -0.390625 0.671875q-0.234375 0.3125 -0.546875 0.53125q-0.375 0.265625 -0.890625 0.421875q-0.5 0.140625 -1.140625 0.140625q-0.5625 0 -0.984375 -0.140625q-0.421875 -0.140625 -0.703125 -0.515625q-0.296875 -0.34375 -0.453125 -0.953125q-0.140625 -0.609375 -0.140625 -1.515625l0 -6.71875l-1.921875 0l0 6.6875q0 1.265625 0.265625 2.171875q0.28125 0.890625 0.796875 1.484375q0.515625 0.578125 1.234375 0.859375q0.71875 0.265625 1.59375 0.265625q1.109375 0 1.953125 -0.453125q0.84375 -0.46875 1.40625 -1.296875l0.109375 1.546875zm5.377075 0l1.921875 0l0 -8.078125q0.203125 -0.375 0.46875 -0.671875q0.265625 -0.296875 0.578125 -0.53125q0.390625 -0.265625 0.84375 -0.40625q0.453125 -0.15625 0.984375 -0.15625q0.625 0 1.09375 0.15625q0.46875 0.140625 0.8125 0.453125q0.3125 0.328125 0.484375 0.859375q0.171875 0.515625 0.171875 1.265625l0 7.109375l1.921875 0l0 -7.15625q0 -1.125 -0.28125 -1.9375q-0.265625 -0.828125 -0.78125 -1.359375q-0.515625 -0.515625 -1.234375 -0.765625q-0.71875 -0.25 -1.609375 -0.25q-0.65625 0 -1.25 0.1875q-0.578125 0.1875 -1.078125 0.515625q-0.34375 0.21875 -0.640625 0.515625q-0.296875 0.296875 -0.546875 0.640625l-0.125 -1.65625l-1.734375 0l0 11.265625zm14.705231 -6.15625l0 0.109375q0 1.484375 0.234375 2.796875q0.234375 1.3125 0.625 2.421875q0.390625 1.125 0.90625 2.046875q0.515625 0.921875 1.09375 1.640625q0.5625 0.734375 1.140625 1.234375q0.578125 0.515625 1.09375 0.796875l0.40625 -1.171875q-0.421875 -0.34375 -0.84375 -0.828125q-0.421875 -0.484375 -0.828125 -1.109375q-0.375 -0.65625 -0.734375 -1.484375q-0.359375 -0.828125 -0.625 -1.796875q-0.25 -0.953125 -0.40625 -2.09375q-0.140625 -1.140625 -0.140625 -2.4375l0 -0.140625q0 -1.359375 0.15625 -2.53125q0.15625 -1.1875 0.4375 -2.15625q0.296875 -1.078125 0.734375 -1.984375q0.4375 -0.921875 0.921875 -1.59375q0.3125 -0.4375 0.65625 -0.796875q0.34375 -0.359375 0.671875 -0.609375l-0.40625 -1.265625q-0.515625 0.296875 -1.09375 0.8125q-0.578125 0.5 -1.140625 1.21875q-0.5625 0.71875 -1.078125 1.65625q-0.515625 0.921875 -0.921875 2.03125q-0.390625 1.125 -0.625 2.4375q-0.234375 1.3125 -0.234375 2.796875zm15.689575 4.796875q-0.90625 0 -1.515625 -0.359375q-0.609375 -0.359375 -0.96875 -0.9375q-0.375 -0.578125 -0.546875 -1.296875q-0.15625 -0.71875 -0.15625 -1.46875l0 -0.4375q0 -0.71875 0.15625 -1.4375q0.171875 -0.71875 0.546875 -1.3125q0.375 -0.5625 0.984375 -0.921875q0.609375 -0.359375 1.5 -0.359375q0.59375 0 1.09375 0.203125q0.5 0.1875 0.875 0.53125q0.359375 0.34375 0.5625 0.796875q0.21875 0.453125 0.234375 0.96875l1.8125 0q0 -0.859375 -0.34375 -1.609375q-0.328125 -0.75 -0.9375 -1.296875q-0.609375 -0.546875 -1.453125 -0.859375q-0.84375 -0.3125 -1.84375 -0.3125q-1.28125 0 -2.234375 0.453125q-0.953125 0.453125 -1.59375 1.21875q-0.640625 0.78125 -0.96875 1.8125q-0.328125 1.015625 -0.328125 2.125l0 0.4375q0 1.125 0.328125 2.140625q0.328125 1.015625 0.96875 1.796875q0.640625 0.78125 1.59375 1.234375q0.953125 0.453125 2.234375 0.453125q0.90625 0 1.71875 -0.296875q0.828125 -0.3125 1.46875 -0.828125q0.625 -0.515625 1.0 -1.1875q0.390625 -0.6875 0.390625 -1.4375l-1.8125 0q-0.015625 0.46875 -0.25 0.875q-0.234375 0.390625 -0.609375 0.6875q-0.390625 0.296875 -0.890625 0.46875q-0.484375 0.15625 -1.015625 0.15625zm11.877106 0.109375q0 0.609375 0.375 1.03125q0.375 0.421875 1.125 0.421875q0.75 0 1.140625 -0.421875q0.390625 -0.421875 0.390625 -1.03125q0 -0.625 -0.390625 -1.046875q-0.390625 -0.4375 -1.140625 -0.4375q-0.75 0 -1.125 0.4375q-0.375 0.4375 -0.375 1.046875zm0 -9.125q0 0.609375 0.375 1.03125q0.375 0.421875 1.125 0.421875q0.75 0 1.140625 -0.421875q0.390625 -0.421875 0.390625 -1.03125q0 -0.625 -0.390625 -1.046875q-0.390625 -0.4375 -1.140625 -0.4375q-0.75 0 -1.125 0.4375q-0.375 0.4375 -0.375 1.046875zm31.53543 5.8125l-1.921875 0q-0.09375 0.6875 -0.328125 1.28125q-0.21875 0.578125 -0.609375 1.015625q-0.375 0.4375 -0.9375 0.671875q-0.5625 0.234375 -1.3125 0.234375q-0.703125 0 -1.234375 -0.21875q-0.515625 -0.21875 -0.890625 -0.625q-0.390625 -0.375 -0.640625 -0.890625q-0.25 -0.515625 -0.40625 -1.09375q-0.15625 -0.578125 -0.234375 -1.171875q-0.0625 -0.59375 -0.0625 -1.15625l0 -2.140625q0 -0.5625 0.0625 -1.15625q0.078125 -0.609375 0.234375 -1.171875q0.15625 -0.578125 0.40625 -1.078125q0.265625 -0.515625 0.640625 -0.90625q0.375 -0.375 0.90625 -0.59375q0.53125 -0.234375 1.21875 -0.234375q0.75 0 1.3125 0.265625q0.5625 0.25 0.9375 0.6875q0.390625 0.453125 0.609375 1.046875q0.234375 0.59375 0.328125 1.28125l1.921875 0q-0.125 -1.078125 -0.515625 -1.96875q-0.390625 -0.90625 -1.03125 -1.546875q-0.640625 -0.640625 -1.546875 -0.984375q-0.890625 -0.359375 -2.015625 -0.359375q-0.953125 0 -1.71875 0.265625q-0.75 0.265625 -1.34375 0.734375q-0.609375 0.46875 -1.046875 1.109375q-0.421875 0.640625 -0.703125 1.390625q-0.296875 0.75 -0.4375 1.578125q-0.140625 0.8125 -0.15625 1.65625l0 2.125q0.015625 0.84375 0.15625 1.671875q0.140625 0.8125 0.4375 1.5625q0.28125 0.75 0.703125 1.390625q0.4375 0.625 1.046875 1.09375q0.59375 0.46875 1.359375 0.734375q0.765625 0.265625 1.703125 0.265625q1.09375 0 1.984375 -0.34375q0.890625 -0.34375 1.546875 -0.984375q0.640625 -0.625 1.046875 -1.5q0.40625 -0.890625 0.53125 -1.9375zm2.4395752 -1.171875l0 0.21875q0 1.21875 0.359375 2.265625q0.359375 1.046875 1.015625 1.8125q0.65625 0.765625 1.609375 1.203125q0.953125 0.4375 2.15625 0.4375q1.1875 0 2.125 -0.4375q0.953125 -0.4375 1.625 -1.203125q0.65625 -0.765625 1.0 -1.8125q0.359375 -1.046875 0.359375 -2.265625l0 -0.21875q0 -1.21875 -0.359375 -2.265625q-0.34375 -1.046875 -1.0 -1.828125q-0.671875 -0.765625 -1.625 -1.203125q-0.953125 -0.4375 -2.140625 -0.4375q-1.1875 0 -2.140625 0.4375q-0.953125 0.4375 -1.609375 1.203125q-0.65625 0.78125 -1.015625 1.828125q-0.359375 1.046875 -0.359375 2.265625zm1.9375 0.21875l0 -0.21875q0 -0.828125 0.1875 -1.578125q0.203125 -0.765625 0.609375 -1.328125q0.390625 -0.578125 0.984375 -0.90625q0.59375 -0.34375 1.40625 -0.34375q0.796875 0 1.390625 0.34375q0.609375 0.328125 1.015625 0.90625q0.390625 0.5625 0.59375 1.328125q0.203125 0.75 0.203125 1.578125l0 0.21875q0 0.84375 -0.203125 1.59375q-0.1875 0.75 -0.59375 1.328125q-0.40625 0.578125 -1.0 0.90625q-0.59375 0.328125 -1.390625 0.328125q-0.796875 0 -1.40625 -0.328125q-0.609375 -0.328125 -1.0 -0.90625q-0.40625 -0.578125 -0.609375 -1.328125q-0.1875 -0.75 -0.1875 -1.59375zm12.298981 -5.75l-1.734375 0l0 11.265625l1.828125 0l0 -8.96875q0.0625 -0.171875 0.15625 -0.3125q0.109375 -0.140625 0.25 -0.265625q0.171875 -0.140625 0.421875 -0.21875q0.265625 -0.078125 0.609375 -0.078125q0.3125 0 0.546875 0.078125q0.234375 0.078125 0.390625 0.25q0.15625 0.171875 0.234375 0.453125q0.078125 0.265625 0.078125 0.609375l0 8.453125l1.84375 0l0 -8.4375q0 -0.0625 0 -0.109375q0 -0.046875 0 -0.09375q0.03125 -0.265625 0.125 -0.46875q0.09375 -0.21875 0.25 -0.390625q0.171875 -0.15625 0.421875 -0.25q0.25 -0.09375 0.59375 -0.09375q0.328125 0 0.5625 0.09375q0.25 0.078125 0.421875 0.234375q0.15625 0.1875 0.234375 0.453125q0.078125 0.265625 0.078125 0.625l0 8.4375l1.828125 0l0 -8.421875q0 -0.8125 -0.1875 -1.40625q-0.1875 -0.59375 -0.53125 -0.96875q-0.328125 -0.328125 -0.796875 -0.5q-0.46875 -0.171875 -1.046875 -0.171875q-0.421875 0 -0.78125 0.109375q-0.359375 0.109375 -0.65625 0.28125q-0.234375 0.15625 -0.4375 0.359375q-0.1875 0.203125 -0.328125 0.453125q-0.125 -0.265625 -0.28125 -0.46875q-0.15625 -0.203125 -0.359375 -0.359375q-0.265625 -0.1875 -0.625 -0.28125q-0.359375 -0.09375 -0.8125 -0.09375q-0.796875 0 -1.359375 0.34375q-0.546875 0.328125 -0.890625 0.921875l-0.046875 -1.0625zm12.79895 0l-1.734375 0l0 11.265625l1.828125 0l0 -8.96875q0.0625 -0.171875 0.15625 -0.3125q0.109375 -0.140625 0.25 -0.265625q0.171875 -0.140625 0.421875 -0.21875q0.265625 -0.078125 0.609375 -0.078125q0.3125 0 0.546875 0.078125q0.234375 0.078125 0.390625 0.25q0.15625 0.171875 0.234375 0.453125q0.078125 0.265625 0.078125 0.609375l0 8.453125l1.84375 0l0 -8.4375q0 -0.0625 0 -0.109375q0 -0.046875 0 -0.09375q0.03125 -0.265625 0.125 -0.46875q0.09375 -0.21875 0.25 -0.390625q0.171875 -0.15625 0.421875 -0.25q0.25 -0.09375 0.59375 -0.09375q0.328125 0 0.5625 0.09375q0.25 0.078125 0.421875 0.234375q0.15625 0.1875 0.234375 0.453125q0.078125 0.265625 0.078125 0.625l0 8.4375l1.828125 0l0 -8.421875q0 -0.8125 -0.1875 -1.40625q-0.1875 -0.59375 -0.53125 -0.96875q-0.328125 -0.328125 -0.796875 -0.5q-0.46875 -0.171875 -1.046875 -0.171875q-0.421875 0 -0.78125 0.109375q-0.359375 0.109375 -0.65625 0.28125q-0.234375 0.15625 -0.4375 0.359375q-0.1875 0.203125 -0.328125 0.453125q-0.125 -0.265625 -0.28125 -0.46875q-0.15625 -0.203125 -0.359375 -0.359375q-0.265625 -0.1875 -0.625 -0.28125q-0.359375 -0.09375 -0.8125 -0.09375q-0.796875 0 -1.359375 0.34375q-0.546875 0.328125 -0.890625 0.921875l-0.046875 -1.0625zm19.314606 11.265625l2.0 0l0 -0.171875q-0.1875 -0.46875 -0.296875 -1.09375q-0.09375 -0.625 -0.09375 -1.1875l0 -5.25q0 -0.9375 -0.34375 -1.640625q-0.34375 -0.71875 -0.9375 -1.203125q-0.59375 -0.453125 -1.421875 -0.6875q-0.828125 -0.234375 -1.78125 -0.234375q-1.046875 0 -1.875 0.296875q-0.828125 0.28125 -1.40625 0.75q-0.578125 0.46875 -0.890625 1.0625q-0.3125 0.59375 -0.3125 1.21875l1.9375 0q0 -0.359375 0.171875 -0.6875q0.171875 -0.328125 0.484375 -0.5625q0.3125 -0.25 0.765625 -0.390625q0.453125 -0.140625 1.015625 -0.140625q0.625 0 1.109375 0.15625q0.5 0.15625 0.84375 0.4375q0.34375 0.28125 0.53125 0.6875q0.1875 0.40625 0.1875 0.921875l0 0.890625l-2.109375 0q-1.171875 0 -2.125 0.234375q-0.953125 0.21875 -1.625 0.671875q-0.6875 0.46875 -1.0625 1.171875q-0.359375 0.703125 -0.359375 1.625q0 0.703125 0.265625 1.3125q0.28125 0.609375 0.796875 1.046875q0.5 0.453125 1.21875 0.71875q0.734375 0.25 1.625 0.25q0.546875 0 1.03125 -0.109375q0.5 -0.109375 0.9375 -0.3125q0.421875 -0.203125 0.78125 -0.453125q0.359375 -0.265625 0.65625 -0.5625q0.03125 0.359375 0.09375 0.6875q0.078125 0.328125 0.1875 0.546875zm-3.40625 -1.46875q-0.5625 0 -1.0 -0.140625q-0.421875 -0.15625 -0.703125 -0.40625q-0.28125 -0.25 -0.421875 -0.609375q-0.140625 -0.359375 -0.140625 -0.765625q0 -0.4375 0.15625 -0.78125q0.171875 -0.34375 0.484375 -0.59375q0.4375 -0.359375 1.171875 -0.53125q0.75 -0.171875 1.75 -0.171875l1.796875 0l0 2.28125q-0.171875 0.328125 -0.46875 0.640625q-0.28125 0.3125 -0.671875 0.546875q-0.40625 0.234375 -0.90625 0.390625q-0.484375 0.140625 -1.046875 0.140625zm8.79895 1.46875l1.921875 0l0 -8.078125q0.203125 -0.375 0.46875 -0.671875q0.265625 -0.296875 0.578125 -0.53125q0.390625 -0.265625 0.84375 -0.40625q0.453125 -0.15625 0.984375 -0.15625q0.625 0 1.09375 0.15625q0.46875 0.140625 0.8125 0.453125q0.3125 0.328125 0.484375 0.859375q0.171875 0.515625 0.171875 1.265625l0 7.109375l1.921875 0l0 -7.15625q0 -1.125 -0.28125 -1.9375q-0.265625 -0.828125 -0.78125 -1.359375q-0.515625 -0.515625 -1.234375 -0.765625q-0.71875 -0.25 -1.609375 -0.25q-0.65625 0 -1.25 0.1875q-0.578125 0.1875 -1.078125 0.515625q-0.34375 0.21875 -0.640625 0.515625q-0.296875 0.296875 -0.546875 0.640625l-0.125 -1.65625l-1.734375 0l0 11.265625zm12.439606 -5.734375l0 0.21875q0 1.21875 0.3125 2.265625q0.328125 1.046875 0.90625 1.8125q0.59375 0.765625 1.421875 1.203125q0.828125 0.4375 1.84375 0.4375q1.046875 0 1.828125 -0.34375q0.78125 -0.359375 1.34375 -1.046875l0.078125 1.1875l1.765625 0l0 -16.0l-1.921875 0l0 5.84375q-0.546875 -0.640625 -1.3125 -0.96875q-0.75 -0.34375 -1.765625 -0.34375q-1.03125 0 -1.859375 0.421875q-0.828125 0.421875 -1.421875 1.1875q-0.59375 0.75 -0.90625 1.8125q-0.3125 1.0625 -0.3125 2.3125zm1.921875 0.21875l0 -0.21875q0 -0.8125 0.171875 -1.5625q0.1875 -0.75 0.5625 -1.3125q0.359375 -0.5625 0.9375 -0.890625q0.578125 -0.34375 1.390625 -0.34375q0.953125 0 1.578125 0.453125q0.640625 0.4375 1.015625 1.125l0 5.21875q-0.375 0.75 -1.015625 1.1875q-0.625 0.4375 -1.59375 0.4375q-0.8125 0 -1.390625 -0.328125q-0.5625 -0.328125 -0.921875 -0.890625q-0.375 -0.5625 -0.5625 -1.296875q-0.171875 -0.75 -0.171875 -1.578125zm17.98645 -10.234375l0 -1.578125l-4.125 0l0 20.578125l4.125 0l0 -1.578125l-2.296875 0l0 -17.421875l2.296875 0zm11.064606 9.5625l2.984375 6.1875l2.03125 0l0 -0.125l-3.203125 -6.484375q0.625 -0.265625 1.140625 -0.640625q0.515625 -0.390625 0.890625 -0.890625q0.375 -0.5 0.578125 -1.109375q0.21875 -0.625 0.21875 -1.359375q0 -1.140625 -0.40625 -1.984375q-0.390625 -0.859375 -1.078125 -1.421875q-0.71875 -0.5625 -1.65625 -0.84375q-0.9375 -0.28125 -2.0 -0.296875l-4.4375 0l0 15.15625l1.90625 0l0 -6.1875l3.03125 0zm-3.03125 -1.578125l0 -5.8125l2.53125 0q0.703125 0.015625 1.28125 0.203125q0.59375 0.1875 1.03125 0.546875q0.421875 0.375 0.65625 0.921875q0.25 0.546875 0.25 1.265625q0 0.6875 -0.25 1.21875q-0.25 0.53125 -0.6875 0.890625q-0.4375 0.359375 -1.015625 0.5625q-0.5625 0.1875 -1.203125 0.203125l-2.59375 0zm13.220825 -9.5625l0 1.578125l2.3125 0l0 17.421875l-2.3125 0l0 1.578125l4.140625 0l0 -20.578125l-4.140625 0zm17.42398 11.28125l0 -0.109375q0 -1.59375 -0.25 -2.859375q-0.234375 -1.28125 -0.609375 -2.375q-0.390625 -1.140625 -0.90625 -2.046875q-0.5 -0.90625 -1.09375 -1.640625q-0.5625 -0.71875 -1.140625 -1.21875q-0.578125 -0.515625 -1.109375 -0.8125l-0.40625 1.171875q0.34375 0.28125 0.703125 0.6875q0.375 0.40625 0.71875 0.9375q0.453125 0.671875 0.875 1.59375q0.421875 0.90625 0.734375 2.046875q0.203125 0.796875 0.375 1.953125q0.171875 1.140625 0.171875 2.546875l0 0.140625q0 1.234375 -0.140625 2.328125q-0.125 1.09375 -0.359375 2.03125q-0.234375 1.0 -0.59375 1.84375q-0.359375 0.859375 -0.734375 1.53125q-0.40625 0.671875 -0.859375 1.171875q-0.453125 0.515625 -0.890625 0.84375l0.40625 1.171875q0.53125 -0.28125 1.109375 -0.796875q0.578125 -0.5 1.140625 -1.234375q0.5625 -0.71875 1.078125 -1.640625q0.515625 -0.921875 0.921875 -2.046875q0.390625 -1.109375 0.625 -2.421875q0.234375 -1.3125 0.234375 -2.796875zm9.6427 4.796875q0 0.609375 0.375 1.03125q0.375 0.421875 1.125 0.421875q0.75 0 1.1405945 -0.421875q0.390625 -0.421875 0.390625 -1.03125q0 -0.625 -0.390625 -1.046875q-0.39059448 -0.4375 -1.1405945 -0.4375q-0.75 0 -1.125 0.4375q-0.375 0.4375 -0.375 1.046875zm0 -9.125q0 0.609375 0.375 1.03125q0.375 0.421875 1.125 0.421875q0.75 0 1.1405945 -0.421875q0.390625 -0.421875 0.390625 -1.03125q0 -0.625 -0.390625 -1.046875q-0.39059448 -0.4375 -1.1405945 -0.4375q-0.75 0 -1.125 0.4375q-0.375 0.4375 -0.375 1.046875zm26.738556 4.1875l2.984375 6.1875l2.03125 0l0 -0.125l-3.203125 -6.484375q0.625 -0.265625 1.140625 -0.640625q0.515625 -0.390625 0.890625 -0.890625q0.375 -0.5 0.578125 -1.109375q0.21875 -0.625 0.21875 -1.359375q0 -1.140625 -0.40625 -1.984375q-0.390625 -0.859375 -1.078125 -1.421875q-0.71875 -0.5625 -1.65625 -0.84375q-0.9375 -0.28125 -2.0 -0.296875l-4.4375 0l0 15.15625l1.90625 0l0 -6.1875l3.03125 0zm-3.03125 -1.578125l0 -5.8125l2.53125 0q0.703125 0.015625 1.28125 0.203125q0.59375 0.1875 1.03125 0.546875q0.421875 0.375 0.65625 0.921875q0.25 0.546875 0.25 1.265625q0 0.6875 -0.25 1.21875q-0.25 0.53125 -0.6875 0.890625q-0.4375 0.359375 -1.015625 0.5625q-0.5625 0.1875 -1.203125 0.203125l-2.59375 0z" fill-rule="nonzero"/><path fill="#f4cccc" d="m700.7769 89.71391l143.18109 0l0 103.2126l-143.18109 0z" fill-rule="evenodd"/><path stroke="#000000" stroke-width="2.0" stroke-linejoin="round" stroke-linecap="butt" d="m700.7769 89.71391l143.18109 0l0 103.2126l-143.18109 0z" fill-rule="evenodd"/><path fill="#000000" d="m753.2006 132.8002l0 -15.265617l6.484375 0q2.453125 0 3.5625 0.421875q1.109375 0.40625 1.765625 1.453125q0.671875 1.046875 0.671875 2.40625q0 1.71875 -1.015625 2.84375q-1.0 1.109375 -3.015625 1.40625q1.0 0.578125 1.640625 1.28125q0.65625 0.6874924 1.765625 2.4687424l1.859375 2.984375l-3.6875 0l-2.21875 -3.328125q-1.1875 -1.7812424 -1.625 -2.2343674q-0.4375 -0.46875 -0.9375 -0.640625q-0.484375 -0.171875 -1.546875 -0.171875l-0.625 0l0 6.3749924l-3.078125 0zm3.078125 -8.812492l2.28125 0q2.21875 0 2.765625 -0.1875q0.5625 -0.1875 0.875 -0.640625q0.3125 -0.46875 0.3125 -1.140625q0 -0.78125 -0.421875 -1.25q-0.40625 -0.46875 -1.15625 -0.59375q-0.375 -0.0625 -2.25 -0.0625l-2.40625 0l0 3.875zm15.746277 8.812492l0 -12.687492l-4.53125 0l0 -2.578125l12.140625 0l0 2.578125l-4.515625 0l0 12.687492l-3.09375 0zm9.684326 0l0 -15.140617l3.078125 0l0 12.562492l7.65625 0l0 2.578125l-10.734375 0z" fill-rule="nonzero"/><path fill="#000000" d="m723.95233 156.83145l3.0 -0.296875q0.28125 1.515625 1.109375 2.234375q0.828125 0.703125 2.234375 0.703125q1.484375 0 2.234375 -0.625q0.765625 -0.640625 0.765625 -1.484375q0 -0.546875 -0.328125 -0.921875q-0.3125 -0.375 -1.109375 -0.65625q-0.53125 -0.1875 -2.46875 -0.671875q-2.46875 -0.609375 -3.46875 -1.515625q-1.40625 -1.25 -1.40625 -3.0625q0 -1.171875 0.65625 -2.1875q0.65625 -1.015625 1.90625 -1.546875q1.25 -0.53125 3.0 -0.53125q2.875 0 4.328125 1.265625q1.453125 1.265625 1.53125 3.359375l-3.078125 0.140625q-0.203125 -1.171875 -0.859375 -1.6875q-0.640625 -0.515625 -1.953125 -0.515625q-1.34375 0 -2.09375 0.546875q-0.5 0.359375 -0.5 0.953125q0 0.53125 0.46875 0.921875q0.578125 0.484375 2.828125 1.015625q2.25 0.53125 3.328125 1.109375q1.078125 0.5625 1.6875 1.546875q0.609375 0.984375 0.609375 2.421875q0 1.3125 -0.734375 2.46875q-0.734375 1.140625 -2.0625 1.703125q-1.328125 0.546875 -3.3125 0.546875q-2.90625 0 -4.453125 -1.328125q-1.546875 -1.34375 -1.859375 -3.90625zm14.991333 -7.59375l0 -2.703125l2.921875 0l0 2.703125l-2.921875 0zm0 12.5625l0 -11.0625l2.921875 0l0 11.0625l-2.921875 0zm5.706909 -11.0625l2.703125 0l0 1.515625q1.4375 -1.765625 3.4375 -1.765625q1.0625 0 1.84375 0.4375q0.78125 0.4375 1.28125 1.328125q0.734375 -0.890625 1.578125 -1.328125q0.84375 -0.4375 1.796875 -0.4375q1.21875 0 2.0625 0.5q0.84375 0.484375 1.265625 1.453125q0.296875 0.703125 0.296875 2.28125l0 7.078125l-2.921875 0l0 -6.328125q0 -1.640625 -0.3125 -2.125q-0.40625 -0.625 -1.25 -0.625q-0.609375 0 -1.15625 0.375q-0.53125 0.375 -0.78125 1.109375q-0.234375 0.71875 -0.234375 2.28125l0 5.3125l-2.921875 0l0 -6.0625q0 -1.609375 -0.15625 -2.078125q-0.15625 -0.46875 -0.484375 -0.703125q-0.328125 -0.234375 -0.890625 -0.234375q-0.671875 0 -1.21875 0.375q-0.546875 0.359375 -0.78125 1.046875q-0.234375 0.6875 -0.234375 2.28125l0 5.375l-2.921875 0l0 -11.0625zm26.464111 11.0625l0 -1.65625q-0.609375 0.890625 -1.59375 1.40625q-0.984375 0.5 -2.078125 0.5q-1.109375 0 -2.0 -0.484375q-0.875 -0.5 -1.28125 -1.375q-0.390625 -0.890625 -0.390625 -2.453125l0 -7.0l2.921875 0l0 5.078125q0 2.34375 0.15625 2.875q0.171875 0.515625 0.59375 0.828125q0.4375 0.296875 1.09375 0.296875q0.75 0 1.34375 -0.40625q0.59375 -0.40625 0.8125 -1.015625q0.21875 -0.609375 0.21875 -2.984375l0 -4.671875l2.921875 0l0 11.0625l-2.71875 0zm5.746826 0l0 -15.265625l2.921875 0l0 15.265625l-2.921875 0zm8.113159 -7.6875l-2.65625 -0.484375q0.453125 -1.59375 1.546875 -2.359375q1.09375 -0.78125 3.25 -0.78125q1.953125 0 2.90625 0.46875q0.96875 0.453125 1.359375 1.171875q0.390625 0.71875 0.390625 2.625l-0.03125 3.40625q0 1.46875 0.125 2.15625q0.140625 0.6875 0.53125 1.484375l-2.890625 0q-0.109375 -0.296875 -0.28125 -0.859375q-0.078125 -0.265625 -0.109375 -0.34375q-0.75 0.71875 -1.609375 1.09375q-0.84375 0.359375 -1.8125 0.359375q-1.703125 0 -2.6875 -0.921875q-0.984375 -0.9375 -0.984375 -2.34375q0 -0.9375 0.4375 -1.671875q0.453125 -0.734375 1.25 -1.125q0.8125 -0.390625 2.34375 -0.6875q2.046875 -0.390625 2.84375 -0.71875l0 -0.296875q0 -0.84375 -0.421875 -1.203125q-0.421875 -0.359375 -1.578125 -0.359375q-0.78125 0 -1.21875 0.3125q-0.4375 0.3125 -0.703125 1.078125zm3.921875 2.375q-0.5625 0.1875 -1.78125 0.453125q-1.21875 0.25 -1.59375 0.5q-0.578125 0.40625 -0.578125 1.03125q0 0.625 0.453125 1.078125q0.46875 0.4375 1.171875 0.4375q0.796875 0 1.515625 -0.515625q0.53125 -0.40625 0.6875 -0.96875q0.125 -0.375 0.125 -1.4375l0 -0.578125zm10.830444 -5.75l0 2.328125l-2.0 0l0 4.46875q0 1.34375 0.046875 1.578125q0.0625 0.21875 0.265625 0.375q0.203125 0.140625 0.5 0.140625q0.40625 0 1.171875 -0.28125l0.25 2.265625q-1.015625 0.4375 -2.3125 0.4375q-0.796875 0 -1.4375 -0.265625q-0.625 -0.265625 -0.921875 -0.6875q-0.296875 -0.421875 -0.40625 -1.140625q-0.09375 -0.515625 -0.09375 -2.0625l0 -4.828125l-1.34375 0l0 -2.328125l1.34375 0l0 -2.1875l2.9375 -1.71875l0 3.90625l2.0 0zm1.352417 5.375q0 -1.453125 0.71875 -2.8125q0.71875 -1.375 2.03125 -2.09375q1.3125 -0.71875 2.9375 -0.71875q2.515625 0 4.109375 1.640625q1.609375 1.625 1.609375 4.109375q0 2.515625 -1.625 4.171875q-1.609375 1.640625 -4.0625 1.640625q-1.53125 0 -2.90625 -0.6875q-1.375 -0.6875 -2.09375 -2.015625q-0.71875 -1.328125 -0.71875 -3.234375zm3.0 0.15625q0 1.640625 0.78125 2.515625q0.78125 0.875 1.921875 0.875q1.140625 0 1.921875 -0.875q0.78125 -0.875 0.78125 -2.53125q0 -1.625 -0.78125 -2.5q-0.78125 -0.875 -1.921875 -0.875q-1.140625 0 -1.921875 0.875q-0.78125 0.875 -0.78125 2.515625zm13.496826 5.53125l-2.921875 0l0 -11.0625l2.71875 0l0 1.578125q0.703125 -1.125 1.25 -1.46875q0.5625 -0.359375 1.265625 -0.359375q1.0 0 1.9375 0.5625l-0.90625 2.546875q-0.75 -0.484375 -1.375 -0.484375q-0.625 0 -1.046875 0.34375q-0.421875 0.328125 -0.671875 1.21875q-0.25 0.890625 -0.25 3.703125l0 3.421875z" fill-rule="nonzero"/><path fill="#000000" fill-opacity="0.0" d="m573.96326 141.3202l126.80316 0" fill-rule="evenodd"/><path stroke="#000000" stroke-width="2.0" stroke-linejoin="round" stroke-linecap="butt" d="m580.81744 141.3202l107.948975 0" fill-rule="evenodd"/><path fill="#000000" stroke="#000000" stroke-width="2.0" stroke-linecap="butt" d="m580.81744 141.3202l2.2491455 -2.2491608l-6.1795044 2.2491608l6.1795044 2.249176z" fill-rule="evenodd"/><path fill="#000000" stroke="#000000" stroke-width="2.0" stroke-linecap="butt" d="m688.7664 144.62367l9.076172 -3.3034668l-9.076172 -3.3034668z" fill-rule="evenodd"/><path fill="#000000" fill-opacity="0.0" d="m594.71655 133.3202l98.74011 0l0 87.27559l-98.74011 0z" fill-rule="evenodd"/><path fill="#000000" d="m625.0933 163.94333l0 -13.375l1.484375 0l0 1.25q0.53125 -0.734375 1.1875 -1.09375q0.671875 -0.375 1.625 -0.375q1.234375 0 2.171875 0.640625q0.953125 0.625 1.4375 1.796875q0.484375 1.15625 0.484375 2.546875q0 1.484375 -0.53125 2.671875q-0.53125 1.1875 -1.546875 1.828125q-1.015625 0.625 -2.140625 0.625q-0.8125 0 -1.46875 -0.34375q-0.65625 -0.34375 -1.0625 -0.875l0 4.703125l-1.640625 0zm1.484375 -8.484375q0 1.859375 0.75 2.765625q0.765625 0.890625 1.828125 0.890625q1.09375 0 1.875 -0.921875q0.78125 -0.9375 0.78125 -2.875q0 -1.84375 -0.765625 -2.765625q-0.75 -0.921875 -1.8125 -0.921875q-1.046875 0 -1.859375 0.984375q-0.796875 0.96875 -0.796875 2.84375zm15.516357 1.671875l1.6875 0.203125q-0.40625 1.484375 -1.484375 2.3125q-1.078125 0.8125 -2.765625 0.8125q-2.125 0 -3.375 -1.296875q-1.234375 -1.3125 -1.234375 -3.671875q0 -2.453125 1.25 -3.796875q1.265625 -1.34375 3.265625 -1.34375q1.9375 0 3.15625 1.328125q1.234375 1.3125 1.234375 3.703125q0 0.15625 0 0.4375l-7.21875 0q0.09375 1.59375 0.90625 2.453125q0.8125 0.84375 2.015625 0.84375q0.90625 0 1.546875 -0.46875q0.640625 -0.484375 1.015625 -1.515625zm-5.390625 -2.65625l5.40625 0q-0.109375 -1.21875 -0.625 -1.828125q-0.78125 -0.953125 -2.03125 -0.953125q-1.125 0 -1.90625 0.765625q-0.765625 0.75 -0.84375 2.015625zm15.766357 2.65625l1.6875 0.203125q-0.40625 1.484375 -1.484375 2.3125q-1.078125 0.8125 -2.765625 0.8125q-2.125 0 -3.375 -1.296875q-1.234375 -1.3125 -1.234375 -3.671875q0 -2.453125 1.25 -3.796875q1.265625 -1.34375 3.265625 -1.34375q1.9375 0 3.15625 1.328125q1.234375 1.3125 1.234375 3.703125q0 0.15625 0 0.4375l-7.21875 0q0.09375 1.59375 0.90625 2.453125q0.8125 0.84375 2.015625 0.84375q0.90625 0 1.546875 -0.46875q0.640625 -0.484375 1.015625 -1.515625zm-5.390625 -2.65625l5.40625 0q-0.109375 -1.21875 -0.625 -1.828125q-0.78125 -0.953125 -2.03125 -0.953125q-1.125 0 -1.90625 0.765625q-0.765625 0.75 -0.84375 2.015625zm9.141357 5.765625l0 -13.359375l1.640625 0l0 7.625l3.890625 -3.9375l2.109375 0l-3.6875 3.59375l4.0625 6.078125l-2.015625 0l-3.203125 -4.953125l-1.15625 1.125l0 3.828125l-1.640625 0z" fill-rule="nonzero"/><path fill="#000000" d="m625.0933 186.34334l0 -13.375l1.484375 0l0 1.25q0.53125 -0.734375 1.1875 -1.09375q0.671875 -0.375 1.625 -0.375q1.234375 0 2.171875 0.640625q0.953125 0.625 1.4375 1.796875q0.484375 1.15625 0.484375 2.546875q0 1.484375 -0.53125 2.671875q-0.53125 1.1875 -1.546875 1.828125q-1.015625 0.625 -2.140625 0.625q-0.8125 0 -1.46875 -0.34375q-0.65625 -0.34375 -1.0625 -0.875l0 4.703125l-1.640625 0zm1.484375 -8.484375q0 1.859375 0.75 2.765625q0.765625 0.890625 1.828125 0.890625q1.09375 0 1.875 -0.921875q0.78125 -0.9375 0.78125 -2.875q0 -1.84375 -0.765625 -2.765625q-0.75 -0.921875 -1.8125 -0.921875q-1.046875 0 -1.859375 0.984375q-0.796875 0.96875 -0.796875 2.84375zm8.281982 -0.0625q0 -2.6875 1.484375 -3.96875q1.25 -1.078125 3.046875 -1.078125q2.0 0 3.265625 1.3125q1.265625 1.296875 1.265625 3.609375q0 1.859375 -0.5625 2.9375q-0.5625 1.0625 -1.640625 1.65625q-1.0625 0.59375 -2.328125 0.59375q-2.03125 0 -3.28125 -1.296875q-1.25 -1.3125 -1.25 -3.765625zm1.6875 0q0 1.859375 0.796875 2.796875q0.8125 0.921875 2.046875 0.921875q1.21875 0 2.03125 -0.921875q0.8125 -0.9375 0.8125 -2.84375q0 -1.796875 -0.8125 -2.71875q-0.8125 -0.921875 -2.03125 -0.921875q-1.234375 0 -2.046875 0.921875q-0.796875 0.90625 -0.796875 2.765625zm9.297607 4.84375l0 -13.359375l1.640625 0l0 7.625l3.890625 -3.9375l2.109375 0l-3.6875 3.59375l4.0625 6.078125l-2.015625 0l-3.203125 -4.953125l-1.15625 1.125l0 3.828125l-1.640625 0zm15.953125 -3.109375l1.6875 0.203125q-0.40625 1.484375 -1.484375 2.3125q-1.078125 0.8125 -2.765625 0.8125q-2.125 0 -3.375 -1.296875q-1.234375 -1.3125 -1.234375 -3.671875q0 -2.453125 1.25 -3.796875q1.265625 -1.34375 3.265625 -1.34375q1.9375 0 3.15625 1.328125q1.234375 1.3125 1.234375 3.703125q0 0.15625 0 0.4375l-7.21875 0q0.09375 1.59375 0.90625 2.453125q0.8125 0.84375 2.015625 0.84375q0.90625 0 1.546875 -0.46875q0.640625 -0.484375 1.015625 -1.515625zm-5.390625 -2.65625l5.40625 0q-0.109375 -1.21875 -0.625 -1.828125q-0.78125 -0.953125 -2.03125 -0.953125q-1.125 0 -1.90625 0.765625q-0.765625 0.75 -0.84375 2.015625z" fill-rule="nonzero"/><path fill="#000000" d="m627.0333 202.14958l1.625 -0.25q0.125 0.96875 0.75 1.5q0.625 0.515625 1.75 0.515625q1.125 0 1.671875 -0.453125q0.546875 -0.46875 0.546875 -1.09375q0 -0.546875 -0.484375 -0.875q-0.328125 -0.21875 -1.671875 -0.546875q-1.8125 -0.46875 -2.515625 -0.796875q-0.6875 -0.328125 -1.046875 -0.90625q-0.359375 -0.59375 -0.359375 -1.3125q0 -0.640625 0.296875 -1.1875q0.296875 -0.5625 0.8125 -0.921875q0.375 -0.28125 1.03125 -0.46875q0.671875 -0.203125 1.421875 -0.203125q1.140625 0 2.0 0.328125q0.859375 0.328125 1.265625 0.890625q0.421875 0.5625 0.578125 1.5l-1.609375 0.21875q-0.109375 -0.75 -0.640625 -1.171875q-0.515625 -0.421875 -1.46875 -0.421875q-1.140625 0 -1.625 0.375q-0.46875 0.375 -0.46875 0.875q0 0.3125 0.1875 0.578125q0.203125 0.265625 0.640625 0.4375q0.234375 0.09375 1.4375 0.421875q1.75 0.453125 2.4375 0.75q0.6875 0.296875 1.078125 0.859375q0.390625 0.5625 0.390625 1.40625q0 0.828125 -0.484375 1.546875q-0.46875 0.71875 -1.375 1.125q-0.90625 0.390625 -2.046875 0.390625q-1.875 0 -2.875 -0.78125q-0.984375 -0.78125 -1.25 -2.328125zm13.5625 1.421875l0.234375 1.453125q-0.6875 0.140625 -1.234375 0.140625q-0.890625 0 -1.390625 -0.28125q-0.484375 -0.28125 -0.6875 -0.734375q-0.203125 -0.46875 -0.203125 -1.9375l0 -5.578125l-1.203125 0l0 -1.265625l1.203125 0l0 -2.390625l1.625 -0.984375l0 3.375l1.65625 0l0 1.265625l-1.65625 0l0 5.671875q0 0.6875 0.078125 0.890625q0.09375 0.203125 0.28125 0.328125q0.203125 0.109375 0.578125 0.109375q0.265625 0 0.71875 -0.0625zm8.230164 -1.640625l1.6875 0.203125q-0.40625 1.484375 -1.484375 2.3125q-1.078125 0.8125 -2.765625 0.8125q-2.125 0 -3.375 -1.296875q-1.234375 -1.3125 -1.234375 -3.671875q0 -2.453125 1.25 -3.796875q1.265625 -1.34375 3.265625 -1.34375q1.9375 0 3.15625 1.328125q1.234375 1.3125 1.234375 3.703125q0 0.15625 0 0.4375l-7.21875 0q0.09375 1.59375 0.90625 2.453125q0.8125 0.84375 2.015625 0.84375q0.90625 0 1.546875 -0.46875q0.640625 -0.484375 1.015625 -1.515625zm-5.390625 -2.65625l5.40625 0q-0.109375 -1.21875 -0.625 -1.828125q-0.78125 -0.953125 -2.03125 -0.953125q-1.125 0 -1.90625 0.765625q-0.765625 0.75 -0.84375 2.015625zm9.141357 9.46875l0 -13.375l1.484375 0l0 1.25q0.53125 -0.734375 1.1875 -1.09375q0.671875 -0.375 1.625 -0.375q1.234375 0 2.171875 0.640625q0.953125 0.625 1.4375 1.796875q0.484375 1.15625 0.484375 2.546875q0 1.484375 -0.53125 2.671875q-0.53125 1.1875 -1.546875 1.828125q-1.015625 0.625 -2.140625 0.625q-0.8125 0 -1.46875 -0.34375q-0.65625 -0.34375 -1.0625 -0.875l0 4.703125l-1.640625 0zm1.484375 -8.484375q0 1.859375 0.75 2.765625q0.765625 0.890625 1.828125 0.890625q1.09375 0 1.875 -0.921875q0.78125 -0.9375 0.78125 -2.875q0 -1.84375 -0.765625 -2.765625q-0.75 -0.921875 -1.8125 -0.921875q-1.046875 0 -1.859375 0.984375q-0.796875 0.96875 -0.796875 2.84375z" fill-rule="nonzero"/><path fill="#000000" fill-opacity="0.0" d="m199.83727 141.3202l41.669296 0" fill-rule="evenodd"/><path stroke="#000000" stroke-width="2.0" stroke-linejoin="round" stroke-linecap="butt" d="m199.83727 141.3202l29.669296 0" fill-rule="evenodd"/><path fill="#000000" stroke="#000000" stroke-width="2.0" stroke-linecap="butt" d="m229.50656 144.62367l9.076202 -3.3034668l-9.076202 -3.3034668z" fill-rule="evenodd"/><path fill="#000000" fill-opacity="0.0" d="m387.23883 240.08923l40.97638 0l0 45.259857l-40.97638 0z" fill-rule="evenodd"/><path fill="#000000" d="m408.15567 264.21167l2.984375 6.1875l2.03125 0l0 -0.125l-3.203125 -6.484375q0.625 -0.265625 1.140625 -0.640625q0.515625 -0.390625 0.890625 -0.890625q0.375 -0.5 0.578125 -1.109375q0.21875 -0.625 0.21875 -1.359375q0 -1.140625 -0.40625 -1.984375q-0.390625 -0.859375 -1.078125 -1.421875q-0.71875 -0.56251526 -1.65625 -0.84376526q-0.9375 -0.28125 -2.0 -0.296875l-4.4375 0l0 15.156265l1.90625 0l0 -6.1875l3.03125 0zm-3.03125 -1.578125l0 -5.8125l2.53125 0q0.703125 0.015625 1.28125 0.203125q0.59375 0.1875 1.03125 0.546875q0.421875 0.375 0.65625 0.921875q0.25 0.546875 0.25 1.265625q0 0.6875 -0.25 1.21875q-0.25 0.53125 -0.6875 0.890625q-0.4375 0.359375 -1.015625 0.5625q-0.5625 0.1875 -1.203125 0.203125l-2.59375 0z" fill-rule="nonzero"/><path fill="#000000" fill-opacity="0.0" d="m407.72702 203.4462l0 36.629913" fill-rule="evenodd"/><path stroke="#000000" stroke-width="2.0" stroke-linejoin="round" stroke-linecap="butt" d="m407.72702 203.4462l0 24.629913" fill-rule="evenodd"/><path fill="#000000" stroke="#000000" stroke-width="2.0" stroke-linecap="butt" d="m404.42358 228.07611l3.3034363 9.076202l3.3034668 -9.076202z" fill-rule="evenodd"/><path fill="#000000" fill-opacity="0.0" d="m599.4724 10.349081l0.661438 279.0551" fill-rule="evenodd"/><path stroke="#666666" stroke-width="2.0" stroke-linejoin="round" stroke-linecap="butt" stroke-dasharray="8.0,6.0" d="m599.4724 10.349081l0.661438 279.0551" fill-rule="evenodd"/><path fill="#000000" fill-opacity="0.0" d="m472.03937 16.396326l106.11023 0l0 42.015747l-106.11023 0z" fill-rule="evenodd"/><path fill="#000000" d="m523.3254 39.827324l1.65625 -0.140625q0.125 1.0 0.546875 1.640625q0.4375 0.640625 1.34375 1.046875q0.921875 0.390625 2.0625 0.390625q1.0 0 1.78125 -0.296875q0.78125 -0.296875 1.15625 -0.8125q0.375 -0.53125 0.375 -1.15625q0 -0.625 -0.375 -1.09375q-0.359375 -0.46875 -1.1875 -0.796875q-0.546875 -0.203125 -2.390625 -0.640625q-1.828125 -0.453125 -2.5625 -0.84375q-0.96875 -0.5 -1.4375 -1.234375q-0.46875 -0.75 -0.46875 -1.671875q0 -1.0 0.578125 -1.875q0.578125 -0.8906231 1.671875 -1.3437481q1.109375 -0.453125 2.453125 -0.453125q1.484375 0 2.609375 0.484375q1.140625 0.46875 1.75 1.4062481q0.609375 0.921875 0.65625 2.09375l-1.6875 0.125q-0.140625 -1.265625 -0.9375 -1.90625q-0.78125 -0.65625 -2.3125 -0.65625q-1.609375 0 -2.34375 0.59375q-0.734375 0.59375 -0.734375 1.421875q0 0.71875 0.53125 1.171875q0.5 0.46875 2.65625 0.96875q2.15625 0.484375 2.953125 0.84375q1.171875 0.53125 1.71875 1.359375q0.5625 0.828125 0.5625 1.90625q0 1.0625 -0.609375 2.015625q-0.609375 0.9375 -1.75 1.46875q-1.140625 0.515625 -2.578125 0.515625q-1.8125 0 -3.046875 -0.53125q-1.21875 -0.53125 -1.921875 -1.59375q-0.6875 -1.0625 -0.71875 -2.40625zm19.146729 0.75l1.609375 0.21875q-0.265625 1.65625 -1.359375 2.609375q-1.078125 0.9375 -2.671875 0.9375q-1.984375 0 -3.1875 -1.296875q-1.203125 -1.296875 -1.203125 -3.71875q0 -1.578125 0.515625 -2.75q0.515625 -1.171875 1.578125 -1.75q1.0625 -0.59375 2.3125 -0.59375q1.578125 0 2.578125 0.796875q1.0 0.796875 1.28125 2.265625l-1.59375 0.234375q-0.234375 -0.96875 -0.8125 -1.453125q-0.578125 -0.5 -1.390625 -0.5q-1.234375 0 -2.015625 0.890625q-0.78125 0.890625 -0.78125 2.8125q0 1.953125 0.75 2.84375q0.75 0.875 1.953125 0.875q0.96875 0 1.609375 -0.59375q0.65625 -0.59375 0.828125 -1.828125zm9.328125 2.359375q-0.921875 0.765625 -1.765625 1.09375q-0.828125 0.3125 -1.796875 0.3125q-1.59375 0 -2.453125 -0.78125q-0.859375 -0.78125 -0.859375 -1.984375q0 -0.71875 0.328125 -1.296875q0.328125 -0.59375 0.84375 -0.9375q0.53125 -0.359375 1.1875 -0.546875q0.46875 -0.125 1.453125 -0.25q1.984375 -0.234375 2.921875 -0.5625q0.015625 -0.34375 0.015625 -0.421875q0 -1.0 -0.46875 -1.421875q-0.625 -0.546875 -1.875 -0.546875q-1.15625 0 -1.703125 0.40625q-0.546875 0.40625 -0.8125 1.421875l-1.609375 -0.21875q0.21875 -1.015625 0.71875 -1.640625q0.5 -0.640625 1.453125 -0.984375q0.953125 -0.34375 2.1875 -0.34375q1.25 0 2.015625 0.296875q0.78125 0.28125 1.140625 0.734375q0.375 0.4375 0.515625 1.109375q0.078125 0.421875 0.078125 1.515625l0 2.1875q0 2.28125 0.109375 2.890625q0.109375 0.59375 0.40625 1.15625l-1.703125 0q-0.265625 -0.515625 -0.328125 -1.1875zm-0.140625 -3.671875q-0.890625 0.375 -2.671875 0.625q-1.015625 0.140625 -1.4375 0.328125q-0.421875 0.1875 -0.65625 0.53125q-0.21875 0.34375 -0.21875 0.78125q0 0.65625 0.5 1.09375q0.5 0.4375 1.453125 0.4375q0.9375 0 1.671875 -0.40625q0.75 -0.421875 1.09375 -1.140625q0.265625 -0.5625 0.265625 -1.640625l0 -0.609375zm4.1569824 4.859375l0 -13.359373l1.640625 0l0 13.359373l-1.640625 0zm10.50415 -1.1875q-0.921875 0.765625 -1.765625 1.09375q-0.828125 0.3125 -1.796875 0.3125q-1.59375 0 -2.453125 -0.78125q-0.859375 -0.78125 -0.859375 -1.984375q0 -0.71875 0.328125 -1.296875q0.328125 -0.59375 0.84375 -0.9375q0.53125 -0.359375 1.1875 -0.546875q0.46875 -0.125 1.453125 -0.25q1.984375 -0.234375 2.921875 -0.5625q0.015625 -0.34375 0.015625 -0.421875q0 -1.0 -0.46875 -1.421875q-0.625 -0.546875 -1.875 -0.546875q-1.15625 0 -1.703125 0.40625q-0.546875 0.40625 -0.8125 1.421875l-1.609375 -0.21875q0.21875 -1.015625 0.71875 -1.640625q0.5 -0.640625 1.453125 -0.984375q0.953125 -0.34375 2.1875 -0.34375q1.25 0 2.015625 0.296875q0.78125 0.28125 1.140625 0.734375q0.375 0.4375 0.515625 1.109375q0.078125 0.421875 0.078125 1.515625l0 2.1875q0 2.28125 0.109375 2.890625q0.109375 0.59375 0.40625 1.15625l-1.703125 0q-0.265625 -0.515625 -0.328125 -1.1875zm-0.140625 -3.671875q-0.890625 0.375 -2.671875 0.625q-1.015625 0.140625 -1.4375 0.328125q-0.421875 0.1875 -0.65625 0.53125q-0.21875 0.34375 -0.21875 0.78125q0 0.65625 0.5 1.09375q0.5 0.4375 1.453125 0.4375q0.9375 0 1.671875 -0.40625q0.75 -0.421875 1.09375 -1.140625q0.265625 -0.5625 0.265625 -1.640625l0 -0.609375z" fill-rule="nonzero"/><path fill="#000000" fill-opacity="0.0" d="m621.45667 16.396326l106.11029 0l0 42.015747l-106.11029 0z" fill-rule="evenodd"/><path fill="#000000" d="m641.4254 39.4367l1.765625 0.453125q-0.5625 2.171875 -2.0 3.328125q-1.4375 1.140625 -3.53125 1.140625q-2.15625 0 -3.515625 -0.875q-1.34375 -0.890625 -2.0625 -2.546875q-0.703125 -1.671875 -0.703125 -3.59375q0 -2.078125 0.796875 -3.625q0.796875 -1.5625 2.265625 -2.359373q1.484375 -0.8125 3.25 -0.8125q2.0 0 3.359375 1.015625q1.375 1.0156231 1.90625 2.874998l-1.734375 0.40625q-0.46875 -1.453125 -1.359375 -2.109375q-0.875 -0.671875 -2.203125 -0.671875q-1.546875 0 -2.578125 0.734375q-1.03125 0.734375 -1.453125 1.984375q-0.421875 1.234375 -0.421875 2.5625q0 1.703125 0.5 2.96875q0.5 1.265625 1.546875 1.90625q1.046875 0.625 2.265625 0.625q1.484375 0 2.515625 -0.859375q1.03125 -0.859375 1.390625 -2.546875zm9.21875 4.6875l0 -13.359373l9.015625 0l0 1.5781231l-7.25 0l0 4.140625l6.265625 0l0 1.578125l-6.265625 0l0 6.0625l-1.765625 0zm11.395996 0l0 -13.359373l9.015625 0l0 1.5781231l-7.25 0l0 4.140625l6.265625 0l0 1.578125l-6.265625 0l0 6.0625l-1.765625 0zm11.599121 0l0 -13.359373l1.765625 0l0 13.359373l-1.765625 0z" fill-rule="nonzero"/></g></svg>