<svg version="1.1" viewBox="0.0 0.0 782.6167979002624 256.251968503937" fill="none" stroke="none" stroke-linecap="square" stroke-miterlimit="10" xmlns:xlink="http://www.w3.org/1999/xlink" xmlns="http://www.w3.org/2000/svg"><clipPath id="p.0"><path d="m0 0l782.6168 0l0 256.25198l-782.6168 0l0 -256.25198z" clip-rule="nonzero"/></clipPath><g clip-path="url(#p.0)"><path fill="#000000" fill-opacity="0.0" d="m0 0l782.6168 0l0 256.25198l-782.6168 0z" fill-rule="evenodd"/><path fill="#000000" fill-opacity="0.0" d="m3.4343832 44.714745l0 0c0 -23.03407 18.672802 -41.70687 41.70687 -41.70687l692.3343 0c11.06134 0 21.669678 4.394104 29.49121 12.21566c7.821594 7.821556 12.215698 18.429863 12.215698 29.49121l0 166.82248c0 23.034073 -18.672852 41.70688 -41.70691 41.70688l-692.3343 0c-23.03407 0 -41.70687 -18.672806 -41.70687 -41.70688z" fill-rule="evenodd"/><path stroke="#000000" stroke-width="2.0" stroke-linejoin="round" stroke-linecap="butt" d="m3.4343832 44.714745l0 0c0 -23.03407 18.672802 -41.70687 41.70687 -41.70687l692.3343 0c11.06134 0 21.669678 4.394104 29.49121 12.21566c7.821594 7.821556 12.215698 18.429863 12.215698 29.49121l0 166.82248c0 23.034073 -18.672852 41.70688 -41.70691 41.70688l-692.3343 0c-23.03407 0 -41.70687 -18.672806 -41.70687 -41.70688z" fill-rule="evenodd"/><path fill="#000000" d="m36.27491 31.1409l-1.921875 0q-0.09375 0.6875 -0.328125 1.28125q-0.21875 0.578125 -0.609375 1.015625q-0.375 0.4375 -0.9375 0.671875q-0.5625019 0.234375 -1.3125019 0.234375q-0.703125 0 -1.234375 -0.21875q-0.515625 -0.21875 -0.890625 -0.625q-0.390625 -0.375 -0.640625 -0.890625q-0.25 -0.515625 -0.40625 -1.09375q-0.15625 -0.578125 -0.234375 -1.171875q-0.0625 -0.59375 -0.0625 -1.15625l0 -2.140625q0 -0.5625 0.0625 -1.15625q0.078125 -0.609375 0.234375 -1.171875q0.15625 -0.578125 0.40625 -1.078125q0.265625 -0.515625 0.640625 -0.90625q0.375 -0.375 0.90625 -0.59375q0.53125 -0.234375 1.21875 -0.234375q0.75 0 1.3125019 0.265625q0.5625 0.25 0.9375 0.6875q0.390625 0.453125 0.609375 1.046875q0.234375 0.59375 0.328125 1.28125l1.921875 0q-0.125 -1.078125 -0.515625 -1.96875q-0.390625 -0.90625 -1.03125 -1.546875q-0.640625 -0.640625 -1.546875 -0.984375q-0.890625 -0.359375 -2.015627 -0.359375q-0.953125 0 -1.71875 0.265625q-0.75 0.265625 -1.34375 0.734375q-0.609375 0.46875 -1.046875 1.109375q-0.421875 0.640625 -0.703125 1.390625q-0.296875 0.75 -0.4375 1.578125q-0.140625 0.8125 -0.15625 1.65625l0 2.125q0.015625 0.84375 0.15625 1.671875q0.140625 0.8125 0.4375 1.5625q0.28125 0.75 0.703125 1.390625q0.4375 0.625 1.046875 1.09375q0.59375 0.46875 1.359375 0.734375q0.765625 0.265625 1.703125 0.265625q1.0937519 0 1.9843769 -0.34375q0.890625 -0.34375 1.546875 -0.984375q0.640625 -0.625 1.046875 -1.5q0.40625 -0.890625 0.53125 -1.9375zm2.4395905 -1.171875l0 0.21875q0 1.21875 0.359375 2.265625q0.359375 1.046875 1.015625 1.8125q0.65625 0.765625 1.609375 1.203125q0.953125 0.4375 2.15625 0.4375q1.1875 0 2.125 -0.4375q0.953125 -0.4375 1.625 -1.203125q0.65625 -0.765625 1.0 -1.8125q0.359375 -1.046875 0.359375 -2.265625l0 -0.21875q0 -1.21875 -0.359375 -2.265625q-0.34375 -1.046875 -1.0 -1.828125q-0.671875 -0.765625 -1.625 -1.203125q-0.953125 -0.4375 -2.140625 -0.4375q-1.1875 0 -2.140625 0.4375q-0.953125 0.4375 -1.609375 1.203125q-0.65625 0.78125 -1.015625 1.828125q-0.359375 1.046875 -0.359375 2.265625zm1.9375 0.21875l0 -0.21875q0 -0.828125 0.1875 -1.578125q0.203125 -0.765625 0.609375 -1.328125q0.390625 -0.578125 0.984375 -0.90625q0.59375 -0.34375 1.40625 -0.34375q0.796875 0 1.390625 0.34375q0.609375 0.328125 1.015625 0.90625q0.390625 0.5625 0.59375 1.328125q0.203125 0.75 0.203125 1.578125l0 0.21875q0 0.84375 -0.203125 1.59375q-0.1875 0.75 -0.59375 1.328125q-0.40625 0.578125 -1.0 0.90625q-0.59375 0.328125 -1.390625 0.328125q-0.796875 0 -1.40625 -0.328125q-0.609375 -0.328125 -1.0 -0.90625q-0.40625 -0.578125 -0.609375 -1.328125q-0.1875 -0.75 -0.1875 -1.59375zm12.298965 -5.75l-1.734375 0l0 11.265625l1.828125 0l0 -8.96875q0.0625 -0.171875 0.15625 -0.3125q0.109375 -0.140625 0.25 -0.265625q0.171875 -0.140625 0.421875 -0.21875q0.265625 -0.078125 0.609375 -0.078125q0.3125 0 0.546875 0.078125q0.234375 0.078125 0.390625 0.25q0.15625 0.171875 0.234375 0.453125q0.078125 0.265625 0.078125 0.609375l0 8.453125l1.84375 0l0 -8.4375q0 -0.0625 0 -0.109375q0 -0.046875 0 -0.09375q0.03125 -0.265625 0.125 -0.46875q0.09375 -0.21875 0.25 -0.390625q0.171875 -0.15625 0.421875 -0.25q0.25 -0.09375 0.59375 -0.09375q0.328125 0 0.5625 0.09375q0.25 0.078125 0.421875 0.234375q0.15625 0.1875 0.234375 0.453125q0.078125 0.265625 0.078125 0.625l0 8.4375l1.828125 0l0 -8.421875q0 -0.8125 -0.1875 -1.40625q-0.1875 -0.59375 -0.53125 -0.96875q-0.328125 -0.328125 -0.796875 -0.5q-0.46875 -0.171875 -1.046875 -0.171875q-0.421875 0 -0.78125 0.109375q-0.359375 0.109375 -0.65625 0.28125q-0.234375 0.15625 -0.4375 0.359375q-0.1875 0.203125 -0.328125 0.453125q-0.125 -0.265625 -0.28125 -0.46875q-0.15625 -0.203125 -0.359375 -0.359375q-0.265625 -0.1875 -0.625 -0.28125q-0.359375 -0.09375 -0.8125 -0.09375q-0.796875 0 -1.359375 0.34375q-0.546875 0.328125 -0.890625 0.921875l-0.046875 -1.0625zm12.798965 0l-1.734375 0l0 11.265625l1.828125 0l0 -8.96875q0.0625 -0.171875 0.15625 -0.3125q0.109375 -0.140625 0.25 -0.265625q0.171875 -0.140625 0.421875 -0.21875q0.265625 -0.078125 0.609375 -0.078125q0.3125 0 0.546875 0.078125q0.234375 0.078125 0.390625 0.25q0.15625 0.171875 0.234375 0.453125q0.078125 0.265625 0.078125 0.609375l0 8.453125l1.84375 0l0 -8.4375q0 -0.0625 0 -0.109375q0 -0.046875 0 -0.09375q0.03125 -0.265625 0.125 -0.46875q0.09375 -0.21875 0.25 -0.390625q0.171875 -0.15625 0.421875 -0.25q0.25 -0.09375 0.59375 -0.09375q0.328125 0 0.5625 0.09375q0.25 0.078125 0.421875 0.234375q0.15625 0.1875 0.234375 0.453125q0.078125 0.265625 0.078125 0.625l0 8.4375l1.828125 0l0 -8.421875q0 -0.8125 -0.1875 -1.40625q-0.1875 -0.59375 -0.53125 -0.96875q-0.328125 -0.328125 -0.796875 -0.5q-0.46875 -0.171875 -1.046875 -0.171875q-0.421875 0 -0.78125 0.109375q-0.359375 0.109375 -0.65625 0.28125q-0.234375 0.15625 -0.4375 0.359375q-0.1875 0.203125 -0.328125 0.453125q-0.125 -0.265625 -0.28125 -0.46875q-0.15625 -0.203125 -0.359375 -0.359375q-0.265625 -0.1875 -0.625 -0.28125q-0.359375 -0.09375 -0.8125 -0.09375q-0.796875 0 -1.359375 0.34375q-0.546875 0.328125 -0.890625 0.921875l-0.046875 -1.0625zm19.31459 11.265625l2.0 0l0 -0.171875q-0.1875 -0.46875 -0.296875 -1.09375q-0.09375 -0.625 -0.09375 -1.1875l0 -5.25q0 -0.9375 -0.34375 -1.640625q-0.34375 -0.71875 -0.9375 -1.203125q-0.59375 -0.453125 -1.421875 -0.6875q-0.828125 -0.234375 -1.78125 -0.234375q-1.046875 0 -1.875 0.296875q-0.828125 0.28125 -1.40625 0.75q-0.578125 0.46875 -0.890625 1.0625q-0.3125 0.59375 -0.3125 1.21875l1.9375 0q0 -0.359375 0.171875 -0.6875q0.171875 -0.328125 0.484375 -0.5625q0.3125 -0.25 0.765625 -0.390625q0.453125 -0.140625 1.015625 -0.140625q0.625 0 1.109375 0.15625q0.5 0.15625 0.84375 0.4375q0.34375 0.28125 0.53125 0.6875q0.1875 0.40625 0.1875 0.921875l0 0.890625l-2.109375 0q-1.171875 0 -2.125 0.234375q-0.953125 0.21875 -1.625 0.671875q-0.6875 0.46875 -1.0625 1.171875q-0.359375 0.703125 -0.359375 1.625q0 0.703125 0.265625 1.3125q0.28125 0.609375 0.796875 1.046875q0.5 0.453125 1.21875 0.71875q0.734375 0.25 1.625 0.25q0.546875 0 1.03125 -0.109375q0.5 -0.109375 0.9375 -0.3125q0.421875 -0.203125 0.78125 -0.453125q0.359375 -0.265625 0.65625 -0.5625q0.03125 0.359375 0.09375 0.6875q0.078125 0.328125 0.1875 0.546875zm-3.40625 -1.46875q-0.5625 0 -1.0 -0.140625q-0.421875 -0.15625 -0.703125 -0.40625q-0.28125 -0.25 -0.421875 -0.609375q-0.140625 -0.359375 -0.140625 -0.765625q0 -0.4375 0.15625 -0.78125q0.171875 -0.34375 0.484375 -0.59375q0.4375 -0.359375 1.171875 -0.53125q0.75 -0.171875 1.75 -0.171875l1.796875 0l0 2.28125q-0.171875 0.328125 -0.46875 0.640625q-0.28125 0.3125 -0.671875 0.546875q-0.40625 0.234375 -0.90625 0.390625q-0.484375 0.140625 -1.046875 0.140625zm8.798965 1.46875l1.921875 0l0 -8.078125q0.203125 -0.375 0.46875 -0.671875q0.265625 -0.296875 0.578125 -0.53125q0.390625 -0.265625 0.84375 -0.40625q0.453125 -0.15625 0.984375 -0.15625q0.625 0 1.09375 0.15625q0.46875 0.140625 0.8125 0.453125q0.3125 0.328125 0.484375 0.859375q0.171875 0.515625 0.171875 1.265625l0 7.109375l1.921875 0l0 -7.15625q0 -1.125 -0.28125 -1.9375q-0.265625 -0.828125 -0.78125 -1.359375q-0.515625 -0.515625 -1.234375 -0.765625q-0.71875 -0.25 -1.609375 -0.25q-0.65625 0 -1.25 0.1875q-0.578125 0.1875 -1.078125 0.515625q-0.34375 0.21875 -0.640625 0.515625q-0.296875 0.296875 -0.546875 0.640625l-0.125 -1.65625l-1.734375 0l0 11.265625zm12.43959 -5.734375l0 0.21875q0 1.21875 0.3125 2.265625q0.328125 1.046875 0.90625 1.8125q0.59375 0.765625 1.421875 1.203125q0.828125 0.4375 1.84375 0.4375q1.046875 0 1.828125 -0.34375q0.78125 -0.359375 1.34375 -1.046875l0.078125 1.1875l1.765625 0l0 -16.0l-1.921875 0l0 5.84375q-0.546875 -0.640625 -1.3125 -0.96875q-0.75 -0.34375 -1.765625 -0.34375q-1.03125 0 -1.859375 0.421875q-0.828125 0.421875 -1.421875 1.1875q-0.59375 0.75 -0.90625 1.8125q-0.3125 1.0625 -0.3125 2.3125zm1.921875 0.21875l0 -0.21875q0 -0.8125 0.171875 -1.5625q0.1875 -0.75 0.5625 -1.3125q0.359375 -0.5625 0.9375 -0.890625q0.578125 -0.34375 1.390625 -0.34375q0.953125 0 1.578125 0.453125q0.640625 0.4375 1.015625 1.125l0 5.21875q-0.375 0.75 -1.015625 1.1875q-0.625 0.4375 -1.59375 0.4375q-0.8125 0 -1.390625 -0.328125q-0.5625 -0.328125 -0.921875 -0.890625q-0.375 -0.5625 -0.5625 -1.296875q-0.171875 -0.75 -0.171875 -1.578125zm17.986465 -10.234375l0 -1.578125l-4.125 0l0 20.578125l4.125 0l0 -1.578125l-2.296875 0l0 -17.421875l2.296875 0zm6.033333 15.75l4.84375 0q0.96875 -0.015625 1.875 -0.296875q0.921875 -0.296875 1.625 -0.84375q0.6875 -0.546875 1.09375 -1.359375q0.421875 -0.8125 0.421875 -1.875q0 -0.671875 -0.203125 -1.25q-0.203125 -0.59375 -0.578125 -1.0625q-0.328125 -0.421875 -0.859375 -0.78125q-0.53125 -0.359375 -1.109375 -0.484375l0 -0.03125q0.546875 -0.25 0.9375 -0.515625q0.390625 -0.265625 0.71875 -0.671875q0.3125 -0.375 0.484375 -0.859375q0.1875 -0.5 0.203125 -1.09375q0 -1.0625 -0.421875 -1.8125q-0.40625 -0.765625 -1.09375 -1.25q-0.703125 -0.5 -1.609375 -0.734375q-0.890625 -0.234375 -1.828125 -0.234375l-4.5 0l0 15.15625zm1.9375 -7.09375l3.0625 0q0.625 0.015625 1.15625 0.203125q0.53125 0.1875 0.921875 0.53125q0.390625 0.359375 0.609375 0.859375q0.234375 0.5 0.21875 1.140625q0 0.640625 -0.25 1.140625q-0.234375 0.5 -0.65625 0.84375q-0.40625 0.34375 -0.953125 0.546875q-0.546875 0.1875 -1.140625 0.1875l-2.96875 0l0 -5.453125zm0 -1.609375l0 -4.8125l2.625 0q0.5625 0.015625 1.09375 0.15625q0.546875 0.125 0.96875 0.40625q0.40625 0.296875 0.640625 0.75q0.25 0.4375 0.25 1.078125q0 0.578125 -0.25 1.03125q-0.25 0.453125 -0.65625 0.75q-0.40625 0.3125 -0.9375 0.484375q-0.515625 0.15625 -1.046875 0.15625l-2.6875 0zm10.330215 2.96875l0 0.21875q0 1.21875 0.359375 2.265625q0.359375 1.046875 1.015625 1.8125q0.65625 0.765625 1.609375 1.203125q0.953125 0.4375 2.15625 0.4375q1.1875 0 2.125 -0.4375q0.953125 -0.4375 1.625 -1.203125q0.65625 -0.765625 1.0 -1.8125q0.359375 -1.046875 0.359375 -2.265625l0 -0.21875q0 -1.21875 -0.359375 -2.265625q-0.34375 -1.046875 -1.0 -1.828125q-0.671875 -0.765625 -1.625 -1.203125q-0.953125 -0.4375 -2.140625 -0.4375q-1.1875 0 -2.140625 0.4375q-0.953125 0.4375 -1.609375 1.203125q-0.65625 0.78125 -1.015625 1.828125q-0.359375 1.046875 -0.359375 2.265625zm1.9375 0.21875l0 -0.21875q0 -0.828125 0.1875 -1.578125q0.203125 -0.765625 0.609375 -1.328125q0.390625 -0.578125 0.984375 -0.90625q0.59375 -0.34375 1.40625 -0.34375q0.796875 0 1.390625 0.34375q0.609375 0.328125 1.015625 0.90625q0.390625 0.5625 0.59375 1.328125q0.203125 0.75 0.203125 1.578125l0 0.21875q0 0.84375 -0.203125 1.59375q-0.1875 0.75 -0.59375 1.328125q-0.40625 0.578125 -1.0 0.90625q-0.59375 0.328125 -1.390625 0.328125q-0.796875 0 -1.40625 -0.328125q-0.609375 -0.328125 -1.0 -0.90625q-0.40625 -0.578125 -0.609375 -1.328125q-0.1875 -0.75 -0.1875 -1.59375zm10.861465 -0.21875l0 0.21875q0 1.21875 0.359375 2.265625q0.359375 1.046875 1.015625 1.8125q0.65625 0.765625 1.609375 1.203125q0.953125 0.4375 2.15625 0.4375q1.1875 0 2.125 -0.4375q0.953125 -0.4375 1.625 -1.203125q0.65625 -0.765625 1.0 -1.8125q0.359375 -1.046875 0.359375 -2.265625l0 -0.21875q0 -1.21875 -0.359375 -2.265625q-0.34375 -1.046875 -1.0 -1.828125q-0.671875 -0.765625 -1.625 -1.203125q-0.953125 -0.4375 -2.140625 -0.4375q-1.1875 0 -2.140625 0.4375q-0.953125 0.4375 -1.609375 1.203125q-0.65625 0.78125 -1.015625 1.828125q-0.359375 1.046875 -0.359375 2.265625zm1.9375 0.21875l0 -0.21875q0 -0.828125 0.1875 -1.578125q0.203125 -0.765625 0.609375 -1.328125q0.390625 -0.578125 0.984375 -0.90625q0.59375 -0.34375 1.40625 -0.34375q0.796875 0 1.390625 0.34375q0.609375 0.328125 1.015625 0.90625q0.390625 0.5625 0.59375 1.328125q0.203125 0.75 0.203125 1.578125l0 0.21875q0 0.84375 -0.203125 1.59375q-0.1875 0.75 -0.59375 1.328125q-0.40625 0.578125 -1.0 0.90625q-0.59375 0.328125 -1.390625 0.328125q-0.796875 0 -1.40625 -0.328125q-0.609375 -0.328125 -1.0 -0.90625q-0.40625 -0.578125 -0.609375 -1.328125q-0.1875 -0.75 -0.1875 -1.59375zm11.705215 -10.484375l0 1.6875l3.84375 0l0 12.640625l-3.84375 0l0 1.671875l9.4375 0l0 -1.671875l-3.671875 0l0 -14.328125l-5.765625 0zm17.486465 16.203125q1.640625 0 2.75 -0.65625q1.125 -0.65625 1.6875 -1.515625l-1.171875 -0.921875q-0.53125 0.6875 -1.34375 1.109375q-0.796875 0.421875 -1.828125 0.421875q-0.78125 0 -1.421875 -0.296875q-0.640625 -0.296875 -1.109375 -0.796875q-0.4375 -0.484375 -0.703125 -1.109375q-0.25 -0.625 -0.328125 -1.453125l0 -0.0625l8.046875 0l0 -0.875q0 -1.171875 -0.296875 -2.171875q-0.296875 -1.015625 -0.890625 -1.765625q-0.609375 -0.75 -1.515625 -1.15625q-0.90625 -0.421875 -2.125 -0.421875q-0.96875 0 -1.890625 0.390625q-0.921875 0.390625 -1.640625 1.125q-0.734375 0.75 -1.171875 1.828125q-0.4375 1.078125 -0.4375 2.453125l0 0.4375q0 1.171875 0.390625 2.171875q0.40625 1.0 1.109375 1.734375q0.703125 0.71875 1.703125 1.125q1.0 0.40625 2.1875 0.40625zm-0.25 -10.09375q0.734375 0 1.265625 0.265625q0.546875 0.265625 0.890625 0.703125q0.359375 0.4375 0.546875 1.046875q0.203125 0.59375 0.203125 1.109375l0 0.09375l-6.0625 0q0.125 -0.78125 0.40625 -1.375q0.28125 -0.59375 0.703125 -1.015625q0.421875 -0.40625 0.9375 -0.609375q0.515625 -0.21875 1.109375 -0.21875zm15.47084 9.890625l2.0 0l0 -0.171875q-0.1875 -0.46875 -0.296875 -1.09375q-0.09375 -0.625 -0.09375 -1.1875l0 -5.25q0 -0.9375 -0.34375 -1.640625q-0.34375 -0.71875 -0.9375 -1.203125q-0.59375 -0.453125 -1.421875 -0.6875q-0.828125 -0.234375 -1.78125 -0.234375q-1.046875 0 -1.875 0.296875q-0.828125 0.28125 -1.40625 0.75q-0.578125 0.46875 -0.890625 1.0625q-0.3125 0.59375 -0.3125 1.21875l1.9375 0q0 -0.359375 0.171875 -0.6875q0.171875 -0.328125 0.484375 -0.5625q0.3125 -0.25 0.765625 -0.390625q0.453125 -0.140625 1.015625 -0.140625q0.625 0 1.109375 0.15625q0.5 0.15625 0.84375 0.4375q0.34375 0.28125 0.53125 0.6875q0.1875 0.40625 0.1875 0.921875l0 0.890625l-2.109375 0q-1.171875 0 -2.125 0.234375q-0.953125 0.21875 -1.625 0.671875q-0.6875 0.46875 -1.0625 1.171875q-0.359375 0.703125 -0.359375 1.625q0 0.703125 0.265625 1.3125q0.28125 0.609375 0.796875 1.046875q0.5 0.453125 1.21875 0.71875q0.734375 0.25 1.625 0.25q0.546875 0 1.03125 -0.109375q0.5 -0.109375 0.9375 -0.3125q0.421875 -0.203125 0.78125 -0.453125q0.359375 -0.265625 0.65625 -0.5625q0.03125 0.359375 0.09375 0.6875q0.078125 0.328125 0.1875 0.546875zm-3.40625 -1.46875q-0.5625 0 -1.0 -0.140625q-0.421875 -0.15625 -0.703125 -0.40625q-0.28125 -0.25 -0.421875 -0.609375q-0.140625 -0.359375 -0.140625 -0.765625q0 -0.4375 0.15625 -0.78125q0.171875 -0.34375 0.484375 -0.59375q0.4375 -0.359375 1.171875 -0.53125q0.75 -0.171875 1.75 -0.171875l1.796875 0l0 2.28125q-0.171875 0.328125 -0.46875 0.640625q-0.28125 0.3125 -0.671875 0.546875q-0.40625 0.234375 -0.90625 0.390625q-0.484375 0.140625 -1.046875 0.140625zm8.798965 1.46875l1.921875 0l0 -8.078125q0.203125 -0.375 0.46875 -0.671875q0.265625 -0.296875 0.578125 -0.53125q0.390625 -0.265625 0.84375 -0.40625q0.453125 -0.15625 0.984375 -0.15625q0.625 0 1.09375 0.15625q0.46875 0.140625 0.8125 0.453125q0.3125 0.328125 0.484375 0.859375q0.171875 0.515625 0.171875 1.265625l0 7.109375l1.921875 0l0 -7.15625q0 -1.125 -0.28125 -1.9375q-0.265625 -0.828125 -0.78125 -1.359375q-0.515625 -0.515625 -1.234375 -0.765625q-0.71875 -0.25 -1.609375 -0.25q-0.65625 0 -1.25 0.1875q-0.578125 0.1875 -1.078125 0.515625q-0.34375 0.21875 -0.640625 0.515625q-0.296875 0.296875 -0.546875 0.640625l-0.125 -1.65625l-1.734375 0l0 11.265625zm15.205215 -17.328125l0 1.578125l2.3125 0l0 17.421875l-2.3125 0l0 1.578125l4.140625 0l0 -20.578125l-4.140625 0z" fill-rule="nonzero"/><path fill="#cfe2f3" d="m26.930447 82.54635l0 0c0 -11.437309 9.271767 -20.70908 20.709076 -20.70908l82.83382 0l0 0c5.492386 0 10.759811 2.1818428 14.643524 6.065548c3.8836975 3.8837051 6.0655518 9.151138 6.0655518 14.643532l0 131.18027c0 11.437302 -9.271774 20.709076 -20.709076 20.709076l-82.83382 0c-11.437309 0 -20.709076 -9.271774 -20.709076 -20.709076z" fill-rule="evenodd"/><path stroke="#000000" stroke-width="2.0" stroke-linejoin="round" stroke-linecap="butt" d="m26.930447 82.54635l0 0c0 -11.437309 9.271767 -20.70908 20.709076 -20.70908l82.83382 0l0 0c5.492386 0 10.759811 2.1818428 14.643524 6.065548c3.8836975 3.8837051 6.0655518 9.151138 6.0655518 14.643532l0 131.18027c0 11.437302 -9.271774 20.709076 -20.709076 20.709076l-82.83382 0c-11.437309 0 -20.709076 -9.271774 -20.709076 -20.709076z" fill-rule="evenodd"/><path fill="#000000" d="m53.620926 92.82025l-1.921875 0q-0.09375 0.6875 -0.328125 1.28125q-0.21875 0.578125 -0.609375 1.015625q-0.375 0.4375 -0.9375 0.671875q-0.5625 0.234375 -1.3125 0.234375q-0.703125 0 -1.234375 -0.21875q-0.515625 -0.21875 -0.890625 -0.625q-0.390625 -0.375 -0.640625 -0.890625q-0.25 -0.515625 -0.40625 -1.09375q-0.15625 -0.578125 -0.234375 -1.171875q-0.0625 -0.59375 -0.0625 -1.15625l0 -2.140625q0 -0.5625 0.0625 -1.15625q0.078125 -0.609375 0.234375 -1.171875q0.15625 -0.578125 0.40625 -1.078125q0.265625 -0.515625 0.640625 -0.90625q0.375 -0.375 0.90625 -0.59375q0.53125 -0.234375 1.21875 -0.234375q0.75 0 1.3125 0.265625q0.5625 0.25 0.9375 0.6875q0.390625 0.453125 0.609375 1.046875q0.234375 0.59375 0.328125 1.28125l1.921875 0q-0.125 -1.078125 -0.515625 -1.96875q-0.390625 -0.90625 -1.03125 -1.546875q-0.640625 -0.640625 -1.546875 -0.984375q-0.890625 -0.359375 -2.015625 -0.359375q-0.953125 0 -1.71875 0.265625q-0.75 0.265625 -1.34375 0.734375q-0.609375 0.46875 -1.046875 1.109375q-0.421875 0.640625 -0.703125 1.390625q-0.296875 0.75 -0.4375 1.578125q-0.140625 0.8125 -0.15625 1.65625l0 2.125q0.015625 0.84375 0.15625 1.671875q0.140625 0.8125 0.4375 1.5625q0.28125 0.75 0.703125 1.390625q0.4375 0.625 1.046875 1.09375q0.59375 0.46875 1.359375 0.734375q0.765625 0.265625 1.703125 0.265625q1.09375 0 1.984375 -0.34375q0.890625 -0.34375 1.546875 -0.984375q0.640625 -0.625 1.046875 -1.5q0.40625 -0.890625 0.53125 -1.9375zm2.4395905 -1.171875l0 0.21875q0 1.21875 0.359375 2.265625q0.359375 1.046875 1.015625 1.8125q0.65625 0.765625 1.609375 1.203125q0.953125 0.4375 2.15625 0.4375q1.1875 0 2.125 -0.4375q0.953125 -0.4375 1.625 -1.203125q0.65625 -0.765625 1.0 -1.8125q0.359375 -1.046875 0.359375 -2.265625l0 -0.21875q0 -1.21875 -0.359375 -2.265625q-0.34375 -1.046875 -1.0 -1.828125q-0.671875 -0.765625 -1.625 -1.203125q-0.953125 -0.4375 -2.140625 -0.4375q-1.1875 0 -2.140625 0.4375q-0.953125 0.4375 -1.609375 1.203125q-0.65625 0.78125 -1.015625 1.828125q-0.359375 1.046875 -0.359375 2.265625zm1.9375 0.21875l0 -0.21875q0 -0.828125 0.1875 -1.578125q0.203125 -0.765625 0.609375 -1.328125q0.390625 -0.578125 0.984375 -0.90625q0.59375 -0.34375 1.40625 -0.34375q0.796875 0 1.390625 0.34375q0.609375 0.328125 1.015625 0.90625q0.390625 0.5625 0.59375 1.328125q0.203125 0.75 0.203125 1.578125l0 0.21875q0 0.84375 -0.203125 1.59375q-0.1875 0.75 -0.59375 1.328125q-0.40625 0.578125 -1.0 0.90625q-0.59375 0.328125 -1.390625 0.328125q-0.796875 0 -1.40625 -0.328125q-0.609375 -0.328125 -1.0 -0.90625q-0.40625 -0.578125 -0.609375 -1.328125q-0.1875 -0.75 -0.1875 -1.59375zm11.40834 5.515625l1.921875 0l0 -8.078125q0.203125 -0.375 0.46875 -0.671875q0.265625 -0.296875 0.578125 -0.53125q0.390625 -0.265625 0.84375 -0.40625q0.453125 -0.15625 0.984375 -0.15625q0.625 0 1.09375 0.15625q0.46875 0.140625 0.8125 0.453125q0.3125 0.328125 0.484375 0.859375q0.171875 0.515625 0.171875 1.265625l0 7.109375l1.921875 0l0 -7.15625q0 -1.125 -0.28125 -1.9375q-0.265625 -0.828125 -0.78125 -1.359375q-0.515625 -0.515625 -1.234375 -0.765625q-0.71875 -0.25 -1.609375 -0.25q-0.65625 0 -1.25 0.1875q-0.578125 0.1875 -1.078125 0.515625q-0.34375 0.21875 -0.640625 0.515625q-0.296875 0.296875 -0.546875 0.640625l-0.125 -1.65625l-1.734375 0l0 11.265625zm17.361465 -14.0l-1.9375 0l0 2.734375l-2.953125 0l0 1.484375l2.953125 0l0 6.125q0 1.046875 0.265625 1.78125q0.28125 0.734375 0.765625 1.1875q0.484375 0.46875 1.125 0.6875q0.65625 0.203125 1.40625 0.203125q0.453125 0 0.90625 -0.046875q0.453125 -0.03125 0.859375 -0.109375q0.40625 -0.078125 0.734375 -0.1875q0.34375 -0.109375 0.59375 -0.25l-0.28125 -1.375q-0.171875 0.046875 -0.453125 0.109375q-0.265625 0.046875 -0.578125 0.109375q-0.328125 0.046875 -0.65625 0.09375q-0.328125 0.03125 -0.640625 0.03125q-0.4375 0 -0.8125 -0.109375q-0.375 -0.109375 -0.671875 -0.359375q-0.296875 -0.25 -0.46875 -0.671875q-0.15625 -0.4375 -0.15625 -1.09375l0 -6.125l4.296875 0l0 -1.484375l-4.296875 0l0 -2.734375z" fill-rule="nonzero"/><path fill="#cfe2f3" d="m42.709972 119.259995l0 0c0 -4.2647095 3.4572296 -7.721939 7.721939 -7.721939l77.24904 0c2.0479813 0 4.0120926 0.8135605 5.460243 2.2617035c1.4481354 1.4481506 2.2617035 3.4122543 2.2617035 5.4602356l0 30.886826c0 4.2647095 -3.4572296 7.721939 -7.7219467 7.721939l-77.24904 0c-4.2647095 0 -7.721939 -3.4572296 -7.721939 -7.721939z" fill-rule="evenodd"/><path stroke="#000000" stroke-width="1.0" stroke-linejoin="round" stroke-linecap="butt" d="m42.709972 119.259995l0 0c0 -4.2647095 3.4572296 -7.721939 7.721939 -7.721939l77.24904 0c2.0479813 0 4.0120926 0.8135605 5.460243 2.2617035c1.4481354 1.4481506 2.2617035 3.4122543 2.2617035 5.4602356l0 30.886826c0 4.2647095 -3.4572296 7.721939 -7.7219467 7.721939l-77.24904 0c-4.2647095 0 -7.721939 -3.4572296 -7.721939 -7.721939z" fill-rule="evenodd"/><path fill="#000000" d="m57.393528 136.31091l2.625 0q0.890625 -0.015625 1.6875 -0.28125q0.796875 -0.265625 1.390625 -0.765625q0.609375 -0.5 0.9531212 -1.234375q0.359375 -0.734375 0.359375 -1.6875q0 -0.953125 -0.359375 -1.6875q-0.3437462 -0.75 -0.9531212 -1.25q-0.59375 -0.5 -1.390625 -0.765625q-0.796875 -0.265625 -1.6875 -0.28125l-4.3125 0l0 13.265625l1.6875 0l0 -5.3125zm0 -1.390625l0 -5.171875l2.625 0q0.578125 0 1.0625 0.1875q0.5 0.1875 0.875 0.515625q0.34375 0.34375 0.546875 0.828125q0.21875 0.484375 0.21875 1.078125q0 0.609375 -0.21875 1.078125q-0.203125 0.46875 -0.5625 0.796875q-0.359375 0.328125 -0.859375 0.5q-0.484375 0.171875 -1.0625 0.1875l-2.625 0zm8.883068 1.6875l0 0.203125q0 1.0625 0.3125 1.96875q0.3125 0.90625 0.890625 1.59375q0.578125 0.671875 1.40625 1.0625q0.84375 0.375 1.890625 0.375q1.03125 0 1.859375 -0.375q0.828125 -0.390625 1.40625 -1.0625q0.578125 -0.6875 0.890625 -1.59375q0.3125 -0.90625 0.3125 -1.96875l0 -0.203125q0 -1.0625 -0.3125 -1.984375q-0.3125 -0.921875 -0.890625 -1.59375q-0.578125 -0.671875 -1.421875 -1.046875q-0.828125 -0.390625 -1.875 -0.390625q-1.03125 0 -1.859375 0.390625q-0.828125 0.375 -1.40625 1.046875q-0.578125 0.671875 -0.890625 1.59375q-0.3125 0.921875 -0.3125 1.984375zm1.6875 0.203125l0 -0.203125q0 -0.71875 0.171875 -1.375q0.171875 -0.671875 0.53125 -1.171875q0.34375 -0.5 0.859375 -0.796875q0.515625 -0.296875 1.21875 -0.296875q0.703125 0 1.21875 0.296875q0.53125 0.296875 0.890625 0.796875q0.34375 0.5 0.515625 1.171875q0.1875 0.65625 0.1875 1.375l0 0.203125q0 0.71875 -0.171875 1.390625q-0.171875 0.65625 -0.515625 1.15625q-0.359375 0.5 -0.890625 0.796875q-0.515625 0.28125 -1.203125 0.28125q-0.703125 0 -1.234375 -0.28125q-0.53125 -0.296875 -0.875 -0.796875q-0.359375 -0.5 -0.53125 -1.15625q-0.171875 -0.671875 -0.171875 -1.390625zm12.929947 0.21875l3.625 4.59375l2.140625 0l-4.609375 -5.75l4.0 -4.109375l-2.046875 0l-3.234375 3.25l-1.109375 1.1875l0 -8.578125l-1.6875 0l0 14.0l1.6875 0l0 -3.40625l1.234375 -1.1875zm12.601822 4.78125q1.4375 0 2.421875 -0.578125q0.984375 -0.578125 1.46875 -1.328125l-1.03125 -0.796875q-0.46875 0.59375 -1.171875 0.96875q-0.6875 0.359375 -1.59375 0.359375q-0.6875 0 -1.25 -0.25q-0.5625 -0.265625 -0.96875 -0.71875q-0.390625 -0.40625 -0.609375 -0.953125q-0.21875 -0.546875 -0.28125 -1.265625l0 -0.078125l7.03125 0l0 -0.75q0 -1.03125 -0.265625 -1.90625q-0.25 -0.890625 -0.78125 -1.546875q-0.53125 -0.640625 -1.328125 -1.0q-0.796875 -0.375 -1.859375 -0.375q-0.84375 0 -1.65625 0.34375q-0.796875 0.34375 -1.4375 0.984375q-0.625 0.65625 -1.015625 1.609375q-0.375 0.9375 -0.375 2.125l0 0.390625q0 1.03125 0.34375 1.90625q0.34375 0.875 0.96875 1.5q0.609375 0.640625 1.484375 1.0q0.875 0.359375 1.90625 0.359375zm-0.21875 -8.84375q0.65625 0 1.125 0.234375q0.46875 0.234375 0.765625 0.625q0.3125 0.375 0.484375 0.90625q0.171875 0.515625 0.171875 0.984375l0 0.078125l-5.296875 0q0.09375 -0.6875 0.34375 -1.203125q0.265625 -0.53125 0.625 -0.890625q0.359375 -0.359375 0.8125 -0.546875q0.453125 -0.1875 0.96875 -0.1875z" fill-rule="nonzero"/><path fill="#cfe2f3" d="m42.709972 175.76918l0 0c0 -4.2647095 3.4572296 -7.721939 7.721939 -7.721939l77.24904 0c2.0479813 0 4.0120926 0.8135681 5.460243 2.2617035c1.4481354 1.4481506 2.2617035 3.4122467 2.2617035 5.4602356l0 30.88684c0 4.264694 -3.4572296 7.721939 -7.7219467 7.721939l-77.24904 0c-4.2647095 0 -7.721939 -3.4572449 -7.721939 -7.721939z" fill-rule="evenodd"/><path stroke="#000000" stroke-width="1.0" stroke-linejoin="round" stroke-linecap="butt" d="m42.709972 175.76918l0 0c0 -4.2647095 3.4572296 -7.721939 7.721939 -7.721939l77.24904 0c2.0479813 0 4.0120926 0.8135681 5.460243 2.2617035c1.4481354 1.4481506 2.2617035 3.4122467 2.2617035 5.4602356l0 30.88684c0 4.264694 -3.4572296 7.721939 -7.7219467 7.721939l-77.24904 0c-4.2647095 0 -7.721939 -3.4572449 -7.721939 -7.721939z" fill-rule="evenodd"/><path fill="#000000" d="m57.221653 192.74197l0 0.09375q0 1.3125 0.203125 2.46875q0.203125 1.140625 0.5625 2.109375q0.328125 0.984375 0.78125 1.78125q0.453125 0.8125 0.953125 1.4375q0.484375 0.640625 0.984375 1.078125q0.515625 0.453125 0.96875 0.703125l0.359375 -1.03125q-0.375 -0.296875 -0.75 -0.71875q-0.359375 -0.421875 -0.703125 -0.96875q-0.34375 -0.578125 -0.65625 -1.3125q-0.3125 -0.71875 -0.546875 -1.5625q-0.21875 -0.84375 -0.34375 -1.828125q-0.125 -1.0 -0.125 -2.140625l0 -0.125q0 -1.1875 0.125 -2.203125q0.140625 -1.03125 0.390625 -1.890625q0.265625 -0.953125 0.640625 -1.75q0.390625 -0.796875 0.796875 -1.390625q0.28125 -0.375 0.578125 -0.6875q0.296875 -0.3125 0.59375 -0.53125l-0.359375 -1.109375q-0.453125 0.25 -0.953125 0.703125q-0.5 0.453125 -1.0 1.078125q-0.5 0.625 -0.953125 1.4375q-0.4375 0.8125 -0.78125 1.78125q-0.359375 0.984375 -0.5625 2.140625q-0.203125 1.140625 -0.203125 2.4375zm15.679943 0.09375l0 -0.09375q0 -1.390625 -0.21875 -2.5q-0.203125 -1.125 -0.53125 -2.078125q-0.34375 -0.984375 -0.796875 -1.78125q-0.4375 -0.796875 -0.953125 -1.4375q-0.484375 -0.625 -1.0 -1.078125q-0.515625 -0.453125 -0.96875 -0.703125l-0.34375 1.03125q0.296875 0.25 0.609375 0.609375q0.328125 0.34375 0.625 0.796875q0.390625 0.59375 0.765625 1.390625q0.375 0.796875 0.640625 1.796875q0.171875 0.703125 0.328125 1.71875q0.15625 1.0 0.15625 2.21875l0 0.125q0 1.09375 -0.125 2.046875q-0.109375 0.953125 -0.3125 1.765625q-0.203125 0.890625 -0.53125 1.625q-0.3125 0.75 -0.640625 1.34375q-0.359375 0.578125 -0.75 1.015625q-0.390625 0.453125 -0.765625 0.734375l0.34375 1.03125q0.453125 -0.25 0.953125 -0.703125q0.515625 -0.4375 1.015625 -1.078125q0.5 -0.625 0.9375 -1.4375q0.453125 -0.796875 0.8125 -1.78125q0.34375 -0.96875 0.546875 -2.109375q0.203125 -1.15625 0.203125 -2.46875zm24.359894 -1.8125l0 -1.46875l-8.125 0l0 1.46875l8.125 0zm0 3.78125l0 -1.453125l-8.125 0l0 1.453125l8.125 0zm3.117447 1.53125l8.046875 -3.453125l0 -1.328125l-8.046875 -3.4375l0 1.734375l5.890625 2.1875l0.546875 0.171875l-0.546875 0.15625l-5.890625 2.21875l0 1.75z" fill-rule="nonzero"/><path fill="#cfe2f3" d="m207.48163 82.54635l0 0c0 -11.437309 9.271774 -20.70908 20.709076 -20.70908l82.8338 0l0 0c5.492401 0 10.759827 2.1818428 14.643555 6.065548c3.8836975 3.8837051 6.0655212 9.151138 6.0655212 14.643532l0 131.18027c0 11.437302 -9.271759 20.709076 -20.709076 20.709076l-82.8338 0c-11.437302 0 -20.709076 -9.271774 -20.709076 -20.709076z" fill-rule="evenodd"/><path stroke="#000000" stroke-width="2.0" stroke-linejoin="round" stroke-linecap="butt" d="m207.48163 82.54635l0 0c0 -11.437309 9.271774 -20.70908 20.709076 -20.70908l82.8338 0l0 0c5.492401 0 10.759827 2.1818428 14.643555 6.065548c3.8836975 3.8837051 6.0655212 9.151138 6.0655212 14.643532l0 131.18027c0 11.437302 -9.271759 20.709076 -20.709076 20.709076l-82.8338 0c-11.437302 0 -20.709076 -9.271774 -20.709076 -20.709076z" fill-rule="evenodd"/><path fill="#000000" d="m234.1721 92.82025l-1.921875 0q-0.09375 0.6875 -0.328125 1.28125q-0.21875 0.578125 -0.609375 1.015625q-0.375 0.4375 -0.9375 0.671875q-0.5625 0.234375 -1.3125 0.234375q-0.703125 0 -1.234375 -0.21875q-0.515625 -0.21875 -0.890625 -0.625q-0.390625 -0.375 -0.640625 -0.890625q-0.25 -0.515625 -0.40625 -1.09375q-0.15625 -0.578125 -0.234375 -1.171875q-0.0625 -0.59375 -0.0625 -1.15625l0 -2.140625q0 -0.5625 0.0625 -1.15625q0.078125 -0.609375 0.234375 -1.171875q0.15625 -0.578125 0.40625 -1.078125q0.265625 -0.515625 0.640625 -0.90625q0.375 -0.375 0.90625 -0.59375q0.53125 -0.234375 1.21875 -0.234375q0.75 0 1.3125 0.265625q0.5625 0.25 0.9375 0.6875q0.390625 0.453125 0.609375 1.046875q0.234375 0.59375 0.328125 1.28125l1.921875 0q-0.125 -1.078125 -0.515625 -1.96875q-0.390625 -0.90625 -1.03125 -1.546875q-0.640625 -0.640625 -1.546875 -0.984375q-0.890625 -0.359375 -2.015625 -0.359375q-0.953125 0 -1.71875 0.265625q-0.75 0.265625 -1.34375 0.734375q-0.609375 0.46875 -1.046875 1.109375q-0.421875 0.640625 -0.703125 1.390625q-0.296875 0.75 -0.4375 1.578125q-0.140625 0.8125 -0.15625 1.65625l0 2.125q0.015625 0.84375 0.15625 1.671875q0.140625 0.8125 0.4375 1.5625q0.28125 0.75 0.703125 1.390625q0.4375 0.625 1.046875 1.09375q0.59375 0.46875 1.359375 0.734375q0.765625 0.265625 1.703125 0.265625q1.09375 0 1.984375 -0.34375q0.890625 -0.34375 1.546875 -0.984375q0.640625 -0.625 1.046875 -1.5q0.40625 -0.890625 0.53125 -1.9375zm2.4395905 -1.171875l0 0.21875q0 1.21875 0.359375 2.265625q0.359375 1.046875 1.015625 1.8125q0.65625 0.765625 1.609375 1.203125q0.953125 0.4375 2.15625 0.4375q1.1875 0 2.125 -0.4375q0.953125 -0.4375 1.625 -1.203125q0.65625 -0.765625 1.0 -1.8125q0.359375 -1.046875 0.359375 -2.265625l0 -0.21875q0 -1.21875 -0.359375 -2.265625q-0.34375 -1.046875 -1.0 -1.828125q-0.671875 -0.765625 -1.625 -1.203125q-0.953125 -0.4375 -2.140625 -0.4375q-1.1875 0 -2.140625 0.4375q-0.953125 0.4375 -1.609375 1.203125q-0.65625 0.78125 -1.015625 1.828125q-0.359375 1.046875 -0.359375 2.265625zm1.9375 0.21875l0 -0.21875q0 -0.828125 0.1875 -1.578125q0.203125 -0.765625 0.609375 -1.328125q0.390625 -0.578125 0.984375 -0.90625q0.59375 -0.34375 1.40625 -0.34375q0.796875 0 1.390625 0.34375q0.609375 0.328125 1.015625 0.90625q0.390625 0.5625 0.59375 1.328125q0.203125 0.75 0.203125 1.578125l0 0.21875q0 0.84375 -0.203125 1.59375q-0.1875 0.75 -0.59375 1.328125q-0.40625 0.578125 -1.0 0.90625q-0.59375 0.328125 -1.390625 0.328125q-0.796875 0 -1.40625 -0.328125q-0.609375 -0.328125 -1.0 -0.90625q-0.40625 -0.578125 -0.609375 -1.328125q-0.1875 -0.75 -0.1875 -1.59375zm11.40834 5.515625l1.921875 0l0 -8.078125q0.203125 -0.375 0.46875 -0.671875q0.265625 -0.296875 0.578125 -0.53125q0.390625 -0.265625 0.84375 -0.40625q0.453125 -0.15625 0.984375 -0.15625q0.625 0 1.09375 0.15625q0.46876526 0.140625 0.81251526 0.453125q0.3125 0.328125 0.484375 0.859375q0.171875 0.515625 0.171875 1.265625l0 7.109375l1.921875 0l0 -7.15625q0 -1.125 -0.28125 -1.9375q-0.265625 -0.828125 -0.78125 -1.359375q-0.515625 -0.515625 -1.234375 -0.765625q-0.71875 -0.25 -1.6093903 -0.25q-0.65625 0 -1.25 0.1875q-0.578125 0.1875 -1.078125 0.515625q-0.34375 0.21875 -0.640625 0.515625q-0.296875 0.296875 -0.546875 0.640625l-0.125 -1.65625l-1.734375 0l0 11.265625zm17.361465 -14.0l-1.9375 0l0 2.734375l-2.953125 0l0 1.484375l2.953125 0l0 6.125q0 1.046875 0.265625 1.78125q0.28125 0.734375 0.765625 1.1875q0.484375 0.46875 1.125 0.6875q0.65625 0.203125 1.40625 0.203125q0.453125 0 0.90625 -0.046875q0.453125 -0.03125 0.859375 -0.109375q0.40625 -0.078125 0.734375 -0.1875q0.34375 -0.109375 0.59375 -0.25l-0.28125 -1.375q-0.171875 0.046875 -0.453125 0.109375q-0.265625 0.046875 -0.578125 0.109375q-0.328125 0.046875 -0.65625 0.09375q-0.328125 0.03125 -0.640625 0.03125q-0.4375 0 -0.8125 -0.109375q-0.375 -0.109375 -0.671875 -0.359375q-0.296875 -0.25 -0.46875 -0.671875q-0.15625 -0.4375 -0.15625 -1.09375l0 -6.125l4.296875 0l0 -1.484375l-4.296875 0l0 -2.734375z" fill-rule="nonzero"/><path fill="#cfe2f3" d="m223.26115 119.259995l0 0c0 -4.2647095 3.4572296 -7.721939 7.721939 -7.721939l77.24902 0c2.0480042 0 4.0121155 0.8135605 5.4602356 2.2617035c1.4481506 1.4481506 2.2617188 3.4122543 2.2617188 5.4602356l0 30.886826c0 4.2647095 -3.4572449 7.721939 -7.7219543 7.721939l-77.24902 0c-4.2647095 0 -7.721939 -3.4572296 -7.721939 -7.721939z" fill-rule="evenodd"/><path stroke="#000000" stroke-width="1.0" stroke-linejoin="round" stroke-linecap="butt" d="m223.26115 119.259995l0 0c0 -4.2647095 3.4572296 -7.721939 7.721939 -7.721939l77.24902 0c2.0480042 0 4.0121155 0.8135605 5.4602356 2.2617035c1.4481506 1.4481506 2.2617188 3.4122543 2.2617188 5.4602356l0 30.886826c0 4.2647095 -3.4572449 7.721939 -7.7219543 7.721939l-77.24902 0c-4.2647095 0 -7.721939 -3.4572296 -7.721939 -7.721939z" fill-rule="evenodd"/><path fill="#000000" d="m243.05408 138.26404q0 0.546875 -0.25 0.953125q-0.234375 0.390625 -0.609375 0.640625q-0.359375 0.265625 -0.84375 0.390625q-0.484375 0.125 -0.96875 0.125q-0.625 0 -1.15625 -0.15625q-0.515625 -0.171875 -0.90625 -0.515625q-0.40625 -0.328125 -0.671875 -0.796875q-0.25 -0.484375 -0.328125 -1.109375l-1.71875 0q0.03125 0.859375 0.375 1.5625q0.34375 0.6875 0.953125 1.203125q0.671875 0.609375 1.578125 0.9375q0.921875 0.3125 1.875 0.3125q0.796875 0 1.578125 -0.21875q0.796875 -0.234375 1.421875 -0.671875q0.625 -0.4375 1.015625 -1.109375q0.40625 -0.671875 0.40625 -1.5625q0 -0.875 -0.375 -1.546875q-0.359375 -0.6875 -0.953125 -1.140625q-0.625 -0.5 -1.359375 -0.828125q-0.734375 -0.328125 -1.46875 -0.546875q-0.453125 -0.140625 -0.953125 -0.3125q-0.5 -0.1875 -0.9375 -0.46875q-0.4375 -0.265625 -0.71875 -0.65625q-0.28125 -0.40625 -0.296875 -0.984375q0 -0.53125 0.21875 -0.921875q0.21875 -0.40625 0.578125 -0.671875q0.359375 -0.28125 0.8125 -0.40625q0.46875 -0.140625 0.953125 -0.140625q0.59375 0 1.0625 0.1875q0.484375 0.171875 0.828125 0.515625q0.359375 0.34375 0.5625 0.8125q0.203125 0.46875 0.28125 1.03125l1.734375 0q-0.015625 -0.90625 -0.390625 -1.640625q-0.375 -0.734375 -1.0 -1.265625q-0.609375 -0.515625 -1.421875 -0.796875q-0.796875 -0.296875 -1.65625 -0.296875q-0.796875 0 -1.578125 0.25q-0.765625 0.234375 -1.375 0.703125q-0.609375 0.46875 -0.984375 1.140625q-0.375 0.671875 -0.375 1.53125q0 0.859375 0.375 1.5q0.375 0.625 0.984375 1.09375q0.59375 0.453125 1.3125 0.78125q0.71875 0.3125 1.421875 0.546875q0.484375 0.15625 1.0 0.34375q0.53125 0.1875 0.96875 0.46875q0.4375 0.296875 0.71875 0.71875q0.28125 0.40625 0.28125 1.015625zm8.242447 -8.890625l-1.703125 0l0 2.390625l-2.578125 0l0 1.3125l2.578125 0l0 5.34375q0 0.921875 0.234375 1.5625q0.25 0.640625 0.671875 1.046875q0.421875 0.40625 0.984375 0.59375q0.578125 0.1875 1.234375 0.1875q0.390625 0 0.78125 -0.046875q0.40625 -0.03125 0.75 -0.109375q0.359375 -0.0625 0.65625 -0.15625q0.296875 -0.09375 0.515625 -0.21875l-0.234375 -1.203125q-0.15625 0.046875 -0.40625 0.09375q-0.234375 0.046875 -0.515625 0.09375q-0.28125 0.046875 -0.578125 0.078125q-0.28125 0.03125 -0.546875 0.03125q-0.375 0 -0.71875 -0.09375q-0.328125 -0.09375 -0.578125 -0.3125q-0.265625 -0.21875 -0.40625 -0.59375q-0.140625 -0.375 -0.140625 -0.953125l0 -5.34375l3.75 0l0 -1.3125l-3.75 0l0 -2.390625zm11.554947 12.4375q1.4375 0 2.421875 -0.578125q0.984375 -0.578125 1.46875 -1.328125l-1.03125 -0.796875q-0.46875 0.59375 -1.171875 0.96875q-0.6875 0.359375 -1.59375 0.359375q-0.6875 0 -1.25 -0.25q-0.5625 -0.265625 -0.96875 -0.71875q-0.390625 -0.40625 -0.609375 -0.953125q-0.21875 -0.546875 -0.28125 -1.265625l0 -0.078125l7.03125 0l0 -0.75q0 -1.03125 -0.265625 -1.90625q-0.25 -0.890625 -0.78125 -1.546875q-0.53125 -0.640625 -1.328125 -1.0q-0.796875 -0.375 -1.859375 -0.375q-0.84375 0 -1.65625 0.34375q-0.796875 0.34375 -1.4375 0.984375q-0.625 0.65625 -1.015625 1.609375q-0.375 0.9375 -0.375 2.125l0 0.390625q0 1.03125 0.34375 1.90625q0.34375 0.875 0.96875 1.5q0.609375 0.640625 1.484375 1.0q0.875 0.359375 1.90625 0.359375zm-0.21875 -8.84375q0.65625 0 1.125 0.234375q0.46875 0.234375 0.765625 0.625q0.3125 0.375 0.484375 0.90625q0.171875 0.515625 0.171875 0.984375l0 0.078125l-5.296875 0q0.09375 -0.6875 0.34375 -1.203125q0.265625 -0.53125 0.625 -0.890625q0.359375 -0.359375 0.8125 -0.546875q0.453125 -0.1875 0.96875 -0.1875zm7.054962 12.453125l1.6875 0l0 -4.75q0.171875 0.203125 0.375 0.375q0.21875 0.171875 0.453125 0.3125q0.390625 0.21875 0.875 0.328125q0.5 0.125 1.0625 0.125q0.921875 0 1.640625 -0.375q0.734375 -0.390625 1.234375 -1.0625q0.484375 -0.6875 0.734375 -1.59375q0.265625 -0.921875 0.265625 -1.96875l0 -0.203125q0 -1.09375 -0.265625 -2.015625q-0.25 -0.9375 -0.734375 -1.59375q-0.5 -0.671875 -1.234375 -1.03125q-0.71875 -0.375 -1.671875 -0.375q-0.53125 0 -1.0 0.109375q-0.46875 0.109375 -0.859375 0.328125q-0.265625 0.140625 -0.515625 0.359375q-0.234375 0.203125 -0.421875 0.453125l-0.09375 -1.078125l-1.53125 0l0 13.65625zm6.640625 -8.8125l0 0.203125q0 0.71875 -0.171875 1.375q-0.15625 0.65625 -0.484375 1.15625q-0.328125 0.5 -0.84375 0.796875q-0.5 0.296875 -1.203125 0.296875q-0.4375 0 -0.796875 -0.109375q-0.359375 -0.109375 -0.640625 -0.3125q-0.265625 -0.15625 -0.46875 -0.390625q-0.1875 -0.234375 -0.34375 -0.515625l0 -4.75q0.171875 -0.296875 0.390625 -0.546875q0.234375 -0.265625 0.53125 -0.4375q0.265625 -0.171875 0.59375 -0.265625q0.328125 -0.09375 0.71875 -0.09375q0.71875 0 1.21875 0.296875q0.515625 0.28125 0.84375 0.78125q0.328125 0.5 0.484375 1.15625q0.171875 0.640625 0.171875 1.359375z" fill-rule="nonzero"/><path fill="#cfe2f3" d="m223.26115 175.76918l0 0c0 -4.2647095 3.4572296 -7.721939 7.721939 -7.721939l77.24902 0c2.0480042 0 4.0121155 0.8135681 5.4602356 2.2617035c1.4481506 1.4481506 2.2617188 3.4122467 2.2617188 5.4602356l0 30.88684c0 4.264694 -3.4572449 7.721939 -7.7219543 7.721939l-77.24902 0c-4.2647095 0 -7.721939 -3.4572449 -7.721939 -7.721939z" fill-rule="evenodd"/><path stroke="#000000" stroke-width="1.0" stroke-linejoin="round" stroke-linecap="butt" d="m223.26115 175.76918l0 0c0 -4.2647095 3.4572296 -7.721939 7.721939 -7.721939l77.24902 0c2.0480042 0 4.0121155 0.8135681 5.4602356 2.2617035c1.4481506 1.4481506 2.2617188 3.4122467 2.2617188 5.4602356l0 30.88684c0 4.264694 -3.4572449 7.721939 -7.7219543 7.721939l-77.24902 0c-4.2647095 0 -7.721939 -3.4572449 -7.721939 -7.721939z" fill-rule="evenodd"/><path fill="#000000" d="m237.77283 192.74197l0 0.09375q0 1.3125 0.203125 2.46875q0.203125 1.140625 0.5625 2.109375q0.328125 0.984375 0.78125 1.78125q0.453125 0.8125 0.953125 1.4375q0.484375 0.640625 0.984375 1.078125q0.515625 0.453125 0.96875 0.703125l0.359375 -1.03125q-0.375 -0.296875 -0.75 -0.71875q-0.359375 -0.421875 -0.703125 -0.96875q-0.34375 -0.578125 -0.65625 -1.3125q-0.3125 -0.71875 -0.546875 -1.5625q-0.21875 -0.84375 -0.34375 -1.828125q-0.125 -1.0 -0.125 -2.140625l0 -0.125q0 -1.1875 0.125 -2.203125q0.140625 -1.03125 0.390625 -1.890625q0.265625 -0.953125 0.640625 -1.75q0.390625 -0.796875 0.796875 -1.390625q0.28125 -0.375 0.578125 -0.6875q0.296875 -0.3125 0.59375 -0.53125l-0.359375 -1.109375q-0.453125 0.25 -0.953125 0.703125q-0.5 0.453125 -1.0 1.078125q-0.5 0.625 -0.953125 1.4375q-0.4375 0.8125 -0.78125 1.78125q-0.359375 0.984375 -0.5625 2.140625q-0.203125 1.140625 -0.203125 2.4375zm15.679947 0.09375l0 -0.09375q0 -1.390625 -0.21875 -2.5q-0.203125 -1.125 -0.53125 -2.078125q-0.34375 -0.984375 -0.796875 -1.78125q-0.4375 -0.796875 -0.953125 -1.4375q-0.484375 -0.625 -1.0 -1.078125q-0.515625 -0.453125 -0.96875 -0.703125l-0.34375 1.03125q0.296875 0.25 0.609375 0.609375q0.328125 0.34375 0.625 0.796875q0.390625 0.59375 0.765625 1.390625q0.375 0.796875 0.640625 1.796875q0.171875 0.703125 0.328125 1.71875q0.15625 1.0 0.15625 2.21875l0 0.125q0 1.09375 -0.125 2.046875q-0.109375 0.953125 -0.3125 1.765625q-0.203125 0.890625 -0.53125 1.625q-0.3125 0.75 -0.640625 1.34375q-0.359375 0.578125 -0.75 1.015625q-0.390625 0.453125 -0.765625 0.734375l0.34375 1.03125q0.453125 -0.25 0.953125 -0.703125q0.515625 -0.4375 1.015625 -1.078125q0.5 -0.625 0.9375 -1.4375q0.453125 -0.796875 0.8125 -1.78125q0.34375 -0.96875 0.546875 -2.109375q0.203125 -1.15625 0.203125 -2.46875zm24.35991 -1.8125l0 -1.46875l-8.125 0l0 1.46875l8.125 0zm0 3.78125l0 -1.453125l-8.125 0l0 1.453125l8.125 0zm3.1174316 1.53125l8.046875 -3.453125l0 -1.328125l-8.046875 -3.4375l0 1.734375l5.890625 2.1875l0.546875 0.171875l-0.546875 0.15625l-5.890625 2.21875l0 1.75z" fill-rule="nonzero"/><path fill="#cfe2f3" d="m377.3609 82.54635l0 0c0 -11.437309 9.271759 -20.70908 20.709076 -20.70908l82.8338 0l0 0c5.492401 0 10.759827 2.1818428 14.643524 6.065548c3.883728 3.8837051 6.0655518 9.151138 6.0655518 14.643532l0 131.18027c0 11.437302 -9.271759 20.709076 -20.709076 20.709076l-82.8338 0c-11.437317 0 -20.709076 -9.271774 -20.709076 -20.709076z" fill-rule="evenodd"/><path stroke="#000000" stroke-width="2.0" stroke-linejoin="round" stroke-linecap="butt" d="m377.3609 82.54635l0 0c0 -11.437309 9.271759 -20.70908 20.709076 -20.70908l82.8338 0l0 0c5.492401 0 10.759827 2.1818428 14.643524 6.065548c3.883728 3.8837051 6.0655518 9.151138 6.0655518 14.643532l0 131.18027c0 11.437302 -9.271759 20.709076 -20.709076 20.709076l-82.8338 0c-11.437317 0 -20.709076 -9.271774 -20.709076 -20.709076z" fill-rule="evenodd"/><path fill="#000000" d="m404.05136 92.82025l-1.921875 0q-0.09375 0.6875 -0.328125 1.28125q-0.21875 0.578125 -0.609375 1.015625q-0.375 0.4375 -0.9375 0.671875q-0.5625 0.234375 -1.3125 0.234375q-0.703125 0 -1.234375 -0.21875q-0.515625 -0.21875 -0.890625 -0.625q-0.390625 -0.375 -0.640625 -0.890625q-0.25 -0.515625 -0.40625 -1.09375q-0.15625 -0.578125 -0.234375 -1.171875q-0.0625 -0.59375 -0.0625 -1.15625l0 -2.140625q0 -0.5625 0.0625 -1.15625q0.078125 -0.609375 0.234375 -1.171875q0.15625 -0.578125 0.40625 -1.078125q0.265625 -0.515625 0.640625 -0.90625q0.375 -0.375 0.90625 -0.59375q0.53125 -0.234375 1.21875 -0.234375q0.75 0 1.3125 0.265625q0.5625 0.25 0.9375 0.6875q0.390625 0.453125 0.609375 1.046875q0.234375 0.59375 0.328125 1.28125l1.921875 0q-0.125 -1.078125 -0.515625 -1.96875q-0.390625 -0.90625 -1.03125 -1.546875q-0.640625 -0.640625 -1.546875 -0.984375q-0.890625 -0.359375 -2.015625 -0.359375q-0.953125 0 -1.71875 0.265625q-0.75 0.265625 -1.34375 0.734375q-0.609375 0.46875 -1.046875 1.109375q-0.421875 0.640625 -0.703125 1.390625q-0.296875 0.75 -0.4375 1.578125q-0.140625 0.8125 -0.15625 1.65625l0 2.125q0.015625 0.84375 0.15625 1.671875q0.140625 0.8125 0.4375 1.5625q0.28125 0.75 0.703125 1.390625q0.4375 0.625 1.046875 1.09375q0.59375 0.46875 1.359375 0.734375q0.765625 0.265625 1.703125 0.265625q1.09375 0 1.984375 -0.34375q0.890625 -0.34375 1.546875 -0.984375q0.640625 -0.625 1.046875 -1.5q0.40625 -0.890625 0.53125 -1.9375zm2.4396057 -1.171875l0 0.21875q0 1.21875 0.359375 2.265625q0.359375 1.046875 1.015625 1.8125q0.65625 0.765625 1.609375 1.203125q0.953125 0.4375 2.15625 0.4375q1.1875 0 2.125 -0.4375q0.953125 -0.4375 1.625 -1.203125q0.65625 -0.765625 1.0 -1.8125q0.359375 -1.046875 0.359375 -2.265625l0 -0.21875q0 -1.21875 -0.359375 -2.265625q-0.34375 -1.046875 -1.0 -1.828125q-0.671875 -0.765625 -1.625 -1.203125q-0.953125 -0.4375 -2.140625 -0.4375q-1.1875 0 -2.140625 0.4375q-0.953125 0.4375 -1.609375 1.203125q-0.65625 0.78125 -1.015625 1.828125q-0.359375 1.046875 -0.359375 2.265625zm1.9375 0.21875l0 -0.21875q0 -0.828125 0.1875 -1.578125q0.203125 -0.765625 0.609375 -1.328125q0.390625 -0.578125 0.984375 -0.90625q0.59375 -0.34375 1.40625 -0.34375q0.796875 0 1.390625 0.34375q0.609375 0.328125 1.015625 0.90625q0.390625 0.5625 0.59375 1.328125q0.203125 0.75 0.203125 1.578125l0 0.21875q0 0.84375 -0.203125 1.59375q-0.1875 0.75 -0.59375 1.328125q-0.40625 0.578125 -1.0 0.90625q-0.59375 0.328125 -1.390625 0.328125q-0.796875 0 -1.40625 -0.328125q-0.609375 -0.328125 -1.0 -0.90625q-0.40625 -0.578125 -0.609375 -1.328125q-0.1875 -0.75 -0.1875 -1.59375zm11.408325 5.515625l1.921875 0l0 -8.078125q0.203125 -0.375 0.46875 -0.671875q0.265625 -0.296875 0.578125 -0.53125q0.390625 -0.265625 0.84375 -0.40625q0.453125 -0.15625 0.984375 -0.15625q0.625 0 1.09375 0.15625q0.46875 0.140625 0.8125 0.453125q0.3125 0.328125 0.484375 0.859375q0.171875 0.515625 0.171875 1.265625l0 7.109375l1.921875 0l0 -7.15625q0 -1.125 -0.28125 -1.9375q-0.265625 -0.828125 -0.78125 -1.359375q-0.515625 -0.515625 -1.234375 -0.765625q-0.71875 -0.25 -1.609375 -0.25q-0.65625 0 -1.25 0.1875q-0.578125 0.1875 -1.078125 0.515625q-0.34375 0.21875 -0.640625 0.515625q-0.296875 0.296875 -0.546875 0.640625l-0.125 -1.65625l-1.734375 0l0 11.265625zm17.36148 -14.0l-1.9375 0l0 2.734375l-2.953125 0l0 1.484375l2.953125 0l0 6.125q0 1.046875 0.265625 1.78125q0.28125 0.734375 0.765625 1.1875q0.484375 0.46875 1.125 0.6875q0.65625 0.203125 1.40625 0.203125q0.453125 0 0.90625 -0.046875q0.453125 -0.03125 0.859375 -0.109375q0.40625 -0.078125 0.734375 -0.1875q0.34375 -0.109375 0.59375 -0.25l-0.28125 -1.375q-0.171875 0.046875 -0.453125 0.109375q-0.265625 0.046875 -0.578125 0.109375q-0.328125 0.046875 -0.65625 0.09375q-0.328125 0.03125 -0.640625 0.03125q-0.4375 0 -0.8125 -0.109375q-0.375 -0.109375 -0.671875 -0.359375q-0.296875 -0.25 -0.46875 -0.671875q-0.15625 -0.4375 -0.15625 -1.09375l0 -6.125l4.296875 0l0 -1.484375l-4.296875 0l0 -2.734375z" fill-rule="nonzero"/><path fill="#cfe2f3" d="m393.1404 119.259995l0 0c0 -4.2647095 3.4572449 -7.721939 7.7219543 -7.721939l77.24902 0c2.0480042 0 4.012085 0.8135605 5.4602356 2.2617035c1.4481506 1.4481506 2.2617188 3.4122543 2.2617188 5.4602356l0 30.886826c0 4.2647095 -3.4572449 7.721939 -7.7219543 7.721939l-77.24902 0c-4.2647095 0 -7.7219543 -3.4572296 -7.7219543 -7.721939z" fill-rule="evenodd"/><path stroke="#000000" stroke-width="1.0" stroke-linejoin="round" stroke-linecap="butt" d="m393.1404 119.259995l0 0c0 -4.2647095 3.4572449 -7.721939 7.7219543 -7.721939l77.24902 0c2.0480042 0 4.012085 0.8135605 5.4602356 2.2617035c1.4481506 1.4481506 2.2617188 3.4122543 2.2617188 5.4602356l0 30.886826c0 4.2647095 -3.4572449 7.721939 -7.7219543 7.721939l-77.24902 0c-4.2647095 0 -7.7219543 -3.4572296 -7.7219543 -7.721939z" fill-rule="evenodd"/><path fill="#000000" d="m407.82397 136.31091l2.625 0q0.890625 -0.015625 1.6875 -0.28125q0.796875 -0.265625 1.390625 -0.765625q0.609375 -0.5 0.953125 -1.234375q0.359375 -0.734375 0.359375 -1.6875q0 -0.953125 -0.359375 -1.6875q-0.34375 -0.75 -0.953125 -1.25q-0.59375 -0.5 -1.390625 -0.765625q-0.796875 -0.265625 -1.6875 -0.28125l-4.3125 0l0 13.265625l1.6875 0l0 -5.3125zm0 -1.390625l0 -5.171875l2.625 0q0.578125 0 1.0625 0.1875q0.5 0.1875 0.875 0.515625q0.34375 0.34375 0.546875 0.828125q0.21875 0.484375 0.21875 1.078125q0 0.609375 -0.21875 1.078125q-0.203125 0.46875 -0.5625 0.796875q-0.359375 0.328125 -0.859375 0.5q-0.484375 0.171875 -1.0625 0.1875l-2.625 0zm13.711182 6.890625q1.4375 0 2.421875 -0.578125q0.984375 -0.578125 1.46875 -1.328125l-1.03125 -0.796875q-0.46875 0.59375 -1.171875 0.96875q-0.6875 0.359375 -1.59375 0.359375q-0.6875 0 -1.25 -0.25q-0.5625 -0.265625 -0.96875 -0.71875q-0.390625 -0.40625 -0.609375 -0.953125q-0.21875 -0.546875 -0.28125 -1.265625l0 -0.078125l7.03125 0l0 -0.75q0 -1.03125 -0.265625 -1.90625q-0.25 -0.890625 -0.78125 -1.546875q-0.53125 -0.640625 -1.328125 -1.0q-0.796875 -0.375 -1.859375 -0.375q-0.84375 0 -1.65625 0.34375q-0.796875 0.34375 -1.4375 0.984375q-0.625 0.65625 -1.015625 1.609375q-0.375 0.9375 -0.375 2.125l0 0.390625q0 1.03125 0.34375 1.90625q0.34375 0.875 0.96875 1.5q0.609375 0.640625 1.484375 1.0q0.875 0.359375 1.90625 0.359375zm-0.21875 -8.84375q0.65625 0 1.125 0.234375q0.46875 0.234375 0.765625 0.625q0.3125 0.375 0.484375 0.90625q0.171875 0.515625 0.171875 0.984375l0 0.078125l-5.296875 0q0.09375 -0.6875 0.34375 -1.203125q0.265625 -0.53125 0.625 -0.890625q0.359375 -0.359375 0.8125 -0.546875q0.453125 -0.1875 0.96875 -0.1875zm11.414337 8.84375q1.4375 0 2.421875 -0.578125q0.984375 -0.578125 1.46875 -1.328125l-1.03125 -0.796875q-0.46875 0.59375 -1.171875 0.96875q-0.6875 0.359375 -1.59375 0.359375q-0.6875 0 -1.25 -0.25q-0.5625 -0.265625 -0.96875 -0.71875q-0.390625 -0.40625 -0.609375 -0.953125q-0.21875 -0.546875 -0.28125 -1.265625l0 -0.078125l7.03125 0l0 -0.75q0 -1.03125 -0.265625 -1.90625q-0.25 -0.890625 -0.78125 -1.546875q-0.53125 -0.640625 -1.328125 -1.0q-0.796875 -0.375 -1.859375 -0.375q-0.84375 0 -1.65625 0.34375q-0.796875 0.34375 -1.4375 0.984375q-0.625 0.65625 -1.015625 1.609375q-0.375 0.9375 -0.375 2.125l0 0.390625q0 1.03125 0.34375 1.90625q0.34375 0.875 0.96875 1.5q0.609375 0.640625 1.484375 1.0q0.875 0.359375 1.90625 0.359375zm-0.21875 -8.84375q0.65625 0 1.125 0.234375q0.46875 0.234375 0.765625 0.625q0.3125 0.375 0.484375 0.90625q0.171875 0.515625 0.171875 0.984375l0 0.078125l-5.296875 0q0.09375 -0.6875 0.34375 -1.203125q0.265625 -0.53125 0.625 -0.890625q0.359375 -0.359375 0.8125 -0.546875q0.453125 -0.1875 0.96875 -0.1875zm10.008057 4.0625l3.625 4.59375l2.140625 0l-4.609375 -5.75l4.0 -4.109375l-2.046875 0l-3.234375 3.25l-1.109375 1.1875l0 -8.578125l-1.6875 0l0 14.0l1.6875 0l0 -3.40625l1.234375 -1.1875z" fill-rule="nonzero"/><path fill="#cfe2f3" d="m393.1404 175.76918l0 0c0 -4.2647095 3.4572449 -7.721939 7.7219543 -7.721939l77.24902 0c2.0480042 0 4.012085 0.8135681 5.4602356 2.2617035c1.4481506 1.4481506 2.2617188 3.4122467 2.2617188 5.4602356l0 30.88684c0 4.264694 -3.4572449 7.721939 -7.7219543 7.721939l-77.24902 0c-4.2647095 0 -7.7219543 -3.4572449 -7.7219543 -7.721939z" fill-rule="evenodd"/><path stroke="#000000" stroke-width="1.0" stroke-linejoin="round" stroke-linecap="butt" d="m393.1404 175.76918l0 0c0 -4.2647095 3.4572449 -7.721939 7.7219543 -7.721939l77.24902 0c2.0480042 0 4.012085 0.8135681 5.4602356 2.2617035c1.4481506 1.4481506 2.2617188 3.4122467 2.2617188 5.4602356l0 30.88684c0 4.264694 -3.4572449 7.721939 -7.7219543 7.721939l-77.24902 0c-4.2647095 0 -7.7219543 -3.4572449 -7.7219543 -7.721939z" fill-rule="evenodd"/><path fill="#000000" d="m405.98022 201.92947l1.6875 0l0 -4.75q0.171875 0.203125 0.375 0.375q0.21875 0.171875 0.453125 0.3125q0.390625 0.21875 0.875 0.328125q0.5 0.125 1.0625 0.125q0.921875 0 1.640625 -0.375q0.734375 -0.390625 1.234375 -1.0625q0.484375 -0.6875 0.734375 -1.59375q0.265625 -0.921875 0.265625 -1.96875l0 -0.203125q0 -1.09375 -0.265625 -2.015625q-0.25 -0.9375 -0.734375 -1.59375q-0.5 -0.671875 -1.234375 -1.03125q-0.71875 -0.375 -1.671875 -0.375q-0.53125 0 -1.0 0.109375q-0.46875 0.109375 -0.859375 0.328125q-0.265625 0.140625 -0.515625 0.359375q-0.234375 0.203125 -0.421875 0.453125l-0.09375 -1.078125l-1.53125 0l0 13.65625zm6.640625 -8.8125l0 0.203125q0 0.71875 -0.171875 1.375q-0.15625 0.65625 -0.484375 1.15625q-0.328125 0.5 -0.84375 0.796875q-0.5 0.296875 -1.203125 0.296875q-0.4375 0 -0.796875 -0.109375q-0.359375 -0.109375 -0.640625 -0.3125q-0.265625 -0.15625 -0.46875 -0.390625q-0.1875 -0.234375 -0.34375 -0.515625l0 -4.75q0.171875 -0.296875 0.390625 -0.546875q0.234375 -0.265625 0.53125 -0.4375q0.265625 -0.171875 0.59375 -0.265625q0.328125 -0.09375 0.71875 -0.09375q0.71875 0 1.21875 0.296875q0.515625 0.28125 0.84375 0.78125q0.328125 0.5 0.484375 1.15625q0.171875 0.640625 0.171875 1.359375zm23.875519 -2.09375l0 -1.46875l-8.125 0l0 1.46875l8.125 0zm0 3.78125l0 -1.453125l-8.125 0l0 1.453125l8.125 0zm3.1174316 1.53125l8.046875 -3.453125l0 -1.328125l-8.046875 -3.4375l0 1.734375l5.890625 2.1875l0.546875 0.171875l-0.546875 0.15625l-5.890625 2.21875l0 1.75z" fill-rule="nonzero"/><path fill="#cfe2f3" d="m539.0932 128.92407l0 0c0 -5.3055115 4.3009644 -9.606483 9.606445 -9.606483l198.01538 0c2.5477905 0 4.991272 1.0121078 6.7928467 2.813675c1.8015137 1.8015671 2.8136597 4.2450104 2.8136597 6.7928085l0 38.42482c0 5.3055115 -4.3009644 9.606491 -9.606506 9.606491l-198.01538 0l0 0c-5.305481 0 -9.606445 -4.3009796 -9.606445 -9.606491z" fill-rule="evenodd"/><path stroke="#000000" stroke-width="2.0" stroke-linejoin="round" stroke-linecap="butt" d="m539.0932 128.92407l0 0c0 -5.3055115 4.3009644 -9.606483 9.606445 -9.606483l198.01538 0c2.5477905 0 4.991272 1.0121078 6.7928467 2.813675c1.8015137 1.8015671 2.8136597 4.2450104 2.8136597 6.7928085l0 38.42482c0 5.3055115 -4.3009644 9.606491 -9.606506 9.606491l-198.01538 0l0 0c-5.305481 0 -9.606445 -4.3009796 -9.606445 -9.606491z" fill-rule="evenodd"/><path fill="#000000" d="m575.30707 149.65024l2.609375 5.40625l1.78125 0l0 -0.109375l-2.8125 -5.671875q0.546875 -0.234375 1.0 -0.5625q0.46875 -0.34375 0.796875 -0.78125q0.328125 -0.4375 0.5 -0.96875q0.1875 -0.546875 0.1875 -1.1875q0 -1.0 -0.34375 -1.734375q-0.34375 -0.75 -0.953125 -1.25q-0.625 -0.484375 -1.453125 -0.734375q-0.8125 -0.25 -1.75 -0.265625l-3.875 0l0 13.265625l1.671875 0l0 -5.40625l2.640625 0zm-2.640625 -1.390625l0 -5.078125l2.203125 0q0.625 0 1.125 0.171875q0.515625 0.15625 0.890625 0.484375q0.375 0.328125 0.578125 0.8125q0.21875 0.46875 0.21875 1.109375q0 0.59375 -0.21875 1.0625q-0.21875 0.453125 -0.59375 0.78125q-0.375 0.3125 -0.875 0.484375q-0.5 0.15625 -1.078125 0.171875l-2.25 0zm13.804993 6.984375q1.4375 0 2.421875 -0.578125q0.984375 -0.578125 1.46875 -1.328125l-1.03125 -0.796875q-0.46875 0.59375 -1.171875 0.96875q-0.6875 0.359375 -1.59375 0.359375q-0.6875 0 -1.25 -0.25q-0.5625 -0.265625 -0.96875 -0.71875q-0.390625 -0.40625 -0.609375 -0.953125q-0.21875 -0.546875 -0.28125 -1.265625l0 -0.078125l7.03125 0l0 -0.75q0 -1.03125 -0.265625 -1.90625q-0.25 -0.890625 -0.78125 -1.546875q-0.53125 -0.640625 -1.328125 -1.0q-0.796875 -0.375 -1.859375 -0.375q-0.84375 0 -1.65625 0.34375q-0.796875 0.34375 -1.4375 0.984375q-0.625 0.65625 -1.015625 1.609375q-0.375 0.9375 -0.375 2.125l0 0.390625q0 1.03125 0.34375 1.90625q0.34375 0.875 0.96875 1.5q0.609375 0.640625 1.484375 1.0q0.875 0.359375 1.90625 0.359375zm-0.21875 -8.84375q0.65625 0 1.125 0.234375q0.46875 0.234375 0.765625 0.625q0.3125 0.375 0.484375 0.90625q0.171875 0.515625 0.171875 0.984375l0 0.078125l-5.296875 0q0.09375 -0.6875 0.34375 -1.203125q0.265625 -0.53125 0.625 -0.890625q0.359375 -0.359375 0.8125 -0.546875q0.453125 -0.1875 0.96875 -0.1875zm11.054932 -3.59375l-1.703125 0l0 2.390625l-2.578125 0l0 1.3125l2.578125 0l0 5.34375q0 0.921875 0.234375 1.5625q0.25 0.640625 0.671875 1.046875q0.421875 0.40625 0.984375 0.59375q0.578125 0.1875 1.234375 0.1875q0.390625 0 0.78125 -0.046875q0.40625 -0.03125 0.75 -0.109375q0.359375 -0.0625 0.65625 -0.15625q0.296875 -0.09375 0.515625 -0.21875l-0.234375 -1.203125q-0.15625 0.046875 -0.40625 0.09375q-0.234375 0.046875 -0.515625 0.09375q-0.28125 0.046875 -0.578125 0.078125q-0.28125 0.03125 -0.546875 0.03125q-0.375 0 -0.71875 -0.09375q-0.328125 -0.09375 -0.578125 -0.3125q-0.265625 -0.21875 -0.40625 -0.59375q-0.140625 -0.375 -0.140625 -0.953125l0 -5.34375l3.75 0l0 -1.3125l-3.75 0l0 -2.390625zm13.695557 12.25l1.53125 0l0 -9.859375l-1.6875 0l0 7.078125q-0.140625 0.3125 -0.34375 0.578125q-0.203125 0.265625 -0.484375 0.46875q-0.328125 0.234375 -0.78125 0.375q-0.4375 0.125 -1.0 0.125q-0.484375 0 -0.859375 -0.125q-0.359375 -0.140625 -0.625 -0.453125q-0.25 -0.3125 -0.375 -0.828125q-0.125 -0.53125 -0.125 -1.34375l0 -5.875l-1.6875 0l0 5.859375q0 1.109375 0.234375 1.890625q0.25 0.78125 0.6875 1.296875q0.453125 0.515625 1.078125 0.765625q0.625 0.234375 1.40625 0.234375q0.96875 0 1.703125 -0.40625q0.734375 -0.40625 1.234375 -1.140625l0.09375 1.359375zm11.164307 -10.03125q-1.078125 0 -1.921875 0.46875q-0.84375 0.46875 -1.4375 1.265625l-0.015625 -0.234375l-0.078125 -1.328125l-1.59375 0l0 9.859375l1.6875 0l0 -6.328125q0.171875 -0.453125 0.421875 -0.8125q0.25 -0.375 0.578125 -0.625q0.375 -0.296875 0.875 -0.4375q0.5 -0.15625 1.125 -0.15625q0.484375 0 0.921875 0.046875q0.453125 0.046875 0.9375 0.15625l0.234375 -1.640625q-0.265625 -0.109375 -0.765625 -0.171875q-0.5 -0.0625 -0.96875 -0.0625zm4.7268677 10.03125l1.6875 0l0 -7.0625q0.171875 -0.328125 0.40625 -0.59375q0.234375 -0.265625 0.515625 -0.453125q0.328125 -0.234375 0.71875 -0.359375q0.40625 -0.140625 0.875 -0.140625q0.546875 0 0.953125 0.125q0.421875 0.125 0.703125 0.40625q0.28125 0.296875 0.421875 0.75q0.15625 0.453125 0.15625 1.109375l0 6.21875l1.6875 0l0 -6.265625q0 -0.96875 -0.25 -1.6875q-0.234375 -0.71875 -0.6875 -1.1875q-0.4375 -0.453125 -1.078125 -0.671875q-0.625 -0.21875 -1.40625 -0.21875q-0.5625 0 -1.078125 0.171875q-0.515625 0.15625 -0.953125 0.4375q-0.296875 0.1875 -0.5625 0.453125q-0.25 0.265625 -0.46875 0.5625l-0.125 -1.453125l-1.515625 0l0 9.859375zm12.867432 -5.390625l0 0.09375q0 1.3125 0.203125 2.46875q0.203125 1.140625 0.5625 2.109375q0.328125 0.984375 0.78125 1.78125q0.453125 0.8125 0.953125 1.4375q0.484375 0.640625 0.984375 1.078125q0.515625 0.453125 0.96875 0.703125l0.359375 -1.03125q-0.375 -0.296875 -0.75 -0.71875q-0.359375 -0.421875 -0.703125 -0.96875q-0.34375 -0.578125 -0.65625 -1.3125q-0.3125 -0.71875 -0.546875 -1.5625q-0.21875 -0.84375 -0.34375 -1.828125q-0.125 -1.0 -0.125 -2.140625l0 -0.125q0 -1.1875 0.125 -2.203125q0.140625 -1.03125 0.390625 -1.890625q0.265625 -0.953125 0.640625 -1.75q0.390625 -0.796875 0.796875 -1.390625q0.28125 -0.375 0.578125 -0.6875q0.296875 -0.3125 0.59375 -0.53125l-0.359375 -1.109375q-0.453125 0.25 -0.953125 0.703125q-0.5 0.453125 -1.0 1.078125q-0.5 0.625 -0.953125 1.4375q-0.4375 0.8125 -0.78125 1.78125q-0.359375 0.984375 -0.5625 2.140625q-0.203125 1.140625 -0.203125 2.4375zm9.523682 9.1875l1.6875 0l0 -4.75q0.171875 0.203125 0.375 0.375q0.21875 0.171875 0.453125 0.3125q0.390625 0.21875 0.875 0.328125q0.5 0.125 1.0625 0.125q0.921875 0 1.640625 -0.375q0.734375 -0.390625 1.234375 -1.0625q0.484375 -0.6875 0.734375 -1.59375q0.265625 -0.921875 0.265625 -1.96875l0 -0.203125q0 -1.09375 -0.265625 -2.015625q-0.25 -0.9375 -0.734375 -1.59375q-0.5 -0.671875 -1.234375 -1.03125q-0.71875 -0.375 -1.671875 -0.375q-0.53125 0 -1.0 0.109375q-0.46875 0.109375 -0.859375 0.328125q-0.265625 0.140625 -0.515625 0.359375q-0.234375 0.203125 -0.421875 0.453125l-0.09375 -1.078125l-1.53125 0l0 13.65625zm6.640625 -8.8125l0 0.203125q0 0.71875 -0.171875 1.375q-0.15625 0.65625 -0.484375 1.15625q-0.328125 0.5 -0.84375 0.796875q-0.5 0.296875 -1.203125 0.296875q-0.4375 0 -0.796875 -0.109375q-0.359375 -0.109375 -0.640625 -0.3125q-0.265625 -0.15625 -0.46875 -0.390625q-0.1875 -0.234375 -0.34375 -0.515625l0 -4.75q0.171875 -0.296875 0.390625 -0.546875q0.234375 -0.265625 0.53125 -0.4375q0.265625 -0.171875 0.59375 -0.265625q0.328125 -0.09375 0.71875 -0.09375q0.71875 0 1.21875 0.296875q0.515625 0.28125 0.84375 0.78125q0.328125 0.5 0.484375 1.15625q0.171875 0.640625 0.171875 1.359375zm23.87555 -2.09375l0 -1.46875l-8.125 0l0 1.46875l8.125 0zm0 3.78125l0 -1.453125l-8.125 0l0 1.453125l8.125 0zm11.195557 -3.78125l0 -1.46875l-8.125 0l0 1.46875l8.125 0zm0 3.78125l0 -1.453125l-8.125 0l0 1.453125l8.125 0zm19.734863 3.328125l0 -13.265625l-0.125 0l-5.03125 1.9375l0 1.53125l3.46875 -1.3125l0 11.109375l1.6875 0zm11.883118 -5.296875l0 -0.09375q0 -1.390625 -0.21875 -2.5q-0.203125 -1.125 -0.53125 -2.078125q-0.34375 -0.984375 -0.796875 -1.78125q-0.4375 -0.796875 -0.953125 -1.4375q-0.484375 -0.625 -1.0 -1.078125q-0.515625 -0.453125 -0.96875 -0.703125l-0.34375 1.03125q0.296875 0.25 0.609375 0.609375q0.328125 0.34375 0.625 0.796875q0.390625 0.59375 0.765625 1.390625q0.375 0.796875 0.640625 1.796875q0.171875 0.703125 0.328125 1.71875q0.15625 1.0 0.15625 2.21875l0 0.125q0 1.09375 -0.125 2.046875q-0.109375 0.953125 -0.3125 1.765625q-0.203125 0.890625 -0.53125 1.625q-0.3125 0.75 -0.640625 1.34375q-0.359375 0.578125 -0.75 1.015625q-0.390625 0.453125 -0.765625 0.734375l0.34375 1.03125q0.453125 -0.25 0.953125 -0.703125q0.515625 -0.4375 1.015625 -1.078125q0.5 -0.625 0.9375 -1.4375q0.453125 -0.796875 0.8125 -1.78125q0.34375 -0.96875 0.546875 -2.109375q0.203125 -1.15625 0.203125 -2.46875z" fill-rule="nonzero"/><path fill="#000000" fill-opacity="0.0" d="m135.4029 191.2126l72.09448 -43.08661" fill-rule="evenodd"/><path stroke="#000000" stroke-width="2.0" stroke-linejoin="round" stroke-linecap="butt" d="m135.4029 191.2126l61.793854 -36.930542" fill-rule="evenodd"/><path fill="#000000" stroke="#000000" stroke-width="2.0" stroke-linecap="butt" d="m198.89145 157.1177l6.096176 -7.491791l-9.485565 1.8204956z" fill-rule="evenodd"/><path fill="#000000" fill-opacity="0.0" d="m315.95407 191.2126l61.417328 -43.08661" fill-rule="evenodd"/><path stroke="#000000" stroke-width="2.0" stroke-linejoin="round" stroke-linecap="butt" d="m315.95407 191.2126l51.593628 -36.19493" fill-rule="evenodd"/><path fill="#000000" stroke="#000000" stroke-width="2.0" stroke-linecap="butt" d="m369.44492 157.72202l5.5329285 -7.91687l-9.327332 2.5081787z" fill-rule="evenodd"/><path fill="#000000" fill-opacity="0.0" d="m485.83334 191.2126l53.259857 -43.08661" fill-rule="evenodd"/><path stroke="#000000" stroke-width="2.0" stroke-linejoin="round" stroke-linecap="butt" d="m485.83334 191.2126l43.93045 -35.539246" fill-rule="evenodd"/><path fill="#000000" stroke="#000000" stroke-width="2.0" stroke-linecap="butt" d="m531.8415 158.24162l4.9785767 -8.276718l-9.133972 3.1401672z" fill-rule="evenodd"/></g></svg>