<?xml version="1.0" encoding="UTF-8" standalone="no"?>
<svg
   width="448.71854pt"
   height="93.559044pt"
   viewBox="0 0 448.71854 93.559047"
   version="1.1"
   id="svg70"
   xmlns="http://www.w3.org/2000/svg"
   xmlns:svg="http://www.w3.org/2000/svg">
  <defs
     id="defs14">
    <clipPath
       id="clip-0">
      <path
         clip-rule="nonzero"
         d="M 5,60 H 193 V 93.558594 H 5 Z m 0,0"
         id="path2" />
    </clipPath>
    <clipPath
       id="clip-1">
      <path
         clip-rule="nonzero"
         d="M 261,60 H 448.71875 V 93.558594 H 261 Z m 0,0"
         id="path5" />
    </clipPath>
    <clipPath
       id="clip-2">
      <path
         clip-rule="nonzero"
         d="M 261,0 H 448.71875 V 33 H 261 Z m 0,0"
         id="path8" />
    </clipPath>
    <clipPath
       id="clip-3">
      <path
         clip-rule="nonzero"
         d="m 232,53 h 50 v 40.558594 h -50 z m 0,0"
         id="path11" />
    </clipPath>
  </defs>
  <path
     fill-rule="evenodd"
     fill="#eeeeee"
     fill-opacity="1"
     stroke-width="1.5"
     stroke-linecap="butt"
     stroke-linejoin="round"
     stroke="#595959"
     stroke-opacity="1"
     stroke-miterlimit="10"
     d="M 6,0.75 H 191.50391 V 32.121094 H 6 Z m 0,0"
     id="path16" />
  <path
     fill-rule="nonzero"
     fill="#000000"
     fill-opacity="1"
     d="M 73.097656,21.625 72.277344,19.550781 H 67.636719 L 66.804688,21.625 h -1.324219 l 3.75,-9.328125 h 1.441406 L 74.433594,21.625 Z m -3.140625,-8.132812 -1.992187,5.027343 h 3.960937 z M 75.648438,21.625 v -9.328125 h 3.1875 c 1.421874,0 2.574218,0.441406 3.457031,1.324219 0.890625,0.875 1.335937,1.988281 1.335937,3.339844 0,1.367187 -0.445312,2.488281 -1.335937,3.363281 C 81.402344,21.191406 80.25,21.625 78.835938,21.625 Z m 3.1875,-1.03125 c 1.0625,0 1.925781,-0.332031 2.589843,-0.996094 0.664063,-0.671875 0.996094,-1.550781 0.996094,-2.636718 0,-1.078126 -0.328125,-1.953126 -0.984375,-2.625 -0.648438,-0.671876 -1.515625,-1.007813 -2.601562,-1.007813 H 76.808594 V 20.59375 Z M 87.375,21.625 v -8.296875 h -2.953125 v -1.03125 H 91.5 v 1.03125 H 88.535156 V 21.625 Z m 6.492188,0.164062 c -1.148438,0 -2.058594,-0.351562 -2.730469,-1.054687 L 91.6875,19.972656 c 0.226562,0.265625 0.535156,0.492188 0.925781,0.679688 0.398438,0.1875 0.832031,0.28125 1.300781,0.28125 0.523438,0 0.917969,-0.109375 1.183594,-0.328125 0.273438,-0.21875 0.410156,-0.496094 0.410156,-0.832031 0,-0.296876 -0.148437,-0.53125 -0.445312,-0.703126 -0.289062,-0.171874 -0.835938,-0.351562 -1.640625,-0.539062 -0.679687,-0.140625 -1.199219,-0.359375 -1.558594,-0.65625 -0.359375,-0.304688 -0.539062,-0.714844 -0.539062,-1.230469 0,-0.570312 0.226562,-1.035156 0.679687,-1.394531 0.460938,-0.367188 1.074219,-0.550781 1.839844,-0.550781 1.015625,0 1.851562,0.328125 2.507812,0.984375 l -0.492187,0.726562 C 95.65625,16.167969 95.378906,15.964844 95.027344,15.800781 94.675781,15.636719 94.28125,15.554688 93.84375,15.554688 c -0.46875,0 -0.835938,0.101562 -1.101562,0.304687 -0.265626,0.203125 -0.398438,0.457031 -0.398438,0.761719 0,0.265625 0.148438,0.480468 0.445312,0.644531 0.304688,0.15625 0.855469,0.316406 1.652344,0.480469 0.679688,0.164062 1.195313,0.40625 1.546875,0.726562 0.359375,0.320313 0.539063,0.746094 0.539063,1.277344 0,0.625 -0.242188,1.121094 -0.726563,1.488281 -0.484375,0.367188 -1.128906,0.550781 -1.933593,0.550781 z m 10.816402,-4.511718 v 2.976562 h -0.79687 v -2.976562 h -2.68359 v -0.726563 h 2.68359 v -2.90625 h 0.79687 v 2.90625 h 2.6836 v 0.726563 z M 119.13281,21.625 118.3125,19.550781 h -4.64062 L 112.83984,21.625 h -1.32421 l 3.75,-9.328125 h 1.4414 L 120.46875,21.625 Z M 115.99219,13.492188 114,18.519531 h 3.96094 z m 5.6914,8.132812 v -9.328125 h 3.75 c 0.89063,0 1.60157,0.265625 2.13282,0.796875 0.53125,0.53125 0.79687,1.203125 0.79687,2.015625 0,0.820313 -0.27344,1.496094 -0.82031,2.027344 -0.53906,0.523437 -1.24219,0.785156 -2.10938,0.785156 h -2.58984 V 21.625 Z m 3.60938,-4.746094 c 0.5625,0 1.01172,-0.160156 1.34766,-0.480468 0.34375,-0.328126 0.51562,-0.757813 0.51562,-1.289063 0,-0.53125 -0.17187,-0.960937 -0.51562,-1.289063 -0.33594,-0.328124 -0.78516,-0.492187 -1.34766,-0.492187 h -2.44922 v 3.550781 z m 4.60547,4.746094 v -9.328125 h 1.16015 V 21.625 Z m 0,0"
     id="path18" />
  <path
     fill-rule="evenodd"
     fill="#eeeeee"
     fill-opacity="1"
     d="M 6,61.4375 H 191.50391 V 92.808594 H 6 Z m 0,0"
     id="path20" />
  <g
     clip-path="url(#clip-0)"
     id="g24">
    <path
       fill="none"
       stroke-width="1.5"
       stroke-linecap="butt"
       stroke-linejoin="round"
       stroke="#595959"
       stroke-opacity="1"
       stroke-miterlimit="10"
       d="M 6,61.4375 H 191.50391 V 92.808594 H 6 Z m 0,0"
       id="path22" />
  </g>
  <path
     fill-rule="nonzero"
     fill="#000000"
     fill-opacity="1"
     d="m 61.367188,82.476562 c -1.203126,0 -2.140626,-0.328124 -2.8125,-0.984374 -0.664063,-0.65625 -0.996094,-1.589844 -0.996094,-2.800782 v -5.707031 h 1.160156 v 5.671875 c 0,0.859375 0.222656,1.539062 0.667969,2.039062 0.453125,0.5 1.113281,0.75 1.980469,0.75 0.867187,0 1.523437,-0.25 1.96875,-0.75 0.453124,-0.5 0.679687,-1.179687 0.679687,-2.039062 v -5.671875 h 1.160156 v 5.695313 c 0,1.210937 -0.328125,2.148437 -0.984375,2.8125 -0.648437,0.65625 -1.589844,0.984374 -2.824218,0.984374 z m 8.082031,0 c -1.148438,0 -2.058594,-0.351562 -2.730469,-1.054687 l 0.550781,-0.761719 c 0.226563,0.265625 0.535157,0.492188 0.925781,0.679688 0.398438,0.1875 0.832032,0.28125 1.300782,0.28125 0.523437,0 0.917968,-0.109375 1.183594,-0.328125 0.273437,-0.21875 0.410156,-0.496094 0.410156,-0.832031 0,-0.296876 -0.148438,-0.53125 -0.445313,-0.703126 C 70.355469,79.585938 69.808594,79.40625 69.003906,79.21875 68.324219,79.078125 67.804688,78.859375 67.445312,78.5625 67.085938,78.257812 66.90625,77.847656 66.90625,77.332031 c 0,-0.570312 0.226562,-1.035156 0.679688,-1.394531 0.460937,-0.367188 1.074218,-0.550781 1.839843,-0.550781 1.015625,0 1.851563,0.328125 2.507813,0.984375 l -0.492188,0.726562 c -0.203125,-0.242187 -0.480468,-0.445312 -0.832031,-0.609375 -0.351563,-0.164062 -0.746094,-0.246093 -1.183594,-0.246093 -0.46875,0 -0.835937,0.101562 -1.101562,0.304687 -0.265625,0.203125 -0.398438,0.457031 -0.398438,0.761719 0,0.265625 0.148438,0.480468 0.445313,0.644531 0.304687,0.15625 0.855468,0.316406 1.652344,0.480469 0.679687,0.164062 1.195312,0.40625 1.546874,0.726562 0.359376,0.320313 0.539063,0.746094 0.539063,1.277344 0,0.625 -0.242187,1.121094 -0.726563,1.488281 -0.484374,0.367188 -1.128906,0.550781 -1.933593,0.550781 z m 7.421875,0 c -1.015625,0 -1.84375,-0.328124 -2.484375,-0.984374 -0.640625,-0.664063 -0.960938,-1.519532 -0.960938,-2.566407 0,-1 0.316407,-1.839843 0.949219,-2.519531 0.640625,-0.679688 1.433594,-1.019531 2.378906,-1.019531 0.96875,0 1.75,0.335937 2.34375,1.007812 C 79.699219,77.066406 80,77.9375 80,79.007812 v 0.269532 h -5.472656 c 0.03906,0.6875 0.289062,1.25 0.75,1.6875 0.460937,0.429687 1.023437,0.644531 1.6875,0.644531 0.820312,0 1.515625,-0.285156 2.085937,-0.855469 l 0.503907,0.691406 c -0.6875,0.6875 -1.582032,1.03125 -2.683594,1.03125 z m 2.097656,-3.972656 c 0,-0.625 -0.207031,-1.15625 -0.621094,-1.59375 -0.40625,-0.4375 -0.941406,-0.65625 -1.605468,-0.65625 -0.625,0 -1.144532,0.21875 -1.558594,0.65625 -0.414063,0.4375 -0.632813,0.96875 -0.65625,1.59375 z m 2.730469,3.808594 v -6.761719 h 1.042969 v 1.089844 c 0.625,-0.820313 1.375,-1.230469 2.25,-1.230469 v 1.078125 l -0.410157,-0.03516 c -0.320312,0 -0.671875,0.113281 -1.054687,0.339844 -0.382813,0.226562 -0.644532,0.472656 -0.785156,0.738281 v 4.78125 z m 8.265625,0 v -9.328125 h 3.75 c 0.890625,0 1.601562,0.265625 2.132812,0.796875 0.53125,0.53125 0.796875,1.203125 0.796875,2.015625 0,0.820313 -0.273437,1.496094 -0.820312,2.027344 -0.539063,0.523437 -1.242188,0.785156 -2.109375,0.785156 H 91.125 V 82.3125 Z m 3.609375,-4.746094 c 0.5625,0 1.011719,-0.160156 1.347656,-0.480468 0.34375,-0.328126 0.515625,-0.757813 0.515625,-1.289063 0,-0.53125 -0.171875,-0.960937 -0.515625,-1.289063 -0.335937,-0.328124 -0.785156,-0.492187 -1.347656,-0.492187 H 91.125 v 3.550781 z m 4.566406,4.746094 v -6.761719 h 1.042969 v 1.089844 c 0.625,-0.820313 1.374996,-1.230469 2.249996,-1.230469 v 1.078125 l -0.41015,-0.03516 c -0.32031,0 -0.67188,0.113281 -1.05469,0.339844 -0.382812,0.226562 -0.644531,0.472656 -0.785156,0.738281 v 4.78125 z m 7.558595,0.164062 c -0.97656,0 -1.77734,-0.332031 -2.40234,-0.996093 -0.625,-0.664063 -0.9375,-1.515625 -0.9375,-2.554688 0,-1.046875 0.3125,-1.898437 0.9375,-2.554687 0.625,-0.65625 1.42578,-0.984375 2.40234,-0.984375 0.98437,0 1.78906,0.328125 2.41406,0.984375 0.625,0.65625 0.9375,1.507812 0.9375,2.554687 0,1.039063 -0.3125,1.890625 -0.9375,2.554688 -0.625,0.664062 -1.42969,0.996093 -2.41406,0.996093 z m 0,-0.9375 c 0.65625,0 1.19531,-0.242187 1.61719,-0.726562 0.42187,-0.492188 0.63281,-1.121094 0.63281,-1.886719 0,-0.757812 -0.21094,-1.378906 -0.63281,-1.863281 -0.42188,-0.492188 -0.96094,-0.738281 -1.61719,-0.738281 -0.64844,0 -1.1875,0.242187 -1.61719,0.726562 -0.42187,0.484375 -0.63281,1.109375 -0.63281,1.875 0,0.773438 0.21094,1.402344 0.63281,1.886719 0.42188,0.484375 0.96094,0.726562 1.61719,0.726562 z m 7.76953,3.515626 c -0.57812,0 -1.07812,-0.07031 -1.5,-0.210938 -0.41406,-0.140625 -0.82422,-0.40625 -1.23047,-0.796875 l 0.53906,-0.785156 c 0.28125,0.335937 0.59375,0.574219 0.9375,0.714843 0.35157,0.140626 0.76954,0.210938 1.25391,0.210938 0.69531,0 1.23047,-0.179688 1.60547,-0.539062 0.375,-0.359376 0.5625,-0.855469 0.5625,-1.488282 V 81.1875 c -0.24219,0.351562 -0.5625,0.640625 -0.96094,0.867188 -0.39062,0.226562 -0.82422,0.339843 -1.30078,0.339843 -0.91406,0 -1.64453,-0.320312 -2.19141,-0.960937 -0.54687,-0.648438 -0.82031,-1.492188 -0.82031,-2.53125 0,-1.085938 0.27735,-1.941406 0.83203,-2.566406 0.55469,-0.632813 1.28125,-0.949219 2.17969,-0.949219 0.92969,0 1.68359,0.394531 2.26172,1.183593 v -1.019531 h 1.05469 v 6.5625 c 0,0.953125 -0.28125,1.679688 -0.84375,2.179688 -0.55469,0.507812 -1.34766,0.761719 -2.37891,0.761719 z m 0.15234,-3.585938 c 0.38282,0 0.76172,-0.101562 1.13672,-0.304688 0.38282,-0.203124 0.67578,-0.46875 0.87891,-0.796874 v -2.953126 c -0.20313,-0.328124 -0.49609,-0.589843 -0.87891,-0.785156 -0.38281,-0.203125 -0.76172,-0.304687 -1.13672,-0.304687 -0.65625,0 -1.18359,0.238281 -1.58203,0.714843 -0.39062,0.476563 -0.58593,1.097657 -0.58593,1.863282 0,0.773437 0.19921,1.394531 0.59765,1.863281 0.40625,0.46875 0.92969,0.703125 1.57031,0.703125 z m 5.17188,0.84375 v -6.761719 h 1.04297 v 1.089844 c 0.625,-0.820313 1.375,-1.230469 2.25,-1.230469 v 1.078125 l -0.41016,-0.03516 c -0.32031,0 -0.67187,0.113281 -1.05469,0.339844 -0.38281,0.226562 -0.64453,0.472656 -0.78515,0.738281 v 4.78125 z m 8.83594,0 v -0.773438 c -0.57032,0.625 -1.31641,0.9375 -2.23828,0.9375 -0.67969,0 -1.2461,-0.214843 -1.69922,-0.644531 -0.44532,-0.429687 -0.66797,-0.960937 -0.66797,-1.59375 0,-0.648437 0.22265,-1.179687 0.66797,-1.59375 0.44531,-0.421875 1.01172,-0.632812 1.69922,-0.632812 0.96875,0 1.71484,0.308593 2.23828,0.925781 v -1.21875 c 0,-0.453125 -0.16016,-0.800781 -0.48047,-1.042969 -0.32031,-0.25 -0.73047,-0.375 -1.23047,-0.375 -0.78906,0 -1.47656,0.3125 -2.0625,0.9375 L 123.36328,76.5 c 0.71875,-0.742188 1.61719,-1.113281 2.69531,-1.113281 0.83594,0 1.48047,0.203125 1.9336,0.609375 0.46093,0.398437 0.6914,0.957031 0.6914,1.675781 V 82.3125 Z m -1.86328,-0.585938 c 0.83593,0 1.45703,-0.28125 1.86328,-0.84375 v -1.265624 c -0.40625,-0.5625 -1.02735,-0.84375 -1.86328,-0.84375 -0.49219,0 -0.89454,0.136718 -1.20704,0.410156 -0.30468,0.273437 -0.45703,0.628906 -0.45703,1.066406 0,0.429688 0.15235,0.785156 0.45703,1.066406 0.3125,0.273438 0.71485,0.410156 1.20704,0.410156 z m 13.17578,0.585938 v -4.59375 c 0,-0.929688 -0.41797,-1.394531 -1.25391,-1.394531 -0.35156,0 -0.69531,0.105469 -1.03125,0.316406 -0.32813,0.210937 -0.57813,0.449219 -0.75,0.714844 V 82.3125 h -1.05469 v -4.59375 c 0,-0.929688 -0.41406,-1.394531 -1.24219,-1.394531 -0.34375,0 -0.67968,0.109375 -1.00781,0.328125 -0.32812,0.210937 -0.58594,0.453125 -0.77344,0.726562 V 82.3125 h -1.04296 v -6.761719 h 1.04296 v 0.984375 c 0.15625,-0.273437 0.45313,-0.53125 0.89063,-0.773437 0.44531,-0.25 0.875,-0.375 1.28906,-0.375 0.52344,0 0.92969,0.121093 1.21875,0.363281 0.29688,0.242188 0.5,0.539062 0.60938,0.890625 0.22656,-0.359375 0.55468,-0.65625 0.98437,-0.890625 0.42969,-0.242188 0.85547,-0.363281 1.27735,-0.363281 1.25781,0 1.88671,0.679687 1.88671,2.039062 V 82.3125 Z m 0,0"
     id="path26" />
  <path
     fill-rule="evenodd"
     fill="#eeeeee"
     fill-opacity="1"
     d="M 262.46484,61.4375 H 447.96875 V 92.808594 H 262.46484 Z m 0,0"
     id="path28" />
  <g
     clip-path="url(#clip-1)"
     id="g32">
    <path
       fill="none"
       stroke-width="1.5"
       stroke-linecap="butt"
       stroke-linejoin="round"
       stroke="#595959"
       stroke-opacity="1"
       stroke-miterlimit="10"
       d="M 262.46484,61.4375 H 447.96875 V 92.808594 H 262.46484 Z m 0,0"
       id="path30" />
  </g>
  <path
     fill-rule="nonzero"
     fill="#000000"
     fill-opacity="1"
     d="m 281,82.3125 v -9.328125 h 1.16016 V 82.3125 Z m 7.86719,0 v -4.417969 c 0,-0.601562 -0.14063,-1.011719 -0.42188,-1.230469 -0.27344,-0.226562 -0.63672,-0.339843 -1.08984,-0.339843 -0.39063,0 -0.77735,0.105469 -1.16016,0.316406 -0.375,0.210937 -0.65625,0.457031 -0.84375,0.738281 V 82.3125 h -1.04297 v -6.761719 h 1.04297 v 0.984375 c 0.28906,-0.335937 0.64453,-0.609375 1.06641,-0.820312 0.42969,-0.21875 0.875,-0.328125 1.33594,-0.328125 1.4375,0 2.15625,0.726562 2.15625,2.179687 V 82.3125 Z m 2.51953,-2.929688 V 78.46875 h 3.35156 v 0.914062 z M 304.23437,82.3125 V 74.625 l -3.17578,7.6875 h -0.48047 l -3.16406,-7.6875 v 7.6875 h -1.16015 v -9.328125 h 1.66406 l 2.89453,7.019531 2.91797,-7.019531 h 1.66406 V 82.3125 Z m 6.34766,0.164062 c -1.01562,0 -1.84375,-0.328124 -2.48437,-0.984374 -0.64063,-0.664063 -0.96094,-1.519532 -0.96094,-2.566407 0,-1 0.3164,-1.839843 0.94922,-2.519531 0.64062,-0.679688 1.43359,-1.019531 2.3789,-1.019531 0.96875,0 1.75,0.335937 2.34375,1.007812 0.60157,0.671875 0.90235,1.542969 0.90235,2.613281 v 0.269532 h -5.47266 c 0.0391,0.6875 0.28906,1.25 0.75,1.6875 0.46094,0.429687 1.02344,0.644531 1.6875,0.644531 0.82031,0 1.51563,-0.285156 2.08594,-0.855469 l 0.5039,0.691406 c -0.6875,0.6875 -1.58203,1.03125 -2.68359,1.03125 z m 2.09766,-3.972656 c 0,-0.625 -0.20703,-1.15625 -0.6211,-1.59375 -0.40625,-0.4375 -0.9414,-0.65625 -1.60547,-0.65625 -0.625,0 -1.14453,0.21875 -1.55859,0.65625 -0.41406,0.4375 -0.63281,0.96875 -0.65625,1.59375 z m 10.89062,3.808594 v -4.59375 c 0,-0.929688 -0.41797,-1.394531 -1.2539,-1.394531 -0.35157,0 -0.69532,0.105469 -1.03125,0.316406 -0.32813,0.210937 -0.57813,0.449219 -0.75,0.714844 V 82.3125 h -1.05469 v -4.59375 c 0,-0.929688 -0.41406,-1.394531 -1.24219,-1.394531 -0.34375,0 -0.67969,0.109375 -1.00781,0.328125 -0.32813,0.210937 -0.58594,0.453125 -0.77344,0.726562 V 82.3125 h -1.04297 v -6.761719 h 1.04297 v 0.984375 c 0.15625,-0.273437 0.45313,-0.53125 0.89063,-0.773437 0.44531,-0.25 0.875,-0.375 1.28906,-0.375 0.52344,0 0.92969,0.121093 1.21875,0.363281 0.29687,0.242188 0.5,0.539062 0.60937,0.890625 0.22657,-0.359375 0.55469,-0.65625 0.98438,-0.890625 0.42969,-0.242188 0.85547,-0.363281 1.27734,-0.363281 1.25781,0 1.88672,0.679687 1.88672,2.039062 V 82.3125 Z m 6.08985,0.164062 c -0.97657,0 -1.77735,-0.332031 -2.40235,-0.996093 -0.625,-0.664063 -0.9375,-1.515625 -0.9375,-2.554688 0,-1.046875 0.3125,-1.898437 0.9375,-2.554687 0.625,-0.65625 1.42578,-0.984375 2.40235,-0.984375 0.98437,0 1.78906,0.328125 2.41406,0.984375 0.625,0.65625 0.9375,1.507812 0.9375,2.554687 0,1.039063 -0.3125,1.890625 -0.9375,2.554688 -0.625,0.664062 -1.42969,0.996093 -2.41406,0.996093 z m 0,-0.9375 c 0.65625,0 1.19531,-0.242187 1.61718,-0.726562 0.42188,-0.492188 0.63282,-1.121094 0.63282,-1.886719 0,-0.757812 -0.21094,-1.378906 -0.63282,-1.863281 -0.42187,-0.492188 -0.96093,-0.738281 -1.61718,-0.738281 -0.64844,0 -1.1875,0.242187 -1.61719,0.726562 -0.42188,0.484375 -0.63281,1.109375 -0.63281,1.875 0,0.773438 0.21093,1.402344 0.63281,1.886719 0.42187,0.484375 0.96094,0.726562 1.61719,0.726562 z m 5.0625,0.773438 v -6.761719 h 1.04296 v 1.089844 c 0.625,-0.820313 1.375,-1.230469 2.25,-1.230469 v 1.078125 l -0.41015,-0.03516 c -0.32031,0 -0.67188,0.113281 -1.05469,0.339844 -0.38281,0.226562 -0.64453,0.472656 -0.78516,0.738281 V 82.3125 Z M 339.12891,84 c 0.14843,0.07813 0.33984,0.117188 0.57421,0.117188 0.22657,0 0.41797,-0.05078 0.57422,-0.152344 0.16407,-0.09375 0.3086,-0.28125 0.4336,-0.5625 l 0.44531,-1.019532 -2.82422,-6.832031 h 1.125 l 2.26172,5.542969 2.23828,-5.542969 h 1.13672 l -3.375,8.132813 c -0.375,0.898437 -1.03906,1.355468 -1.99219,1.371094 -0.27344,0 -0.53125,-0.03125 -0.77344,-0.09375 z M 356.5,82.3125 355.67969,80.238281 h -4.64063 l -0.83203,2.074219 h -1.32422 l 3.75,-9.328125 h 1.44141 l 3.76172,9.328125 z m -3.14063,-8.132812 -1.99218,5.027343 h 3.96093 z m 5.69141,8.132812 v -9.328125 h 3.1875 c 1.42188,0 2.57422,0.441406 3.45703,1.324219 0.89063,0.875 1.33594,1.988281 1.33594,3.339844 0,1.367187 -0.44531,2.488281 -1.33594,3.363281 -0.89062,0.867187 -2.04297,1.300781 -3.45703,1.300781 z m 3.1875,-1.03125 c 1.0625,0 1.92578,-0.332031 2.58984,-0.996094 0.66407,-0.671875 0.9961,-1.550781 0.9961,-2.636718 0,-1.078126 -0.32813,-1.953126 -0.98438,-2.625 -0.64843,-0.671876 -1.51562,-1.007813 -2.60156,-1.007813 h -2.02734 v 7.265625 z m 8.53516,1.03125 v -8.296875 h -2.95313 v -1.03125 h 7.07813 v 1.03125 h -2.96485 V 82.3125 Z m 9.27734,0 v -9.328125 h 1.16016 V 82.3125 Z m 7.86719,0 v -4.417969 c 0,-0.601562 -0.14063,-1.011719 -0.42188,-1.230469 -0.27343,-0.226562 -0.63672,-0.339843 -1.08984,-0.339843 -0.39063,0 -0.77734,0.105469 -1.16016,0.316406 -0.375,0.210937 -0.65625,0.457031 -0.84375,0.738281 V 82.3125 h -1.04297 v -6.761719 h 1.04297 v 0.984375 c 0.28907,-0.335937 0.64453,-0.609375 1.06641,-0.820312 0.42969,-0.21875 0.875,-0.328125 1.33594,-0.328125 1.4375,0 2.15625,0.726562 2.15625,2.179687 V 82.3125 Z m 5.28515,0.164062 c -1.14843,0 -2.05859,-0.351562 -2.73046,-1.054687 l 0.55078,-0.761719 c 0.22656,0.265625 0.53515,0.492188 0.92578,0.679688 0.39844,0.1875 0.83203,0.28125 1.30078,0.28125 0.52344,0 0.91797,-0.109375 1.18359,-0.328125 0.27344,-0.21875 0.41016,-0.496094 0.41016,-0.832031 0,-0.296876 -0.14844,-0.53125 -0.44531,-0.703126 -0.28907,-0.171874 -0.83594,-0.351562 -1.64063,-0.539062 -0.67969,-0.140625 -1.19922,-0.359375 -1.55859,-0.65625 -0.35938,-0.304688 -0.53906,-0.714844 -0.53906,-1.230469 0,-0.570312 0.22656,-1.035156 0.67968,-1.394531 0.46094,-0.367188 1.07422,-0.550781 1.83985,-0.550781 1.01562,0 1.85156,0.328125 2.50781,0.984375 l -0.49219,0.726562 c -0.20312,-0.242187 -0.48047,-0.445312 -0.83203,-0.609375 -0.35156,-0.164062 -0.74609,-0.246093 -1.18359,-0.246093 -0.46875,0 -0.83594,0.101562 -1.10157,0.304687 -0.26562,0.203125 -0.39843,0.457031 -0.39843,0.761719 0,0.265625 0.14843,0.480468 0.44531,0.644531 0.30469,0.15625 0.85547,0.316406 1.65234,0.480469 0.67969,0.164062 1.19532,0.40625 1.54688,0.726562 0.35937,0.320313 0.53906,0.746094 0.53906,1.277344 0,0.625 -0.24219,1.121094 -0.72656,1.488281 -0.48438,0.367188 -1.12891,0.550781 -1.9336,0.550781 z m 6.07032,0 c -1,0 -1.5,-0.527343 -1.5,-1.582031 v -4.417969 h -1.11328 v -0.925781 h 1.11328 v -1.839843 h 1.05468 v 1.839843 h 1.3711 v 0.925781 h -1.3711 v 4.195313 c 0,0.257813 0.0547,0.46875 0.16407,0.632813 0.11718,0.15625 0.29297,0.234374 0.52734,0.234374 0.28906,0 0.52344,-0.09375 0.70313,-0.28125 l 0.3164,0.785157 c -0.28906,0.289062 -0.71094,0.433593 -1.26562,0.433593 z m 6.63672,-0.164062 v -0.773438 c -0.57032,0.625 -1.31641,0.9375 -2.23829,0.9375 -0.67968,0 -1.24609,-0.214843 -1.69921,-0.644531 -0.44532,-0.429687 -0.66797,-0.960937 -0.66797,-1.59375 0,-0.648437 0.22265,-1.179687 0.66797,-1.59375 0.44531,-0.421875 1.01171,-0.632812 1.69921,-0.632812 0.96875,0 1.71485,0.308593 2.23829,0.925781 v -1.21875 c 0,-0.453125 -0.16016,-0.800781 -0.48047,-1.042969 -0.32032,-0.25 -0.73047,-0.375 -1.23047,-0.375 -0.78906,0 -1.47656,0.3125 -2.0625,0.9375 L 401.64453,76.5 c 0.71875,-0.742188 1.61719,-1.113281 2.69531,-1.113281 0.83594,0 1.48047,0.203125 1.9336,0.609375 0.46093,0.398437 0.6914,0.957031 0.6914,1.675781 V 82.3125 Z m -1.86329,-0.585938 c 0.83594,0 1.45704,-0.28125 1.86329,-0.84375 v -1.265624 c -0.40625,-0.5625 -1.02735,-0.84375 -1.86329,-0.84375 -0.49218,0 -0.89453,0.136718 -1.20703,0.410156 -0.30468,0.273437 -0.45703,0.628906 -0.45703,1.066406 0,0.429688 0.15235,0.785156 0.45703,1.066406 0.3125,0.273438 0.71485,0.410156 1.20703,0.410156 z m 9.57422,0.585938 v -4.417969 c 0,-0.601562 -0.14062,-1.011719 -0.42187,-1.230469 -0.27344,-0.226562 -0.63672,-0.339843 -1.08985,-0.339843 -0.39062,0 -0.77734,0.105469 -1.16015,0.316406 -0.375,0.210937 -0.65625,0.457031 -0.84375,0.738281 V 82.3125 h -1.04297 v -6.761719 h 1.04297 v 0.984375 c 0.28906,-0.335937 0.64453,-0.609375 1.0664,-0.820312 0.42969,-0.21875 0.875,-0.328125 1.33594,-0.328125 1.4375,0 2.15625,0.726562 2.15625,2.179687 V 82.3125 Z m 6.12891,0.164062 c -0.99219,0 -1.80469,-0.335937 -2.4375,-1.007812 -0.625,-0.671875 -0.9375,-1.519531 -0.9375,-2.542969 0,-1.015625 0.3125,-1.859375 0.9375,-2.53125 0.63281,-0.671875 1.44531,-1.007812 2.4375,-1.007812 1.04687,0 1.87109,0.390625 2.47266,1.171875 l -0.69141,0.644531 c -0.42969,-0.585937 -1.00391,-0.878906 -1.72266,-0.878906 -0.69531,0 -1.26172,0.242187 -1.69922,0.726562 -0.42968,0.476563 -0.64453,1.101563 -0.64453,1.875 0,0.78125 0.21485,1.414063 0.64453,1.898438 0.42969,0.476562 0.9961,0.714843 1.69922,0.714843 0.70313,0 1.27735,-0.292968 1.72266,-0.878906 l 0.69141,0.644532 c -0.60157,0.78125 -1.42579,1.171874 -2.47266,1.171874 z m 6.99609,0 c -1.01562,0 -1.84375,-0.328124 -2.48437,-0.984374 -0.64063,-0.664063 -0.96094,-1.519532 -0.96094,-2.566407 0,-1 0.31641,-1.839843 0.94922,-2.519531 0.64062,-0.679688 1.43359,-1.019531 2.37891,-1.019531 0.96875,0 1.75,0.335937 2.34375,1.007812 0.60156,0.671875 0.90234,1.542969 0.90234,2.613281 v 0.269532 h -5.47266 c 0.0391,0.6875 0.28907,1.25 0.75,1.6875 0.46094,0.429687 1.02344,0.644531 1.6875,0.644531 0.82032,0 1.51563,-0.285156 2.08594,-0.855469 l 0.50391,0.691406 c -0.6875,0.6875 -1.58203,1.03125 -2.6836,1.03125 z m 2.09766,-3.972656 c 0,-0.625 -0.20703,-1.15625 -0.62109,-1.59375 -0.40625,-0.4375 -0.94141,-0.65625 -1.60547,-0.65625 -0.625,0 -1.14453,0.21875 -1.5586,0.65625 -0.41406,0.4375 -0.63281,0.96875 -0.65625,1.59375 z m 0,0"
     id="path34" />
  <path
     fill-rule="evenodd"
     fill="#eeeeee"
     fill-opacity="1"
     d="M 262.46484,0.75 H 447.96875 V 32.121094 H 262.46484 Z m 0,0"
     id="path36" />
  <g
     clip-path="url(#clip-2)"
     id="g40">
    <path
       fill="none"
       stroke-width="1.5"
       stroke-linecap="butt"
       stroke-linejoin="round"
       stroke="#595959"
       stroke-opacity="1"
       stroke-miterlimit="10"
       d="M 262.46484,0.75 H 447.96875 V 32.121094 H 262.46484 Z m 0,0"
       id="path38" />
  </g>
  <path
     fill-rule="nonzero"
     fill="#000000"
     fill-opacity="1"
     d="m 341.73437,14.875 -1.82812,-3.316406 h -1.46484 V 14.875 h -1.98047 V 5.546875 h 4.35937 c 0.95313,0 1.71485,0.28125 2.28516,0.84375 0.57031,0.5625 0.85547,1.28125 0.85547,2.15625 0,0.726563 -0.19532,1.339844 -0.58594,1.839844 -0.38281,0.492187 -0.87109,0.804687 -1.46484,0.9375 l 2.10937,3.550781 z m -1.20703,-5.0625 c 0.40625,0 0.74219,-0.113281 1.00782,-0.339844 0.26562,-0.226562 0.39843,-0.535156 0.39843,-0.925781 0,-0.390625 -0.13281,-0.695313 -0.39843,-0.914063 -0.26563,-0.226562 -0.60157,-0.339843 -1.00782,-0.339843 h -2.08593 V 9.8125 Z m 7.64063,5.226562 c -1.0625,0 -1.92969,-0.328124 -2.60156,-0.984374 -0.67188,-0.65625 -1.00782,-1.511719 -1.00782,-2.566407 0,-1.007812 0.33203,-1.847656 0.9961,-2.519531 0.67187,-0.679688 1.50781,-1.019531 2.50781,-1.019531 0.99219,0 1.80469,0.34375 2.4375,1.03125 0.63281,0.679687 0.94922,1.578125 0.94922,2.695312 V 12.0625 h -5.02735 c 0.0547,0.429688 0.2461,0.800781 0.57422,1.113281 0.33594,0.304688 0.79297,0.457031 1.3711,0.457031 0.28125,0 0.59375,-0.05859 0.9375,-0.175781 0.34375,-0.117187 0.63281,-0.285156 0.86718,-0.503906 l 0.78516,1.148437 c -0.33594,0.3125 -0.75391,0.546876 -1.25391,0.703126 -0.49218,0.15625 -1.0039,0.234374 -1.53515,0.234374 z m 1.55859,-4.183593 c -0.0312,-0.445313 -0.20312,-0.804688 -0.51562,-1.078125 -0.30469,-0.273438 -0.6875,-0.410156 -1.14844,-0.410156 -0.46875,0 -0.85156,0.140624 -1.14844,0.421874 -0.29687,0.28125 -0.46875,0.636719 -0.51562,1.066407 z m 5.44141,4.183593 c -0.58594,0 -1.14844,-0.08984 -1.6875,-0.269531 -0.53906,-0.1875 -0.98438,-0.445312 -1.33594,-0.773437 l 0.77344,-1.242188 c 0.26562,0.25 0.62109,0.464844 1.0664,0.644532 0.45313,0.179687 0.875,0.269531 1.26563,0.269531 0.75781,0 1.13672,-0.242188 1.13672,-0.726563 0,-0.1875 -0.10156,-0.328125 -0.30469,-0.421875 -0.19531,-0.09375 -0.4375,-0.171875 -0.72656,-0.234375 l -0.97266,-0.199218 c -1.34375,-0.289063 -2.01562,-0.960938 -2.01562,-2.015626 0,-0.625 0.25781,-1.132812 0.77343,-1.523437 0.52344,-0.398437 1.19141,-0.597656 2.00391,-0.597656 1.05469,0 1.96094,0.308593 2.71875,0.925781 l -0.70312,1.21875 c -0.21094,-0.21875 -0.49219,-0.402344 -0.84375,-0.550781 -0.35157,-0.15625 -0.73829,-0.234375 -1.16016,-0.234375 -0.32813,0 -0.58984,0.066406 -0.78516,0.199218 -0.1875,0.125 -0.28125,0.28125 -0.28125,0.46875 0,0.171876 0.0977,0.300782 0.29297,0.386719 0.19531,0.07813 0.44141,0.148438 0.73828,0.210938 0.30469,0.0625 0.62891,0.132812 0.97266,0.210937 0.34375,0.07813 0.66406,0.195313 0.96094,0.351563 0.29687,0.15625 0.54297,0.371093 0.73828,0.644531 0.20312,0.273438 0.30469,0.636719 0.30469,1.089844 0,0.65625 -0.26954,1.183594 -0.8086,1.582031 -0.53125,0.390625 -1.23828,0.585937 -2.12109,0.585937 z M 363.96484,14.875 v -0.855469 c -0.60156,0.679688 -1.39453,1.019531 -2.3789,1.019531 -0.74219,0 -1.29297,-0.1875 -1.65235,-0.5625 -0.35156,-0.375 -0.52734,-0.894531 -0.52734,-1.558593 V 8.113281 h 1.78125 v 4.101563 c 0,0.828125 0.41406,1.242187 1.24219,1.242187 0.60937,0 1.12109,-0.253906 1.53515,-0.761719 V 8.113281 h 1.78125 V 14.875 Z m 3.54297,0 V 5.546875 h 1.78125 V 14.875 Z m 5.8125,0.164062 c -1.28125,0 -1.92187,-0.613281 -1.92187,-1.839843 V 9.671875 h -1.11328 V 8.113281 h 1.11328 V 6.273438 h 1.79297 v 1.839843 h 1.37109 v 1.558594 h -1.37109 v 3.046875 c 0,0.21875 0.0508,0.398438 0.15234,0.539062 0.10937,0.132813 0.26172,0.199219 0.45703,0.199219 0.28125,0 0.48828,-0.0625 0.62109,-0.1875 l 0.375,1.335938 c -0.30468,0.289062 -0.79687,0.433593 -1.47656,0.433593 z m 0,0"
     id="path42" />
  <path
     fill-rule="nonzero"
     fill="#000000"
     fill-opacity="1"
     d="m 293.21484,30.6875 c -0.5,-0.6875 -0.88672,-1.445312 -1.16015,-2.273438 -0.26563,-0.835937 -0.39844,-1.699218 -0.39844,-2.589843 0,-0.882813 0.13281,-1.738281 0.39844,-2.566407 0.27343,-0.835937 0.66015,-1.601562 1.16015,-2.296874 l 0.49219,0.375 c -0.44531,0.882812 -0.75,1.652343 -0.91406,2.308593 -0.15625,0.65625 -0.23438,1.382813 -0.23438,2.179688 0,0.789062 0.082,1.519531 0.2461,2.191406 0.16406,0.664063 0.46484,1.425781 0.90234,2.285156 z M 297.125,28.625 c -0.79688,0 -1.44922,-0.257812 -1.95703,-0.773438 -0.5,-0.523437 -0.75,-1.195312 -0.75,-2.015624 0,-0.78125 0.25,-1.4375 0.75,-1.96875 0.5,-0.539063 1.12109,-0.808594 1.86328,-0.808594 0.76562,0 1.38281,0.265625 1.85156,0.796875 0.46875,0.523437 0.70313,1.207031 0.70313,2.050781 v 0.199219 h -4.30078 c 0.0312,0.546875 0.22656,0.992187 0.58593,1.335937 0.36719,0.335938 0.8086,0.503906 1.32422,0.503906 0.64844,0 1.19531,-0.222656 1.64063,-0.667968 l 0.39843,0.539062 C 298.69531,28.355469 297.99219,28.625 297.125,28.625 Z m 1.65234,-3.117188 c 0,-0.492187 -0.16406,-0.910156 -0.49218,-1.253906 -0.32032,-0.34375 -0.74219,-0.515625 -1.26563,-0.515625 -0.48437,0 -0.89062,0.171875 -1.21875,0.515625 -0.32812,0.34375 -0.5,0.761719 -0.51562,1.253906 z m 2.5,3.09375 c -0.17187,0 -0.3164,-0.05859 -0.43359,-0.175781 -0.11719,-0.117187 -0.17578,-0.257812 -0.17578,-0.421875 0,-0.171875 0.0586,-0.316406 0.17578,-0.433594 0.11719,-0.117187 0.26172,-0.175781 0.43359,-0.175781 0.16407,0 0.30469,0.05859 0.42188,0.175781 0.11719,0.117188 0.17578,0.261719 0.17578,0.433594 0,0.164063 -0.0586,0.304688 -0.17578,0.421875 -0.11719,0.117188 -0.25781,0.175781 -0.42188,0.175781 z m 4.14063,2.050782 c -0.45313,0 -0.84375,-0.05469 -1.17188,-0.164063 -0.32812,-0.109375 -0.65234,-0.320312 -0.97265,-0.632812 l 0.42187,-0.609375 c 0.21875,0.265625 0.46485,0.453125 0.73828,0.5625 0.28125,0.109375 0.60938,0.164062 0.98438,0.164062 0.54687,0 0.96875,-0.144531 1.26562,-0.433594 0.29688,-0.28125 0.44532,-0.667968 0.44532,-1.160156 v -0.761718 c -0.19532,0.273437 -0.44922,0.5 -0.76172,0.679687 -0.30469,0.179687 -0.64453,0.269531 -1.01953,0.269531 -0.71875,0 -1.29297,-0.253906 -1.72266,-0.761718 -0.42969,-0.507813 -0.64453,-1.171876 -0.64453,-1.992188 0,-0.851562 0.21875,-1.523438 0.65625,-2.015625 0.4375,-0.492187 1.00781,-0.738281 1.71094,-0.738281 0.73437,0 1.32812,0.308594 1.78125,0.925781 V 23.1875 h 0.82031 v 5.15625 c 0,0.75 -0.21875,1.320312 -0.65625,1.710938 -0.4375,0.398437 -1.0625,0.597656 -1.875,0.597656 z m 0.1289,-2.8125 c 0.29688,0 0.59375,-0.08203 0.89063,-0.246094 0.29687,-0.164062 0.52734,-0.371094 0.69141,-0.621094 v -2.320312 c -0.16407,-0.257813 -0.39844,-0.464844 -0.70313,-0.621094 -0.29687,-0.15625 -0.58984,-0.234375 -0.87891,-0.234375 -0.52343,0 -0.9414,0.1875 -1.2539,0.5625 -0.30469,0.367187 -0.45703,0.851563 -0.45703,1.453125 0,0.609375 0.15625,1.101562 0.46875,1.476562 0.32031,0.367188 0.73437,0.550782 1.24218,0.550782 z m 4.49219,0.761718 c -0.17187,0 -0.3164,-0.05859 -0.43359,-0.175781 -0.11719,-0.117187 -0.17578,-0.257812 -0.17578,-0.421875 0,-0.171875 0.0586,-0.316406 0.17578,-0.433594 0.11719,-0.117187 0.26172,-0.175781 0.43359,-0.175781 0.16406,0 0.30469,0.05859 0.42188,0.175781 0.11718,0.117188 0.17578,0.261719 0.17578,0.433594 0,0.164063 -0.0586,0.304688 -0.17578,0.421875 -0.11719,0.117188 -0.25782,0.175781 -0.42188,0.175781 z m 8.51563,-0.105468 v -3.492188 c 0,-0.398437 -0.0937,-0.699218 -0.28125,-0.902344 -0.1875,-0.203124 -0.49219,-0.304687 -0.91407,-0.304687 -0.30468,0 -0.59765,0.07813 -0.8789,0.234375 -0.28125,0.148438 -0.51172,0.34375 -0.69141,0.585938 v 3.878906 h -0.83203 v -7.335938 h 0.83203 v 2.800782 c 0.23438,-0.273438 0.51953,-0.492188 0.85547,-0.65625 0.33594,-0.164063 0.68359,-0.246094 1.04297,-0.246094 1.125,0 1.6875,0.5625 1.6875,1.6875 v 3.75 z m 5.80078,0 v -0.609375 c -0.45313,0.492187 -1.03906,0.738281 -1.75781,0.738281 -0.53907,0 -0.98438,-0.167969 -1.33594,-0.503906 -0.35156,-0.335938 -0.52735,-0.753906 -0.52735,-1.253906 0,-0.507813 0.17188,-0.925782 0.51563,-1.253907 0.35156,-0.328125 0.80078,-0.492187 1.34766,-0.492187 0.75781,0 1.34375,0.242187 1.75781,0.726562 v -0.960937 c 0,-0.359375 -0.12891,-0.632813 -0.38672,-0.820313 -0.25,-0.195312 -0.57031,-0.292968 -0.96094,-0.292968 -0.625,0 -1.16797,0.246093 -1.6289,0.738281 l -0.375,-0.574219 c 0.5625,-0.585938 1.26953,-0.878906 2.12109,-0.878906 0.64844,0 1.15234,0.15625 1.51172,0.46875 0.35937,0.3125 0.53906,0.753906 0.53906,1.324218 v 3.644532 z m -1.46485,-0.457032 c 0.64844,0 1.13672,-0.222656 1.46485,-0.667968 V 26.375 c -0.32813,-0.4375 -0.81641,-0.65625 -1.46485,-0.65625 -0.39062,0 -0.70703,0.109375 -0.94921,0.328125 -0.24219,0.210937 -0.36329,0.488281 -0.36329,0.832031 0,0.335938 0.1211,0.613282 0.36329,0.832032 0.24218,0.21875 0.55859,0.328124 0.94921,0.328124 z m 3.92969,0.457032 V 23.1875 h 0.83203 v 0.855469 c 0.49219,-0.640625 1.08203,-0.960938 1.76953,-0.960938 v 0.84375 l -0.32812,-0.03516 c -0.25,0 -0.52734,0.08984 -0.83203,0.269531 -0.29688,0.179688 -0.5,0.371094 -0.60938,0.574219 v 3.761719 z m 7.48047,0 v -0.796875 c -0.20312,0.273437 -0.46094,0.496093 -0.77344,0.667969 -0.30468,0.171874 -0.64453,0.257812 -1.01953,0.257812 -0.71094,0 -1.28515,-0.25 -1.72265,-0.75 -0.42969,-0.507812 -0.64454,-1.183594 -0.64454,-2.027344 0,-0.851562 0.21875,-1.527344 0.65625,-2.027344 0.4375,-0.507812 1.00782,-0.761718 1.71094,-0.761718 0.35938,0 0.69141,0.08203 0.9961,0.246094 0.3125,0.164062 0.57812,0.390624 0.79687,0.679687 v -2.824219 h 0.82031 v 7.335938 z m -1.59375,-0.609375 c 0.32813,0 0.63672,-0.07813 0.92578,-0.234375 0.29688,-0.164063 0.51953,-0.363282 0.66797,-0.597656 v -2.402344 c -0.14844,-0.234375 -0.37109,-0.433594 -0.66797,-0.597656 -0.28906,-0.171876 -0.59765,-0.257813 -0.92578,-0.257813 -0.51562,0 -0.92969,0.1875 -1.24219,0.5625 -0.3125,0.367187 -0.46875,0.863281 -0.46875,1.488281 0,0.609375 0.15235,1.101563 0.45703,1.476563 0.3125,0.375 0.73047,0.5625 1.25391,0.5625 z m 8.65234,0.609375 -1.38281,-4.265625 -1.38281,4.265625 h -0.82031 L 336.07422,23.1875 h 0.85547 l 1.30078,4.230469 1.39453,-4.230469 h 0.70312 l 1.39454,4.230469 1.30078,-4.230469 h 0.85547 l -1.6875,5.308594 z m 6.80469,0 v -0.609375 c -0.45312,0.492187 -1.03906,0.738281 -1.75781,0.738281 -0.53906,0 -0.98438,-0.167969 -1.33594,-0.503906 -0.35156,-0.335938 -0.52734,-0.753906 -0.52734,-1.253906 0,-0.507813 0.17187,-0.925782 0.51562,-1.253907 0.35157,-0.328125 0.80078,-0.492187 1.34766,-0.492187 0.75781,0 1.34375,0.242187 1.75781,0.726562 v -0.960937 c 0,-0.359375 -0.1289,-0.632813 -0.38672,-0.820313 -0.25,-0.195312 -0.57031,-0.292968 -0.96093,-0.292968 -0.625,0 -1.16797,0.246093 -1.62891,0.738281 l -0.375,-0.574219 c 0.5625,-0.585938 1.26953,-0.878906 2.12109,-0.878906 0.64844,0 1.15235,0.15625 1.51172,0.46875 0.35938,0.3125 0.53906,0.753906 0.53906,1.324218 v 3.644532 z m -1.46484,-0.457032 c 0.64844,0 1.13672,-0.222656 1.46484,-0.667968 V 26.375 c -0.32812,-0.4375 -0.8164,-0.65625 -1.46484,-0.65625 -0.39063,0 -0.70703,0.109375 -0.94922,0.328125 -0.24219,0.210937 -0.36328,0.488281 -0.36328,0.832031 0,0.335938 0.12109,0.613282 0.36328,0.832032 0.24219,0.21875 0.55859,0.328124 0.94922,0.328124 z m 3.92969,0.457032 V 23.1875 h 0.83203 v 0.855469 c 0.49218,-0.640625 1.08203,-0.960938 1.76953,-0.960938 v 0.84375 l -0.32813,-0.03516 c -0.25,0 -0.52734,0.08984 -0.83203,0.269531 -0.29687,0.179688 -0.5,0.371094 -0.60937,0.574219 v 3.761719 z m 6.03125,0.128906 c -0.79688,0 -1.44922,-0.257812 -1.95704,-0.773438 -0.5,-0.523437 -0.75,-1.195312 -0.75,-2.015624 0,-0.78125 0.25,-1.4375 0.75,-1.96875 0.5,-0.539063 1.1211,-0.808594 1.86329,-0.808594 0.76562,0 1.38281,0.265625 1.85156,0.796875 0.46875,0.523437 0.70312,1.207031 0.70312,2.050781 v 0.199219 h -4.30078 c 0.0312,0.546875 0.22656,0.992187 0.58594,1.335937 0.36719,0.335938 0.80859,0.503906 1.32422,0.503906 0.64844,0 1.19531,-0.222656 1.64062,-0.667968 l 0.39844,0.539062 c -0.53906,0.539063 -1.24219,0.808594 -2.10937,0.808594 z m 1.65234,-3.117188 c 0,-0.492187 -0.16406,-0.910156 -0.49219,-1.253906 -0.32031,-0.34375 -0.74219,-0.515625 -1.26562,-0.515625 -0.48438,0 -0.89063,0.171875 -1.21875,0.515625 -0.32813,0.34375 -0.5,0.761719 -0.51563,1.253906 z m 5.00391,2.988282 v -7.335938 h 0.91406 v 7.335938 z m 6.86718,0 -1.86328,-2.917969 h -1.46484 v 2.917969 h -0.91406 v -7.335938 h 2.95312 c 0.6875,0 1.24219,0.207032 1.66406,0.621094 0.42188,0.40625 0.63282,0.9375 0.63282,1.59375 0,0.617188 -0.17969,1.113281 -0.53907,1.488281 -0.35156,0.375 -0.80859,0.589844 -1.37109,0.644531 l 1.98047,2.988282 z m -1.40625,-3.714844 c 0.4375,0 0.78907,-0.128906 1.05469,-0.386719 0.27344,-0.265625 0.41016,-0.605469 0.41016,-1.019531 0,-0.421875 -0.13672,-0.757812 -0.41016,-1.007812 -0.26562,-0.257813 -0.61719,-0.386719 -1.05469,-0.386719 h -1.92187 v 2.800781 z m 4.92578,3.445312 c 0,0.34375 -0.0859,0.660157 -0.25781,0.949219 -0.17187,0.296875 -0.38672,0.535157 -0.64453,0.714844 l -0.41016,-0.339844 c 0.17969,-0.117187 0.33985,-0.273437 0.48047,-0.46875 0.14063,-0.1875 0.21875,-0.371093 0.23438,-0.550781 l -0.15235,0.02344 c -0.14843,0 -0.27343,-0.05078 -0.375,-0.152344 -0.10156,-0.109375 -0.15234,-0.246094 -0.15234,-0.410156 0,-0.164063 0.0547,-0.304688 0.16406,-0.421876 0.10938,-0.117187 0.25,-0.175781 0.42188,-0.175781 0.17969,0 0.33984,0.07422 0.48047,0.222657 0.14062,0.148437 0.21093,0.351562 0.21093,0.609374 z m 5.94141,0.398438 c -0.90625,0 -1.62109,-0.277344 -2.14453,-0.832031 l 0.43359,-0.597657 c 0.17188,0.210938 0.41407,0.390626 0.72657,0.539063 0.3125,0.148437 0.65234,0.222656 1.01953,0.222656 0.40625,0 0.71484,-0.08594 0.92578,-0.257812 0.21875,-0.171875 0.32812,-0.390625 0.32812,-0.65625 0,-0.234375 -0.11718,-0.417969 -0.35156,-0.550781 -0.22656,-0.140626 -0.65625,-0.28125 -1.28906,-0.421876 -0.53906,-0.109374 -0.94922,-0.28125 -1.23047,-0.515624 -0.28125,-0.242188 -0.42188,-0.566407 -0.42188,-0.972657 0,-0.445312 0.17969,-0.808593 0.53907,-1.089843 0.35937,-0.289063 0.83984,-0.433594 1.4414,-0.433594 0.79688,0 1.45313,0.253906 1.96875,0.761718 l -0.38672,0.574219 c -0.16406,-0.1875 -0.38281,-0.34375 -0.65625,-0.46875 -0.27343,-0.132812 -0.58203,-0.199219 -0.92578,-0.199219 -0.36718,0 -0.65625,0.08203 -0.86718,0.246094 -0.20313,0.15625 -0.30469,0.351563 -0.30469,0.585938 0,0.210937 0.11719,0.378906 0.35156,0.503906 0.23438,0.125 0.66406,0.253906 1.28906,0.386719 0.53907,0.125 0.94532,0.316406 1.21875,0.574219 0.28125,0.25 0.42188,0.582031 0.42188,0.996093 0,0.492188 -0.19141,0.882813 -0.57422,1.171875 -0.375,0.289063 -0.87891,0.433594 -1.51172,0.433594 z m 4.76953,0 c -0.78906,0 -1.18359,-0.414062 -1.18359,-1.242188 v -3.46875 h -0.87891 V 23.1875 h 0.87891 v -1.453125 h 0.83203 V 23.1875 h 1.07812 v 0.726562 h -1.07812 v 3.292969 c 0,0.203125 0.043,0.367188 0.12891,0.492188 0.0859,0.125 0.22265,0.1875 0.41015,0.1875 0.22656,0 0.41406,-0.07031 0.5625,-0.210938 l 0.23438,0.609375 c -0.22657,0.226563 -0.55469,0.339844 -0.98438,0.339844 z m 2.29297,-6.199219 c -0.14844,0 -0.27734,-0.05078 -0.38672,-0.152343 -0.10937,-0.109376 -0.16406,-0.242188 -0.16406,-0.398438 0,-0.148438 0.0547,-0.277344 0.16406,-0.386719 0.10938,-0.117187 0.23828,-0.175781 0.38672,-0.175781 0.15625,0 0.28906,0.05859 0.39844,0.175781 0.10937,0.109375 0.16406,0.238281 0.16406,0.386719 0,0.15625 -0.0547,0.289062 -0.16406,0.398438 -0.10938,0.101562 -0.24219,0.152343 -0.39844,0.152343 z m -0.41016,6.070313 V 23.1875 h 0.83204 v 5.308594 z m 8.88672,0 v -3.609375 c 0,-0.726563 -0.32422,-1.089844 -0.97265,-1.089844 -0.28125,0 -0.55469,0.08203 -0.82032,0.246094 -0.25781,0.164062 -0.45312,0.351562 -0.58593,0.5625 v 3.890625 h -0.83203 v -3.609375 c 0,-0.726563 -0.32422,-1.089844 -0.97266,-1.089844 -0.27344,0 -0.53906,0.08594 -0.79688,0.257813 -0.25781,0.164062 -0.45703,0.351562 -0.59765,0.5625 v 3.878906 h -0.83203 V 23.1875 h 0.83203 v 0.773438 c 0.125,-0.21875 0.35937,-0.421876 0.70312,-0.609376 0.34375,-0.195312 0.67969,-0.292968 1.00782,-0.292968 0.41406,0 0.73437,0.09375 0.96093,0.28125 0.23438,0.1875 0.39063,0.421875 0.46875,0.703125 0.17969,-0.28125 0.4375,-0.515625 0.77344,-0.703125 0.34375,-0.1875 0.67969,-0.28125 1.00781,-0.28125 0.99219,0 1.48828,0.535156 1.48828,1.605468 v 3.832032 z m 6.05469,0 v -0.75 c -0.20312,0.234375 -0.47266,0.441406 -0.80859,0.621094 -0.32813,0.171874 -0.6875,0.257812 -1.07813,0.257812 -1.13281,0 -1.69922,-0.5625 -1.69922,-1.6875 v -3.75 h 0.83203 v 3.492188 c 0,0.421874 0.0937,0.730468 0.28125,0.925781 0.1875,0.1875 0.48829,0.28125 0.90235,0.28125 0.32031,0 0.62109,-0.07813 0.90234,-0.234375 0.28906,-0.164063 0.51172,-0.351563 0.66797,-0.5625 V 23.1875 h 0.82031 v 5.308594 z m 2.47266,0 v -7.335938 h 0.83203 v 7.335938 z m 6.05859,0 v -0.75 c -0.20312,0.234375 -0.47266,0.441406 -0.80859,0.621094 -0.32813,0.171874 -0.6875,0.257812 -1.07813,0.257812 -1.13281,0 -1.69922,-0.5625 -1.69922,-1.6875 v -3.75 h 0.83203 v 3.492188 c 0,0.421874 0.0937,0.730468 0.28125,0.925781 0.1875,0.1875 0.48829,0.28125 0.90235,0.28125 0.32031,0 0.62109,-0.07813 0.90234,-0.234375 0.28906,-0.164063 0.51172,-0.351563 0.66797,-0.5625 V 23.1875 h 0.82031 v 5.308594 z m 4.15625,0.128906 c -0.90625,0 -1.62109,-0.277344 -2.14453,-0.832031 l 0.43359,-0.597657 c 0.17188,0.210938 0.41407,0.390626 0.72657,0.539063 0.3125,0.148437 0.65234,0.222656 1.01953,0.222656 0.40625,0 0.71484,-0.08594 0.92578,-0.257812 0.21875,-0.171875 0.32812,-0.390625 0.32812,-0.65625 0,-0.234375 -0.11718,-0.417969 -0.35156,-0.550781 -0.22656,-0.140626 -0.65625,-0.28125 -1.28906,-0.421876 -0.53906,-0.109374 -0.94922,-0.28125 -1.23047,-0.515624 -0.28125,-0.242188 -0.42188,-0.566407 -0.42188,-0.972657 0,-0.445312 0.17969,-0.808593 0.53907,-1.089843 0.35937,-0.289063 0.83984,-0.433594 1.4414,-0.433594 0.79688,0 1.45313,0.253906 1.96875,0.761718 l -0.38672,0.574219 c -0.16406,-0.1875 -0.38281,-0.34375 -0.65625,-0.46875 -0.27343,-0.132812 -0.58203,-0.199219 -0.92578,-0.199219 -0.36718,0 -0.65625,0.08203 -0.86718,0.246094 -0.20313,0.15625 -0.30469,0.351563 -0.30469,0.585938 0,0.210937 0.11719,0.378906 0.35156,0.503906 0.23438,0.125 0.66406,0.253906 1.28906,0.386719 0.53907,0.125 0.94532,0.316406 1.21875,0.574219 0.28125,0.25 0.42188,0.582031 0.42188,0.996093 0,0.492188 -0.19141,0.882813 -0.57422,1.171875 -0.375,0.289063 -0.87891,0.433594 -1.51172,0.433594 z m 2.79297,1.675781 c 0.42969,-0.851562 0.72656,-1.621093 0.89062,-2.308593 0.17188,-0.695313 0.25782,-1.417969 0.25782,-2.167969 0,-0.75 -0.082,-1.460938 -0.2461,-2.132813 -0.16406,-0.679687 -0.46484,-1.464844 -0.90234,-2.355468 l 0.49219,-0.375 c 0.50781,0.695312 0.89453,1.460937 1.16015,2.296874 0.26563,0.828126 0.39844,1.683594 0.39844,2.566407 0,0.890625 -0.13281,1.753906 -0.39844,2.589843 C 418.10547,29.242188 417.71875,30 417.21094,30.6875 Z m 0,0"
     id="path44" />
  <path
     fill="none"
     stroke-width="1.5"
     stroke-linecap="butt"
     stroke-linejoin="round"
     stroke="#595959"
     stroke-opacity="1"
     stroke-miterlimit="10"
     d="m 98.753906,32.121094 v 20.3125"
     id="path46" />
  <path
     fill-rule="evenodd"
     fill="#595959"
     fill-opacity="1"
     stroke-width="1.5"
     stroke-linecap="butt"
     stroke-linejoin="miter"
     stroke="#595959"
     stroke-opacity="1"
     stroke-miterlimit="10"
     d="m 96.273438,52.433594 2.480468,6.808594 2.476564,-6.808594 z m 0,0"
     id="path48" />
  <path
     fill-rule="nonzero"
     fill="#000000"
     fill-opacity="1"
     d="m 17.285156,51.375 c -1.203125,0 -2.140625,-0.328125 -2.8125,-0.984375 -0.664062,-0.65625 -0.996094,-1.589844 -0.996094,-2.800781 v -5.707032 h 1.160157 v 5.671876 c 0,0.859374 0.222656,1.539062 0.667969,2.039062 0.453124,0.5 1.113281,0.75 1.980468,0.75 0.867188,0 1.523438,-0.25 1.96875,-0.75 0.453125,-0.5 0.679688,-1.179688 0.679688,-2.039062 v -5.671876 h 1.160156 v 5.695313 c 0,1.210937 -0.328125,2.148437 -0.984375,2.8125 -0.648437,0.65625 -1.589844,0.984375 -2.824219,0.984375 z m 8.082032,0 c -1.148438,0 -2.058594,-0.351562 -2.730469,-1.054688 L 23.1875,49.558594 c 0.226562,0.265625 0.535156,0.492187 0.925781,0.679687 0.398438,0.1875 0.832031,0.28125 1.300781,0.28125 0.523438,0 0.917969,-0.109375 1.183594,-0.328125 0.273438,-0.21875 0.410156,-0.496094 0.410156,-0.832031 0,-0.296875 -0.148437,-0.53125 -0.445312,-0.703125 -0.289062,-0.171875 -0.835938,-0.351562 -1.640625,-0.539062 -0.679687,-0.140626 -1.199219,-0.359376 -1.558594,-0.65625 -0.359375,-0.304688 -0.539062,-0.714844 -0.539062,-1.230469 0,-0.570313 0.226562,-1.035157 0.679687,-1.394531 0.460938,-0.367188 1.074219,-0.550782 1.839844,-0.550782 1.015625,0 1.851562,0.328125 2.507812,0.984375 l -0.492187,0.726563 C 27.15625,45.753906 26.878906,45.550781 26.527344,45.386719 26.175781,45.222656 25.78125,45.140625 25.34375,45.140625 c -0.46875,0 -0.835938,0.101563 -1.101562,0.304687 -0.265626,0.203126 -0.398438,0.457032 -0.398438,0.761719 0,0.265625 0.148438,0.480469 0.445312,0.644531 0.304688,0.15625 0.855469,0.316407 1.652344,0.480469 0.679688,0.164063 1.195313,0.40625 1.546875,0.726563 0.359375,0.320312 0.539063,0.746094 0.539063,1.277344 0,0.625 -0.242188,1.121093 -0.726563,1.488281 C 26.816406,51.191406 26.171875,51.375 25.367188,51.375 Z m 7.421874,0 c -1.015624,0 -1.84375,-0.328125 -2.484374,-0.984375 -0.640626,-0.664063 -0.960938,-1.519531 -0.960938,-2.566406 0,-1 0.316406,-1.839844 0.949219,-2.519531 0.640625,-0.679688 1.433593,-1.019532 2.378906,-1.019532 0.96875,0 1.75,0.335938 2.34375,1.007813 0.601563,0.671875 0.902344,1.542969 0.902344,2.613281 v 0.269531 h -5.472657 c 0.03906,0.6875 0.289063,1.25 0.75,1.6875 0.460938,0.429688 1.023438,0.644531 1.6875,0.644531 0.820313,0 1.515626,-0.285156 2.085938,-0.855468 l 0.503906,0.691406 c -0.6875,0.6875 -1.582031,1.03125 -2.683594,1.03125 z m 2.097657,-3.972656 c 0,-0.625 -0.207031,-1.15625 -0.621094,-1.59375 -0.40625,-0.4375 -0.941406,-0.65625 -1.605469,-0.65625 -0.625,0 -1.144531,0.21875 -1.558594,0.65625 -0.414062,0.4375 -0.632812,0.96875 -0.65625,1.59375 z m 7.621093,3.808594 v -1.007813 c -0.25,0.34375 -0.574218,0.625 -0.972656,0.84375 -0.390625,0.21875 -0.824218,0.328125 -1.300781,0.328125 -0.90625,0 -1.636719,-0.320312 -2.191406,-0.960938 -0.546875,-0.640624 -0.820313,-1.5 -0.820313,-2.578124 0,-1.078126 0.277344,-1.9375 0.832032,-2.578126 0.554687,-0.648437 1.28125,-0.972656 2.179687,-0.972656 0.453125,0 0.878906,0.105469 1.277344,0.316406 0.398437,0.210938 0.730469,0.5 0.996093,0.867188 V 41.882812 H 43.5625 v 9.328126 z M 40.480469,50.4375 c 0.421875,0 0.820312,-0.101562 1.195312,-0.304688 0.375,-0.203124 0.652344,-0.453124 0.832031,-0.75 V 46.3125 c -0.179687,-0.296875 -0.457031,-0.550781 -0.832031,-0.761719 -0.375,-0.21875 -0.773437,-0.328125 -1.195312,-0.328125 -0.648438,0 -1.171875,0.238282 -1.570313,0.714844 -0.398437,0.476562 -0.597656,1.109375 -0.597656,1.898438 0,0.773437 0.195312,1.402343 0.585938,1.886718 0.398437,0.476563 0.925781,0.714844 1.582031,0.714844 z m 10.492187,0.9375 c -1,0 -1.5,-0.527344 -1.5,-1.582031 V 45.375 h -1.113281 v -0.925781 h 1.113281 v -1.839844 h 1.054688 v 1.839844 h 1.371094 V 45.375 h -1.371094 v 4.195312 c 0,0.257813 0.05469,0.46875 0.164062,0.632813 0.117188,0.15625 0.292969,0.234375 0.527344,0.234375 0.289062,0 0.523438,-0.09375 0.703125,-0.28125 l 0.316406,0.785156 C 51.949219,51.230469 51.527344,51.375 50.972656,51.375 Z m 5.355469,0 c -0.976563,0 -1.777344,-0.332031 -2.402344,-0.996094 -0.625,-0.664062 -0.9375,-1.515625 -0.9375,-2.554687 0,-1.046875 0.3125,-1.898438 0.9375,-2.554688 0.625,-0.65625 1.425781,-0.984375 2.402344,-0.984375 0.984375,0 1.789063,0.328125 2.414063,0.984375 0.625,0.65625 0.9375,1.507813 0.9375,2.554688 0,1.039062 -0.3125,1.890625 -0.9375,2.554687 -0.625,0.664063 -1.429688,0.996094 -2.414063,0.996094 z m 0,-0.9375 c 0.65625,0 1.195313,-0.242188 1.617187,-0.726562 0.421876,-0.492188 0.632813,-1.121094 0.632813,-1.886719 0,-0.757813 -0.210937,-1.378907 -0.632813,-1.863281 -0.421874,-0.492188 -0.960937,-0.738282 -1.617187,-0.738282 -0.648437,0 -1.1875,0.242188 -1.617187,0.726563 -0.421876,0.484375 -0.632813,1.109375 -0.632813,1.875 0,0.773437 0.210937,1.402343 0.632813,1.886719 0.421874,0.484374 0.960937,0.726562 1.617187,0.726562 z m 14.519531,0.773438 -1.769531,-5.425782 -1.757813,5.425782 h -1.054687 l -2.15625,-6.761719 h 1.089844 l 1.652343,5.390625 1.78125,-5.390625 h 0.890626 l 1.78125,5.390625 1.652343,-5.390625 h 1.089844 l -2.15625,6.761719 z m 4.425782,0 v -6.761719 h 1.042968 v 1.089843 c 0.625,-0.820312 1.375,-1.230468 2.25,-1.230468 v 1.078125 l -0.410156,-0.03516 c -0.320312,0 -0.671875,0.113282 -1.054688,0.339844 -0.382812,0.226563 -0.644531,0.472656 -0.785156,0.738282 v 4.78125 z m 5.132812,-7.722657 c -0.1875,0 -0.351562,-0.06641 -0.492188,-0.199219 -0.140624,-0.140624 -0.210937,-0.308593 -0.210937,-0.503906 0,-0.195312 0.07031,-0.363281 0.210937,-0.503906 0.140626,-0.140625 0.304688,-0.210938 0.492188,-0.210938 0.195312,0 0.363281,0.07031 0.503906,0.210938 0.140625,0.140625 0.210938,0.308594 0.210938,0.503906 0,0.195313 -0.07031,0.363282 -0.210938,0.503906 -0.140625,0.132813 -0.308594,0.199219 -0.503906,0.199219 z m -0.515625,7.722657 v -6.761719 h 1.042969 v 6.761719 z M 84.738281,51.375 c -1,0 -1.5,-0.527344 -1.5,-1.582031 V 45.375 H 82.125 v -0.925781 h 1.113281 v -1.839844 h 1.054688 v 1.839844 h 1.371093 V 45.375 h -1.371093 v 4.195312 c 0,0.257813 0.05469,0.46875 0.164062,0.632813 0.117188,0.15625 0.292969,0.234375 0.527344,0.234375 0.289063,0 0.523437,-0.09375 0.703125,-0.28125 l 0.316406,0.785156 C 85.714844,51.230469 85.292969,51.375 84.738281,51.375 Z m 5.460938,0 c -1.015625,0 -1.84375,-0.328125 -2.484375,-0.984375 -0.640625,-0.664063 -0.960938,-1.519531 -0.960938,-2.566406 0,-1 0.316406,-1.839844 0.949219,-2.519531 0.640625,-0.679688 1.433594,-1.019532 2.378906,-1.019532 0.96875,0 1.75,0.335938 2.34375,1.007813 0.601563,0.671875 0.902344,1.542969 0.902344,2.613281 v 0.269531 h -5.472656 c 0.03906,0.6875 0.289062,1.25 0.75,1.6875 0.460937,0.429688 1.023437,0.644531 1.6875,0.644531 0.820312,0 1.515625,-0.285156 2.085937,-0.855468 l 0.503906,0.691406 c -0.6875,0.6875 -1.582031,1.03125 -2.683593,1.03125 z m 2.097656,-3.972656 c 0,-0.625 -0.207031,-1.15625 -0.621094,-1.59375 -0.40625,-0.4375 -0.941406,-0.65625 -1.605469,-0.65625 -0.625,0 -1.144531,0.21875 -1.558593,0.65625 -0.414063,0.4375 -0.632813,0.96875 -0.65625,1.59375 z m 0,0"
     id="path50" />
  <path
     fill="none"
     stroke-width="1.5"
     stroke-linecap="butt"
     stroke-linejoin="round"
     stroke="#595959"
     stroke-opacity="1"
     stroke-miterlimit="10"
     d="m 191.50391,77.125 h 61.96093"
     id="path52" />
  <path
     fill-rule="evenodd"
     fill="#595959"
     fill-opacity="1"
     d="m 253.46484,79.601562 6.8086,-2.476562 -6.8086,-2.480469 z m 0,0"
     id="path54" />
  <g
     clip-path="url(#clip-3)"
     id="g58">
    <path
       fill="none"
       stroke-width="1.5"
       stroke-linecap="butt"
       stroke-linejoin="miter"
       stroke="#595959"
       stroke-opacity="1"
       stroke-miterlimit="10"
       d="m 253.46484,79.601562 6.8086,-2.476562 -6.8086,-2.480469 z m 0,0"
       id="path56" />
  </g>
  <path
     fill-rule="nonzero"
     fill="#000000"
     fill-opacity="1"
     d="m 204.74609,52.933594 -2.3789,-3.703125 h -1.86328 v 3.703125 h -1.16016 v -9.328125 h 3.75 c 0.875,0 1.58203,0.261719 2.12109,0.785156 0.53907,0.515625 0.8086,1.191406 0.8086,2.027344 0,0.78125 -0.22657,1.414062 -0.67969,1.898437 -0.45313,0.476563 -1.03516,0.746094 -1.74609,0.808594 l 2.51953,3.808594 z m -1.79297,-4.734375 c 0.5625,0 1.01172,-0.164063 1.34766,-0.492188 0.34375,-0.328125 0.51563,-0.757812 0.51563,-1.289062 0,-0.53125 -0.17188,-0.960938 -0.51563,-1.289063 -0.33594,-0.328125 -0.78516,-0.492187 -1.34766,-0.492187 h -2.44921 v 3.5625 z m 9.42188,4.734375 v -0.949219 c -0.26563,0.296875 -0.60938,0.558594 -1.03125,0.785156 -0.41406,0.21875 -0.875,0.328125 -1.38281,0.328125 -1.42969,0 -2.14453,-0.71875 -2.14453,-2.15625 v -4.769531 h 1.04296 V 50.625 c 0,0.53125 0.1211,0.921875 0.36329,1.171875 0.24218,0.242187 0.625,0.363281 1.14843,0.363281 0.41407,0 0.80078,-0.101562 1.16016,-0.304687 0.36719,-0.203125 0.64844,-0.441407 0.84375,-0.714844 v -4.96875 h 1.04297 v 6.761719 z m 7.71094,0 v -4.417969 c 0,-0.601563 -0.14063,-1.011719 -0.42188,-1.230469 -0.27344,-0.226562 -0.63672,-0.339844 -1.08984,-0.339844 -0.39063,0 -0.77735,0.105469 -1.16016,0.316407 -0.375,0.210937 -0.65625,0.457031 -0.84375,0.738281 v 4.933594 h -1.04297 v -6.761719 h 1.04297 v 0.984375 c 0.28906,-0.335938 0.64453,-0.609375 1.06641,-0.820312 0.42969,-0.21875 0.875,-0.328126 1.33594,-0.328126 1.4375,0 2.15625,0.726563 2.15625,2.179688 v 4.746094 z m 8.45703,0.164062 c -1,0 -1.5,-0.527344 -1.5,-1.582031 v -4.417969 h -1.11328 v -0.925781 h 1.11328 v -1.839844 h 1.05469 v 1.839844 h 1.37109 v 0.925781 h -1.37109 v 4.195313 c 0,0.257812 0.0547,0.46875 0.16406,0.632812 0.11719,0.15625 0.29297,0.234375 0.52734,0.234375 0.28906,0 0.52344,-0.09375 0.70313,-0.28125 l 0.3164,0.785156 c -0.28906,0.289063 -0.71093,0.433594 -1.26562,0.433594 z m 5.35547,0 c -0.97657,0 -1.77735,-0.332031 -2.40235,-0.996094 -0.625,-0.664062 -0.9375,-1.515624 -0.9375,-2.554687 0,-1.046875 0.3125,-1.898437 0.9375,-2.554687 0.625,-0.65625 1.42578,-0.984376 2.40235,-0.984376 0.98437,0 1.78906,0.328126 2.41406,0.984376 0.625,0.65625 0.9375,1.507812 0.9375,2.554687 0,1.039063 -0.3125,1.890625 -0.9375,2.554687 -0.625,0.664063 -1.42969,0.996094 -2.41406,0.996094 z m 0,-0.9375 c 0.65625,0 1.19531,-0.242187 1.61718,-0.726562 0.42188,-0.492188 0.63282,-1.121094 0.63282,-1.886719 0,-0.757813 -0.21094,-1.378906 -0.63282,-1.863281 -0.42187,-0.492188 -0.96093,-0.738282 -1.61718,-0.738282 -0.64844,0 -1.1875,0.242188 -1.61719,0.726563 -0.42188,0.484375 -0.63281,1.109375 -0.63281,1.875 0,0.773437 0.21093,1.402344 0.63281,1.886719 0.42187,0.484375 0.96094,0.726562 1.61719,0.726562 z m 0,0"
     id="path60" />
  <path
     fill-rule="nonzero"
     fill="#000000"
     fill-opacity="1"
     d="m 202.28516,69.894531 c -0.99219,0 -1.80469,-0.335937 -2.4375,-1.007812 -0.625,-0.671875 -0.9375,-1.519531 -0.9375,-2.542969 0,-1.015625 0.3125,-1.859375 0.9375,-2.53125 0.63281,-0.671875 1.44531,-1.007812 2.4375,-1.007812 1.04687,0 1.87109,0.390624 2.47265,1.171874 l -0.6914,0.644532 c -0.42969,-0.585938 -1.00391,-0.878906 -1.72266,-0.878906 -0.69531,0 -1.26172,0.242187 -1.69922,0.726562 -0.42969,0.476562 -0.64453,1.101562 -0.64453,1.875 0,0.78125 0.21484,1.414062 0.64453,1.898438 0.42969,0.476562 0.99609,0.714843 1.69922,0.714843 0.70312,0 1.27734,-0.292969 1.72266,-0.878906 l 0.6914,0.644531 c -0.60156,0.78125 -1.42578,1.171875 -2.47265,1.171875 z m 6.89062,0 c -0.97656,0 -1.77734,-0.332031 -2.40234,-0.996093 -0.625,-0.664063 -0.9375,-1.515626 -0.9375,-2.554688 0,-1.046875 0.3125,-1.898438 0.9375,-2.554688 0.625,-0.65625 1.42578,-0.984374 2.40234,-0.984374 0.98438,0 1.78906,0.328124 2.41406,0.984374 0.625,0.65625 0.9375,1.507813 0.9375,2.554688 0,1.039062 -0.3125,1.890625 -0.9375,2.554688 -0.625,0.664062 -1.42968,0.996093 -2.41406,0.996093 z m 0,-0.9375 c 0.65625,0 1.19531,-0.242187 1.61719,-0.726562 0.42187,-0.492188 0.63281,-1.121094 0.63281,-1.886719 0,-0.757812 -0.21094,-1.378906 -0.63281,-1.863281 -0.42188,-0.492188 -0.96094,-0.738281 -1.61719,-0.738281 -0.64844,0 -1.1875,0.242187 -1.61719,0.726562 -0.42187,0.484375 -0.63281,1.109375 -0.63281,1.875 0,0.773438 0.21094,1.402344 0.63281,1.886719 0.42188,0.484375 0.96094,0.726562 1.61719,0.726562 z m 9.62109,0.773438 V 65.3125 c 0,-0.601562 -0.14062,-1.011719 -0.42187,-1.230469 -0.27344,-0.226562 -0.63672,-0.339843 -1.08984,-0.339843 -0.39063,0 -0.77735,0.105468 -1.16016,0.316406 -0.375,0.210937 -0.65625,0.457031 -0.84375,0.738281 v 4.933594 h -1.04297 V 62.96875 h 1.04297 v 0.984375 c 0.28906,-0.335937 0.64453,-0.609375 1.06641,-0.820313 0.42968,-0.21875 0.875,-0.328124 1.33593,-0.328124 1.4375,0 2.15625,0.726562 2.15625,2.179687 v 4.746094 z m 5.28516,0.164062 c -1.14844,0 -2.05859,-0.351562 -2.73047,-1.054687 l 0.55078,-0.761719 c 0.22657,0.265625 0.53516,0.492187 0.92578,0.679687 0.39844,0.1875 0.83204,0.28125 1.30079,0.28125 0.52343,0 0.91796,-0.109374 1.18359,-0.328124 0.27344,-0.21875 0.41016,-0.496094 0.41016,-0.832032 0,-0.296875 -0.14844,-0.53125 -0.44532,-0.703125 -0.28906,-0.171875 -0.83593,-0.351562 -1.64062,-0.539062 -0.67969,-0.140625 -1.19922,-0.359375 -1.5586,-0.65625 -0.35937,-0.304688 -0.53906,-0.714844 -0.53906,-1.230469 0,-0.570312 0.22656,-1.035156 0.67969,-1.394531 0.46094,-0.367188 1.07422,-0.550781 1.83984,-0.550781 1.01563,0 1.85157,0.328124 2.50782,0.984374 l -0.49219,0.726563 c -0.20313,-0.242187 -0.48047,-0.445313 -0.83203,-0.609375 -0.35157,-0.164062 -0.7461,-0.246094 -1.1836,-0.246094 -0.46875,0 -0.83593,0.101563 -1.10156,0.304688 -0.26562,0.203125 -0.39844,0.457031 -0.39844,0.761718 0,0.265626 0.14844,0.480469 0.44532,0.644532 0.30468,0.15625 0.85546,0.316406 1.65234,0.480468 0.67969,0.164063 1.19531,0.40625 1.54687,0.726563 0.35938,0.320313 0.53907,0.746094 0.53907,1.277344 0,0.625 -0.24219,1.121093 -0.72657,1.488281 -0.48437,0.367188 -1.1289,0.550781 -1.93359,0.550781 z m 6.07031,0 c -1,0 -1.5,-0.527343 -1.5,-1.582031 v -4.417969 h -1.11328 V 62.96875 h 1.11328 v -1.839844 h 1.05469 v 1.839844 h 1.37109 v 0.925781 h -1.37109 v 4.195313 c 0,0.257812 0.0547,0.46875 0.16406,0.632812 0.11719,0.15625 0.29297,0.234375 0.52735,0.234375 0.28906,0 0.52343,-0.09375 0.70312,-0.28125 l 0.31641,0.785157 c -0.28906,0.289062 -0.71094,0.433593 -1.26563,0.433593 z m 2.41407,-0.164062 V 62.96875 h 1.04296 v 1.089844 c 0.625,-0.820313 1.375,-1.230469 2.25,-1.230469 v 1.078125 l -0.41015,-0.03516 c -0.32031,0 -0.67188,0.113281 -1.05469,0.339844 -0.38281,0.226562 -0.64453,0.472656 -0.78516,0.738281 v 4.78125 z m 9.17578,0 V 68.78125 c -0.26563,0.296875 -0.60938,0.558594 -1.03125,0.785156 -0.41407,0.21875 -0.875,0.328125 -1.38282,0.328125 -1.42968,0 -2.14453,-0.71875 -2.14453,-2.15625 V 62.96875 h 1.04297 v 4.453125 c 0,0.53125 0.1211,0.921875 0.36328,1.171875 0.24219,0.242188 0.625,0.363281 1.14844,0.363281 0.41406,0 0.80078,-0.101562 1.16016,-0.304687 0.36718,-0.203125 0.64843,-0.441406 0.84375,-0.714844 v -4.96875 h 1.04297 v 6.761719 z m 6.1289,0.164062 c -0.99218,0 -1.80468,-0.335937 -2.4375,-1.007812 -0.625,-0.671875 -0.9375,-1.519531 -0.9375,-2.542969 0,-1.015625 0.3125,-1.859375 0.9375,-2.53125 0.63282,-0.671875 1.44532,-1.007812 2.4375,-1.007812 1.04688,0 1.8711,0.390624 2.47266,1.171874 l -0.69141,0.644532 c -0.42968,-0.585938 -1.0039,-0.878906 -1.72265,-0.878906 -0.69532,0 -1.26172,0.242187 -1.69922,0.726562 -0.42969,0.476562 -0.64453,1.101562 -0.64453,1.875 0,0.78125 0.21484,1.414062 0.64453,1.898438 0.42969,0.476562 0.99609,0.714843 1.69922,0.714843 0.70312,0 1.27734,-0.292969 1.72265,-0.878906 l 0.69141,0.644531 c -0.60156,0.78125 -1.42578,1.171875 -2.47266,1.171875 z m 5.64844,0 c -1,0 -1.5,-0.527343 -1.5,-1.582031 v -4.417969 h -1.11328 V 62.96875 h 1.11328 v -1.839844 h 1.05469 v 1.839844 h 1.37109 v 0.925781 h -1.37109 v 4.195313 c 0,0.257812 0.0547,0.46875 0.16406,0.632812 0.11719,0.15625 0.29297,0.234375 0.52734,0.234375 0.28907,0 0.52344,-0.09375 0.70313,-0.28125 l 0.31641,0.785157 c -0.28907,0.289062 -0.71094,0.433593 -1.26563,0.433593 z m 0,0"
     id="path62" />
  <path
     fill="none"
     stroke-width="1.5"
     stroke-linecap="butt"
     stroke-linejoin="round"
     stroke="#595959"
     stroke-opacity="1"
     stroke-miterlimit="10"
     d="M 355.21484,61.4375 V 41.125"
     id="path64" />
  <path
     fill-rule="evenodd"
     fill="#595959"
     fill-opacity="1"
     stroke-width="1.5"
     stroke-linecap="butt"
     stroke-linejoin="miter"
     stroke="#595959"
     stroke-opacity="1"
     stroke-miterlimit="10"
     d="m 357.69531,41.125 -2.48047,-6.808594 -2.47656,6.808594 z m 0,0"
     id="path66" />
  <path
     fill-rule="nonzero"
     fill="#000000"
     fill-opacity="1"
     d="m 363.05469,51.214844 v -9.328125 h 1.16015 v 9.328125 z m 7.87109,0 v -4.417969 c 0,-0.601563 -0.14062,-1.011719 -0.42187,-1.230469 -0.27344,-0.226562 -0.63672,-0.339844 -1.08985,-0.339844 -0.39062,0 -0.77734,0.105469 -1.16015,0.316407 -0.375,0.210937 -0.65625,0.457031 -0.84375,0.738281 v 4.933594 h -1.04297 v -6.761719 h 1.04297 V 45.4375 c 0.28906,-0.335938 0.64453,-0.609375 1.0664,-0.820312 0.42969,-0.21875 0.875,-0.328126 1.33594,-0.328126 1.4375,0 2.15625,0.726563 2.15625,2.179688 v 4.746094 z m 4.84766,0.164062 c -1,0 -1.5,-0.527344 -1.5,-1.582031 v -4.417969 h -1.11328 v -0.925781 h 1.11328 v -1.839844 h 1.05468 v 1.839844 h 1.3711 v 0.925781 h -1.3711 v 4.195313 c 0,0.257812 0.0547,0.46875 0.16407,0.632812 0.11718,0.15625 0.29297,0.234375 0.52734,0.234375 0.28906,0 0.52344,-0.09375 0.70313,-0.28125 l 0.3164,0.785156 c -0.28906,0.289063 -0.71094,0.433594 -1.26562,0.433594 z m 5.46093,0 c -1.01562,0 -1.84375,-0.328125 -2.48437,-0.984375 -0.64063,-0.664062 -0.96094,-1.519531 -0.96094,-2.566406 0,-1 0.31641,-1.839844 0.94922,-2.519531 0.64063,-0.679688 1.43359,-1.019532 2.37891,-1.019532 0.96875,0 1.75,0.335938 2.34375,1.007813 0.60156,0.671875 0.90234,1.542969 0.90234,2.613281 v 0.269532 h -5.47266 c 0.0391,0.6875 0.28907,1.25 0.75,1.6875 0.46094,0.429687 1.02344,0.644531 1.6875,0.644531 0.82032,0 1.51563,-0.285157 2.08594,-0.855469 l 0.50391,0.691406 c -0.6875,0.6875 -1.58203,1.03125 -2.6836,1.03125 z m 2.09766,-3.972656 c 0,-0.625 -0.20703,-1.15625 -0.62109,-1.59375 -0.40625,-0.4375 -0.94141,-0.65625 -1.60547,-0.65625 -0.625,0 -1.14453,0.21875 -1.5586,0.65625 -0.41406,0.4375 -0.63281,0.96875 -0.65625,1.59375 z m 2.73438,3.808594 v -6.761719 h 1.04296 v 1.089844 c 0.625,-0.820313 1.375,-1.230469 2.25,-1.230469 v 1.078125 l -0.41015,-0.03516 c -0.32031,0 -0.67188,0.113281 -1.05469,0.339843 -0.38281,0.226563 -0.64453,0.472657 -0.78516,0.738282 v 4.78125 z m 7.94531,0.164062 c -0.96094,0 -1.72266,-0.394531 -2.28516,-1.183594 v 3.597657 h -1.04297 v -9.339844 h 1.04297 v 1.007813 c 0.24219,-0.34375 0.5625,-0.625 0.96094,-0.84375 0.40625,-0.21875 0.84766,-0.328126 1.32422,-0.328126 0.90625,0 1.63281,0.316407 2.17969,0.949219 0.54687,0.632813 0.82031,1.496094 0.82031,2.589844 0,1.085937 -0.27344,1.949219 -0.82031,2.589844 -0.53907,0.640625 -1.26563,0.960937 -2.17969,0.960937 z m -0.26953,-0.9375 c 0.65625,0 1.17968,-0.234375 1.57031,-0.703125 0.39844,-0.476562 0.59766,-1.113281 0.59766,-1.910156 0,-0.773437 -0.19532,-1.398437 -0.58594,-1.875 -0.39063,-0.484375 -0.91797,-0.726563 -1.58203,-0.726563 -0.42188,0 -0.81641,0.105469 -1.1836,0.316407 -0.36718,0.210937 -0.64453,0.464843 -0.83203,0.761719 v 3.046874 c 0.1875,0.296876 0.46485,0.554688 0.83203,0.773438 0.36719,0.210938 0.76172,0.316406 1.1836,0.316406 z m 4.94531,0.773438 v -6.761719 h 1.04297 v 1.089844 c 0.625,-0.820313 1.375,-1.230469 2.25,-1.230469 v 1.078125 l -0.41016,-0.03516 c -0.32031,0 -0.67187,0.113281 -1.05469,0.339843 -0.38281,0.226563 -0.64453,0.472657 -0.78515,0.738282 v 4.78125 z m 7.66406,0.164062 c -1.01562,0 -1.84375,-0.328125 -2.48437,-0.984375 -0.64063,-0.664062 -0.96094,-1.519531 -0.96094,-2.566406 0,-1 0.31641,-1.839844 0.94922,-2.519531 0.64062,-0.679688 1.43359,-1.019532 2.3789,-1.019532 0.96875,0 1.75,0.335938 2.34375,1.007813 0.60157,0.671875 0.90235,1.542969 0.90235,2.613281 v 0.269532 h -5.47266 c 0.0391,0.6875 0.28906,1.25 0.75,1.6875 0.46094,0.429687 1.02344,0.644531 1.6875,0.644531 0.82031,0 1.51563,-0.285157 2.08594,-0.855469 l 0.50391,0.691406 c -0.6875,0.6875 -1.58204,1.03125 -2.6836,1.03125 z m 2.09766,-3.972656 c 0,-0.625 -0.20703,-1.15625 -0.6211,-1.59375 -0.40625,-0.4375 -0.9414,-0.65625 -1.60546,-0.65625 -0.625,0 -1.14454,0.21875 -1.5586,0.65625 -0.41406,0.4375 -0.63281,0.96875 -0.65625,1.59375 z m 4.43359,3.972656 c -1,0 -1.5,-0.527344 -1.5,-1.582031 v -4.417969 h -1.11328 v -0.925781 h 1.11328 v -1.839844 h 1.05469 v 1.839844 h 1.37109 v 0.925781 h -1.37109 v 4.195313 c 0,0.257812 0.0547,0.46875 0.16406,0.632812 0.11719,0.15625 0.29297,0.234375 0.52735,0.234375 0.28906,0 0.52343,-0.09375 0.70312,-0.28125 l 0.31641,0.785156 c -0.28907,0.289063 -0.71094,0.433594 -1.26563,0.433594 z m 5.46094,0 c -1.01563,0 -1.84375,-0.328125 -2.48438,-0.984375 -0.64062,-0.664062 -0.96093,-1.519531 -0.96093,-2.566406 0,-1 0.3164,-1.839844 0.94922,-2.519531 0.64062,-0.679688 1.43359,-1.019532 2.3789,-1.019532 0.96875,0 1.75,0.335938 2.34375,1.007813 0.60156,0.671875 0.90235,1.542969 0.90235,2.613281 v 0.269532 H 416 c 0.0391,0.6875 0.28906,1.25 0.75,1.6875 0.46094,0.429687 1.02344,0.644531 1.6875,0.644531 0.82031,0 1.51562,-0.285157 2.08594,-0.855469 l 0.5039,0.691406 c -0.6875,0.6875 -1.58203,1.03125 -2.68359,1.03125 z m 2.09766,-3.972656 c 0,-0.625 -0.20704,-1.15625 -0.6211,-1.59375 -0.40625,-0.4375 -0.9414,-0.65625 -1.60547,-0.65625 -0.625,0 -1.14453,0.21875 -1.55859,0.65625 -0.41406,0.4375 -0.63281,0.96875 -0.65625,1.59375 z m 7.61718,3.808594 v -1.007813 c -0.25,0.34375 -0.57422,0.625 -0.97265,0.84375 -0.39063,0.21875 -0.82422,0.328125 -1.30078,0.328125 -0.90625,0 -1.63672,-0.320312 -2.19141,-0.960937 -0.54688,-0.640625 -0.82031,-1.5 -0.82031,-2.578125 0,-1.078125 0.27734,-1.9375 0.83203,-2.578125 0.55469,-0.648438 1.28125,-0.972657 2.17969,-0.972657 0.45312,0 0.8789,0.105469 1.27734,0.316407 0.39844,0.210937 0.73047,0.5 0.99609,0.867187 v -3.585937 h 1.05469 v 9.328125 z m -2.02734,-0.773438 c 0.42187,0 0.82031,-0.101562 1.19531,-0.304687 0.375,-0.203125 0.65235,-0.453125 0.83203,-0.75 v -3.070313 c -0.17968,-0.296875 -0.45703,-0.550781 -0.83203,-0.761718 -0.375,-0.21875 -0.77344,-0.328126 -1.19531,-0.328126 -0.64844,0 -1.17188,0.238282 -1.57031,0.714844 -0.39844,0.476563 -0.59766,1.109375 -0.59766,1.898438 0,0.773437 0.19531,1.402344 0.58594,1.886718 0.39844,0.476563 0.92578,0.714844 1.58203,0.714844 z m 0,0"
     id="path68" />
</svg>
