<?xml version="1.0" encoding="UTF-8" standalone="no"?>
<svg
   version="1.1"
   viewBox="0 0 517.84253 340.37796"
   fill="none"
   stroke="none"
   stroke-linecap="square"
   stroke-miterlimit="10"
   id="svg141"
   sodipodi:docname="jni_vs_jna.svg"
   width="517.84253"
   height="340.37796"
   inkscape:version="1.2.2 (b0a8486541, 2022-12-01)"
   xmlns:inkscape="http://www.inkscape.org/namespaces/inkscape"
   xmlns:sodipodi="http://sodipodi.sourceforge.net/DTD/sodipodi-0.dtd"
   xmlns="http://www.w3.org/2000/svg"
   xmlns:svg="http://www.w3.org/2000/svg">
  <defs
     id="defs145" />
  <sodipodi:namedview
     id="namedview143"
     pagecolor="#ffffff"
     bordercolor="#000000"
     borderopacity="0.25"
     inkscape:showpageshadow="2"
     inkscape:pageopacity="0.0"
     inkscape:pagecheckerboard="0"
     inkscape:deskcolor="#d1d1d1"
     showgrid="false"
     inkscape:zoom="2.0055556"
     inkscape:cx="259.27978"
     inkscape:cy="222.63158"
     inkscape:window-width="3840"
     inkscape:window-height="2093"
     inkscape:window-x="0"
     inkscape:window-y="30"
     inkscape:window-maximized="1"
     inkscape:current-layer="svg141" />
  <clipPath
     id="g244bbc4bcb3_0_303.0">
    <path
       d="M 0,0 H 960 V 540 H 0 Z"
       clip-rule="nonzero"
       id="path2" />
  </clipPath>
  <g
     clip-path="url(#g244bbc4bcb3_0_303.0)"
     id="g139"
     transform="translate(-221.07874,-47.6168)">
    <path
       fill="#c9daf8"
       d="m 280.43307,123.4623 v 0 c 0,-10.037 8.1366,-18.17359 18.17358,-18.17359 h 194.42447 c 4.81995,0 9.44248,1.91471 12.85068,5.32292 3.4082,3.40821 5.32291,8.03074 5.32291,12.85067 v 72.69219 c 0,10.03699 -8.1366,18.17358 -18.17359,18.17358 H 298.60665 c -10.03698,0 -18.17358,-8.13659 -18.17358,-18.17358 z"
       fill-rule="evenodd"
       id="path7" />
    <path
       stroke="#595959"
       stroke-width="2"
       stroke-linejoin="round"
       stroke-linecap="butt"
       d="m 280.43307,123.4623 v 0 c 0,-10.037 8.1366,-18.17359 18.17358,-18.17359 h 194.42447 c 4.81995,0 9.44248,1.91471 12.85068,5.32292 3.4082,3.40821 5.32291,8.03074 5.32291,12.85067 v 72.69219 c 0,10.03699 -8.1366,18.17358 -18.17359,18.17358 H 298.60665 c -10.03698,0 -18.17358,-8.13659 -18.17358,-18.17358 z"
       fill-rule="evenodd"
       id="path9" />
    <path
       fill="#000000"
       d="m 298.20905,128.75032 q -2.01563,0 -3.25,-1.43749 l 0.79687,-1.17188 q 1.04688,1.23438 2.35938,1.23438 1.15625,0 1.82812,-0.71875 0.67188,-0.71875 0.67188,-1.89063 v -8.67187 h 1.54687 v 8.6875 q 0,1.89062 -1.0625,2.9375 -1.0625,1.03124 -2.89062,1.03124 z m 10.58047,-0.21875 -5,-12.43749 h 1.76563 l 4.20312,10.73437 4.1875,-10.73437 h 1.78125 l -5.01562,12.43749 z m 19.1977,0 v -10.24999 l -4.23438,10.24999 h -0.64062 l -4.21875,-10.24999 v 10.24999 h -1.54688 v -12.43749 h 2.21875 l 3.85938,9.35937 3.89062,-9.35937 h 2.21875 v 12.43749 z"
       fill-rule="nonzero"
       id="path11" />
    <path
       fill="#fff2cc"
       d="m 289.38846,151.39127 v 0 c 0,-5.17796 4.19754,-9.37552 9.37552,-9.37552 h 102.91824 c 2.48654,0 4.87125,0.98778 6.62949,2.74603 1.75827,1.75824 2.74603,4.14295 2.74603,6.62949 v 37.50093 c 0,5.17796 -4.19757,9.37552 -9.37552,9.37552 H 298.76398 c -5.17798,0 -9.37552,-4.19756 -9.37552,-9.37552 z"
       fill-rule="evenodd"
       id="path13" />
    <path
       stroke="#595959"
       stroke-width="1"
       stroke-linejoin="round"
       stroke-linecap="butt"
       d="m 289.38846,151.39127 v 0 c 0,-5.17796 4.19754,-9.37552 9.37552,-9.37552 h 102.91824 c 2.48654,0 4.87125,0.98778 6.62949,2.74603 1.75827,1.75824 2.74603,4.14295 2.74603,6.62949 v 37.50093 c 0,5.17796 -4.19757,9.37552 -9.37552,9.37552 H 298.76398 c -5.17798,0 -9.37552,-4.19756 -9.37552,-9.37552 z"
       fill-rule="evenodd"
       id="path15" />
    <path
       fill="#000000"
       d="m 312.6571,177.06174 v -11.0625 h -3.9375 v -1.375 h 9.4375 v 1.375 h -3.95312 v 11.0625 z m 9.4249,0.21875 q -2.03125,0 -3.3125,-1.3125 -1.28125,-1.32813 -1.28125,-3.42188 0,-2 1.26562,-3.35937 1.28125,-1.35938 3.17188,-1.35938 1.9375,0 3.125,1.34375 1.20312,1.34375 1.20312,3.48438 v 0.35937 H 318.957 q 0.0781,1.375 1,2.25 0.92187,0.85938 2.25,0.85938 1.64062,0 2.78125,-1.14063 l 0.67187,0.92188 q -1.375,1.375 -3.57812,1.375 z m 2.79687,-5.29688 q 0,-1.25 -0.82812,-2.125 -0.8125,-0.875 -2.14063,-0.875 -1.25,0 -2.07812,0.875 -0.82813,0.875 -0.875,2.125 z m 6.48786,5.29688 q -2.29688,0 -3.64063,-1.40625 l 0.73438,-1.01563 q 0.45312,0.53125 1.23437,0.90625 0.79688,0.375 1.73438,0.375 1.04687,0 1.57812,-0.4375 0.54688,-0.4375 0.54688,-1.10937 0,-0.59375 -0.59375,-0.9375 -0.57813,-0.34375 -2.1875,-0.71875 -1.35938,-0.28125 -2.07813,-0.875 -0.71875,-0.60938 -0.71875,-1.64063 0,-1.14062 0.90625,-1.85937 0.92188,-0.73438 2.45313,-0.73438 2.03125,0 3.34375,1.3125 l -0.65625,0.96875 q -0.40625,-0.48437 -1.10938,-0.8125 -0.70312,-0.32812 -1.57812,-0.32812 -0.9375,0 -1.46875,0.40625 -0.53125,0.40625 -0.53125,1.01562 0,0.53125 0.59375,0.85938 0.60937,0.3125 2.20312,0.64062 1.35938,0.32813 2.0625,0.96875 0.71875,0.64063 0.71875,1.70313 0,1.25 -0.96875,1.98437 -0.96875,0.73438 -2.57812,0.73438 z m 8.09701,0 q -2,0 -2,-2.10938 v -5.89062 h -1.48437 v -1.23438 h 1.48437 v -2.45312 h 1.40625 v 2.45312 h 1.82813 v 1.23438 h -1.82813 v 5.59375 q 0,0.51562 0.21875,0.84375 0.23438,0.3125 0.70313,0.3125 0.57812,0 0.9375,-0.375 l 0.42187,1.04687 q -0.57812,0.57813 -1.6875,0.57813 z m 4.60996,-2.65625 q 0.375,0.59375 1.10937,1 0.73438,0.40625 1.57813,0.40625 1.32812,0 2.10937,-0.95313 0.79688,-0.96875 0.79688,-2.51562 0,-1.5625 -0.78125,-2.51563 -0.78125,-0.96875 -2.125,-0.96875 -0.84375,0 -1.57813,0.4375 -0.73437,0.42188 -1.10937,1.01563 z m -1.39063,2.4375 v -12.4375 h 1.39063 v 4.78125 q 1.15625,-1.57813 3.04687,-1.57813 1.78125,0 2.89063,1.3125 1.10937,1.29688 1.10937,3.42188 0,2.17187 -1.10937,3.45312 -1.10938,1.26563 -2.89063,1.26563 -0.95312,0 -1.75,-0.4375 -0.79687,-0.4375 -1.29687,-1.125 v 1.34375 z m 14.78986,0.21875 q -2.03128,0 -3.31253,-1.3125 -1.28125,-1.32813 -1.28125,-3.42188 0,-2 1.26562,-3.35937 1.28125,-1.35938 3.17191,-1.35938 1.9375,0 3.125,1.34375 1.20312,1.34375 1.20312,3.48438 v 0.35937 h -7.2969 q 0.0781,1.375 1,2.25 0.9219,0.85938 2.25003,0.85938 1.64062,0 2.78125,-1.14063 l 0.67187,0.92188 q -1.375,1.375 -3.57812,1.375 z m 2.79687,-5.29688 q 0,-1.25 -0.82812,-2.125 -0.8125,-0.875 -2.14063,-0.875 -1.25003,0 -2.07815,0.875 -0.82813,0.875 -0.875,2.125 z m 9.7222,5.07813 v -5.89063 q 0,-1.20312 -0.5625,-1.64062 -0.54688,-0.45313 -1.45313,-0.45313 -0.78125,0 -1.54687,0.42188 -0.75,0.42187 -1.125,0.98437 v 6.57813 h -1.39063 v -9.01563 h 1.39063 v 1.3125 q 0.57812,-0.67187 1.42187,-1.09375 0.85938,-0.4375 1.78125,-0.4375 2.875,0 2.875,2.90625 v 6.32813 z m 8.17023,0.21875 q -1.98438,0 -3.25,-1.34375 -1.25,-1.34375 -1.25,-3.39063 0,-2.03125 1.25,-3.375 1.26562,-1.34375 3.25,-1.34375 2.09375,0 3.29687,1.5625 l -0.92187,0.85938 q -0.85938,-1.17188 -2.29688,-1.17188 -1.39062,0 -2.26562,0.96875 -0.85938,0.95313 -0.85938,2.5 0,1.5625 0.85938,2.53125 0.85937,0.95313 2.26562,0.95313 1.40625,0 2.29688,-1.17188 l 0.92187,0.85938 q -1.20312,1.5625 -3.29687,1.5625 z m 11.35986,-0.21875 v -5.9375 q 0,-1 -0.48438,-1.51563 -0.46875,-0.53125 -1.54687,-0.53125 -0.76563,0 -1.48438,0.39063 -0.71875,0.39062 -1.1875,1.01562 v 6.57813 h -1.39062 v -12.4375 h 1.39062 v 4.73437 q 0.59375,-0.6875 1.45313,-1.10937 0.85937,-0.42188 1.78125,-0.42188 2.875,0 2.875,2.875 v 6.35938 z"
       fill-rule="nonzero"
       id="path17" />
    <path
       fill="#f4cccc"
       d="m 438.30447,151.39127 v 0 c 0,-5.17796 4.19754,-9.37552 9.37552,-9.37552 h 43.73715 c 2.48654,0 4.87122,0.98778 6.62949,2.74603 1.75824,1.75824 2.74603,4.14295 2.74603,6.62949 v 37.50093 c 0,5.17796 -4.19757,9.37552 -9.37552,9.37552 h -43.73715 c -5.17798,0 -9.37552,-4.19756 -9.37552,-9.37552 z"
       fill-rule="evenodd"
       id="path19" />
    <path
       stroke="#595959"
       stroke-width="1"
       stroke-linejoin="round"
       stroke-linecap="butt"
       d="m 438.30447,151.39127 v 0 c 0,-5.17796 4.19754,-9.37552 9.37552,-9.37552 h 43.73715 c 2.48654,0 4.87122,0.98778 6.62949,2.74603 1.75824,1.75824 2.74603,4.14295 2.74603,6.62949 v 37.50093 c 0,5.17796 -4.19757,9.37552 -9.37552,9.37552 h -43.73715 c -5.17798,0 -9.37552,-4.19756 -9.37552,-9.37552 z"
       fill-rule="evenodd"
       id="path21" />
    <path
       fill="#000000"
       d="m 455.82858,166.28049 q -2.01563,0 -3.25,-1.4375 l 0.79687,-1.17188 q 1.04688,1.23438 2.35938,1.23438 1.15625,0 1.82812,-0.71875 0.67188,-0.71875 0.67188,-1.89063 v -8.67187 h 1.54687 v 8.6875 q 0,1.89062 -1.0625,2.9375 -1.0625,1.03125 -2.89062,1.03125 z m 15.67422,-0.21875 -7.26562,-9.92188 v 9.92188 h -1.54688 v -12.4375 h 1.59375 l 7.15625,9.71875 v -9.71875 h 1.54688 v 12.4375 z m 13.27115,0 -1.09375,-2.76563 h -6.1875 l -1.10937,2.76563 h -1.76563 l 5,-12.4375 h 1.92188 l 5.01562,12.4375 z m -4.1875,-10.84375 -2.65625,6.70312 h 5.28125 z"
       fill-rule="nonzero"
       id="path23" />
    <path
       fill="#000000"
       d="m 458.51132,188.06174 v -12.4375 h 8.15625 v 1.375 h -6.60938 v 4.01562 h 6.48438 v 1.375 h -6.48438 v 5.67188 z m 10.26092,0 v -12.4375 h 8.15625 v 1.375 h -6.60937 v 4.01562 h 6.48437 v 1.375 h -6.48437 v 5.67188 z m 10.26096,0 v -12.4375 h 1.54688 v 12.4375 z"
       fill-rule="nonzero"
       id="path25" />
    <path
       fill="#000000"
       fill-opacity="0"
       d="m 411.05774,170.14174 h 27.24411"
       fill-rule="evenodd"
       id="path27" />
    <path
       stroke="#595959"
       stroke-width="1"
       stroke-linejoin="round"
       stroke-linecap="butt"
       d="m 414.48483,170.14174 h 20.38992"
       fill-rule="evenodd"
       id="path29" />
    <path
       fill="#595959"
       stroke="#595959"
       stroke-width="1"
       stroke-linecap="butt"
       d="m 414.48483,170.14174 1.12457,-1.12459 -3.08975,1.12459 3.08975,1.12457 z"
       fill-rule="evenodd"
       id="path31" />
    <path
       fill="#595959"
       stroke="#595959"
       stroke-width="1"
       stroke-linecap="butt"
       d="m 434.87476,170.14174 -1.1246,1.12457 3.08978,-1.12457 -3.08978,-1.12459 z"
       fill-rule="evenodd"
       id="path33" />
    <path
       fill="#f4cccc"
       d="m 532.07086,151.39127 v 0 c 0,-5.17796 4.19757,-9.37552 9.37555,-9.37552 h 102.91821 c 2.48657,0 4.87128,0.98778 6.62952,2.74603 1.75824,1.75824 2.74603,4.14295 2.74603,6.62949 v 37.50093 c 0,5.17796 -4.19757,9.37552 -9.37555,9.37552 H 541.44641 c -5.17798,0 -9.37555,-4.19756 -9.37555,-9.37552 z"
       fill-rule="evenodd"
       id="path35" />
    <path
       stroke="#595959"
       stroke-width="2"
       stroke-linejoin="round"
       stroke-linecap="butt"
       d="m 532.07086,151.39127 v 0 c 0,-5.17796 4.19757,-9.37552 9.37555,-9.37552 h 102.91821 c 2.48657,0 4.87128,0.98778 6.62952,2.74603 1.75824,1.75824 2.74603,4.14295 2.74603,6.62949 v 37.50093 c 0,5.17796 -4.19757,9.37552 -9.37555,9.37552 H 541.44641 c -5.17798,0 -9.37555,-4.19756 -9.37555,-9.37552 z"
       fill-rule="evenodd"
       id="path37" />
    <path
       fill="#000000"
       d="m 561.698,166.06174 -5,-12.4375 h 1.76562 l 4.20313,10.73437 4.1875,-10.73437 h 1.78125 l -5.01563,12.4375 z m 11.4527,0.21875 q -2.03125,0 -3.3125,-1.3125 -1.28125,-1.32813 -1.28125,-3.42188 0,-2 1.26562,-3.35937 1.28125,-1.35938 3.17188,-1.35938 1.9375,0 3.125,1.34375 1.20312,1.34375 1.20312,3.48438 v 0.35937 h -7.29687 q 0.0781,1.375 1,2.25 0.92187,0.85938 2.25,0.85938 1.64062,0 2.78125,-1.14063 l 0.67187,0.92188 q -1.375,1.375 -3.57812,1.375 z m 2.79687,-5.29688 q 0,-1.25 -0.82812,-2.125 -0.8125,-0.875 -2.14063,-0.875 -1.25,0 -2.07812,0.875 -0.82813,0.875 -0.875,2.125 z m 3.64411,5.07813 v -9.01563 h 1.39062 v 1.45313 q 1.25,-1.64063 3,-1.64063 v 1.4375 l -0.54687,-0.0469 q -0.64063,0 -1.40625,0.45312 -0.76563,0.45313 -1.04688,0.98438 v 6.375 z m 6.84405,-10.29688 q -0.375,0 -0.65625,-0.26562 -0.28125,-0.28125 -0.28125,-0.67188 0,-0.39062 0.28125,-0.67187 0.28125,-0.28125 0.65625,-0.28125 0.39063,0 0.67188,0.28125 0.28125,0.28125 0.28125,0.67187 0,0.39063 -0.28125,0.67188 -0.28125,0.26562 -0.67188,0.26562 z m -0.6875,10.29688 v -9.01563 h 1.39063 v 9.01563 z m 4.19769,0 v -12.4375 h 1.39063 v 12.4375 z m 9.82264,0 v -1.03125 q -1.14063,1.25 -2.98438,1.25 -1.35937,0 -2.26562,-0.85938 -0.89063,-0.85937 -0.89063,-2.125 0,-1.29687 0.89063,-2.125 0.89062,-0.84375 2.26562,-0.84375 1.9375,0 2.98438,1.23438 v -1.625 q 0,-0.90625 -0.64063,-1.39063 -0.64062,-0.5 -1.64062,-0.5 -1.57813,0 -2.75,1.25 l -0.65625,-0.98437 q 1.4375,-1.48438 3.59375,-1.48438 1.67187,0 2.57812,0.8125 0.92188,0.79688 0.92188,2.23438 v 6.1875 z m -2.48438,-0.78125 q 1.67188,0 2.48438,-1.125 v -1.6875 q -0.8125,-1.125 -2.48438,-1.125 -0.98437,0 -1.60937,0.54687 -0.60938,0.54688 -0.60938,1.42188 0,0.85937 0.60938,1.42187 0.625,0.54688 1.60937,0.54688 z m 8.95685,1 q -2,0 -2,-2.10938 v -5.89062 h -1.48437 v -1.23438 h 1.48437 v -2.45312 h 1.40625 v 2.45312 h 1.82813 v 1.23438 h -1.82813 v 5.59375 q 0,0.51562 0.21875,0.84375 0.23438,0.3125 0.70313,0.3125 0.57812,0 0.9375,-0.375 l 0.42187,1.04687 q -0.57812,0.57813 -1.6875,0.57813 z m 7.2818,0 q -2.03125,0 -3.3125,-1.3125 -1.28125,-1.32813 -1.28125,-3.42188 0,-2 1.26562,-3.35937 1.28125,-1.35938 3.17188,-1.35938 1.9375,0 3.125,1.34375 1.20312,1.34375 1.20312,3.48438 v 0.35937 h -7.29687 q 0.0781,1.375 1,2.25 0.92187,0.85938 2.25,0.85938 1.64062,0 2.78125,-1.14063 l 0.67187,0.92188 q -1.375,1.375 -3.57812,1.375 z m 2.79687,-5.29688 q 0,-1.25 -0.82812,-2.125 -0.8125,-0.875 -2.14063,-0.875 -1.25,0 -2.07812,0.875 -0.82813,0.875 -0.875,2.125 z m 10.15973,5.07813 v -1.34375 q -0.5,0.6875 -1.29687,1.125 -0.78125,0.4375 -1.73438,0.4375 -1.8125,0 -2.92187,-1.28125 -1.09375,-1.28125 -1.09375,-3.4375 0,-2.15625 1.10937,-3.4375 1.10938,-1.29688 2.90625,-1.29688 0.90625,0 1.70313,0.42188 0.79687,0.42187 1.32812,1.15625 v -4.78125 h 1.40625 v 12.4375 z m -2.70312,-1.03125 q 0.84375,0 1.59375,-0.40625 0.75,-0.40625 1.10937,-1 v -4.09375 q -0.35937,-0.59375 -1.10937,-1.01563 -0.75,-0.4375 -1.59375,-0.4375 -1.29688,0 -2.09375,0.95313 -0.79688,0.95312 -0.79688,2.53125 0,1.54687 0.78125,2.51562 0.79688,0.95313 2.10938,0.95313 z"
       fill-rule="nonzero"
       id="path39" />
    <path
       fill="#000000"
       d="m 583.2274,188.24924 q -0.42188,0 -0.71875,-0.29688 -0.29688,-0.29687 -0.29688,-0.73437 0,-0.42188 0.29688,-0.71875 0.29687,-0.29688 0.71875,-0.29688 0.4375,0 0.73437,0.29688 0.29688,0.29687 0.29688,0.71875 0,0.4375 -0.29688,0.73437 -0.29687,0.29688 -0.73437,0.29688 z m 6.40033,0.0312 q -2.29688,0 -3.64063,-1.40625 l 0.73438,-1.01563 q 0.45312,0.53125 1.23437,0.90625 0.79688,0.375 1.73438,0.375 1.04687,0 1.57812,-0.4375 0.54688,-0.4375 0.54688,-1.10937 0,-0.59375 -0.59375,-0.9375 -0.57813,-0.34375 -2.1875,-0.71875 -1.35938,-0.28125 -2.07813,-0.875 -0.71875,-0.60938 -0.71875,-1.64063 0,-1.14062 0.90625,-1.85937 0.92188,-0.73438 2.45313,-0.73438 2.03125,0 3.34375,1.3125 l -0.65625,0.96875 q -0.40625,-0.48437 -1.10938,-0.8125 -0.70312,-0.32812 -1.57812,-0.32812 -0.9375,0 -1.46875,0.40625 -0.53125,0.40625 -0.53125,1.01562 0,0.53125 0.59375,0.85938 0.60937,0.3125 2.20312,0.64062 1.35938,0.32813 2.0625,0.96875 0.71875,0.64063 0.71875,1.70313 0,1.25 -0.96875,1.98437 -0.96875,0.73438 -2.57812,0.73438 z m 9.75323,0 q -1.95312,0 -3.20312,-1.32813 -1.25,-1.32812 -1.25,-3.40625 0,-2.09375 1.25,-3.40625 1.25,-1.3125 3.20312,-1.3125 1.96875,0 3.21875,1.3125 1.25,1.3125 1.25,3.40625 0,2.07813 -1.25,3.40625 -1.25,1.32813 -3.21875,1.32813 z m 0,-1.25 q 1.3125,0 2.15625,-0.96875 0.84375,-0.98438 0.84375,-2.51563 0,-1.51562 -0.84375,-2.48437 -0.84375,-0.98438 -2.15625,-0.98438 -1.29687,0 -2.15625,0.96875 -0.84375,0.96875 -0.84375,2.5 0,1.54688 0.84375,2.51563 0.84375,0.96875 2.15625,0.96875 z"
       fill-rule="nonzero"
       id="path41" />
    <path
       fill="#000000"
       fill-opacity="0"
       d="m 500.79266,170.14174 h 31.27557"
       fill-rule="evenodd"
       id="path43" />
    <path
       stroke="#595959"
       stroke-width="1"
       stroke-linejoin="round"
       stroke-linecap="butt"
       d="m 504.21973,170.14174 h 24.42145"
       fill-rule="evenodd"
       id="path45" />
    <path
       fill="#595959"
       stroke="#595959"
       stroke-width="1"
       stroke-linecap="butt"
       d="m 504.21973,170.14174 1.1246,-1.12459 -3.08978,1.12459 3.08978,1.12457 z"
       fill-rule="evenodd"
       id="path47" />
    <path
       fill="#595959"
       stroke="#595959"
       stroke-width="1"
       stroke-linecap="butt"
       d="m 528.6412,170.14174 -1.12457,1.12457 3.08972,-1.12457 -3.08972,-1.12459 z"
       fill-rule="evenodd"
       id="path49" />
    <path
       fill="#000000"
       fill-opacity="0"
       d="m 506.24408,105.28871 h 173.32288 v 42.01575 H 506.24408 Z"
       fill-rule="evenodd"
       id="path51" />
    <path
       fill="#000000"
       d="m 529.57336,127.17746 q 0.90625,0.60937 2.04687,0.60937 0.67188,0 1.10938,-0.15625 0.4375,-0.17187 0.82812,-0.375 0.40625,-0.21875 0.89063,-0.375 0.48437,-0.17187 1.28125,-0.17187 1.125,0 2.0625,0.5 v 1.09375 q -0.9375,-0.625 -2.0625,-0.625 -0.67188,0 -1.10938,0.17187 -0.4375,0.15625 -0.85937,0.375 -0.40625,0.21875 -0.89063,0.39063 -0.48437,0.15625 -1.25,0.15625 -1.23437,0 -2.04687,-0.5 z m 0,-3.51563 q 0.90625,0.625 2.04687,0.625 0.90625,0 1.95313,-0.5625 1.03125,-0.54687 2.15625,-0.54687 1.125,0 2.0625,0.5 v 1.10937 q -0.90625,-0.625 -2.0625,-0.625 -0.67188,0 -1.10938,0.17188 -0.4375,0.17187 -0.85937,0.375 -0.40625,0.20312 -0.89063,0.375 -0.48437,0.17187 -1.25,0.17187 -1.15625,0 -2.04687,-0.51562 z m 16.90405,8.54688 v -10.39063 l -2,2.10938 -0.9375,-0.95313 3.10938,-3.20312 h 1.375 v 12.4375 z m 8.69947,0.21875 q -2.15625,0 -3.45313,-1.78125 -1.29687,-1.78125 -1.29687,-4.65625 0,-2.89063 1.3125,-4.64063 1.3125,-1.76562 3.4375,-1.76562 1.45312,0 2.53125,0.82812 1.07812,0.82813 1.65625,2.3125 0.57812,1.46875 0.57812,3.26563 0,1.79687 -0.57812,3.29687 -0.57813,1.48438 -1.64063,2.3125 -1.0625,0.82813 -2.54687,0.82813 z m 0,-1.375 q 1.5,0 2.32812,-1.34375 0.84375,-1.34375 0.84375,-3.71875 0,-2.375 -0.84375,-3.70313 -0.82812,-1.32812 -2.32812,-1.32812 -1.48438,0 -2.32813,1.32812 -0.84375,1.32813 -0.84375,3.70313 0,2.375 0.82813,3.71875 0.84375,1.34375 2.34375,1.34375 z m 11.4176,1.375 q -2.15625,0 -3.45313,-1.78125 -1.29687,-1.78125 -1.29687,-4.65625 0,-2.89063 1.3125,-4.64063 1.3125,-1.76562 3.4375,-1.76562 1.45312,0 2.53125,0.82812 1.07812,0.82813 1.65625,2.3125 0.57812,1.46875 0.57812,3.26563 0,1.79687 -0.57812,3.29687 -0.57813,1.48438 -1.64063,2.3125 -1.0625,0.82813 -2.54687,0.82813 z m 0,-1.375 q 1.5,0 2.32812,-1.34375 0.84375,-1.34375 0.84375,-3.71875 0,-2.375 -0.84375,-3.70313 -0.82812,-1.32812 -2.32812,-1.32812 -1.48438,0 -2.32813,1.32812 -0.84375,1.32813 -0.84375,3.70313 0,2.375 0.82813,3.71875 0.84375,1.34375 2.34375,1.34375 z m 13.24579,1.15625 -3.23438,-4.04688 -1.5,1.46875 v 2.57813 h -1.39062 v -12.4375 h 1.39062 v 8.21875 l 4.73438,-4.79688 h 1.78125 l -4,4.09375 4.01562,4.92188 z m 12.24634,0.21875 q -1.98438,0 -3.25,-1.34375 -1.25,-1.34375 -1.25,-3.39063 0,-2.03125 1.25,-3.375 1.26562,-1.34375 3.25,-1.34375 2.09375,0 3.29687,1.5625 l -0.92187,0.85938 q -0.85938,-1.17188 -2.29688,-1.17188 -1.39062,0 -2.26562,0.96875 -0.85938,0.95313 -0.85938,2.5 0,1.5625 0.85938,2.53125 0.85937,0.95313 2.26562,0.95313 1.40625,0 2.29688,-1.17188 l 0.92187,0.85938 q -1.20312,1.5625 -3.29687,1.5625 z m 10.89111,-0.21875 v -1.03125 q -1.14063,1.25 -2.98438,1.25 -1.35937,0 -2.26562,-0.85938 -0.89063,-0.85937 -0.89063,-2.125 0,-1.29687 0.89063,-2.125 0.89062,-0.84375 2.26562,-0.84375 1.9375,0 2.98438,1.23438 v -1.625 q 0,-0.90625 -0.64063,-1.39063 -0.64062,-0.5 -1.64062,-0.5 -1.57813,0 -2.75,1.25 l -0.65625,-0.98437 q 1.4375,-1.48438 3.59375,-1.48438 1.67187,0 2.57812,0.8125 0.92188,0.79688 0.92188,2.23438 v 6.1875 z m -2.48438,-0.78125 q 1.67188,0 2.48438,-1.125 v -1.6875 q -0.8125,-1.125 -2.48438,-1.125 -0.98437,0 -1.60937,0.54687 -0.60938,0.54688 -0.60938,1.42188 0,0.85937 0.60938,1.42187 0.625,0.54688 1.60937,0.54688 z m 6.69123,0.78125 v -12.4375 h 1.39062 v 12.4375 z m 4.19763,0 v -12.4375 h 1.39062 v 12.4375 z m 7.04144,0.21875 q -2.29687,0 -3.64062,-1.40625 l 0.73437,-1.01563 q 0.45313,0.53125 1.23438,0.90625 0.79687,0.375 1.73437,0.375 1.04688,0 1.57813,-0.4375 0.54687,-0.4375 0.54687,-1.10937 0,-0.59375 -0.59375,-0.9375 -0.57812,-0.34375 -2.1875,-0.71875 -1.35937,-0.28125 -2.07812,-0.875 -0.71875,-0.60938 -0.71875,-1.64063 0,-1.14062 0.90625,-1.85937 0.92187,-0.73438 2.45312,-0.73438 2.03125,0 3.34375,1.3125 l -0.65625,0.96875 q -0.40625,-0.48437 -1.10937,-0.8125 -0.70313,-0.32812 -1.57813,-0.32812 -0.9375,0 -1.46875,0.40625 -0.53125,0.40625 -0.53125,1.01562 0,0.53125 0.59375,0.85938 0.60938,0.3125 2.20313,0.64062 1.35937,0.32813 2.0625,0.96875 0.71875,0.64063 0.71875,1.70313 0,1.25 -0.96875,1.98437 -0.96875,0.73438 -2.57813,0.73438 z m 4.42517,0.15625 4.42188,-13.1875 h 1.09375 l -4.42188,13.1875 z m 9.77222,-0.15625 q -2.29688,0 -3.64063,-1.40625 l 0.73438,-1.01563 q 0.45312,0.53125 1.23437,0.90625 0.79688,0.375 1.73438,0.375 1.04687,0 1.57812,-0.4375 0.54688,-0.4375 0.54688,-1.10937 0,-0.59375 -0.59375,-0.9375 -0.57813,-0.34375 -2.1875,-0.71875 -1.35938,-0.28125 -2.07813,-0.875 -0.71875,-0.60938 -0.71875,-1.64063 0,-1.14062 0.90625,-1.85937 0.92188,-0.73438 2.45313,-0.73438 2.03125,0 3.34375,1.3125 l -0.65625,0.96875 q -0.40625,-0.48437 -1.10938,-0.8125 -0.70312,-0.32812 -1.57812,-0.32812 -0.9375,0 -1.46875,0.40625 -0.53125,0.40625 -0.53125,1.01562 0,0.53125 0.59375,0.85938 0.60937,0.3125 2.20312,0.64062 1.35938,0.32813 2.0625,0.96875 0.71875,0.64063 0.71875,1.70313 0,1.25 -0.96875,1.98437 -0.96875,0.73438 -2.57812,0.73438 z m 9.89392,0 q -2.03125,0 -3.3125,-1.3125 -1.28125,-1.32813 -1.28125,-3.42188 0,-2 1.26563,-3.35937 1.28125,-1.35938 3.17187,-1.35938 1.9375,0 3.125,1.34375 1.20313,1.34375 1.20313,3.48438 v 0.35937 h -7.29688 q 0.0781,1.375 1,2.25 0.92188,0.85938 2.25,0.85938 1.64063,0 2.78125,-1.14063 l 0.67188,0.92188 q -1.375,1.375 -3.57813,1.375 z m 2.79688,-5.29688 q 0,-1.25 -0.82813,-2.125 -0.8125,-0.875 -2.14062,-0.875 -1.25,0 -2.07813,0.875 -0.82812,0.875 -0.875,2.125 z m 7.61285,5.29688 q -1.98438,0 -3.25,-1.34375 -1.25,-1.34375 -1.25,-3.39063 0,-2.03125 1.25,-3.375 1.26562,-1.34375 3.25,-1.34375 2.09375,0 3.29687,1.5625 l -0.92187,0.85938 q -0.85938,-1.17188 -2.29688,-1.17188 -1.39062,0 -2.26562,0.96875 -0.85938,0.95313 -0.85938,2.5 0,1.5625 0.85938,2.53125 0.85937,0.95313 2.26562,0.95313 1.40625,0 2.29688,-1.17188 l 0.92187,0.85938 q -1.20312,1.5625 -3.29687,1.5625 z"
       fill-rule="nonzero"
       id="path53" />
    <path
       fill="#000000"
       fill-opacity="0"
       d="M 398.04593,47.6168 H 561.95142 V 99.333337 H 398.04593 Z"
       fill-rule="evenodd"
       id="path55" />
    <path
       fill="#000000"
       fill-opacity="0"
       d="m 454.6887,57.69314 h 50.62003 V 90.160334 H 454.6887 Z"
       fill-rule="nonzero"
       id="path57" />
    <path
       fill="#000000"
       d="m 459.6262,82.5293 q -2.98438,0 -4.78125,-1.71875 l 1.65625,-2.90625 q 1.35937,1.28125 2.82812,1.28125 1.28125,0 2.01563,-0.765625 0.75,-0.78125 0.75,-2.09375 V 64.43555 h 3.79687 v 11.9375 q 0,2.9375 -1.65625,4.546875 -1.65625,1.609375 -4.60937,1.609375 z m 22.03302,-0.3125 -8.46875,-11.59375 V 82.2168 h -3.78125 V 64.43555 h 3.89062 l 8.23438,11.171875 V 64.43555 h 3.78125 V 82.2168 Z m 19.43231,0 -1.09375,-3.015625 h -7.625 l -1.10937,3.015625 h -4.32813 l 6.89063,-17.78125 h 4.73437 l 6.85938,17.78125 z m -4.90625,-14 -2.76562,7.65625 h 5.54687 z"
       fill-rule="nonzero"
       id="path59" />
    <path
       fill="#000000"
       fill-opacity="0"
       d="m 505.30872,57.69314 v 0 32.467194 0 z"
       fill-rule="nonzero"
       id="path61" />
    <path
       fill="#000000"
       d="m 454.6887,83.95013 h 50.62003 v 2.400002 H 454.6887 Z"
       fill-rule="nonzero"
       id="path63" />
    <path
       fill="#c9daf8"
       d="m 222.07874,296.12897 v 0 c 0,-10.03699 8.1366,-18.17358 18.1736,-18.17358 h 194.42445 c 4.81995,0 9.44247,1.9147 12.85068,5.3229 3.4082,3.40824 5.32293,8.03073 5.32293,12.85068 v 72.6922 c 0,10.03699 -8.13659,18.17358 -18.17361,18.17358 H 240.25234 c -10.037,0 -18.1736,-8.13659 -18.1736,-18.17358 z"
       fill-rule="evenodd"
       id="path65" />
    <path
       stroke="#595959"
       stroke-width="2"
       stroke-linejoin="round"
       stroke-linecap="butt"
       d="m 222.07874,296.12897 v 0 c 0,-10.03699 8.1366,-18.17358 18.1736,-18.17358 h 194.42445 c 4.81995,0 9.44247,1.9147 12.85068,5.3229 3.4082,3.40824 5.32293,8.03073 5.32293,12.85068 v 72.6922 c 0,10.03699 -8.13659,18.17358 -18.17361,18.17358 H 240.25234 c -10.037,0 -18.1736,-8.13659 -18.1736,-18.17358 z"
       fill-rule="evenodd"
       id="path67" />
    <path
       fill="#000000"
       d="m 239.85472,301.417 q -2.01563,0 -3.25,-1.4375 l 0.79687,-1.17188 q 1.04688,1.23438 2.35938,1.23438 1.15625,0 1.82812,-0.71875 0.67188,-0.71875 0.67188,-1.89063 v -8.67187 h 1.54687 v 8.6875 q 0,1.89062 -1.0625,2.9375 -1.0625,1.03125 -2.89062,1.03125 z m 10.58047,-0.21875 -5,-12.4375 h 1.76563 l 4.20312,10.73437 4.1875,-10.73437 h 1.78127 l -5.01564,12.4375 z m 19.19771,0 v -10.25 l -4.23437,10.25 h -0.64063 l -4.21875,-10.25 v 10.25 h -1.54687 v -12.4375 h 2.21875 l 3.85937,9.35937 3.89063,-9.35937 h 2.21875 v 12.4375 z"
       fill-rule="nonzero"
       id="path69" />
    <path
       fill="#fff2cc"
       d="m 231.03412,324.05792 v 0 c 0,-5.17795 4.19757,-9.37552 9.37552,-9.37552 h 102.91827 c 2.48651,0 4.87122,0.98779 6.62949,2.74603 1.75824,1.75824 2.746,4.14295 2.746,6.62949 v 37.50095 c 0,5.17794 -4.19754,9.37551 -9.37549,9.37551 H 240.40964 c -5.17795,0 -9.37552,-4.19757 -9.37552,-9.37551 z"
       fill-rule="evenodd"
       id="path71" />
    <path
       stroke="#595959"
       stroke-width="1"
       stroke-linejoin="round"
       stroke-linecap="butt"
       d="m 231.03412,324.05792 v 0 c 0,-5.17795 4.19757,-9.37552 9.37552,-9.37552 h 102.91827 c 2.48651,0 4.87122,0.98779 6.62949,2.74603 1.75824,1.75824 2.746,4.14295 2.746,6.62949 v 37.50095 c 0,5.17794 -4.19754,9.37551 -9.37549,9.37551 H 240.40964 c -5.17795,0 -9.37552,-4.19757 -9.37552,-9.37551 z"
       fill-rule="evenodd"
       id="path73" />
    <path
       fill="#000000"
       d="m 254.30278,349.7284 v -11.0625 h -3.9375 v -1.375 h 9.43751 v 1.375 h -3.95314 v 11.0625 z m 9.42491,0.21875 q -2.03125,0 -3.3125,-1.3125 -1.28125,-1.32812 -1.28125,-3.42187 0,-2 1.26563,-3.35938 1.28125,-1.35937 3.17187,-1.35937 1.9375,0 3.125,1.34375 1.20313,1.34375 1.20313,3.48437 v 0.35938 h -7.29688 q 0.0781,1.375 1,2.25 0.92188,0.85937 2.25,0.85937 1.64063,0 2.78125,-1.14062 l 0.67188,0.92187 q -1.375,1.375 -3.57813,1.375 z m 2.79688,-5.29687 q 0,-1.25 -0.82813,-2.125 -0.8125,-0.875 -2.14062,-0.875 -1.25,0 -2.07813,0.875 -0.82812,0.875 -0.875,2.125 z m 6.48782,5.29687 q -2.29688,0 -3.64063,-1.40625 l 0.73438,-1.01562 q 0.45312,0.53125 1.23437,0.90625 0.79688,0.375 1.73438,0.375 1.04687,0 1.57812,-0.4375 0.54688,-0.4375 0.54688,-1.10938 0,-0.59375 -0.59375,-0.9375 -0.57813,-0.34375 -2.1875,-0.71875 -1.35938,-0.28125 -2.07813,-0.875 -0.71875,-0.60937 -0.71875,-1.64062 0,-1.14063 0.90625,-1.85938 0.92188,-0.73437 2.45313,-0.73437 2.03125,0 3.34375,1.3125 l -0.65625,0.96875 q -0.40625,-0.48438 -1.10938,-0.8125 -0.70312,-0.32813 -1.57812,-0.32813 -0.9375,0 -1.46875,0.40625 -0.53125,0.40625 -0.53125,1.01563 0,0.53125 0.59375,0.85937 0.60937,0.3125 2.20312,0.64063 1.35938,0.32812 2.0625,0.96875 0.71875,0.64062 0.71875,1.70312 0,1.25 -0.96875,1.98438 -0.96875,0.73437 -2.57812,0.73437 z m 8.09705,0 q -2,0 -2,-2.10937 v -5.89063 h -1.48438 v -1.23437 h 1.48438 v -2.45313 h 1.40625 v 2.45313 h 1.82812 v 1.23437 h -1.82812 v 5.59375 q 0,0.51563 0.21875,0.84375 0.23437,0.3125 0.70312,0.3125 0.57813,0 0.9375,-0.375 l 0.42188,1.04688 q -0.57813,0.57812 -1.6875,0.57812 z m 4.60992,-2.65625 q 0.375,0.59375 1.10938,1 0.73437,0.40625 1.57812,0.40625 1.32813,0 2.10938,-0.95312 0.79687,-0.96875 0.79687,-2.51563 0,-1.5625 -0.78125,-2.51562 -0.78125,-0.96875 -2.125,-0.96875 -0.84375,0 -1.57812,0.4375 -0.73438,0.42187 -1.10938,1.01562 z m -1.39062,2.4375 v -12.4375 h 1.39062 v 4.78125 q 1.15625,-1.57812 3.04688,-1.57812 1.78125,0 2.89062,1.3125 1.10938,1.29687 1.10938,3.42187 0,2.17188 -1.10938,3.45313 -1.10937,1.26562 -2.89062,1.26562 -0.95313,0 -1.75,-0.4375 -0.79688,-0.4375 -1.29688,-1.125 v 1.34375 z m 14.78985,0.21875 q -2.03125,0 -3.3125,-1.3125 -1.28125,-1.32812 -1.28125,-3.42187 0,-2 1.26563,-3.35938 1.28125,-1.35937 3.17187,-1.35937 1.9375,0 3.125,1.34375 1.20313,1.34375 1.20313,3.48437 v 0.35938 h -7.29688 q 0.0781,1.375 1,2.25 0.92188,0.85937 2.25,0.85937 1.64063,0 2.78125,-1.14062 l 0.67188,0.92187 q -1.375,1.375 -3.57813,1.375 z m 2.79688,-5.29687 q 0,-1.25 -0.82813,-2.125 -0.8125,-0.875 -2.14062,-0.875 -1.25,0 -2.07813,0.875 -0.82812,0.875 -0.875,2.125 z m 9.72219,5.07812 v -5.89062 q 0,-1.20313 -0.5625,-1.64063 -0.54687,-0.45312 -1.45312,-0.45312 -0.78125,0 -1.54688,0.42187 -0.75,0.42188 -1.125,0.98438 v 6.57812 h -1.39062 v -9.01562 h 1.39062 v 1.3125 q 0.57813,-0.67188 1.42188,-1.09375 0.85937,-0.4375 1.78125,-0.4375 2.875,0 2.875,2.90625 v 6.32812 z m 8.17023,0.21875 q -1.98437,0 -3.25,-1.34375 -1.25,-1.34375 -1.25,-3.39062 0,-2.03125 1.25,-3.375 1.26563,-1.34375 3.25,-1.34375 2.09375,0 3.29688,1.5625 l -0.92188,0.85937 q -0.85937,-1.17187 -2.29687,-1.17187 -1.39063,0 -2.26563,0.96875 -0.85937,0.95312 -0.85937,2.5 0,1.5625 0.85937,2.53125 0.85938,0.95312 2.26563,0.95312 1.40625,0 2.29687,-1.17187 l 0.92188,0.85937 q -1.20313,1.5625 -3.29688,1.5625 z m 11.35986,-0.21875 v -5.9375 q 0,-1 -0.48437,-1.51562 -0.46875,-0.53125 -1.54688,-0.53125 -0.76562,0 -1.48437,0.39062 -0.71875,0.39063 -1.1875,1.01563 v 6.57812 H 325.074 v -12.4375 h 1.39063 v 4.73438 q 0.59375,-0.6875 1.45312,-1.10938 0.85938,-0.42187 1.78125,-0.42187 2.875,0 2.875,2.875 v 6.35937 z"
       fill-rule="nonzero"
       id="path75" />
    <path
       fill="#f4cccc"
       d="m 379.95013,324.05792 v 0 c 0,-5.17795 4.19757,-9.37552 9.37552,-9.37552 h 43.73715 c 2.48654,0 4.87125,0.98779 6.62949,2.74603 1.75824,1.75824 2.74603,4.14295 2.74603,6.62949 v 37.50095 c 0,5.17794 -4.19757,9.37551 -9.37552,9.37551 h -43.73715 c -5.17795,0 -9.37552,-4.19757 -9.37552,-9.37551 z"
       fill-rule="evenodd"
       id="path77" />
    <path
       stroke="#595959"
       stroke-width="1"
       stroke-linejoin="round"
       stroke-linecap="butt"
       d="m 379.95013,324.05792 v 0 c 0,-5.17795 4.19757,-9.37552 9.37552,-9.37552 h 43.73715 c 2.48654,0 4.87125,0.98779 6.62949,2.74603 1.75824,1.75824 2.74603,4.14295 2.74603,6.62949 v 37.50095 c 0,5.17794 -4.19757,9.37551 -9.37552,9.37551 h -43.73715 c -5.17795,0 -9.37552,-4.19757 -9.37552,-9.37551 z"
       fill-rule="evenodd"
       id="path79" />
    <path
       fill="#000000"
       d="m 401.38275,338.94714 q -2.01563,0 -3.25,-1.4375 l 0.79687,-1.17188 q 1.04688,1.23438 2.35938,1.23438 1.15625,0 1.82812,-0.71875 0.67188,-0.71875 0.67188,-1.89063 v -8.67187 h 1.54687 v 8.6875 q 0,1.89062 -1.0625,2.9375 -1.0625,1.03125 -2.89062,1.03125 z m 15.67422,-0.21875 -7.26562,-9.92188 v 9.92188 h -1.54688 v -12.4375 h 1.59375 l 7.15625,9.71875 v -9.71875 h 1.54688 v 12.4375 z m 4.39612,0 v -12.4375 h 1.54688 v 12.4375 z"
       fill-rule="nonzero"
       id="path81" />
    <path
       fill="#000000"
       d="m 400.15698,360.7284 v -12.4375 h 8.15625 v 1.375 h -6.60938 v 4.01563 h 6.48438 v 1.375 h -6.48438 v 5.67187 z m 10.26096,0 v -12.4375 h 8.15625 v 1.375 h -6.60938 v 4.01563 h 6.48438 v 1.375 h -6.48438 v 5.67187 z m 10.26092,0 v -12.4375 h 1.54688 v 12.4375 z"
       fill-rule="nonzero"
       id="path83" />
    <path
       fill="#000000"
       fill-opacity="0"
       d="m 352.7034,342.8084 h 27.24411"
       fill-rule="evenodd"
       id="path85" />
    <path
       stroke="#595959"
       stroke-width="1"
       stroke-linejoin="round"
       stroke-linecap="butt"
       d="m 356.1305,342.8084 h 20.38992"
       fill-rule="evenodd"
       id="path87" />
    <path
       fill="#595959"
       stroke="#595959"
       stroke-width="1"
       stroke-linecap="butt"
       d="m 356.1305,342.8084 1.1246,-1.1246 -3.08978,1.1246 3.08978,1.12457 z"
       fill-rule="evenodd"
       id="path89" />
    <path
       fill="#595959"
       stroke="#595959"
       stroke-width="1"
       stroke-linecap="butt"
       d="m 376.52042,342.8084 -1.12457,1.12457 3.08975,-1.12457 -3.08975,-1.1246 z"
       fill-rule="evenodd"
       id="path91" />
    <path
       fill="#f4cccc"
       d="m 473.71652,324.05792 v 0 c 0,-5.17795 4.19757,-9.37552 9.37552,-9.37552 h 102.91827 c 2.48651,0 4.87122,0.98779 6.62952,2.74603 1.75824,1.75824 2.74597,4.14295 2.74597,6.62949 v 37.50095 c 0,5.17794 -4.19751,9.37551 -9.37549,9.37551 H 483.09204 c -5.17795,0 -9.37552,-4.19757 -9.37552,-9.37551 z"
       fill-rule="evenodd"
       id="path93" />
    <path
       stroke="#595959"
       stroke-width="2"
       stroke-linejoin="round"
       stroke-linecap="butt"
       d="m 473.71652,324.05792 v 0 c 0,-5.17795 4.19757,-9.37552 9.37552,-9.37552 h 102.91827 c 2.48651,0 4.87122,0.98779 6.62952,2.74603 1.75824,1.75824 2.74597,4.14295 2.74597,6.62949 v 37.50095 c 0,5.17794 -4.19751,9.37551 -9.37549,9.37551 H 483.09204 c -5.17795,0 -9.37552,-4.19757 -9.37552,-9.37551 z"
       fill-rule="evenodd"
       id="path95" />
    <path
       fill="#000000"
       d="m 495.3188,338.94714 q -2.01563,0 -3.25,-1.4375 l 0.79687,-1.17188 q 1.04688,1.23438 2.35938,1.23438 1.15625,0 1.82812,-0.71875 0.67188,-0.71875 0.67188,-1.89063 v -8.67187 h 1.54687 v 8.6875 q 0,1.89062 -1.0625,2.9375 -1.0625,1.03125 -2.89062,1.03125 z m 15.67422,-0.21875 -7.26562,-9.92188 v 9.92188 h -1.54688 v -12.4375 h 1.59375 l 7.15625,9.71875 v -9.71875 h 1.54691 v 12.4375 z m 4.39615,0 v -12.4375 h 1.54688 v 12.4375 z m 9.27216,0 v -12.4375 h 5.54687 q 1.57813,0 2.53125,0.875 0.95313,0.85937 0.95313,2.29687 0,1.09375 -0.60938,1.85938 -0.60937,0.76562 -1.57812,0.98437 1,0.15625 1.71875,1.04688 0.71875,0.89062 0.71875,2.01562 0,1.53125 -0.96875,2.45313 -0.95313,0.90625 -2.64063,0.90625 z m 5.28125,-7.04688 q 1.0625,0 1.59375,-0.5625 0.54687,-0.57812 0.54687,-1.4375 0,-0.84375 -0.54687,-1.42187 -0.53125,-0.59375 -1.59375,-0.59375 h -3.73438 v 4.01562 z m 0.0781,5.67188 q 1.09375,0 1.70313,-0.5625 0.60937,-0.57813 0.60937,-1.59375 0,-0.95313 -0.64062,-1.54688 -0.625,-0.59375 -1.67188,-0.59375 h -3.8125 v 4.29688 z m 6.32856,1.375 v -9.01563 h 1.39062 v 1.45313 q 1.25,-1.64063 3,-1.64063 v 1.4375 l -0.54687,-0.0469 q -0.64063,0 -1.40625,0.45312 -0.76563,0.45313 -1.04688,0.98438 v 6.375 z m 6.84405,-10.29688 q -0.375,0 -0.65625,-0.26562 -0.28125,-0.28125 -0.28125,-0.67188 0,-0.39062 0.28125,-0.67187 0.28125,-0.28125 0.65625,-0.28125 0.39063,0 0.67188,0.28125 0.28125,0.28125 0.28125,0.67187 0,0.39063 -0.28125,0.67188 -0.28125,0.26562 -0.67188,0.26562 z m -0.6875,10.29688 v -9.01563 h 1.39063 v 9.01563 z m 10.71326,0 v -1.34375 q -0.5,0.6875 -1.29688,1.125 -0.78125,0.4375 -1.73437,0.4375 -1.8125,0 -2.92188,-1.28125 -1.09375,-1.28125 -1.09375,-3.4375 0,-2.15625 1.10938,-3.4375 1.10937,-1.29688 2.90625,-1.29688 0.90625,0 1.70312,0.42188 0.79688,0.42187 1.32813,1.15625 v -4.78125 h 1.40625 v 12.4375 z m -2.70313,-1.03125 q 0.84375,0 1.59375,-0.40625 0.75,-0.40625 1.10938,-1 v -4.09375 q -0.35938,-0.59375 -1.10938,-1.01563 -0.75,-0.4375 -1.59375,-0.4375 -1.29687,0 -2.09375,0.95313 -0.79687,0.95312 -0.79687,2.53125 0,1.54687 0.78125,2.51562 0.79687,0.95313 2.10937,0.95313 z m 10.52423,4.6875 q -1.15625,0 -2,-0.28125 -0.82812,-0.28125 -1.64062,-1.0625 l 0.71875,-1.04688 q 0.5625,0.67188 1.25,0.95313 0.70312,0.28125 1.67187,0.28125 1.39063,0 2.14063,-0.71875 0.75,-0.71875 0.75,-1.98438 v -1.29687 q -0.48438,0.70312 -1.28125,1.15625 -0.78125,0.45312 -1.73438,0.45312 -1.82812,0 -2.92187,-1.28125 -1.09375,-1.29687 -1.09375,-3.375 0,-2.17187 1.10937,-3.42187 1.10938,-1.26563 2.90625,-1.26563 1.85938,0 3.01563,1.57813 v -1.35938 h 1.40625 v 8.75 q 0,1.90625 -1.125,2.90625 -1.10938,1.01563 -3.17188,1.01563 z m 0.20313,-4.78125 q 0.76562,0 1.51562,-0.40625 0.76563,-0.40625 1.17188,-1.0625 v -3.9375 q -0.40625,-0.65625 -1.17188,-1.04688 -0.76562,-0.40625 -1.51562,-0.40625 -1.3125,0 -2.10938,0.95313 -0.78125,0.95312 -0.78125,2.48437 0,1.54688 0.79688,2.48438 0.8125,0.9375 2.09375,0.9375 z m 10.95868,1.34375 q -2.03125,0 -3.3125,-1.3125 -1.28125,-1.32813 -1.28125,-3.42188 0,-2 1.26562,-3.35937 1.28125,-1.35938 3.17188,-1.35938 1.9375,0 3.125,1.34375 1.20312,1.34375 1.20312,3.48438 v 0.35937 h -7.29687 q 0.0781,1.375 1,2.25 0.92187,0.85938 2.25,0.85938 1.64062,0 2.78125,-1.14063 l 0.67187,0.92188 q -1.375,1.375 -3.57812,1.375 z m 2.79687,-5.29688 q 0,-1.25 -0.82812,-2.125 -0.8125,-0.875 -2.14063,-0.875 -1.25,0 -2.07812,0.875 -0.82813,0.875 -0.875,2.125 z"
       fill-rule="nonzero"
       id="path97" />
    <path
       fill="#000000"
       d="m 524.87305,360.9159 q -0.42187,0 -0.71875,-0.29687 -0.29687,-0.29688 -0.29687,-0.73438 0,-0.42187 0.29687,-0.71875 0.29688,-0.29687 0.71875,-0.29687 0.4375,0 0.73438,0.29687 0.29687,0.29688 0.29687,0.71875 0,0.4375 -0.29687,0.73438 -0.29688,0.29687 -0.73438,0.29687 z m 6.40033,0.0312 q -2.29688,0 -3.64063,-1.40625 l 0.73438,-1.01562 q 0.45312,0.53125 1.23437,0.90625 0.79688,0.375 1.73438,0.375 1.04687,0 1.57812,-0.4375 0.54688,-0.4375 0.54688,-1.10938 0,-0.59375 -0.59375,-0.9375 -0.57813,-0.34375 -2.1875,-0.71875 -1.35938,-0.28125 -2.07813,-0.875 -0.71875,-0.60937 -0.71875,-1.64062 0,-1.14063 0.90625,-1.85938 0.92188,-0.73437 2.45313,-0.73437 2.03125,0 3.34375,1.3125 l -0.65625,0.96875 q -0.40625,-0.48438 -1.10938,-0.8125 -0.70312,-0.32813 -1.57812,-0.32813 -0.9375,0 -1.46875,0.40625 -0.53125,0.40625 -0.53125,1.01563 0,0.53125 0.59375,0.85937 0.60937,0.3125 2.20312,0.64063 1.35938,0.32812 2.0625,0.96875 0.71875,0.64062 0.71875,1.70312 0,1.25 -0.96875,1.98438 -0.96875,0.73437 -2.57812,0.73437 z m 9.7533,0 q -1.95313,0 -3.20313,-1.32812 -1.25,-1.32813 -1.25,-3.40625 0,-2.09375 1.25,-3.40625 1.25,-1.3125 3.20313,-1.3125 1.96875,0 3.21875,1.3125 1.25,1.3125 1.25,3.40625 0,2.07812 -1.25,3.40625 -1.25,1.32812 -3.21875,1.32812 z m 0,-1.25 q 1.3125,0 2.15625,-0.96875 0.84375,-0.98437 0.84375,-2.51562 0,-1.51563 -0.84375,-2.48438 -0.84375,-0.98437 -2.15625,-0.98437 -1.29688,0 -2.15625,0.96875 -0.84375,0.96875 -0.84375,2.5 0,1.54687 0.84375,2.51562 0.84375,0.96875 2.15625,0.96875 z"
       fill-rule="nonzero"
       id="path99" />
    <path
       fill="#000000"
       fill-opacity="0"
       d="m 442.43832,342.8084 h 31.27557"
       fill-rule="evenodd"
       id="path101" />
    <path
       stroke="#595959"
       stroke-width="1"
       stroke-linejoin="round"
       stroke-linecap="butt"
       d="m 445.86542,342.8084 h 24.42142"
       fill-rule="evenodd"
       id="path103" />
    <path
       fill="#595959"
       stroke="#595959"
       stroke-width="1"
       stroke-linecap="butt"
       d="m 445.86542,342.8084 1.12457,-1.1246 -3.08978,1.1246 3.08978,1.12457 z"
       fill-rule="evenodd"
       id="path105" />
    <path
       fill="#595959"
       stroke="#595959"
       stroke-width="1"
       stroke-linecap="butt"
       d="m 470.28683,342.8084 -1.1246,1.12457 3.08978,-1.12457 -3.08978,-1.1246 z"
       fill-rule="evenodd"
       id="path107" />
    <path
       fill="#000000"
       fill-opacity="0"
       d="m 447.88977,277.95538 h 173.32281 v 42.01575 H 447.88977 Z"
       fill-rule="evenodd"
       id="path109" />
    <path
       fill="#000000"
       d="m 474.17606,299.84412 q 0.90625,0.60937 2.04687,0.60937 0.67188,0 1.10938,-0.15625 0.4375,-0.17187 0.82812,-0.375 0.40625,-0.21875 0.89063,-0.375 0.48437,-0.17187 1.28125,-0.17187 1.125,0 2.0625,0.5 v 1.09375 q -0.9375,-0.625 -2.0625,-0.625 -0.67188,0 -1.10938,0.17187 -0.4375,0.15625 -0.85937,0.375 -0.40625,0.21875 -0.89063,0.39063 -0.48437,0.15625 -1.25,0.15625 -1.23437,0 -2.04687,-0.5 z m 0,-3.51563 q 0.90625,0.625 2.04687,0.625 0.90625,0 1.95313,-0.5625 1.03125,-0.54687 2.15625,-0.54687 1.125,0 2.0625,0.5 v 1.10937 q -0.90625,-0.625 -2.0625,-0.625 -0.67188,0 -1.10938,0.17188 -0.4375,0.17187 -0.85937,0.375 -0.40625,0.20312 -0.89063,0.375 -0.48437,0.17187 -1.25,0.17187 -1.15625,0 -2.04687,-0.51562 z m 16.90402,8.54688 v -10.39063 l -2,2.10938 -0.9375,-0.95313 3.10938,-3.20312 h 1.375 v 12.4375 z m 8.69946,0.21875 q -2.15625,0 -3.45312,-1.78125 -1.29688,-1.78125 -1.29688,-4.65625 0,-2.89063 1.3125,-4.64063 1.3125,-1.76562 3.4375,-1.76562 1.45313,0 2.53125,0.82812 1.07813,0.82813 1.65625,2.3125 0.57813,1.46875 0.57813,3.26563 0,1.79687 -0.57813,3.29687 -0.57812,1.48438 -1.64062,2.3125 -1.0625,0.82813 -2.54688,0.82813 z m 0,-1.375 q 1.5,0 2.32813,-1.34375 0.84375,-1.34375 0.84375,-3.71875 0,-2.375 -0.84375,-3.70313 -0.82813,-1.32812 -2.32813,-1.32812 -1.48437,0 -2.32812,1.32812 -0.84375,1.32813 -0.84375,3.70313 0,2.375 0.82812,3.71875 0.84375,1.34375 2.34375,1.34375 z m 17.80829,1.15625 v -10.25 l -4.23437,10.25 h -0.64063 l -4.21878,-10.25 v 10.25 h -1.54687 v -12.4375 h 2.21875 l 3.8594,9.35937 3.89063,-9.35937 h 2.21875 v 12.4375 z m 13.18744,0.21875 q -1.98437,0 -3.25,-1.34375 -1.25,-1.34375 -1.25,-3.39063 0,-2.03125 1.25,-3.375 1.26563,-1.34375 3.25,-1.34375 2.09375,0 3.29688,1.5625 l -0.92188,0.85938 q -0.85937,-1.17188 -2.29687,-1.17188 -1.39063,0 -2.26563,0.96875 -0.85937,0.95313 -0.85937,2.5 0,1.5625 0.85937,2.53125 0.85938,0.95313 2.26563,0.95313 1.40625,0 2.29687,-1.17188 l 0.92188,0.85938 q -1.20313,1.5625 -3.29688,1.5625 z m 10.89112,-0.21875 v -1.03125 q -1.14063,1.25 -2.98438,1.25 -1.35937,0 -2.26562,-0.85938 -0.89063,-0.85937 -0.89063,-2.125 0,-1.29687 0.89063,-2.125 0.89062,-0.84375 2.26562,-0.84375 1.9375,0 2.98438,1.23438 v -1.625 q 0,-0.90625 -0.64063,-1.39063 -0.64062,-0.5 -1.64062,-0.5 -1.57813,0 -2.75,1.25 l -0.65625,-0.98437 q 1.4375,-1.48438 3.59375,-1.48438 1.67187,0 2.57812,0.8125 0.92188,0.79688 0.92188,2.23438 v 6.1875 z m -2.48438,-0.78125 q 1.67188,0 2.48438,-1.125 v -1.6875 q -0.8125,-1.125 -2.48438,-1.125 -0.98437,0 -1.60937,0.54687 -0.60938,0.54688 -0.60938,1.42188 0,0.85937 0.60938,1.42187 0.625,0.54688 1.60937,0.54688 z m 6.69122,0.78125 v -12.4375 h 1.39063 v 12.4375 z m 4.19764,0 v -12.4375 h 1.39062 v 12.4375 z m 7.04144,0.21875 q -2.29688,0 -3.64063,-1.40625 l 0.73438,-1.01563 q 0.45312,0.53125 1.23437,0.90625 0.79688,0.375 1.73438,0.375 1.04687,0 1.57812,-0.4375 0.54688,-0.4375 0.54688,-1.10937 0,-0.59375 -0.59375,-0.9375 -0.57813,-0.34375 -2.1875,-0.71875 -1.35938,-0.28125 -2.07813,-0.875 -0.71875,-0.60938 -0.71875,-1.64063 0,-1.14062 0.90625,-1.85937 0.92188,-0.73438 2.45313,-0.73438 2.03125,0 3.34375,1.3125 l -0.65625,0.96875 q -0.40625,-0.48437 -1.10938,-0.8125 -0.70312,-0.32812 -1.57812,-0.32812 -0.9375,0 -1.46875,0.40625 -0.53125,0.40625 -0.53125,1.01562 0,0.53125 0.59375,0.85938 0.60937,0.3125 2.20312,0.64062 1.35938,0.32813 2.0625,0.96875 0.71875,0.64063 0.71875,1.70313 0,1.25 -0.96875,1.98437 -0.96875,0.73438 -2.57812,0.73438 z m 4.42517,0.15625 4.42187,-13.1875 h 1.09375 l -4.42187,13.1875 z m 9.77222,-0.15625 q -2.29688,0 -3.64063,-1.40625 l 0.73438,-1.01563 q 0.45312,0.53125 1.23437,0.90625 0.79688,0.375 1.73438,0.375 1.04687,0 1.57812,-0.4375 0.54688,-0.4375 0.54688,-1.10937 0,-0.59375 -0.59375,-0.9375 -0.57813,-0.34375 -2.1875,-0.71875 -1.35938,-0.28125 -2.07813,-0.875 -0.71875,-0.60938 -0.71875,-1.64063 0,-1.14062 0.90625,-1.85937 0.92188,-0.73438 2.45313,-0.73438 2.03125,0 3.34375,1.3125 l -0.65625,0.96875 q -0.40625,-0.48437 -1.10938,-0.8125 -0.70312,-0.32812 -1.57812,-0.32812 -0.9375,0 -1.46875,0.40625 -0.53125,0.40625 -0.53125,1.01562 0,0.53125 0.59375,0.85938 0.60937,0.3125 2.20312,0.64062 1.35938,0.32813 2.0625,0.96875 0.71875,0.64063 0.71875,1.70313 0,1.25 -0.96875,1.98437 -0.96875,0.73438 -2.57812,0.73438 z m 9.89392,0 q -2.03125,0 -3.3125,-1.3125 -1.28125,-1.32813 -1.28125,-3.42188 0,-2 1.26562,-3.35937 1.28125,-1.35938 3.17188,-1.35938 1.9375,0 3.125,1.34375 1.20312,1.34375 1.20312,3.48438 v 0.35937 h -7.29687 q 0.0781,1.375 1,2.25 0.92187,0.85938 2.25,0.85938 1.64062,0 2.78125,-1.14063 l 0.67187,0.92188 q -1.375,1.375 -3.57812,1.375 z m 2.79687,-5.29688 q 0,-1.25 -0.82812,-2.125 -0.8125,-0.875 -2.14063,-0.875 -1.25,0 -2.07812,0.875 -0.82813,0.875 -0.875,2.125 z m 7.61286,5.29688 q -1.98438,0 -3.25,-1.34375 -1.25,-1.34375 -1.25,-3.39063 0,-2.03125 1.25,-3.375 1.26562,-1.34375 3.25,-1.34375 2.09375,0 3.29687,1.5625 l -0.92187,0.85938 q -0.85938,-1.17188 -2.29688,-1.17188 -1.39062,0 -2.26562,0.96875 -0.85938,0.95313 -0.85938,2.5 0,1.5625 0.85938,2.53125 0.85937,0.95313 2.26562,0.95313 1.40625,0 2.29688,-1.17188 l 0.92187,0.85938 q -1.20312,1.5625 -3.29687,1.5625 z"
       fill-rule="nonzero"
       id="path111" />
    <path
       fill="#f4cccc"
       d="m 616.25195,324.05792 v 0 c 0,-5.17795 4.19757,-9.37552 9.37555,-9.37552 h 102.91821 c 2.48657,0 4.87128,0.98779 6.62952,2.74603 1.75824,1.75824 2.74603,4.14295 2.74603,6.62949 v 37.50095 c 0,5.17794 -4.19757,9.37551 -9.37555,9.37551 H 625.6275 c -5.17798,0 -9.37555,-4.19757 -9.37555,-9.37551 z"
       fill-rule="evenodd"
       id="path113" />
    <path
       stroke="#595959"
       stroke-width="2"
       stroke-linejoin="round"
       stroke-linecap="butt"
       d="m 616.25195,324.05792 v 0 c 0,-5.17795 4.19757,-9.37552 9.37555,-9.37552 h 102.91821 c 2.48657,0 4.87128,0.98779 6.62952,2.74603 1.75824,1.75824 2.74603,4.14295 2.74603,6.62949 v 37.50095 c 0,5.17794 -4.19757,9.37551 -9.37555,9.37551 H 625.6275 c -5.17798,0 -9.37555,-4.19757 -9.37555,-9.37551 z"
       fill-rule="evenodd"
       id="path115" />
    <path
       fill="#000000"
       d="m 645.8791,338.7284 -5,-12.4375 h 1.76562 l 4.20313,10.73438 4.1875,-10.73438 h 1.78125 l -5.01563,12.4375 z m 11.4527,0.21875 q -2.03125,0 -3.3125,-1.3125 -1.28125,-1.32812 -1.28125,-3.42187 0,-2 1.26562,-3.35938 1.28125,-1.35937 3.17188,-1.35937 1.9375,0 3.125,1.34375 1.20312,1.34375 1.20312,3.48437 v 0.35938 h -7.29687 q 0.0781,1.375 1,2.25 0.92187,0.85937 2.25,0.85937 1.64062,0 2.78125,-1.14062 l 0.67187,0.92187 q -1.375,1.375 -3.57812,1.375 z m 2.79687,-5.29687 q 0,-1.25 -0.82812,-2.125 -0.8125,-0.875 -2.14063,-0.875 -1.25,0 -2.07812,0.875 -0.82813,0.875 -0.875,2.125 z m 3.64411,5.07812 v -9.01562 h 1.39062 v 1.45312 q 1.25,-1.64062 3,-1.64062 v 1.4375 l -0.54687,-0.0469 q -0.64063,0 -1.40625,0.45313 -0.76563,0.45312 -1.04688,0.98437 v 6.375 z m 6.84405,-10.29687 q -0.375,0 -0.65625,-0.26563 -0.28125,-0.28125 -0.28125,-0.67187 0,-0.39063 0.28125,-0.67188 0.28125,-0.28125 0.65625,-0.28125 0.39063,0 0.67188,0.28125 0.28125,0.28125 0.28125,0.67188 0,0.39062 -0.28125,0.67187 -0.28125,0.26563 -0.67188,0.26563 z m -0.6875,10.29687 v -9.01562 h 1.39063 v 9.01562 z m 4.19769,0 v -12.4375 h 1.39063 v 12.4375 z m 9.82264,0 v -1.03125 q -1.14063,1.25 -2.98438,1.25 -1.35937,0 -2.26562,-0.85937 -0.89063,-0.85938 -0.89063,-2.125 0,-1.29688 0.89063,-2.125 0.89062,-0.84375 2.26562,-0.84375 1.9375,0 2.98438,1.23437 v -1.625 q 0,-0.90625 -0.64063,-1.39062 -0.64062,-0.5 -1.64062,-0.5 -1.57813,0 -2.75,1.25 l -0.65625,-0.98438 q 1.4375,-1.48437 3.59375,-1.48437 1.67187,0 2.57812,0.8125 0.92188,0.79687 0.92188,2.23437 v 6.1875 z m -2.48438,-0.78125 q 1.67188,0 2.48438,-1.125 v -1.6875 q -0.8125,-1.125 -2.48438,-1.125 -0.98437,0 -1.60937,0.54688 -0.60938,0.54687 -0.60938,1.42187 0,0.85938 0.60938,1.42188 0.625,0.54687 1.60937,0.54687 z m 8.95685,1 q -2,0 -2,-2.10937 v -5.89063 h -1.48437 v -1.23437 h 1.48437 v -2.45313 h 1.40625 v 2.45313 h 1.82813 v 1.23437 h -1.82813 v 5.59375 q 0,0.51563 0.21875,0.84375 0.23438,0.3125 0.70313,0.3125 0.57812,0 0.9375,-0.375 l 0.42187,1.04688 q -0.57812,0.57812 -1.6875,0.57812 z m 7.2818,0 q -2.03125,0 -3.3125,-1.3125 -1.28125,-1.32812 -1.28125,-3.42187 0,-2 1.26562,-3.35938 1.28125,-1.35937 3.17188,-1.35937 1.9375,0 3.125,1.34375 1.20312,1.34375 1.20312,3.48437 v 0.35938 h -7.29687 q 0.0781,1.375 1,2.25 0.92187,0.85937 2.25,0.85937 1.64062,0 2.78125,-1.14062 l 0.67187,0.92187 q -1.375,1.375 -3.57812,1.375 z m 2.79687,-5.29687 q 0,-1.25 -0.82812,-2.125 -0.8125,-0.875 -2.14063,-0.875 -1.25,0 -2.07812,0.875 -0.82813,0.875 -0.875,2.125 z m 10.15973,5.07812 v -1.34375 q -0.5,0.6875 -1.29687,1.125 -0.78125,0.4375 -1.73438,0.4375 -1.8125,0 -2.92187,-1.28125 -1.09375,-1.28125 -1.09375,-3.4375 0,-2.15625 1.10937,-3.4375 1.10938,-1.29687 2.90625,-1.29687 0.90625,0 1.70313,0.42187 0.79687,0.42188 1.32812,1.15625 v -4.78125 h 1.40625 v 12.4375 z m -2.70312,-1.03125 q 0.84375,0 1.59375,-0.40625 0.75,-0.40625 1.10937,-1 v -4.09375 q -0.35937,-0.59375 -1.10937,-1.01562 -0.75,-0.4375 -1.59375,-0.4375 -1.29688,0 -2.09375,0.95312 -0.79688,0.95313 -0.79688,2.53125 0,1.54688 0.78125,2.51563 0.79688,0.95312 2.10938,0.95312 z"
       fill-rule="nonzero"
       id="path117" />
    <path
       fill="#000000"
       d="m 667.4085,360.9159 q -0.42188,0 -0.71875,-0.29687 -0.29688,-0.29688 -0.29688,-0.73438 0,-0.42187 0.29688,-0.71875 0.29687,-0.29687 0.71875,-0.29687 0.4375,0 0.73437,0.29687 0.29688,0.29688 0.29688,0.71875 0,0.4375 -0.29688,0.73438 -0.29687,0.29687 -0.73437,0.29687 z m 6.40033,0.0312 q -2.29688,0 -3.64063,-1.40625 l 0.73438,-1.01562 q 0.45312,0.53125 1.23437,0.90625 0.79688,0.375 1.73438,0.375 1.04687,0 1.57812,-0.4375 0.54688,-0.4375 0.54688,-1.10938 0,-0.59375 -0.59375,-0.9375 -0.57813,-0.34375 -2.1875,-0.71875 -1.35938,-0.28125 -2.07813,-0.875 -0.71875,-0.60937 -0.71875,-1.64062 0,-1.14063 0.90625,-1.85938 0.92188,-0.73437 2.45313,-0.73437 2.03125,0 3.34375,1.3125 l -0.65625,0.96875 q -0.40625,-0.48438 -1.10938,-0.8125 -0.70312,-0.32813 -1.57812,-0.32813 -0.9375,0 -1.46875,0.40625 -0.53125,0.40625 -0.53125,1.01563 0,0.53125 0.59375,0.85937 0.60937,0.3125 2.20312,0.64063 1.35938,0.32812 2.0625,0.96875 0.71875,0.64062 0.71875,1.70312 0,1.25 -0.96875,1.98438 -0.96875,0.73437 -2.57812,0.73437 z m 9.75323,0 q -1.95312,0 -3.20312,-1.32812 -1.25,-1.32813 -1.25,-3.40625 0,-2.09375 1.25,-3.40625 1.25,-1.3125 3.20312,-1.3125 1.96875,0 3.21875,1.3125 1.25,1.3125 1.25,3.40625 0,2.07812 -1.25,3.40625 -1.25,1.32812 -3.21875,1.32812 z m 0,-1.25 q 1.3125,0 2.15625,-0.96875 0.84375,-0.98437 0.84375,-2.51562 0,-1.51563 -0.84375,-2.48438 -0.84375,-0.98437 -2.15625,-0.98437 -1.29687,0 -2.15625,0.96875 -0.84375,0.96875 -0.84375,2.5 0,1.54687 0.84375,2.51562 0.84375,0.96875 2.15625,0.96875 z"
       fill-rule="nonzero"
       id="path119" />
    <path
       fill="#000000"
       fill-opacity="0"
       d="m 616.25195,342.8084 h -20.8504"
       fill-rule="evenodd"
       id="path121" />
    <path
       stroke="#595959"
       stroke-width="1"
       stroke-linejoin="round"
       stroke-linecap="butt"
       d="M 612.8249,342.8084 H 598.82868"
       fill-rule="evenodd"
       id="path123" />
    <path
       fill="#595959"
       stroke="#595959"
       stroke-width="1"
       stroke-linecap="butt"
       d="m 612.8249,342.8084 -1.12457,1.12457 3.08972,-1.12457 -3.08972,-1.1246 z"
       fill-rule="evenodd"
       id="path125" />
    <path
       fill="#595959"
       stroke="#595959"
       stroke-width="1"
       stroke-linecap="butt"
       d="m 598.8287,342.8084 1.12457,-1.1246 -3.08978,1.1246 3.08978,1.12457 z"
       fill-rule="evenodd"
       id="path127" />
    <path
       fill="#000000"
       fill-opacity="0"
       d="m 398.04593,220.28215 h 163.90549 v 51.71654 H 398.04593 Z"
       fill-rule="evenodd"
       id="path129" />
    <path
       fill="#000000"
       fill-opacity="0"
       d="m 460.1532,230.35849 h 39.69101 v 32.46719 H 460.1532 Z"
       fill-rule="nonzero"
       id="path131" />
    <path
       fill="#000000"
       d="m 465.0907,255.19466 q -2.98437,0 -4.78125,-1.71875 l 1.65625,-2.90625 q 1.35938,1.28125 2.82813,1.28125 1.28125,0 2.01562,-0.76563 0.75,-0.78125 0.75,-2.09375 v -11.89062 h 3.79688 v 11.9375 q 0,2.9375 -1.65625,4.54687 -1.65625,1.60938 -4.60938,1.60938 z m 22.03302,-0.3125 -8.46875,-11.59375 v 11.59375 h -3.78125 v -17.78125 h 3.89063 l 8.23437,11.17187 v -11.17187 h 3.78125 v 17.78125 z m 7.18231,0 v -17.78125 h 3.78125 v 17.78125 z"
       fill-rule="nonzero"
       id="path133" />
    <path
       fill="#010000"
       fill-opacity="0"
       d="m 499.8442,230.35849 v 0 32.46719 0 z"
       fill-rule="nonzero"
       id="path135" />
    <path
       fill="#000000"
       d="m 460.1532,256.61548 h 39.69101 v 2.39999 H 460.1532 Z"
       fill-rule="nonzero"
       id="path137" />
  </g>
</svg>
