<svg version="1.1" viewBox="0.0 0.0 264.56692913385825 166.29921259842519" fill="none" stroke="none" stroke-linecap="square" stroke-miterlimit="10" xmlns:xlink="http://www.w3.org/1999/xlink" xmlns="http://www.w3.org/2000/svg"><clipPath id="p.0"><path d="m0 0l264.56693 0l0 166.29921l-264.56693 0l0 -166.29921z" clip-rule="nonzero"/></clipPath><g clip-path="url(#p.0)"><path fill="#ffffff" d="m0 0l264.56693 0l0 166.29921l-264.56693 0z" fill-rule="evenodd"/><path fill="#ffffff" d="m185.32283 0l75.464584 0l0 17.82677l-75.464584 0z" fill-rule="evenodd"/><path fill="#000000" fill-opacity="0.0" d="m201.72108 2.9495373l42.668076 0l0 12.979443l-42.668076 0l0 -12.979443z" fill-rule="nonzero"/><path fill="#000000" d="m204.31483 12.753386l0 -6.3125l-2.25 0l0 -0.796875l5.390625 0l0 0.796875l-2.265625 0l0 6.3125l-0.875 0zm7.761627 0l0 -3.390625q0 -0.578125 -0.28125 -0.875q-0.265625 -0.296875 -0.875 -0.296875q-0.4375 0 -0.859375 0.234375q-0.40625 0.21875 -0.671875 0.5625l0 3.765625l-0.796875 0l0 -7.109375l0.796875 0l0 2.703125q0.34375 -0.390625 0.828125 -0.625q0.5 -0.25 1.015625 -0.25q1.640625 0 1.640625 1.640625l0 3.640625l-0.796875 0zm2.397934 0l0 -5.140625l0.796875 0l0 0.828125q0.71875 -0.9375 1.71875 -0.9375l0 0.8125l-0.3125 -0.03125q-0.375 0 -0.8125 0.265625q-0.421875 0.265625 -0.59375 0.5625l0 3.640625l-0.796875 0zm5.8447266 0.125q-1.171875 0 -1.90625 -0.75q-0.71875 -0.765625 -0.71875 -1.953125q0 -1.140625 0.71875 -1.921875q0.734375 -0.78125 1.8125 -0.78125q1.109375 0 1.796875 0.78125q0.6875 0.765625 0.6875 1.984375l0 0.203125l-4.171875 0q0.046875 0.78125 0.5625 1.28125q0.53125 0.5 1.296875 0.5q0.9375 0 1.578125 -0.65625l0.390625 0.53125q-0.796875 0.78125 -2.046875 0.78125zm1.59375 -3.03125q0 -0.703125 -0.46875 -1.203125q-0.46875 -0.5 -1.21875 -0.5q-0.71875 0 -1.203125 0.5q-0.46875 0.5 -0.484375 1.203125l3.375 0zm5.296402 2.90625l0 -0.59375q-0.640625 0.71875 -1.703125 0.71875q-0.78125 0 -1.296875 -0.484375q-0.5 -0.5 -0.5 -1.21875q0 -0.75 0.5 -1.21875q0.515625 -0.46875 1.296875 -0.46875q1.109375 0 1.703125 0.703125l0 -0.9375q0 -0.515625 -0.375 -0.796875q-0.359375 -0.28125 -0.921875 -0.28125q-0.90625 0 -1.578125 0.703125l-0.375 -0.546875q0.828125 -0.859375 2.0625 -0.859375q0.9375 0 1.453125 0.46875q0.53125 0.453125 0.53125 1.28125l0 3.53125l-0.796875 0zm-1.421875 -0.453125q0.953125 0 1.421875 -0.640625l0 -0.96875q-0.46875 -0.640625 -1.421875 -0.640625q-0.5625 0 -0.921875 0.328125q-0.34375 0.3125 -0.34375 0.8125q0 0.484375 0.34375 0.796875q0.359375 0.3125 0.921875 0.3125zm7.553406 0.453125l0 -0.765625q-0.296875 0.390625 -0.75 0.640625q-0.453125 0.25 -0.984375 0.25q-1.03125 0 -1.671875 -0.734375q-0.625 -0.734375 -0.625 -1.953125q0 -1.234375 0.625 -1.96875q0.640625 -0.75 1.671875 -0.75q0.515625 0 0.96875 0.25q0.453125 0.234375 0.765625 0.65625l0 -2.734375l0.796875 0l0 7.109375l-0.796875 0zm-1.546875 -0.59375q0.484375 0 0.90625 -0.234375q0.421875 -0.234375 0.640625 -0.5625l0 -2.34375q-0.21875 -0.34375 -0.640625 -0.578125q-0.421875 -0.25 -0.90625 -0.25q-0.75 0 -1.203125 0.546875q-0.453125 0.546875 -0.453125 1.453125q0 0.875 0.453125 1.421875q0.453125 0.546875 1.203125 0.546875zm6.7205048 0.59375l0 -7.109375l3.171875 0q0.90625 0 1.4375 0.5q0.546875 0.5 0.546875 1.3125q0 0.625 -0.34375 1.0625q-0.34375 0.4375 -0.90625 0.5625q0.578125 0.09375 0.984375 0.609375q0.40625 0.5 0.40625 1.140625q0 0.875 -0.546875 1.40625q-0.546875 0.515625 -1.5 0.515625l-3.25 0zm3.015625 -4.03125q0.609375 0 0.921875 -0.3125q0.3125 -0.328125 0.3125 -0.828125q0 -0.46875 -0.3125 -0.796875q-0.3125 -0.34375 -0.921875 -0.34375l-2.125 0l0 2.28125l2.125 0zm0.046875 3.25q0.625 0 0.96875 -0.328125q0.359375 -0.328125 0.359375 -0.90625q0 -0.546875 -0.375 -0.875q-0.359375 -0.34375 -0.953125 -0.34375l-2.171875 0l0 2.453125l2.171875 0z" fill-rule="nonzero"/><path fill="#000000" fill-opacity="0.0" d="m244.38916 2.9495373l0 0l0 12.979443l0 0l0 -12.979443z" fill-rule="nonzero"/><path fill="#000000" d="m201.72108 13.426719l42.668076 0l0 1.0l-42.668076 0l0 -1.0z" fill-rule="nonzero"/><path fill="#000000" fill-opacity="0.0" d="m38.779526 11.370079l0 154.92914" fill-rule="evenodd"/><path stroke="#999999" stroke-width="1.0" stroke-linejoin="round" stroke-linecap="butt" d="m38.779526 11.370079l0 148.92914" fill-rule="evenodd"/><path fill="#999999" stroke="#999999" stroke-width="1.0" stroke-linecap="butt" d="m37.127796 160.29921l1.6517296 4.538101l1.6517334 -4.538101z" fill-rule="evenodd"/><path fill="#ffffff" d="m5.125984 0l67.30708 0l0 17.82677l-67.30708 0z" fill-rule="evenodd"/><path fill="#000000" fill-opacity="0.0" d="m15.122408 2.9495373l47.31424 0l0 12.979443l-47.31424 0l0 -12.979443z" fill-rule="nonzero"/><path fill="#000000" d="m18.263033 12.878386q-1.71875 0 -2.734375 -1.125l0.515625 -0.671875q0.4375 0.484375 1.015625 0.75q0.59375 0.265625 1.234375 0.265625q0.765625 0 1.21875 -0.34375q0.453125 -0.34375 0.453125 -0.890625q0 -0.84375 -1.328125 -1.203125q-1.5625 -0.40625 -2.0 -0.65625q-0.421875 -0.25 -0.65625 -0.609375q-0.234375 -0.375 -0.234375 -0.890625q0 -0.84375 0.6875 -1.40625q0.6875 -0.5625 1.75 -0.5625q1.609375 0 2.53125 1.0l-0.53125 0.640625q-0.765625 -0.84375 -2.0625 -0.84375q-0.640625 0 -1.046875 0.3125q-0.40625 0.296875 -0.40625 0.8125q0 0.375 0.34375 0.640625q0.34375 0.25 0.984375 0.421875q1.515625 0.40625 1.953125 0.671875q0.453125 0.265625 0.6875 0.65625q0.234375 0.390625 0.234375 0.953125q0 0.96875 -0.71875 1.53125q-0.703125 0.546875 -1.890625 0.546875zm6.166504 0q-1.125 0 -1.84375 -0.765625q-0.71875 -0.765625 -0.71875 -1.9375q0 -1.15625 0.71875 -1.921875q0.71875 -0.78125 1.84375 -0.78125q1.203125 0 1.890625 0.90625l-0.53125 0.484375q-0.484375 -0.671875 -1.3125 -0.671875q-0.78125 0 -1.28125 0.546875q-0.5 0.546875 -0.5 1.4375q0 0.890625 0.484375 1.4375q0.5 0.546875 1.296875 0.546875q0.8125 0 1.3125 -0.65625l0.53125 0.484375q-0.6875 0.890625 -1.890625 0.890625zm6.4936523 -0.125l0 -3.390625q0 -0.578125 -0.28125 -0.875q-0.265625 -0.296875 -0.875 -0.296875q-0.4375 0 -0.859375 0.234375q-0.40625 0.21875 -0.671875 0.5625l0 3.765625l-0.796875 0l0 -7.109375l0.796875 0l0 2.703125q0.34375 -0.390625 0.828125 -0.625q0.5 -0.25 1.015625 -0.25q1.640625 0 1.640625 1.640625l0 3.640625l-0.796875 0zm4.726061 0.125q-1.171875 0 -1.90625 -0.75q-0.71875 -0.765625 -0.71875 -1.953125q0 -1.140625 0.71875 -1.921875q0.734375 -0.78125 1.8125 -0.78125q1.109375 0 1.7968712 0.78125q0.6875 0.765625 0.6875 1.984375l0 0.203125l-4.171871 0q0.046875 0.78125 0.5625 1.28125q0.53125 0.5 1.296875 0.5q0.9375 0 1.5781212 -0.65625l0.390625 0.53125q-0.7968712 0.78125 -2.0468712 0.78125zm1.5937462 -3.03125q0 -0.703125 -0.4687462 -1.203125q-0.46875 -0.5 -1.21875 -0.5q-0.71875 0 -1.203125 0.5q-0.46875 0.5 -0.484375 1.203125l3.3749962 0zm5.812027 2.90625l0 -0.765625q-0.296875 0.390625 -0.75 0.640625q-0.453125 0.25 -0.984375 0.25q-1.03125 0 -1.671875 -0.734375q-0.625 -0.734375 -0.625 -1.953125q0 -1.234375 0.625 -1.96875q0.640625 -0.75 1.671875 -0.75q0.515625 0 0.96875 0.25q0.453125 0.234375 0.765625 0.65625l0 -2.734375l0.796875 0l0 7.109375l-0.796875 0zm-1.546875 -0.59375q0.484375 0 0.90625 -0.234375q0.421875 -0.234375 0.640625 -0.5625l0 -2.34375q-0.21875 -0.34375 -0.640625 -0.578125q-0.421875 -0.25 -0.90625 -0.25q-0.75 0 -1.203125 0.546875q-0.453125 0.546875 -0.453125 1.453125q0 0.875 0.453125 1.421875q0.453125 0.546875 1.203125 0.546875zm7.408661 0.59375l0 -0.71875q-0.296875 0.328125 -0.78125 0.59375q-0.46875 0.25 -1.046875 0.25q-1.640625 0 -1.640625 -1.640625l0 -3.625l0.796875 0l0 3.375q0 0.609375 0.28125 0.890625q0.28125 0.28125 0.875 0.28125q0.46875 0 0.875 -0.234375q0.421875 -0.234375 0.640625 -0.53125l0 -3.78125l0.8125 0l0 5.140625l-0.8125 0zm2.4029083 0l0 -7.109375l0.796875 0l0 7.109375l-0.796875 0zm4.7257996 0.125q-1.171875 0 -1.90625 -0.75q-0.71875 -0.765625 -0.71875 -1.953125q0 -1.140625 0.71875 -1.921875q0.734375 -0.78125 1.8125 -0.78125q1.109375 0 1.796875 0.78125q0.6875 0.765625 0.6875 1.984375l0 0.203125l-4.171875 0q0.046875 0.78125 0.5625 1.28125q0.53125 0.5 1.296875 0.5q0.9375 0 1.578125 -0.65625l0.390625 0.53125q-0.796875 0.78125 -2.046875 0.78125zm1.59375 -3.03125q0 -0.703125 -0.46875 -1.203125q-0.46875 -0.5 -1.21875 -0.5q-0.71875 0 -1.203125 0.5q-0.46875 0.5 -0.484375 1.203125l3.375 0zm2.077652 2.90625l0 -5.140625l0.796875 0l0 0.828125q0.71875 -0.9375 1.71875 -0.9375l0 0.8125l-0.3125 -0.03125q-0.375 0 -0.8125 0.265625q-0.421875 0.265625 -0.59375 0.5625l0 3.640625l-0.796875 0z" fill-rule="nonzero"/><path fill="#000000" fill-opacity="0.0" d="m62.436646 2.9495373l0 0l0 12.979443l0 0l0 -12.979443z" fill-rule="nonzero"/><path fill="#000000" d="m15.122408 13.426719l47.31424 0l0 1.0l-47.31424 0l0 -1.0z" fill-rule="nonzero"/><path fill="#ffffff" d="m124.59055 0l72.88189 0l0 17.82677l-72.88189 0z" fill-rule="evenodd"/><path fill="#000000" fill-opacity="0.0" d="m136.71368 2.9495373l48.63562 0l0 12.979443l-48.63562 0l0 -12.979443z" fill-rule="nonzero"/><path fill="#000000" d="m139.85431 12.878386q-1.71875 0 -2.734375 -1.125l0.515625 -0.671875q0.4375 0.484375 1.015625 0.75q0.59375 0.265625 1.234375 0.265625q0.765625 0 1.21875 -0.34375q0.453125 -0.34375 0.453125 -0.890625q0 -0.84375 -1.328125 -1.203125q-1.5625 -0.40625 -2.0 -0.65625q-0.421875 -0.25 -0.65625 -0.609375q-0.234375 -0.375 -0.234375 -0.890625q0 -0.84375 0.6875 -1.40625q0.6875 -0.5625 1.75 -0.5625q1.609375 0 2.53125 1.0l-0.53125 0.640625q-0.765625 -0.84375 -2.0625 -0.84375q-0.640625 0 -1.046875 0.3125q-0.40625 0.296875 -0.40625 0.8125q0 0.375 0.34375 0.640625q0.34375 0.25 0.984375 0.421875q1.515625 0.40625 1.953125 0.671875q0.453125 0.265625 0.6875 0.65625q0.234375 0.390625 0.234375 0.953125q0 0.96875 -0.71875 1.53125q-0.703125 0.546875 -1.890625 0.546875zm4.291504 -6.0q-0.203125 0 -0.375 -0.15625q-0.15625 -0.15625 -0.15625 -0.390625q0 -0.21875 0.15625 -0.375q0.171875 -0.15625 0.375 -0.15625q0.234375 0 0.390625 0.15625q0.15625 0.15625 0.15625 0.375q0 0.234375 -0.15625 0.390625q-0.15625 0.15625 -0.390625 0.15625zm-0.390625 5.875l0 -5.140625l0.796875 0l0 5.140625l-0.796875 0zm8.616425 0l0 -3.5q0 -1.0625 -0.953125 -1.0625q-0.40625 0 -0.78125 0.25q-0.375 0.234375 -0.578125 0.546875l0 3.765625l-0.796875 0l0 -3.5q0 -1.0625 -0.953125 -1.0625q-0.390625 0 -0.765625 0.25q-0.375 0.234375 -0.59375 0.546875l0 3.765625l-0.796875 0l0 -5.140625l0.796875 0l0 0.734375q0.1875 -0.296875 0.6875 -0.578125q0.5 -0.296875 0.984375 -0.296875q0.59375 0 0.921875 0.28125q0.34375 0.28125 0.453125 0.6875q0.265625 -0.421875 0.75 -0.6875q0.5 -0.28125 0.984375 -0.28125q1.4375 0 1.4375 1.5625l0 3.71875l-0.796875 0zm5.8603363 0l0 -0.71875q-0.296875 0.328125 -0.78125 0.59375q-0.46875 0.25 -1.046875 0.25q-1.640625 0 -1.640625 -1.640625l0 -3.625l0.796875 0l0 3.375q0 0.609375 0.28125 0.890625q0.28125 0.28125 0.875 0.28125q0.46875 0 0.875 -0.234375q0.421875 -0.234375 0.640625 -0.53125l0 -3.78125l0.8125 0l0 5.140625l-0.8125 0zm2.4029083 0l0 -7.109375l0.796875 0l0 7.109375l-0.796875 0zm5.6164246 0l0 -0.59375q-0.640625 0.71875 -1.703125 0.71875q-0.78125 0 -1.296875 -0.484375q-0.5 -0.5 -0.5 -1.21875q0 -0.75 0.5 -1.21875q0.515625 -0.46875 1.296875 -0.46875q1.109375 0 1.703125 0.703125l0 -0.9375q0 -0.515625 -0.375 -0.796875q-0.359375 -0.28125 -0.921875 -0.28125q-0.90625 0 -1.578125 0.703125l-0.375 -0.546875q0.828125 -0.859375 2.0625 -0.859375q0.9375 0 1.453125 0.46875q0.53125 0.453125 0.53125 1.28125l0 3.53125l-0.796875 0zm-1.421875 -0.453125q0.953125 0 1.421875 -0.640625l0 -0.96875q-0.46875 -0.640625 -1.421875 -0.640625q-0.5625 0 -0.921875 0.328125q-0.34375 0.3125 -0.34375 0.8125q0 0.484375 0.34375 0.796875q0.359375 0.3125 0.921875 0.3125zm5.115906 0.578125q-1.140625 0 -1.140625 -1.203125l0 -3.359375l-0.84375 0l0 -0.703125l0.84375 0l0 -1.40625l0.8125 0l0 1.40625l1.03125 0l0 0.703125l-1.03125 0l0 3.1875q0 0.296875 0.125 0.484375q0.125 0.171875 0.390625 0.171875q0.328125 0 0.546875 -0.203125l0.234375 0.59375q-0.328125 0.328125 -0.96875 0.328125zm2.226715 -6.0q-0.203125 0 -0.375 -0.15625q-0.15625 -0.15625 -0.15625 -0.390625q0 -0.21875 0.15625 -0.375q0.171875 -0.15625 0.375 -0.15625q0.234375 0 0.390625 0.15625q0.15625 0.15625 0.15625 0.375q0 0.234375 -0.15625 0.390625q-0.15625 0.15625 -0.390625 0.15625zm-0.390625 5.875l0 -5.140625l0.796875 0l0 5.140625l-0.796875 0zm4.6476746 0.125q-1.125 0 -1.84375 -0.75q-0.703125 -0.765625 -0.703125 -1.953125q0 -1.1875 0.703125 -1.9375q0.71875 -0.765625 1.84375 -0.765625q1.125 0 1.828125 0.765625q0.71875 0.75 0.71875 1.9375q0 1.1875 -0.71875 1.953125q-0.703125 0.75 -1.828125 0.75zm0 -0.71875q0.75 0 1.21875 -0.546875q0.484375 -0.5625 0.484375 -1.4375q0 -0.859375 -0.484375 -1.421875q-0.46875 -0.5625 -1.21875 -0.5625q-0.75 0 -1.234375 0.5625q-0.484375 0.546875 -0.484375 1.421875q0 0.890625 0.484375 1.4375q0.484375 0.546875 1.234375 0.546875zm7.3141937 0.59375l0 -3.375q0 -0.671875 -0.3125 -0.921875q-0.3125 -0.265625 -0.828125 -0.265625q-0.453125 0 -0.890625 0.25q-0.421875 0.234375 -0.640625 0.546875l0 3.765625l-0.796875 0l0 -5.140625l0.796875 0l0 0.734375q0.328125 -0.375 0.8125 -0.625q0.5 -0.25 1.03125 -0.25q1.640625 0 1.640625 1.671875l0 3.609375l-0.8125 0z" fill-rule="nonzero"/><path fill="#000000" fill-opacity="0.0" d="m185.3493 2.9495373l0 0l0 12.979443l0 0l0 -12.979443z" fill-rule="nonzero"/><path fill="#000000" d="m136.71368 13.426719l48.63562 0l0 1.0l-48.63562 0l0 -1.0z" fill-rule="nonzero"/><path fill="#000000" fill-opacity="0.0" d="m100.727036 17.82677l0 155.2126" fill-rule="evenodd"/><path stroke="#999999" stroke-width="1.0" stroke-linejoin="round" stroke-linecap="butt" d="m100.727036 17.82677l0 149.2126" fill-rule="evenodd"/><path fill="#999999" stroke="#999999" stroke-width="1.0" stroke-linecap="butt" d="m99.0753 167.03937l1.6517334 4.538101l1.6517334 -4.538101z" fill-rule="evenodd"/><path fill="#000000" fill-opacity="0.0" d="m161.0315 17.82677l0 149.32285" fill-rule="evenodd"/><path stroke="#999999" stroke-width="1.0" stroke-linejoin="round" stroke-linecap="butt" d="m161.0315 17.82677l0 143.32285" fill-rule="evenodd"/><path fill="#999999" stroke="#999999" stroke-width="1.0" stroke-linecap="butt" d="m159.37976 161.14961l1.6517334 4.538086l1.6517334 -4.538086z" fill-rule="evenodd"/><path fill="#000000" fill-opacity="0.0" d="m223.05511 17.82677l0 147.93701" fill-rule="evenodd"/><path stroke="#999999" stroke-width="1.0" stroke-linejoin="round" stroke-linecap="butt" d="m223.05511 17.82677l0 141.93701" fill-rule="evenodd"/><path fill="#999999" stroke="#999999" stroke-width="1.0" stroke-linecap="butt" d="m221.40338 159.76378l1.6517334 4.538101l1.6517334 -4.538101z" fill-rule="evenodd"/><path fill="#000000" fill-opacity="0.0" d="m101.220474 26.976377l59.81102 0" fill-rule="evenodd"/><path stroke="#595959" stroke-width="1.0" stroke-linejoin="round" stroke-linecap="butt" d="m101.220474 26.976377l53.81102 0" fill-rule="evenodd"/><path fill="#595959" stroke="#595959" stroke-width="1.0" stroke-linecap="butt" d="m155.0315 28.62811l4.538101 -1.6517334l-4.538101 -1.6517315z" fill-rule="evenodd"/><path fill="#000000" fill-opacity="0.0" d="m160.66142 33.658794l-54.173233 0" fill-rule="evenodd"/><path stroke="#595959" stroke-width="1.0" stroke-linejoin="round" stroke-linecap="butt" d="m160.66142 33.658794l-48.173233 0" fill-rule="evenodd"/><path fill="#595959" stroke="#595959" stroke-width="1.0" stroke-linecap="butt" d="m112.48819 32.00706l-4.538101 1.6517334l4.538101 1.6517296z" fill-rule="evenodd"/><path fill="#000000" fill-opacity="0.0" d="m101.25853 50.062992l59.81102 0" fill-rule="evenodd"/><path stroke="#595959" stroke-width="1.0" stroke-linejoin="round" stroke-linecap="butt" d="m101.25853 50.062992l53.81102 0" fill-rule="evenodd"/><path fill="#595959" stroke="#595959" stroke-width="1.0" stroke-linecap="butt" d="m155.06955 51.714725l4.538101 -1.6517334l-4.538101 -1.6517334z" fill-rule="evenodd"/><path fill="#000000" fill-opacity="0.0" d="m100.76509 28.283464l51.496063 0l0 30.708662l-51.496063 0z" fill-rule="evenodd"/><path fill="#000000" d="m112.686966 47.10717q-0.96875 0 -1.515625 -0.796875l0 2.40625l-0.703125 0l0 -6.21875l0.703125 0l0 0.671875q0.234375 -0.34375 0.625 -0.5625q0.40625 -0.234375 0.890625 -0.234375q0.90625 0 1.453125 0.640625q0.546875 0.640625 0.546875 1.734375q0 1.078125 -0.546875 1.71875q-0.546875 0.640625 -1.453125 0.640625zm-0.171875 -0.625q0.640625 0 1.03125 -0.46875q0.40625 -0.484375 0.40625 -1.265625q0 -0.78125 -0.390625 -1.265625q-0.390625 -0.484375 -1.046875 -0.484375q-0.421875 0 -0.796875 0.21875q-0.375 0.203125 -0.546875 0.5l0 2.046875q0.171875 0.296875 0.546875 0.515625q0.375 0.203125 0.796875 0.203125zm5.2575684 0.625q-0.984375 0 -1.609375 -0.65625q-0.625 -0.671875 -0.625 -1.703125q0 -1.046875 0.625 -1.703125q0.625 -0.671875 1.609375 -0.671875q0.96875 0 1.59375 0.671875q0.625 0.65625 0.625 1.703125q0 1.03125 -0.625 1.703125q-0.625 0.65625 -1.59375 0.65625zm0 -0.625q0.65625 0 1.0625 -0.484375q0.421875 -0.5 0.421875 -1.25q0 -0.765625 -0.421875 -1.25q-0.40625 -0.5 -1.0625 -0.5q-0.65625 0 -1.078125 0.5q-0.421875 0.484375 -0.421875 1.25q0 0.765625 0.40625 1.25q0.421875 0.484375 1.09375 0.484375zm6.4294434 0.515625l-1.625 -2.03125l-0.734375 0.75l0 1.28125l-0.703125 0l0 -6.21875l0.703125 0l0 4.109375l2.359375 -2.390625l0.890625 0l-2.0 2.03125l2.015625 2.46875l-0.90625 0zm3.7353973 0.109375q-1.015625 0 -1.65625 -0.65625q-0.640625 -0.671875 -0.640625 -1.703125q0 -1.0 0.625 -1.6875q0.640625 -0.6875 1.59375 -0.6875q0.96875 0 1.5625 0.671875q0.609375 0.671875 0.609375 1.75l0 0.171875l-3.65625 0q0.046875 0.703125 0.5 1.140625q0.46875 0.421875 1.125 0.421875q0.828125 0 1.390625 -0.5625l0.34375 0.453125q-0.703125 0.6875 -1.796875 0.6875zm1.390625 -2.640625q0 -0.625 -0.40625 -1.0625q-0.40625 -0.453125 -1.0625 -0.453125q-0.625 0 -1.046875 0.453125q-0.421875 0.4375 -0.4375 1.0625l2.953125 0zm2.8454895 4.390625q-0.625 -0.875 -0.96875 -1.9375q-0.34375 -1.0625 -0.34375 -2.1875q0 -1.125 0.34375 -2.1875q0.34375 -1.0625 0.96875 -1.9375l0.421875 0.3125q-0.5625 1.125 -0.765625 1.96875q-0.203125 0.828125 -0.203125 1.84375q0 1.0 0.203125 1.859375q0.21875 0.84375 0.765625 1.9375l-0.421875 0.328125zm1.6727448 -1.765625q-0.21875 0 -0.375 -0.140625q-0.140625 -0.15625 -0.140625 -0.375q0 -0.21875 0.140625 -0.359375q0.15625 -0.15625 0.375 -0.15625q0.203125 0 0.34375 0.15625q0.15625 0.140625 0.15625 0.359375q0 0.21875 -0.15625 0.375q-0.140625 0.140625 -0.34375 0.140625zm2.145462 0q-0.21875 0 -0.375 -0.140625q-0.140625 -0.15625 -0.140625 -0.375q0 -0.21875 0.140625 -0.359375q0.15625 -0.15625 0.375 -0.15625q0.203125 0 0.34375 0.15625q0.15625 0.140625 0.15625 0.359375q0 0.21875 -0.15625 0.375q-0.140625 0.140625 -0.34375 0.140625zm2.145462 0q-0.21875 0 -0.375 -0.140625q-0.140625 -0.15625 -0.140625 -0.375q0 -0.21875 0.140625 -0.359375q0.15625 -0.15625 0.375 -0.15625q0.203125 0 0.34375 0.15625q0.15625 0.140625 0.15625 0.359375q0 0.21875 -0.15625 0.375q-0.140625 0.140625 -0.34375 0.140625zm1.223587 1.4375q0.546875 -1.078125 0.765625 -1.953125q0.21875 -0.890625 0.21875 -1.84375q0 -0.953125 -0.21875 -1.8125q-0.203125 -0.859375 -0.765625 -2.0l0.421875 -0.3125q0.640625 0.875 0.984375 1.9375q0.34375 1.0625 0.34375 2.1875q0 1.125 -0.34375 2.1875q-0.34375 1.0625 -0.984375 1.9375l-0.421875 -0.328125z" fill-rule="nonzero"/><path fill="#000000" fill-opacity="0.0" d="m100.68635 54.72441l-61.35433 0" fill-rule="evenodd"/><path stroke="#595959" stroke-width="1.0" stroke-linejoin="round" stroke-linecap="butt" d="m100.68635 54.72441l-55.35433 0" fill-rule="evenodd"/><path fill="#595959" stroke="#595959" stroke-width="1.0" stroke-linecap="butt" d="m45.33202 53.072678l-4.5380974 1.6517334l4.5380974 1.6517296z" fill-rule="evenodd"/><path fill="#000000" fill-opacity="0.0" d="m49.1916 31.590551l51.496067 0l0 30.708662l-51.496067 0z" fill-rule="evenodd"/><path fill="#000000" d="m60.3166 50.414257q-1.140625 0 -1.8125 -0.703125l0.359375 -0.5q0.21875 0.25 0.609375 0.453125q0.40625 0.1875 0.875 0.1875q0.515625 0 0.78125 -0.21875q0.28125 -0.21875 0.28125 -0.5625q0 -0.296875 -0.296875 -0.46875q-0.296875 -0.171875 -1.09375 -0.359375q-0.6875 -0.140625 -1.046875 -0.4375q-0.359375 -0.3125 -0.359375 -0.828125q0 -0.5625 0.453125 -0.921875q0.46875 -0.375 1.234375 -0.375q1.015625 0 1.671875 0.65625l-0.328125 0.484375q-0.203125 -0.234375 -0.5625 -0.390625q-0.34375 -0.171875 -0.78125 -0.171875q-0.46875 0 -0.734375 0.203125q-0.265625 0.203125 -0.265625 0.5q0 0.28125 0.296875 0.4375q0.296875 0.15625 1.109375 0.328125q0.671875 0.15625 1.03125 0.484375q0.359375 0.3125 0.359375 0.84375q0 0.625 -0.5 1.0q-0.484375 0.359375 -1.28125 0.359375zm4.0563393 0q-1.0000038 0 -1.0000038 -1.046875l0 -2.953125l-0.75 0l0 -0.609375l0.75 0l0 -1.234375l0.7031288 0l0 1.234375l0.90625 0l0 0.609375l-0.90625 0l0 2.796875q0 0.25 0.109375 0.421875q0.109375 0.15625 0.34375 0.15625q0.28125 0 0.46875 -0.1875l0.203125 0.53125q-0.28125 0.28125 -0.828125 0.28125zm3.6330872 0q-1.015625 0 -1.65625 -0.65625q-0.640625 -0.671875 -0.640625 -1.703125q0 -1.0 0.625 -1.6875q0.640625 -0.6875 1.59375 -0.6875q0.96875 0 1.5625 0.671875q0.609375 0.671875 0.609375 1.75l0 0.171875l-3.65625 0q0.046875 0.703125 0.5 1.140625q0.46875 0.421875 1.125 0.421875q0.828125 0 1.390625 -0.5625l0.34375 0.453125q-0.703125 0.6875 -1.796875 0.6875zm1.390625 -2.640625q0 -0.625 -0.40625 -1.0625q-0.40625 -0.453125 -1.0625 -0.453125q-0.625 0 -1.046875 0.453125q-0.421875 0.4375 -0.4375 1.0625l2.953125 0zm4.0486145 2.640625q-0.96875 0 -1.515625 -0.796875l0 2.40625l-0.703125 0l0 -6.21875l0.703125 0l0 0.671875q0.234375 -0.34375 0.625 -0.5625q0.40625 -0.234375 0.890625 -0.234375q0.90625 0 1.453125 0.640625q0.546875 0.640625 0.546875 1.734375q0 1.078125 -0.546875 1.71875q-0.546875 0.640625 -1.453125 0.640625zm-0.171875 -0.625q0.640625 0 1.03125 -0.46875q0.40625 -0.484375 0.40625 -1.265625q0 -0.78125 -0.390625 -1.265625q-0.390625 -0.484375 -1.046875 -0.484375q-0.421875 0 -0.796875 0.21875q-0.375 0.203125 -0.546875 0.5l0 2.046875q0.171875 0.296875 0.546875 0.515625q0.375 0.203125 0.796875 0.203125zm4.3044434 2.375q-0.625 -0.875 -0.96875 -1.9375q-0.34375 -1.0625 -0.34375 -2.1875q0 -1.125 0.34375 -2.1875q0.34375 -1.0625 0.96875 -1.9375l0.421875 0.3125q-0.5625 1.125 -0.765625 1.96875q-0.203125 0.828125 -0.203125 1.84375q0 1.0 0.203125 1.859375q0.21875 0.84375 0.765625 1.9375l-0.421875 0.328125zm0.75086975 -0.328125q0.546875 -1.078125 0.765625 -1.953125q0.21875 -0.890625 0.21875 -1.84375q0 -0.953125 -0.21875 -1.8125q-0.203125 -0.859375 -0.765625 -2.0l0.421875 -0.3125q0.640625 0.875 0.984375 1.9375q0.34375 1.0625 0.34375 2.1875q0 1.125 -0.34375 2.1875q-0.34375 1.0625 -0.984375 1.9375l-0.421875 -0.328125z" fill-rule="nonzero"/><path fill="#000000" fill-opacity="0.0" d="m40.527557 70.72441l174.20473 0" fill-rule="evenodd"/><path stroke="#595959" stroke-width="1.0" stroke-linejoin="round" stroke-linecap="butt" d="m40.527557 70.72441l168.20473 0" fill-rule="evenodd"/><path fill="#595959" stroke="#595959" stroke-width="1.0" stroke-linecap="butt" d="m208.73228 72.376144l4.538101 -1.6517334l-4.538101 -1.6517334z" fill-rule="evenodd"/><path fill="#000000" fill-opacity="0.0" d="m101.98163 49.228348l57.795273 0l0 30.708656l-57.795273 0z" fill-rule="evenodd"/><path fill="#000000" d="m113.10663 68.052055q-1.140625 0 -1.8125 -0.703125l0.359375 -0.5q0.21875 0.25 0.609375 0.453125q0.40625 0.1875 0.875 0.1875q0.515625 0 0.78125 -0.21875q0.28125 -0.21875 0.28125 -0.5625q0 -0.296875 -0.296875 -0.46875q-0.296875 -0.171875 -1.09375 -0.359375q-0.6875 -0.140625 -1.046875 -0.4375q-0.359375 -0.3125 -0.359375 -0.828125q0 -0.5625 0.453125 -0.9218788q0.46875 -0.375 1.234375 -0.375q1.015625 0 1.671875 0.65625l-0.328125 0.4843788q-0.203125 -0.234375 -0.5625 -0.390625q-0.34375 -0.17187881 -0.78125 -0.17187881q-0.46875 0 -0.734375 0.20312881q-0.265625 0.203125 -0.265625 0.5q0 0.28125 0.296875 0.4375q0.296875 0.15625 1.109375 0.328125q0.671875 0.15625 1.03125 0.484375q0.359375 0.3125 0.359375 0.84375q0 0.625 -0.5 1.0q-0.484375 0.359375 -1.28125 0.359375zm4.9000854 0q-0.984375 0 -1.625 -0.671875q-0.625 -0.671875 -0.625 -1.6875q0 -1.03125 0.625 -1.7031288q0.640625 -0.671875 1.625 -0.671875q1.046875 0 1.65625 0.7968788l-0.46875 0.421875q-0.4375 -0.5937538 -1.15625 -0.5937538q-0.6875 0 -1.125 0.4843788q-0.421875 0.484375 -0.421875 1.265625q0 0.78125 0.421875 1.265625q0.4375 0.46875 1.125 0.46875q0.71875 0 1.15625 -0.578125l0.46875 0.421875q-0.609375 0.78125 -1.65625 0.78125zm5.6799164 -0.109375l0 -2.96875q0 -0.5 -0.234375 -0.765625q-0.234375 -0.2656288 -0.78125 -0.2656288q-0.390625 0 -0.75 0.20312881q-0.359375 0.203125 -0.578125 0.5l0 3.296875l-0.703125 0l0 -6.218754l0.703125 0l0 2.3593788q0.296875 -0.3437538 0.71875 -0.5468788q0.4375 -0.21875 0.890625 -0.21875q1.4375 0 1.4375 1.4375038l0 3.1875l-0.703125 0zm4.133499 0.109375q-1.015625 0 -1.65625 -0.65625q-0.640625 -0.671875 -0.640625 -1.703125q0 -1.0 0.625 -1.6875q0.640625 -0.6875038 1.59375 -0.6875038q0.96875 0 1.5625 0.671875q0.609375 0.6718788 0.609375 1.7500038l0 0.171875l-3.65625 0q0.046875 0.703125 0.5 1.140625q0.46875 0.421875 1.125 0.421875q0.828125 0 1.390625 -0.5625l0.34375 0.453125q-0.703125 0.6875 -1.796875 0.6875zm1.390625 -2.640625q0 -0.625 -0.40625 -1.0625q-0.40625 -0.4531288 -1.0625 -0.4531288q-0.625 0 -1.046875 0.4531288q-0.421875 0.4375 -0.4375 1.0625l2.953125 0zm5.0954895 2.53125l0 -0.671875q-0.25 0.34375 -0.65625 0.5625q-0.390625 0.21875 -0.875 0.21875q-0.890625 0 -1.453125 -0.640625q-0.546875 -0.640625 -0.546875 -1.71875q0 -1.078125 0.546875 -1.7187538q0.5625 -0.65625 1.453125 -0.65625q0.46875 0 0.859375 0.21875q0.390625 0.203125 0.671875 0.5781288l0 -2.3906288l0.703125 0l0 6.218754l-0.703125 0zm-1.359375 -0.515625q0.421875 0 0.796875 -0.203125q0.375 -0.203125 0.5625 -0.5l0 -2.046875q-0.1875 -0.296875 -0.5625 -0.515625q-0.375 -0.21875381 -0.796875 -0.21875381q-0.65625 0 -1.046875 0.4843788q-0.390625 0.46875 -0.390625 1.265625q0 0.78125 0.390625 1.265625q0.390625 0.46875 1.046875 0.46875zm6.488678 0.515625l0 -0.640625q-0.25 0.3125 -0.671875 0.53125q-0.421875 0.21875 -0.921875 0.21875q-1.4375 0 -1.4375 -1.4375l0 -3.1718788l0.703125 0l0 2.9531288q0 0.546875 0.234375 0.796875q0.25 0.234375 0.765625 0.234375q0.40625 0 0.765625 -0.203125q0.375 -0.203125 0.5625 -0.46875l0 -3.3125038l0.703125 0l0 4.500004l-0.703125 0zm2.108551 0l0 -6.218754l0.703125 0l0 6.218754l-0.703125 0zm4.130081 0.109375q-1.015625 0 -1.65625 -0.65625q-0.640625 -0.671875 -0.640625 -1.703125q0 -1.0 0.625 -1.6875q0.640625 -0.6875038 1.59375 -0.6875038q0.96875 0 1.5625 0.671875q0.609375 0.6718788 0.609375 1.7500038l0 0.171875l-3.65625 0q0.046875 0.703125 0.5 1.140625q0.46875 0.421875 1.125 0.421875q0.828125 0 1.390625 -0.5625l0.34375 0.453125q-0.703125 0.6875 -1.796875 0.6875zm1.390625 -2.640625q0 -0.625 -0.40625 -1.0625q-0.40625 -0.4531288 -1.0625 -0.4531288q-0.625 0 -1.046875 0.4531288q-0.421875 0.4375 -0.4375 1.0625l2.953125 0z" fill-rule="nonzero"/><path fill="#eeeeee" d="m92.362206 10.937008l15.0866165 0l0 48.062992l-15.0866165 0z" fill-rule="evenodd"/><path stroke="#595959" stroke-width="1.0" stroke-linejoin="round" stroke-linecap="butt" d="m92.362206 10.937008l15.0866165 0l0 48.062992l-15.0866165 0z" fill-rule="evenodd"/><path fill="#000000" fill-opacity="0.0" d="m215.85826 87.937004l-54.173218 0" fill-rule="evenodd"/><path stroke="#595959" stroke-width="1.0" stroke-linejoin="round" stroke-linecap="butt" d="m215.85826 87.937004l-48.173218 0" fill-rule="evenodd"/><path fill="#595959" stroke="#595959" stroke-width="1.0" stroke-linecap="butt" d="m167.68504 86.28528l-4.538101 1.6517258l4.538101 1.6517334z" fill-rule="evenodd"/><path fill="#000000" fill-opacity="0.0" d="m160.66142 94.614174l55.212585 0" fill-rule="evenodd"/><path stroke="#595959" stroke-width="1.0" stroke-linejoin="round" stroke-linecap="butt" d="m160.66142 94.614174l49.212585 0" fill-rule="evenodd"/><path fill="#595959" stroke="#595959" stroke-width="1.0" stroke-linecap="butt" d="m209.87402 96.26591l4.538086 -1.6517334l-4.538086 -1.6517334z" fill-rule="evenodd"/><path fill="#000000" fill-opacity="0.0" d="m169.69817 66.06036l51.496063 0l0 30.708664l-51.496063 0z" fill-rule="evenodd"/><path fill="#000000" d="m181.62004 84.88407q-0.96875 0 -1.515625 -0.796875l0 2.40625l-0.703125 0l0 -6.21875l0.703125 0l0 0.671875q0.234375 -0.34375 0.625 -0.5625q0.40625 -0.234375 0.890625 -0.234375q0.90625 0 1.453125 0.640625q0.546875 0.640625 0.546875 1.734375q0 1.078125 -0.546875 1.71875q-0.546875 0.640625 -1.453125 0.640625zm-0.171875 -0.625q0.640625 0 1.03125 -0.46875q0.40625 -0.484375 0.40625 -1.265625q0 -0.78125 -0.390625 -1.265625q-0.390625 -0.484375 -1.046875 -0.484375q-0.421875 0 -0.796875 0.21875q-0.375 0.203125 -0.546875 0.5l0 2.046875q0.171875 0.296875 0.546875 0.515625q0.375 0.203125 0.796875 0.203125zm5.3200684 0.625q-1.015625 0 -1.65625 -0.65625q-0.640625 -0.671875 -0.640625 -1.703125q0 -1.0 0.625 -1.6875q0.640625 -0.6875 1.59375 -0.6875q0.96875 0 1.5625 0.671875q0.609375 0.671875 0.609375 1.75l0 0.171875l-3.65625 0q0.046875 0.703125 0.5 1.140625q0.46875 0.421875 1.125 0.421875q0.828125 0 1.390625 -0.5625l0.34375 0.453125q-0.703125 0.6875 -1.796875 0.6875zm1.390625 -2.640625q0 -0.625 -0.40625 -1.0625q-0.40625 -0.453125 -1.0625 -0.453125q-0.625 0 -1.046875 0.453125q-0.421875 0.4375 -0.4375 1.0625l2.953125 0zm3.8611145 2.640625q-1.015625 0 -1.65625 -0.65625q-0.640625 -0.671875 -0.640625 -1.703125q0 -1.0 0.625 -1.6875q0.640625 -0.6875 1.59375 -0.6875q0.96875 0 1.5625 0.671875q0.609375 0.671875 0.609375 1.75l0 0.171875l-3.65625 0q0.046875 0.703125 0.5 1.140625q0.46875 0.421875 1.125 0.421875q0.828125 0 1.390625 -0.5625l0.34375 0.453125q-0.703125 0.6875 -1.796875 0.6875zm1.390625 -2.640625q0 -0.625 -0.40625 -1.0625q-0.40625 -0.453125 -1.0625 -0.453125q-0.625 0 -1.046875 0.453125q-0.421875 0.4375 -0.4375 1.0625l2.953125 0zm4.8923645 2.53125l-1.625 -2.03125l-0.734375 0.75l0 1.28125l-0.703125 0l0 -6.21875l0.703125 0l0 4.109375l2.359375 -2.390625l0.890625 0l-2.0 2.03125l2.015625 2.46875l-0.90625 0zm2.7477875 1.859375q-0.625 -0.875 -0.96875 -1.9375q-0.34375 -1.0625 -0.34375 -2.1875q0 -1.125 0.34375 -2.1875q0.34375 -1.0625 0.96875 -1.9375l0.421875 0.3125q-0.5625 1.125 -0.765625 1.96875q-0.203125 0.828125 -0.203125 1.84375q0 1.0 0.203125 1.859375q0.21875 0.84375 0.765625 1.9375l-0.421875 0.328125zm1.6727448 -1.765625q-0.21875 0 -0.375 -0.140625q-0.140625 -0.15625 -0.140625 -0.375q0 -0.21875 0.140625 -0.359375q0.15625 -0.15625 0.375 -0.15625q0.203125 0 0.34375 0.15625q0.15625 0.140625 0.15625 0.359375q0 0.21875 -0.15625 0.375q-0.140625 0.140625 -0.34375 0.140625zm2.145462 0q-0.21875 0 -0.375 -0.140625q-0.140625 -0.15625 -0.140625 -0.375q0 -0.21875 0.140625 -0.359375q0.15625 -0.15625 0.375 -0.15625q0.203125 0 0.34375 0.15625q0.15625 0.140625 0.15625 0.359375q0 0.21875 -0.15625 0.375q-0.140625 0.140625 -0.34375 0.140625zm2.145462 0q-0.21875 0 -0.375 -0.140625q-0.140625 -0.15625 -0.140625 -0.375q0 -0.21875 0.140625 -0.359375q0.15625 -0.15625 0.375 -0.15625q0.203125 0 0.34375 0.15625q0.15625 0.140625 0.15625 0.359375q0 0.21875 -0.15625 0.375q-0.140625 0.140625 -0.34375 0.140625zm1.223587 1.4375q0.546875 -1.078125 0.765625 -1.953125q0.21875 -0.890625 0.21875 -1.84375q0 -0.953125 -0.21875 -1.8125q-0.203125 -0.859375 -0.765625 -2.0l0.421875 -0.3125q0.640625 0.875 0.984375 1.9375q0.34375 1.0625 0.34375 2.1875q0 1.125 -0.34375 2.1875q-0.34375 1.0625 -0.984375 1.9375l-0.421875 -0.328125z" fill-rule="nonzero"/><path fill="#000000" fill-opacity="0.0" d="m215.35432 109.42519l-54.173218 0" fill-rule="evenodd"/><path stroke="#595959" stroke-width="1.0" stroke-linejoin="round" stroke-linecap="butt" d="m215.35432 109.42519l-48.173218 0" fill-rule="evenodd"/><path fill="#595959" stroke="#595959" stroke-width="1.0" stroke-linecap="butt" d="m167.1811 107.77347l-4.538101 1.6517258l4.538101 1.6517334z" fill-rule="evenodd"/><path fill="#000000" fill-opacity="0.0" d="m164.37665 87.937004l51.496048 0l0 30.708664l-51.496048 0z" fill-rule="evenodd"/><path fill="#000000" d="m176.29852 106.76071q-0.96875 0 -1.515625 -0.796875l0 2.40625l-0.703125 0l0 -6.21875l0.703125 0l0 0.671875q0.234375 -0.34375 0.625 -0.5625q0.40625 -0.234375 0.890625 -0.234375q0.90625 0 1.453125 0.640625q0.546875 0.640625 0.546875 1.734375q0 1.078125 -0.546875 1.71875q-0.546875 0.640625 -1.453125 0.640625zm-0.171875 -0.625q0.640625 0 1.03125 -0.46875q0.40625 -0.484375 0.40625 -1.265625q0 -0.78125 -0.390625 -1.265625q-0.390625 -0.484375 -1.046875 -0.484375q-0.421875 0 -0.796875 0.21875q-0.375 0.203125 -0.546875 0.5l0 2.046875q0.171875 0.296875 0.546875 0.515625q0.375 0.203125 0.796875 0.203125zm5.2575684 0.625q-0.984375 0 -1.609375 -0.65625q-0.625 -0.671875 -0.625 -1.703125q0 -1.046875 0.625 -1.703125q0.625 -0.671875 1.609375 -0.671875q0.96875 0 1.59375 0.671875q0.625 0.65625 0.625 1.703125q0 1.03125 -0.625 1.703125q-0.625 0.65625 -1.59375 0.65625zm0 -0.625q0.65625 0 1.0625 -0.484375q0.421875 -0.5 0.421875 -1.25q0 -0.765625 -0.421875 -1.25q-0.40625 -0.5 -1.0625 -0.5q-0.65625 0 -1.078125 0.5q-0.421875 0.484375 -0.421875 1.25q0 0.765625 0.40625 1.25q0.421875 0.484375 1.09375 0.484375zm6.4294434 0.515625l-1.625 -2.03125l-0.734375 0.75l0 1.28125l-0.703125 0l0 -6.21875l0.703125 0l0 4.109375l2.359375 -2.390625l0.890625 0l-2.0 2.03125l2.015625 2.46875l-0.90625 0zm3.7353973 0.109375q-1.015625 0 -1.65625 -0.65625q-0.640625 -0.671875 -0.640625 -1.703125q0 -1.0 0.625 -1.6875q0.640625 -0.6875 1.59375 -0.6875q0.96875 0 1.5625 0.671875q0.609375 0.671875 0.609375 1.75l0 0.171875l-3.65625 0q0.046875 0.703125 0.5 1.140625q0.46875 0.421875 1.125 0.421875q0.828125 0 1.390625 -0.5625l0.34375 0.453125q-0.703125 0.6875 -1.796875 0.6875zm1.390625 -2.640625q0 -0.625 -0.40625 -1.0625q-0.40625 -0.453125 -1.0625 -0.453125q-0.625 0 -1.046875 0.453125q-0.421875 0.4375 -0.4375 1.0625l2.953125 0zm2.8454895 4.390625q-0.625 -0.875 -0.96875 -1.9375q-0.34375 -1.0625 -0.34375 -2.1875q0 -1.125 0.34375 -2.1875q0.34375 -1.0625 0.96875 -1.9375l0.421875 0.3125q-0.5625 1.125 -0.765625 1.96875q-0.203125 0.828125 -0.203125 1.84375q0 1.0 0.203125 1.859375q0.21875 0.84375 0.765625 1.9375l-0.421875 0.328125zm1.6727448 -1.765625q-0.21875 0 -0.375 -0.140625q-0.140625 -0.15625 -0.140625 -0.375q0 -0.21875 0.140625 -0.359375q0.15625 -0.15625 0.375 -0.15625q0.203125 0 0.34375 0.15625q0.15625 0.140625 0.15625 0.359375q0 0.21875 -0.15625 0.375q-0.140625 0.140625 -0.34375 0.140625zm2.145462 0q-0.21875 0 -0.375 -0.140625q-0.140625 -0.15625 -0.140625 -0.375q0 -0.21875 0.140625 -0.359375q0.15625 -0.15625 0.375 -0.15625q0.203125 0 0.34375 0.15625q0.15625 0.140625 0.15625 0.359375q0 0.21875 -0.15625 0.375q-0.140625 0.140625 -0.34375 0.140625zm2.145462 0q-0.21875 0 -0.375 -0.140625q-0.140625 -0.15625 -0.140625 -0.375q0 -0.21875 0.140625 -0.359375q0.15625 -0.15625 0.375 -0.15625q0.203125 0 0.34375 0.15625q0.15625 0.140625 0.15625 0.359375q0 0.21875 -0.15625 0.375q-0.140625 0.140625 -0.34375 0.140625zm1.223587 1.4375q0.546875 -1.078125 0.765625 -1.953125q0.21875 -0.890625 0.21875 -1.84375q0 -0.953125 -0.21875 -1.8125q-0.203125 -0.859375 -0.765625 -2.0l0.421875 -0.3125q0.640625 0.875 0.984375 1.9375q0.34375 1.0625 0.34375 2.1875q0 1.125 -0.34375 2.1875q-0.34375 1.0625 -0.984375 1.9375l-0.421875 -0.328125z" fill-rule="nonzero"/><path fill="#000000" fill-opacity="0.0" d="m164.37796 102.47769l51.496048 0l0 30.708664l-51.496048 0z" fill-rule="evenodd"/><path fill="#000000" d="m175.50296 121.3014q-1.140625 0 -1.8125 -0.703125l0.359375 -0.5q0.21875 0.25 0.609375 0.453125q0.40625 0.1875 0.875 0.1875q0.515625 0 0.78125 -0.21875q0.28125 -0.21875 0.28125 -0.5625q0 -0.296875 -0.296875 -0.46875q-0.296875 -0.171875 -1.09375 -0.359375q-0.6875 -0.140625 -1.046875 -0.4375q-0.359375 -0.3125 -0.359375 -0.828125q0 -0.5625 0.453125 -0.921875q0.46875 -0.375 1.234375 -0.375q1.015625 0 1.671875 0.65625l-0.328125 0.484375q-0.203125 -0.234375 -0.5625 -0.390625q-0.34375 -0.171875 -0.78125 -0.171875q-0.46875 0 -0.734375 0.203125q-0.265625 0.203125 -0.265625 0.5q0 0.28125 0.296875 0.4375q0.296875 0.15625 1.109375 0.328125q0.671875 0.15625 1.03125 0.484375q0.359375 0.3125 0.359375 0.84375q0 0.625 -0.5 1.0q-0.484375 0.359375 -1.28125 0.359375zm4.0563354 0q-1.0 0 -1.0 -1.046875l0 -2.953125l-0.75 0l0 -0.609375l0.75 0l0 -1.234375l0.703125 0l0 1.234375l0.90625 0l0 0.609375l-0.90625 0l0 2.796875q0 0.25 0.109375 0.421875q0.109375 0.15625 0.34375 0.15625q0.28125 0 0.46875 -0.1875l0.203125 0.53125q-0.28125 0.28125 -0.828125 0.28125zm3.6330872 0q-1.015625 0 -1.65625 -0.65625q-0.640625 -0.671875 -0.640625 -1.703125q0 -1.0 0.625 -1.6875q0.640625 -0.6875 1.59375 -0.6875q0.96875 0 1.5625 0.671875q0.609375 0.671875 0.609375 1.75l0 0.171875l-3.65625 0q0.046875 0.703125 0.5 1.140625q0.46875 0.421875 1.125 0.421875q0.828125 0 1.390625 -0.5625l0.34375 0.453125q-0.703125 0.6875 -1.796875 0.6875zm1.390625 -2.640625q0 -0.625 -0.40625 -1.0625q-0.40625 -0.453125 -1.0625 -0.453125q-0.625 0 -1.046875 0.453125q-0.421875 0.4375 -0.4375 1.0625l2.953125 0zm4.0486145 2.640625q-0.96875 0 -1.515625 -0.796875l0 2.40625l-0.703125 0l0 -6.21875l0.703125 0l0 0.671875q0.234375 -0.34375 0.625 -0.5625q0.40625 -0.234375 0.890625 -0.234375q0.90625 0 1.453125 0.640625q0.546875 0.640625 0.546875 1.734375q0 1.078125 -0.546875 1.71875q-0.546875 0.640625 -1.453125 0.640625zm-0.171875 -0.625q0.640625 0 1.03125 -0.46875q0.40625 -0.484375 0.40625 -1.265625q0 -0.78125 -0.390625 -1.265625q-0.390625 -0.484375 -1.046875 -0.484375q-0.421875 0 -0.796875 0.21875q-0.375 0.203125 -0.546875 0.5l0 2.046875q0.171875 0.296875 0.546875 0.515625q0.375 0.203125 0.796875 0.203125zm4.3044434 2.375q-0.625 -0.875 -0.96875 -1.9375q-0.34375 -1.0625 -0.34375 -2.1875q0 -1.125 0.34375 -2.1875q0.34375 -1.0625 0.96875 -1.9375l0.421875 0.3125q-0.5625 1.125 -0.765625 1.96875q-0.203125 0.828125 -0.203125 1.84375q0 1.0 0.203125 1.859375q0.21875 0.84375 0.765625 1.9375l-0.421875 0.328125zm0.75086975 -0.328125q0.546875 -1.078125 0.765625 -1.953125q0.21875 -0.890625 0.21875 -1.84375q0 -0.953125 -0.21875 -1.8125q-0.203125 -0.859375 -0.765625 -2.0l0.421875 -0.3125q0.640625 0.875 0.984375 1.9375q0.34375 1.0625 0.34375 2.1875q0 1.125 -0.34375 2.1875q-0.34375 1.0625 -0.984375 1.9375l-0.421875 -0.328125z" fill-rule="nonzero"/><path fill="#000000" fill-opacity="0.0" d="m215.71129 124.456696l-176.34647 0" fill-rule="evenodd"/><path stroke="#595959" stroke-width="1.0" stroke-linejoin="round" stroke-linecap="butt" d="m215.71129 124.456696l-170.34647 0" fill-rule="evenodd"/><path fill="#595959" stroke="#595959" stroke-width="1.0" stroke-linecap="butt" d="m45.36483 122.80496l-4.5380974 1.6517334l4.5380974 1.6517334z" fill-rule="evenodd"/><path fill="#eeeeee" d="m215.51181 70.72441l15.086609 0l0 62.11023l-15.086609 0z" fill-rule="evenodd"/><path stroke="#595959" stroke-width="1.0" stroke-linejoin="round" stroke-linecap="butt" d="m215.51181 70.72441l15.086609 0l0 62.11023l-15.086609 0z" fill-rule="evenodd"/><path fill="#000000" fill-opacity="0.0" d="m18.496063 146.22047l141.73228 0" fill-rule="evenodd"/><path stroke="#595959" stroke-width="1.0" stroke-linejoin="round" stroke-linecap="butt" d="m18.496063 146.22047l135.73228 0" fill-rule="evenodd"/><path fill="#595959" stroke="#595959" stroke-width="1.0" stroke-linecap="butt" d="m154.22835 147.87221l4.538101 -1.6517334l-4.538101 -1.6517334z" fill-rule="evenodd"/><path fill="#000000" fill-opacity="0.0" d="m47.51181 123.62205l51.496063 0l0 30.708656l-51.496063 0z" fill-rule="evenodd"/><path fill="#000000" d="m58.63681 142.44576q-1.140625 0 -1.8125 -0.703125l0.359375 -0.5q0.21875 0.25 0.609375 0.453125q0.40625 0.1875 0.875 0.1875q0.515625 0 0.78125 -0.21875q0.28125 -0.21875 0.28125 -0.5625q0 -0.296875 -0.296875 -0.46875q-0.296875 -0.171875 -1.09375 -0.359375q-0.6875 -0.140625 -1.046875 -0.4375q-0.359375 -0.3125 -0.359375 -0.828125q0 -0.5625 0.453125 -0.921875q0.46875 -0.375 1.234375 -0.375q1.015625 0 1.671875 0.65625l-0.328125 0.484375q-0.203125 -0.234375 -0.5625 -0.390625q-0.34375 -0.171875 -0.78125 -0.171875q-0.46875 0 -0.734375 0.203125q-0.265625 0.203125 -0.265625 0.5q0 0.28125 0.296875 0.4375q0.296875 0.15625 1.109375 0.328125q0.671875 0.15625 1.03125 0.484375q0.359375 0.3125 0.359375 0.84375q0 0.625 -0.5 1.0q-0.484375 0.359375 -1.28125 0.359375zm4.0563354 0q-1.0 0 -1.0 -1.046875l0 -2.953125l-0.75 0l0 -0.609375l0.75 0l0 -1.234375l0.703125 0l0 1.234375l0.90625 0l0 0.609375l-0.90625 0l0 2.796875q0 0.25 0.109375 0.421875q0.109375 0.15625 0.34375 0.15625q0.28125 0 0.46875 -0.1875l0.203125 0.53125q-0.28125 0.28125 -0.828125 0.28125zm3.6330872 0q-1.015625 0 -1.65625 -0.65625q-0.640625 -0.671875 -0.640625 -1.703125q0 -1.0 0.625 -1.6875q0.640625 -0.6875 1.59375 -0.6875q0.96875 0 1.5625 0.671875q0.609375 0.671875 0.609375 1.75l0 0.171875l-3.65625 0q0.046875 0.703125 0.5 1.140625q0.46875 0.421875 1.125 0.421875q0.828125 0 1.390625 -0.5625l0.34375 0.453125q-0.703125 0.6875 -1.796875 0.6875zm1.390625 -2.640625q0 -0.625 -0.40625 -1.0625q-0.40625 -0.453125 -1.0625 -0.453125q-0.625 0 -1.046875 0.453125q-0.421875 0.4375 -0.4375 1.0625l2.953125 0zm4.0486145 2.640625q-0.96875 0 -1.515625 -0.796875l0 2.40625l-0.703125 0l0 -6.21875l0.703125 0l0 0.671875q0.234375 -0.34375 0.625 -0.5625q0.40625 -0.234375 0.890625 -0.234375q0.90625 0 1.453125 0.640625q0.546875 0.640625 0.546875 1.734375q0 1.078125 -0.546875 1.71875q-0.546875 0.640625 -1.453125 0.640625zm-0.171875 -0.625q0.640625 0 1.03125 -0.46875q0.40625 -0.484375 0.40625 -1.265625q0 -0.78125 -0.390625 -1.265625q-0.390625 -0.484375 -1.046875 -0.484375q-0.421875 0 -0.796875 0.21875q-0.375 0.203125 -0.546875 0.5l0 2.046875q0.171875 0.296875 0.546875 0.515625q0.375 0.203125 0.796875 0.203125zm4.3044434 2.375q-0.625 -0.875 -0.96875 -1.9375q-0.34375 -1.0625 -0.34375 -2.1875q0 -1.125 0.34375 -2.1875q0.34375 -1.0625 0.96875 -1.9375l0.421875 0.3125q-0.5625 1.125 -0.765625 1.96875q-0.203125 0.828125 -0.203125 1.84375q0 1.0 0.203125 1.859375q0.21875 0.84375 0.765625 1.9375l-0.421875 0.328125zm0.75086975 -0.328125q0.546875 -1.078125 0.765625 -1.953125q0.21875 -0.890625 0.21875 -1.84375q0 -0.953125 -0.21875 -1.8125q-0.203125 -0.859375 -0.765625 -2.0l0.421875 -0.3125q0.640625 0.875 0.984375 1.9375q0.34375 1.0625 0.34375 2.1875q0 1.125 -0.34375 2.1875q-0.34375 1.0625 -0.984375 1.9375l-0.421875 -0.328125z" fill-rule="nonzero"/><path fill="#eeeeee" d="m92.362206 155.97638l15.0866165 0l0 42.960632l-15.0866165 0z" fill-rule="evenodd"/><path stroke="#595959" stroke-width="1.0" stroke-linejoin="round" stroke-linecap="butt" d="m92.362206 155.97638l15.0866165 0l0 42.960632l-15.0866165 0z" fill-rule="evenodd"/><path fill="#000000" fill-opacity="0.0" d="m39.372704 160.32808l52.125984 0" fill-rule="evenodd"/><path stroke="#595959" stroke-width="1.0" stroke-linejoin="round" stroke-linecap="butt" d="m39.372704 160.32808l46.125984 0" fill-rule="evenodd"/><path fill="#595959" stroke="#595959" stroke-width="1.0" stroke-linecap="butt" d="m85.49869 161.97981l4.538101 -1.6517334l-4.538101 -1.6517334z" fill-rule="evenodd"/><path fill="#000000" fill-opacity="0.0" d="m33.85827 138.54855l57.795273 0l0 30.708664l-57.795273 0z" fill-rule="evenodd"/><path fill="#000000" d="m44.98327 157.37227q-1.140625 0 -1.8125 -0.703125l0.359375 -0.5q0.21875 0.25 0.609375 0.453125q0.40625 0.1875 0.875 0.1875q0.515625 0 0.78125 -0.21875q0.28125 -0.21875 0.28125 -0.5625q0 -0.296875 -0.296875 -0.46875q-0.296875 -0.171875 -1.09375 -0.359375q-0.6875 -0.140625 -1.046875 -0.4375q-0.359375 -0.3125 -0.359375 -0.828125q0 -0.5625 0.453125 -0.921875q0.46875 -0.375 1.234375 -0.375q1.015625 0 1.671875 0.65625l-0.328125 0.484375q-0.203125 -0.234375 -0.5625 -0.390625q-0.34375 -0.171875 -0.78125 -0.171875q-0.46875 0 -0.734375 0.203125q-0.265625 0.203125 -0.265625 0.5q0 0.28125 0.296875 0.4375q0.296875 0.15625 1.109375 0.328125q0.671875 0.15625 1.03125 0.484375q0.359375 0.3125 0.359375 0.84375q0 0.625 -0.5 1.0q-0.484375 0.359375 -1.28125 0.359375zm4.9000854 0q-0.984375 0 -1.625 -0.671875q-0.625 -0.671875 -0.625 -1.6875q0 -1.03125 0.625 -1.703125q0.640625 -0.671875 1.625 -0.671875q1.046875 0 1.65625 0.796875l-0.46875 0.421875q-0.4375 -0.59375 -1.15625 -0.59375q-0.6875 0 -1.125 0.484375q-0.421875 0.484375 -0.421875 1.265625q0 0.78125 0.421875 1.265625q0.4375 0.46875 1.125 0.46875q0.71875 0 1.15625 -0.578125l0.46875 0.421875q-0.609375 0.78125 -1.65625 0.78125zm5.6799164 -0.109375l0 -2.96875q0 -0.5 -0.234375 -0.765625q-0.234375 -0.265625 -0.78125 -0.265625q-0.390625 0 -0.75 0.203125q-0.359375 0.203125 -0.578125 0.5l0 3.296875l-0.703125 0l0 -6.21875l0.703125 0l0 2.359375q0.296875 -0.34375 0.71875 -0.546875q0.4375 -0.21875 0.890625 -0.21875q1.4375 0 1.4375 1.4375l0 3.1875l-0.703125 0zm4.133499 0.109375q-1.015625 0 -1.65625 -0.65625q-0.640625 -0.671875 -0.640625 -1.703125q0 -1.0 0.625 -1.6875q0.640625 -0.6875 1.59375 -0.6875q0.96875 0 1.5625 0.671875q0.609375 0.671875 0.609375 1.75l0 0.171875l-3.65625 0q0.046875 0.703125 0.5 1.140625q0.46875 0.421875 1.125 0.421875q0.828125 0 1.390625 -0.5625l0.34375 0.453125q-0.703125 0.6875 -1.796875 0.6875zm1.390625 -2.640625q0 -0.625 -0.40625 -1.0625q-0.40625 -0.453125 -1.0625 -0.453125q-0.625 0 -1.046875 0.453125q-0.421875 0.4375 -0.4375 1.0625l2.953125 0zm5.0954895 2.53125l0 -0.671875q-0.25 0.34375 -0.65625 0.5625q-0.390625 0.21875 -0.875 0.21875q-0.890625 0 -1.453125 -0.640625q-0.546875 -0.640625 -0.546875 -1.71875q0 -1.078125 0.546875 -1.71875q0.5625 -0.65625 1.453125 -0.65625q0.46875 0 0.859375 0.21875q0.390625 0.203125 0.671875 0.578125l0 -2.390625l0.703125 0l0 6.21875l-0.703125 0zm-1.359375 -0.515625q0.421875 0 0.796875 -0.203125q0.375 -0.203125 0.5625 -0.5l0 -2.046875q-0.1875 -0.296875 -0.5625 -0.515625q-0.375 -0.21875 -0.796875 -0.21875q-0.65625 0 -1.046875 0.484375q-0.390625 0.46875 -0.390625 1.265625q0 0.78125 0.390625 1.265625q0.390625 0.46875 1.046875 0.46875zm6.488678 0.515625l0 -0.640625q-0.25 0.3125 -0.671875 0.53125q-0.421875 0.21875 -0.921875 0.21875q-1.4375 0 -1.4375 -1.4375l0 -3.171875l0.703125 0l0 2.953125q0 0.546875 0.234375 0.796875q0.25 0.234375 0.765625 0.234375q0.40625 0 0.765625 -0.203125q0.375 -0.203125 0.5625 -0.46875l0 -3.3125l0.703125 0l0 4.5l-0.703125 0zm2.108551 0l0 -6.21875l0.703125 0l0 6.21875l-0.703125 0zm4.130081 0.109375q-1.015625 0 -1.65625 -0.65625q-0.640625 -0.671875 -0.640625 -1.703125q0 -1.0 0.625 -1.6875q0.640625 -0.6875 1.59375 -0.6875q0.96875 0 1.5625 0.671875q0.609375 0.671875 0.609375 1.75l0 0.171875l-3.65625 0q0.046875 0.703125 0.5 1.140625q0.46875 0.421875 1.125 0.421875q0.828125 0 1.390625 -0.5625l0.34375 0.453125q-0.703125 0.6875 -1.796875 0.6875zm1.390625 -2.640625q0 -0.625 -0.40625 -1.0625q-0.40625 -0.453125 -1.0625 -0.453125q-0.625 0 -1.046875 0.453125q-0.421875 0.4375 -0.4375 1.0625l2.953125 0z" fill-rule="nonzero"/><path fill="#000000" fill-opacity="0.0" d="m24.784777 18.632545l0 127.49607" fill-rule="evenodd"/><path stroke="#595959" stroke-width="1.0" stroke-linejoin="round" stroke-linecap="butt" d="m24.784777 18.632545l0 121.49607" fill-rule="evenodd"/><path fill="#595959" stroke="#595959" stroke-width="1.0" stroke-linecap="butt" d="m23.133045 140.12862l1.6517315 4.538086l1.6517334 -4.538086z" fill-rule="evenodd"/><path fill="#000000" fill-opacity="0.0" d="m3.776903 132.11285l0 -113.48031l42.01575 0l0 113.48031z" fill-rule="evenodd"/><path fill="#000000" d="m22.544779 118.51911l-3.625 1.171875l3.625 1.171875l0 0.703125l-4.5 1.4375l0 -0.734375l3.578125 -1.09375l-3.578125 -1.1875l0 -0.59375l3.578125 -1.1875l-3.578125 -1.09375l0 -0.734375l4.5 1.4375l0 0.703125zm0 -5.7687225l-0.515625 0q0.625 0.5625 0.625 1.484375q0 0.6875 -0.421875 1.140625q-0.4375 0.4375 -1.0625 0.4375q-0.65625 0 -1.0625 -0.4375q-0.421875 -0.4375 -0.421875 -1.140625q0 -0.96875 0.609375 -1.484375l-0.8125 0q-0.453125 0 -0.703125 0.328125q-0.25 0.3125 -0.25 0.8125q0 0.796875 0.625 1.375l-0.484375 0.328125q-0.75 -0.71875 -0.75 -1.796875q0 -0.828125 0.40625 -1.28125q0.40625 -0.46875 1.125 -0.46875l3.09375 0l0 0.703125zm-0.390625 1.234375q0 -0.828125 -0.5625 -1.234375l-0.84375 0q-0.5625 0.40625 -0.5625 1.234375q0 0.5 0.28125 0.8125q0.265625 0.296875 0.703125 0.296875q0.4375 0 0.71875 -0.296875q0.265625 -0.3125 0.265625 -0.8125zm-4.765625 -3.681549q0 0.1875 -0.125 0.328125q-0.140625 0.140625 -0.328125 0.140625q-0.203125 0 -0.34375 -0.140625q-0.140625 -0.140625 -0.140625 -0.328125q0 -0.1875 0.140625 -0.328125q0.140625 -0.140625 0.34375 -0.140625q0.1875 0 0.328125 0.140625q0.125 0.140625 0.125 0.328125zm5.15625 0.34375l-4.5 0l0 -0.703125l4.5 0l0 0.703125zm0.109375 -3.2394562q0 1.0 -1.046875 1.0l-2.953125 0l0 0.75l-0.609375 0l0 -0.75l-1.234375 0l0 -0.703125l1.234375 0l0 -0.90625l0.609375 0l0 0.90625l2.796875 0q0.25 0 0.421875 -0.109375q0.15625 -0.109375 0.15625 -0.34375q0 -0.28125 -0.1875 -0.46875l0.53125 -0.203125q0.28125 0.28125 0.28125 0.828125zm-0.109375 -4.195999l-3.890625 0l0 0.734375l-0.609375 0l0 -0.734375l-0.34375 0q-0.703125 0 -1.078125 -0.34375q-0.390625 -0.359375 -0.390625 -0.96875q0 -0.5625 0.34375 -0.953125l0.453125 0.296875q-0.21875 0.234375 -0.21875 0.5625q0 0.703125 0.890625 0.703125l0.34375 0l0 -0.921875l0.609375 0l0 0.921875l3.890625 0l0 0.703125zm0.109375 -4.421112q0 0.984375 -0.65625 1.609375q-0.671875 0.625 -1.703125 0.625q-1.046875 0 -1.703125 -0.625q-0.671875 -0.625 -0.671875 -1.609375q0 -0.96875 0.671875 -1.59375q0.65625 -0.625 1.703125 -0.625q1.03125 0 1.703125 0.625q0.65625 0.625 0.65625 1.59375zm-0.625 0q0 -0.65625 -0.484375 -1.0625q-0.5 -0.421875 -1.25 -0.421875q-0.765625 0 -1.25 0.421875q-0.5 0.40625 -0.5 1.0625q0 0.65625 0.5 1.078125q0.484375 0.421875 1.25 0.421875q0.765625 0 1.25 -0.40625q0.484375 -0.421875 0.484375 -1.09375zm0.515625 -3.3669434l-4.5 0l0 -0.703125l0.71875 0q-0.8125 -0.625 -0.8125 -1.5l0.71875 0l-0.03125 0.28125q0 0.328125 0.234375 0.703125q0.21875 0.375 0.484375 0.515625l3.1875 0l0 0.703125zm0 -8.29744l-0.515625 0q0.625 0.5625 0.625 1.484375q0 0.6875 -0.421875 1.140625q-0.4375 0.4375 -1.0625 0.4375q-0.65625 0 -1.0625 -0.4375q-0.421875 -0.4375 -0.421875 -1.140625q0 -0.96875 0.609375 -1.484375l-0.8125 0q-0.453125 0 -0.703125 0.328125q-0.25 0.3125 -0.25 0.8125q0 0.796875 0.625 1.375l-0.484375 0.328125q-0.75 -0.71875 -0.75 -1.796875q0 -0.828125 0.40625 -1.28125q0.40625 -0.46875 1.125 -0.46875l3.09375 0l0 0.703125zm-0.390625 1.234375q0 -0.828125 -0.5625 -1.234375l-0.84375 0q-0.5625 0.40625 -0.5625 1.234375q0 0.5 0.28125 0.8125q0.265625 0.296875 0.703125 0.296875q0.4375 0 0.71875 -0.296875q0.265625 -0.3125 0.265625 -0.8125zm0.390625 -3.337799l-6.21875 0l0 -0.703125l6.21875 0l0 0.703125zm0 -2.0988312l-6.21875 0l0 -0.703125l6.21875 0l0 0.703125zm0.109375 -5.646118q0 1.0 -1.046875 1.0l-2.953125 0l0 0.75l-0.609375 0l0 -0.75l-1.234375 0l0 -0.703125l1.234375 0l0 -0.90625l0.609375 0l0 0.90625l2.796875 0q0.25 0 0.421875 -0.109375q0.15625 -0.109375 0.15625 -0.34375q0 -0.28125 -0.1875 -0.46875l0.53125 -0.203125q0.28125 0.28125 0.28125 0.828125zm-0.109375 -4.648712l-2.96875 0q-0.5 0 -0.765625 0.234375q-0.265625 0.234375 -0.265625 0.78125q0 0.390625 0.203125 0.75q0.203125 0.359375 0.5 0.578125l3.296875 0l0 0.703125l-6.21875 0l0 -0.703125l2.359375 0q-0.34375 -0.296875 -0.546875 -0.71875q-0.21875 -0.4375 -0.21875 -0.890625q0 -1.4375 1.4375 -1.4375l3.1875 0l0 0.703125zm0 -2.1022491l-4.5 0l0 -0.703125l0.71875 0q-0.8125 -0.625 -0.8125 -1.5l0.71875 0l-0.03125 0.28125q0 0.328125 0.234375 0.703125q0.21875 0.375 0.484375 0.515625l3.1875 0l0 0.703125zm0.109375 -5.1095276q0 1.015625 -0.65625 1.65625q-0.671875 0.640625 -1.703125 0.640625q-1.0 0 -1.6875 -0.625q-0.6875 -0.640625 -0.6875 -1.59375q0 -0.96875 0.671875 -1.5625q0.671875 -0.609375 1.75 -0.609375l0.171875 0l0 3.65625q0.703125 -0.046875 1.140625 -0.5q0.421875 -0.46875 0.421875 -1.125q0 -0.828125 -0.5625 -1.390625l0.453125 -0.34375q0.6875 0.703125 0.6875 1.796875zm-2.640625 -1.390625q-0.625 0 -1.0625 0.40625q-0.453125 0.40625 -0.453125 1.0625q0 0.625 0.453125 1.046875q0.4375 0.421875 1.0625 0.4375l0 -2.953125zm2.53125 -4.6423645l-0.515625 0q0.625 0.5625 0.625 1.484375q0 0.6875 -0.421875 1.140625q-0.4375 0.4375 -1.0625 0.4375q-0.65625 0 -1.0625 -0.4375q-0.421875 -0.4375 -0.421875 -1.140625q0 -0.96875 0.609375 -1.484375l-0.8125 0q-0.453125 0 -0.703125 0.328125q-0.25 0.3125 -0.25 0.8125q0 0.796875 0.625 1.375l-0.484375 0.328125q-0.75 -0.71875 -0.75 -1.796875q0 -0.828125 0.40625 -1.28125q0.40625 -0.46875 1.125 -0.46875l3.09375 0l0 0.703125zm-0.390625 1.234375q0 -0.828125 -0.5625 -1.234375l-0.84375 0q-0.5625 0.40625 -0.5625 1.234375q0 0.5 0.28125 0.8125q0.265625 0.296875 0.703125 0.296875q0.4375 0 0.71875 -0.296875q0.265625 -0.3125 0.265625 -0.8125zm0.390625 -6.603424l-0.671875 0q0.34375 0.25 0.5625 0.65625q0.21875 0.390625 0.21875 0.875q0 0.890625 -0.640625 1.453125q-0.640625 0.546875 -1.71875 0.546875q-1.078125 0 -1.71875 -0.546875q-0.65625 -0.5625 -0.65625 -1.453125q0 -0.46875 0.21875 -0.859375q0.203125 -0.390625 0.578125 -0.671875l-2.390625 0l0 -0.703125l6.21875 0l0 0.703125zm-0.515625 1.359375q0 -0.421875 -0.203125 -0.796875q-0.203125 -0.375 -0.5 -0.5625l-2.046875 0q-0.296875 0.1875 -0.515625 0.5625q-0.21875 0.375 -0.21875 0.796875q0 0.65625 0.484375 1.046875q0.46875 0.390625 1.265625 0.390625q0.78125 0 1.265625 -0.390625q0.46875 -0.390625 0.46875 -1.046875zm0.625 -4.879303q0 1.140625 -0.703125 1.8125l-0.5 -0.359375q0.25 -0.21875 0.453125 -0.609375q0.1875 -0.40625 0.1875 -0.875q0 -0.515625 -0.21875 -0.78125q-0.21875 -0.28125 -0.5625 -0.28125q-0.296875 0 -0.46875 0.296875q-0.171875 0.296875 -0.359375 1.09375q-0.140625 0.6875 -0.4375 1.046875q-0.3125 0.359375 -0.828125 0.359375q-0.5625 0 -0.921875 -0.453125q-0.375 -0.46875 -0.375 -1.234375q0 -1.015625 0.65625 -1.671875l0.484375 0.328125q-0.234375 0.203125 -0.390625 0.5625q-0.171875 0.34375 -0.171875 0.78125q0 0.46875 0.203125 0.734375q0.203125 0.265625 0.5 0.265625q0.28125 0 0.4375 -0.296875q0.15625 -0.296875 0.328125 -1.109375q0.15625 -0.671875 0.484375 -1.03125q0.3125 -0.359375 0.84375 -0.359375q0.625 0 1.0 0.5q0.359375 0.484375 0.359375 1.28125zm0 -6.4629974q0 1.0 -1.046875 1.0l-2.953125 0l0 0.75l-0.609375 0l0 -0.75l-1.234375 0l0 -0.703125l1.234375 0l0 -0.90625l0.609375 0l0 0.90625l2.796875 0q0.25 0 0.421875 -0.109375q0.15625 -0.109375 0.15625 -0.34375q0 -0.28125 -0.1875 -0.46875l0.53125 -0.203125q0.28125 0.28125 0.28125 0.828125zm0 -3.5705872q0 0.984375 -0.65625 1.609375q-0.671875 0.625 -1.703125 0.625q-1.046875 0 -1.703125 -0.625q-0.671875 -0.625 -0.671875 -1.609375q0 -0.96875 0.671875 -1.59375q0.65625 -0.625 1.703125 -0.625q1.03125 0 1.703125 0.625q0.65625 0.625 0.65625 1.59375zm-0.625 0q0 -0.65625 -0.484375 -1.0625q-0.5 -0.421875 -1.25 -0.421875q-0.765625 0 -1.25 0.421875q-0.5 0.40625 -0.5 1.0625q0 0.65625 0.5 1.078125q0.484375 0.421875 1.25 0.421875q0.765625 0 1.25 -0.40625q0.484375 -0.421875 0.484375 -1.09375z" fill-rule="nonzero"/><path fill="#000000" d="m33.744778 122.40974l-4.5 0l0 -0.703125l0.71875 0q-0.8125 -0.625 -0.8125 -1.5l0.71875 0l-0.03125 0.28125q0 0.328125 0.234375 0.703125q0.21875 0.375 0.484375 0.515625l3.1875 0l0 0.703125zm0.109375 -5.1095276q0 1.015625 -0.65625 1.65625q-0.671875 0.640625 -1.703125 0.640625q-1.0 0 -1.6875 -0.625q-0.6875 -0.640625 -0.6875 -1.59375q0 -0.96875 0.671875 -1.5625q0.671875 -0.609375 1.75 -0.609375l0.171875 0l0 3.65625q0.703125 -0.046875 1.140625 -0.5q0.421875 -0.46875 0.421875 -1.125q0 -0.828125 -0.5625 -1.390625l0.453125 -0.34375q0.6875 0.703125 0.6875 1.796875zm-2.640625 -1.390625q-0.625 0 -1.0625 0.40625q-0.453125 0.40625 -0.453125 1.0625q0 0.625 0.453125 1.046875q0.4375 0.421875 1.0625 0.4375l0 -2.953125zm2.015625 -3.7048645q0 -0.390625 -0.203125 -0.78125q-0.21875 -0.390625 -0.515625 -0.5625l-2.046875 0q-0.28125 0.15625 -0.5 0.53125q-0.21875 0.375 -0.21875 0.8125q0 0.65625 0.484375 1.046875q0.484375 0.390625 1.265625 0.390625q0.765625 0 1.25 -0.390625q0.484375 -0.390625 0.484375 -1.046875zm0.625 0.15625q0 0.90625 -0.640625 1.46875q-0.640625 0.546875 -1.71875 0.546875q-1.109375 0 -1.734375 -0.546875q-0.640625 -0.5625 -0.640625 -1.46875q0 -0.46875 0.234375 -0.859375q0.21875 -0.40625 0.5625 -0.640625l-0.671875 0l0 -0.703125l6.21875 0l0 0.703125l-2.40625 0q0.796875 0.546875 0.796875 1.5zm-0.109375 -6.6481934l-0.640625 0q0.3125 0.25 0.53125 0.671875q0.21875 0.421875 0.21875 0.921875q0 1.4375 -1.4375 1.4375l-3.171875 0l0 -0.703125l2.953125 0q0.546875 0 0.796875 -0.234375q0.234375 -0.25 0.234375 -0.765625q0 -0.40625 -0.203125 -0.765625q-0.203125 -0.375 -0.46875 -0.5625l-3.3125 0l0 -0.703125l4.5 0l0 0.703125zm0.109375 -4.139801q0 1.015625 -0.65625 1.65625q-0.671875 0.640625 -1.703125 0.640625q-1.0 0 -1.6875 -0.625q-0.6875 -0.640625 -0.6875 -1.59375q0 -0.96875 0.671875 -1.5625q0.671875 -0.609375 1.75 -0.609375l0.171875 0l0 3.65625q0.703125 -0.046875 1.140625 -0.5q0.421875 -0.46875 0.421875 -1.125q0 -0.828125 -0.5625 -1.390625l0.453125 -0.34375q0.6875 0.703125 0.6875 1.796875zm-2.640625 -1.390625q-0.625 0 -1.0625 0.40625q-0.453125 0.40625 -0.453125 1.0625q0 0.625 0.453125 1.046875q0.4375 0.421875 1.0625 0.4375l0 -2.953125zm2.640625 -3.2517395q0 1.140625 -0.703125 1.8125l-0.5 -0.359375q0.25 -0.21875 0.453125 -0.609375q0.1875 -0.40625 0.1875 -0.875q0 -0.515625 -0.21875 -0.78125q-0.21875 -0.28125 -0.5625 -0.28125q-0.296875 0 -0.46875 0.296875q-0.171875 0.296875 -0.359375 1.09375q-0.140625 0.6875 -0.4375 1.046875q-0.3125 0.359375 -0.828125 0.359375q-0.5625 0 -0.921875 -0.453125q-0.375 -0.46875 -0.375 -1.234375q0 -1.015625 0.65625 -1.671875l0.484375 0.328125q-0.234375 0.203125 -0.390625 0.5625q-0.171875 0.34375 -0.171875 0.78125q0 0.46875 0.203125 0.734375q0.203125 0.265625 0.5 0.265625q0.28125 0 0.4375 -0.296875q0.15625 -0.296875 0.328125 -1.109375q0.15625 -0.671875 0.484375 -1.03125q0.3125 -0.359375 0.84375 -0.359375q0.625 0 1.0 0.5q0.359375 0.484375 0.359375 1.28125zm0 -4.0563354q0 1.0 -1.046875 1.0l-2.953125 0l0 0.75l-0.609375 0l0 -0.75l-1.234375 0l0 -0.703125l1.234375 0l0 -0.90625l0.609375 0l0 0.90625l2.796875 0q0.25 0 0.421875 -0.109375q0.15625 -0.109375 0.15625 -0.34375q0 -0.28125 -0.1875 -0.46875l0.53125 -0.203125q0.28125 0.28125 0.28125 0.828125zm-0.109375 -6.820999l-0.515625 0q0.625 0.5625 0.625 1.484375q0 0.6875 -0.421875 1.140625q-0.4375 0.4375 -1.0625 0.4375q-0.65625 0 -1.0625 -0.4375q-0.421875 -0.4375 -0.421875 -1.140625q0 -0.96875 0.609375 -1.484375l-0.8125 0q-0.453125 0 -0.703125 0.328125q-0.25 0.3125 -0.25 0.8125q0 0.796875 0.625 1.375l-0.484375 0.328125q-0.75 -0.71875 -0.75 -1.796875q0 -0.828125 0.40625 -1.28125q0.40625 -0.46875 1.125 -0.46875l3.09375 0l0 0.703125zm-0.390625 1.234375q0 -0.828125 -0.5625 -1.234375l-0.84375 0q-0.5625 0.40625 -0.5625 1.234375q0 0.5 0.28125 0.8125q0.265625 0.296875 0.703125 0.296875q0.4375 0 0.71875 -0.296875q0.265625 -0.3125 0.265625 -0.8125zm0.5 -7.166336q0 1.140625 -0.703125 1.8125l-0.5 -0.359375q0.25 -0.21875 0.453125 -0.609375q0.1875 -0.40625 0.1875 -0.875q0 -0.515625 -0.21875 -0.78125q-0.21875 -0.28125 -0.5625 -0.28125q-0.296875 0 -0.46875 0.296875q-0.171875 0.296875 -0.359375 1.09375q-0.140625 0.6875 -0.4375 1.046875q-0.3125 0.359375 -0.828125 0.359375q-0.5625 0 -0.921875 -0.453125q-0.375 -0.46875 -0.375 -1.234375q0 -1.015625 0.65625 -1.671875l0.484375 0.328125q-0.234375 0.203125 -0.390625 0.5625q-0.171875 0.34375 -0.171875 0.78125q0 0.46875 0.203125 0.734375q0.203125 0.265625 0.5 0.265625q0.28125 0 0.4375 -0.296875q0.15625 -0.296875 0.328125 -1.109375q0.15625 -0.671875 0.484375 -1.03125q0.3125 -0.359375 0.84375 -0.359375q0.625 0 1.0 0.5q0.359375 0.484375 0.359375 1.28125zm0 -4.0563354q0 1.0 -1.046875 1.0l-2.953125 0l0 0.75l-0.609375 0l0 -0.75l-1.234375 0l0 -0.703125l1.234375 0l0 -0.90625l0.609375 0l0 0.90625l2.796875 0q0.25 0 0.421875 -0.109375q0.15625 -0.109375 0.15625 -0.34375q0 -0.28125 -0.1875 -0.46875l0.53125 -0.203125q0.28125 0.28125 0.28125 0.828125zm0 -3.6330872q0 1.015625 -0.65625 1.65625q-0.671875 0.640625 -1.703125 0.640625q-1.0 0 -1.6875 -0.625q-0.6875 -0.640625 -0.6875 -1.59375q0 -0.96875 0.671875 -1.5625q0.671875 -0.609375 1.75 -0.609375l0.171875 0l0 3.65625q0.703125 -0.046875 1.140625 -0.5q0.421875 -0.46875 0.421875 -1.125q0 -0.828125 -0.5625 -1.390625l0.453125 -0.34375q0.6875 0.703125 0.6875 1.796875zm-2.640625 -1.390625q-0.625 0 -1.0625 0.40625q-0.453125 0.40625 -0.453125 1.0625q0 0.625 0.453125 1.046875q0.4375 0.421875 1.0625 0.4375l0 -2.953125zm2.640625 -4.0486145q0 0.96875 -0.796875 1.515625l2.40625 0l0 0.703125l-6.21875 0l0 -0.703125l0.671875 0q-0.34375 -0.234375 -0.5625 -0.625q-0.234375 -0.40625 -0.234375 -0.890625q0 -0.90625 0.640625 -1.453125q0.640625 -0.546875 1.734375 -0.546875q1.078125 0 1.71875 0.546875q0.640625 0.546875 0.640625 1.453125zm-0.625 0.171875q0 -0.640625 -0.46875 -1.03125q-0.484375 -0.40625 -1.265625 -0.40625q-0.78125 0 -1.265625 0.390625q-0.484375 0.390625 -0.484375 1.046875q0 0.421875 0.21875 0.796875q0.203125 0.375 0.5 0.546875l2.046875 0q0.296875 -0.171875 0.515625 -0.546875q0.203125 -0.375 0.203125 -0.796875z" fill-rule="nonzero"/><path fill="#ffffff" d="m67.750656 0l65.95276 0l0 17.82677l-65.95276 0z" fill-rule="evenodd"/><path fill="#000000" fill-opacity="0.0" d="m79.23848 2.9495373l42.97711 0l0 12.979443l-42.97711 0l0 -12.979443z" fill-rule="nonzero"/><path fill="#000000" d="m81.83223 12.753386l0 -6.3125l-2.25 0l0 -0.796875l5.390625 0l0 0.796875l-2.265625 0l0 6.3125l-0.875 0zm7.761627 0l0 -3.390625q0 -0.578125 -0.28125 -0.875q-0.265625 -0.296875 -0.875 -0.296875q-0.4375 0 -0.859375 0.234375q-0.40625 0.21875 -0.671875 0.5625l0 3.765625l-0.796875 0l0 -7.109375l0.796875 0l0 2.703125q0.34375 -0.390625 0.828125 -0.625q0.5 -0.25 1.015625 -0.25q1.640625 0 1.640625 1.640625l0 3.640625l-0.796875 0zm2.397934 0l0 -5.140625l0.796875 0l0 0.828125q0.71875 -0.9375 1.71875 -0.9375l0 0.8125l-0.3125 -0.03125q-0.375 0 -0.8125 0.265625q-0.421875 0.265625 -0.59375 0.5625l0 3.640625l-0.796875 0zm5.8447266 0.125q-1.171875 0 -1.90625 -0.75q-0.71875 -0.765625 -0.71875 -1.953125q0 -1.140625 0.71875 -1.921875q0.734375 -0.78125 1.8125 -0.78125q1.109375 0 1.796875 0.78125q0.6875 0.765625 0.6875 1.984375l0 0.203125l-4.171875 0q0.046875 0.78125 0.5625 1.28125q0.53125 0.5 1.296875 0.5q0.9375 0 1.578125 -0.65625l0.390625 0.53125q-0.796875 0.78125 -2.046875 0.78125zm1.59375 -3.03125q0 -0.703125 -0.46875 -1.203125q-0.46875 -0.5 -1.21875 -0.5q-0.71875 0 -1.203125 0.5q-0.46875 0.5 -0.484375 1.203125l3.375 0zm5.296402 2.90625l0 -0.59375q-0.640625 0.71875 -1.703125 0.71875q-0.78125 0 -1.296875 -0.484375q-0.5 -0.5 -0.5 -1.21875q0 -0.75 0.5 -1.21875q0.515625 -0.46875 1.296875 -0.46875q1.109375 0 1.703125 0.703125l0 -0.9375q0 -0.515625 -0.375 -0.796875q-0.359375 -0.28125 -0.921875 -0.28125q-0.90625 0 -1.578125 0.703125l-0.375 -0.546875q0.828125 -0.859375 2.0625 -0.859375q0.9375 0 1.453125 0.46875q0.53125 0.453125 0.53125 1.28125l0 3.53125l-0.796875 0zm-1.421875 -0.453125q0.953125 0 1.421875 -0.640625l0 -0.96875q-0.46875 -0.640625 -1.421875 -0.640625q-0.5625 0 -0.921875 0.328125q-0.34375 0.3125 -0.34375 0.8125q0 0.484375 0.34375 0.796875q0.359375 0.3125 0.921875 0.3125zm7.553406 0.453125l0 -0.765625q-0.296875 0.390625 -0.75 0.640625q-0.453125 0.25 -0.984375 0.25q-1.03125 0 -1.671875 -0.734375q-0.625 -0.734375 -0.625 -1.953125q0 -1.234375 0.625 -1.96875q0.640625 -0.75 1.671875 -0.75q0.515625 0 0.96875 0.25q0.453125 0.234375 0.765625 0.65625l0 -2.734375l0.796875 0l0 7.109375l-0.796875 0zm-1.546875 -0.59375q0.484375 0 0.90625 -0.234375q0.421875 -0.234375 0.640625 -0.5625l0 -2.34375q-0.21875 -0.34375 -0.640625 -0.578125q-0.421875 -0.25 -0.90625 -0.25q-0.75 0 -1.203125 0.546875q-0.453125 0.546875 -0.453125 1.453125q0 0.875 0.453125 1.421875q0.453125 0.546875 1.203125 0.546875zm11.79863 0.59375l-0.625 -1.578125l-3.546875 0l-0.625 1.578125l-1.015625 0l2.859375 -7.109375l1.09375 0l2.875 7.109375l-1.015625 0zm-2.40625 -6.1875l-1.5 3.828125l3.015625 0l-1.515625 -3.828125z" fill-rule="nonzero"/><path fill="#000000" fill-opacity="0.0" d="m122.21559 2.9495373l0 0l0 12.979443l0 0l0 -12.979443z" fill-rule="nonzero"/><path fill="#000000" d="m79.23848 13.426719l42.97711 0l0 1.0l-42.97711 0l0 -1.0z" fill-rule="nonzero"/><path fill="#000000" fill-opacity="0.0" d="m100.727036 5.1968503l51.496063 0l0 30.70866l-51.496063 0z" fill-rule="evenodd"/><path fill="#000000" d="m112.64891 24.020555q-0.96875 0 -1.515625 -0.796875l0 2.40625l-0.703125 0l0 -6.21875l0.703125 0l0 0.671875q0.234375 -0.34375 0.625 -0.5625q0.40625 -0.234375 0.890625 -0.234375q0.90625 0 1.453125 0.640625q0.546875 0.640625 0.546875 1.734375q0 1.078125 -0.546875 1.71875q-0.546875 0.640625 -1.453125 0.640625zm-0.171875 -0.625q0.640625 0 1.03125 -0.46875q0.40625 -0.484375 0.40625 -1.265625q0 -0.78125 -0.390625 -1.265625q-0.390625 -0.484375 -1.046875 -0.484375q-0.421875 0 -0.796875 0.21875q-0.375 0.203125 -0.546875 0.5l0 2.046875q0.171875 0.296875 0.546875 0.515625q0.375 0.203125 0.796875 0.203125zm5.3200684 0.625q-1.015625 0 -1.65625 -0.65625q-0.640625 -0.671875 -0.640625 -1.703125q0 -1.0 0.625 -1.6875q0.640625 -0.6875 1.59375 -0.6875q0.96875 0 1.5625 0.671875q0.609375 0.671875 0.609375 1.75l0 0.171875l-3.65625 0q0.046875 0.703125 0.5 1.140625q0.46875 0.421875 1.125 0.421875q0.828125 0 1.390625 -0.5625l0.34375 0.453125q-0.703125 0.6875 -1.796875 0.6875zm1.390625 -2.640625q0 -0.625 -0.40625 -1.0625q-0.40625 -0.453125 -1.0625 -0.453125q-0.625 0 -1.046875 0.453125q-0.421875 0.4375 -0.4375 1.0625l2.953125 0zm3.8611145 2.640625q-1.015625 0 -1.65625 -0.65625q-0.640625 -0.671875 -0.640625 -1.703125q0 -1.0 0.625 -1.6875q0.640625 -0.6875 1.59375 -0.6875q0.96875 0 1.5625 0.671875q0.609375 0.671875 0.609375 1.75l0 0.171875l-3.65625 0q0.046875 0.703125 0.5 1.140625q0.46875 0.421875 1.125 0.421875q0.828125 0 1.390625 -0.5625l0.34375 0.453125q-0.703125 0.6875 -1.796875 0.6875zm1.390625 -2.640625q0 -0.625 -0.40625 -1.0625q-0.40625 -0.453125 -1.0625 -0.453125q-0.625 0 -1.046875 0.453125q-0.421875 0.4375 -0.4375 1.0625l2.953125 0zm4.8923645 2.53125l-1.625 -2.03125l-0.734375 0.75l0 1.28125l-0.703125 0l0 -6.21875l0.703125 0l0 4.109375l2.359375 -2.390625l0.890625 0l-2.0 2.03125l2.015625 2.46875l-0.90625 0zm2.7477875 1.859375q-0.625 -0.875 -0.96875 -1.9375q-0.34375 -1.0625 -0.34375 -2.1875q0 -1.125 0.34375 -2.1875q0.34375 -1.0625 0.96875 -1.9375l0.421875 0.3125q-0.5625 1.125 -0.765625 1.96875q-0.203125 0.828125 -0.203125 1.84375q0 1.0 0.203125 1.859375q0.21875 0.84375 0.765625 1.9375l-0.421875 0.328125zm1.6727448 -1.765625q-0.21875 0 -0.375 -0.140625q-0.140625 -0.15625 -0.140625 -0.375q0 -0.21875 0.140625 -0.359375q0.15625 -0.15625 0.375 -0.15625q0.203125 0 0.34375 0.15625q0.15625 0.140625 0.15625 0.359375q0 0.21875 -0.15625 0.375q-0.140625 0.140625 -0.34375 0.140625zm2.145462 0q-0.21875 0 -0.375 -0.140625q-0.140625 -0.15625 -0.140625 -0.375q0 -0.21875 0.140625 -0.359375q0.15625 -0.15625 0.375 -0.15625q0.203125 0 0.34375 0.15625q0.15625 0.140625 0.15625 0.359375q0 0.21875 -0.15625 0.375q-0.140625 0.140625 -0.34375 0.140625zm2.145462 0q-0.21875 0 -0.375 -0.140625q-0.140625 -0.15625 -0.140625 -0.375q0 -0.21875 0.140625 -0.359375q0.15625 -0.15625 0.375 -0.15625q0.203125 0 0.34375 0.15625q0.15625 0.140625 0.15625 0.359375q0 0.21875 -0.15625 0.375q-0.140625 0.140625 -0.34375 0.140625zm1.223587 1.4375q0.546875 -1.078125 0.765625 -1.953125q0.21875 -0.890625 0.21875 -1.84375q0 -0.953125 -0.21875 -1.8125q-0.203125 -0.859375 -0.765625 -2.0l0.421875 -0.3125q0.640625 0.875 0.984375 1.9375q0.34375 1.0625 0.34375 2.1875q0 1.125 -0.34375 2.1875q-0.34375 1.0625 -0.984375 1.9375l-0.421875 -0.328125z" fill-rule="nonzero"/><path fill="#000000" fill-opacity="0.0" d="m24.784777 146.12862l0 20.314957" fill-rule="evenodd"/><path stroke="#595959" stroke-width="1.0" stroke-linejoin="round" stroke-linecap="butt" d="m24.784777 146.12862l0 14.314957" fill-rule="evenodd"/><path fill="#595959" stroke="#595959" stroke-width="1.0" stroke-linecap="butt" d="m23.133045 160.44357l1.6517315 4.538101l1.6517334 -4.538101z" fill-rule="evenodd"/></g></svg>