<?xml version="1.0" encoding="UTF-8" standalone="no"?>
<svg
   version="1.1"
   viewBox="0 0 455.99649 339.49994"
   fill="none"
   stroke="none"
   stroke-linecap="square"
   stroke-miterlimit="10"
   id="svg105"
   sodipodi:docname="cov_proxy_model_usage.svg"
   width="455.99649"
   height="339.49994"
   inkscape:version="1.2.1 (9c6d41e410, 2022-07-14, custom)"
   xmlns:inkscape="http://www.inkscape.org/namespaces/inkscape"
   xmlns:sodipodi="http://sodipodi.sourceforge.net/DTD/sodipodi-0.dtd"
   xmlns="http://www.w3.org/2000/svg"
   xmlns:svg="http://www.w3.org/2000/svg">
  <defs
     id="defs109" />
  <sodipodi:namedview
     id="namedview107"
     pagecolor="#ffffff"
     bordercolor="#000000"
     borderopacity="0.25"
     inkscape:showpageshadow="2"
     inkscape:pageopacity="0.0"
     inkscape:pagecheckerboard="0"
     inkscape:deskcolor="#d1d1d1"
     showgrid="false"
     inkscape:zoom="2.0055556"
     inkscape:cx="228.61496"
     inkscape:cy="143.3518"
     inkscape:window-width="3840"
     inkscape:window-height="2093"
     inkscape:window-x="0"
     inkscape:window-y="30"
     inkscape:window-maximized="1"
     inkscape:current-layer="svg105" />
  <clipPath
     id="g1b5d99ba5e3_0_85.0">
    <path
       d="M 0,0 H 960 V 540 H 0 Z"
       clip-rule="nonzero"
       id="path2" />
  </clipPath>
  <g
     clip-path="url(#g1b5d99ba5e3_0_85.0)"
     id="g103"
     transform="translate(-252.00088,-126.81897)">
    <path
       fill="#202729"
       d="M 267.68515,152.8189 H 451.5748 c 4.3e-4,0 8.2e-4,1.7e-4 0.001,4.7e-4 2.7e-4,2.9e-4 4.6e-4,6.9e-4 4.6e-4,0.001 l -0.002,27.47862 c 0,3.03545 -2.46072,5.49617 -5.49616,5.49617 H 262.18896 v 0 c -8.5e-4,0 -0.002,-7e-4 -0.002,-0.002 l 0.002,-27.47864 v 0 c 0,-3.03545 2.46073,-5.49617 5.49619,-5.49617 z"
       fill-rule="evenodd"
       id="path7" />
    <path
       stroke="#353744"
       stroke-width="1"
       stroke-linejoin="round"
       stroke-linecap="butt"
       d="M 267.68515,152.8189 H 451.5748 c 4.3e-4,0 8.2e-4,1.7e-4 0.001,4.7e-4 2.7e-4,2.9e-4 4.6e-4,6.9e-4 4.6e-4,0.001 l -0.002,27.47862 c 0,3.03545 -2.46072,5.49617 -5.49616,5.49617 H 262.18896 v 0 c -8.5e-4,0 -0.002,-7e-4 -0.002,-0.002 l 0.002,-27.47864 v 0 c 0,-3.03545 2.46073,-5.49617 5.49619,-5.49617 z"
       fill-rule="evenodd"
       id="path9" />
    <path
       fill="#ffffff"
       d="m 314.70483,176.22708 -4.71875,-5.59375 -1.25,1.42187 v 4.17188 h -1.54687 v -12.4375 h 1.54687 v 6.4375 l 5.5,-6.4375 h 1.95313 l -5.1875,5.90625 5.625,6.53125 z m 9.72803,0 v -5.89063 q 0,-1.20312 -0.5625,-1.64062 -0.54688,-0.45313 -1.45313,-0.45313 -0.78125,0 -1.54687,0.42188 -0.75,0.42187 -1.125,0.98437 v 6.57813 h -1.39063 v -9.01563 h 1.39063 v 1.3125 q 0.57812,-0.67187 1.42187,-1.09375 0.85938,-0.4375 1.78125,-0.4375 2.875,0 2.875,2.90625 v 6.32813 z m 8.12335,0.21875 q -1.95313,0 -3.20313,-1.32813 -1.25,-1.32812 -1.25,-3.40625 0,-2.09375 1.25,-3.40625 1.25,-1.3125 3.20313,-1.3125 1.96875,0 3.21875,1.3125 1.25,1.3125 1.25,3.40625 0,2.07813 -1.25,3.40625 -1.25,1.32813 -3.21875,1.32813 z m 0,-1.25 q 1.3125,0 2.15625,-0.96875 0.84375,-0.98438 0.84375,-2.51563 0,-1.51562 -0.84375,-2.48437 -0.84375,-0.98438 -2.15625,-0.98438 -1.29688,0 -2.15625,0.96875 -0.84375,0.96875 -0.84375,2.5 0,1.54688 0.84375,2.51563 0.84375,0.96875 2.15625,0.96875 z m 8.14014,-1.40625 q 0.375,0.59375 1.10937,1 0.73438,0.40625 1.57813,0.40625 1.32812,0 2.10937,-0.95313 0.79688,-0.96875 0.79688,-2.51562 0,-1.5625 -0.78125,-2.51563 -0.78125,-0.96875 -2.125,-0.96875 -0.84375,0 -1.57813,0.4375 -0.73437,0.42188 -1.10937,1.01563 z m -1.39063,2.4375 v -12.4375 h 1.39063 v 4.78125 q 1.15625,-1.57813 3.04687,-1.57813 1.78125,0 2.89063,1.3125 1.10937,1.29688 1.10937,3.42188 0,2.17187 -1.10937,3.45312 -1.10938,1.26563 -2.89063,1.26563 -0.95312,0 -1.75,-0.4375 -0.79687,-0.4375 -1.29687,-1.125 v 1.34375 z m 19.30627,0 -5,-12.4375 h 1.76563 l 4.20312,10.73437 4.1875,-10.73437 h 1.78125 l -5.01562,12.4375 z m 12.9592,0 v -1.03125 q -1.14062,1.25 -2.98437,1.25 -1.35938,0 -2.26563,-0.85938 -0.89062,-0.85937 -0.89062,-2.125 0,-1.29687 0.89062,-2.125 0.89063,-0.84375 2.26563,-0.84375 1.9375,0 2.98437,1.23438 v -1.625 q 0,-0.90625 -0.64062,-1.39063 -0.64063,-0.5 -1.64063,-0.5 -1.57812,0 -2.75,1.25 l -0.65625,-0.98437 q 1.4375,-1.48438 3.59375,-1.48438 1.67188,0 2.57813,0.8125 0.92187,0.79688 0.92187,2.23438 v 6.1875 z m -2.48437,-0.78125 q 1.67187,0 2.48437,-1.125 v -1.6875 q -0.8125,-1.125 -2.48437,-1.125 -0.98438,0 -1.60938,0.54687 -0.60937,0.54688 -0.60937,1.42188 0,0.85937 0.60937,1.42187 0.625,0.54688 1.60938,0.54688 z m 6.69122,0.78125 v -12.4375 h 1.39063 v 12.4375 z m 10.27579,0 v -1.26563 q -0.53125,0.59375 -1.375,1.04688 -0.82813,0.4375 -1.84375,0.4375 -2.85938,0 -2.85938,-2.875 v -6.35938 h 1.39063 v 5.9375 q 0,1.0625 0.48437,1.5625 0.48438,0.48438 1.53125,0.48438 0.82813,0 1.54688,-0.40625 0.73437,-0.40625 1.125,-0.95313 v -6.625 h 1.39062 v 9.01563 z m 8.26397,0.21875 q -2.03125,0 -3.3125,-1.3125 -1.28125,-1.32813 -1.28125,-3.42188 0,-2 1.26563,-3.35937 1.28125,-1.35938 3.17187,-1.35938 1.9375,0 3.125,1.34375 1.20313,1.34375 1.20313,3.48438 v 0.35937 h -7.29688 q 0.0781,1.375 1,2.25 0.92188,0.85938 2.25,0.85938 1.64063,0 2.78125,-1.14063 l 0.67188,0.92188 q -1.375,1.375 -3.57813,1.375 z m 2.79688,-5.29688 q 0,-1.25 -0.82813,-2.125 -0.8125,-0.875 -2.14062,-0.875 -1.25,0 -2.07813,0.875 -0.82812,0.875 -0.875,2.125 z m 6.48782,5.29688 q -2.29687,0 -3.64062,-1.40625 l 0.73437,-1.01563 q 0.45313,0.53125 1.23438,0.90625 0.79687,0.375 1.73437,0.375 1.04688,0 1.57813,-0.4375 0.54687,-0.4375 0.54687,-1.10937 0,-0.59375 -0.59375,-0.9375 -0.57812,-0.34375 -2.1875,-0.71875 -1.35937,-0.28125 -2.07812,-0.875 -0.71875,-0.60938 -0.71875,-1.64063 0,-1.14062 0.90625,-1.85937 0.92187,-0.73438 2.45312,-0.73438 2.03125,0 3.34375,1.3125 l -0.65625,0.96875 q -0.40625,-0.48437 -1.10937,-0.8125 -0.70313,-0.32812 -1.57813,-0.32812 -0.9375,0 -1.46875,0.40625 -0.53125,0.40625 -0.53125,1.01562 0,0.53125 0.59375,0.85938 0.60938,0.3125 2.20313,0.64062 1.35937,0.32813 2.0625,0.96875 0.71875,0.64063 0.71875,1.70313 0,1.25 -0.96875,1.98437 -0.96875,0.73438 -2.57813,0.73438 z"
       fill-rule="nonzero"
       id="path11" />
    <path
       fill="#4ba173"
       d="m 255.22704,214.37903 h 203.30708 v 32.97636 H 255.22704 Z"
       fill-rule="evenodd"
       id="path13" />
    <path
       stroke="#4ba173"
       stroke-width="1"
       stroke-linejoin="round"
       stroke-linecap="butt"
       d="m 255.22704,214.37903 h 203.30708 v 32.97636 H 255.22704 Z"
       fill-rule="evenodd"
       id="path15" />
    <path
       fill="#ffffff"
       d="m 326.851,237.78722 v -9.01563 h 1.39062 v 1.45313 q 1.25,-1.64063 3,-1.64063 v 1.4375 l -0.54687,-0.0469 q -0.64063,0 -1.40625,0.45312 -0.76563,0.45313 -1.04688,0.98438 v 6.375 z m 6.84409,-10.29688 q -0.375,0 -0.65625,-0.26562 -0.28125,-0.28125 -0.28125,-0.67188 0,-0.39062 0.28125,-0.67187 0.28125,-0.28125 0.65625,-0.28125 0.39062,0 0.67187,0.28125 0.28125,0.28125 0.28125,0.67187 0,0.39063 -0.28125,0.67188 -0.28125,0.26562 -0.67187,0.26562 z m -0.6875,10.29688 v -9.01563 h 1.39062 v 9.01563 z m 7.04141,0.21875 q -2.29688,0 -3.64063,-1.40625 l 0.73438,-1.01563 q 0.45312,0.53125 1.23437,0.90625 0.79688,0.375 1.73438,0.375 1.04687,0 1.57812,-0.4375 0.54688,-0.4375 0.54688,-1.10937 0,-0.59375 -0.59375,-0.9375 -0.57813,-0.34375 -2.1875,-0.71875 -1.35938,-0.28125 -2.07813,-0.875 -0.71875,-0.60938 -0.71875,-1.64063 0,-1.14062 0.90625,-1.85937 0.92188,-0.73438 2.45313,-0.73438 2.03125,0 3.34375,1.3125 l -0.65625,0.96875 q -0.40625,-0.48437 -1.10938,-0.8125 -0.70312,-0.32812 -1.57812,-0.32812 -0.9375,0 -1.46875,0.40625 -0.53125,0.40625 -0.53125,1.01562 0,0.53125 0.59375,0.85938 0.60937,0.3125 2.20312,0.64062 1.35938,0.32813 2.0625,0.96875 0.71875,0.64063 0.71875,1.70313 0,1.25 -0.96875,1.98437 -0.96875,0.73438 -2.57812,0.73438 z m 9.80014,0 q -1.98438,0 -3.25,-1.34375 -1.25,-1.34375 -1.25,-3.39063 0,-2.03125 1.25,-3.375 1.26562,-1.34375 3.25,-1.34375 2.09375,0 3.29687,1.5625 l -0.92187,0.85938 q -0.85938,-1.17188 -2.29688,-1.17188 -1.39062,0 -2.26562,0.96875 -0.85938,0.95313 -0.85938,2.5 0,1.5625 0.85938,2.53125 0.85937,0.95313 2.26562,0.95313 1.40625,0 2.29688,-1.17188 l 0.92187,0.85938 q -1.20312,1.5625 -3.29687,1.5625 z m 7.67236,-0.21875 -3.75,-9.01563 h 1.5 l 3.01563,7.39063 2.98437,-7.39063 h 1.51563 l -3.75,9.01563 z m 5.89157,-3.90625 v -1.21875 h 4.46875 v 1.21875 z m 12.95624,3.90625 v -1.34375 q -0.5,0.6875 -1.29687,1.125 -0.78125,0.4375 -1.73438,0.4375 -1.8125,0 -2.92187,-1.28125 -1.09375,-1.28125 -1.09375,-3.4375 0,-2.15625 1.10937,-3.4375 1.10938,-1.29688 2.90625,-1.29688 0.90625,0 1.70313,0.42188 0.79687,0.42187 1.32812,1.15625 v -4.78125 h 1.40625 v 12.4375 z m -2.70312,-1.03125 q 0.84375,0 1.59375,-0.40625 0.75,-0.40625 1.10937,-1 v -4.09375 q -0.35937,-0.59375 -1.10937,-1.01563 -0.75,-0.4375 -1.59375,-0.4375 -1.29688,0 -2.09375,0.95313 -0.79688,0.95312 -0.79688,2.53125 0,1.54687 0.78125,2.51562 0.79688,0.95313 2.10938,0.95313 z m 9.3211,1.03125 -3.75,-9.01563 h 1.5 l 3.01563,7.39063 2.98437,-7.39063 h 1.51563 l -3.75,9.01563 z"
       fill-rule="nonzero"
       id="path17" />
    <path
       fill="#202729"
       d="m 258.94894,270.24408 h 202.3096 c 4.6e-4,0 8.9e-4,1.8e-4 0.001,5.2e-4 3.4e-4,3.3e-4 5.2e-4,7.6e-4 5.2e-4,0.001 l -0.002,32.22913 c 0,3.56021 -2.88614,6.44632 -6.44635,6.44632 H 252.50262 v 0 c -9.6e-4,0 -0.002,-8e-4 -0.002,-0.002 l 0.002,-32.2291 v 0 c 0,-3.56021 2.88612,-6.44635 6.44632,-6.44635 z"
       fill-rule="evenodd"
       id="path19" />
    <path
       stroke="#353744"
       stroke-width="1"
       stroke-linejoin="round"
       stroke-linecap="butt"
       d="m 258.94894,270.24408 h 202.3096 c 4.6e-4,0 8.9e-4,1.8e-4 0.001,5.2e-4 3.4e-4,3.3e-4 5.2e-4,7.6e-4 5.2e-4,0.001 l -0.002,32.22913 c 0,3.56021 -2.88614,6.44632 -6.44635,6.44632 H 252.50262 v 0 c -9.6e-4,0 -0.002,-8e-4 -0.002,-0.002 l 0.002,-32.2291 v 0 c 0,-3.56021 2.88612,-6.44635 6.44632,-6.44635 z"
       fill-rule="evenodd"
       id="path21" />
    <path
       fill="#ffffff"
       d="m 300.2402,296.5027 -3.17187,-4.9375 h -2.48438 v 4.9375 h -1.54687 v -12.4375 h 5 q 1.75,0 2.82812,1.04687 1.07813,1.03125 1.07813,2.70313 0,1.5625 -0.90625,2.53125 -0.90625,0.95312 -2.32813,1.07812 l 3.35938,5.07813 z m -2.39062,-6.3125 q 1.125,0 1.79687,-0.65625 0.6875,-0.65625 0.6875,-1.71875 0,-1.0625 -0.6875,-1.71875 -0.67187,-0.65625 -1.79687,-0.65625 h -3.26563 v 4.75 z m 6.53051,6.3125 v -12.4375 h 1.54688 v 12.4375 z m 8.49008,0.21875 q -3,0 -4.78125,-1.96875 l 0.92188,-1.17188 q 0.76562,0.84375 1.78125,1.3125 1.03125,0.45313 2.14062,0.45313 1.34375,0 2.125,-0.59375 0.79688,-0.59375 0.79688,-1.54688 0,-1.48437 -2.3125,-2.10937 -2.73438,-0.73438 -3.5,-1.15625 -0.75,-0.4375 -1.15625,-1.07813 -0.40625,-0.64062 -0.40625,-1.53125 0,-1.5 1.20312,-2.46875 1.20313,-0.98437 3.07813,-0.98437 2.79687,0 4.42187,1.73437 l -0.9375,1.14063 q -1.34375,-1.5 -3.59375,-1.5 -1.125,0 -1.84375,0.54687 -0.71875,0.53125 -0.71875,1.4375 0,0.64063 0.59375,1.10938 0.60938,0.45312 1.73438,0.73437 2.65625,0.71875 3.42187,1.1875 0.78125,0.46875 1.20313,1.15625 0.42187,0.67188 0.42187,1.64063 0,1.71875 -1.25,2.6875 -1.25,0.96875 -3.34375,0.96875 z m 12.79197,0 q -2.73438,0 -4.5625,-1.79688 -1.82813,-1.8125 -1.82813,-4.64062 0,-2.8125 1.82813,-4.625 1.82812,-1.8125 4.5625,-1.8125 2.96875,0 4.73437,2.46875 l -1.3125,0.73437 q -0.54687,-0.79687 -1.45312,-1.29687 -0.90625,-0.51563 -1.96875,-0.51563 -2.0625,0 -3.42188,1.4375 -1.35937,1.4375 -1.35937,3.60938 0,2.20312 1.34375,3.64062 1.35937,1.42188 3.4375,1.42188 1.0625,0 1.96875,-0.5 0.90625,-0.51563 1.45312,-1.3125 l 1.32813,0.73437 q -1.8125,2.45313 -4.75,2.45313 z m 5.83038,-4.125 v -1.21875 h 4.46875 v 1.21875 z m 9.21692,3.90625 -5,-12.4375 h 1.76562 l 4.20313,10.73437 4.1875,-10.73437 h 1.78125 l -5.01563,12.4375 z m 13.37036,0 v -12.4375 h 5 q 1.78125,0 2.84375,1.0625 1.0625,1.0625 1.0625,2.6875 0,1.64062 -1.09375,2.70312 -1.07813,1.04688 -2.8125,1.04688 h -3.45313 v 4.9375 z m 4.8125,-6.32813 q 1.125,0 1.79687,-0.64062 0.6875,-0.65625 0.6875,-1.71875 0,-1.0625 -0.6875,-1.71875 -0.67187,-0.65625 -1.79687,-0.65625 h -3.26563 v 4.73437 z m 6.09186,6.32813 v -9.01563 h 1.39062 v 1.45313 q 1.25,-1.64063 3,-1.64063 v 1.4375 l -0.54687,-0.0469 q -0.64063,0 -1.40625,0.45312 -0.76563,0.45313 -1.04688,0.98438 v 6.375 z m 10.07843,0.21875 q -1.95313,0 -3.20313,-1.32813 -1.25,-1.32812 -1.25,-3.40625 0,-2.09375 1.25,-3.40625 1.25,-1.3125 3.20313,-1.3125 1.96875,0 3.21875,1.3125 1.25,1.3125 1.25,3.40625 0,2.07813 -1.25,3.40625 -1.25,1.32813 -3.21875,1.32813 z m 0,-1.25 q 1.3125,0 2.15625,-0.96875 0.84375,-0.98438 0.84375,-2.51563 0,-1.51562 -0.84375,-2.48437 -0.84375,-0.98438 -2.15625,-0.98438 -1.29688,0 -2.15625,0.96875 -0.84375,0.96875 -0.84375,2.5 0,1.54688 0.84375,2.51563 0.84375,0.96875 2.15625,0.96875 z m 10.35888,4.6875 q -1.15625,0 -2,-0.28125 -0.82812,-0.28125 -1.64062,-1.0625 l 0.71875,-1.04688 q 0.5625,0.67188 1.25,0.95313 0.70312,0.28125 1.67187,0.28125 1.39063,0 2.14063,-0.71875 0.75,-0.71875 0.75,-1.98438 v -1.29687 q -0.48438,0.70312 -1.28125,1.15625 -0.78125,0.45312 -1.73438,0.45312 -1.82812,0 -2.92187,-1.28125 -1.09375,-1.29687 -1.09375,-3.375 0,-2.17187 1.10937,-3.42187 1.10938,-1.26563 2.90625,-1.26563 1.85938,0 3.01563,1.57813 v -1.35938 h 1.40625 v 8.75 q 0,1.90625 -1.125,2.90625 -1.10938,1.01563 -3.17188,1.01563 z m 0.20313,-4.78125 q 0.76562,0 1.51562,-0.40625 0.76563,-0.40625 1.17188,-1.0625 v -3.9375 q -0.40625,-0.65625 -1.17188,-1.04688 -0.76562,-0.40625 -1.51562,-0.40625 -1.3125,0 -2.10938,0.95313 -0.78125,0.95312 -0.78125,2.48437 0,1.54688 0.79688,2.48438 0.8125,0.9375 2.09375,0.9375 z m 6.89618,1.125 v -9.01563 h 1.39062 v 1.45313 q 1.25,-1.64063 3,-1.64063 v 1.4375 l -0.54687,-0.0469 q -0.64063,0 -1.40625,0.45312 -0.76563,0.45313 -1.04688,0.98438 v 6.375 z m 11.78158,0 v -1.03125 q -1.14062,1.25 -2.98437,1.25 -1.35938,0 -2.26563,-0.85938 -0.89062,-0.85937 -0.89062,-2.125 0,-1.29687 0.89062,-2.125 0.89063,-0.84375 2.26563,-0.84375 1.9375,0 2.98437,1.23438 v -1.625 q 0,-0.90625 -0.64062,-1.39063 -0.64063,-0.5 -1.64063,-0.5 -1.57812,0 -2.75,1.25 l -0.65625,-0.98437 q 1.4375,-1.48438 3.59375,-1.48438 1.67188,0 2.57813,0.8125 0.92187,0.79688 0.92187,2.23438 v 6.1875 z m -2.48437,-0.78125 q 1.67187,0 2.48437,-1.125 v -1.6875 q -0.8125,-1.125 -2.48437,-1.125 -0.98438,0 -1.60938,0.54687 -0.60937,0.54688 -0.60937,1.42188 0,0.85937 0.60937,1.42187 0.625,0.54688 1.60938,0.54688 z m 17.56622,0.78125 v -6.125 q 0,-1.85938 -1.67187,-1.85938 -0.70313,0 -1.375,0.42188 -0.65625,0.42187 -1,0.95312 v 6.60938 h -1.40625 v -6.125 q 0,-1.85938 -1.65625,-1.85938 -0.6875,0 -1.34375,0.4375 -0.65625,0.42188 -1.03125,0.96875 v 6.57813 h -1.39063 v -9.01563 h 1.39063 v 1.3125 q 0.3125,-0.54687 1.1875,-1.03125 0.89062,-0.5 1.71875,-0.5 1.04687,0 1.625,0.48438 0.59375,0.48437 0.8125,1.1875 0.45312,-0.71875 1.3125,-1.1875 0.85937,-0.48438 1.70312,-0.48438 2.51563,0 2.51563,2.71875 v 6.51563 z"
       fill-rule="nonzero"
       id="path23" />
    <path
       fill="#000000"
       fill-opacity="0"
       d="M 356.8819,185.79527 V 214.3937"
       fill-rule="evenodd"
       id="path25" />
    <path
       stroke="#ff5252"
       stroke-width="2"
       stroke-linejoin="round"
       stroke-linecap="butt"
       d="M 356.8819,185.79527 V 202.3937"
       fill-rule="evenodd"
       id="path27" />
    <path
       fill="#ff5252"
       stroke="#ff5252"
       stroke-width="2"
       stroke-linecap="butt"
       d="m 353.57843,202.3937 3.30347,9.07619 3.30346,-9.07619 z"
       fill-rule="evenodd"
       id="path29" />
    <path
       fill="#000000"
       fill-opacity="0"
       d="m 356.88058,247.3554 v 22.89766"
       fill-rule="evenodd"
       id="path31" />
    <path
       stroke="#ff5252"
       stroke-width="2"
       stroke-linejoin="round"
       stroke-linecap="butt"
       d="m 356.88058,247.3554 v 10.89763"
       fill-rule="evenodd"
       id="path33" />
    <path
       fill="#ff5252"
       stroke="#ff5252"
       stroke-width="2"
       stroke-linecap="butt"
       d="m 353.57712,258.25302 3.30347,9.0762 3.30346,-9.0762 z"
       fill-rule="evenodd"
       id="path35" />
    <path
       fill="#fff176"
       d="m 283.87418,331.81104 h 146.01575 v 72.44095 H 283.87418 Z"
       fill-rule="evenodd"
       id="path37" />
    <path
       stroke="#202729"
       stroke-width="2"
       stroke-linejoin="round"
       stroke-linecap="butt"
       d="m 283.87418,331.81104 h 146.01575 v 72.44095 H 283.87418 Z"
       fill-rule="evenodd"
       id="path39" />
    <path
       fill="#000000"
       d="m 314.55032,362.5115 -2.79688,-5.0625 h -2.21875 v 5.0625 h -3.03125 v -14.21875 h 6.65625 q 2.17188,0 3.46875,1.29687 1.3125,1.28125 1.3125,3.28125 0,1.65625 -0.89062,2.79688 -0.89063,1.125 -2.23438,1.42187 l 3.20313,5.42188 z m -1.84375,-7.71875 q 0.92187,0 1.53125,-0.51563 0.60937,-0.51562 0.60937,-1.40625 0,-0.89062 -0.60937,-1.40625 -0.60938,-0.51562 -1.53125,-0.51562 h -3.17188 v 3.84375 z m 10.57883,7.71875 V 350.949 h -4.15625 v -2.65625 h 11.34375 v 2.65625 h -4.14063 v 11.5625 z m 9.13177,0 v -14.21875 h 3.03125 v 11.54687 h 6.01563 v 2.67188 z m 21.67716,0.25 q -3.79688,0 -6.01563,-2.25 l 1.64063,-2.3125 q 0.75,0.79687 1.89062,1.35937 1.15625,0.5625 2.625,0.5625 1.26563,0 1.85938,-0.46875 0.60937,-0.48437 0.60937,-1.10937 0,-0.64063 -0.70312,-1 -0.70313,-0.35938 -3.39063,-1 -4.09375,-0.98438 -4.09375,-4.14063 0,-1.82812 1.48438,-3.07812 1.48437,-1.25 3.92187,-1.25 3.39063,0 5.54688,1.98437 l -1.6875,2.21875 q -1.6875,-1.5625 -4.14063,-1.5625 -0.98437,0 -1.51562,0.40625 -0.51563,0.39063 -0.51563,1.03125 0,0.54688 0.60938,0.85938 0.60937,0.3125 1.53125,0.51562 l 1.95312,0.5 q 4.07813,1.04688 4.07813,4.17188 0,2.10937 -1.51563,3.34375 -1.51562,1.21875 -4.17187,1.21875 z m 9.01568,-11.65625 q -0.65625,0 -1.14062,-0.46875 -0.48438,-0.46875 -0.48438,-1.15625 0,-0.6875 0.48438,-1.14063 0.48437,-0.45312 1.14062,-0.45312 0.6875,0 1.15625,0.45312 0.46875,0.45313 0.46875,1.14063 0,0.6875 -0.46875,1.15625 -0.46875,0.46875 -1.15625,0.46875 z m -1.34375,11.40625 v -10.29688 h 2.70313 v 10.29688 z m 18.17728,0 v -6.5 q 0,-1.64063 -1.54687,-1.64063 -0.71875,0 -1.28125,0.39063 -0.54688,0.375 -0.84375,0.79687 v 6.95313 h -2.73438 v -6.5 q 0,-1.64063 -1.53125,-1.64063 -0.70312,0 -1.28125,0.39063 -0.5625,0.39062 -0.85937,0.8125 v 6.9375 h -2.70313 v -10.29688 h 2.70313 v 1.34375 q 0.375,-0.57812 1.35937,-1.09375 1,-0.51562 2.01563,-0.51562 2.23437,0 2.85937,1.875 0.48438,-0.78125 1.46875,-1.32813 0.98438,-0.54687 2.07813,-0.54687 3.01562,0 3.01562,3.125 v 7.4375 z m 15.63165,0.25 q -2.39062,0 -3.92187,-1.53125 -1.51563,-1.53125 -1.51563,-3.875 0,-2.34375 1.51563,-3.875 1.53125,-1.53125 3.92187,-1.53125 2.39063,0 3.92188,1.53125 1.53125,1.53125 1.53125,3.875 0,2.35937 -1.53125,3.89062 -1.53125,1.51563 -3.92188,1.51563 z m 0,-2.40625 q 1.17188,0 1.90625,-0.84375 0.73438,-0.84375 0.73438,-2.15625 0,-1.28125 -0.73438,-2.125 -0.73437,-0.85938 -1.90625,-0.85938 -1.14062,0 -1.89062,0.82813 -0.73438,0.8125 -0.73438,2.15625 0,1.35937 0.73438,2.1875 0.75,0.8125 1.89062,0.8125 z m 8.0549,2.15625 v -7.9375 h -1.70312 v -2.35938 h 1.70312 v -0.5625 q 0,-1.65625 0.95313,-2.60937 0.96875,-0.96875 2.53125,-0.96875 1.8125,0 2.6875,0.95312 l -1.03125,1.60938 q -0.42188,-0.4375 -1.125,-0.4375 -0.5625,0 -0.92188,0.375 -0.35937,0.35937 -0.35937,1.07812 v 0.5625 h 2.09375 v 2.35938 h -2.09375 v 7.9375 z"
       fill-rule="nonzero"
       id="path41" />
    <path
       fill="#000000"
       d="m 307.2988,388.5115 -2.79687,-5.0625 h -2.21875 v 5.0625 h -3.03125 v -14.21875 h 6.65625 q 2.17187,0 3.46875,1.29687 1.3125,1.28125 1.3125,3.28125 0,1.65625 -0.89063,2.79688 -0.89062,1.125 -2.23437,1.42187 l 3.20312,5.42188 z m -1.84375,-7.71875 q 0.92188,0 1.53125,-0.51563 0.60938,-0.51562 0.60938,-1.40625 0,-0.89062 -0.60938,-1.40625 -0.60937,-0.51562 -1.53125,-0.51562 h -3.17187 v 3.84375 z m 11.58966,7.96875 q -2.39062,0 -3.92187,-1.53125 -1.51563,-1.53125 -1.51563,-3.875 0,-2.34375 1.51563,-3.875 1.53125,-1.53125 3.92187,-1.53125 2.39063,0 3.92188,1.53125 1.53125,1.53125 1.53125,3.875 0,2.35937 -1.53125,3.89062 -1.53125,1.51563 -3.92188,1.51563 z m 0,-2.40625 q 1.17188,0 1.90625,-0.84375 0.73438,-0.84375 0.73438,-2.15625 0,-1.28125 -0.73438,-2.125 -0.73437,-0.85938 -1.90625,-0.85938 -1.14062,0 -1.89062,0.82813 -0.73438,0.8125 -0.73438,2.15625 0,1.35937 0.73438,2.1875 0.75,0.8125 1.89062,0.8125 z m 12.258,2.40625 q -2.42188,0 -3.9375,-1.53125 -1.51563,-1.53125 -1.51563,-3.875 0,-2.32813 1.51563,-3.85938 1.51562,-1.54687 3.9375,-1.54687 1.57812,0 2.5625,0.57812 1,0.57813 1.51562,1.28125 l -1.76562,1.67188 q -0.75,-1.10938 -2.1875,-1.10938 -1.23438,0 -2.01563,0.82813 -0.78125,0.8125 -0.78125,2.15625 0,1.34375 0.78125,2.17187 0.78125,0.82813 2.01563,0.82813 1.39062,0 2.1875,-1.10938 l 1.76562,1.64063 q -0.51562,0.73437 -1.51562,1.3125 -0.98438,0.5625 -2.5625,0.5625 z m 12.51779,-0.25 -2.71875,-3.96875 -1.25,1.32812 v 2.64063 h -2.70313 v -14.21875 h 2.70313 v 8.5 l 3.90625,-4.57813 h 3.32812 l -4.07812,4.67188 4.20312,5.625 z m 9.45447,0.25 q -2.4375,0 -3.96875,-1.5 -1.53125,-1.5 -1.53125,-3.90625 0,-2.3125 1.51562,-3.85938 1.53125,-1.54687 3.8125,-1.54687 2.28125,0 3.71875,1.57812 1.4375,1.5625 1.4375,4.09375 v 0.60938 h -7.65625 q 0.125,0.96875 0.875,1.6875 0.76563,0.70312 2.09375,0.70312 0.64063,0 1.42188,-0.26562 0.79687,-0.28125 1.32812,-0.76563 l 1.1875,1.75 q -0.76562,0.70313 -1.89062,1.0625 -1.125,0.35938 -2.34375,0.35938 z m 2.35937,-6.375 q -0.0625,-1.01563 -0.76562,-1.64063 -0.70313,-0.64062 -1.76563,-0.64062 -1.0625,0 -1.75,0.65625 -0.6875,0.64062 -0.79687,1.625 z m 8.0445,6.375 q -2.92188,0 -2.92188,-2.8125 v -5.375 h -1.70312 v -2.35938 h 1.70312 v -2.8125 h 2.73438 v 2.8125 h 2.09375 v 2.35938 h -2.09375 v 4.65625 q 0,0.48437 0.23437,0.8125 0.25,0.3125 0.70313,0.3125 0.64062,0 0.9375,-0.29688 l 0.57812,2.04688 q -0.70312,0.65625 -2.26562,0.65625 z m 16.16894,0 q -3.3125,0 -5.45312,-2.09375 -2.125,-2.10938 -2.125,-5.26563 0,-2.07812 0.98437,-3.78125 1,-1.71875 2.75,-2.64062 1.75,-0.92188 3.84375,-0.92188 3.92188,0 5.95313,3.46875 l -2.60938,1.28125 q -0.4375,-0.875 -1.34375,-1.46875 -0.89062,-0.59375 -2,-0.59375 -1.9375,0 -3.20312,1.32813 -1.25,1.32812 -1.25,3.32812 0,2.07813 1.28125,3.375 1.28125,1.29688 3.17187,1.29688 1.10938,0 2,-0.57813 0.90625,-0.59375 1.34375,-1.48437 l 2.60938,1.26562 q -2.03125,3.48438 -5.95313,3.48438 z m 12.48062,0 q -2.39062,0 -3.92187,-1.53125 -1.51563,-1.53125 -1.51563,-3.875 0,-2.34375 1.51563,-3.875 1.53125,-1.53125 3.92187,-1.53125 2.39063,0 3.92188,1.53125 1.53125,1.53125 1.53125,3.875 0,2.35937 -1.53125,3.89062 -1.53125,1.51563 -3.92188,1.51563 z m 0,-2.40625 q 1.17188,0 1.90625,-0.84375 0.73438,-0.84375 0.73438,-2.15625 0,-1.28125 -0.73438,-2.125 -0.73437,-0.85938 -1.90625,-0.85938 -1.14062,0 -1.89062,0.82813 -0.73438,0.8125 -0.73438,2.15625 0,1.35937 0.73438,2.1875 0.75,0.8125 1.89062,0.8125 z m 7.46112,2.15625 v -10.29688 h 2.70313 v 1.40625 q 0.5625,-0.6875 1.4375,-1.17187 0.89062,-0.5 1.85937,-0.5 v 2.65625 l -0.75,-0.0781 q -0.73437,0 -1.46875,0.34375 -0.73437,0.34375 -1.07812,0.84375 v 6.79688 z m 12.52192,0.25 q -2.4375,0 -3.96875,-1.5 -1.53125,-1.5 -1.53125,-3.90625 0,-2.3125 1.51562,-3.85938 1.53125,-1.54687 3.8125,-1.54687 2.28125,0 3.71875,1.57812 1.4375,1.5625 1.4375,4.09375 v 0.60938 h -7.65625 q 0.125,0.96875 0.875,1.6875 0.76563,0.70312 2.09375,0.70312 0.64063,0 1.42188,-0.26562 0.79687,-0.28125 1.32812,-0.76563 l 1.1875,1.75 q -0.76562,0.70313 -1.89062,1.0625 -1.125,0.35938 -2.34375,0.35938 z m 2.35937,-6.375 q -0.0625,-1.01563 -0.76562,-1.64063 -0.70313,-0.64062 -1.76563,-0.64062 -1.0625,0 -1.75,0.65625 -0.6875,0.64062 -0.79687,1.625 z"
       fill-rule="nonzero"
       id="path43" />
    <path
       fill="#000000"
       fill-opacity="0"
       d="M 356.88058,308.92126 V 331.8189"
       fill-rule="evenodd"
       id="path45" />
    <path
       stroke="#ff5252"
       stroke-width="2"
       stroke-linejoin="round"
       stroke-linecap="butt"
       d="M 356.88058,308.92126 V 319.8189"
       fill-rule="evenodd"
       id="path47" />
    <path
       fill="#ff5252"
       stroke="#ff5252"
       stroke-width="2"
       stroke-linecap="butt"
       d="m 353.57712,319.8189 3.30347,9.07617 3.30346,-9.07617 z"
       fill-rule="evenodd"
       id="path49" />
    <path
       fill="#202729"
       d="m 258.94894,427.14172 h 202.3096 c 4.6e-4,0 8.9e-4,1.8e-4 0.001,5.2e-4 3.4e-4,3.3e-4 5.2e-4,7.6e-4 5.2e-4,10e-4 l -0.002,32.22913 c 0,3.56018 -2.88614,6.44632 -6.44635,6.44632 H 252.50262 v 0 c -9.6e-4,0 -0.002,-8e-4 -0.002,-0.002 l 0.002,-32.22913 v 0 c 0,-3.56018 2.88612,-6.44632 6.44632,-6.44632 z"
       fill-rule="evenodd"
       id="path51" />
    <path
       stroke="#353744"
       stroke-width="1"
       stroke-linejoin="round"
       stroke-linecap="butt"
       d="m 258.94894,427.14172 h 202.3096 c 4.6e-4,0 8.9e-4,1.8e-4 0.001,5.2e-4 3.4e-4,3.3e-4 5.2e-4,7.6e-4 5.2e-4,10e-4 l -0.002,32.22913 c 0,3.56018 -2.88614,6.44632 -6.44635,6.44632 H 252.50262 v 0 c -9.6e-4,0 -0.002,-8e-4 -0.002,-0.002 l 0.002,-32.22913 v 0 c 0,-3.56018 2.88612,-6.44632 6.44632,-6.44632 z"
       fill-rule="evenodd"
       id="path53" />
    <path
       fill="#ffffff"
       d="m 277.10437,453.4003 v -12.4375 h 1.54688 v 11.0625 h 5.78125 v 1.375 z m 10.15533,-10.29687 q -0.375,0 -0.65625,-0.26563 -0.28125,-0.28125 -0.28125,-0.67187 0,-0.39063 0.28125,-0.67188 0.28125,-0.28125 0.65625,-0.28125 0.39063,0 0.67188,0.28125 0.28125,0.28125 0.28125,0.67188 0,0.39062 -0.28125,0.67187 -0.28125,0.26563 -0.67188,0.26563 z m -0.6875,10.29687 v -9.01562 h 1.39063 v 9.01562 z m 10.27579,0 v -5.89062 q 0,-1.20313 -0.5625,-1.64063 -0.54687,-0.45312 -1.45312,-0.45312 -0.78125,0 -1.54688,0.42187 -0.75,0.42188 -1.125,0.98438 v 6.57812 h -1.39062 v -9.01562 h 1.39062 v 1.3125 q 0.57813,-0.67188 1.42188,-1.09375 0.85937,-0.4375 1.78125,-0.4375 2.875,0 2.875,2.90625 v 6.32812 z m 8.26398,0.21875 q -2.03125,0 -3.3125,-1.3125 -1.28125,-1.32812 -1.28125,-3.42187 0,-2 1.26562,-3.35938 1.28125,-1.35937 3.17188,-1.35937 1.9375,0 3.125,1.34375 1.20312,1.34375 1.20312,3.48437 v 0.35938 h -7.29687 q 0.0781,1.375 1,2.25 0.92187,0.85937 2.25,0.85937 1.64062,0 2.78125,-1.14062 l 0.67187,0.92187 q -1.375,1.375 -3.57812,1.375 z m 2.79687,-5.29687 q 0,-1.25 -0.82812,-2.125 -0.8125,-0.875 -2.14063,-0.875 -1.25,0 -2.07812,0.875 -0.82813,0.875 -0.875,2.125 z m 14.3949,5.29687 q -2.73438,0 -4.5625,-1.79687 -1.82813,-1.8125 -1.82813,-4.64063 0,-2.8125 1.82813,-4.625 1.82812,-1.8125 4.5625,-1.8125 2.96875,0 4.73437,2.46875 l -1.3125,0.73438 q -0.54687,-0.79688 -1.45312,-1.29688 -0.90625,-0.51562 -1.96875,-0.51562 -2.0625,0 -3.42188,1.4375 -1.35937,1.4375 -1.35937,3.60937 0,2.20313 1.34375,3.64063 1.35937,1.42187 3.4375,1.42187 1.0625,0 1.96875,-0.5 0.90625,-0.51562 1.45312,-1.3125 l 1.32813,0.73438 q -1.8125,2.45312 -4.75,2.45312 z m 10.59601,0 q -1.95313,0 -3.20313,-1.32812 -1.25,-1.32813 -1.25,-3.40625 0,-2.09375 1.25,-3.40625 1.25,-1.3125 3.20313,-1.3125 1.96875,0 3.21875,1.3125 1.25,1.3125 1.25,3.40625 0,2.07812 -1.25,3.40625 -1.25,1.32812 -3.21875,1.32812 z m 0,-1.25 q 1.3125,0 2.15625,-0.96875 0.84375,-0.98437 0.84375,-2.51562 0,-1.51563 -0.84375,-2.48438 -0.84375,-0.98437 -2.15625,-0.98437 -1.29688,0 -2.15625,0.96875 -0.84375,0.96875 -0.84375,2.5 0,1.54687 0.84375,2.51562 0.84375,0.96875 2.15625,0.96875 z m 9.15573,1.03125 -3.75,-9.01562 h 1.5 l 3.01562,7.39062 2.98438,-7.39062 h 1.51562 l -3.75,9.01562 z m 10.79782,0.21875 q -2.03125,0 -3.3125,-1.3125 -1.28125,-1.32812 -1.28125,-3.42187 0,-2 1.26562,-3.35938 1.28125,-1.35937 3.17188,-1.35937 1.9375,0 3.125,1.34375 1.20312,1.34375 1.20312,3.48437 v 0.35938 h -7.29687 q 0.0781,1.375 1,2.25 0.92187,0.85937 2.25,0.85937 1.64062,0 2.78125,-1.14062 l 0.67187,0.92187 q -1.375,1.375 -3.57812,1.375 z m 2.79687,-5.29687 q 0,-1.25 -0.82812,-2.125 -0.8125,-0.875 -2.14063,-0.875 -1.25,0 -2.07812,0.875 -0.82813,0.875 -0.875,2.125 z m 3.64411,5.07812 v -9.01562 h 1.39062 v 1.45312 q 1.25,-1.64062 3,-1.64062 v 1.4375 l -0.54687,-0.0469 q -0.64063,0 -1.40625,0.45313 -0.76563,0.45312 -1.04688,0.98437 v 6.375 z m 11.78155,0 v -1.03125 q -1.14062,1.25 -2.98437,1.25 -1.35938,0 -2.26563,-0.85937 -0.89062,-0.85938 -0.89062,-2.125 0,-1.29688 0.89062,-2.125 0.89063,-0.84375 2.26563,-0.84375 1.9375,0 2.98437,1.23437 v -1.625 q 0,-0.90625 -0.64062,-1.39062 -0.64063,-0.5 -1.64063,-0.5 -1.57812,0 -2.75,1.25 l -0.65625,-0.98438 q 1.4375,-1.48437 3.59375,-1.48437 1.67188,0 2.57813,0.8125 0.92187,0.79687 0.92187,2.23437 v 6.1875 z m -2.48437,-0.78125 q 1.67187,0 2.48437,-1.125 v -1.6875 q -0.8125,-1.125 -2.48437,-1.125 -0.98438,0 -1.60938,0.54688 -0.60937,0.54687 -0.60937,1.42187 0,0.85938 0.60937,1.42188 0.625,0.54687 1.60938,0.54687 z m 10.3006,4.4375 q -1.15625,0 -2,-0.28125 -0.82813,-0.28125 -1.64063,-1.0625 l 0.71875,-1.04687 q 0.5625,0.67187 1.25,0.95312 0.70313,0.28125 1.67188,0.28125 1.39062,0 2.14062,-0.71875 0.75,-0.71875 0.75,-1.98437 v -1.29688 q -0.48437,0.70313 -1.28125,1.15625 -0.78125,0.45313 -1.73437,0.45313 -1.82813,0 -2.92188,-1.28125 -1.09375,-1.29688 -1.09375,-3.375 0,-2.17188 1.10938,-3.42188 1.10937,-1.26562 2.90625,-1.26562 1.85937,0 3.01562,1.57812 v -1.35937 h 1.40625 v 8.75 q 0,1.90625 -1.125,2.90625 -1.10937,1.01562 -3.17187,1.01562 z m 0.20312,-4.78125 q 0.76563,0 1.51563,-0.40625 0.76562,-0.40625 1.17187,-1.0625 v -3.9375 q -0.40625,-0.65625 -1.17187,-1.04687 -0.76563,-0.40625 -1.51563,-0.40625 -1.3125,0 -2.10937,0.95312 -0.78125,0.95313 -0.78125,2.48438 0,1.54687 0.79687,2.48437 0.8125,0.9375 2.09375,0.9375 z m 10.95871,1.34375 q -2.03125,0 -3.3125,-1.3125 -1.28125,-1.32812 -1.28125,-3.42187 0,-2 1.26563,-3.35938 1.28125,-1.35937 3.17187,-1.35937 1.9375,0 3.125,1.34375 1.20313,1.34375 1.20313,3.48437 v 0.35938 h -7.29688 q 0.0781,1.375 1,2.25 0.92188,0.85937 2.25,0.85937 1.64063,0 2.78125,-1.14062 l 0.67188,0.92187 q -1.375,1.375 -3.57813,1.375 z m 2.79688,-5.29687 q 0,-1.25 -0.82813,-2.125 -0.8125,-0.875 -2.14062,-0.875 -1.25,0 -2.07813,0.875 -0.82812,0.875 -0.875,2.125 z m 8.50427,5.07812 v -12.4375 h 4.25 q 2.84375,0 4.60937,1.76563 1.78125,1.75 1.78125,4.45312 0,2.73438 -1.78125,4.48438 -1.78125,1.73437 -4.60937,1.73437 z m 4.25,-1.375 q 2.125,0 3.45312,-1.32812 1.32813,-1.34375 1.32813,-3.51563 0,-2.15625 -1.3125,-3.5 -1.29688,-1.34375 -3.46875,-1.34375 h -2.70313 v 9.6875 z m 14.38748,1.375 v -1.03125 q -1.14062,1.25 -2.98437,1.25 -1.35938,0 -2.26563,-0.85937 -0.89062,-0.85938 -0.89062,-2.125 0,-1.29688 0.89062,-2.125 0.89063,-0.84375 2.26563,-0.84375 1.9375,0 2.98437,1.23437 v -1.625 q 0,-0.90625 -0.64062,-1.39062 -0.64063,-0.5 -1.64063,-0.5 -1.57812,0 -2.75,1.25 l -0.65625,-0.98438 q 1.4375,-1.48437 3.59375,-1.48437 1.67188,0 2.57813,0.8125 0.92187,0.79687 0.92187,2.23437 v 6.1875 z m -2.48437,-0.78125 q 1.67187,0 2.48437,-1.125 v -1.6875 q -0.8125,-1.125 -2.48437,-1.125 -0.98438,0 -1.60938,0.54688 -0.60937,0.54687 -0.60937,1.42187 0,0.85938 0.60937,1.42188 0.625,0.54687 1.60938,0.54687 z m 8.95684,1 q -2,0 -2,-2.10937 v -5.89063 h -1.48437 v -1.23437 h 1.48437 v -2.45313 h 1.40625 v 2.45313 h 1.82813 v 1.23437 h -1.82813 v 5.59375 q 0,0.51563 0.21875,0.84375 0.23438,0.3125 0.70313,0.3125 0.57812,0 0.9375,-0.375 l 0.42187,1.04688 q -0.57812,0.57812 -1.6875,0.57812 z m 8.84433,-0.21875 v -1.03125 q -1.14062,1.25 -2.98437,1.25 -1.35938,0 -2.26563,-0.85937 -0.89062,-0.85938 -0.89062,-2.125 0,-1.29688 0.89062,-2.125 0.89063,-0.84375 2.26563,-0.84375 1.9375,0 2.98437,1.23437 v -1.625 q 0,-0.90625 -0.64062,-1.39062 -0.64063,-0.5 -1.64063,-0.5 -1.57812,0 -2.75,1.25 l -0.65625,-0.98438 q 1.4375,-1.48437 3.59375,-1.48437 1.67188,0 2.57813,0.8125 0.92187,0.79687 0.92187,2.23437 v 6.1875 z m -2.48437,-0.78125 q 1.67187,0 2.48437,-1.125 v -1.6875 q -0.8125,-1.125 -2.48437,-1.125 -0.98438,0 -1.60938,0.54688 -0.60937,0.54687 -0.60937,1.42187 0,0.85938 0.60937,1.42188 0.625,0.54687 1.60938,0.54687 z"
       fill-rule="nonzero"
       id="path55" />
    <path
       fill="#000000"
       fill-opacity="0"
       d="m 356.88205,404.25198 v 22.89761"
       fill-rule="evenodd"
       id="path57" />
    <path
       stroke="#ff5252"
       stroke-width="2"
       stroke-linejoin="round"
       stroke-linecap="butt"
       d="m 356.88205,404.25198 v 10.89761"
       fill-rule="evenodd"
       id="path59" />
    <path
       fill="#ff5252"
       stroke="#ff5252"
       stroke-width="2"
       stroke-linecap="butt"
       d="m 353.57858,415.1496 3.30347,9.0762 3.30346,-9.0762 z"
       fill-rule="evenodd"
       id="path61" />
    <path
       fill="#000000"
       fill-opacity="0"
       d="m 451.5748,169.30708 h 98.36221 v 162.5197"
       fill-rule="evenodd"
       id="path63" />
    <path
       stroke="#ff5252"
       stroke-width="2"
       stroke-linejoin="round"
       stroke-linecap="butt"
       d="m 451.5748,169.30708 h 98.36221 v 150.5197"
       fill-rule="evenodd"
       id="path65" />
    <path
       fill="#ff5252"
       stroke="#ff5252"
       stroke-width="2"
       stroke-linecap="butt"
       d="m 546.63354,319.82678 3.30347,9.07617 3.30346,-9.07617 z"
       fill-rule="evenodd"
       id="path67" />
    <path
       fill="#fff176"
       d="M 475.8727,331.81235 H 624.0302 V 404.2533 H 475.8727 Z"
       fill-rule="evenodd"
       id="path69" />
    <path
       stroke="#202729"
       stroke-width="2"
       stroke-linejoin="round"
       stroke-linecap="butt"
       d="M 475.8727,331.81235 H 624.0302 V 404.2533 H 475.8727 Z"
       fill-rule="evenodd"
       id="path71" />
    <path
       fill="#000000"
       d="m 511.6675,362.76282 q -3.3125,0 -5.45312,-2.09375 -2.125,-2.10938 -2.125,-5.26563 0,-2.07812 0.98437,-3.78125 1,-1.71875 2.75,-2.64062 1.75,-0.92188 3.84375,-0.92188 3.92184,0 5.95309,3.46875 l -2.60937,1.28125 q -0.4375,-0.875 -1.34375,-1.46875 -0.89063,-0.59375 -1.99997,-0.59375 -1.9375,0 -3.20312,1.32813 -1.25,1.32812 -1.25,3.32812 0,2.07813 1.28125,3.375 1.28125,1.29688 3.17187,1.29688 1.10934,0 1.99997,-0.57813 0.90625,-0.59375 1.34375,-1.48437 l 2.60937,1.26562 q -2.03125,3.48438 -5.95309,3.48438 z m 12.48062,0 q -2.39062,0 -3.92187,-1.53125 -1.51563,-1.53125 -1.51563,-3.875 0,-2.34375 1.51563,-3.875 1.53125,-1.53125 3.92187,-1.53125 2.39063,0 3.92188,1.53125 1.53125,1.53125 1.53125,3.875 0,2.35937 -1.53125,3.89062 -1.53125,1.51563 -3.92188,1.51563 z m 0,-2.40625 q 1.17188,0 1.90625,-0.84375 0.73438,-0.84375 0.73438,-2.15625 0,-1.28125 -0.73438,-2.125 -0.73437,-0.85938 -1.90625,-0.85938 -1.14062,0 -1.89062,0.82813 -0.73438,0.8125 -0.73438,2.15625 0,1.35937 0.73438,2.1875 0.75,0.8125 1.89062,0.8125 z m 10.133,2.15625 -4.14063,-10.29688 h 2.89063 l 2.6875,7.15625 2.6875,-7.15625 h 2.92187 l -4.125,10.29688 z m 13.11322,0.25 q -2.4375,0 -3.96875,-1.5 -1.53125,-1.5 -1.53125,-3.90625 0,-2.3125 1.51562,-3.85938 1.53125,-1.54687 3.8125,-1.54687 2.28125,0 3.71875,1.57812 1.4375,1.5625 1.4375,4.09375 v 0.60938 h -7.65625 q 0.125,0.96875 0.875,1.6875 0.76563,0.70312 2.09375,0.70312 0.64063,0 1.42188,-0.26562 0.79687,-0.28125 1.32812,-0.76563 l 1.1875,1.75 q -0.76562,0.70313 -1.89062,1.0625 -1.125,0.35938 -2.34375,0.35938 z m 2.35937,-6.375 q -0.0625,-1.01563 -0.76562,-1.64063 -0.70313,-0.64062 -1.76563,-0.64062 -1.0625,0 -1.75,0.65625 -0.6875,0.64062 -0.79687,1.625 z m 4.59137,6.125 v -10.29688 h 2.70313 v 1.40625 q 0.5625,-0.6875 1.4375,-1.17187 0.89062,-0.5 1.85937,-0.5 v 2.65625 l -0.75,-0.0781 q -0.73437,0 -1.46875,0.34375 -0.73437,0.34375 -1.07812,0.84375 v 6.79688 z m 13.86566,0 v -1.0625 q -1.125,1.3125 -3.26562,1.3125 -1.5,0 -2.54688,-0.9375 -1.03125,-0.95313 -1.03125,-2.46875 0,-1.51563 0.98438,-2.42188 1,-0.90625 2.59375,-0.90625 2.21875,0 3.26562,1.26563 v -1.39063 q 0,-0.79687 -0.625,-1.26562 -0.60937,-0.46875 -1.64062,-0.46875 -1.70313,0 -3,1.21875 l -1.03125,-1.8125 q 1.875,-1.625 4.5,-1.625 2.17187,0 3.32812,1.01562 1.17188,1.01563 1.17188,2.89063 v 6.65625 z m -2.17187,-1.57813 q 1.48437,0 2.17187,-0.89062 v -1.28125 q -0.6875,-0.90625 -2.17187,-0.90625 -0.8125,0 -1.39063,0.40625 -0.5625,0.40625 -0.5625,1.15625 0,0.71875 0.5625,1.125 0.57813,0.39062 1.39063,0.39062 z m 11.78436,5.76563 q -1.34375,0 -2.40625,-0.34375 -1.04687,-0.34375 -2.03125,-1.20313 l 1.21875,-1.95312 q 1.15625,1.28125 3.21875,1.28125 1.34375,0 2.09375,-0.6875 0.75,-0.6875 0.75,-1.92188 v -1.04687 q -1.29687,1.625 -3.1875,1.625 -2.0625,0 -3.29687,-1.42188 -1.23438,-1.42187 -1.23438,-3.82812 0,-2.39063 1.21875,-3.8125 1.23438,-1.4375 3.3125,-1.4375 1.95313,0 3.1875,1.57812 v -1.3125 h 2.73438 v 9.59375 q 0,2.34375 -1.45313,3.60938 -1.45312,1.28125 -4.125,1.28125 z m 0.51563,-6.65625 q 0.6875,0 1.32812,-0.34375 0.65625,-0.34375 1,-0.82813 v -3.32812 q -0.34375,-0.51563 -1,-0.84375 -0.64062,-0.32813 -1.32812,-0.32813 -1.15625,0 -1.89063,0.75 -0.71875,0.73438 -0.71875,2.07813 0,1.34375 0.71875,2.09375 0.73438,0.75 1.89063,0.75 z m 12.58636,2.71875 q -2.4375,0 -3.96875,-1.5 -1.53125,-1.5 -1.53125,-3.90625 0,-2.3125 1.51563,-3.85938 1.53125,-1.54687 3.8125,-1.54687 2.28125,0 3.71875,1.57812 1.4375,1.5625 1.4375,4.09375 v 0.60938 h -7.65625 q 0.125,0.96875 0.875,1.6875 0.76562,0.70312 2.09375,0.70312 0.64062,0 1.42187,-0.26562 0.79688,-0.28125 1.32813,-0.76563 l 1.1875,1.75 q -0.76563,0.70313 -1.89063,1.0625 -1.125,0.35938 -2.34375,0.35938 z m 2.35938,-6.375 q -0.0625,-1.01563 -0.76563,-1.64063 -0.70312,-0.64062 -1.76562,-0.64062 -1.0625,0 -1.75,0.65625 -0.6875,0.64062 -0.79688,1.625 z"
       fill-rule="nonzero"
       id="path73" />
    <path
       fill="#000000"
       d="m 491.44684,388.51282 v -14.21875 h 6.65625 q 2.17187,0 3.46875,1.26562 1.3125,1.26563 1.3125,3.3125 0,2.03125 -1.34375,3.3125 -1.32813,1.26563 -3.4375,1.26563 h -3.625 v 5.0625 z m 6.25,-7.71875 q 0.89062,0 1.48437,-0.51563 0.60938,-0.51562 0.60938,-1.40625 0,-0.89062 -0.60938,-1.40625 -0.59375,-0.51562 -1.48437,-0.51562 h -3.21875 v 3.84375 z m 6.99631,7.71875 v -10.29688 h 2.70312 v 1.40625 q 0.5625,-0.6875 1.4375,-1.17187 0.89063,-0.5 1.85938,-0.5 v 2.65625 l -0.75,-0.0781 q -0.73438,0 -1.46875,0.34375 -0.73438,0.34375 -1.07813,0.84375 v 6.79688 z m 12.45938,0.25 q -2.39063,0 -3.92188,-1.53125 -1.51559,-1.53125 -1.51559,-3.875 0,-2.34375 1.51559,-3.875 1.53125,-1.53125 3.92188,-1.53125 2.39062,0 3.92187,1.53125 1.53125,1.53125 1.53125,3.875 0,2.35937 -1.53125,3.89062 -1.53125,1.51563 -3.92187,1.51563 z m 0,-2.40625 q 1.17187,0 1.90625,-0.84375 0.73437,-0.84375 0.73437,-2.15625 0,-1.28125 -0.73437,-2.125 -0.73438,-0.85938 -1.90625,-0.85938 -1.14063,0 -1.89063,0.82813 -0.73437,0.8125 -0.73437,2.15625 0,1.35937 0.73437,2.1875 0.75,0.8125 1.89063,0.8125 z m 13.11084,2.15625 -2.34375,-3.46875 -2.375,3.46875 h -3 l 3.64062,-5.29688 -3.42187,-5 h 3.01562 l 2.14063,3.17188 2.10937,-3.17188 h 3.03125 l -3.45312,5 3.6875,5.29688 z m 4.42126,1.59375 q 0.34375,0.17187 0.84375,0.17187 1.09375,0 1.4375,-0.73437 l 0.375,-0.875 -4.17187,-10.45313 h 2.89062 l 2.6875,7.15625 2.6875,-7.15625 h 2.92188 l -4.82813,11.98438 q -0.57812,1.45312 -1.59375,1.95312 -1,0.51563 -2.3125,0.54688 -0.75,0 -1.34375,-0.15625 z m 28.79206,-1.59375 v -9.95313 l -4.01563,9.95313 h -1.3125 l -4.01562,-9.95313 v 9.95313 h -3.03125 v -14.21875 h 4.25 l 3.45312,8.59375 3.45313,-8.59375 h 4.26562 v 14.21875 z m 10.57934,0.25 q -2.39062,0 -3.92187,-1.53125 -1.51563,-1.53125 -1.51563,-3.875 0,-2.34375 1.51563,-3.875 1.53125,-1.53125 3.92187,-1.53125 2.39063,0 3.92188,1.53125 1.53125,1.53125 1.53125,3.875 0,2.35937 -1.53125,3.89062 -1.53125,1.51563 -3.92188,1.51563 z m 0,-2.40625 q 1.17188,0 1.90625,-0.84375 0.73438,-0.84375 0.73438,-2.15625 0,-1.28125 -0.73438,-2.125 -0.73437,-0.85938 -1.90625,-0.85938 -1.14062,0 -1.89062,0.82813 -0.73438,0.8125 -0.73438,2.15625 0,1.35937 0.73438,2.1875 0.75,0.8125 1.89062,0.8125 z m 14.53931,2.15625 v -1.32813 q -1.28125,1.57813 -3.17188,1.57813 -2.04687,0 -3.3125,-1.46875 -1.25,-1.46875 -1.25,-3.92188 0,-2.4375 1.25,-3.92187 1.26563,-1.5 3.3125,-1.5 1.9375,0 3.17188,1.57812 v -5.23437 h 2.73437 v 14.21875 z m -2.34375,-2.15625 q 0.6875,0 1.34375,-0.32813 0.65625,-0.32812 1,-0.84375 v -3.64062 q -0.34375,-0.51563 -1,-0.84375 -0.65625,-0.32813 -1.34375,-0.32813 -1.15625,0 -1.89063,0.82813 -0.71875,0.82812 -0.71875,2.17187 0,1.29688 0.70313,2.14063 0.71875,0.84375 1.90625,0.84375 z m 12.60766,2.40625 q -2.4375,0 -3.96875,-1.5 -1.53125,-1.5 -1.53125,-3.90625 0,-2.3125 1.51563,-3.85938 1.53125,-1.54687 3.8125,-1.54687 2.28125,0 3.71875,1.57812 1.4375,1.5625 1.4375,4.09375 v 0.60938 h -7.65625 q 0.125,0.96875 0.875,1.6875 0.76562,0.70312 2.09375,0.70312 0.64062,0 1.42187,-0.26562 0.79688,-0.28125 1.32813,-0.76563 l 1.1875,1.75 q -0.76563,0.70313 -1.89063,1.0625 -1.125,0.35938 -2.34375,0.35938 z m 2.35938,-6.375 q -0.0625,-1.01563 -0.76563,-1.64063 -0.70312,-0.64062 -1.76562,-0.64062 -1.0625,0 -1.75,0.65625 -0.6875,0.64062 -0.79688,1.625 z m 4.59137,6.125 v -14.21875 h 2.70312 v 14.21875 z"
       fill-rule="nonzero"
       id="path75" />
    <path
       fill="#000000"
       fill-opacity="0"
       d="m 549.9514,404.2533 v 42.23621 h -88.69287"
       fill-rule="evenodd"
       id="path77" />
    <path
       stroke="#ff5252"
       stroke-width="2"
       stroke-linejoin="round"
       stroke-linecap="butt"
       d="m 549.9514,404.2533 v 42.23621 h -76.69287"
       fill-rule="evenodd"
       id="path79" />
    <path
       fill="#ff5252"
       stroke="#ff5252"
       stroke-width="2"
       stroke-linecap="butt"
       d="m 473.25854,443.18604 -9.0762,3.30347 9.0762,3.30346 z"
       fill-rule="evenodd"
       id="path81" />
    <path
       fill="#4ba173"
       d="m 604.2218,191.7336 h 103.27557 v 78.26771 H 604.2218 Z"
       fill-rule="evenodd"
       id="path83" />
    <path
       stroke="#4ba173"
       stroke-width="1"
       stroke-linejoin="round"
       stroke-linecap="butt"
       d="m 604.2218,191.7336 h 103.27557 v 78.26771 H 604.2218 Z"
       fill-rule="evenodd"
       id="path85" />
    <path
       fill="#ffffff"
       d="m 620.131,226.78745 v -12.4375 h 5.54687 q 1.57813,0 2.53125,0.875 0.95313,0.85937 0.95313,2.29687 0,1.09375 -0.60938,1.85938 -0.60937,0.76562 -1.57812,0.98437 1,0.15625 1.71875,1.04688 0.71875,0.89062 0.71875,2.01562 0,1.53125 -0.96875,2.45313 -0.95313,0.90625 -2.64063,0.90625 z m 5.28125,-7.04688 q 1.0625,0 1.59375,-0.5625 0.54687,-0.57812 0.54687,-1.4375 0,-0.84375 -0.54687,-1.42187 -0.53125,-0.59375 -1.59375,-0.59375 h -3.73438 v 4.01562 z m 0.0781,5.67188 q 1.09375,0 1.70313,-0.5625 0.60937,-0.57813 0.60937,-1.59375 0,-0.95313 -0.64062,-1.54688 -0.625,-0.59375 -1.67188,-0.59375 h -3.8125 v 4.29688 z m 6.32856,1.375 v -12.4375 h 1.39062 v 12.4375 z m 9.82263,0 v -1.03125 q -1.14063,1.25 -2.98438,1.25 -1.35937,0 -2.26562,-0.85938 -0.89063,-0.85937 -0.89063,-2.125 0,-1.29687 0.89063,-2.125 0.89062,-0.84375 2.26562,-0.84375 1.9375,0 2.98438,1.23438 v -1.625 q 0,-0.90625 -0.64063,-1.39063 -0.64062,-0.5 -1.64062,-0.5 -1.57813,0 -2.75,1.25 l -0.65625,-0.98437 q 1.4375,-1.48438 3.59375,-1.48438 1.67187,0 2.57812,0.8125 0.92188,0.79688 0.92188,2.23438 v 6.1875 z m -2.48438,-0.78125 q 1.67188,0 2.48438,-1.125 v -1.6875 q -0.8125,-1.125 -2.48438,-1.125 -0.98437,0 -1.60937,0.54687 -0.60938,0.54688 -0.60938,1.42188 0,0.85937 0.60938,1.42187 0.625,0.54688 1.60937,0.54688 z m 10.65998,1 q -1.98438,0 -3.25,-1.34375 -1.25,-1.34375 -1.25,-3.39063 0,-2.03125 1.25,-3.375 1.26562,-1.34375 3.25,-1.34375 2.09375,0 3.29687,1.5625 l -0.92187,0.85938 q -0.85938,-1.17188 -2.29688,-1.17188 -1.39062,0 -2.26562,0.96875 -0.85938,0.95313 -0.85938,2.5 0,1.5625 0.85938,2.53125 0.85937,0.95313 2.26562,0.95313 1.40625,0 2.29688,-1.17188 l 0.92187,0.85938 q -1.20312,1.5625 -3.29687,1.5625 z m 11.39111,-0.21875 -3.23437,-4.04688 -1.5,1.46875 v 2.57813 h -1.39063 v -12.4375 h 1.39063 v 8.21875 l 4.73437,-4.79688 h 1.78125 l -4,4.09375 4.01563,4.92188 z m 4.85492,-2.4375 q 0.375,0.59375 1.10937,1 0.73438,0.40625 1.57813,0.40625 1.32812,0 2.10937,-0.95313 0.79688,-0.96875 0.79688,-2.51562 0,-1.5625 -0.78125,-2.51563 -0.78125,-0.96875 -2.125,-0.96875 -0.84375,0 -1.57813,0.4375 -0.73437,0.42188 -1.10937,1.01563 z m -1.39063,2.4375 v -12.4375 h 1.39063 v 4.78125 q 1.15625,-1.57813 3.04687,-1.57813 1.78125,0 2.89063,1.3125 1.10937,1.29688 1.10937,3.42188 0,2.17187 -1.10937,3.45312 -1.10938,1.26563 -2.89063,1.26563 -0.95312,0 -1.75,-0.4375 -0.79687,-0.4375 -1.29687,-1.125 v 1.34375 z m 14.64924,0.21875 q -1.95313,0 -3.20313,-1.32813 -1.25,-1.32812 -1.25,-3.40625 0,-2.09375 1.25,-3.40625 1.25,-1.3125 3.20313,-1.3125 1.96875,0 3.21875,1.3125 1.25,1.3125 1.25,3.40625 0,2.07813 -1.25,3.40625 -1.25,1.32813 -3.21875,1.32813 z m 0,-1.25 q 1.3125,0 2.15625,-0.96875 0.84375,-0.98438 0.84375,-2.51563 0,-1.51562 -0.84375,-2.48437 -0.84375,-0.98438 -2.15625,-0.98438 -1.29688,0 -2.15625,0.96875 -0.84375,0.96875 -0.84375,2.5 0,1.54688 0.84375,2.51563 0.84375,0.96875 2.15625,0.96875 z m 11.88696,1.03125 -2.70313,-3.6875 -2.70312,3.6875 h -1.60938 l 3.45313,-4.625 -3.26563,-4.39063 h 1.625 l 2.5,3.4375 2.5,-3.4375 h 1.625 l -3.26562,4.39063 3.46875,4.625 z"
       fill-rule="nonzero"
       id="path87" />
    <path
       fill="#ffffff"
       d="m 623.30615,249.0062 q -1.95313,0 -3.20313,-1.32813 -1.25,-1.32812 -1.25,-3.40625 0,-2.09375 1.25,-3.40625 1.25,-1.3125 3.20313,-1.3125 1.96875,0 3.21875,1.3125 1.25,1.3125 1.25,3.40625 0,2.07813 -1.25,3.40625 -1.25,1.32813 -3.21875,1.32813 z m 0,-1.25 q 1.3125,0 2.15625,-0.96875 0.84375,-0.98438 0.84375,-2.51563 0,-1.51562 -0.84375,-2.48437 -0.84375,-0.98438 -2.15625,-0.98438 -1.29688,0 -2.15625,0.96875 -0.84375,0.96875 -0.84375,2.5 0,1.54688 0.84375,2.51563 0.84375,0.96875 2.15625,0.96875 z m 11.18701,1.25 q -1.92187,0 -3.04687,-1.57813 v 4.79688 h -1.39063 v -12.45313 h 1.39063 v 1.34375 q 0.48437,-0.6875 1.28125,-1.125 0.8125,-0.4375 1.76562,-0.4375 1.8125,0 2.90625,1.26563 1.09375,1.26562 1.09375,3.45312 0,2.17188 -1.09375,3.45313 -1.07812,1.28125 -2.90625,1.28125 z m -0.35937,-1.25 q 1.3125,0 2.09375,-0.9375 0.79687,-0.95313 0.79687,-2.54688 0,-1.54687 -0.78125,-2.5 -0.78125,-0.96875 -2.10937,-0.96875 -0.84375,0 -1.57813,0.42188 -0.73437,0.42187 -1.10937,1.01562 v 4.0625 q 0.375,0.59375 1.10937,1.03125 0.73438,0.42188 1.57813,0.42188 z m 8.85888,1.25 q -2,0 -2,-2.10938 v -5.89062 h -1.48437 v -1.23438 h 1.48437 v -2.45312 h 1.40625 v 2.45312 h 1.82813 v 1.23438 h -1.82813 v 5.59375 q 0,0.51562 0.21875,0.84375 0.23438,0.3125 0.70313,0.3125 0.57812,0 0.9375,-0.375 l 0.42187,1.04687 q -0.57812,0.57813 -1.6875,0.57813 z m 3.9068,-10.51563 q -0.375,0 -0.65625,-0.26562 -0.28125,-0.28125 -0.28125,-0.67188 0,-0.39062 0.28125,-0.67187 0.28125,-0.28125 0.65625,-0.28125 0.39063,0 0.67188,0.28125 0.28125,0.28125 0.28125,0.67187 0,0.39063 -0.28125,0.67188 -0.28125,0.26562 -0.67188,0.26562 z m -0.6875,10.29688 v -9.01563 h 1.39063 v 9.01563 z m 15.0727,0 v -6.125 q 0,-1.85938 -1.67188,-1.85938 -0.70312,0 -1.375,0.42188 -0.65625,0.42187 -1,0.95312 v 6.60938 h -1.40625 v -6.125 q 0,-1.85938 -1.65625,-1.85938 -0.6875,0 -1.34375,0.4375 -0.65625,0.42188 -1.03125,0.96875 v 6.57813 h -1.39062 v -9.01563 h 1.39062 v 1.3125 q 0.3125,-0.54687 1.1875,-1.03125 0.89063,-0.5 1.71875,-0.5 1.04688,0 1.625,0.48438 0.59375,0.48437 0.8125,1.1875 0.45313,-0.71875 1.3125,-1.1875 0.85938,-0.48438 1.70313,-0.48438 2.51562,0 2.51562,2.71875 v 6.51563 z m 4.88672,-10.29688 q -0.375,0 -0.65625,-0.26562 -0.28125,-0.28125 -0.28125,-0.67188 0,-0.39062 0.28125,-0.67187 0.28125,-0.28125 0.65625,-0.28125 0.39062,0 0.67187,0.28125 0.28125,0.28125 0.28125,0.67187 0,0.39063 -0.28125,0.67188 -0.28125,0.26562 -0.67187,0.26562 z m -0.6875,10.29688 v -9.01563 h 1.39062 v 9.01563 z m 3.76019,0 v -1.07813 l 4.96875,-6.70312 h -4.96875 v -1.23438 h 6.79687 v 1.0625 l -5,6.73438 h 5.0625 v 1.21875 z m 13.30572,0.21875 q -2.03125,0 -3.3125,-1.3125 -1.28125,-1.32813 -1.28125,-3.42188 0,-2 1.26563,-3.35937 1.28125,-1.35938 3.17187,-1.35938 1.9375,0 3.125,1.34375 1.20313,1.34375 1.20313,3.48438 v 0.35937 h -7.29688 q 0.0781,1.375 1,2.25 0.92188,0.85938 2.25,0.85938 1.64063,0 2.78125,-1.14063 l 0.67188,0.92188 q -1.375,1.375 -3.57813,1.375 z m 2.79688,-5.29688 q 0,-1.25 -0.82813,-2.125 -0.8125,-0.875 -2.14062,-0.875 -1.25,0 -2.07813,0.875 -0.82812,0.875 -0.875,2.125 z m 3.6441,5.07813 v -9.01563 h 1.39063 v 1.45313 q 1.25,-1.64063 3,-1.64063 v 1.4375 l -0.54688,-0.0469 q -0.64062,0 -1.40625,0.45312 -0.76562,0.45313 -1.04687,0.98438 v 6.375 z"
       fill-rule="nonzero"
       id="path89" />
    <path
       fill="#000000"
       fill-opacity="0"
       d="m 655.85956,191.7336 v -63.91464 h -298.9921 v 24.9855"
       fill-rule="evenodd"
       id="path91" />
    <path
       stroke="#ff5252"
       stroke-width="2"
       stroke-linejoin="round"
       stroke-linecap="butt"
       d="m 655.85956,191.7336 v -63.91463 h -298.9921 v 12.98549"
       fill-rule="evenodd"
       id="path93" />
    <path
       fill="#ff5252"
       stroke="#ff5252"
       stroke-width="2"
       stroke-linecap="butt"
       d="m 353.564,140.80446 3.30347,9.0762 3.30346,-9.0762 z"
       fill-rule="evenodd"
       id="path95" />
    <path
       fill="#000000"
       fill-opacity="0"
       d="m 624.0302,368.0328 h 31.84247 v -98.04724"
       fill-rule="evenodd"
       id="path97" />
    <path
       stroke="#ff5252"
       stroke-width="2"
       stroke-linejoin="round"
       stroke-linecap="butt"
       d="m 624.0302,368.0328 h 31.84247 v -86.04724"
       fill-rule="evenodd"
       id="path99" />
    <path
       fill="#ff5252"
       stroke="#ff5252"
       stroke-width="2"
       stroke-linecap="butt"
       d="m 659.17615,281.98557 -3.30347,-9.0762 -3.30346,9.0762 z"
       fill-rule="evenodd"
       id="path101" />
  </g>
</svg>
