<?xml version="1.0" encoding="UTF-8" standalone="no"?>
<svg
   version="1.1"
   viewBox="0 0 420.55774 419.47241"
   fill="none"
   stroke="none"
   stroke-linecap="square"
   stroke-miterlimit="10"
   id="svg117"
   sodipodi:docname="dynamic_verif.svg"
   width="420.55774"
   height="419.47241"
   inkscape:version="1.2.1 (9c6d41e410, 2022-07-14, custom)"
   xmlns:inkscape="http://www.inkscape.org/namespaces/inkscape"
   xmlns:sodipodi="http://sodipodi.sourceforge.net/DTD/sodipodi-0.dtd"
   xmlns="http://www.w3.org/2000/svg"
   xmlns:svg="http://www.w3.org/2000/svg">
  <defs
     id="defs121" />
  <sodipodi:namedview
     id="namedview119"
     pagecolor="#ffffff"
     bordercolor="#000000"
     borderopacity="0.25"
     inkscape:showpageshadow="2"
     inkscape:pageopacity="0.0"
     inkscape:pagecheckerboard="0"
     inkscape:deskcolor="#d1d1d1"
     showgrid="false"
     inkscape:zoom="2.0055556"
     inkscape:cx="211.16343"
     inkscape:cy="209.66759"
     inkscape:window-width="3840"
     inkscape:window-height="2093"
     inkscape:window-x="0"
     inkscape:window-y="30"
     inkscape:window-maximized="1"
     inkscape:current-layer="svg117" />
  <clipPath
     id="g1b5d99ba5e3_0_43.0">
    <path
       d="M 0,0 H 960 V 540 H 0 Z"
       clip-rule="nonzero"
       id="path2" />
  </clipPath>
  <g
     clip-path="url(#g1b5d99ba5e3_0_43.0)"
     id="g115"
     transform="translate(-269.47113,-60.263782)">
    <path
       fill="#202729"
       d="m 403.22964,156.85231 v 0 c 0,-16.89357 13.69498,-30.58853 30.58856,-30.58853 h 225.1221 c 8.11261,0 15.89295,3.22272 21.6294,8.95918 5.73645,5.73645 8.95916,13.51677 8.95916,21.62935 v 122.35048 c 0,16.89359 -13.69494,30.58856 -30.58856,30.58856 H 433.8182 c -16.89358,0 -30.58856,-13.69497 -30.58856,-30.58856 z"
       fill-rule="evenodd"
       id="path7" />
    <path
       stroke="#4ba173"
       stroke-width="1"
       stroke-linejoin="round"
       stroke-linecap="butt"
       d="m 403.22964,156.85231 v 0 c 0,-16.89357 13.69498,-30.58853 30.58856,-30.58853 h 225.1221 c 8.11261,0 15.89295,3.22272 21.6294,8.95918 5.73645,5.73645 8.95916,13.51677 8.95916,21.62935 v 122.35048 c 0,16.89359 -13.69494,30.58856 -30.58856,30.58856 H 433.8182 c -16.89358,0 -30.58856,-13.69497 -30.58856,-30.58856 z"
       fill-rule="evenodd"
       id="path9" />
    <path
       fill="#ffffff"
       d="m 534.37494,229.74756 -5.4375,-8.48438 h -4.25 v 8.48438 h -2.65625 v -21.34375 h 8.57813 q 3,0 4.84375,1.79687 1.84375,1.78125 1.84375,4.64063 0,2.6875 -1.5625,4.34375 -1.54688,1.64062 -3.98438,1.85937 l 5.76563,8.70313 z m -4.09375,-10.8125 q 1.92188,0 3.09375,-1.14063 1.17188,-1.14062 1.17188,-2.95312 0,-1.82813 -1.17188,-2.9375 -1.17187,-1.125 -3.09375,-1.125 h -5.59375 v 8.15625 z m 16.1673,10.8125 v -18.96875 h -6.75 v -2.375 h 16.1875 v 2.375 h -6.78125 v 18.96875 z m 12.9588,0 v -21.34375 h 2.65625 v 18.96875 h 9.92187 v 2.375 z"
       fill-rule="nonzero"
       id="path11" />
    <path
       fill="#63d297"
       d="m 369.06693,198.75984 h 47.13385 v -5.85039 l 11.70081,11.70078 -11.70081,11.70079 v -5.85039 h -47.13385 z"
       fill-rule="evenodd"
       id="path13" />
    <path
       stroke="#353744"
       stroke-width="1"
       stroke-linejoin="round"
       stroke-linecap="butt"
       d="m 369.06693,198.75984 h 47.13385 v -5.85039 l 11.70081,11.70078 -11.70081,11.70079 v -5.85039 h -47.13385 z"
       fill-rule="evenodd"
       id="path15" />
    <path
       fill="#63d297"
       d="m 427.9042,237.44226 h -47.13385 v 5.85039 l -11.70081,-11.70079 11.70081,-11.70078 v 5.85039 h 47.13385 z"
       fill-rule="evenodd"
       id="path17" />
    <path
       stroke="#353744"
       stroke-width="1"
       stroke-linejoin="round"
       stroke-linecap="butt"
       d="m 427.9042,237.44226 h -47.13385 v 5.85039 l -11.70081,-11.70079 11.70081,-11.70078 v 5.85039 h 47.13385 z"
       fill-rule="evenodd"
       id="path19" />
    <path
       fill="#4ba173"
       d="m 448.63123,190.21129 12.33859,-49.35434 h 183.1575 l -12.33862,49.35434 z"
       fill-rule="evenodd"
       id="path21" />
    <path
       stroke="#202729"
       stroke-width="1"
       stroke-linejoin="round"
       stroke-linecap="butt"
       d="m 448.63123,190.21129 12.33859,-49.35434 h 183.1575 l -12.33862,49.35434 z"
       fill-rule="evenodd"
       id="path23" />
    <path
       fill="#ffffff"
       d="m 494.17886,172.45412 -3.17188,-4.9375 h -2.48437 v 4.9375 h -1.54688 v -12.4375 h 5 q 1.75,0 2.82813,1.04687 1.07812,1.03125 1.07812,2.70313 0,1.5625 -0.90625,2.53125 -0.90625,0.95312 -2.32812,1.07812 l 3.35937,5.07813 z m -2.39063,-6.3125 q 1.125,0 1.79688,-0.65625 0.6875,-0.65625 0.6875,-1.71875 0,-1.0625 -0.6875,-1.71875 -0.67188,-0.65625 -1.79688,-0.65625 h -3.26562 v 4.75 z m 9.42197,6.3125 v -11.0625 h -3.9375 v -1.375 h 9.4375 v 1.375 h -3.95312 v 11.0625 z m 7.55594,0 v -12.4375 h 1.54688 v 11.0625 h 5.78128 v 1.375 z m 23.20303,0 -1.09375,-2.76563 h -6.1875 l -1.10937,2.76563 h -1.76563 l 5,-12.4375 h 1.92188 l 5.01562,12.4375 z m -4.1875,-10.84375 -2.65625,6.70312 h 5.28125 z m 10.3852,11.0625 q -2.29688,0 -3.64063,-1.40625 l 0.73438,-1.01563 q 0.45312,0.53125 1.23437,0.90625 0.79688,0.375 1.73438,0.375 1.04687,0 1.57812,-0.4375 0.54688,-0.4375 0.54688,-1.10937 0,-0.59375 -0.59375,-0.9375 -0.57813,-0.34375 -2.1875,-0.71875 -1.35938,-0.28125 -2.07813,-0.875 -0.71875,-0.60938 -0.71875,-1.64063 0,-1.14062 0.90625,-1.85937 0.92188,-0.73438 2.45313,-0.73438 2.03125,0 3.34375,1.3125 l -0.65625,0.96875 q -0.40625,-0.48437 -1.10938,-0.8125 -0.70312,-0.32812 -1.57812,-0.32812 -0.9375,0 -1.46875,0.40625 -0.53125,0.40625 -0.53125,1.01562 0,0.53125 0.59375,0.85938 0.60937,0.3125 2.20312,0.64062 1.35938,0.32813 2.0625,0.96875 0.71875,0.64063 0.71875,1.70313 0,1.25 -0.96875,1.98437 -0.96875,0.73438 -2.57812,0.73438 z m 8.67511,0 q -2.29688,0 -3.64063,-1.40625 l 0.73438,-1.01563 q 0.45312,0.53125 1.23437,0.90625 0.79688,0.375 1.73438,0.375 1.04687,0 1.57812,-0.4375 0.54688,-0.4375 0.54688,-1.10937 0,-0.59375 -0.59375,-0.9375 -0.57813,-0.34375 -2.1875,-0.71875 -1.35938,-0.28125 -2.07813,-0.875 -0.71875,-0.60938 -0.71875,-1.64063 0,-1.14062 0.90625,-1.85937 0.92188,-0.73438 2.45313,-0.73438 2.03125,0 3.34375,1.3125 l -0.65625,0.96875 q -0.40625,-0.48437 -1.10938,-0.8125 -0.70312,-0.32812 -1.57812,-0.32812 -0.9375,0 -1.46875,0.40625 -0.53125,0.40625 -0.53125,1.01562 0,0.53125 0.59375,0.85938 0.60937,0.3125 2.20312,0.64062 1.35938,0.32813 2.0625,0.96875 0.71875,0.64063 0.71875,1.70313 0,1.25 -0.96875,1.98437 -0.96875,0.73438 -2.57812,0.73438 z m 9.89392,0 q -2.03125,0 -3.3125,-1.3125 -1.28125,-1.32813 -1.28125,-3.42188 0,-2 1.26562,-3.35937 1.28125,-1.35938 3.17188,-1.35938 1.9375,0 3.125,1.34375 1.20312,1.34375 1.20312,3.48438 v 0.35937 h -7.29687 q 0.0781,1.375 1,2.25 0.92187,0.85938 2.25,0.85938 1.64062,0 2.78125,-1.14063 l 0.67187,0.92188 q -1.375,1.375 -3.57812,1.375 z m 2.79687,-5.29688 q 0,-1.25 -0.82812,-2.125 -0.8125,-0.875 -2.14063,-0.875 -1.25,0 -2.07812,0.875 -0.82813,0.875 -0.875,2.125 z m 3.64411,5.07813 v -9.01563 h 1.39062 v 1.45313 q 1.25,-1.64063 3,-1.64063 v 1.4375 l -0.54687,-0.0469 q -0.64063,0 -1.40625,0.45312 -0.76563,0.45313 -1.04688,0.98438 v 6.375 z m 8.42218,0.21875 q -2,0 -2,-2.10938 v -5.89062 h -1.48438 v -1.23438 h 1.48438 v -2.45312 h 1.40625 v 2.45312 h 1.82812 v 1.23438 h -1.82812 v 5.59375 q 0,0.51562 0.21875,0.84375 0.23437,0.3125 0.70312,0.3125 0.57813,0 0.9375,-0.375 l 0.42188,1.04687 q -0.57813,0.57813 -1.6875,0.57813 z m 3.9068,-10.51563 q -0.375,0 -0.65625,-0.26562 -0.28125,-0.28125 -0.28125,-0.67188 0,-0.39062 0.28125,-0.67187 0.28125,-0.28125 0.65625,-0.28125 0.39062,0 0.67187,0.28125 0.28125,0.28125 0.28125,0.67187 0,0.39063 -0.28125,0.67188 -0.28125,0.26562 -0.67187,0.26562 z m -0.6875,10.29688 v -9.01563 h 1.39062 v 9.01563 z m 8.11956,0.21875 q -1.95312,0 -3.20312,-1.32813 -1.25,-1.32812 -1.25,-3.40625 0,-2.09375 1.25,-3.40625 1.25,-1.3125 3.20312,-1.3125 1.96875,0 3.21875,1.3125 1.25,1.3125 1.25,3.40625 0,2.07813 -1.25,3.40625 -1.25,1.32813 -3.21875,1.32813 z m 0,-1.25 q 1.3125,0 2.15625,-0.96875 0.84375,-0.98438 0.84375,-2.51563 0,-1.51562 -0.84375,-2.48437 -0.84375,-0.98438 -2.15625,-0.98438 -1.29687,0 -2.15625,0.96875 -0.84375,0.96875 -0.84375,2.5 0,1.54688 0.84375,2.51563 0.84375,0.96875 2.15625,0.96875 z m 12.82764,1.03125 v -5.89063 q 0,-1.20312 -0.5625,-1.64062 -0.54687,-0.45313 -1.45312,-0.45313 -0.78125,0 -1.54688,0.42188 -0.75,0.42187 -1.125,0.98437 v 6.57813 h -1.39062 v -9.01563 h 1.39062 v 1.3125 q 0.57813,-0.67187 1.42188,-1.09375 0.85937,-0.4375 1.78125,-0.4375 2.875,0 2.875,2.90625 v 6.32813 z m 7.04523,0.21875 q -2.29688,0 -3.64063,-1.40625 l 0.73438,-1.01563 q 0.45312,0.53125 1.23437,0.90625 0.79688,0.375 1.73438,0.375 1.04687,0 1.57812,-0.4375 0.54688,-0.4375 0.54688,-1.10937 0,-0.59375 -0.59375,-0.9375 -0.57813,-0.34375 -2.1875,-0.71875 -1.35938,-0.28125 -2.07813,-0.875 -0.71875,-0.60938 -0.71875,-1.64063 0,-1.14062 0.90625,-1.85937 0.92188,-0.73438 2.45313,-0.73438 2.03125,0 3.34375,1.3125 l -0.65625,0.96875 q -0.40625,-0.48437 -1.10938,-0.8125 -0.70312,-0.32812 -1.57812,-0.32812 -0.9375,0 -1.46875,0.40625 -0.53125,0.40625 -0.53125,1.01562 0,0.53125 0.59375,0.85938 0.60937,0.3125 2.20312,0.64062 1.35938,0.32813 2.0625,0.96875 0.71875,0.64063 0.71875,1.70313 0,1.25 -0.96875,1.98437 -0.96875,0.73438 -2.57812,0.73438 z"
       fill-rule="nonzero"
       id="path25" />
    <path
       fill="#4ba173"
       d="m 345.8071,349.17728 v 0 c 0,-3.40652 2.76154,-6.16809 6.16809,-6.16809 h 93.01813 c 1.6359,0 3.20477,0.64984 4.36151,1.80661 1.15674,1.15674 1.80658,2.72562 1.80658,4.36148 v 24.67169 c 0,3.40653 -2.76153,6.16809 -6.16809,6.16809 h -93.01813 c -3.40655,0 -6.16809,-2.76156 -6.16809,-6.16809 z"
       fill-rule="evenodd"
       id="path27" />
    <path
       stroke="#4ba173"
       stroke-width="2"
       stroke-linejoin="round"
       stroke-linecap="butt"
       d="m 345.8071,349.17728 v 0 c 0,-3.40652 2.76154,-6.16809 6.16809,-6.16809 h 93.01813 c 1.6359,0 3.20477,0.64984 4.36151,1.80661 1.15674,1.15674 1.80658,2.72562 1.80658,4.36148 v 24.67169 c 0,3.40653 -2.76153,6.16809 -6.16809,6.16809 h -93.01813 c -3.40655,0 -6.16809,-2.76156 -6.16809,-6.16809 z"
       fill-rule="evenodd"
       id="path29" />
    <path
       fill="#ffffff"
       d="m 379.30078,368.43314 v -10.25 l -4.23438,10.25 h -0.64062 l -4.21875,-10.25 v 10.25 h -1.54688 v -12.4375 h 2.21875 l 3.85938,9.35937 3.89062,-9.35937 h 2.21875 v 12.4375 z m 8.3273,0.21875 q -1.95312,0 -3.20312,-1.32813 -1.25,-1.32812 -1.25,-3.40625 0,-2.09375 1.25,-3.40625 1.25,-1.3125 3.20312,-1.3125 1.96875,0 3.21875,1.3125 1.25,1.3125 1.25,3.40625 0,2.07813 -1.25,3.40625 -1.25,1.32813 -3.21875,1.32813 z m 0,-1.25 q 1.3125,0 2.15625,-0.96875 0.84375,-0.98438 0.84375,-2.51563 0,-1.51562 -0.84375,-2.48437 -0.84375,-0.98438 -2.15625,-0.98438 -1.29687,0 -2.15625,0.96875 -0.84375,0.96875 -0.84375,2.5 0,1.54688 0.84375,2.51563 0.84375,0.96875 2.15625,0.96875 z m 12.82761,1.03125 v -5.89063 q 0,-1.20312 -0.5625,-1.64062 -0.54688,-0.45313 -1.45313,-0.45313 -0.78125,0 -1.54687,0.42188 -0.75,0.42187 -1.125,0.98437 v 6.57813 h -1.39063 v -9.01563 h 1.39063 v 1.3125 q 0.57812,-0.67187 1.42187,-1.09375 0.85938,-0.4375 1.78125,-0.4375 2.875,0 2.875,2.90625 v 6.32813 z m 4.88897,-10.29688 q -0.375,0 -0.65625,-0.26562 -0.28125,-0.28125 -0.28125,-0.67188 0,-0.39062 0.28125,-0.67187 0.28125,-0.28125 0.65625,-0.28125 0.39063,0 0.67188,0.28125 0.28125,0.28125 0.28125,0.67187 0,0.39063 -0.28125,0.67188 -0.28125,0.26562 -0.67188,0.26562 z m -0.6875,10.29688 v -9.01563 h 1.39063 v 9.01563 z m 6.46329,0.21875 q -2,0 -2,-2.10938 v -5.89062 h -1.48437 v -1.23438 h 1.48437 v -2.45312 h 1.40625 v 2.45312 h 1.82813 v 1.23438 h -1.82813 v 5.59375 q 0,0.51562 0.21875,0.84375 0.23438,0.3125 0.70313,0.3125 0.57812,0 0.9375,-0.375 l 0.42187,1.04687 q -0.57812,0.57813 -1.6875,0.57813 z m 7.14121,0 q -1.95313,0 -3.20313,-1.32813 -1.25,-1.32812 -1.25,-3.40625 0,-2.09375 1.25,-3.40625 1.25,-1.3125 3.20313,-1.3125 1.96875,0 3.21875,1.3125 1.25,1.3125 1.25,3.40625 0,2.07813 -1.25,3.40625 -1.25,1.32813 -3.21875,1.32813 z m 0,-1.25 q 1.3125,0 2.15625,-0.96875 0.84375,-0.98438 0.84375,-2.51563 0,-1.51562 -0.84375,-2.48437 -0.84375,-0.98438 -2.15625,-0.98438 -1.29688,0 -2.15625,0.96875 -0.84375,0.96875 -0.84375,2.5 0,1.54688 0.84375,2.51563 0.84375,0.96875 2.15625,0.96875 z m 6.74948,1.03125 v -9.01563 h 1.39062 v 1.45313 q 1.25,-1.64063 3,-1.64063 v 1.4375 l -0.54687,-0.0469 q -0.64063,0 -1.40625,0.45312 -0.76563,0.45313 -1.04688,0.98438 v 6.375 z"
       fill-rule="nonzero"
       id="path31" />
    <path
       fill="#4ba173"
       d="m 284.67584,133.37022 v 0 c 0,-3.81824 3.09531,-6.91353 6.91354,-6.91353 h 91.52728 c 1.83356,0 3.59204,0.72839 4.88858,2.02492 1.29654,1.29654 2.02494,3.05502 2.02494,4.88861 v 27.65326 c 0,3.81824 -3.09528,6.91353 -6.91352,6.91353 h -91.52728 v 0 c -3.81823,0 -6.91354,-3.09529 -6.91354,-6.91353 z"
       fill-rule="evenodd"
       id="path33" />
    <path
       stroke="#4ba173"
       stroke-width="2"
       stroke-linejoin="round"
       stroke-linecap="butt"
       d="m 284.67584,133.37022 v 0 c 0,-3.81824 3.09531,-6.91353 6.91354,-6.91353 h 91.52728 c 1.83356,0 3.59204,0.72839 4.88858,2.02492 1.29654,1.29654 2.02494,3.05502 2.02494,4.88861 v 27.65326 c 0,3.81824 -3.09528,6.91353 -6.91352,6.91353 h -91.52728 v 0 c -3.81823,0 -6.91354,-3.09529 -6.91354,-6.91353 z"
       fill-rule="evenodd"
       id="path35" />
    <path
       fill="#ffffff"
       d="m 305.7022,154.3356 q -3,0 -4.78125,-1.96875 l 0.92187,-1.17188 q 0.76563,0.84375 1.78125,1.3125 1.03125,0.45313 2.14063,0.45313 1.34375,0 2.125,-0.59375 0.79687,-0.59375 0.79687,-1.54688 0,-1.48437 -2.3125,-2.10937 -2.73437,-0.73438 -3.5,-1.15625 -0.75,-0.4375 -1.15625,-1.07813 -0.40625,-0.64062 -0.40625,-1.53125 0,-1.5 1.20313,-2.46875 1.20312,-0.98437 3.07812,-0.98437 2.79688,0 4.42188,1.73437 l -0.9375,1.14063 q -1.34375,-1.5 -3.59375,-1.5 -1.125,0 -1.84375,0.54687 -0.71875,0.53125 -0.71875,1.4375 0,0.64063 0.59375,1.10938 0.60937,0.45312 1.73437,0.73437 2.65625,0.71875 3.42188,1.1875 0.78125,0.46875 1.20312,1.15625 0.42188,0.67188 0.42188,1.64063 0,1.71875 -1.25,2.6875 -1.25,0.96875 -3.34375,0.96875 z m 8.80273,0 q -2,0 -2,-2.10938 v -5.89062 h -1.48437 v -1.23438 h 1.48437 v -2.45312 h 1.40625 v 2.45312 h 1.82813 v 1.23438 h -1.82813 v 5.59375 q 0,0.51562 0.21875,0.84375 0.23438,0.3125 0.70313,0.3125 0.57812,0 0.9375,-0.375 l 0.42187,1.04687 q -0.57812,0.57813 -1.6875,0.57813 z m 3.9068,-10.51563 q -0.375,0 -0.65625,-0.26562 -0.28125,-0.28125 -0.28125,-0.67188 0,-0.39062 0.28125,-0.67187 0.28125,-0.28125 0.65625,-0.28125 0.39063,0 0.67188,0.28125 0.28125,0.28125 0.28125,0.67187 0,0.39063 -0.28125,0.67188 -0.28125,0.26562 -0.67188,0.26562 z m -0.6875,10.29688 v -9.01563 h 1.39063 v 9.01563 z m 15.07267,0 v -6.125 q 0,-1.85938 -1.67188,-1.85938 -0.70312,0 -1.375,0.42188 -0.65625,0.42187 -1,0.95312 v 6.60938 h -1.40625 v -6.125 q 0,-1.85938 -1.65625,-1.85938 -0.6875,0 -1.34375,0.4375 -0.65625,0.42188 -1.03125,0.96875 v 6.57813 h -1.39062 v -9.01563 h 1.39062 v 1.3125 q 0.3125,-0.54687 1.1875,-1.03125 0.89063,-0.5 1.71875,-0.5 1.04688,0 1.625,0.48438 0.59375,0.48437 0.8125,1.1875 0.45313,-0.71875 1.3125,-1.1875 0.85938,-0.48438 1.70313,-0.48438 2.51562,0 2.51562,2.71875 v 6.51563 z m 14.95007,0.25 q -2.73438,0 -4.5625,-1.84375 -1.82813,-1.84375 -1.82813,-4.625 0,-2.8125 1.82813,-4.625 1.84375,-1.8125 4.5625,-1.8125 2.9375,0 4.84375,2.34375 l -1.23438,0.76562 q -0.59375,-0.76562 -1.54687,-1.23437 -0.9375,-0.48438 -2.0625,-0.48438 -2.0625,0 -3.42188,1.4375 -1.35937,1.4375 -1.35937,3.60938 0,2.20312 1.35937,3.64062 1.375,1.4375 3.42188,1.4375 0.9375,0 1.82812,-0.35937 0.90625,-0.35938 1.51563,-0.98438 v -2.53125 h -4.26563 v -1.39062 h 5.8125 v 4.5 q -1.9375,2.15625 -4.89062,2.15625 z m 11.42691,-0.0312 q -2.03125,0 -3.3125,-1.3125 -1.28125,-1.32813 -1.28125,-3.42188 0,-2 1.26562,-3.35937 1.28125,-1.35938 3.17188,-1.35938 1.9375,0 3.125,1.34375 1.20312,1.34375 1.20312,3.48438 v 0.35937 h -7.29687 q 0.0781,1.375 1,2.25 0.92187,0.85938 2.25,0.85938 1.64062,0 2.78125,-1.14063 l 0.67187,0.92188 q -1.375,1.375 -3.57812,1.375 z m 2.79687,-5.29688 q 0,-1.25 -0.82812,-2.125 -0.8125,-0.875 -2.14063,-0.875 -1.25,0 -2.07812,0.875 -0.82813,0.875 -0.875,2.125 z m 9.7222,5.07813 v -5.89063 q 0,-1.20312 -0.5625,-1.64062 -0.54687,-0.45313 -1.45312,-0.45313 -0.78125,0 -1.54688,0.42188 -0.75,0.42187 -1.125,0.98437 v 6.57813 h -1.39062 v -9.01563 h 1.39062 v 1.3125 q 0.57813,-0.67187 1.42188,-1.09375 0.85937,-0.4375 1.78125,-0.4375 2.875,0 2.875,2.90625 v 6.32813 z"
       fill-rule="nonzero"
       id="path37" />
    <path
       fill="#4ba173"
       d="m 501.7966,349.17728 v 0 c 0,-3.40652 2.76154,-6.16809 6.16809,-6.16809 h 93.0181 c 1.63593,0 3.20477,0.64984 4.36151,1.80661 1.15674,1.15674 1.80664,2.72562 1.80664,4.36148 v 24.67169 c 0,3.40653 -2.76159,6.16809 -6.16815,6.16809 h -93.0181 c -3.40655,0 -6.16809,-2.76156 -6.16809,-6.16809 z"
       fill-rule="evenodd"
       id="path39" />
    <path
       stroke="#4ba173"
       stroke-width="2"
       stroke-linejoin="round"
       stroke-linecap="butt"
       d="m 501.7966,349.17728 v 0 c 0,-3.40652 2.76154,-6.16809 6.16809,-6.16809 h 93.0181 c 1.63593,0 3.20477,0.64984 4.36151,1.80661 1.15674,1.15674 1.80664,2.72562 1.80664,4.36148 v 24.67169 c 0,3.40653 -2.76159,6.16809 -6.16815,6.16809 h -93.0181 c -3.40655,0 -6.16809,-2.76156 -6.16809,-6.16809 z"
       fill-rule="evenodd"
       id="path41" />
    <path
       fill="#ffffff"
       d="m 521.4224,368.43314 v -11.0625 h -3.9375 v -1.375 h 9.4375 v 1.375 h -3.95312 v 11.0625 z m 5.92236,0 v -9.01563 h 1.39063 v 1.45313 q 1.25,-1.64063 3,-1.64063 v 1.4375 l -0.54688,-0.0469 q -0.64062,0 -1.40625,0.45312 -0.76562,0.45313 -1.04687,0.98438 v 6.375 z m 11.78162,0 v -1.03125 q -1.14063,1.25 -2.98438,1.25 -1.35937,0 -2.26562,-0.85938 -0.89063,-0.85937 -0.89063,-2.125 0,-1.29687 0.89063,-2.125 0.89062,-0.84375 2.26562,-0.84375 1.9375,0 2.98438,1.23438 v -1.625 q 0,-0.90625 -0.64063,-1.39063 -0.64062,-0.5 -1.64062,-0.5 -1.57813,0 -2.75,1.25 l -0.65625,-0.98437 q 1.4375,-1.48438 3.59375,-1.48438 1.67187,0 2.57812,0.8125 0.92188,0.79688 0.92188,2.23438 v 6.1875 z m -2.48438,-0.78125 q 1.67188,0 2.48438,-1.125 v -1.6875 q -0.8125,-1.125 -2.48438,-1.125 -0.98437,0 -1.60937,0.54687 -0.60938,0.54688 -0.60938,1.42188 0,0.85937 0.60938,1.42187 0.625,0.54688 1.60937,0.54688 z m 10.65998,1 q -1.98438,0 -3.25,-1.34375 -1.25,-1.34375 -1.25,-3.39063 0,-2.03125 1.25,-3.375 1.26562,-1.34375 3.25,-1.34375 2.09375,0 3.29687,1.5625 l -0.92187,0.85938 q -0.85938,-1.17188 -2.29688,-1.17188 -1.39062,0 -2.26562,0.96875 -0.85938,0.95313 -0.85938,2.5 0,1.5625 0.85938,2.53125 0.85937,0.95313 2.26562,0.95313 1.40625,0 2.29688,-1.17188 l 0.92187,0.85938 q -1.20312,1.5625 -3.29687,1.5625 z m 9.32855,0 q -2.03125,0 -3.3125,-1.3125 -1.28125,-1.32813 -1.28125,-3.42188 0,-2 1.26562,-3.35937 1.28125,-1.35938 3.17188,-1.35938 1.9375,0 3.125,1.34375 1.20312,1.34375 1.20312,3.48438 v 0.35937 h -7.29687 q 0.0781,1.375 1,2.25 0.92187,0.85938 2.25,0.85938 1.64062,0 2.78125,-1.14063 l 0.67187,0.92188 q -1.375,1.375 -3.57812,1.375 z m 2.79687,-5.29688 q 0,-1.25 -0.82812,-2.125 -0.8125,-0.875 -2.14063,-0.875 -1.25,0 -2.07812,0.875 -0.82813,0.875 -0.875,2.125 z m 8.4574,5.07813 v -12.4375 h 1.39063 v 12.4375 z m 8.11957,0.21875 q -1.95313,0 -3.20313,-1.32813 -1.25,-1.32812 -1.25,-3.40625 0,-2.09375 1.25,-3.40625 1.25,-1.3125 3.20313,-1.3125 1.96875,0 3.21875,1.3125 1.25,1.3125 1.25,3.40625 0,2.07813 -1.25,3.40625 -1.25,1.32813 -3.21875,1.32813 z m 0,-1.25 q 1.3125,0 2.15625,-0.96875 0.84375,-0.98438 0.84375,-2.51563 0,-1.51562 -0.84375,-2.48437 -0.84375,-0.98438 -2.15625,-0.98438 -1.29688,0 -2.15625,0.96875 -0.84375,0.96875 -0.84375,2.5 0,1.54688 0.84375,2.51563 0.84375,0.96875 2.15625,0.96875 z m 10.35889,4.6875 q -1.15625,0 -2,-0.28125 -0.82813,-0.28125 -1.64063,-1.0625 l 0.71875,-1.04688 q 0.5625,0.67188 1.25,0.95313 0.70313,0.28125 1.67188,0.28125 1.39062,0 2.14062,-0.71875 0.75,-0.71875 0.75,-1.98438 v -1.29687 q -0.48437,0.70312 -1.28125,1.15625 -0.78125,0.45312 -1.73437,0.45312 -1.82813,0 -2.92188,-1.28125 -1.09375,-1.29687 -1.09375,-3.375 0,-2.17187 1.10938,-3.42187 1.10937,-1.26563 2.90625,-1.26563 1.85937,0 3.01562,1.57813 v -1.35938 h 1.40625 v 8.75 q 0,1.90625 -1.125,2.90625 -1.10937,1.01563 -3.17187,1.01563 z m 0.20312,-4.78125 q 0.76563,0 1.51563,-0.40625 0.76562,-0.40625 1.17187,-1.0625 v -3.9375 q -0.40625,-0.65625 -1.17187,-1.04688 -0.76563,-0.40625 -1.51563,-0.40625 -1.3125,0 -2.10937,0.95313 -0.78125,0.95312 -0.78125,2.48437 0,1.54688 0.79687,2.48438 0.8125,0.9375 2.09375,0.9375 z"
       fill-rule="nonzero"
       id="path43" />
    <path
       fill="#202729"
       d="m 369.06955,410.6 v 0 c 0,-7.52631 6.10129,-13.62756 13.62756,-13.62756 h 198.60312 c 3.61426,0 7.08051,1.43576 9.63617,3.99142 2.55567,2.55567 3.9914,6.02188 3.9914,9.63614 v 54.50864 c 0,7.5263 -6.10126,13.62756 -13.62757,13.62756 H 382.69711 c -7.52627,0 -13.62756,-6.10126 -13.62756,-13.62756 z"
       fill-rule="evenodd"
       id="path45" />
    <path
       stroke="#4ba173"
       stroke-width="2"
       stroke-linejoin="round"
       stroke-linecap="butt"
       d="m 369.06955,410.6 v 0 c 0,-7.52631 6.10129,-13.62756 13.62756,-13.62756 h 198.60312 c 3.61426,0 7.08051,1.43576 9.63617,3.99142 2.55567,2.55567 3.9914,6.02188 3.9914,9.63614 v 54.50864 c 0,7.5263 -6.10126,13.62756 -13.62757,13.62756 H 382.69711 c -7.52627,0 -13.62756,-6.10126 -13.62756,-13.62756 z"
       fill-rule="evenodd"
       id="path47" />
    <path
       fill="#ffffff"
       d="m 454.92166,428.10257 q -2.73438,0 -4.5625,-1.79687 -1.82813,-1.8125 -1.82813,-4.64063 0,-2.8125 1.82813,-4.625 1.82812,-1.8125 4.5625,-1.8125 2.96875,0 4.73437,2.46875 l -1.3125,0.73438 q -0.54687,-0.79688 -1.45312,-1.29688 -0.90625,-0.51562 -1.96875,-0.51562 -2.0625,0 -3.42188,1.4375 -1.35937,1.4375 -1.35937,3.60937 0,2.20313 1.34375,3.64063 1.35937,1.42187 3.4375,1.42187 1.0625,0 1.96875,-0.5 0.90625,-0.51562 1.45312,-1.3125 l 1.32813,0.73438 q -1.8125,2.45312 -4.75,2.45312 z m 12.76788,-0.21875 v -5.9375 q 0,-1 -0.48437,-1.51562 -0.46875,-0.53125 -1.54688,-0.53125 -0.76562,0 -1.48437,0.39062 -0.71875,0.39063 -1.1875,1.01563 v 6.57812 h -1.39063 v -12.4375 h 1.39063 v 4.73438 q 0.59375,-0.6875 1.45312,-1.10938 0.85938,-0.42187 1.78125,-0.42187 2.875,0 2.875,2.875 v 6.35937 z m 8.267,0.21875 q -2.03125,0 -3.3125,-1.3125 -1.28125,-1.32812 -1.28125,-3.42187 0,-2 1.26563,-3.35938 1.28125,-1.35937 3.17187,-1.35937 1.9375,0 3.125,1.34375 1.20313,1.34375 1.20313,3.48437 v 0.35938 h -7.29688 q 0.0781,1.375 1,2.25 0.92188,0.85937 2.25,0.85937 1.64063,0 2.78125,-1.14062 l 0.67188,0.92187 q -1.375,1.375 -3.57813,1.375 z m 2.79688,-5.29687 q 0,-1.25 -0.82813,-2.125 -0.8125,-0.875 -2.14062,-0.875 -1.25,0 -2.07813,0.875 -0.82812,0.875 -0.875,2.125 z m 7.61285,5.29687 q -1.98438,0 -3.25,-1.34375 -1.25,-1.34375 -1.25,-3.39062 0,-2.03125 1.25,-3.375 1.26562,-1.34375 3.25,-1.34375 2.09375,0 3.29687,1.5625 l -0.92187,0.85937 q -0.85938,-1.17187 -2.29688,-1.17187 -1.39062,0 -2.26562,0.96875 -0.85938,0.95312 -0.85938,2.5 0,1.5625 0.85938,2.53125 0.85937,0.95312 2.26562,0.95312 1.40625,0 2.29688,-1.17187 l 0.92187,0.85937 q -1.20312,1.5625 -3.29687,1.5625 z m 11.39108,-0.21875 -3.23437,-4.04687 -1.5,1.46875 v 2.57812 h -1.39063 v -12.4375 h 1.39063 v 8.21875 l 4.73437,-4.79687 h 1.78125 l -4,4.09375 4.01563,4.92187 z m 7.47083,0.21875 q -2.03125,0 -3.3125,-1.3125 -1.28125,-1.32812 -1.28125,-3.42187 0,-2 1.26562,-3.35938 1.28125,-1.35937 3.17188,-1.35937 1.9375,0 3.125,1.34375 1.20312,1.34375 1.20312,3.48437 v 0.35938 h -7.29687 q 0.0781,1.375 1,2.25 0.92187,0.85937 2.25,0.85937 1.64062,0 2.78125,-1.14062 l 0.67187,0.92187 q -1.375,1.375 -3.57812,1.375 z m 2.79687,-5.29687 q 0,-1.25 -0.82812,-2.125 -0.8125,-0.875 -2.14063,-0.875 -1.25,0 -2.07812,0.875 -0.82813,0.875 -0.875,2.125 z m 3.64408,5.07812 v -9.01562 h 1.39062 v 1.45312 q 1.25,-1.64062 3,-1.64062 v 1.4375 l -0.54687,-0.0469 q -0.64063,0 -1.40625,0.45313 -0.76563,0.45312 -1.04688,0.98437 v 6.375 z"
       fill-rule="nonzero"
       id="path49" />
    <path
       fill="#4ba173"
       d="m 449.10098,264.4189 v 0 c -2.07358,-4.49173 4.73447,-8.93828 17.53525,-11.45281 12.80078,-2.51451 29.3493,-2.65602 42.62344,-0.36447 v 0 c 4.70212,-2.61168 13.30832,-4.41485 23.21549,-4.86412 9.9071,-0.44926 19.95154,0.50817 27.09497,2.58269 v 0 c 4.00555,-2.36792 11.8706,-3.95886 20.8042,-4.20827 8.93359,-0.2494 17.67132,0.87801 23.11273,2.98218 v 0 c 7.23669,-2.50999 18.75043,-3.5668 29.55914,-2.71313 10.80878,0.85365 18.97119,3.46444 20.95532,6.70268 v 0 c 8.86615,0.71284 16.25147,2.52499 20.24781,4.96825 3.9964,2.44323 4.21173,5.27792 0.59045,7.77163 v 0 c 8.73059,3.34934 10.77289,7.81229 5.36475,11.72333 -5.40808,3.91107 -17.45417,6.68265 -31.64276,7.28046 -0.10004,3.67068 -6.92969,7.03885 -17.85651,8.80627 -10.92688,1.7674 -24.24463,1.65808 -34.82013,-0.28583 v 0 c -4.50458,4.39627 -17.18347,7.63102 -32.55896,8.30667 -15.37549,0.67566 -30.69116,-1.32885 -39.33008,-5.14752 v 0 c -10.58954,1.88223 -23.29614,2.42447 -35.25339,1.50434 -11.95724,-0.92014 -22.15796,-3.22507 -28.30105,-6.3949 v 0 c -10.8212,0.37323 -21.28379,-1.27933 -26.19525,-4.13754 -4.91144,-2.85825 -3.22623,-6.31369 4.2193,-8.6514 v 0 c -9.65278,-1.67465 -14.57819,-4.99768 -12.20786,-8.2363 2.37033,-3.23859 11.4993,-5.65887 22.62653,-5.99878 z"
       fill-rule="evenodd"
       id="path51" />
    <path
       fill="#000000"
       fill-opacity="0"
       d="m 438.46844,278.8271 v 0 c 4.55518,0.79028 9.81747,1.14874 15.08032,1.02731 m 6.89322,11.76191 c 2.26325,-0.0781 4.48163,-0.24338 6.59796,-0.49167 m 56.95334,5.38205 c -1.59179,-0.70362 -2.92456,-1.45551 -3.97552,-2.24283 m 75.86731,-0.91645 v 0 c 0.82129,-0.80151 1.35339,-1.62643 1.58746,-2.46099 m 51.08716,-6.05915 c 0.10651,-3.90799 -7.42389,-7.48617 -19.35657,-9.19766 m 45.6344,-9.80569 c -1.93249,1.33072 -4.88263,2.51123 -8.61908,3.44888 m -12.2174,-16.18913 v 0 c 0.32922,0.53738 0.48163,1.08284 0.45501,1.62881 m -50.96862,-5.61821 v 0 c -1.80518,0.62613 -3.29242,1.32581 -4.41541,2.07726 m -39.50195,-0.85143 v 0 c -0.96198,0.5687 -1.68036,1.17047 -2.13855,1.79147 m -48.17261,0.49001 v 0 c 2.80878,0.48489 5.40729,1.06851 7.73847,1.73804 m -67.89639,10.0793 v 0 c 0.28579,0.61908 0.73739,1.23053 1.35049,1.82861"
       fill-rule="evenodd"
       id="path53" />
    <path
       stroke="#202729"
       stroke-width="1"
       stroke-linejoin="round"
       stroke-linecap="butt"
       d="m 449.10098,264.4189 v 0 c -2.07358,-4.49173 4.73447,-8.93828 17.53525,-11.45281 12.80078,-2.51451 29.3493,-2.65602 42.62344,-0.36447 v 0 c 4.70212,-2.61168 13.30832,-4.41485 23.21549,-4.86412 9.9071,-0.44926 19.95154,0.50817 27.09497,2.58269 v 0 c 4.00555,-2.36792 11.8706,-3.95886 20.8042,-4.20827 8.93359,-0.2494 17.67132,0.87801 23.11273,2.98218 v 0 c 7.23669,-2.50999 18.75043,-3.5668 29.55914,-2.71313 10.80878,0.85365 18.97119,3.46444 20.95532,6.70268 v 0 c 8.86615,0.71284 16.25147,2.52499 20.24781,4.96825 3.9964,2.44323 4.21173,5.27792 0.59045,7.77163 v 0 c 8.73059,3.34934 10.77289,7.81229 5.36475,11.72333 -5.40808,3.91107 -17.45417,6.68265 -31.64276,7.28046 -0.10004,3.67068 -6.92969,7.03885 -17.85651,8.80627 -10.92688,1.7674 -24.24463,1.65808 -34.82013,-0.28583 v 0 c -4.50458,4.39627 -17.18347,7.63102 -32.55896,8.30667 -15.37549,0.67566 -30.69116,-1.32885 -39.33008,-5.14752 v 0 c -10.58954,1.88223 -23.29614,2.42447 -35.25339,1.50434 -11.95724,-0.92014 -22.15796,-3.22507 -28.30105,-6.3949 v 0 c -10.8212,0.37323 -21.28379,-1.27933 -26.19525,-4.13754 -4.91144,-2.85825 -3.22623,-6.31369 4.2193,-8.6514 v 0 c -9.65278,-1.67465 -14.57819,-4.99768 -12.20786,-8.2363 2.37033,-3.23859 11.4993,-5.65887 22.62653,-5.99878 z"
       fill-rule="evenodd"
       id="path55" />
    <path
       stroke="#202729"
       stroke-width="1"
       stroke-linejoin="round"
       stroke-linecap="butt"
       d="m 438.46844,278.8271 v 0 c 4.55518,0.79028 9.81747,1.14874 15.08032,1.02731 m 6.89322,11.76191 c 2.26325,-0.0781 4.48163,-0.24338 6.59796,-0.49167 m 56.95334,5.38205 c -1.59179,-0.70362 -2.92456,-1.45551 -3.97552,-2.24283 m 75.86731,-0.91645 v 0 c 0.82129,-0.80151 1.35339,-1.62643 1.58746,-2.46099 m 51.08716,-6.05915 c 0.10651,-3.90799 -7.42389,-7.48617 -19.35657,-9.19766 m 45.6344,-9.80569 c -1.93249,1.33072 -4.88263,2.51123 -8.61908,3.44888 m -12.2174,-16.18913 v 0 c 0.32922,0.53738 0.48163,1.08284 0.45501,1.62881 m -50.96862,-5.61821 v 0 c -1.80518,0.62613 -3.29242,1.32581 -4.41541,2.07726 m -39.50195,-0.85143 v 0 c -0.96198,0.5687 -1.68036,1.17047 -2.13855,1.79147 m -48.17261,0.49001 v 0 c 2.80878,0.48489 5.40729,1.06851 7.73847,1.73804 m -67.89639,10.0793 v 0 c 0.28579,0.61908 0.73739,1.23053 1.35049,1.82861"
       fill-rule="evenodd"
       id="path57" />
    <path
       fill="#ffffff"
       d="m 484.36844,279.36795 v -12.4375 h 1.54688 v 12.4375 z m 10.49008,0 v -5.89063 q 0,-1.20312 -0.5625,-1.64062 -0.54687,-0.45313 -1.45312,-0.45313 -0.78125,0 -1.54688,0.42188 -0.75,0.42187 -1.125,0.98437 v 6.57813 h -1.39062 v -9.01563 h 1.39062 v 1.3125 q 0.57813,-0.67187 1.42188,-1.09375 0.85937,-0.4375 1.78125,-0.4375 2.875,0 2.875,2.90625 v 6.32813 z m 6.4671,0.21875 q -2,0 -2,-2.10938 v -5.89062 h -1.48437 v -1.23438 h 1.48437 v -2.45312 h 1.40625 v 2.45312 H 502.56 v 1.23438 h -1.82813 v 5.59375 q 0,0.51562 0.21875,0.84375 0.23438,0.3125 0.70313,0.3125 0.57812,0 0.9375,-0.375 l 0.42187,1.04687 q -0.57812,0.57813 -1.6875,0.57813 z m 7.28183,0 q -2.03125,0 -3.3125,-1.3125 -1.28125,-1.32813 -1.28125,-3.42188 0,-2 1.26563,-3.35937 1.28125,-1.35938 3.17187,-1.35938 1.9375,0 3.125,1.34375 1.2031,1.34375 1.2031,3.48438 v 0.35937 h -7.29685 q 0.0781,1.375 1,2.25 0.92188,0.85938 2.25,0.85938 1.64063,0 2.78125,-1.14063 l 0.67185,0.92188 q -1.37497,1.375 -3.5781,1.375 z m 2.79688,-5.29688 q 0,-1.25 -0.82813,-2.125 -0.8125,-0.875 -2.14062,-0.875 -1.25,0 -2.07813,0.875 -0.82812,0.875 -0.875,2.125 z m 3.64407,5.07813 v -9.01563 h 1.39063 v 1.45313 q 1.25,-1.64063 3,-1.64063 v 1.4375 l -0.54688,-0.0469 q -0.64062,0 -1.40625,0.45312 -0.76562,0.45313 -1.04687,0.98438 v 6.375 z m 12.23468,0 v -5.89063 q 0,-1.20312 -0.5625,-1.64062 -0.54687,-0.45313 -1.45312,-0.45313 -0.78125,0 -1.54688,0.42188 -0.75,0.42187 -1.125,0.98437 v 6.57813 h -1.39062 v -9.01563 h 1.39062 v 1.3125 q 0.57813,-0.67187 1.42188,-1.09375 0.85937,-0.4375 1.78125,-0.4375 2.875,0 2.875,2.90625 v 6.32813 z m 9.82648,0 v -1.03125 q -1.14063,1.25 -2.98438,1.25 -1.35937,0 -2.26562,-0.85938 -0.89063,-0.85937 -0.89063,-2.125 0,-1.29687 0.89063,-2.125 0.89062,-0.84375 2.26562,-0.84375 1.9375,0 2.98438,1.23438 v -1.625 q 0,-0.90625 -0.64063,-1.39063 -0.64062,-0.5 -1.64062,-0.5 -1.57813,0 -2.75,1.25 l -0.65625,-0.98437 q 1.4375,-1.48438 3.59375,-1.48438 1.67187,0 2.57812,0.8125 0.92188,0.79688 0.92188,2.23438 v 6.1875 z m -2.48438,-0.78125 q 1.67188,0 2.48438,-1.125 v -1.6875 q -0.8125,-1.125 -2.48438,-1.125 -0.98437,0 -1.60937,0.54687 -0.60938,0.54688 -0.60938,1.42188 0,0.85937 0.60938,1.42187 0.625,0.54688 1.60937,0.54688 z m 6.69123,0.78125 v -12.4375 h 1.39062 v 12.4375 z m 13.08911,0.21875 q -3,0 -4.78125,-1.96875 l 0.92187,-1.17188 q 0.76563,0.84375 1.78125,1.3125 1.03125,0.45313 2.14063,0.45313 1.34375,0 2.125,-0.59375 0.79687,-0.59375 0.79687,-1.54688 0,-1.48437 -2.3125,-2.10937 -2.73437,-0.73438 -3.5,-1.15625 -0.75,-0.4375 -1.15625,-1.07813 -0.40625,-0.64062 -0.40625,-1.53125 0,-1.5 1.20313,-2.46875 1.20312,-0.98437 3.07812,-0.98437 2.79688,0 4.42188,1.73437 l -0.9375,1.14063 q -1.34375,-1.5 -3.59375,-1.5 -1.125,0 -1.84375,0.54687 -0.71875,0.53125 -0.71875,1.4375 0,0.64063 0.59375,1.10938 0.60937,0.45312 1.73437,0.73437 2.65625,0.71875 3.42188,1.1875 0.78125,0.46875 1.20312,1.15625 0.42188,0.67188 0.42188,1.64063 0,1.71875 -1.25,2.6875 -1.25,0.96875 -3.34375,0.96875 z m 7.54193,-10.51563 q -0.375,0 -0.65625,-0.26562 -0.28125,-0.28125 -0.28125,-0.67188 0,-0.39062 0.28125,-0.67187 0.28125,-0.28125 0.65625,-0.28125 0.39062,0 0.67187,0.28125 0.28125,0.28125 0.28125,0.67187 0,0.39063 -0.28125,0.67188 -0.28125,0.26562 -0.67187,0.26562 z m -0.6875,10.29688 v -9.01563 h 1.39062 v 9.01563 z m 7.80707,3.65625 q -1.15625,0 -2,-0.28125 -0.82813,-0.28125 -1.64063,-1.0625 l 0.71875,-1.04688 q 0.5625,0.67188 1.25,0.95313 0.70313,0.28125 1.67188,0.28125 1.39062,0 2.14062,-0.71875 0.75,-0.71875 0.75,-1.98438 v -1.29687 q -0.48437,0.70312 -1.28125,1.15625 -0.78125,0.45312 -1.73437,0.45312 -1.82813,0 -2.92188,-1.28125 -1.09375,-1.29687 -1.09375,-3.375 0,-2.17187 1.10938,-3.42187 1.10937,-1.26563 2.90625,-1.26563 1.85937,0 3.01562,1.57813 v -1.35938 h 1.40625 v 8.75 q 0,1.90625 -1.125,2.90625 -1.10937,1.01563 -3.17187,1.01563 z m 0.20312,-4.78125 q 0.76563,0 1.51563,-0.40625 0.76562,-0.40625 1.17187,-1.0625 v -3.9375 q -0.40625,-0.65625 -1.17187,-1.04688 -0.76563,-0.40625 -1.51563,-0.40625 -1.3125,0 -2.10937,0.95313 -0.78125,0.95312 -0.78125,2.48437 0,1.54688 0.79687,2.48438 0.8125,0.9375 2.09375,0.9375 z m 12.97431,1.125 v -5.89063 q 0,-1.20312 -0.5625,-1.64062 -0.54688,-0.45313 -1.45313,-0.45313 -0.78125,0 -1.54687,0.42188 -0.75,0.42187 -1.125,0.98437 v 6.57813 h -1.39063 v -9.01563 h 1.39063 v 1.3125 q 0.57812,-0.67187 1.42187,-1.09375 0.85938,-0.4375 1.78125,-0.4375 2.875,0 2.875,2.90625 v 6.32813 z m 9.82647,0 v -1.03125 q -1.14062,1.25 -2.98437,1.25 -1.35938,0 -2.26563,-0.85938 -0.89062,-0.85937 -0.89062,-2.125 0,-1.29687 0.89062,-2.125 0.89063,-0.84375 2.26563,-0.84375 1.9375,0 2.98437,1.23438 v -1.625 q 0,-0.90625 -0.64062,-1.39063 -0.64063,-0.5 -1.64063,-0.5 -1.57812,0 -2.75,1.25 l -0.65625,-0.98437 q 1.4375,-1.48438 3.59375,-1.48438 1.67188,0 2.57813,0.8125 0.92187,0.79688 0.92187,2.23438 v 6.1875 z m -2.48437,-0.78125 q 1.67187,0 2.48437,-1.125 v -1.6875 q -0.8125,-1.125 -2.48437,-1.125 -0.98438,0 -1.60938,0.54687 -0.60937,0.54688 -0.60937,1.42188 0,0.85937 0.60937,1.42187 0.625,0.54688 1.60938,0.54688 z m 6.69122,0.78125 v -12.4375 h 1.39063 v 12.4375 z m 7.04144,0.21875 q -2.29687,0 -3.64062,-1.40625 l 0.73437,-1.01563 q 0.45313,0.53125 1.23438,0.90625 0.79687,0.375 1.73437,0.375 1.04688,0 1.57813,-0.4375 0.54687,-0.4375 0.54687,-1.10937 0,-0.59375 -0.59375,-0.9375 -0.57812,-0.34375 -2.1875,-0.71875 -1.35937,-0.28125 -2.07812,-0.875 -0.71875,-0.60938 -0.71875,-1.64063 0,-1.14062 0.90625,-1.85937 0.92187,-0.73438 2.45312,-0.73438 2.03125,0 3.34375,1.3125 l -0.65625,0.96875 q -0.40625,-0.48437 -1.10937,-0.8125 -0.70313,-0.32812 -1.57813,-0.32812 -0.9375,0 -1.46875,0.40625 -0.53125,0.40625 -0.53125,1.01562 0,0.53125 0.59375,0.85938 0.60938,0.3125 2.20313,0.64062 1.35937,0.32813 2.0625,0.96875 0.71875,0.64063 0.71875,1.70313 0,1.25 -0.96875,1.98437 -0.96875,0.73438 -2.57813,0.73438 z"
       fill-rule="nonzero"
       id="path59" />
    <path
       fill="#4ba173"
       d="m 381.40027,472.0748 8.25983,-33.03937 h 192.93701 l -8.25983,33.03937 z"
       fill-rule="evenodd"
       id="path61" />
    <path
       stroke="#202729"
       stroke-width="1"
       stroke-linejoin="round"
       stroke-linecap="butt"
       d="m 381.40027,472.0748 8.25983,-33.03937 h 192.93701 l -8.25983,33.03937 z"
       fill-rule="evenodd"
       id="path63" />
    <path
       fill="#ffffff"
       d="m 428.57593,462.69388 q -3,0 -4.78125,-1.96875 l 0.92188,-1.17188 q 0.76562,0.84375 1.78125,1.3125 1.03125,0.45313 2.14062,0.45313 1.34375,0 2.125,-0.59375 0.79688,-0.59375 0.79688,-1.54688 0,-1.48437 -2.3125,-2.10937 -2.73438,-0.73438 -3.5,-1.15625 -0.75,-0.4375 -1.15625,-1.07813 -0.40625,-0.64062 -0.40625,-1.53125 0,-1.5 1.20312,-2.46875 1.20313,-0.98437 3.07813,-0.98437 2.79687,0 4.42187,1.73437 l -0.9375,1.14063 q -1.34375,-1.5 -3.59375,-1.5 -1.125,0 -1.84375,0.54687 -0.71875,0.53125 -0.71875,1.4375 0,0.64063 0.59375,1.10938 0.60938,0.45312 1.73438,0.73437 2.65625,0.71875 3.42187,1.1875 0.78125,0.46875 1.20313,1.15625 0.42187,0.67188 0.42187,1.64063 0,1.71875 -1.25,2.6875 -1.25,0.96875 -3.34375,0.96875 z m 16.41696,-0.21875 -2.73437,-10.03125 -2.75,10.03125 h -1.67188 l -3.54687,-12.4375 h 1.71875 l 2.75,10.35937 2.85937,-10.35937 h 1.28125 l 2.85938,10.35937 2.75,-10.35937 h 1.70312 l -3.53125,12.4375 z m 20.64615,0 -1.09375,-2.76563 h -6.1875 l -1.10937,2.76563 h -1.76563 l 5,-12.4375 h 1.92188 l 5.01562,12.4375 z m -4.1875,-10.84375 -2.65625,6.70312 h 5.28125 z m 10.38519,11.0625 q -2.29687,0 -3.64062,-1.40625 l 0.73437,-1.01563 q 0.45313,0.53125 1.23438,0.90625 0.79687,0.375 1.73437,0.375 1.04688,0 1.57813,-0.4375 0.54687,-0.4375 0.54687,-1.10937 0,-0.59375 -0.59375,-0.9375 -0.57812,-0.34375 -2.1875,-0.71875 -1.35937,-0.28125 -2.07812,-0.875 -0.71875,-0.60938 -0.71875,-1.64063 0,-1.14062 0.90625,-1.85937 0.92187,-0.73438 2.45312,-0.73438 2.03125,0 3.34375,1.3125 l -0.65625,0.96875 q -0.40625,-0.48437 -1.10937,-0.8125 -0.70313,-0.32812 -1.57813,-0.32812 -0.9375,0 -1.46875,0.40625 -0.53125,0.40625 -0.53125,1.01562 0,0.53125 0.59375,0.85938 0.60938,0.3125 2.20313,0.64062 1.35937,0.32813 2.0625,0.96875 0.71875,0.64063 0.71875,1.70313 0,1.25 -0.96875,1.98437 -0.96875,0.73438 -2.57813,0.73438 z m 8.67514,0 q -2.29687,0 -3.64062,-1.40625 l 0.73437,-1.01563 q 0.45313,0.53125 1.23438,0.90625 0.79687,0.375 1.73437,0.375 1.04688,0 1.57813,-0.4375 0.54687,-0.4375 0.54687,-1.10937 0,-0.59375 -0.59375,-0.9375 -0.57812,-0.34375 -2.1875,-0.71875 -1.35937,-0.28125 -2.07812,-0.875 -0.71875,-0.60938 -0.71875,-1.64063 0,-1.14062 0.90625,-1.85937 0.92187,-0.73438 2.45312,-0.73438 2.03125,0 3.34375,1.3125 l -0.65625,0.96875 q -0.40625,-0.48437 -1.10937,-0.8125 -0.70313,-0.32812 -1.57813,-0.32812 -0.9375,0 -1.46875,0.40625 -0.53125,0.40625 -0.53125,1.01562 0,0.53125 0.59375,0.85938 0.60938,0.3125 2.20313,0.64062 1.35937,0.32813 2.0625,0.96875 0.71875,0.64063 0.71875,1.70313 0,1.25 -0.96875,1.98437 -0.96875,0.73438 -2.57813,0.73438 z m 9.89392,0 q -2.03125,0 -3.3125,-1.3125 -1.28125,-1.32813 -1.28125,-3.42188 0,-2 1.26563,-3.35937 1.28125,-1.35938 3.17187,-1.35938 1.9375,0 3.125,1.34375 1.20313,1.34375 1.20313,3.48438 v 0.35937 h -7.29688 q 0.0781,1.375 1,2.25 0.92188,0.85938 2.25,0.85938 1.64063,0 2.78125,-1.14063 l 0.67188,0.92188 q -1.375,1.375 -3.57813,1.375 z m 2.79688,-5.29688 q 0,-1.25 -0.82813,-2.125 -0.8125,-0.875 -2.14062,-0.875 -1.25,0 -2.07813,0.875 -0.82812,0.875 -0.875,2.125 z m 3.64407,5.07813 v -9.01563 h 1.39063 v 1.45313 q 1.25,-1.64063 3,-1.64063 v 1.4375 l -0.54688,-0.0469 q -0.64062,0 -1.40625,0.45312 -0.76562,0.45313 -1.04687,0.98438 v 6.375 z m 8.42221,0.21875 q -2,0 -2,-2.10938 v -5.89062 h -1.48437 v -1.23438 h 1.48437 v -2.45312 h 1.40625 v 2.45312 h 1.82813 v 1.23438 h -1.82813 v 5.59375 q 0,0.51562 0.21875,0.84375 0.23438,0.3125 0.70313,0.3125 0.57812,0 0.9375,-0.375 l 0.42187,1.04687 q -0.57812,0.57813 -1.6875,0.57813 z m 3.9068,-10.51563 q -0.375,0 -0.65625,-0.26562 -0.28125,-0.28125 -0.28125,-0.67188 0,-0.39062 0.28125,-0.67187 0.28125,-0.28125 0.65625,-0.28125 0.39063,0 0.67188,0.28125 0.28125,0.28125 0.28125,0.67187 0,0.39063 -0.28125,0.67188 -0.28125,0.26562 -0.67188,0.26562 z m -0.6875,10.29688 v -9.01563 h 1.39063 v 9.01563 z m 8.11954,0.21875 q -1.95312,0 -3.20312,-1.32813 -1.25,-1.32812 -1.25,-3.40625 0,-2.09375 1.25,-3.40625 1.25,-1.3125 3.20312,-1.3125 1.96875,0 3.21875,1.3125 1.25,1.3125 1.25,3.40625 0,2.07813 -1.25,3.40625 -1.25,1.32813 -3.21875,1.32813 z m 0,-1.25 q 1.3125,0 2.15625,-0.96875 0.84375,-0.98438 0.84375,-2.51563 0,-1.51562 -0.84375,-2.48437 -0.84375,-0.98438 -2.15625,-0.98438 -1.29687,0 -2.15625,0.96875 -0.84375,0.96875 -0.84375,2.5 0,1.54688 0.84375,2.51563 0.84375,0.96875 2.15625,0.96875 z m 12.82764,1.03125 v -5.89063 q 0,-1.20312 -0.5625,-1.64062 -0.54688,-0.45313 -1.45313,-0.45313 -0.78125,0 -1.54687,0.42188 -0.75,0.42187 -1.125,0.98437 v 6.57813 h -1.39063 v -9.01563 h 1.39063 v 1.3125 q 0.57812,-0.67187 1.42187,-1.09375 0.85938,-0.4375 1.78125,-0.4375 2.875,0 2.875,2.90625 v 6.32813 z m 7.04522,0.21875 q -2.29687,0 -3.64062,-1.40625 l 0.73437,-1.01563 q 0.45313,0.53125 1.23438,0.90625 0.79687,0.375 1.73437,0.375 1.04688,0 1.57813,-0.4375 0.54687,-0.4375 0.54687,-1.10937 0,-0.59375 -0.59375,-0.9375 -0.57812,-0.34375 -2.1875,-0.71875 -1.35937,-0.28125 -2.07812,-0.875 -0.71875,-0.60938 -0.71875,-1.64063 0,-1.14062 0.90625,-1.85937 0.92187,-0.73438 2.45312,-0.73438 2.03125,0 3.34375,1.3125 l -0.65625,0.96875 q -0.40625,-0.48437 -1.10937,-0.8125 -0.70313,-0.32812 -1.57813,-0.32812 -0.9375,0 -1.46875,0.40625 -0.53125,0.40625 -0.53125,1.01562 0,0.53125 0.59375,0.85938 0.60938,0.3125 2.20313,0.64062 1.35937,0.32813 2.0625,0.96875 0.71875,0.64063 0.71875,1.70313 0,1.25 -0.96875,1.98437 -0.96875,0.73438 -2.57813,0.73438 z"
       fill-rule="nonzero"
       id="path65" />
    <path
       fill="#000000"
       fill-opacity="0"
       d="m 396.59448,210.1588 1.88977,132.85039"
       fill-rule="evenodd"
       id="path67" />
    <path
       stroke="#ff5252"
       stroke-width="2"
       stroke-linejoin="round"
       stroke-linecap="butt"
       d="m 396.59448,210.1588 1.71909,120.85161"
       fill-rule="evenodd"
       id="path69" />
    <path
       fill="#ff5252"
       stroke="#ff5252"
       stroke-width="2"
       stroke-linecap="butt"
       d="m 395.01044,331.05737 3.43222,9.02829 3.17404,-9.12225 z"
       fill-rule="evenodd"
       id="path71" />
    <path
       fill="#000000"
       fill-opacity="0"
       d="m 554.47406,301.5208 v 41.48032"
       fill-rule="evenodd"
       id="path73" />
    <path
       stroke="#ff5252"
       stroke-width="2"
       stroke-linejoin="round"
       stroke-linecap="butt"
       d="m 554.47406,301.5208 v 29.48032"
       fill-rule="evenodd"
       id="path75" />
    <path
       fill="#ff5252"
       stroke="#ff5252"
       stroke-width="2"
       stroke-linecap="butt"
       d="m 551.1706,331.00113 3.30347,9.0762 3.30346,-9.0762 z"
       fill-rule="evenodd"
       id="path77" />
    <path
       fill="#000000"
       fill-opacity="0"
       d="m 554.47375,380.01706 -72.47244,16.94489"
       fill-rule="evenodd"
       id="path79" />
    <path
       stroke="#ff5252"
       stroke-width="2"
       stroke-linejoin="round"
       stroke-linecap="butt"
       d="m 554.47375,380.01706 -60.78757,14.21286"
       fill-rule="evenodd"
       id="path81" />
    <path
       fill="#ff5252"
       stroke="#ff5252"
       stroke-width="2"
       stroke-linecap="butt"
       d="m 492.93405,391.01318 -8.08572,5.28308 9.58993,1.15033 z"
       fill-rule="evenodd"
       id="path83" />
    <path
       fill="#000000"
       fill-opacity="0"
       d="m 398.48425,380.01706 83.52756,16.94489"
       fill-rule="evenodd"
       id="path85" />
    <path
       stroke="#ff5252"
       stroke-width="2"
       stroke-linejoin="round"
       stroke-linecap="butt"
       d="m 398.48425,380.01706 71.76709,14.55908"
       fill-rule="evenodd"
       id="path87" />
    <path
       fill="#ff5252"
       stroke="#ff5252"
       stroke-width="2"
       stroke-linecap="butt"
       d="m 469.59457,397.81366 9.55179,-1.43301 -8.23822,-5.04203 z"
       fill-rule="evenodd"
       id="path89" />
    <path
       fill="#4ba173"
       d="m 305.63647,199.87549 v 0 c 0,-4.54303 3.68286,-8.22588 8.22589,-8.22588 h 46.98129 c 2.18164,0 4.27393,0.86666 5.81659,2.40931 1.54267,1.54264 2.40931,3.63493 2.40931,5.81657 v 32.90256 c 0,4.54303 -3.68287,8.22589 -8.2259,8.22589 h -46.98129 v 0 c -4.54303,0 -8.22589,-3.68286 -8.22589,-8.22589 z"
       fill-rule="evenodd"
       id="path91" />
    <path
       stroke="#4ba173"
       stroke-width="2"
       stroke-linejoin="round"
       stroke-linecap="butt"
       d="m 305.63647,199.87549 v 0 c 0,-4.54303 3.68286,-8.22588 8.22589,-8.22588 h 46.98129 c 2.18164,0 4.27393,0.86666 5.81659,2.40931 1.54267,1.54264 2.40931,3.63493 2.40931,5.81657 v 32.90256 c 0,4.54303 -3.68287,8.22589 -8.2259,8.22589 h -46.98129 v 0 c -4.54303,0 -8.22589,-3.68286 -8.22589,-8.22589 z"
       fill-rule="evenodd"
       id="path93" />
    <path
       fill="#ffffff"
       d="m 328.68195,223.24677 -5,-12.4375 h 1.76562 l 4.20313,10.73437 4.1875,-10.73437 h 1.78125 l -5.01563,12.4375 z m 8.55707,0 v -12.4375 h 1.54687 v 12.4375 z m 4.45886,0 v -12.4375 h 5 q 1.78125,0 2.84375,1.0625 1.0625,1.0625 1.0625,2.6875 0,1.64062 -1.09375,2.70312 -1.07812,1.04688 -2.8125,1.04688 h -3.45312 v 4.9375 z m 4.8125,-6.32813 q 1.125,0 1.79688,-0.64062 0.6875,-0.65625 0.6875,-1.71875 0,-1.0625 -0.6875,-1.71875 -0.67188,-0.65625 -1.79688,-0.65625 h -3.26562 v 4.73437 z"
       fill-rule="nonzero"
       id="path95" />
    <path
       fill="#4ba173"
       d="m 270.47113,68.17731 v 0 c 0,-3.818237 3.09528,-6.913528 6.91351,-6.913528 h 119.93674 c 1.83359,0 3.59207,0.728389 4.88861,2.024925 1.29654,1.296539 2.02491,3.055015 2.02491,4.888603 v 27.653267 c 0,3.81823 -3.09528,6.913523 -6.91352,6.913523 H 277.38464 c -3.81823,0 -6.91351,-3.095293 -6.91351,-6.913523 z"
       fill-rule="evenodd"
       id="path97" />
    <path
       stroke="#4ba173"
       stroke-width="2"
       stroke-linejoin="round"
       stroke-linecap="butt"
       d="m 270.47113,68.17731 v 0 c 0,-3.818237 3.09528,-6.913528 6.91351,-6.913528 h 119.93674 c 1.83359,0 3.59207,0.728389 4.88861,2.024925 1.29654,1.296539 2.02491,3.055015 2.02491,4.888603 v 27.653267 c 0,3.81823 -3.09528,6.913523 -6.91352,6.913523 H 277.38464 c -3.81823,0 -6.91351,-3.095293 -6.91351,-6.913523 z"
       fill-rule="evenodd"
       id="path99" />
    <path
       fill="#ffffff"
       d="m 303.6829,88.923935 -4.71875,-5.59375 -1.25,1.421875 v 4.171875 h -1.54687 v -12.4375 h 1.54687 v 6.4375 l 5.5,-6.4375 h 1.95313 l -5.1875,5.90625 5.625,6.53125 z m 9.72803,0 V 83.03331 q 0,-1.203125 -0.5625,-1.640625 -0.54688,-0.453125 -1.45313,-0.453125 -0.78125,0 -1.54687,0.421875 -0.75,0.421875 -1.125,0.984375 v 6.578125 H 307.3328 V 79.90831 h 1.39063 v 1.3125 q 0.57812,-0.671875 1.42187,-1.09375 0.85938,-0.4375 1.78125,-0.4375 2.875,0 2.875,2.90625 v 6.328125 z m 8.12335,0.21875 q -1.95313,0 -3.20313,-1.328125 -1.25,-1.328125 -1.25,-3.40625 0,-2.09375 1.25,-3.40625 1.25,-1.3125 3.20313,-1.3125 1.96875,0 3.21875,1.3125 1.25,1.3125 1.25,3.40625 0,2.078125 -1.25,3.40625 -1.25,1.328125 -3.21875,1.328125 z m 0,-1.25 q 1.3125,0 2.15625,-0.96875 0.84375,-0.984375 0.84375,-2.515625 0,-1.515625 -0.84375,-2.484375 -0.84375,-0.984375 -2.15625,-0.984375 -1.29688,0 -2.15625,0.96875 -0.84375,0.96875 -0.84375,2.5 0,1.546875 0.84375,2.515625 0.84375,0.96875 2.15625,0.96875 z m 8.14014,-1.40625 q 0.375,0.59375 1.10937,1 0.73438,0.40625 1.57813,0.40625 1.32812,0 2.10937,-0.953125 0.79688,-0.96875 0.79688,-2.515625 0,-1.5625 -0.78125,-2.515625 -0.78125,-0.96875 -2.125,-0.96875 -0.84375,0 -1.57813,0.4375 -0.73437,0.421875 -1.10937,1.015625 z m -1.39063,2.4375 v -12.4375 h 1.39063 v 4.78125 q 1.15625,-1.578125 3.04687,-1.578125 1.78125,0 2.89063,1.3125 1.10937,1.296875 1.10937,3.421875 0,2.171875 -1.10937,3.453125 -1.10938,1.265625 -2.89063,1.265625 -0.95312,0 -1.75,-0.4375 -0.79687,-0.4375 -1.29687,-1.125 v 1.34375 z m 15.58752,0 v -12.4375 h 4.25 q 2.84375,0 4.60938,1.765625 1.78125,1.75 1.78125,4.453125 0,2.734375 -1.78125,4.484375 -1.78125,1.734375 -4.60938,1.734375 z m 4.25,-1.375 q 2.125,0 3.45313,-1.328125 1.32812,-1.34375 1.32812,-3.515625 0,-2.15625 -1.3125,-3.5 -1.29687,-1.34375 -3.46875,-1.34375 h -2.70312 v 9.6875 z m 9.44999,-8.921875 q -0.375,0 -0.65625,-0.265625 -0.28125,-0.28125 -0.28125,-0.671875 0,-0.390625 0.28125,-0.671875 0.28125,-0.28125 0.65625,-0.28125 0.39062,0 0.67187,0.28125 0.28125,0.28125 0.28125,0.671875 0,0.390625 -0.28125,0.671875 -0.28125,0.265625 -0.67187,0.265625 z m -0.6875,10.296875 V 79.90831 h 1.39062 v 9.015625 z m 7.04141,0.21875 q -2.29688,0 -3.64063,-1.40625 l 0.73438,-1.015625 q 0.45312,0.53125 1.23437,0.90625 0.79688,0.375 1.73438,0.375 1.04687,0 1.57812,-0.4375 0.54688,-0.4375 0.54688,-1.109375 0,-0.59375 -0.59375,-0.9375 -0.57813,-0.34375 -2.1875,-0.71875 -1.35938,-0.28125 -2.07813,-0.875 -0.71875,-0.609375 -0.71875,-1.640625 0,-1.140625 0.90625,-1.859375 0.92188,-0.734375 2.45313,-0.734375 2.03125,0 3.34375,1.3125 l -0.65625,0.96875 q -0.40625,-0.484375 -1.10938,-0.8125 -0.70312,-0.328125 -1.57812,-0.328125 -0.9375,0 -1.46875,0.40625 -0.53125,0.40625 -0.53125,1.015625 0,0.53125 0.59375,0.859375 0.60937,0.3125 2.20312,0.640625 1.35938,0.328125 2.0625,0.96875 0.71875,0.640625 0.71875,1.703125 0,1.25 -0.96875,1.984375 -0.96875,0.734375 -2.57812,0.734375 z m 8.09705,0 q -2,0 -2,-2.109375 v -5.890625 h -1.48438 V 79.90831 h 1.48438 v -2.453125 h 1.40625 v 2.453125 h 1.82812 v 1.234375 h -1.82812 v 5.59375 q 0,0.515625 0.21875,0.84375 0.23437,0.3125 0.70312,0.3125 0.57813,0 0.9375,-0.375 l 0.42188,1.046875 q -0.57813,0.578125 -1.6875,0.578125 z m 3.21929,-0.21875 V 79.90831 h 1.39063 v 1.453125 q 1.25,-1.640625 3,-1.640625 v 1.4375 l -0.54688,-0.04687 q -0.64062,0 -1.40625,0.453125 -0.76562,0.453125 -1.04687,0.984375 v 6.375 z"
       fill-rule="nonzero"
       id="path101" />
    <path
       fill="#000000"
       fill-opacity="0"
       d="m 337.35303,102.7441 v 23.71653"
       fill-rule="evenodd"
       id="path103" />
    <path
       stroke="#ff5252"
       stroke-width="2"
       stroke-linejoin="round"
       stroke-linecap="butt"
       d="m 337.35303,102.7441 v 11.71653"
       fill-rule="evenodd"
       id="path105" />
    <path
       fill="#ff5252"
       stroke="#ff5252"
       stroke-width="2"
       stroke-linecap="butt"
       d="m 334.04956,114.46063 3.30347,9.07619 3.30346,-9.07619 z"
       fill-rule="evenodd"
       id="path107" />
    <path
       fill="#000000"
       fill-opacity="0"
       d="m 337.35303,167.93701 v 23.71654"
       fill-rule="evenodd"
       id="path109" />
    <path
       stroke="#ff5252"
       stroke-width="2"
       stroke-linejoin="round"
       stroke-linecap="butt"
       d="m 337.35303,167.93701 v 11.71654"
       fill-rule="evenodd"
       id="path111" />
    <path
       fill="#ff5252"
       stroke="#ff5252"
       stroke-width="2"
       stroke-linecap="butt"
       d="m 334.04956,179.65355 3.30347,9.07619 3.30346,-9.07619 z"
       fill-rule="evenodd"
       id="path113" />
  </g>
</svg>
