<?xml version="1.0" encoding="UTF-8" standalone="no"?>
<svg
   version="1.1"
   viewBox="0 0 339.35867 367.63782"
   fill="none"
   stroke="none"
   stroke-linecap="square"
   stroke-miterlimit="10"
   id="svg91"
   sodipodi:docname="typical_verif_flow.svg"
   width="339.35867"
   height="367.63782"
   inkscape:version="1.2.1 (9c6d41e410, 2022-07-14, custom)"
   xmlns:inkscape="http://www.inkscape.org/namespaces/inkscape"
   xmlns:sodipodi="http://sodipodi.sourceforge.net/DTD/sodipodi-0.dtd"
   xmlns="http://www.w3.org/2000/svg"
   xmlns:svg="http://www.w3.org/2000/svg">
  <defs
     id="defs95" />
  <sodipodi:namedview
     id="namedview93"
     pagecolor="#ffffff"
     bordercolor="#000000"
     borderopacity="0.25"
     inkscape:showpageshadow="2"
     inkscape:pageopacity="0.0"
     inkscape:pagecheckerboard="0"
     inkscape:deskcolor="#d1d1d1"
     showgrid="false"
     inkscape:zoom="2.0055556"
     inkscape:cx="170.27701"
     inkscape:cy="183.73961"
     inkscape:window-width="3840"
     inkscape:window-height="2093"
     inkscape:window-x="0"
     inkscape:window-y="30"
     inkscape:window-maximized="1"
     inkscape:current-layer="svg91" />
  <clipPath
     id="g1b5d99ba5e3_0_66.0">
    <path
       d="M 0,0 H 960 V 540 H 0 Z"
       clip-rule="nonzero"
       id="path2" />
  </clipPath>
  <g
     clip-path="url(#g1b5d99ba5e3_0_66.0)"
     id="g89"
     transform="translate(-310.31979,-86.1811)">
    <path
       fill="#202729"
       d="M 334.94254,86.6811 H 509.8924 c 4.3e-4,0 8.2e-4,1.68e-4 10e-4,4.65e-4 3e-4,2.98e-4 4.6e-4,6.95e-4 4.6e-4,0.0011 l -0.002,72.176625 c 0,7.97276 -6.46323,14.43597 -14.43601,14.43597 H 320.50656 v 0 c -8.8e-4,0 -0.002,-7e-4 -0.002,-0.002 l 0.002,-72.17661 v 0 c 0,-7.972781 6.4632,-14.435991 14.43598,-14.435991 z"
       fill-rule="evenodd"
       id="path7" />
    <path
       stroke="#353744"
       stroke-width="1"
       stroke-linejoin="round"
       stroke-linecap="butt"
       d="M 334.94254,86.6811 H 509.8924 c 4.3e-4,0 8.2e-4,1.68e-4 10e-4,4.65e-4 3e-4,2.98e-4 4.6e-4,6.95e-4 4.6e-4,0.0011 l -0.002,72.176625 c 0,7.97276 -6.46323,14.43597 -14.43601,14.43597 H 320.50656 v 0 c -8.8e-4,0 -0.002,-7e-4 -0.002,-0.002 l 0.002,-72.17661 v 0 c 0,-7.972781 6.4632,-14.435991 14.43598,-14.435991 z"
       fill-rule="evenodd"
       id="path9" />
    <path
       fill="#ffffff"
       d="m 353.61026,114.90819 -4.71875,-5.59375 -1.25,1.42188 v 4.17187 h -1.54688 v -12.4375 h 1.54688 v 6.4375 l 5.5,-6.4375 h 1.95312 l -5.1875,5.90625 5.625,6.53125 z m 9.72803,0 v -5.89062 q 0,-1.20313 -0.5625,-1.64063 -0.54688,-0.45312 -1.45313,-0.45312 -0.78125,0 -1.54687,0.42187 -0.75,0.42188 -1.125,0.98438 v 6.57812 h -1.39063 v -9.01562 h 1.39063 v 1.3125 q 0.57812,-0.67188 1.42187,-1.09375 0.85938,-0.4375 1.78125,-0.4375 2.875,0 2.875,2.90625 v 6.32812 z m 8.12335,0.21875 q -1.95313,0 -3.20313,-1.32812 -1.25,-1.32813 -1.25,-3.40625 0,-2.09375 1.25,-3.40625 1.25,-1.3125 3.20313,-1.3125 1.96875,0 3.21875,1.3125 1.25,1.3125 1.25,3.40625 0,2.07812 -1.25,3.40625 -1.25,1.32812 -3.21875,1.32812 z m 0,-1.25 q 1.3125,0 2.15625,-0.96875 0.84375,-0.98437 0.84375,-2.51562 0,-1.51563 -0.84375,-2.48438 -0.84375,-0.98437 -2.15625,-0.98437 -1.29688,0 -2.15625,0.96875 -0.84375,0.96875 -0.84375,2.5 0,1.54687 0.84375,2.51562 0.84375,0.96875 2.15625,0.96875 z m 8.14014,-1.40625 q 0.375,0.59375 1.10937,1 0.73438,0.40625 1.57813,0.40625 1.32812,0 2.10937,-0.95312 0.79688,-0.96875 0.79688,-2.51563 0,-1.5625 -0.78125,-2.51562 -0.78125,-0.96875 -2.125,-0.96875 -0.84375,0 -1.57813,0.4375 -0.73437,0.42187 -1.10937,1.01562 z m -1.39063,2.4375 v -12.4375 h 1.39063 v 4.78125 q 1.15625,-1.57812 3.04687,-1.57812 1.78125,0 2.89063,1.3125 1.10937,1.29687 1.10937,3.42187 0,2.17188 -1.10937,3.45313 -1.10938,1.26562 -2.89063,1.26562 -0.95312,0 -1.75,-0.4375 -0.79687,-0.4375 -1.29687,-1.125 v 1.34375 z m 15.58752,0 v -12.4375 h 4.25 q 2.84375,0 4.60938,1.76563 1.78125,1.75 1.78125,4.45312 0,2.73438 -1.78125,4.48438 -1.78125,1.73437 -4.60938,1.73437 z m 4.25,-1.375 q 2.125,0 3.45313,-1.32812 1.32812,-1.34375 1.32812,-3.51563 0,-2.15625 -1.3125,-3.5 -1.29687,-1.34375 -3.46875,-1.34375 h -2.70312 v 9.6875 z m 9.44999,-8.92187 q -0.375,0 -0.65625,-0.26563 -0.28125,-0.28125 -0.28125,-0.67187 0,-0.39063 0.28125,-0.67188 0.28125,-0.28125 0.65625,-0.28125 0.39062,0 0.67187,0.28125 0.28125,0.28125 0.28125,0.67188 0,0.39062 -0.28125,0.67187 -0.28125,0.26563 -0.67187,0.26563 z m -0.6875,10.29687 v -9.01562 h 1.39062 v 9.01562 z m 7.04141,0.21875 q -2.29688,0 -3.64063,-1.40625 l 0.73438,-1.01562 q 0.45312,0.53125 1.23437,0.90625 0.79688,0.375 1.73438,0.375 1.04687,0 1.57812,-0.4375 0.54688,-0.4375 0.54688,-1.10938 0,-0.59375 -0.59375,-0.9375 -0.57813,-0.34375 -2.1875,-0.71875 -1.35938,-0.28125 -2.07813,-0.875 -0.71875,-0.60937 -0.71875,-1.64062 0,-1.14063 0.90625,-1.85938 0.92188,-0.73437 2.45313,-0.73437 2.03125,0 3.34375,1.3125 l -0.65625,0.96875 q -0.40625,-0.48438 -1.10938,-0.8125 -0.70312,-0.32813 -1.57812,-0.32813 -0.9375,0 -1.46875,0.40625 -0.53125,0.40625 -0.53125,1.01563 0,0.53125 0.59375,0.85937 0.60937,0.3125 2.20312,0.64063 1.35938,0.32812 2.0625,0.96875 0.71875,0.64062 0.71875,1.70312 0,1.25 -0.96875,1.98438 -0.96875,0.73437 -2.57812,0.73437 z m 8.09705,0 q -2,0 -2,-2.10937 v -5.89063 h -1.48438 v -1.23437 h 1.48438 v -2.45313 h 1.40625 v 2.45313 h 1.82812 v 1.23437 h -1.82812 v 5.59375 q 0,0.51563 0.21875,0.84375 0.23437,0.3125 0.70312,0.3125 0.57813,0 0.9375,-0.375 l 0.42188,1.04688 q -0.57813,0.57812 -1.6875,0.57812 z m 3.21929,-0.21875 v -9.01562 h 1.39063 v 1.45312 q 1.25,-1.64062 3,-1.64062 v 1.4375 l -0.54688,-0.0469 q -0.64062,0 -1.40625,0.45313 -0.76562,0.45312 -1.04687,0.98437 v 6.375 z m 6.84409,-10.29687 q -0.375,0 -0.65625,-0.26563 -0.28125,-0.28125 -0.28125,-0.67187 0,-0.39063 0.28125,-0.67188 0.28125,-0.28125 0.65625,-0.28125 0.39063,0 0.67188,0.28125 0.28125,0.28125 0.28125,0.67188 0,0.39062 -0.28125,0.67187 -0.28125,0.26563 -0.67188,0.26563 z m -0.6875,10.29687 v -9.01562 h 1.39063 v 9.01562 z m 5.58829,-2.4375 q 0.375,0.59375 1.10937,1 0.73438,0.40625 1.57813,0.40625 1.32812,0 2.10937,-0.95312 0.79688,-0.96875 0.79688,-2.51563 0,-1.5625 -0.78125,-2.51562 -0.78125,-0.96875 -2.125,-0.96875 -0.84375,0 -1.57813,0.4375 -0.73437,0.42187 -1.10937,1.01562 z m -1.39063,2.4375 v -12.4375 h 1.39063 v 4.78125 q 1.15625,-1.57812 3.04687,-1.57812 1.78125,0 2.89063,1.3125 1.10937,1.29687 1.10937,3.42187 0,2.17188 -1.10937,3.45313 -1.10938,1.26562 -2.89063,1.26562 -0.95312,0 -1.75,-0.4375 -0.79687,-0.4375 -1.29687,-1.125 v 1.34375 z m 16.80545,0 v -1.26562 q -0.53125,0.59375 -1.375,1.04687 -0.82812,0.4375 -1.84375,0.4375 -2.85937,0 -2.85937,-2.875 v -6.35937 h 1.39062 v 5.9375 q 0,1.0625 0.48438,1.5625 0.48437,0.48437 1.53125,0.48437 0.82812,0 1.54687,-0.40625 0.73438,-0.40625 1.125,-0.95312 v -6.625 h 1.39063 v 9.01562 z m 6.4671,0.21875 q -2,0 -2,-2.10937 v -5.89063 h -1.48437 v -1.23437 h 1.48437 v -2.45313 h 1.40625 v 2.45313 h 1.82813 v 1.23437 h -1.82813 v 5.59375 q 0,0.51563 0.21875,0.84375 0.23438,0.3125 0.70313,0.3125 0.57812,0 0.9375,-0.375 l 0.42187,1.04688 q -0.57812,0.57812 -1.6875,0.57812 z m 3.90683,-10.51562 q -0.375,0 -0.65625,-0.26563 -0.28125,-0.28125 -0.28125,-0.67187 0,-0.39063 0.28125,-0.67188 0.28125,-0.28125 0.65625,-0.28125 0.39063,0 0.67188,0.28125 0.28125,0.28125 0.28125,0.67188 0,0.39062 -0.28125,0.67187 -0.28125,0.26563 -0.67188,0.26563 z m -0.6875,10.29687 v -9.01562 h 1.39063 v 9.01562 z m 8.11954,0.21875 q -1.95312,0 -3.20312,-1.32812 -1.25,-1.32813 -1.25,-3.40625 0,-2.09375 1.25,-3.40625 1.25,-1.3125 3.20312,-1.3125 1.96875,0 3.21875,1.3125 1.25,1.3125 1.25,3.40625 0,2.07812 -1.25,3.40625 -1.25,1.32812 -3.21875,1.32812 z m 0,-1.25 q 1.3125,0 2.15625,-0.96875 0.84375,-0.98437 0.84375,-2.51562 0,-1.51563 -0.84375,-2.48438 -0.84375,-0.98437 -2.15625,-0.98437 -1.29687,0 -2.15625,0.96875 -0.84375,0.96875 -0.84375,2.5 0,1.54687 0.84375,2.51562 0.84375,0.96875 2.15625,0.96875 z m 12.82761,1.03125 v -5.89062 q 0,-1.20313 -0.5625,-1.64063 -0.54688,-0.45312 -1.45313,-0.45312 -0.78125,0 -1.54687,0.42187 -0.75,0.42188 -1.125,0.98438 v 6.57812 h -1.39063 v -9.01562 h 1.39063 v 1.3125 q 0.57812,-0.67188 1.42187,-1.09375 0.85938,-0.4375 1.78125,-0.4375 2.875,0 2.875,2.90625 v 6.32812 z"
       fill-rule="nonzero"
       id="path11" />
    <path
       fill="#ffffff"
       d="m 389.84357,136.90819 v -12.4375 h 5.54687 q 1.57813,0 2.53125,0.875 0.95313,0.85937 0.95313,2.29687 0,1.09375 -0.60938,1.85938 -0.60937,0.76562 -1.57812,0.98437 1,0.15625 1.71875,1.04688 0.71875,0.89062 0.71875,2.01562 0,1.53125 -0.96875,2.45313 -0.95313,0.90625 -2.64063,0.90625 z m 5.28125,-7.04688 q 1.0625,0 1.59375,-0.5625 0.54687,-0.57812 0.54687,-1.4375 0,-0.84375 -0.54687,-1.42187 -0.53125,-0.59375 -1.59375,-0.59375 h -3.73438 v 4.01562 z m 0.0781,5.67188 q 1.09375,0 1.70313,-0.5625 0.60937,-0.57813 0.60937,-1.59375 0,-0.95313 -0.64062,-1.54688 -0.625,-0.59375 -1.67188,-0.59375 h -3.8125 v 4.29688 z m 7.01603,-8.92188 q -0.375,0 -0.65625,-0.26562 -0.28125,-0.28125 -0.28125,-0.67188 0,-0.39062 0.28125,-0.67187 0.28125,-0.28125 0.65625,-0.28125 0.39062,0 0.67187,0.28125 0.28125,0.28125 0.28125,0.67187 0,0.39063 -0.28125,0.67188 -0.28125,0.26562 -0.67187,0.26562 z m -0.6875,10.29688 v -9.01563 h 1.39062 v 9.01563 z m 9.82266,0 v -1.03125 q -1.14063,1.25 -2.98438,1.25 -1.35937,0 -2.26562,-0.85938 -0.89063,-0.85937 -0.89063,-2.125 0,-1.29687 0.89063,-2.125 0.89062,-0.84375 2.26562,-0.84375 1.9375,0 2.98438,1.23438 v -1.625 q 0,-0.90625 -0.64063,-1.39063 -0.64062,-0.5 -1.64062,-0.5 -1.57813,0 -2.75,1.25 l -0.65625,-0.98437 q 1.4375,-1.48438 3.59375,-1.48438 1.67187,0 2.57812,0.8125 0.92188,0.79688 0.92188,2.23438 v 6.1875 z m -2.48438,-0.78125 q 1.67188,0 2.48438,-1.125 v -1.6875 q -0.8125,-1.125 -2.48438,-1.125 -0.98437,0 -1.60937,0.54687 -0.60938,0.54688 -0.60938,1.42188 0,0.85937 0.60938,1.42187 0.625,0.54688 1.60937,0.54688 z m 9.53498,1 q -2.29688,0 -3.64063,-1.40625 l 0.73438,-1.01563 q 0.45312,0.53125 1.23437,0.90625 0.79688,0.375 1.73438,0.375 1.04687,0 1.57812,-0.4375 0.54688,-0.4375 0.54688,-1.10937 0,-0.59375 -0.59375,-0.9375 -0.57813,-0.34375 -2.1875,-0.71875 -1.35938,-0.28125 -2.07813,-0.875 -0.71875,-0.60938 -0.71875,-1.64063 0,-1.14062 0.90625,-1.85937 0.92188,-0.73438 2.45313,-0.73438 2.03125,0 3.34375,1.3125 l -0.65625,0.96875 q -0.40625,-0.48437 -1.10938,-0.8125 -0.70312,-0.32812 -1.57812,-0.32812 -0.9375,0 -1.46875,0.40625 -0.53125,0.40625 -0.53125,1.01562 0,0.53125 0.59375,0.85938 0.60937,0.3125 2.20312,0.64062 1.35938,0.32813 2.0625,0.96875 0.71875,0.64063 0.71875,1.70313 0,1.25 -0.96875,1.98437 -0.96875,0.73438 -2.57812,0.73438 z m 9.89392,0 q -2.03125,0 -3.3125,-1.3125 -1.28125,-1.32813 -1.28125,-3.42188 0,-2 1.26562,-3.35937 1.28125,-1.35938 3.17188,-1.35938 1.9375,0 3.125,1.34375 1.20312,1.34375 1.20312,3.48438 v 0.35937 h -7.29687 q 0.0781,1.375 1,2.25 0.92187,0.85938 2.25,0.85938 1.64062,0 2.78125,-1.14063 l 0.67187,0.92188 q -1.375,1.375 -3.57812,1.375 z m 2.79687,-5.29688 q 0,-1.25 -0.82812,-2.125 -0.8125,-0.875 -2.14063,-0.875 -1.25,0 -2.07812,0.875 -0.82813,0.875 -0.875,2.125 z m 6.48783,5.29688 q -2.29688,0 -3.64063,-1.40625 l 0.73438,-1.01563 q 0.45312,0.53125 1.23437,0.90625 0.79688,0.375 1.73438,0.375 1.04687,0 1.57812,-0.4375 0.54688,-0.4375 0.54688,-1.10937 0,-0.59375 -0.59375,-0.9375 -0.57813,-0.34375 -2.1875,-0.71875 -1.35938,-0.28125 -2.07813,-0.875 -0.71875,-0.60938 -0.71875,-1.64063 0,-1.14062 0.90625,-1.85937 0.92188,-0.73438 2.45313,-0.73438 2.03125,0 3.34375,1.3125 l -0.65625,0.96875 q -0.40625,-0.48437 -1.10938,-0.8125 -0.70312,-0.32812 -1.57812,-0.32812 -0.9375,0 -1.46875,0.40625 -0.53125,0.40625 -0.53125,1.01562 0,0.53125 0.59375,0.85938 0.60937,0.3125 2.20312,0.64062 1.35938,0.32813 2.0625,0.96875 0.71875,0.64063 0.71875,1.70313 0,1.25 -0.96875,1.98437 -0.96875,0.73438 -2.57812,0.73438 z"
       fill-rule="nonzero"
       id="path13" />
    <path
       fill="#ffffff"
       d="m 376.369,159.12694 q -2.73437,0 -4.5625,-1.79688 -1.82812,-1.8125 -1.82812,-4.64062 0,-2.8125 1.82812,-4.625 1.82813,-1.8125 4.5625,-1.8125 2.96875,0 4.73438,2.46875 l -1.3125,0.73437 q -0.54688,-0.79687 -1.45313,-1.29687 -0.90625,-0.51563 -1.96875,-0.51563 -2.0625,0 -3.42187,1.4375 -1.35938,1.4375 -1.35938,3.60938 0,2.20312 1.34375,3.64062 1.35938,1.42188 3.4375,1.42188 1.0625,0 1.96875,-0.5 0.90625,-0.51563 1.45313,-1.3125 l 1.32812,0.73437 q -1.8125,2.45313 -4.75,2.45313 z m 10.59601,0 q -1.95313,0 -3.20313,-1.32813 -1.25,-1.32812 -1.25,-3.40625 0,-2.09375 1.25,-3.40625 1.25,-1.3125 3.20313,-1.3125 1.96875,0 3.21875,1.3125 1.25,1.3125 1.25,3.40625 0,2.07813 -1.25,3.40625 -1.25,1.32813 -3.21875,1.32813 z m 0,-1.25 q 1.3125,0 2.15625,-0.96875 0.84375,-0.98438 0.84375,-2.51563 0,-1.51562 -0.84375,-2.48437 -0.84375,-0.98438 -2.15625,-0.98438 -1.29688,0 -2.15625,0.96875 -0.84375,0.96875 -0.84375,2.5 0,1.54688 0.84375,2.51563 0.84375,0.96875 2.15625,0.96875 z m 12.8276,1.03125 v -5.89063 q 0,-1.20312 -0.5625,-1.64062 -0.54687,-0.45313 -1.45312,-0.45313 -0.78125,0 -1.54688,0.42188 -0.75,0.42187 -1.125,0.98437 v 6.57813 h -1.39062 v -9.01563 h 1.39062 v 1.3125 q 0.57813,-0.67187 1.42188,-1.09375 0.85937,-0.4375 1.78125,-0.4375 2.875,0 2.875,2.90625 v 6.32813 z m 7.04523,0.21875 q -2.29687,0 -3.64062,-1.40625 l 0.73437,-1.01563 q 0.45313,0.53125 1.23438,0.90625 0.79687,0.375 1.73437,0.375 1.04688,0 1.57813,-0.4375 0.54687,-0.4375 0.54687,-1.10937 0,-0.59375 -0.59375,-0.9375 -0.57812,-0.34375 -2.1875,-0.71875 -1.35937,-0.28125 -2.07812,-0.875 -0.71875,-0.60938 -0.71875,-1.64063 0,-1.14062 0.90625,-1.85937 0.92187,-0.73438 2.45312,-0.73438 2.03125,0 3.34375,1.3125 l -0.65625,0.96875 q -0.40625,-0.48437 -1.10937,-0.8125 -0.70313,-0.32812 -1.57813,-0.32812 -0.9375,0 -1.46875,0.40625 -0.53125,0.40625 -0.53125,1.01562 0,0.53125 0.59375,0.85938 0.60938,0.3125 2.20313,0.64062 1.35937,0.32813 2.0625,0.96875 0.71875,0.64063 0.71875,1.70313 0,1.25 -0.96875,1.98437 -0.96875,0.73438 -2.57813,0.73438 z m 8.09705,0 q -2,0 -2,-2.10938 v -5.89062 h -1.48438 v -1.23438 h 1.48438 v -2.45312 h 1.40625 v 2.45312 h 1.82812 v 1.23438 h -1.82812 v 5.59375 q 0,0.51562 0.21875,0.84375 0.23437,0.3125 0.70312,0.3125 0.57813,0 0.9375,-0.375 l 0.42188,1.04687 q -0.57813,0.57813 -1.6875,0.57813 z m 3.2193,-0.21875 v -9.01563 h 1.39062 v 1.45313 q 1.25,-1.64063 3,-1.64063 v 1.4375 l -0.54687,-0.0469 q -0.64063,0 -1.40625,0.45312 -0.76563,0.45313 -1.04688,0.98438 v 6.375 z m 11.78158,0 v -1.03125 q -1.14062,1.25 -2.98437,1.25 -1.35938,0 -2.26563,-0.85938 -0.89062,-0.85937 -0.89062,-2.125 0,-1.29687 0.89062,-2.125 0.89063,-0.84375 2.26563,-0.84375 1.9375,0 2.98437,1.23438 v -1.625 q 0,-0.90625 -0.64062,-1.39063 -0.64063,-0.5 -1.64063,-0.5 -1.57812,0 -2.75,1.25 l -0.65625,-0.98437 q 1.4375,-1.48438 3.59375,-1.48438 1.67188,0 2.57813,0.8125 0.92187,0.79688 0.92187,2.23438 v 6.1875 z m -2.48437,-0.78125 q 1.67187,0 2.48437,-1.125 v -1.6875 q -0.8125,-1.125 -2.48437,-1.125 -0.98438,0 -1.60938,0.54687 -0.60937,0.54688 -0.60937,1.42188 0,0.85937 0.60937,1.42187 0.625,0.54688 1.60938,0.54688 z m 7.37872,-9.51563 q -0.375,0 -0.65625,-0.26562 -0.28125,-0.28125 -0.28125,-0.67188 0,-0.39062 0.28125,-0.67187 0.28125,-0.28125 0.65625,-0.28125 0.39063,0 0.67188,0.28125 0.28125,0.28125 0.28125,0.67187 0,0.39063 -0.28125,0.67188 -0.28125,0.26562 -0.67188,0.26562 z m -0.6875,10.29688 v -9.01563 h 1.39063 v 9.01563 z m 10.27579,0 v -5.89063 q 0,-1.20312 -0.5625,-1.64062 -0.54688,-0.45313 -1.45313,-0.45313 -0.78125,0 -1.54687,0.42188 -0.75,0.42187 -1.125,0.98437 v 6.57813 h -1.39063 v -9.01563 h 1.39063 v 1.3125 q 0.57812,-0.67187 1.42187,-1.09375 0.85938,-0.4375 1.78125,-0.4375 2.875,0 2.875,2.90625 v 6.32813 z m 6.4671,0.21875 q -2,0 -2,-2.10938 v -5.89062 h -1.48438 v -1.23438 h 1.48438 v -2.45312 h 1.40625 v 2.45312 h 1.82812 v 1.23438 h -1.82812 v 5.59375 q 0,0.51562 0.21875,0.84375 0.23437,0.3125 0.70312,0.3125 0.57813,0 0.9375,-0.375 l 0.42188,1.04687 q -0.57813,0.57813 -1.6875,0.57813 z m 6.06305,0 q -2.29688,0 -3.64063,-1.40625 l 0.73438,-1.01563 q 0.45312,0.53125 1.23437,0.90625 0.79688,0.375 1.73438,0.375 1.04687,0 1.57812,-0.4375 0.54688,-0.4375 0.54688,-1.10937 0,-0.59375 -0.59375,-0.9375 -0.57813,-0.34375 -2.1875,-0.71875 -1.35938,-0.28125 -2.07813,-0.875 -0.71875,-0.60938 -0.71875,-1.64063 0,-1.14062 0.90625,-1.85937 0.92188,-0.73438 2.45313,-0.73438 2.03125,0 3.34375,1.3125 l -0.65625,0.96875 q -0.40625,-0.48437 -1.10938,-0.8125 -0.70312,-0.32812 -1.57812,-0.32812 -0.9375,0 -1.46875,0.40625 -0.53125,0.40625 -0.53125,1.01562 0,0.53125 0.59375,0.85938 0.60937,0.3125 2.20312,0.64062 1.35938,0.32813 2.0625,0.96875 0.71875,0.64063 0.71875,1.70313 0,1.25 -0.96875,1.98437 -0.96875,0.73438 -2.57812,0.73438 z"
       fill-rule="nonzero"
       id="path15" />
    <path
       fill="#4ba173"
       d="m 313.54593,201.87903 h 203.3071 v 32.97636 h -203.3071 z"
       fill-rule="evenodd"
       id="path17" />
    <path
       stroke="#4ba173"
       stroke-width="1"
       stroke-linejoin="round"
       stroke-linecap="butt"
       d="m 313.54593,201.87903 h 203.3071 v 32.97636 h -203.3071 z"
       fill-rule="evenodd"
       id="path19" />
    <path
       fill="#ffffff"
       d="m 342.43027,225.50597 q -3,0 -4.78125,-1.96875 l 0.92187,-1.17188 q 0.76563,0.84375 1.78125,1.3125 1.03125,0.45313 2.14063,0.45313 1.34375,0 2.125,-0.59375 0.79687,-0.59375 0.79687,-1.54688 0,-1.48437 -2.3125,-2.10937 -2.73437,-0.73438 -3.5,-1.15625 -0.75,-0.4375 -1.15625,-1.07813 -0.40625,-0.64062 -0.40625,-1.53125 0,-1.5 1.20313,-2.46875 1.20312,-0.98437 3.07812,-0.98437 2.79688,0 4.42188,1.73437 l -0.9375,1.14063 q -1.34375,-1.5 -3.59375,-1.5 -1.125,0 -1.84375,0.54687 -0.71875,0.53125 -0.71875,1.4375 0,0.64063 0.59375,1.10938 0.60937,0.45312 1.73437,0.73437 2.65625,0.71875 3.42188,1.1875 0.78125,0.46875 1.20312,1.15625 0.42188,0.67188 0.42188,1.64063 0,1.71875 -1.25,2.6875 -1.25,0.96875 -3.34375,0.96875 z m 8.80273,0 q -2,0 -2,-2.10938 v -5.89062 h -1.48437 v -1.23438 h 1.48437 v -2.45312 h 1.40625 v 2.45312 h 1.82813 v 1.23438 h -1.82813 v 5.59375 q 0,0.51562 0.21875,0.84375 0.23438,0.3125 0.70313,0.3125 0.57812,0 0.9375,-0.375 l 0.42187,1.04687 q -0.57812,0.57813 -1.6875,0.57813 z m 3.90683,-10.51563 q -0.375,0 -0.65625,-0.26562 -0.28125,-0.28125 -0.28125,-0.67188 0,-0.39062 0.28125,-0.67187 0.28125,-0.28125 0.65625,-0.28125 0.39063,0 0.67188,0.28125 0.28125,0.28125 0.28125,0.67187 0,0.39063 -0.28125,0.67188 -0.28125,0.26562 -0.67188,0.26562 z m -0.6875,10.29688 v -9.01563 h 1.39063 v 9.01563 z m 15.07267,0 v -6.125 q 0,-1.85938 -1.67188,-1.85938 -0.70312,0 -1.375,0.42188 -0.65625,0.42187 -1,0.95312 v 6.60938 h -1.40625 v -6.125 q 0,-1.85938 -1.65625,-1.85938 -0.6875,0 -1.34375,0.4375 -0.65625,0.42188 -1.03125,0.96875 v 6.57813 H 358.65 v -9.01563 h 1.39062 v 1.3125 q 0.3125,-0.54687 1.1875,-1.03125 0.89063,-0.5 1.71875,-0.5 1.04688,0 1.625,0.48438 0.59375,0.48437 0.8125,1.1875 0.45313,-0.71875 1.3125,-1.1875 0.85938,-0.48438 1.70313,-0.48438 2.51562,0 2.51562,2.71875 v 6.51563 z m 10.27737,0 v -1.26563 q -0.53125,0.59375 -1.375,1.04688 -0.82813,0.4375 -1.84375,0.4375 -2.85938,0 -2.85938,-2.875 v -6.35938 h 1.39063 v 5.9375 q 0,1.0625 0.48437,1.5625 0.48438,0.48438 1.53125,0.48438 0.82813,0 1.54688,-0.40625 0.73437,-0.40625 1.125,-0.95313 v -6.625 h 1.39062 v 9.01563 z m 4.20148,0 v -12.4375 h 1.39062 v 12.4375 z m 10.27578,0 v -1.26563 q -0.53125,0.59375 -1.375,1.04688 -0.82812,0.4375 -1.84375,0.4375 -2.85937,0 -2.85937,-2.875 v -6.35938 h 1.39062 v 5.9375 q 0,1.0625 0.48438,1.5625 0.48437,0.48438 1.53125,0.48438 0.82812,0 1.54687,-0.40625 0.73438,-0.40625 1.125,-0.95313 v -6.625 h 1.39063 v 9.01563 z m 7.04523,0.21875 q -2.29687,0 -3.64062,-1.40625 l 0.73437,-1.01563 q 0.45313,0.53125 1.23438,0.90625 0.79687,0.375 1.73437,0.375 1.04688,0 1.57813,-0.4375 0.54687,-0.4375 0.54687,-1.10937 0,-0.59375 -0.59375,-0.9375 -0.57812,-0.34375 -2.1875,-0.71875 -1.35937,-0.28125 -2.07812,-0.875 -0.71875,-0.60938 -0.71875,-1.64063 0,-1.14062 0.90625,-1.85937 0.92187,-0.73438 2.45312,-0.73438 2.03125,0 3.34375,1.3125 l -0.65625,0.96875 q -0.40625,-0.48437 -1.10937,-0.8125 -0.70313,-0.32812 -1.57813,-0.32812 -0.9375,0 -1.46875,0.40625 -0.53125,0.40625 -0.53125,1.01562 0,0.53125 0.59375,0.85938 0.60938,0.3125 2.20313,0.64062 1.35937,0.32813 2.0625,0.96875 0.71875,0.64063 0.71875,1.70313 0,1.25 -0.96875,1.98437 -0.96875,0.73438 -2.57813,0.73438 z m 16.58221,0.0312 q -2.73437,0 -4.5625,-1.84375 -1.82812,-1.84375 -1.82812,-4.625 0,-2.8125 1.82812,-4.625 1.84375,-1.8125 4.5625,-1.8125 2.9375,0 4.84375,2.34375 l -1.23437,0.76562 q -0.59375,-0.76562 -1.54688,-1.23437 -0.9375,-0.48438 -2.0625,-0.48438 -2.0625,0 -3.42187,1.4375 -1.35938,1.4375 -1.35938,3.60938 0,2.20312 1.35938,3.64062 1.375,1.4375 3.42187,1.4375 0.9375,0 1.82813,-0.35937 0.90625,-0.35938 1.51562,-0.98438 v -2.53125 h -4.26562 v -1.39062 h 5.8125 v 4.5 q -1.9375,2.15625 -4.89063,2.15625 z m 11.42691,-0.0312 q -2.03125,0 -3.3125,-1.3125 -1.28125,-1.32813 -1.28125,-3.42188 0,-2 1.26563,-3.35937 1.28125,-1.35938 3.17187,-1.35938 1.9375,0 3.125,1.34375 1.20313,1.34375 1.20313,3.48438 v 0.35937 h -7.29688 q 0.0781,1.375 1,2.25 0.92188,0.85938 2.25,0.85938 1.64063,0 2.78125,-1.14063 l 0.67188,0.92188 q -1.375,1.375 -3.57813,1.375 z m 2.79688,-5.29688 q 0,-1.25 -0.82813,-2.125 -0.8125,-0.875 -2.14062,-0.875 -1.25,0 -2.07813,0.875 -0.82812,0.875 -0.875,2.125 z m 9.7222,5.07813 v -5.89063 q 0,-1.20312 -0.5625,-1.64062 -0.54688,-0.45313 -1.45313,-0.45313 -0.78125,0 -1.54687,0.42188 -0.75,0.42187 -1.125,0.98437 v 6.57813 h -1.39063 v -9.01563 h 1.39063 v 1.3125 q 0.57812,-0.67187 1.42187,-1.09375 0.85938,-0.4375 1.78125,-0.4375 2.875,0 2.875,2.90625 v 6.32813 z m 8.26398,0.21875 q -2.03125,0 -3.3125,-1.3125 -1.28125,-1.32813 -1.28125,-3.42188 0,-2 1.26562,-3.35937 1.28125,-1.35938 3.17188,-1.35938 1.9375,0 3.125,1.34375 1.20312,1.34375 1.20312,3.48438 v 0.35937 h -7.29687 q 0.0781,1.375 1,2.25 0.92187,0.85938 2.25,0.85938 1.64062,0 2.78125,-1.14063 l 0.67187,0.92188 q -1.375,1.375 -3.57812,1.375 z m 2.79687,-5.29688 q 0,-1.25 -0.82812,-2.125 -0.8125,-0.875 -2.14063,-0.875 -1.25,0 -2.07812,0.875 -0.82813,0.875 -0.875,2.125 z m 3.6441,5.07813 v -9.01563 h 1.39063 v 1.45313 q 1.25,-1.64063 3,-1.64063 v 1.4375 l -0.54688,-0.0469 q -0.64062,0 -1.40625,0.45312 -0.76562,0.45313 -1.04687,0.98438 v 6.375 z m 11.78156,0 v -1.03125 q -1.14063,1.25 -2.98438,1.25 -1.35937,0 -2.26562,-0.85938 -0.89063,-0.85937 -0.89063,-2.125 0,-1.29687 0.89063,-2.125 0.89062,-0.84375 2.26562,-0.84375 1.9375,0 2.98438,1.23438 v -1.625 q 0,-0.90625 -0.64063,-1.39063 -0.64062,-0.5 -1.64062,-0.5 -1.57813,0 -2.75,1.25 l -0.65625,-0.98437 q 1.4375,-1.48438 3.59375,-1.48438 1.67187,0 2.57812,0.8125 0.92188,0.79688 0.92188,2.23438 v 6.1875 z m -2.48438,-0.78125 q 1.67188,0 2.48438,-1.125 v -1.6875 q -0.8125,-1.125 -2.48438,-1.125 -0.98437,0 -1.60937,0.54687 -0.60938,0.54688 -0.60938,1.42188 0,0.85937 0.60938,1.42187 0.625,0.54688 1.60937,0.54688 z m 8.95685,1 q -2,0 -2,-2.10938 v -5.89062 h -1.48437 v -1.23438 h 1.48437 v -2.45312 h 1.40625 v 2.45312 h 1.82813 v 1.23438 h -1.82813 v 5.59375 q 0,0.51562 0.21875,0.84375 0.23438,0.3125 0.70313,0.3125 0.57812,0 0.9375,-0.375 l 0.42187,1.04687 q -0.57812,0.57813 -1.6875,0.57813 z m 7.14121,0 q -1.95313,0 -3.20313,-1.32813 -1.25,-1.32812 -1.25,-3.40625 0,-2.09375 1.25,-3.40625 1.25,-1.3125 3.20313,-1.3125 1.96875,0 3.21875,1.3125 1.25,1.3125 1.25,3.40625 0,2.07813 -1.25,3.40625 -1.25,1.32813 -3.21875,1.32813 z m 0,-1.25 q 1.3125,0 2.15625,-0.96875 0.84375,-0.98438 0.84375,-2.51563 0,-1.51562 -0.84375,-2.48437 -0.84375,-0.98438 -2.15625,-0.98438 -1.29688,0 -2.15625,0.96875 -0.84375,0.96875 -0.84375,2.5 0,1.54688 0.84375,2.51563 0.84375,0.96875 2.15625,0.96875 z m 6.74948,1.03125 v -9.01563 h 1.39062 v 1.45313 q 1.25,-1.64063 3,-1.64063 v 1.4375 l -0.54687,-0.0469 q -0.64063,0 -1.40625,0.45312 -0.76563,0.45313 -1.04688,0.98438 v 6.375 z"
       fill-rule="nonzero"
       id="path21" />
    <path
       fill="#202729"
       d="m 317.26785,257.74408 h 202.3096 c 4.3e-4,0 8.5e-4,1.8e-4 10e-4,5.2e-4 3.1e-4,3.3e-4 4.9e-4,7.6e-4 4.9e-4,0.001 l -0.002,32.22913 c 0,3.56021 -2.88617,6.44632 -6.44635,6.44632 H 310.82153 v 0 c -9.8e-4,0 -0.002,-8e-4 -0.002,-0.002 l 0.002,-32.2291 v 0 c 0,-3.56021 2.88611,-6.44635 6.44632,-6.44635 z"
       fill-rule="evenodd"
       id="path23" />
    <path
       stroke="#353744"
       stroke-width="1"
       stroke-linejoin="round"
       stroke-linecap="butt"
       d="m 317.26785,257.74408 h 202.3096 c 4.3e-4,0 8.5e-4,1.8e-4 10e-4,5.2e-4 3.1e-4,3.3e-4 4.9e-4,7.6e-4 4.9e-4,0.001 l -0.002,32.22913 c 0,3.56021 -2.88617,6.44632 -6.44635,6.44632 H 310.82153 v 0 c -9.8e-4,0 -0.002,-8e-4 -0.002,-0.002 l 0.002,-32.2291 v 0 c 0,-3.56021 2.88611,-6.44635 6.44632,-6.44635 z"
       fill-rule="evenodd"
       id="path25" />
    <path
       fill="#ffffff"
       d="m 386.2818,284.22144 q -3,0 -4.78125,-1.96875 l 0.92187,-1.17188 q 0.76563,0.84375 1.78125,1.3125 1.03125,0.45313 2.14063,0.45313 1.34375,0 2.125,-0.59375 0.79687,-0.59375 0.79687,-1.54688 0,-1.48437 -2.3125,-2.10937 -2.73437,-0.73438 -3.5,-1.15625 -0.75,-0.4375 -1.15625,-1.07813 -0.40625,-0.64062 -0.40625,-1.53125 0,-1.5 1.20313,-2.46875 1.20312,-0.98437 3.07812,-0.98437 2.79688,0 4.42188,1.73437 l -0.9375,1.14063 q -1.34375,-1.5 -3.59375,-1.5 -1.125,0 -1.84375,0.54687 -0.71875,0.53125 -0.71875,1.4375 0,0.64063 0.59375,1.10938 0.60937,0.45312 1.73437,0.73437 2.65625,0.71875 3.42188,1.1875 0.78125,0.46875 1.20312,1.15625 0.42188,0.67188 0.42188,1.64063 0,1.71875 -1.25,2.6875 -1.25,0.96875 -3.34375,0.96875 z m 8.80273,0 q -2,0 -2,-2.10938 v -5.89062 h -1.48437 v -1.23438 h 1.48437 v -2.45312 h 1.40625 v 2.45312 h 1.82813 v 1.23438 h -1.82813 v 5.59375 q 0,0.51562 0.21875,0.84375 0.23438,0.3125 0.70313,0.3125 0.57812,0 0.9375,-0.375 l 0.42187,1.04687 q -0.57812,0.57813 -1.6875,0.57813 z m 3.9068,-10.51563 q -0.375,0 -0.65625,-0.26562 -0.28125,-0.28125 -0.28125,-0.67188 0,-0.39062 0.28125,-0.67187 0.28125,-0.28125 0.65625,-0.28125 0.39063,0 0.67188,0.28125 0.28125,0.28125 0.28125,0.67187 0,0.39063 -0.28125,0.67188 -0.28125,0.26562 -0.67188,0.26562 z m -0.6875,10.29688 v -9.01563 h 1.39063 v 9.01563 z m 15.07267,0 v -6.125 q 0,-1.85938 -1.67188,-1.85938 -0.70312,0 -1.375,0.42188 -0.65625,0.42187 -1,0.95312 v 6.60938 h -1.40625 v -6.125 q 0,-1.85938 -1.65625,-1.85938 -0.6875,0 -1.34375,0.4375 -0.65625,0.42188 -1.03125,0.96875 v 6.57813 h -1.39062 v -9.01563 h 1.39062 v 1.3125 q 0.3125,-0.54687 1.1875,-1.03125 0.89063,-0.5 1.71875,-0.5 1.04688,0 1.625,0.48438 0.59375,0.48437 0.8125,1.1875 0.45313,-0.71875 1.3125,-1.1875 0.85938,-0.48438 1.70313,-0.48438 2.51562,0 2.51562,2.71875 v 6.51563 z m 10.27737,0 v -1.26563 q -0.53125,0.59375 -1.375,1.04688 -0.82813,0.4375 -1.84375,0.4375 -2.85938,0 -2.85938,-2.875 v -6.35938 h 1.39063 v 5.9375 q 0,1.0625 0.48437,1.5625 0.48438,0.48438 1.53125,0.48438 0.82813,0 1.54688,-0.40625 0.73437,-0.40625 1.125,-0.95313 v -6.625 h 1.39062 v 9.01563 z m 4.20148,0 v -12.4375 h 1.39062 v 12.4375 z m 10.27578,0 v -1.26563 q -0.53125,0.59375 -1.375,1.04688 -0.82812,0.4375 -1.84375,0.4375 -2.85937,0 -2.85937,-2.875 v -6.35938 h 1.39062 v 5.9375 q 0,1.0625 0.48438,1.5625 0.48437,0.48438 1.53125,0.48438 0.82812,0 1.54687,-0.40625 0.73438,-0.40625 1.125,-0.95313 v -6.625 h 1.39063 v 9.01563 z m 7.04526,0.21875 q -2.29687,0 -3.64062,-1.40625 l 0.73437,-1.01563 q 0.45313,0.53125 1.23438,0.90625 0.79687,0.375 1.73437,0.375 1.04688,0 1.57813,-0.4375 0.54687,-0.4375 0.54687,-1.10937 0,-0.59375 -0.59375,-0.9375 -0.57812,-0.34375 -2.1875,-0.71875 -1.35937,-0.28125 -2.07812,-0.875 -0.71875,-0.60938 -0.71875,-1.64063 0,-1.14062 0.90625,-1.85937 0.92187,-0.73438 2.45312,-0.73438 2.03125,0 3.34375,1.3125 l -0.65625,0.96875 q -0.40625,-0.48437 -1.10937,-0.8125 -0.70313,-0.32812 -1.57813,-0.32812 -0.9375,0 -1.46875,0.40625 -0.53125,0.40625 -0.53125,1.01562 0,0.53125 0.59375,0.85938 0.60938,0.3125 2.20313,0.64062 1.35937,0.32813 2.0625,0.96875 0.71875,0.64063 0.71875,1.70313 0,1.25 -0.96875,1.98437 -0.96875,0.73438 -2.57813,0.73438 z"
       fill-rule="nonzero"
       id="path27" />
    <path
       fill="#000000"
       fill-opacity="0"
       d="M 415.19946,173.29527 V 201.8937"
       fill-rule="evenodd"
       id="path29" />
    <path
       stroke="#ff5252"
       stroke-width="2"
       stroke-linejoin="round"
       stroke-linecap="butt"
       d="M 415.19946,173.29527 V 189.8937"
       fill-rule="evenodd"
       id="path31" />
    <path
       fill="#ff5252"
       stroke="#ff5252"
       stroke-width="2"
       stroke-linecap="butt"
       d="m 411.896,189.8937 3.30347,9.07619 3.30346,-9.07619 z"
       fill-rule="evenodd"
       id="path33" />
    <path
       fill="#000000"
       fill-opacity="0"
       d="m 415.19946,234.8554 v 22.89766"
       fill-rule="evenodd"
       id="path35" />
    <path
       stroke="#ff5252"
       stroke-width="2"
       stroke-linejoin="round"
       stroke-linecap="butt"
       d="m 415.19946,234.8554 v 10.89764"
       fill-rule="evenodd"
       id="path37" />
    <path
       fill="#ff5252"
       stroke="#ff5252"
       stroke-width="2"
       stroke-linecap="butt"
       d="m 411.896,245.75304 3.30347,9.07619 3.30346,-9.07619 z"
       fill-rule="evenodd"
       id="path39" />
    <path
       fill="#fff176"
       d="m 349.95538,319.31104 h 130.48819 v 72.44095 H 349.95538 Z"
       fill-rule="evenodd"
       id="path41" />
    <path
       stroke="#202729"
       stroke-width="2"
       stroke-linejoin="round"
       stroke-linecap="butt"
       d="m 349.95538,319.31104 h 130.48819 v 72.44095 H 349.95538 Z"
       fill-rule="evenodd"
       id="path43" />
    <path
       fill="#000000"
       d="m 385.20612,363.0115 -2.79688,-5.0625 h -2.21875 v 5.0625 h -3.03125 v -14.21875 h 6.65625 q 2.17188,0 3.46875,1.29687 1.3125,1.28125 1.3125,3.28125 0,1.65625 -0.89062,2.79688 -0.89063,1.125 -2.23438,1.42187 l 3.20313,5.42188 z m -1.84375,-7.71875 q 0.92187,0 1.53125,-0.51563 0.60937,-0.51562 0.60937,-1.40625 0,-0.89062 -0.60937,-1.40625 -0.60938,-0.51562 -1.53125,-0.51562 h -3.17188 v 3.84375 z m 10.57883,7.71875 V 351.449 h -4.15625 v -2.65625 h 11.34375 v 2.65625 h -4.14063 v 11.5625 z m 9.13177,0 v -14.21875 h 3.03125 v 11.54687 h 6.01563 v 2.67188 z m 21.67716,0.25 q -3.79688,0 -6.01563,-2.25 l 1.64063,-2.3125 q 0.75,0.79687 1.89062,1.35937 1.15625,0.5625 2.625,0.5625 1.26563,0 1.85938,-0.46875 0.60937,-0.48437 0.60937,-1.10937 0,-0.64063 -0.70312,-1 -0.70313,-0.35938 -3.39063,-1 -4.09375,-0.98438 -4.09375,-4.14063 0,-1.82812 1.48438,-3.07812 1.48437,-1.25 3.92187,-1.25 3.39063,0 5.54688,1.98437 l -1.6875,2.21875 q -1.6875,-1.5625 -4.14063,-1.5625 -0.98437,0 -1.51562,0.40625 -0.51563,0.39063 -0.51563,1.03125 0,0.54688 0.60938,0.85938 0.60937,0.3125 1.53125,0.51562 l 1.95312,0.5 q 4.07813,1.04688 4.07813,4.17188 0,2.10937 -1.51563,3.34375 -1.51562,1.21875 -4.17187,1.21875 z m 9.01568,-11.65625 q -0.65625,0 -1.14062,-0.46875 -0.48438,-0.46875 -0.48438,-1.15625 0,-0.6875 0.48438,-1.14063 0.48437,-0.45312 1.14062,-0.45312 0.6875,0 1.15625,0.45312 0.46875,0.45313 0.46875,1.14063 0,0.6875 -0.46875,1.15625 -0.46875,0.46875 -1.15625,0.46875 z m -1.34375,11.40625 v -10.29688 h 2.70313 v 10.29688 z m 18.17728,0 v -6.5 q 0,-1.64063 -1.54687,-1.64063 -0.71875,0 -1.28125,0.39063 -0.54688,0.375 -0.84375,0.79687 v 6.95313 h -2.73438 v -6.5 q 0,-1.64063 -1.53125,-1.64063 -0.70312,0 -1.28125,0.39063 -0.5625,0.39062 -0.85937,0.8125 v 6.9375 h -2.70313 v -10.29688 h 2.70313 v 1.34375 q 0.375,-0.57812 1.35937,-1.09375 1,-0.51562 2.01563,-0.51562 2.23437,0 2.85937,1.875 0.48438,-0.78125 1.46875,-1.32813 0.98438,-0.54687 2.07813,-0.54687 3.01562,0 3.01562,3.125 v 7.4375 z"
       fill-rule="nonzero"
       id="path45" />
    <path
       fill="#000000"
       fill-opacity="0"
       d="M 415.19946,296.42126 V 319.3189"
       fill-rule="evenodd"
       id="path47" />
    <path
       stroke="#ff5252"
       stroke-width="2"
       stroke-linejoin="round"
       stroke-linecap="butt"
       d="M 415.19946,296.42126 V 307.3189"
       fill-rule="evenodd"
       id="path49" />
    <path
       fill="#ff5252"
       stroke="#ff5252"
       stroke-width="2"
       stroke-linecap="butt"
       d="m 411.896,307.3189 3.30347,9.07617 3.30346,-9.07617 z"
       fill-rule="evenodd"
       id="path51" />
    <path
       fill="#202729"
       d="m 317.26785,414.64172 h 202.3096 c 4.3e-4,0 8.5e-4,1.8e-4 10e-4,5.2e-4 3.1e-4,3.3e-4 4.9e-4,7.6e-4 4.9e-4,10e-4 l -0.002,32.22913 c 0,3.56018 -2.88617,6.44632 -6.44635,6.44632 H 310.82153 v 0 c -9.8e-4,0 -0.002,-8e-4 -0.002,-0.002 l 0.002,-32.22913 v 0 c 0,-3.56018 2.88611,-6.44632 6.44632,-6.44632 z"
       fill-rule="evenodd"
       id="path53" />
    <path
       stroke="#353744"
       stroke-width="1"
       stroke-linejoin="round"
       stroke-linecap="butt"
       d="m 317.26785,414.64172 h 202.3096 c 4.3e-4,0 8.5e-4,1.8e-4 10e-4,5.2e-4 3.1e-4,3.3e-4 4.9e-4,7.6e-4 4.9e-4,10e-4 l -0.002,32.22913 c 0,3.56018 -2.88617,6.44632 -6.44635,6.44632 H 310.82153 v 0 c -9.8e-4,0 -0.002,-8e-4 -0.002,-0.002 l 0.002,-32.22913 v 0 c 0,-3.56018 2.88611,-6.44632 6.44632,-6.44632 z"
       fill-rule="evenodd"
       id="path55" />
    <path
       fill="#ffffff"
       d="m 360.96826,441.11905 q -2.73438,0 -4.5625,-1.79687 -1.82813,-1.8125 -1.82813,-4.64063 0,-2.8125 1.82813,-4.625 1.82812,-1.8125 4.5625,-1.8125 2.96875,0 4.73437,2.46875 l -1.3125,0.73438 q -0.54687,-0.79688 -1.45312,-1.29688 -0.90625,-0.51562 -1.96875,-0.51562 -2.0625,0 -3.42188,1.4375 -1.35937,1.4375 -1.35937,3.60937 0,2.20313 1.34375,3.64063 1.35937,1.42187 3.4375,1.42187 1.0625,0 1.96875,-0.5 0.90625,-0.51562 1.45312,-1.3125 l 1.32813,0.73438 q -1.8125,2.45312 -4.75,2.45312 z m 10.59601,0 q -1.95313,0 -3.20313,-1.32812 -1.25,-1.32813 -1.25,-3.40625 0,-2.09375 1.25,-3.40625 1.25,-1.3125 3.20313,-1.3125 1.96875,0 3.21875,1.3125 1.25,1.3125 1.25,3.40625 0,2.07812 -1.25,3.40625 -1.25,1.32812 -3.21875,1.32812 z m 0,-1.25 q 1.3125,0 2.15625,-0.96875 0.84375,-0.98437 0.84375,-2.51562 0,-1.51563 -0.84375,-2.48438 -0.84375,-0.98437 -2.15625,-0.98437 -1.29688,0 -2.15625,0.96875 -0.84375,0.96875 -0.84375,2.5 0,1.54687 0.84375,2.51562 0.84375,0.96875 2.15625,0.96875 z m 9.15573,1.03125 -3.75,-9.01562 h 1.5 l 3.01562,7.39062 2.98438,-7.39062 h 1.51562 l -3.75,9.01562 z m 10.79782,0.21875 q -2.03125,0 -3.3125,-1.3125 -1.28125,-1.32812 -1.28125,-3.42187 0,-2 1.26562,-3.35938 1.28125,-1.35937 3.17188,-1.35937 1.9375,0 3.125,1.34375 1.20312,1.34375 1.20312,3.48437 v 0.35938 h -7.29687 q 0.0781,1.375 1,2.25 0.92187,0.85937 2.25,0.85937 1.64062,0 2.78125,-1.14062 l 0.67187,0.92187 q -1.375,1.375 -3.57812,1.375 z m 2.79687,-5.29687 q 0,-1.25 -0.82812,-2.125 -0.8125,-0.875 -2.14063,-0.875 -1.25,0 -2.07812,0.875 -0.82813,0.875 -0.875,2.125 z m 3.64411,5.07812 v -9.01562 h 1.39062 v 1.45312 q 1.25,-1.64062 3,-1.64062 v 1.4375 l -0.54687,-0.0469 q -0.64063,0 -1.40625,0.45313 -0.76563,0.45312 -1.04688,0.98437 v 6.375 z m 11.78155,0 v -1.03125 q -1.14062,1.25 -2.98437,1.25 -1.35938,0 -2.26563,-0.85937 -0.89062,-0.85938 -0.89062,-2.125 0,-1.29688 0.89062,-2.125 0.89063,-0.84375 2.26563,-0.84375 1.9375,0 2.98437,1.23437 v -1.625 q 0,-0.90625 -0.64062,-1.39062 -0.64063,-0.5 -1.64063,-0.5 -1.57812,0 -2.75,1.25 l -0.65625,-0.98438 q 1.4375,-1.48437 3.59375,-1.48437 1.67188,0 2.57813,0.8125 0.92187,0.79687 0.92187,2.23437 v 6.1875 z m -2.48437,-0.78125 q 1.67187,0 2.48437,-1.125 v -1.6875 q -0.8125,-1.125 -2.48437,-1.125 -0.98438,0 -1.60938,0.54688 -0.60937,0.54687 -0.60937,1.42187 0,0.85938 0.60937,1.42188 0.625,0.54687 1.60938,0.54687 z m 10.3006,4.4375 q -1.15625,0 -2,-0.28125 -0.82813,-0.28125 -1.64063,-1.0625 l 0.71875,-1.04687 q 0.5625,0.67187 1.25,0.95312 0.70313,0.28125 1.67188,0.28125 1.39062,0 2.14062,-0.71875 0.75,-0.71875 0.75,-1.98437 v -1.29688 q -0.48437,0.70313 -1.28125,1.15625 -0.78125,0.45313 -1.73437,0.45313 -1.82813,0 -2.92188,-1.28125 -1.09375,-1.29688 -1.09375,-3.375 0,-2.17188 1.10938,-3.42188 1.10937,-1.26562 2.90625,-1.26562 1.85937,0 3.01562,1.57812 v -1.35937 h 1.40625 v 8.75 q 0,1.90625 -1.125,2.90625 -1.10937,1.01562 -3.17187,1.01562 z m 0.20312,-4.78125 q 0.76563,0 1.51563,-0.40625 0.76562,-0.40625 1.17187,-1.0625 v -3.9375 q -0.40625,-0.65625 -1.17187,-1.04687 -0.76563,-0.40625 -1.51563,-0.40625 -1.3125,0 -2.10937,0.95312 -0.78125,0.95313 -0.78125,2.48438 0,1.54687 0.79687,2.48437 0.8125,0.9375 2.09375,0.9375 z m 10.95871,1.34375 q -2.03125,0 -3.3125,-1.3125 -1.28125,-1.32812 -1.28125,-3.42187 0,-2 1.26563,-3.35938 1.28125,-1.35937 3.17187,-1.35937 1.9375,0 3.125,1.34375 1.20313,1.34375 1.20313,3.48437 v 0.35938 h -7.29688 q 0.0781,1.375 1,2.25 0.92188,0.85937 2.25,0.85937 1.64063,0 2.78125,-1.14062 l 0.67188,0.92187 q -1.375,1.375 -3.57813,1.375 z m 2.79688,-5.29687 q 0,-1.25 -0.82813,-2.125 -0.8125,-0.875 -2.14062,-0.875 -1.25,0 -2.07813,0.875 -0.82812,0.875 -0.875,2.125 z m 8.50427,5.07812 v -12.4375 h 4.25 q 2.84375,0 4.60937,1.76563 1.78125,1.75 1.78125,4.45312 0,2.73438 -1.78125,4.48438 -1.78125,1.73437 -4.60937,1.73437 z m 4.25,-1.375 q 2.125,0 3.45312,-1.32812 1.32813,-1.34375 1.32813,-3.51563 0,-2.15625 -1.3125,-3.5 -1.29688,-1.34375 -3.46875,-1.34375 h -2.70313 v 9.6875 z m 14.38751,1.375 v -1.03125 q -1.14062,1.25 -2.98437,1.25 -1.35938,0 -2.26563,-0.85937 -0.89062,-0.85938 -0.89062,-2.125 0,-1.29688 0.89062,-2.125 0.89063,-0.84375 2.26563,-0.84375 1.9375,0 2.98437,1.23437 v -1.625 q 0,-0.90625 -0.64062,-1.39062 -0.64063,-0.5 -1.64063,-0.5 -1.57812,0 -2.75,1.25 l -0.65625,-0.98438 q 1.4375,-1.48437 3.59375,-1.48437 1.67188,0 2.57813,0.8125 0.92187,0.79687 0.92187,2.23437 v 6.1875 z m -2.48437,-0.78125 q 1.67187,0 2.48437,-1.125 v -1.6875 q -0.8125,-1.125 -2.48437,-1.125 -0.98438,0 -1.60938,0.54688 -0.60937,0.54687 -0.60937,1.42187 0,0.85938 0.60937,1.42188 0.625,0.54687 1.60938,0.54687 z m 8.95684,1 q -2,0 -2,-2.10937 v -5.89063 h -1.48437 v -1.23437 h 1.48437 v -2.45313 h 1.40625 v 2.45313 h 1.82813 v 1.23437 h -1.82813 v 5.59375 q 0,0.51563 0.21875,0.84375 0.23438,0.3125 0.70313,0.3125 0.57812,0 0.9375,-0.375 l 0.42187,1.04688 q -0.57812,0.57812 -1.6875,0.57812 z m 8.8443,-0.21875 v -1.03125 q -1.14062,1.25 -2.98437,1.25 -1.35938,0 -2.26563,-0.85937 -0.89062,-0.85938 -0.89062,-2.125 0,-1.29688 0.89062,-2.125 0.89063,-0.84375 2.26563,-0.84375 1.9375,0 2.98437,1.23437 v -1.625 q 0,-0.90625 -0.64062,-1.39062 -0.64063,-0.5 -1.64063,-0.5 -1.57812,0 -2.75,1.25 l -0.65625,-0.98438 q 1.4375,-1.48437 3.59375,-1.48437 1.67188,0 2.57813,0.8125 0.92187,0.79687 0.92187,2.23437 v 6.1875 z m -2.48437,-0.78125 q 1.67187,0 2.48437,-1.125 v -1.6875 q -0.8125,-1.125 -2.48437,-1.125 -0.98438,0 -1.60938,0.54688 -0.60937,0.54687 -0.60937,1.42187 0,0.85938 0.60937,1.42188 0.625,0.54687 1.60938,0.54687 z"
       fill-rule="nonzero"
       id="path57" />
    <path
       fill="#4ba173"
       d="m 542.53284,233.77559 h 106.64563 v 86.61418 H 542.53284 Z"
       fill-rule="evenodd"
       id="path59" />
    <path
       stroke="#4ba173"
       stroke-width="1"
       stroke-linejoin="round"
       stroke-linecap="butt"
       d="m 542.53284,233.77559 h 106.64563 v 86.61418 H 542.53284 Z"
       fill-rule="evenodd"
       id="path61" />
    <path
       fill="#ffffff"
       d="m 584.8278,273.0027 v -12.4375 h 4.25 q 2.84375,0 4.60938,1.76562 1.78125,1.75 1.78125,4.45313 0,2.73437 -1.78125,4.48437 -1.78125,1.73438 -4.60938,1.73438 z m 4.25,-1.375 q 2.125,0 3.45313,-1.32813 1.32812,-1.34375 1.32812,-3.51562 0,-2.15625 -1.3125,-3.5 -1.29687,-1.34375 -3.46875,-1.34375 h -2.70312 v 9.6875 z m 12.15478,1.375 -5,-12.4375 h 1.76563 l 4.20312,10.73437 4.1875,-10.73437 h 1.78125 l -5.01562,12.4375 z"
       fill-rule="nonzero"
       id="path63" />
    <path
       fill="#ffffff"
       d="m 560.6865,295.0027 v -12.4375 h 8.15625 v 1.375 h -6.60937 v 4.01562 h 6.48437 v 1.375 h -6.48437 v 4.29688 h 6.60937 v 1.375 z m 16.64667,0 v -5.89063 q 0,-1.20312 -0.5625,-1.64062 -0.54688,-0.45313 -1.45313,-0.45313 -0.78125,0 -1.54687,0.42188 -0.75,0.42187 -1.125,0.98437 v 6.57813 h -1.39063 v -9.01563 h 1.39063 v 1.3125 q 0.57812,-0.67187 1.42187,-1.09375 0.85938,-0.4375 1.78125,-0.4375 2.875,0 2.875,2.90625 v 6.32813 z m 7.81085,3.65625 q -1.15625,0 -2,-0.28125 -0.82813,-0.28125 -1.64063,-1.0625 l 0.71875,-1.04688 q 0.5625,0.67188 1.25,0.95313 0.70313,0.28125 1.67188,0.28125 1.39062,0 2.14062,-0.71875 0.75,-0.71875 0.75,-1.98438 v -1.29687 q -0.48437,0.70312 -1.28125,1.15625 -0.78125,0.45312 -1.73437,0.45312 -1.82813,0 -2.92188,-1.28125 -1.09375,-1.29687 -1.09375,-3.375 0,-2.17187 1.10938,-3.42187 1.10937,-1.26563 2.90625,-1.26563 1.85937,0 3.01562,1.57813 v -1.35938 h 1.40625 v 8.75 q 0,1.90625 -1.125,2.90625 -1.10937,1.01563 -3.17187,1.01563 z m 0.20312,-4.78125 q 0.76563,0 1.51563,-0.40625 0.76562,-0.40625 1.17187,-1.0625 v -3.9375 q -0.40625,-0.65625 -1.17187,-1.04688 -0.76563,-0.40625 -1.51563,-0.40625 -1.3125,0 -2.10937,0.95313 -0.78125,0.95312 -0.78125,2.48437 0,1.54688 0.79687,2.48438 0.8125,0.9375 2.09375,0.9375 z m 7.58368,-9.17188 q -0.375,0 -0.65625,-0.26562 -0.28125,-0.28125 -0.28125,-0.67188 0,-0.39062 0.28125,-0.67187 0.28125,-0.28125 0.65625,-0.28125 0.39063,0 0.67188,0.28125 0.28125,0.28125 0.28125,0.67187 0,0.39063 -0.28125,0.67188 -0.28125,0.26562 -0.67188,0.26562 z m -0.6875,10.29688 v -9.01563 h 1.39063 v 9.01563 z m 10.27582,0 v -5.89063 q 0,-1.20312 -0.5625,-1.64062 -0.54687,-0.45313 -1.45312,-0.45313 -0.78125,0 -1.54688,0.42188 -0.75,0.42187 -1.125,0.98437 v 6.57813 h -1.39062 v -9.01563 h 1.39062 v 1.3125 q 0.57813,-0.67187 1.42188,-1.09375 0.85937,-0.4375 1.78125,-0.4375 2.875,0 2.875,2.90625 v 6.32813 z m 8.26398,0.21875 q -2.03125,0 -3.3125,-1.3125 -1.28125,-1.32813 -1.28125,-3.42188 0,-2 1.26562,-3.35937 1.28125,-1.35938 3.17188,-1.35938 1.9375,0 3.125,1.34375 1.20312,1.34375 1.20312,3.48438 v 0.35937 h -7.29687 q 0.0781,1.375 1,2.25 0.92187,0.85938 2.25,0.85938 1.64062,0 2.78125,-1.14063 l 0.67187,0.92188 q -1.375,1.375 -3.57812,1.375 z m 2.79687,-5.29688 q 0,-1.25 -0.82812,-2.125 -0.8125,-0.875 -2.14063,-0.875 -1.25,0 -2.07812,0.875 -0.82813,0.875 -0.875,2.125 z m 7.70661,5.29688 q -2.03125,0 -3.3125,-1.3125 -1.28125,-1.32813 -1.28125,-3.42188 0,-2 1.26562,-3.35937 1.28125,-1.35938 3.17188,-1.35938 1.9375,0 3.125,1.34375 1.20312,1.34375 1.20312,3.48438 v 0.35937 h -7.29687 q 0.0781,1.375 1,2.25 0.92187,0.85938 2.25,0.85938 1.64062,0 2.78125,-1.14063 l 0.67187,0.92188 q -1.375,1.375 -3.57812,1.375 z m 2.79687,-5.29688 q 0,-1.25 -0.82812,-2.125 -0.8125,-0.875 -2.14063,-0.875 -1.25,0 -2.07812,0.875 -0.82813,0.875 -0.875,2.125 z m 3.64404,5.07813 v -9.01563 h 1.39063 v 1.45313 q 1.25,-1.64063 3,-1.64063 v 1.4375 l -0.54688,-0.0469 q -0.64062,0 -1.40625,0.45312 -0.76562,0.45313 -1.04687,0.98438 v 6.375 z"
       fill-rule="nonzero"
       id="path65" />
    <path
       fill="#000000"
       fill-opacity="0"
       d="m 415.19946,391.75198 v 22.89761"
       fill-rule="evenodd"
       id="path67" />
    <path
       stroke="#ff5252"
       stroke-width="2"
       stroke-linejoin="round"
       stroke-linecap="butt"
       d="m 415.19946,391.75198 v 10.89761"
       fill-rule="evenodd"
       id="path69" />
    <path
       fill="#ff5252"
       stroke="#ff5252"
       stroke-width="2"
       stroke-linecap="butt"
       d="m 411.896,402.6496 3.30347,9.0762 3.30346,-9.0762 z"
       fill-rule="evenodd"
       id="path71" />
    <path
       fill="#000000"
       fill-opacity="0"
       d="M 519.57745,433.98032 H 595.8609 V 320.37403"
       fill-rule="evenodd"
       id="path73" />
    <path
       stroke="#ff5252"
       stroke-width="2"
       stroke-linejoin="round"
       stroke-linecap="butt"
       d="M 519.57745,433.98032 H 595.8609 V 332.37403"
       fill-rule="evenodd"
       id="path75" />
    <path
       fill="#ff5252"
       stroke="#ff5252"
       stroke-width="2"
       stroke-linecap="butt"
       d="m 599.16437,332.37402 -3.30347,-9.0762 -3.30346,9.0762 z"
       fill-rule="evenodd"
       id="path77" />
    <path
       fill="#000000"
       fill-opacity="0"
       d="M 595.85565,233.77559 V 129.99606 h -85.95276"
       fill-rule="evenodd"
       id="path79" />
    <path
       stroke="#ff5252"
       stroke-width="2"
       stroke-linejoin="round"
       stroke-linecap="butt"
       d="M 595.85565,233.77559 V 129.99606 h -73.95276"
       fill-rule="evenodd"
       id="path81" />
    <path
       fill="#ff5252"
       stroke="#ff5252"
       stroke-width="2"
       stroke-linecap="butt"
       d="m 521.9029,126.6926 -9.07617,3.30347 9.07617,3.30346 z"
       fill-rule="evenodd"
       id="path83" />
    <path
       fill="#000000"
       fill-opacity="0"
       d="m 475.82153,336.6181 h 80.94489 v 42.01575 h -80.94489 z"
       fill-rule="evenodd"
       id="path85" />
    <path
       fill="#bb0066"
       d="m 496.21417,363.75687 q -3.32812,0 -5.26562,-1.96875 l 1.4375,-2.01563 q 0.65625,0.6875 1.65625,1.1875 1.01562,0.48438 2.29687,0.48438 1.10938,0 1.64063,-0.40625 0.53125,-0.42188 0.53125,-0.96875 0,-0.5625 -0.625,-0.875 -0.60938,-0.32813 -2.96875,-0.875 -3.57813,-0.85938 -3.57813,-3.625 0,-1.60938 1.29688,-2.6875 1.29687,-1.09375 3.42187,-1.09375 2.96875,0 4.85938,1.73437 l -1.48438,1.9375 q -1.46875,-1.35937 -3.60937,-1.35937 -0.85938,0 -1.32813,0.34375 -0.45312,0.34375 -0.45312,0.90625 0,0.48437 0.53125,0.75 0.53125,0.26562 1.34375,0.45312 l 1.71875,0.4375 q 3.5625,0.90625 3.5625,3.65625 0,1.84375 -1.32813,2.92188 -1.32812,1.0625 -3.65625,1.0625 z m 6.77188,-0.21875 v -12.4375 h 2.64063 v 10.10937 h 5.26562 v 2.32813 z m 15.14383,0.21875 q -2.82812,0 -4.65625,-1.79688 -1.82812,-1.8125 -1.82812,-4.64062 0,-2.79688 1.82812,-4.60938 1.82813,-1.82812 4.65625,-1.82812 2.85938,0 4.6875,1.82812 1.82813,1.8125 1.82813,4.60938 0,2.79687 -1.82813,4.625 -1.82812,1.8125 -4.6875,1.8125 z m 0,-2.34375 q 1.64063,0 2.70313,-1.125 1.07812,-1.14063 1.07812,-2.96875 0,-1.76563 -1.03125,-2.92188 -1.03125,-1.15625 -2.75,-1.15625 -1.71875,0 -2.75,1.15625 -1.01562,1.15625 -1.01562,2.92188 0,1.79687 1.04687,2.95312 1.04688,1.14063 2.71875,1.14063 z m 17.52368,2.125 -2.1875,-8.54688 -2.15625,8.54688 h -2.82812 l -3.5625,-12.4375 h 2.96875 l 2.1875,8.98437 2.35937,-8.98437 h 2.07813 l 2.34375,8.98437 2.17187,-8.98437 h 2.98438 l -3.54688,12.4375 z"
       fill-rule="nonzero"
       id="path87" />
  </g>
</svg>
