<?xml version="1.0" encoding="utf-8" standalone="no"?>
<!DOCTYPE svg PUBLIC "-//W3C//DTD SVG 1.1//EN"
  "http://www.w3.org/Graphics/SVG/1.1/DTD/svg11.dtd">
<svg xmlns:xlink="http://www.w3.org/1999/xlink" width="936pt" height="360pt" viewBox="0 0 936 360" xmlns="http://www.w3.org/2000/svg" version="1.1">
 <metadata>
  <rdf:RDF xmlns:dc="http://purl.org/dc/elements/1.1/" xmlns:cc="http://creativecommons.org/ns#" xmlns:rdf="http://www.w3.org/1999/02/22-rdf-syntax-ns#">
   <cc:Work>
    <dc:type rdf:resource="http://purl.org/dc/dcmitype/StillImage"/>
    <dc:date>2023-12-03T16:19:26.536834</dc:date>
    <dc:format>image/svg+xml</dc:format>
    <dc:creator>
     <cc:Agent>
      <dc:title>Matplotlib v3.8.2, https://matplotlib.org/</dc:title>
     </cc:Agent>
    </dc:creator>
   </cc:Work>
  </rdf:RDF>
 </metadata>
 <defs>
  <style type="text/css">*{stroke-linejoin: round; stroke-linecap: butt}</style>
 </defs>
 <g id="figure_1">
  <g id="patch_1">
   <path d="M 0 360 
L 936 360 
L 936 0 
L 0 0 
z
" style="fill: #ffffff"/>
  </g>
  <g id="axes_1">
   <g id="patch_2">
    <path d="M 54.245 157.27 
L 888.145 157.27 
L 888.145 14.76 
L 54.245 14.76 
z
" style="fill: #ffffff"/>
   </g>
   <g id="matplotlib.axis_1">
    <g id="xtick_1">
     <g id="line2d_1">
      <defs>
       <path id="m53bc0b5994" d="M 0 0 
L 0 3.5 
" style="stroke: #000000; stroke-width: 0.8"/>
      </defs>
      <g>
       <use xlink:href="#m53bc0b5994" x="54.245" y="157.27" style="stroke: #000000; stroke-width: 0.8"/>
      </g>
     </g>
    </g>
    <g id="xtick_2">
     <g id="line2d_2">
      <g>
       <use xlink:href="#m53bc0b5994" x="221.025" y="157.27" style="stroke: #000000; stroke-width: 0.8"/>
      </g>
     </g>
    </g>
    <g id="xtick_3">
     <g id="line2d_3">
      <g>
       <use xlink:href="#m53bc0b5994" x="387.805" y="157.27" style="stroke: #000000; stroke-width: 0.8"/>
      </g>
     </g>
    </g>
    <g id="xtick_4">
     <g id="line2d_4">
      <g>
       <use xlink:href="#m53bc0b5994" x="554.585" y="157.27" style="stroke: #000000; stroke-width: 0.8"/>
      </g>
     </g>
    </g>
    <g id="xtick_5">
     <g id="line2d_5">
      <g>
       <use xlink:href="#m53bc0b5994" x="721.365" y="157.27" style="stroke: #000000; stroke-width: 0.8"/>
      </g>
     </g>
    </g>
    <g id="xtick_6">
     <g id="line2d_6">
      <g>
       <use xlink:href="#m53bc0b5994" x="888.145" y="157.27" style="stroke: #000000; stroke-width: 0.8"/>
      </g>
     </g>
    </g>
   </g>
   <g id="matplotlib.axis_2">
    <g id="ytick_1">
     <g id="line2d_7">
      <defs>
       <path id="m1aa22fa182" d="M 0 0 
L -3.5 0 
" style="stroke: #000000; stroke-width: 0.8"/>
      </defs>
      <g>
       <use xlink:href="#m1aa22fa182" x="54.245" y="157.27" style="stroke: #000000; stroke-width: 0.8"/>
      </g>
     </g>
    </g>
    <g id="ytick_2">
     <g id="line2d_8">
      <g>
       <use xlink:href="#m1aa22fa182" x="54.245" y="128.768" style="stroke: #000000; stroke-width: 0.8"/>
      </g>
     </g>
     <g id="text_1">
      <!-- 0.70 -->
      <g transform="translate(24.979375 132.567219) scale(0.1 -0.1)">
       <defs>
        <path id="DejaVuSans-30" d="M 2034 4250 
Q 1547 4250 1301 3770 
Q 1056 3291 1056 2328 
Q 1056 1369 1301 889 
Q 1547 409 2034 409 
Q 2525 409 2770 889 
Q 3016 1369 3016 2328 
Q 3016 3291 2770 3770 
Q 2525 4250 2034 4250 
z
M 2034 4750 
Q 2819 4750 3233 4129 
Q 3647 3509 3647 2328 
Q 3647 1150 3233 529 
Q 2819 -91 2034 -91 
Q 1250 -91 836 529 
Q 422 1150 422 2328 
Q 422 3509 836 4129 
Q 1250 4750 2034 4750 
z
" transform="scale(0.015625)"/>
        <path id="DejaVuSans-2e" d="M 684 794 
L 1344 794 
L 1344 0 
L 684 0 
L 684 794 
z
" transform="scale(0.015625)"/>
        <path id="DejaVuSans-37" d="M 525 4666 
L 3525 4666 
L 3525 4397 
L 1831 0 
L 1172 0 
L 2766 4134 
L 525 4134 
L 525 4666 
z
" transform="scale(0.015625)"/>
       </defs>
       <use xlink:href="#DejaVuSans-30"/>
       <use xlink:href="#DejaVuSans-2e" x="63.623047"/>
       <use xlink:href="#DejaVuSans-37" x="95.410156"/>
       <use xlink:href="#DejaVuSans-30" x="159.033203"/>
      </g>
     </g>
    </g>
    <g id="ytick_3">
     <g id="line2d_9">
      <g>
       <use xlink:href="#m1aa22fa182" x="54.245" y="100.266" style="stroke: #000000; stroke-width: 0.8"/>
      </g>
     </g>
     <g id="text_2">
      <!-- 0.75 -->
      <g transform="translate(24.979375 104.065219) scale(0.1 -0.1)">
       <defs>
        <path id="DejaVuSans-35" d="M 691 4666 
L 3169 4666 
L 3169 4134 
L 1269 4134 
L 1269 2991 
Q 1406 3038 1543 3061 
Q 1681 3084 1819 3084 
Q 2600 3084 3056 2656 
Q 3513 2228 3513 1497 
Q 3513 744 3044 326 
Q 2575 -91 1722 -91 
Q 1428 -91 1123 -41 
Q 819 9 494 109 
L 494 744 
Q 775 591 1075 516 
Q 1375 441 1709 441 
Q 2250 441 2565 725 
Q 2881 1009 2881 1497 
Q 2881 1984 2565 2268 
Q 2250 2553 1709 2553 
Q 1456 2553 1204 2497 
Q 953 2441 691 2322 
L 691 4666 
z
" transform="scale(0.015625)"/>
       </defs>
       <use xlink:href="#DejaVuSans-30"/>
       <use xlink:href="#DejaVuSans-2e" x="63.623047"/>
       <use xlink:href="#DejaVuSans-37" x="95.410156"/>
       <use xlink:href="#DejaVuSans-35" x="159.033203"/>
      </g>
     </g>
    </g>
    <g id="ytick_4">
     <g id="line2d_10">
      <g>
       <use xlink:href="#m1aa22fa182" x="54.245" y="71.764" style="stroke: #000000; stroke-width: 0.8"/>
      </g>
     </g>
     <g id="text_3">
      <!-- 0.80 -->
      <g transform="translate(24.979375 75.563219) scale(0.1 -0.1)">
       <defs>
        <path id="DejaVuSans-38" d="M 2034 2216 
Q 1584 2216 1326 1975 
Q 1069 1734 1069 1313 
Q 1069 891 1326 650 
Q 1584 409 2034 409 
Q 2484 409 2743 651 
Q 3003 894 3003 1313 
Q 3003 1734 2745 1975 
Q 2488 2216 2034 2216 
z
M 1403 2484 
Q 997 2584 770 2862 
Q 544 3141 544 3541 
Q 544 4100 942 4425 
Q 1341 4750 2034 4750 
Q 2731 4750 3128 4425 
Q 3525 4100 3525 3541 
Q 3525 3141 3298 2862 
Q 3072 2584 2669 2484 
Q 3125 2378 3379 2068 
Q 3634 1759 3634 1313 
Q 3634 634 3220 271 
Q 2806 -91 2034 -91 
Q 1263 -91 848 271 
Q 434 634 434 1313 
Q 434 1759 690 2068 
Q 947 2378 1403 2484 
z
M 1172 3481 
Q 1172 3119 1398 2916 
Q 1625 2713 2034 2713 
Q 2441 2713 2670 2916 
Q 2900 3119 2900 3481 
Q 2900 3844 2670 4047 
Q 2441 4250 2034 4250 
Q 1625 4250 1398 4047 
Q 1172 3844 1172 3481 
z
" transform="scale(0.015625)"/>
       </defs>
       <use xlink:href="#DejaVuSans-30"/>
       <use xlink:href="#DejaVuSans-2e" x="63.623047"/>
       <use xlink:href="#DejaVuSans-38" x="95.410156"/>
       <use xlink:href="#DejaVuSans-30" x="159.033203"/>
      </g>
     </g>
    </g>
    <g id="ytick_5">
     <g id="line2d_11">
      <g>
       <use xlink:href="#m1aa22fa182" x="54.245" y="43.262" style="stroke: #000000; stroke-width: 0.8"/>
      </g>
     </g>
     <g id="text_4">
      <!-- 0.85 -->
      <g transform="translate(24.979375 47.061219) scale(0.1 -0.1)">
       <use xlink:href="#DejaVuSans-30"/>
       <use xlink:href="#DejaVuSans-2e" x="63.623047"/>
       <use xlink:href="#DejaVuSans-38" x="95.410156"/>
       <use xlink:href="#DejaVuSans-35" x="159.033203"/>
      </g>
     </g>
    </g>
    <g id="ytick_6">
     <g id="line2d_12">
      <g>
       <use xlink:href="#m1aa22fa182" x="54.245" y="14.76" style="stroke: #000000; stroke-width: 0.8"/>
      </g>
     </g>
     <g id="text_5">
      <!-- 0.90 -->
      <g transform="translate(24.979375 18.559219) scale(0.1 -0.1)">
       <defs>
        <path id="DejaVuSans-39" d="M 703 97 
L 703 672 
Q 941 559 1184 500 
Q 1428 441 1663 441 
Q 2288 441 2617 861 
Q 2947 1281 2994 2138 
Q 2813 1869 2534 1725 
Q 2256 1581 1919 1581 
Q 1219 1581 811 2004 
Q 403 2428 403 3163 
Q 403 3881 828 4315 
Q 1253 4750 1959 4750 
Q 2769 4750 3195 4129 
Q 3622 3509 3622 2328 
Q 3622 1225 3098 567 
Q 2575 -91 1691 -91 
Q 1453 -91 1209 -44 
Q 966 3 703 97 
z
M 1959 2075 
Q 2384 2075 2632 2365 
Q 2881 2656 2881 3163 
Q 2881 3666 2632 3958 
Q 2384 4250 1959 4250 
Q 1534 4250 1286 3958 
Q 1038 3666 1038 3163 
Q 1038 2656 1286 2365 
Q 1534 2075 1959 2075 
z
" transform="scale(0.015625)"/>
       </defs>
       <use xlink:href="#DejaVuSans-30"/>
       <use xlink:href="#DejaVuSans-2e" x="63.623047"/>
       <use xlink:href="#DejaVuSans-39" x="95.410156"/>
       <use xlink:href="#DejaVuSans-30" x="159.033203"/>
      </g>
     </g>
    </g>
    <g id="text_6">
     <!-- IPC -->
     <g transform="translate(18.899688 93.99625) rotate(-90) scale(0.1 -0.1)">
      <defs>
       <path id="DejaVuSans-49" d="M 628 4666 
L 1259 4666 
L 1259 0 
L 628 0 
L 628 4666 
z
" transform="scale(0.015625)"/>
       <path id="DejaVuSans-50" d="M 1259 4147 
L 1259 2394 
L 2053 2394 
Q 2494 2394 2734 2622 
Q 2975 2850 2975 3272 
Q 2975 3691 2734 3919 
Q 2494 4147 2053 4147 
L 1259 4147 
z
M 628 4666 
L 2053 4666 
Q 2838 4666 3239 4311 
Q 3641 3956 3641 3272 
Q 3641 2581 3239 2228 
Q 2838 1875 2053 1875 
L 1259 1875 
L 1259 0 
L 628 0 
L 628 4666 
z
" transform="scale(0.015625)"/>
       <path id="DejaVuSans-43" d="M 4122 4306 
L 4122 3641 
Q 3803 3938 3442 4084 
Q 3081 4231 2675 4231 
Q 1875 4231 1450 3742 
Q 1025 3253 1025 2328 
Q 1025 1406 1450 917 
Q 1875 428 2675 428 
Q 3081 428 3442 575 
Q 3803 722 4122 1019 
L 4122 359 
Q 3791 134 3420 21 
Q 3050 -91 2638 -91 
Q 1578 -91 968 557 
Q 359 1206 359 2328 
Q 359 3453 968 4101 
Q 1578 4750 2638 4750 
Q 3056 4750 3426 4639 
Q 3797 4528 4122 4306 
z
" transform="scale(0.015625)"/>
      </defs>
      <use xlink:href="#DejaVuSans-49"/>
      <use xlink:href="#DejaVuSans-50" x="29.492188"/>
      <use xlink:href="#DejaVuSans-43" x="89.794922"/>
     </g>
    </g>
   </g>
   <g id="line2d_13">
    <path d="M 45.906 135.279407 
L 45.906 76.510209 
L 54.245 76.510209 
L 54.245 54.07532 
L 62.584 54.07532 
L 62.584 85.702066 
L 70.923 85.702066 
L 70.923 127.226866 
L 79.262 127.226866 
L 79.262 78.582812 
L 87.601 78.582812 
L 87.601 71.554535 
L 95.94 71.554535 
L 95.94 90.757171 
L 104.279 90.757171 
L 104.279 78.806429 
L 112.618 78.806429 
L 112.618 135.279407 
L 120.957 135.279407 
L 120.957 76.510209 
L 129.296 76.510209 
L 129.296 64.889705 
L 137.635 64.889705 
L 137.635 85.702066 
L 145.974 85.702066 
L 145.974 127.226866 
L 154.313 127.226866 
L 154.313 78.582812 
L 162.652 78.582812 
L 162.652 71.554535 
L 170.991 71.554535 
L 170.991 90.757171 
L 179.33 90.757171 
L 179.33 78.806429 
L 187.669 78.806429 
L 187.669 135.279407 
L 196.008 135.279407 
L 196.008 101.847849 
L 204.347 101.847849 
L 204.347 64.889705 
L 212.686 64.889705 
L 212.686 85.702066 
L 221.025 85.702066 
L 221.025 127.226866 
L 229.364 127.226866 
L 229.364 78.582812 
L 237.703 78.582812 
L 237.703 71.554535 
L 246.042 71.554535 
L 246.042 90.757171 
L 254.381 90.757171 
L 254.381 78.806429 
L 262.72 78.806429 
L 262.72 135.279407 
L 271.059 135.279407 
L 271.059 101.847849 
L 279.398 101.847849 
L 279.398 64.889705 
L 287.737 64.889705 
L 287.737 85.702066 
L 296.076 85.702066 
L 296.076 115.463396 
L 304.415 115.463396 
L 304.415 78.582812 
L 312.754 78.582812 
L 312.754 71.554535 
L 321.093 71.554535 
L 321.093 54.07532 
L 329.432 54.07532 
L 329.432 78.806429 
L 337.771 78.806429 
L 337.771 135.279407 
L 346.11 135.279407 
L 346.11 101.847849 
L 354.449 101.847849 
L 354.449 64.889705 
L 362.788 64.889705 
L 362.788 85.702066 
L 371.127 85.702066 
L 371.127 115.463396 
L 379.466 115.463396 
L 379.466 78.582812 
L 387.805 78.582812 
L 387.805 76.510209 
L 396.144 76.510209 
L 396.144 54.07532 
L 404.483 54.07532 
L 404.483 78.806429 
L 412.822 78.806429 
L 412.822 135.279407 
L 421.161 135.279407 
L 421.161 101.847849 
L 429.5 101.847849 
L 429.5 64.889705 
L 437.839 64.889705 
L 437.839 85.702066 
L 446.178 85.702066 
L 446.178 115.463396 
L 454.517 115.463396 
L 454.517 78.582812 
L 462.856 78.582812 
L 462.856 76.510209 
L 471.195 76.510209 
L 471.195 54.07532 
L 479.534 54.07532 
L 479.534 78.806429 
L 487.873 78.806429 
L 487.873 127.226866 
L 496.212 127.226866 
L 496.212 101.847849 
L 504.551 101.847849 
L 504.551 64.889705 
L 512.89 64.889705 
L 512.89 90.757171 
L 521.229 90.757171 
L 521.229 115.463396 
L 529.568 115.463396 
L 529.568 78.582812 
L 537.907 78.582812 
L 537.907 76.510209 
L 546.246 76.510209 
L 546.246 54.07532 
L 554.585 54.07532 
L 554.585 78.806429 
L 562.924 78.806429 
L 562.924 127.226866 
L 571.263 127.226866 
L 571.263 101.847849 
L 579.602 101.847849 
L 579.602 64.889705 
L 587.941 64.889705 
L 587.941 90.757171 
L 596.28 90.757171 
L 596.28 115.463396 
L 604.619 115.463396 
L 604.619 78.582812 
L 612.958 78.582812 
L 612.958 76.510209 
L 621.297 76.510209 
L 621.297 54.07532 
L 629.636 54.07532 
L 629.636 85.702066 
L 637.975 85.702066 
L 637.975 127.226866 
L 646.314 127.226866 
L 646.314 101.847849 
L 654.653 101.847849 
L 654.653 71.554535 
L 662.992 71.554535 
L 662.992 90.757171 
L 671.331 90.757171 
L 671.331 115.463396 
L 679.67 115.463396 
L 679.67 135.279407 
L 688.009 135.279407 
L 688.009 76.510209 
L 696.348 76.510209 
L 696.348 54.07532 
L 704.687 54.07532 
L 704.687 85.702066 
L 713.026 85.702066 
L 713.026 127.226866 
L 721.365 127.226866 
L 721.365 78.582812 
L 729.704 78.582812 
L 729.704 71.554535 
L 738.043 71.554535 
L 738.043 90.757171 
L 746.382 90.757171 
L 746.382 78.806429 
L 754.721 78.806429 
L 754.721 135.279407 
L 763.06 135.279407 
L 763.06 76.510209 
L 771.399 76.510209 
L 771.399 54.07532 
L 779.738 54.07532 
L 779.738 85.702066 
L 788.077 85.702066 
L 788.077 127.226866 
L 796.416 127.226866 
L 796.416 78.582812 
L 804.755 78.582812 
L 804.755 71.554535 
L 813.094 71.554535 
L 813.094 90.757171 
L 821.433 90.757171 
L 821.433 78.806429 
L 829.772 78.806429 
L 829.772 135.279407 
L 838.111 135.279407 
L 838.111 76.510209 
L 846.45 76.510209 
L 846.45 64.889705 
L 854.789 64.889705 
L 854.789 85.702066 
L 863.128 85.702066 
L 863.128 127.226866 
L 871.467 127.226866 
L 871.467 78.582812 
L 879.806 78.582812 
L 879.806 71.554535 
L 888.145 71.554535 
L 888.145 90.757171 
L 896.484 90.757171 
L 896.484 90.757171 
" clip-path="url(#pe1b29015e6)" style="fill: none; stroke: #0000ff; stroke-width: 1.5; stroke-linecap: square"/>
   </g>
   <g id="line2d_14">
    <path d="M 45.906 107.722308 
L 45.906 51.572107 
L 54.245 51.572107 
L 54.245 41.828396 
L 62.584 41.828396 
L 62.584 54.34085 
L 70.923 54.34085 
L 70.923 105.856696 
L 79.262 105.856696 
L 79.262 51.572107 
L 87.601 51.572107 
L 87.601 60.166796 
L 95.94 60.166796 
L 95.94 46.749586 
L 104.279 46.749586 
L 104.279 48.367909 
L 112.618 48.367909 
L 112.618 107.102273 
L 120.957 107.102273 
L 120.957 54.34085 
L 129.296 54.34085 
L 129.296 40.998391 
L 137.635 40.998391 
L 137.635 56.688562 
L 145.974 56.688562 
L 145.974 102.710243 
L 154.313 102.710243 
L 154.313 55.126017 
L 162.652 55.126017 
L 162.652 56.298895 
L 170.991 56.298895 
L 170.991 46.749586 
L 179.33 46.749586 
L 179.33 51.969623 
L 187.669 51.969623 
L 187.669 106.791569 
L 196.008 106.791569 
L 196.008 55.126017 
L 204.347 55.126017 
L 204.347 38.070914 
L 212.686 38.070914 
L 212.686 56.688562 
L 221.025 56.688562 
L 221.025 103.026999 
L 229.364 103.026999 
L 229.364 53.553072 
L 237.703 53.553072 
L 237.703 57.077585 
L 246.042 57.077585 
L 246.042 40.582325 
L 254.381 40.582325 
L 254.381 59.013105 
L 262.72 59.013105 
L 262.72 105.856696 
L 271.059 105.856696 
L 271.059 55.908583 
L 279.398 55.908583 
L 279.398 40.582325 
L 287.737 40.582325 
L 287.737 51.173926 
L 296.076 51.173926 
L 296.076 103.659095 
L 304.415 103.659095 
L 304.415 58.240811 
L 312.754 58.240811 
L 312.754 54.34085 
L 321.093 54.34085 
L 321.093 39.329847 
L 329.432 39.329847 
L 329.432 59.782864 
L 337.771 59.782864 
L 337.771 101.119353 
L 346.11 101.119353 
L 346.11 62.457224 
L 354.449 62.457224 
L 354.449 41.828396 
L 362.788 41.828396 
L 362.788 52.762667 
L 371.127 52.762667 
L 371.127 98.549012 
L 379.466 98.549012 
L 379.466 60.166796 
L 387.805 60.166796 
L 387.805 58.627276 
L 396.144 58.627276 
L 396.144 38.910923 
L 404.483 38.910923 
L 404.483 56.688562 
L 412.822 56.688562 
L 412.822 102.710243 
L 421.161 102.710243 
L 421.161 59.782864 
L 429.5 59.782864 
L 429.5 43.479942 
L 437.839 43.479942 
L 437.839 53.947288 
L 446.178 53.947288 
L 446.178 90.648761 
L 454.517 90.648761 
L 454.517 69.195839 
L 462.856 69.195839 
L 462.856 58.627276 
L 471.195 58.627276 
L 471.195 38.070914 
L 479.534 38.070914 
L 479.534 55.517624 
L 487.873 55.517624 
L 487.873 102.393015 
L 496.212 102.393015 
L 496.212 59.398301 
L 504.551 59.398301 
L 504.551 46.343297 
L 512.89 46.343297 
L 512.89 53.947288 
L 521.229 53.947288 
L 521.229 63.215723 
L 529.568 63.215723 
L 529.568 94.305506 
L 537.907 94.305506 
L 537.907 57.853708 
L 546.246 57.853708 
L 546.246 38.070914 
L 554.585 38.070914 
L 554.585 54.34085 
L 562.924 54.34085 
L 562.924 104.603721 
L 571.263 104.603721 
L 571.263 59.398301 
L 579.602 59.398301 
L 579.602 46.343297 
L 587.941 46.343297 
L 587.941 55.126017 
L 596.28 55.126017 
L 596.28 46.343297 
L 604.619 46.343297 
L 604.619 105.856696 
L 612.958 105.856696 
L 612.958 53.158198 
L 621.297 53.158198 
L 621.297 44.301513 
L 629.636 44.301513 
L 629.636 52.762667 
L 637.975 52.762667 
L 637.975 105.231137 
L 646.314 105.231137 
L 646.314 59.013105 
L 654.653 59.013105 
L 654.653 48.367909 
L 662.992 48.367909 
L 662.992 53.553072 
L 671.331 53.553072 
L 671.331 46.749586 
L 679.67 46.749586 
L 679.67 106.168781 
L 688.009 106.168781 
L 688.009 54.733759 
L 696.348 54.733759 
L 696.348 41.413747 
L 704.687 41.413747 
L 704.687 53.947288 
L 713.026 53.947288 
L 713.026 104.603721 
L 721.365 104.603721 
L 721.365 59.782864 
L 729.704 59.782864 
L 729.704 52.762667 
L 738.043 52.762667 
L 738.043 47.96435 
L 746.382 47.96435 
L 746.382 46.749586 
L 754.721 46.749586 
L 754.721 109.264429 
L 763.06 109.264429 
L 763.06 51.969623 
L 771.399 51.969623 
L 771.399 41.828396 
L 779.738 41.828396 
L 779.738 54.34085 
L 788.077 54.34085 
L 788.077 104.917662 
L 796.416 104.917662 
L 796.416 52.366475 
L 804.755 52.366475 
L 804.755 57.465967 
L 813.094 57.465967 
L 813.094 48.367909 
L 821.433 48.367909 
L 821.433 49.97538 
L 829.772 49.97538 
L 829.772 106.168781 
L 838.111 106.168781 
L 838.111 55.126017 
L 846.45 55.126017 
L 846.45 39.748055 
L 854.789 39.748055 
L 854.789 57.077585 
L 863.128 57.077585 
L 863.128 102.393015 
L 871.467 102.393015 
L 871.467 53.553072 
L 879.806 53.553072 
L 879.806 57.465967 
L 888.145 57.465967 
L 888.145 44.301513 
L 896.484 44.301513 
L 896.484 44.301513 
" clip-path="url(#pe1b29015e6)" style="fill: none; stroke: #008000; stroke-width: 1.5; stroke-linecap: square"/>
   </g>
   <g id="patch_3">
    <path d="M 54.245 157.27 
L 54.245 14.76 
" style="fill: none; stroke: #000000; stroke-width: 0.8; stroke-linejoin: miter; stroke-linecap: square"/>
   </g>
   <g id="patch_4">
    <path d="M 888.145 157.27 
L 888.145 14.76 
" style="fill: none; stroke: #000000; stroke-width: 0.8; stroke-linejoin: miter; stroke-linecap: square"/>
   </g>
   <g id="patch_5">
    <path d="M 54.245 157.27 
L 888.145 157.27 
" style="fill: none; stroke: #000000; stroke-width: 0.8; stroke-linejoin: miter; stroke-linecap: square"/>
   </g>
   <g id="patch_6">
    <path d="M 54.245 14.76 
L 888.145 14.76 
" style="fill: none; stroke: #000000; stroke-width: 0.8; stroke-linejoin: miter; stroke-linecap: square"/>
   </g>
   <g id="legend_1">
    <g id="patch_7">
     <path d="M 382.206719 152.27 
L 560.183281 152.27 
Q 562.183281 152.27 562.183281 150.27 
L 562.183281 121.91375 
Q 562.183281 119.91375 560.183281 119.91375 
L 382.206719 119.91375 
Q 380.206719 119.91375 380.206719 121.91375 
L 380.206719 150.27 
Q 380.206719 152.27 382.206719 152.27 
z
" style="fill: #ffffff; opacity: 0.8; stroke: #cccccc; stroke-linejoin: miter"/>
    </g>
    <g id="line2d_15">
     <path d="M 384.206719 128.012188 
L 384.206719 128.012188 
L 394.206719 128.012188 
L 394.206719 128.012188 
L 404.206719 128.012188 
" style="fill: none; stroke: #0000ff; stroke-width: 1.5; stroke-linecap: square"/>
    </g>
    <g id="text_7">
     <!-- Estimated IPC (TidalSim) -->
     <g transform="translate(412.206719 131.512188) scale(0.1 -0.1)">
      <defs>
       <path id="DejaVuSans-45" d="M 628 4666 
L 3578 4666 
L 3578 4134 
L 1259 4134 
L 1259 2753 
L 3481 2753 
L 3481 2222 
L 1259 2222 
L 1259 531 
L 3634 531 
L 3634 0 
L 628 0 
L 628 4666 
z
" transform="scale(0.015625)"/>
       <path id="DejaVuSans-73" d="M 2834 3397 
L 2834 2853 
Q 2591 2978 2328 3040 
Q 2066 3103 1784 3103 
Q 1356 3103 1142 2972 
Q 928 2841 928 2578 
Q 928 2378 1081 2264 
Q 1234 2150 1697 2047 
L 1894 2003 
Q 2506 1872 2764 1633 
Q 3022 1394 3022 966 
Q 3022 478 2636 193 
Q 2250 -91 1575 -91 
Q 1294 -91 989 -36 
Q 684 19 347 128 
L 347 722 
Q 666 556 975 473 
Q 1284 391 1588 391 
Q 1994 391 2212 530 
Q 2431 669 2431 922 
Q 2431 1156 2273 1281 
Q 2116 1406 1581 1522 
L 1381 1569 
Q 847 1681 609 1914 
Q 372 2147 372 2553 
Q 372 3047 722 3315 
Q 1072 3584 1716 3584 
Q 2034 3584 2315 3537 
Q 2597 3491 2834 3397 
z
" transform="scale(0.015625)"/>
       <path id="DejaVuSans-74" d="M 1172 4494 
L 1172 3500 
L 2356 3500 
L 2356 3053 
L 1172 3053 
L 1172 1153 
Q 1172 725 1289 603 
Q 1406 481 1766 481 
L 2356 481 
L 2356 0 
L 1766 0 
Q 1100 0 847 248 
Q 594 497 594 1153 
L 594 3053 
L 172 3053 
L 172 3500 
L 594 3500 
L 594 4494 
L 1172 4494 
z
" transform="scale(0.015625)"/>
       <path id="DejaVuSans-69" d="M 603 3500 
L 1178 3500 
L 1178 0 
L 603 0 
L 603 3500 
z
M 603 4863 
L 1178 4863 
L 1178 4134 
L 603 4134 
L 603 4863 
z
" transform="scale(0.015625)"/>
       <path id="DejaVuSans-6d" d="M 3328 2828 
Q 3544 3216 3844 3400 
Q 4144 3584 4550 3584 
Q 5097 3584 5394 3201 
Q 5691 2819 5691 2113 
L 5691 0 
L 5113 0 
L 5113 2094 
Q 5113 2597 4934 2840 
Q 4756 3084 4391 3084 
Q 3944 3084 3684 2787 
Q 3425 2491 3425 1978 
L 3425 0 
L 2847 0 
L 2847 2094 
Q 2847 2600 2669 2842 
Q 2491 3084 2119 3084 
Q 1678 3084 1418 2786 
Q 1159 2488 1159 1978 
L 1159 0 
L 581 0 
L 581 3500 
L 1159 3500 
L 1159 2956 
Q 1356 3278 1631 3431 
Q 1906 3584 2284 3584 
Q 2666 3584 2933 3390 
Q 3200 3197 3328 2828 
z
" transform="scale(0.015625)"/>
       <path id="DejaVuSans-61" d="M 2194 1759 
Q 1497 1759 1228 1600 
Q 959 1441 959 1056 
Q 959 750 1161 570 
Q 1363 391 1709 391 
Q 2188 391 2477 730 
Q 2766 1069 2766 1631 
L 2766 1759 
L 2194 1759 
z
M 3341 1997 
L 3341 0 
L 2766 0 
L 2766 531 
Q 2569 213 2275 61 
Q 1981 -91 1556 -91 
Q 1019 -91 701 211 
Q 384 513 384 1019 
Q 384 1609 779 1909 
Q 1175 2209 1959 2209 
L 2766 2209 
L 2766 2266 
Q 2766 2663 2505 2880 
Q 2244 3097 1772 3097 
Q 1472 3097 1187 3025 
Q 903 2953 641 2809 
L 641 3341 
Q 956 3463 1253 3523 
Q 1550 3584 1831 3584 
Q 2591 3584 2966 3190 
Q 3341 2797 3341 1997 
z
" transform="scale(0.015625)"/>
       <path id="DejaVuSans-65" d="M 3597 1894 
L 3597 1613 
L 953 1613 
Q 991 1019 1311 708 
Q 1631 397 2203 397 
Q 2534 397 2845 478 
Q 3156 559 3463 722 
L 3463 178 
Q 3153 47 2828 -22 
Q 2503 -91 2169 -91 
Q 1331 -91 842 396 
Q 353 884 353 1716 
Q 353 2575 817 3079 
Q 1281 3584 2069 3584 
Q 2775 3584 3186 3129 
Q 3597 2675 3597 1894 
z
M 3022 2063 
Q 3016 2534 2758 2815 
Q 2500 3097 2075 3097 
Q 1594 3097 1305 2825 
Q 1016 2553 972 2059 
L 3022 2063 
z
" transform="scale(0.015625)"/>
       <path id="DejaVuSans-64" d="M 2906 2969 
L 2906 4863 
L 3481 4863 
L 3481 0 
L 2906 0 
L 2906 525 
Q 2725 213 2448 61 
Q 2172 -91 1784 -91 
Q 1150 -91 751 415 
Q 353 922 353 1747 
Q 353 2572 751 3078 
Q 1150 3584 1784 3584 
Q 2172 3584 2448 3432 
Q 2725 3281 2906 2969 
z
M 947 1747 
Q 947 1113 1208 752 
Q 1469 391 1925 391 
Q 2381 391 2643 752 
Q 2906 1113 2906 1747 
Q 2906 2381 2643 2742 
Q 2381 3103 1925 3103 
Q 1469 3103 1208 2742 
Q 947 2381 947 1747 
z
" transform="scale(0.015625)"/>
       <path id="DejaVuSans-20" transform="scale(0.015625)"/>
       <path id="DejaVuSans-28" d="M 1984 4856 
Q 1566 4138 1362 3434 
Q 1159 2731 1159 2009 
Q 1159 1288 1364 580 
Q 1569 -128 1984 -844 
L 1484 -844 
Q 1016 -109 783 600 
Q 550 1309 550 2009 
Q 550 2706 781 3412 
Q 1013 4119 1484 4856 
L 1984 4856 
z
" transform="scale(0.015625)"/>
       <path id="DejaVuSans-54" d="M -19 4666 
L 3928 4666 
L 3928 4134 
L 2272 4134 
L 2272 0 
L 1638 0 
L 1638 4134 
L -19 4134 
L -19 4666 
z
" transform="scale(0.015625)"/>
       <path id="DejaVuSans-6c" d="M 603 4863 
L 1178 4863 
L 1178 0 
L 603 0 
L 603 4863 
z
" transform="scale(0.015625)"/>
       <path id="DejaVuSans-53" d="M 3425 4513 
L 3425 3897 
Q 3066 4069 2747 4153 
Q 2428 4238 2131 4238 
Q 1616 4238 1336 4038 
Q 1056 3838 1056 3469 
Q 1056 3159 1242 3001 
Q 1428 2844 1947 2747 
L 2328 2669 
Q 3034 2534 3370 2195 
Q 3706 1856 3706 1288 
Q 3706 609 3251 259 
Q 2797 -91 1919 -91 
Q 1588 -91 1214 -16 
Q 841 59 441 206 
L 441 856 
Q 825 641 1194 531 
Q 1563 422 1919 422 
Q 2459 422 2753 634 
Q 3047 847 3047 1241 
Q 3047 1584 2836 1778 
Q 2625 1972 2144 2069 
L 1759 2144 
Q 1053 2284 737 2584 
Q 422 2884 422 3419 
Q 422 4038 858 4394 
Q 1294 4750 2059 4750 
Q 2388 4750 2728 4690 
Q 3069 4631 3425 4513 
z
" transform="scale(0.015625)"/>
       <path id="DejaVuSans-29" d="M 513 4856 
L 1013 4856 
Q 1481 4119 1714 3412 
Q 1947 2706 1947 2009 
Q 1947 1309 1714 600 
Q 1481 -109 1013 -844 
L 513 -844 
Q 928 -128 1133 580 
Q 1338 1288 1338 2009 
Q 1338 2731 1133 3434 
Q 928 4138 513 4856 
z
" transform="scale(0.015625)"/>
      </defs>
      <use xlink:href="#DejaVuSans-45"/>
      <use xlink:href="#DejaVuSans-73" x="63.183594"/>
      <use xlink:href="#DejaVuSans-74" x="115.283203"/>
      <use xlink:href="#DejaVuSans-69" x="154.492188"/>
      <use xlink:href="#DejaVuSans-6d" x="182.275391"/>
      <use xlink:href="#DejaVuSans-61" x="279.6875"/>
      <use xlink:href="#DejaVuSans-74" x="340.966797"/>
      <use xlink:href="#DejaVuSans-65" x="380.175781"/>
      <use xlink:href="#DejaVuSans-64" x="441.699219"/>
      <use xlink:href="#DejaVuSans-20" x="505.175781"/>
      <use xlink:href="#DejaVuSans-49" x="536.962891"/>
      <use xlink:href="#DejaVuSans-50" x="566.455078"/>
      <use xlink:href="#DejaVuSans-43" x="626.757812"/>
      <use xlink:href="#DejaVuSans-20" x="696.582031"/>
      <use xlink:href="#DejaVuSans-28" x="728.369141"/>
      <use xlink:href="#DejaVuSans-54" x="767.382812"/>
      <use xlink:href="#DejaVuSans-69" x="825.341797"/>
      <use xlink:href="#DejaVuSans-64" x="853.125"/>
      <use xlink:href="#DejaVuSans-61" x="916.601562"/>
      <use xlink:href="#DejaVuSans-6c" x="977.880859"/>
      <use xlink:href="#DejaVuSans-53" x="1005.664062"/>
      <use xlink:href="#DejaVuSans-69" x="1069.140625"/>
      <use xlink:href="#DejaVuSans-6d" x="1096.923828"/>
      <use xlink:href="#DejaVuSans-29" x="1194.335938"/>
     </g>
    </g>
    <g id="line2d_16">
     <path d="M 384.206719 142.690313 
L 384.206719 142.690313 
L 394.206719 142.690313 
L 394.206719 142.690313 
L 404.206719 142.690313 
" style="fill: none; stroke: #008000; stroke-width: 1.5; stroke-linecap: square"/>
    </g>
    <g id="text_8">
     <!-- True IPC (Full RTL Simulation) -->
     <g transform="translate(412.206719 146.190313) scale(0.1 -0.1)">
      <defs>
       <path id="DejaVuSans-72" d="M 2631 2963 
Q 2534 3019 2420 3045 
Q 2306 3072 2169 3072 
Q 1681 3072 1420 2755 
Q 1159 2438 1159 1844 
L 1159 0 
L 581 0 
L 581 3500 
L 1159 3500 
L 1159 2956 
Q 1341 3275 1631 3429 
Q 1922 3584 2338 3584 
Q 2397 3584 2469 3576 
Q 2541 3569 2628 3553 
L 2631 2963 
z
" transform="scale(0.015625)"/>
       <path id="DejaVuSans-75" d="M 544 1381 
L 544 3500 
L 1119 3500 
L 1119 1403 
Q 1119 906 1312 657 
Q 1506 409 1894 409 
Q 2359 409 2629 706 
Q 2900 1003 2900 1516 
L 2900 3500 
L 3475 3500 
L 3475 0 
L 2900 0 
L 2900 538 
Q 2691 219 2414 64 
Q 2138 -91 1772 -91 
Q 1169 -91 856 284 
Q 544 659 544 1381 
z
M 1991 3584 
L 1991 3584 
z
" transform="scale(0.015625)"/>
       <path id="DejaVuSans-46" d="M 628 4666 
L 3309 4666 
L 3309 4134 
L 1259 4134 
L 1259 2759 
L 3109 2759 
L 3109 2228 
L 1259 2228 
L 1259 0 
L 628 0 
L 628 4666 
z
" transform="scale(0.015625)"/>
       <path id="DejaVuSans-52" d="M 2841 2188 
Q 3044 2119 3236 1894 
Q 3428 1669 3622 1275 
L 4263 0 
L 3584 0 
L 2988 1197 
Q 2756 1666 2539 1819 
Q 2322 1972 1947 1972 
L 1259 1972 
L 1259 0 
L 628 0 
L 628 4666 
L 2053 4666 
Q 2853 4666 3247 4331 
Q 3641 3997 3641 3322 
Q 3641 2881 3436 2590 
Q 3231 2300 2841 2188 
z
M 1259 4147 
L 1259 2491 
L 2053 2491 
Q 2509 2491 2742 2702 
Q 2975 2913 2975 3322 
Q 2975 3731 2742 3939 
Q 2509 4147 2053 4147 
L 1259 4147 
z
" transform="scale(0.015625)"/>
       <path id="DejaVuSans-4c" d="M 628 4666 
L 1259 4666 
L 1259 531 
L 3531 531 
L 3531 0 
L 628 0 
L 628 4666 
z
" transform="scale(0.015625)"/>
       <path id="DejaVuSans-6f" d="M 1959 3097 
Q 1497 3097 1228 2736 
Q 959 2375 959 1747 
Q 959 1119 1226 758 
Q 1494 397 1959 397 
Q 2419 397 2687 759 
Q 2956 1122 2956 1747 
Q 2956 2369 2687 2733 
Q 2419 3097 1959 3097 
z
M 1959 3584 
Q 2709 3584 3137 3096 
Q 3566 2609 3566 1747 
Q 3566 888 3137 398 
Q 2709 -91 1959 -91 
Q 1206 -91 779 398 
Q 353 888 353 1747 
Q 353 2609 779 3096 
Q 1206 3584 1959 3584 
z
" transform="scale(0.015625)"/>
       <path id="DejaVuSans-6e" d="M 3513 2113 
L 3513 0 
L 2938 0 
L 2938 2094 
Q 2938 2591 2744 2837 
Q 2550 3084 2163 3084 
Q 1697 3084 1428 2787 
Q 1159 2491 1159 1978 
L 1159 0 
L 581 0 
L 581 3500 
L 1159 3500 
L 1159 2956 
Q 1366 3272 1645 3428 
Q 1925 3584 2291 3584 
Q 2894 3584 3203 3211 
Q 3513 2838 3513 2113 
z
" transform="scale(0.015625)"/>
      </defs>
      <use xlink:href="#DejaVuSans-54"/>
      <use xlink:href="#DejaVuSans-72" x="46.333984"/>
      <use xlink:href="#DejaVuSans-75" x="87.447266"/>
      <use xlink:href="#DejaVuSans-65" x="150.826172"/>
      <use xlink:href="#DejaVuSans-20" x="212.349609"/>
      <use xlink:href="#DejaVuSans-49" x="244.136719"/>
      <use xlink:href="#DejaVuSans-50" x="273.628906"/>
      <use xlink:href="#DejaVuSans-43" x="333.931641"/>
      <use xlink:href="#DejaVuSans-20" x="403.755859"/>
      <use xlink:href="#DejaVuSans-28" x="435.542969"/>
      <use xlink:href="#DejaVuSans-46" x="474.556641"/>
      <use xlink:href="#DejaVuSans-75" x="526.576172"/>
      <use xlink:href="#DejaVuSans-6c" x="589.955078"/>
      <use xlink:href="#DejaVuSans-6c" x="617.738281"/>
      <use xlink:href="#DejaVuSans-20" x="645.521484"/>
      <use xlink:href="#DejaVuSans-52" x="677.308594"/>
      <use xlink:href="#DejaVuSans-54" x="739.541016"/>
      <use xlink:href="#DejaVuSans-4c" x="800.625"/>
      <use xlink:href="#DejaVuSans-20" x="856.337891"/>
      <use xlink:href="#DejaVuSans-53" x="888.125"/>
      <use xlink:href="#DejaVuSans-69" x="951.601562"/>
      <use xlink:href="#DejaVuSans-6d" x="979.384766"/>
      <use xlink:href="#DejaVuSans-75" x="1076.796875"/>
      <use xlink:href="#DejaVuSans-6c" x="1140.175781"/>
      <use xlink:href="#DejaVuSans-61" x="1167.958984"/>
      <use xlink:href="#DejaVuSans-74" x="1229.238281"/>
      <use xlink:href="#DejaVuSans-69" x="1268.447266"/>
      <use xlink:href="#DejaVuSans-6f" x="1296.230469"/>
      <use xlink:href="#DejaVuSans-6e" x="1357.412109"/>
      <use xlink:href="#DejaVuSans-29" x="1420.791016"/>
     </g>
    </g>
   </g>
  </g>
  <g id="axes_2">
   <g id="patch_8">
    <path d="M 54.245 318.04 
L 888.145 318.04 
L 888.145 175.53 
L 54.245 175.53 
z
" style="fill: #ffffff"/>
   </g>
   <g id="matplotlib.axis_3">
    <g id="xtick_7">
     <g id="line2d_17">
      <g>
       <use xlink:href="#m53bc0b5994" x="54.245" y="318.04" style="stroke: #000000; stroke-width: 0.8"/>
      </g>
     </g>
     <g id="text_9">
      <!-- 400000 -->
      <g transform="translate(35.1575 332.638438) scale(0.1 -0.1)">
       <defs>
        <path id="DejaVuSans-34" d="M 2419 4116 
L 825 1625 
L 2419 1625 
L 2419 4116 
z
M 2253 4666 
L 3047 4666 
L 3047 1625 
L 3713 1625 
L 3713 1100 
L 3047 1100 
L 3047 0 
L 2419 0 
L 2419 1100 
L 313 1100 
L 313 1709 
L 2253 4666 
z
" transform="scale(0.015625)"/>
       </defs>
       <use xlink:href="#DejaVuSans-34"/>
       <use xlink:href="#DejaVuSans-30" x="63.623047"/>
       <use xlink:href="#DejaVuSans-30" x="127.246094"/>
       <use xlink:href="#DejaVuSans-30" x="190.869141"/>
       <use xlink:href="#DejaVuSans-30" x="254.492188"/>
       <use xlink:href="#DejaVuSans-30" x="318.115234"/>
      </g>
     </g>
    </g>
    <g id="xtick_8">
     <g id="line2d_18">
      <g>
       <use xlink:href="#m53bc0b5994" x="221.025" y="318.04" style="stroke: #000000; stroke-width: 0.8"/>
      </g>
     </g>
     <g id="text_10">
      <!-- 420000 -->
      <g transform="translate(201.9375 332.638438) scale(0.1 -0.1)">
       <defs>
        <path id="DejaVuSans-32" d="M 1228 531 
L 3431 531 
L 3431 0 
L 469 0 
L 469 531 
Q 828 903 1448 1529 
Q 2069 2156 2228 2338 
Q 2531 2678 2651 2914 
Q 2772 3150 2772 3378 
Q 2772 3750 2511 3984 
Q 2250 4219 1831 4219 
Q 1534 4219 1204 4116 
Q 875 4013 500 3803 
L 500 4441 
Q 881 4594 1212 4672 
Q 1544 4750 1819 4750 
Q 2544 4750 2975 4387 
Q 3406 4025 3406 3419 
Q 3406 3131 3298 2873 
Q 3191 2616 2906 2266 
Q 2828 2175 2409 1742 
Q 1991 1309 1228 531 
z
" transform="scale(0.015625)"/>
       </defs>
       <use xlink:href="#DejaVuSans-34"/>
       <use xlink:href="#DejaVuSans-32" x="63.623047"/>
       <use xlink:href="#DejaVuSans-30" x="127.246094"/>
       <use xlink:href="#DejaVuSans-30" x="190.869141"/>
       <use xlink:href="#DejaVuSans-30" x="254.492188"/>
       <use xlink:href="#DejaVuSans-30" x="318.115234"/>
      </g>
     </g>
    </g>
    <g id="xtick_9">
     <g id="line2d_19">
      <g>
       <use xlink:href="#m53bc0b5994" x="387.805" y="318.04" style="stroke: #000000; stroke-width: 0.8"/>
      </g>
     </g>
     <g id="text_11">
      <!-- 440000 -->
      <g transform="translate(368.7175 332.638438) scale(0.1 -0.1)">
       <use xlink:href="#DejaVuSans-34"/>
       <use xlink:href="#DejaVuSans-34" x="63.623047"/>
       <use xlink:href="#DejaVuSans-30" x="127.246094"/>
       <use xlink:href="#DejaVuSans-30" x="190.869141"/>
       <use xlink:href="#DejaVuSans-30" x="254.492188"/>
       <use xlink:href="#DejaVuSans-30" x="318.115234"/>
      </g>
     </g>
    </g>
    <g id="xtick_10">
     <g id="line2d_20">
      <g>
       <use xlink:href="#m53bc0b5994" x="554.585" y="318.04" style="stroke: #000000; stroke-width: 0.8"/>
      </g>
     </g>
     <g id="text_12">
      <!-- 460000 -->
      <g transform="translate(535.4975 332.638438) scale(0.1 -0.1)">
       <defs>
        <path id="DejaVuSans-36" d="M 2113 2584 
Q 1688 2584 1439 2293 
Q 1191 2003 1191 1497 
Q 1191 994 1439 701 
Q 1688 409 2113 409 
Q 2538 409 2786 701 
Q 3034 994 3034 1497 
Q 3034 2003 2786 2293 
Q 2538 2584 2113 2584 
z
M 3366 4563 
L 3366 3988 
Q 3128 4100 2886 4159 
Q 2644 4219 2406 4219 
Q 1781 4219 1451 3797 
Q 1122 3375 1075 2522 
Q 1259 2794 1537 2939 
Q 1816 3084 2150 3084 
Q 2853 3084 3261 2657 
Q 3669 2231 3669 1497 
Q 3669 778 3244 343 
Q 2819 -91 2113 -91 
Q 1303 -91 875 529 
Q 447 1150 447 2328 
Q 447 3434 972 4092 
Q 1497 4750 2381 4750 
Q 2619 4750 2861 4703 
Q 3103 4656 3366 4563 
z
" transform="scale(0.015625)"/>
       </defs>
       <use xlink:href="#DejaVuSans-34"/>
       <use xlink:href="#DejaVuSans-36" x="63.623047"/>
       <use xlink:href="#DejaVuSans-30" x="127.246094"/>
       <use xlink:href="#DejaVuSans-30" x="190.869141"/>
       <use xlink:href="#DejaVuSans-30" x="254.492188"/>
       <use xlink:href="#DejaVuSans-30" x="318.115234"/>
      </g>
     </g>
    </g>
    <g id="xtick_11">
     <g id="line2d_21">
      <g>
       <use xlink:href="#m53bc0b5994" x="721.365" y="318.04" style="stroke: #000000; stroke-width: 0.8"/>
      </g>
     </g>
     <g id="text_13">
      <!-- 480000 -->
      <g transform="translate(702.2775 332.638438) scale(0.1 -0.1)">
       <use xlink:href="#DejaVuSans-34"/>
       <use xlink:href="#DejaVuSans-38" x="63.623047"/>
       <use xlink:href="#DejaVuSans-30" x="127.246094"/>
       <use xlink:href="#DejaVuSans-30" x="190.869141"/>
       <use xlink:href="#DejaVuSans-30" x="254.492188"/>
       <use xlink:href="#DejaVuSans-30" x="318.115234"/>
      </g>
     </g>
    </g>
    <g id="xtick_12">
     <g id="line2d_22">
      <g>
       <use xlink:href="#m53bc0b5994" x="888.145" y="318.04" style="stroke: #000000; stroke-width: 0.8"/>
      </g>
     </g>
     <g id="text_14">
      <!-- 500000 -->
      <g transform="translate(869.0575 332.638438) scale(0.1 -0.1)">
       <use xlink:href="#DejaVuSans-35"/>
       <use xlink:href="#DejaVuSans-30" x="63.623047"/>
       <use xlink:href="#DejaVuSans-30" x="127.246094"/>
       <use xlink:href="#DejaVuSans-30" x="190.869141"/>
       <use xlink:href="#DejaVuSans-30" x="254.492188"/>
       <use xlink:href="#DejaVuSans-30" x="318.115234"/>
      </g>
     </g>
    </g>
    <g id="text_15">
     <!-- Instructions -->
     <g transform="translate(441.830938 346.316563) scale(0.1 -0.1)">
      <defs>
       <path id="DejaVuSans-63" d="M 3122 3366 
L 3122 2828 
Q 2878 2963 2633 3030 
Q 2388 3097 2138 3097 
Q 1578 3097 1268 2742 
Q 959 2388 959 1747 
Q 959 1106 1268 751 
Q 1578 397 2138 397 
Q 2388 397 2633 464 
Q 2878 531 3122 666 
L 3122 134 
Q 2881 22 2623 -34 
Q 2366 -91 2075 -91 
Q 1284 -91 818 406 
Q 353 903 353 1747 
Q 353 2603 823 3093 
Q 1294 3584 2113 3584 
Q 2378 3584 2631 3529 
Q 2884 3475 3122 3366 
z
" transform="scale(0.015625)"/>
      </defs>
      <use xlink:href="#DejaVuSans-49"/>
      <use xlink:href="#DejaVuSans-6e" x="29.492188"/>
      <use xlink:href="#DejaVuSans-73" x="92.871094"/>
      <use xlink:href="#DejaVuSans-74" x="144.970703"/>
      <use xlink:href="#DejaVuSans-72" x="184.179688"/>
      <use xlink:href="#DejaVuSans-75" x="225.292969"/>
      <use xlink:href="#DejaVuSans-63" x="288.671875"/>
      <use xlink:href="#DejaVuSans-74" x="343.652344"/>
      <use xlink:href="#DejaVuSans-69" x="382.861328"/>
      <use xlink:href="#DejaVuSans-6f" x="410.644531"/>
      <use xlink:href="#DejaVuSans-6e" x="471.826172"/>
      <use xlink:href="#DejaVuSans-73" x="535.205078"/>
     </g>
    </g>
   </g>
   <g id="matplotlib.axis_4">
    <g id="ytick_7">
     <g id="line2d_23">
      <g>
       <use xlink:href="#m1aa22fa182" x="54.245" y="318.04" style="stroke: #000000; stroke-width: 0.8"/>
      </g>
     </g>
     <g id="text_16">
      <!-- 0.0 -->
      <g transform="translate(31.341875 321.839219) scale(0.1 -0.1)">
       <use xlink:href="#DejaVuSans-30"/>
       <use xlink:href="#DejaVuSans-2e" x="63.623047"/>
       <use xlink:href="#DejaVuSans-30" x="95.410156"/>
      </g>
     </g>
    </g>
    <g id="ytick_8">
     <g id="line2d_24">
      <g>
       <use xlink:href="#m1aa22fa182" x="54.245" y="294.288333" style="stroke: #000000; stroke-width: 0.8"/>
      </g>
     </g>
     <g id="text_17">
      <!-- 2.5 -->
      <g transform="translate(31.341875 298.087552) scale(0.1 -0.1)">
       <use xlink:href="#DejaVuSans-32"/>
       <use xlink:href="#DejaVuSans-2e" x="63.623047"/>
       <use xlink:href="#DejaVuSans-35" x="95.410156"/>
      </g>
     </g>
    </g>
    <g id="ytick_9">
     <g id="line2d_25">
      <g>
       <use xlink:href="#m1aa22fa182" x="54.245" y="270.536667" style="stroke: #000000; stroke-width: 0.8"/>
      </g>
     </g>
     <g id="text_18">
      <!-- 5.0 -->
      <g transform="translate(31.341875 274.335885) scale(0.1 -0.1)">
       <use xlink:href="#DejaVuSans-35"/>
       <use xlink:href="#DejaVuSans-2e" x="63.623047"/>
       <use xlink:href="#DejaVuSans-30" x="95.410156"/>
      </g>
     </g>
    </g>
    <g id="ytick_10">
     <g id="line2d_26">
      <g>
       <use xlink:href="#m1aa22fa182" x="54.245" y="246.785" style="stroke: #000000; stroke-width: 0.8"/>
      </g>
     </g>
     <g id="text_19">
      <!-- 7.5 -->
      <g transform="translate(31.341875 250.584219) scale(0.1 -0.1)">
       <use xlink:href="#DejaVuSans-37"/>
       <use xlink:href="#DejaVuSans-2e" x="63.623047"/>
       <use xlink:href="#DejaVuSans-35" x="95.410156"/>
      </g>
     </g>
    </g>
    <g id="ytick_11">
     <g id="line2d_27">
      <g>
       <use xlink:href="#m1aa22fa182" x="54.245" y="223.033333" style="stroke: #000000; stroke-width: 0.8"/>
      </g>
     </g>
     <g id="text_20">
      <!-- 10.0 -->
      <g transform="translate(24.979375 226.832552) scale(0.1 -0.1)">
       <defs>
        <path id="DejaVuSans-31" d="M 794 531 
L 1825 531 
L 1825 4091 
L 703 3866 
L 703 4441 
L 1819 4666 
L 2450 4666 
L 2450 531 
L 3481 531 
L 3481 0 
L 794 0 
L 794 531 
z
" transform="scale(0.015625)"/>
       </defs>
       <use xlink:href="#DejaVuSans-31"/>
       <use xlink:href="#DejaVuSans-30" x="63.623047"/>
       <use xlink:href="#DejaVuSans-2e" x="127.246094"/>
       <use xlink:href="#DejaVuSans-30" x="159.033203"/>
      </g>
     </g>
    </g>
    <g id="ytick_12">
     <g id="line2d_28">
      <g>
       <use xlink:href="#m1aa22fa182" x="54.245" y="199.281667" style="stroke: #000000; stroke-width: 0.8"/>
      </g>
     </g>
     <g id="text_21">
      <!-- 12.5 -->
      <g transform="translate(24.979375 203.080885) scale(0.1 -0.1)">
       <use xlink:href="#DejaVuSans-31"/>
       <use xlink:href="#DejaVuSans-32" x="63.623047"/>
       <use xlink:href="#DejaVuSans-2e" x="127.246094"/>
       <use xlink:href="#DejaVuSans-35" x="159.033203"/>
      </g>
     </g>
    </g>
    <g id="ytick_13">
     <g id="line2d_29">
      <g>
       <use xlink:href="#m1aa22fa182" x="54.245" y="175.53" style="stroke: #000000; stroke-width: 0.8"/>
      </g>
     </g>
     <g id="text_22">
      <!-- 15.0 -->
      <g transform="translate(24.979375 179.329219) scale(0.1 -0.1)">
       <use xlink:href="#DejaVuSans-31"/>
       <use xlink:href="#DejaVuSans-35" x="63.623047"/>
       <use xlink:href="#DejaVuSans-2e" x="127.246094"/>
       <use xlink:href="#DejaVuSans-30" x="159.033203"/>
      </g>
     </g>
    </g>
    <g id="text_23">
     <!-- Absolute IPC error (%) -->
     <g transform="translate(18.899687 302.14125) rotate(-90) scale(0.1 -0.1)">
      <defs>
       <path id="DejaVuSans-41" d="M 2188 4044 
L 1331 1722 
L 3047 1722 
L 2188 4044 
z
M 1831 4666 
L 2547 4666 
L 4325 0 
L 3669 0 
L 3244 1197 
L 1141 1197 
L 716 0 
L 50 0 
L 1831 4666 
z
" transform="scale(0.015625)"/>
       <path id="DejaVuSans-62" d="M 3116 1747 
Q 3116 2381 2855 2742 
Q 2594 3103 2138 3103 
Q 1681 3103 1420 2742 
Q 1159 2381 1159 1747 
Q 1159 1113 1420 752 
Q 1681 391 2138 391 
Q 2594 391 2855 752 
Q 3116 1113 3116 1747 
z
M 1159 2969 
Q 1341 3281 1617 3432 
Q 1894 3584 2278 3584 
Q 2916 3584 3314 3078 
Q 3713 2572 3713 1747 
Q 3713 922 3314 415 
Q 2916 -91 2278 -91 
Q 1894 -91 1617 61 
Q 1341 213 1159 525 
L 1159 0 
L 581 0 
L 581 4863 
L 1159 4863 
L 1159 2969 
z
" transform="scale(0.015625)"/>
       <path id="DejaVuSans-25" d="M 4653 2053 
Q 4381 2053 4226 1822 
Q 4072 1591 4072 1178 
Q 4072 772 4226 539 
Q 4381 306 4653 306 
Q 4919 306 5073 539 
Q 5228 772 5228 1178 
Q 5228 1588 5073 1820 
Q 4919 2053 4653 2053 
z
M 4653 2450 
Q 5147 2450 5437 2106 
Q 5728 1763 5728 1178 
Q 5728 594 5436 251 
Q 5144 -91 4653 -91 
Q 4153 -91 3862 251 
Q 3572 594 3572 1178 
Q 3572 1766 3864 2108 
Q 4156 2450 4653 2450 
z
M 1428 4353 
Q 1159 4353 1004 4120 
Q 850 3888 850 3481 
Q 850 3069 1003 2837 
Q 1156 2606 1428 2606 
Q 1700 2606 1854 2837 
Q 2009 3069 2009 3481 
Q 2009 3884 1853 4118 
Q 1697 4353 1428 4353 
z
M 4250 4750 
L 4750 4750 
L 1831 -91 
L 1331 -91 
L 4250 4750 
z
M 1428 4750 
Q 1922 4750 2215 4408 
Q 2509 4066 2509 3481 
Q 2509 2891 2217 2550 
Q 1925 2209 1428 2209 
Q 931 2209 642 2551 
Q 353 2894 353 3481 
Q 353 4063 643 4406 
Q 934 4750 1428 4750 
z
" transform="scale(0.015625)"/>
      </defs>
      <use xlink:href="#DejaVuSans-41"/>
      <use xlink:href="#DejaVuSans-62" x="68.408203"/>
      <use xlink:href="#DejaVuSans-73" x="131.884766"/>
      <use xlink:href="#DejaVuSans-6f" x="183.984375"/>
      <use xlink:href="#DejaVuSans-6c" x="245.166016"/>
      <use xlink:href="#DejaVuSans-75" x="272.949219"/>
      <use xlink:href="#DejaVuSans-74" x="336.328125"/>
      <use xlink:href="#DejaVuSans-65" x="375.537109"/>
      <use xlink:href="#DejaVuSans-20" x="437.060547"/>
      <use xlink:href="#DejaVuSans-49" x="468.847656"/>
      <use xlink:href="#DejaVuSans-50" x="498.339844"/>
      <use xlink:href="#DejaVuSans-43" x="558.642578"/>
      <use xlink:href="#DejaVuSans-20" x="628.466797"/>
      <use xlink:href="#DejaVuSans-65" x="660.253906"/>
      <use xlink:href="#DejaVuSans-72" x="721.777344"/>
      <use xlink:href="#DejaVuSans-72" x="761.140625"/>
      <use xlink:href="#DejaVuSans-6f" x="800.003906"/>
      <use xlink:href="#DejaVuSans-72" x="861.185547"/>
      <use xlink:href="#DejaVuSans-20" x="902.298828"/>
      <use xlink:href="#DejaVuSans-28" x="934.085938"/>
      <use xlink:href="#DejaVuSans-25" x="973.099609"/>
      <use xlink:href="#DejaVuSans-29" x="1068.119141"/>
     </g>
    </g>
   </g>
   <g id="line2d_30">
    <path d="M 45.906 255.715028 
L 45.906 268.288486 
L 54.245 268.288486 
L 54.245 294.097263 
L 62.584 294.097263 
L 62.584 255.108493 
L 70.923 255.108493 
L 70.923 269.9215 
L 79.262 269.9215 
L 79.262 264.153644 
L 87.601 264.153644 
L 87.601 294.903911 
L 95.94 294.903911 
L 95.94 231.12502 
L 104.279 231.12502 
L 104.279 257.720999 
L 112.618 257.720999 
L 112.618 254.40664 
L 120.957 254.40664 
L 120.957 273.553487 
L 129.296 273.553487 
L 129.296 271.412119 
L 137.635 271.412119 
L 137.635 259.529433 
L 145.974 259.529433 
L 145.974 263.245348 
L 154.313 263.245348 
L 154.313 270.891841 
L 162.652 270.891841 
L 162.652 287.299886 
L 170.991 287.299886 
L 170.991 231.12502 
L 179.33 231.12502 
L 179.33 264.455843 
L 187.669 264.455843 
L 187.669 253.752445 
L 196.008 253.752445 
L 196.008 224.129117 
L 204.347 224.129117 
L 204.347 266.011545 
L 212.686 266.011545 
L 212.686 259.529433 
L 221.025 259.529433 
L 221.025 263.912963 
L 229.364 263.912963 
L 229.364 267.897087 
L 237.703 267.897087 
L 237.703 288.820691 
L 246.042 288.820691 
L 246.042 220.199049 
L 254.381 220.199049 
L 254.381 277.92553 
L 262.72 277.92553 
L 262.72 251.789862 
L 271.059 251.789862 
L 271.059 225.548945 
L 279.398 225.548945 
L 279.398 270.640608 
L 287.737 270.640608 
L 287.737 249.213908 
L 296.076 249.213908 
L 296.076 291.598366 
L 304.415 291.598366 
L 304.415 276.881351 
L 312.754 276.881351 
L 312.754 283.497874 
L 321.093 283.497874 
L 321.093 289.360057 
L 329.432 289.360057 
L 329.432 279.422162 
L 337.771 279.422162 
L 337.771 241.976948 
L 346.11 241.976948 
L 346.11 237.617476 
L 354.449 237.617476 
L 354.449 272.95514 
L 362.788 272.95514 
L 362.788 252.161201 
L 371.127 252.161201 
L 371.127 280.60283 
L 387.805 280.624794 
L 387.805 281.82706 
L 396.144 281.82706 
L 396.144 288.570522 
L 404.483 288.570522 
L 404.483 273.435634 
L 412.822 273.435634 
L 412.822 245.247919 
L 421.161 245.247919 
L 421.161 232.64808 
L 429.5 232.64808 
L 429.5 276.041182 
L 437.839 276.041182 
L 437.839 254.37167 
L 446.178 254.37167 
L 446.178 264.109525 
L 454.517 264.109525 
L 454.517 298.593321 
L 462.856 298.593321 
L 462.856 281.82706 
L 471.195 281.82706 
L 471.195 286.991453 
L 479.534 286.991453 
L 479.534 271.190686 
L 487.873 271.190686 
L 487.873 262.577733 
L 496.212 262.577733 
L 496.212 231.938167 
L 504.551 231.938167 
L 504.551 281.441755 
L 512.89 281.441755 
L 512.89 244.236185 
L 521.229 244.236185 
L 521.229 211.193508 
L 529.568 211.193508 
L 529.568 283.581096 
L 537.907 283.581096 
L 537.907 280.322774 
L 546.246 280.322774 
L 546.246 286.991453 
L 554.585 286.991453 
L 554.585 268.945738 
L 562.924 268.945738 
L 562.924 267.25104 
L 571.263 267.25104 
L 571.263 231.938167 
L 579.602 231.938167 
L 579.602 281.441755 
L 587.941 281.441755 
L 587.941 246.421379 
L 596.28 246.421379 
L 596.28 181.643005 
L 604.619 181.643005 
L 604.619 256.628305 
L 612.958 256.628305 
L 612.958 271.297058 
L 621.297 271.297058 
L 621.297 298.83447 
L 629.636 298.83447 
L 629.636 252.161201 
L 637.975 252.161201 
L 637.975 268.58627 
L 646.314 268.58627 
L 646.314 231.228253 
L 654.653 231.228253 
L 654.653 272.091837 
L 662.992 272.091837 
L 662.992 243.507787 
L 671.331 243.507787 
L 671.331 182.330226 
L 679.67 182.330226 
L 679.67 252.444057 
L 688.009 252.444057 
L 688.009 274.30563 
L 696.348 274.30563 
L 696.348 293.307729 
L 704.687 293.307729 
L 704.687 254.37167 
L 713.026 254.37167 
L 713.026 267.25104 
L 721.365 267.25104 
L 721.365 279.876105 
L 729.704 279.876105 
L 729.704 280.456264 
L 738.043 280.456264 
L 738.043 233.310214 
L 746.382 233.310214 
L 746.382 254.727735 
L 754.721 254.727735 
L 754.721 258.986 
L 763.06 258.986 
L 763.06 269.040629 
L 771.399 269.040629 
L 771.399 294.097263 
L 779.738 294.097263 
L 779.738 255.108493 
L 788.077 255.108493 
L 788.077 267.918655 
L 796.416 267.918655 
L 796.416 265.651021 
L 804.755 265.651021 
L 804.755 289.581094 
L 813.094 289.581094 
L 813.094 234.038612 
L 821.433 234.038612 
L 821.433 260.714263 
L 829.772 260.714263 
L 829.772 252.444057 
L 838.111 252.444057 
L 838.111 275.057773 
L 846.45 275.057773 
L 846.45 269.097587 
L 854.789 269.097587 
L 854.789 260.266256 
L 863.128 260.266256 
L 863.128 262.577733 
L 871.467 262.577733 
L 871.467 267.897087 
L 879.806 267.897087 
L 879.806 289.581094 
L 888.145 289.581094 
L 888.145 226.754631 
L 896.484 226.754631 
L 896.484 226.754631 
" clip-path="url(#p0cb23ea7a5)" style="fill: none; stroke: #bfbf00; stroke-width: 1.5; stroke-linecap: square"/>
   </g>
   <g id="patch_9">
    <path d="M 54.245 318.04 
L 54.245 175.53 
" style="fill: none; stroke: #000000; stroke-width: 0.8; stroke-linejoin: miter; stroke-linecap: square"/>
   </g>
   <g id="patch_10">
    <path d="M 888.145 318.04 
L 888.145 175.53 
" style="fill: none; stroke: #000000; stroke-width: 0.8; stroke-linejoin: miter; stroke-linecap: square"/>
   </g>
   <g id="patch_11">
    <path d="M 54.245 318.04 
L 888.145 318.04 
" style="fill: none; stroke: #000000; stroke-width: 0.8; stroke-linejoin: miter; stroke-linecap: square"/>
   </g>
   <g id="patch_12">
    <path d="M 54.245 175.53 
L 888.145 175.53 
" style="fill: none; stroke: #000000; stroke-width: 0.8; stroke-linejoin: miter; stroke-linecap: square"/>
   </g>
   <g id="legend_2">
    <g id="patch_13">
     <path d="M 710.798125 212.88625 
L 881.145 212.88625 
Q 883.145 212.88625 883.145 210.88625 
L 883.145 182.53 
Q 883.145 180.53 881.145 180.53 
L 710.798125 180.53 
Q 708.798125 180.53 708.798125 182.53 
L 708.798125 210.88625 
Q 708.798125 212.88625 710.798125 212.88625 
z
" style="fill: #ffffff; opacity: 0.8; stroke: #cccccc; stroke-linejoin: miter"/>
    </g>
    <g id="line2d_31">
     <path d="M 712.798125 188.628438 
L 712.798125 188.628438 
L 722.798125 188.628438 
L 722.798125 188.628438 
L 732.798125 188.628438 
" style="fill: none; stroke: #bfbf00; stroke-width: 1.5; stroke-linecap: square"/>
    </g>
    <g id="text_24">
     <!-- Absolute IPC error -->
     <g transform="translate(740.798125 192.128438) scale(0.1 -0.1)">
      <use xlink:href="#DejaVuSans-41"/>
      <use xlink:href="#DejaVuSans-62" x="68.408203"/>
      <use xlink:href="#DejaVuSans-73" x="131.884766"/>
      <use xlink:href="#DejaVuSans-6f" x="183.984375"/>
      <use xlink:href="#DejaVuSans-6c" x="245.166016"/>
      <use xlink:href="#DejaVuSans-75" x="272.949219"/>
      <use xlink:href="#DejaVuSans-74" x="336.328125"/>
      <use xlink:href="#DejaVuSans-65" x="375.537109"/>
      <use xlink:href="#DejaVuSans-20" x="437.060547"/>
      <use xlink:href="#DejaVuSans-49" x="468.847656"/>
      <use xlink:href="#DejaVuSans-50" x="498.339844"/>
      <use xlink:href="#DejaVuSans-43" x="558.642578"/>
      <use xlink:href="#DejaVuSans-20" x="628.466797"/>
      <use xlink:href="#DejaVuSans-65" x="660.253906"/>
      <use xlink:href="#DejaVuSans-72" x="721.777344"/>
      <use xlink:href="#DejaVuSans-72" x="761.140625"/>
      <use xlink:href="#DejaVuSans-6f" x="800.003906"/>
      <use xlink:href="#DejaVuSans-72" x="861.185547"/>
     </g>
    </g>
    <g id="line2d_32">
     <path d="M 712.798125 203.306563 
L 712.798125 203.306563 
L 722.798125 203.306563 
L 722.798125 203.306563 
L 732.798125 203.306563 
" style="fill: none; stroke: #ff0000; stroke-width: 1.5; stroke-linecap: square"/>
    </g>
    <g id="text_25">
     <!-- Distance to cluster centroid -->
     <g transform="translate(740.798125 206.806563) scale(0.1 -0.1)">
      <defs>
       <path id="DejaVuSans-44" d="M 1259 4147 
L 1259 519 
L 2022 519 
Q 2988 519 3436 956 
Q 3884 1394 3884 2338 
Q 3884 3275 3436 3711 
Q 2988 4147 2022 4147 
L 1259 4147 
z
M 628 4666 
L 1925 4666 
Q 3281 4666 3915 4102 
Q 4550 3538 4550 2338 
Q 4550 1131 3912 565 
Q 3275 0 1925 0 
L 628 0 
L 628 4666 
z
" transform="scale(0.015625)"/>
      </defs>
      <use xlink:href="#DejaVuSans-44"/>
      <use xlink:href="#DejaVuSans-69" x="77.001953"/>
      <use xlink:href="#DejaVuSans-73" x="104.785156"/>
      <use xlink:href="#DejaVuSans-74" x="156.884766"/>
      <use xlink:href="#DejaVuSans-61" x="196.09375"/>
      <use xlink:href="#DejaVuSans-6e" x="257.373047"/>
      <use xlink:href="#DejaVuSans-63" x="320.751953"/>
      <use xlink:href="#DejaVuSans-65" x="375.732422"/>
      <use xlink:href="#DejaVuSans-20" x="437.255859"/>
      <use xlink:href="#DejaVuSans-74" x="469.042969"/>
      <use xlink:href="#DejaVuSans-6f" x="508.251953"/>
      <use xlink:href="#DejaVuSans-20" x="569.433594"/>
      <use xlink:href="#DejaVuSans-63" x="601.220703"/>
      <use xlink:href="#DejaVuSans-6c" x="656.201172"/>
      <use xlink:href="#DejaVuSans-75" x="683.984375"/>
      <use xlink:href="#DejaVuSans-73" x="747.363281"/>
      <use xlink:href="#DejaVuSans-74" x="799.462891"/>
      <use xlink:href="#DejaVuSans-65" x="838.671875"/>
      <use xlink:href="#DejaVuSans-72" x="900.195312"/>
      <use xlink:href="#DejaVuSans-20" x="941.308594"/>
      <use xlink:href="#DejaVuSans-63" x="973.095703"/>
      <use xlink:href="#DejaVuSans-65" x="1028.076172"/>
      <use xlink:href="#DejaVuSans-6e" x="1089.599609"/>
      <use xlink:href="#DejaVuSans-74" x="1152.978516"/>
      <use xlink:href="#DejaVuSans-72" x="1192.1875"/>
      <use xlink:href="#DejaVuSans-6f" x="1231.050781"/>
      <use xlink:href="#DejaVuSans-69" x="1292.232422"/>
      <use xlink:href="#DejaVuSans-64" x="1320.015625"/>
     </g>
    </g>
   </g>
  </g>
  <g id="axes_3">
   <g id="matplotlib.axis_5">
    <g id="ytick_14">
     <g id="line2d_33">
      <defs>
       <path id="me1c75f8a6e" d="M 0 0 
L 3.5 0 
" style="stroke: #000000; stroke-width: 0.8"/>
      </defs>
      <g>
       <use xlink:href="#me1c75f8a6e" x="888.145" y="318.04" style="stroke: #000000; stroke-width: 0.8"/>
      </g>
     </g>
     <g id="text_26">
      <!-- 0.0 -->
      <g transform="translate(895.145 321.839219) scale(0.1 -0.1)">
       <use xlink:href="#DejaVuSans-30"/>
       <use xlink:href="#DejaVuSans-2e" x="63.623047"/>
       <use xlink:href="#DejaVuSans-30" x="95.410156"/>
      </g>
     </g>
    </g>
    <g id="ytick_15">
     <g id="line2d_34">
      <g>
       <use xlink:href="#me1c75f8a6e" x="888.145" y="289.538" style="stroke: #000000; stroke-width: 0.8"/>
      </g>
     </g>
     <g id="text_27">
      <!-- 0.5 -->
      <g transform="translate(895.145 293.337219) scale(0.1 -0.1)">
       <use xlink:href="#DejaVuSans-30"/>
       <use xlink:href="#DejaVuSans-2e" x="63.623047"/>
       <use xlink:href="#DejaVuSans-35" x="95.410156"/>
      </g>
     </g>
    </g>
    <g id="ytick_16">
     <g id="line2d_35">
      <g>
       <use xlink:href="#me1c75f8a6e" x="888.145" y="261.036" style="stroke: #000000; stroke-width: 0.8"/>
      </g>
     </g>
     <g id="text_28">
      <!-- 1.0 -->
      <g transform="translate(895.145 264.835219) scale(0.1 -0.1)">
       <use xlink:href="#DejaVuSans-31"/>
       <use xlink:href="#DejaVuSans-2e" x="63.623047"/>
       <use xlink:href="#DejaVuSans-30" x="95.410156"/>
      </g>
     </g>
    </g>
    <g id="ytick_17">
     <g id="line2d_36">
      <g>
       <use xlink:href="#me1c75f8a6e" x="888.145" y="232.534" style="stroke: #000000; stroke-width: 0.8"/>
      </g>
     </g>
     <g id="text_29">
      <!-- 1.5 -->
      <g transform="translate(895.145 236.333219) scale(0.1 -0.1)">
       <use xlink:href="#DejaVuSans-31"/>
       <use xlink:href="#DejaVuSans-2e" x="63.623047"/>
       <use xlink:href="#DejaVuSans-35" x="95.410156"/>
      </g>
     </g>
    </g>
    <g id="ytick_18">
     <g id="line2d_37">
      <g>
       <use xlink:href="#me1c75f8a6e" x="888.145" y="204.032" style="stroke: #000000; stroke-width: 0.8"/>
      </g>
     </g>
     <g id="text_30">
      <!-- 2.0 -->
      <g transform="translate(895.145 207.831219) scale(0.1 -0.1)">
       <use xlink:href="#DejaVuSans-32"/>
       <use xlink:href="#DejaVuSans-2e" x="63.623047"/>
       <use xlink:href="#DejaVuSans-30" x="95.410156"/>
      </g>
     </g>
    </g>
    <g id="ytick_19">
     <g id="line2d_38">
      <g>
       <use xlink:href="#me1c75f8a6e" x="888.145" y="175.53" style="stroke: #000000; stroke-width: 0.8"/>
      </g>
     </g>
     <g id="text_31">
      <!-- 2.5 -->
      <g transform="translate(895.145 179.329219) scale(0.1 -0.1)">
       <use xlink:href="#DejaVuSans-32"/>
       <use xlink:href="#DejaVuSans-2e" x="63.623047"/>
       <use xlink:href="#DejaVuSans-35" x="95.410156"/>
      </g>
     </g>
    </g>
    <g id="text_32">
     <!-- abs(z-score) -->
     <g transform="translate(922.646563 277.390469) rotate(-90) scale(0.1 -0.1)">
      <defs>
       <path id="DejaVuSans-7a" d="M 353 3500 
L 3084 3500 
L 3084 2975 
L 922 459 
L 3084 459 
L 3084 0 
L 275 0 
L 275 525 
L 2438 3041 
L 353 3041 
L 353 3500 
z
" transform="scale(0.015625)"/>
       <path id="DejaVuSans-2d" d="M 313 2009 
L 1997 2009 
L 1997 1497 
L 313 1497 
L 313 2009 
z
" transform="scale(0.015625)"/>
      </defs>
      <use xlink:href="#DejaVuSans-61"/>
      <use xlink:href="#DejaVuSans-62" x="61.279297"/>
      <use xlink:href="#DejaVuSans-73" x="124.755859"/>
      <use xlink:href="#DejaVuSans-28" x="176.855469"/>
      <use xlink:href="#DejaVuSans-7a" x="215.869141"/>
      <use xlink:href="#DejaVuSans-2d" x="268.359375"/>
      <use xlink:href="#DejaVuSans-73" x="304.443359"/>
      <use xlink:href="#DejaVuSans-63" x="356.542969"/>
      <use xlink:href="#DejaVuSans-6f" x="411.523438"/>
      <use xlink:href="#DejaVuSans-72" x="472.705078"/>
      <use xlink:href="#DejaVuSans-65" x="511.568359"/>
      <use xlink:href="#DejaVuSans-29" x="573.091797"/>
     </g>
    </g>
   </g>
   <g id="line2d_39">
    <path d="M 45.906 308.540648 
L 45.906 289.454374 
L 54.245 289.454374 
L 54.245 310.819765 
L 62.584 310.819765 
L 62.584 304.42012 
L 70.923 304.42012 
L 70.923 289.284382 
L 79.262 289.284382 
L 79.262 242.815259 
L 87.601 242.815259 
L 87.601 284.147666 
L 95.94 284.147666 
L 95.94 241.687566 
L 104.279 241.687566 
L 104.279 249.487495 
L 112.618 249.487495 
L 112.618 277.090756 
L 120.957 277.090756 
L 120.957 272.416091 
L 129.296 272.416091 
L 129.296 216.047219 
L 137.635 216.047219 
L 137.635 275.523419 
L 145.974 275.523419 
L 145.974 289.692008 
L 154.313 289.692008 
L 154.313 300.71833 
L 162.652 300.71833 
L 162.652 230.99052 
L 170.991 230.99052 
L 170.991 307.333891 
L 179.33 307.333891 
L 179.33 306.124795 
L 187.669 306.124795 
L 187.669 251.190803 
L 196.008 251.190803 
L 196.008 239.04908 
L 204.347 239.04908 
L 204.347 287.540095 
L 212.686 287.540095 
L 212.686 226.875362 
L 221.025 226.875362 
L 221.025 222.536576 
L 229.364 222.536576 
L 229.364 276.469811 
L 237.703 276.469811 
L 237.703 283.988494 
L 246.042 283.988494 
L 246.042 274.009721 
L 254.381 274.009721 
L 254.381 285.459215 
L 262.72 285.459215 
L 262.72 295.862681 
L 271.059 295.862681 
L 271.059 283.63559 
L 279.398 283.63559 
L 279.398 276.426707 
L 287.737 276.426707 
L 287.737 262.343472 
L 296.076 262.343472 
L 296.076 277.935771 
L 304.415 277.935771 
L 304.415 226.877188 
L 312.754 226.877188 
L 312.754 278.448006 
L 321.093 278.448006 
L 321.093 289.276206 
L 329.432 289.276206 
L 329.432 233.601126 
L 337.771 233.601126 
L 337.771 305.791501 
L 346.11 305.791501 
L 346.11 300.121624 
L 354.449 300.121624 
L 354.449 238.774955 
L 362.788 238.774955 
L 362.788 316.344682 
L 371.127 316.344682 
L 371.127 294.274058 
L 379.466 294.274058 
L 379.466 264.219205 
L 387.805 264.219205 
L 387.805 226.865609 
L 396.144 226.865609 
L 396.144 317.361765 
L 404.483 317.361765 
L 404.483 262.205808 
L 412.822 262.205808 
L 412.822 261.670476 
L 421.161 261.670476 
L 421.161 242.384643 
L 429.5 242.384643 
L 429.5 275.820393 
L 437.839 275.820393 
L 437.839 264.078456 
L 446.178 264.078456 
L 446.178 261.026171 
L 454.517 261.026171 
L 454.517 316.595166 
L 462.856 316.595166 
L 462.856 294.309914 
L 471.195 294.309914 
L 471.195 290.99906 
L 479.534 290.99906 
L 479.534 310.654384 
L 487.873 310.654384 
L 487.873 266.451123 
L 496.212 266.451123 
L 496.212 251.166706 
L 504.551 251.166706 
L 504.551 300.35765 
L 512.89 300.35765 
L 512.89 217.070928 
L 521.229 217.070928 
L 521.229 250.509319 
L 529.568 250.509319 
L 529.568 277.771671 
L 537.907 277.771671 
L 537.907 287.616362 
L 546.246 287.616362 
L 546.246 281.462423 
L 554.585 281.462423 
L 554.585 251.218578 
L 562.924 251.218578 
L 562.924 296.129336 
L 571.263 296.129336 
L 571.263 314.357414 
L 579.602 314.357414 
L 579.602 228.105699 
L 587.941 228.105699 
L 587.941 284.35806 
L 596.28 284.35806 
L 596.28 298.783991 
L 604.619 298.783991 
L 604.619 233.204036 
L 612.958 233.204036 
L 612.958 242.854088 
L 621.297 242.854088 
L 621.297 292.832387 
L 629.636 292.832387 
L 629.636 244.182625 
L 637.975 244.182625 
L 637.975 233.401134 
L 646.314 233.401134 
L 646.314 259.418085 
L 654.653 259.418085 
L 654.653 270.936353 
L 662.992 270.936353 
L 662.992 285.866973 
L 671.331 285.866973 
L 671.331 272.935771 
L 679.67 272.935771 
L 679.67 285.370178 
L 688.009 285.370178 
L 688.009 258.840606 
L 696.348 258.840606 
L 696.348 313.685115 
L 704.687 313.685115 
L 704.687 283.399177 
L 713.026 283.399177 
L 713.026 270.898808 
L 721.365 270.898808 
L 721.365 222.579208 
L 729.704 222.579208 
L 729.704 304.258437 
L 738.043 304.258437 
L 738.043 223.685914 
L 746.382 223.685914 
L 746.382 225.6127 
L 754.721 225.6127 
L 754.721 298.467545 
L 763.06 298.467545 
L 763.06 306.085471 
L 771.399 306.085471 
L 771.399 294.950328 
L 779.738 294.950328 
L 779.738 300.485681 
L 788.077 300.485681 
L 788.077 316.937039 
L 796.416 316.937039 
L 796.416 275.596201 
L 804.755 275.596201 
L 804.755 247.755638 
L 813.094 247.755638 
L 813.094 279.700087 
L 821.433 279.700087 
L 821.433 283.162626 
L 829.772 283.162626 
L 829.772 252.086831 
L 838.111 252.086831 
L 838.111 230.138027 
L 846.45 230.138027 
L 846.45 258.458122 
L 854.789 258.458122 
L 854.789 246.343677 
L 863.128 246.343677 
L 863.128 252.75043 
L 871.467 252.75043 
L 871.467 301.603072 
L 879.806 301.603072 
L 879.806 254.016498 
L 888.145 254.016498 
L 888.145 291.331984 
L 896.484 291.331984 
L 896.484 291.331984 
" clip-path="url(#p0cb23ea7a5)" style="fill: none; stroke: #ff0000; stroke-width: 1.5; stroke-linecap: square"/>
   </g>
   <g id="patch_14">
    <path d="M 54.245 318.04 
L 54.245 175.53 
" style="fill: none; stroke: #000000; stroke-width: 0.8; stroke-linejoin: miter; stroke-linecap: square"/>
   </g>
   <g id="patch_15">
    <path d="M 888.145 318.04 
L 888.145 175.53 
" style="fill: none; stroke: #000000; stroke-width: 0.8; stroke-linejoin: miter; stroke-linecap: square"/>
   </g>
   <g id="patch_16">
    <path d="M 54.245 318.04 
L 888.145 318.04 
" style="fill: none; stroke: #000000; stroke-width: 0.8; stroke-linejoin: miter; stroke-linecap: square"/>
   </g>
   <g id="patch_17">
    <path d="M 54.245 175.53 
L 888.145 175.53 
" style="fill: none; stroke: #000000; stroke-width: 0.8; stroke-linejoin: miter; stroke-linecap: square"/>
   </g>
  </g>
 </g>
 <defs>
  <clipPath id="pe1b29015e6">
   <rect x="54.245" y="14.76" width="833.9" height="142.51"/>
  </clipPath>
  <clipPath id="p0cb23ea7a5">
   <rect x="54.245" y="175.53" width="833.9" height="142.51"/>
  </clipPath>
 </defs>
</svg>
