<?xml version="1.0" encoding="UTF-8" standalone="no"?>
<svg
   width="936pt"
   height="168.25963pt"
   viewBox="0 0 936 168.25963"
   version="1.1"
   id="svg262"
   sodipodi:docname="coremark_results_truncated.svg"
   inkscape:version="1.4 (e7c3feb100, 2024-10-09)"
   xmlns:inkscape="http://www.inkscape.org/namespaces/inkscape"
   xmlns:sodipodi="http://sodipodi.sourceforge.net/DTD/sodipodi-0.dtd"
   xmlns:xlink="http://www.w3.org/1999/xlink"
   xmlns="http://www.w3.org/2000/svg"
   xmlns:svg="http://www.w3.org/2000/svg"
   xmlns:rdf="http://www.w3.org/1999/02/22-rdf-syntax-ns#"
   xmlns:cc="http://creativecommons.org/ns#"
   xmlns:dc="http://purl.org/dc/elements/1.1/">
  <sodipodi:namedview
     id="namedview262"
     pagecolor="#ffffff"
     bordercolor="#000000"
     borderopacity="0.25"
     inkscape:showpageshadow="2"
     inkscape:pageopacity="0.0"
     inkscape:pagecheckerboard="0"
     inkscape:deskcolor="#d1d1d1"
     inkscape:document-units="pt"
     inkscape:zoom="1.5333333"
     inkscape:cx="573.58696"
     inkscape:cy="301.95652"
     inkscape:window-width="3072"
     inkscape:window-height="1682"
     inkscape:window-x="0"
     inkscape:window-y="0"
     inkscape:window-maximized="0"
     inkscape:current-layer="svg262" />
  <metadata
     id="metadata1">
    <rdf:RDF>
      <cc:Work>
        <dc:type
           rdf:resource="http://purl.org/dc/dcmitype/StillImage" />
        <dc:date>2024-02-28T20:56:01.755299</dc:date>
        <dc:format>image/svg+xml</dc:format>
        <dc:creator>
          <cc:Agent>
            <dc:title>Matplotlib v3.8.2, https://matplotlib.org/</dc:title>
          </cc:Agent>
        </dc:creator>
      </cc:Work>
    </rdf:RDF>
  </metadata>
  <defs
     id="defs1">
    <style
       type="text/css"
       id="style1">*{stroke-linejoin: round; stroke-linecap: butt}</style>
  </defs>
  <g
     id="figure_1">
    <g
       id="patch_1"
       transform="scale(1,0.46738784)"
       style="stroke-width:1.46272">
      <path
         d="M 0,360 H 936 V 0 H 0 Z"
         style="fill:#ffffff;stroke-width:2.13955"
         id="path1" />
    </g>
    <g
       id="axes_1">
      <g
         id="patch_2">
        <path
           d="M 47.81,155.82023 H 888.22 V 12.439398 H 47.81 Z"
           style="fill:#ffffff"
           id="path2" />
      </g>
      <g
         id="matplotlib.axis_1">
        <g
           id="xtick_1">
          <g
             id="line2d_1">
            <defs
               id="defs2">
              <path
                 id="me375d8b951"
                 d="M 0,0 V 3.5"
                 style="stroke:#000000;stroke-width:0.8" />
            </defs>
            <g
               id="g2">
              <use
                 xlink:href="#me375d8b951"
                 x="85.245682"
                 y="155.82022"
                 style="stroke:#000000;stroke-width:0.8"
                 id="use2" />
            </g>
          </g>
        </g>
        <g
           id="xtick_2">
          <g
             id="line2d_2">
            <g
               id="g3">
              <use
                 xlink:href="#me375d8b951"
                 x="238.20045"
                 y="155.82022"
                 style="stroke:#000000;stroke-width:0.8"
                 id="use3" />
            </g>
          </g>
        </g>
        <g
           id="xtick_3">
          <g
             id="line2d_3">
            <g
               id="g4">
              <use
                 xlink:href="#me375d8b951"
                 x="391.15521"
                 y="155.82022"
                 style="stroke:#000000;stroke-width:0.8"
                 id="use4" />
            </g>
          </g>
        </g>
        <g
           id="xtick_4">
          <g
             id="line2d_4">
            <g
               id="g5">
              <use
                 xlink:href="#me375d8b951"
                 x="544.10999"
                 y="155.82022"
                 style="stroke:#000000;stroke-width:0.8"
                 id="use5" />
            </g>
          </g>
        </g>
        <g
           id="xtick_5">
          <g
             id="line2d_5">
            <g
               id="g6">
              <use
                 xlink:href="#me375d8b951"
                 x="697.06476"
                 y="155.82022"
                 style="stroke:#000000;stroke-width:0.8"
                 id="use6" />
            </g>
          </g>
        </g>
        <g
           id="xtick_6">
          <g
             id="line2d_6">
            <g
               id="g7">
              <use
                 xlink:href="#me375d8b951"
                 x="850.01953"
                 y="155.82022"
                 style="stroke:#000000;stroke-width:0.8"
                 id="use7" />
            </g>
          </g>
        </g>
      </g>
      <g
         id="matplotlib.axis_2">
        <g
           id="ytick_1">
          <g
             id="line2d_7">
            <defs
               id="defs7">
              <path
                 id="m69e40cefb6"
                 d="M 0,0 H -3.5"
                 style="stroke:#000000;stroke-width:0.8" />
            </defs>
            <g
               id="g8">
              <use
                 xlink:href="#m69e40cefb6"
                 x="47.810001"
                 y="153.70877"
                 style="stroke:#000000;stroke-width:0.8"
                 id="use8" />
            </g>
          </g>
          <g
             id="text_1">
            <!-- 0.6 -->
            <g
               transform="matrix(0.1,0,0,-0.1,24.906875,157.50799)"
               id="g11">
              <defs
                 id="defs8">
                <path
                   id="DejaVuSans-30"
                   d="m 2034,4250 q -487,0 -733,-480 -245,-479 -245,-1442 0,-959 245,-1439 246,-480 733,-480 491,0 736,480 246,480 246,1439 0,963 -246,1442 -245,480 -736,480 z m 0,500 q 785,0 1199,-621 414,-620 414,-1801 0,-1178 -414,-1799 -414,-620 -1199,-620 -784,0 -1198,620 -414,621 -414,1799 0,1181 414,1801 414,621 1198,621 z"
                   transform="scale(0.015625)" />
                <path
                   id="DejaVuSans-2e"
                   d="m 684,794 h 660 V 0 H 684 Z"
                   transform="scale(0.015625)" />
                <path
                   id="DejaVuSans-36"
                   d="m 2113,2584 q -425,0 -674,-291 -248,-290 -248,-796 0,-503 248,-796 249,-292 674,-292 425,0 673,292 248,293 248,796 0,506 -248,796 -248,291 -673,291 z m 1253,1979 v -575 q -238,112 -480,171 -242,60 -480,60 -625,0 -955,-422 -329,-422 -376,-1275 184,272 462,417 279,145 613,145 703,0 1111,-427 408,-426 408,-1160 0,-719 -425,-1154 -425,-434 -1131,-434 -810,0 -1238,620 -428,621 -428,1799 0,1106 525,1764 525,658 1409,658 238,0 480,-47 242,-47 505,-140 z"
                   transform="scale(0.015625)" />
              </defs>
              <use
                 xlink:href="#DejaVuSans-30"
                 id="use9" />
              <use
                 xlink:href="#DejaVuSans-2e"
                 x="63.623047"
                 id="use10" />
              <use
                 xlink:href="#DejaVuSans-36"
                 x="95.410156"
                 id="use11" />
            </g>
          </g>
        </g>
        <g
           id="ytick_2">
          <g
             id="line2d_8">
            <g
               id="g12">
              <use
                 xlink:href="#m69e40cefb6"
                 x="47.810001"
                 y="118.99158"
                 style="stroke:#000000;stroke-width:0.8"
                 id="use12" />
            </g>
          </g>
          <g
             id="text_2">
            <!-- 0.7 -->
            <g
               transform="matrix(0.1,0,0,-0.1,24.906875,122.79081)"
               id="g15">
              <defs
                 id="defs12">
                <path
                   id="DejaVuSans-37"
                   d="M 525,4666 H 3525 V 4397 L 1831,0 H 1172 L 2766,4134 H 525 Z"
                   transform="scale(0.015625)" />
              </defs>
              <use
                 xlink:href="#DejaVuSans-30"
                 id="use13" />
              <use
                 xlink:href="#DejaVuSans-2e"
                 x="63.623047"
                 id="use14" />
              <use
                 xlink:href="#DejaVuSans-37"
                 x="95.410156"
                 id="use15" />
            </g>
          </g>
        </g>
        <g
           id="ytick_3">
          <g
             id="line2d_9">
            <g
               id="g16">
              <use
                 xlink:href="#m69e40cefb6"
                 x="47.810001"
                 y="84.274406"
                 style="stroke:#000000;stroke-width:0.8"
                 id="use16" />
            </g>
          </g>
          <g
             id="text_3">
            <!-- 0.8 -->
            <g
               transform="matrix(0.1,0,0,-0.1,24.906875,88.073626)"
               id="g19">
              <defs
                 id="defs16">
                <path
                   id="DejaVuSans-38"
                   d="m 2034,2216 q -450,0 -708,-241 -257,-241 -257,-662 0,-422 257,-663 258,-241 708,-241 450,0 709,242 260,243 260,662 0,421 -258,662 -257,241 -711,241 z m -631,268 q -406,100 -633,378 -226,279 -226,679 0,559 398,884 399,325 1092,325 697,0 1094,-325 397,-325 397,-884 0,-400 -227,-679 -226,-278 -629,-378 456,-106 710,-416 255,-309 255,-755 Q 3634,634 3220,271 2806,-91 2034,-91 1263,-91 848,271 434,634 434,1313 q 0,446 256,755 257,310 713,416 z m -231,997 q 0,-362 226,-565 227,-203 636,-203 407,0 636,203 230,203 230,565 0,363 -230,566 -229,203 -636,203 -409,0 -636,-203 -226,-203 -226,-566 z"
                   transform="scale(0.015625)" />
              </defs>
              <use
                 xlink:href="#DejaVuSans-30"
                 id="use17" />
              <use
                 xlink:href="#DejaVuSans-2e"
                 x="63.623047"
                 id="use18" />
              <use
                 xlink:href="#DejaVuSans-38"
                 x="95.410156"
                 id="use19" />
            </g>
          </g>
        </g>
        <g
           id="ytick_4">
          <g
             id="line2d_10">
            <g
               id="g20">
              <use
                 xlink:href="#m69e40cefb6"
                 x="47.810001"
                 y="49.557228"
                 style="stroke:#000000;stroke-width:0.8"
                 id="use20" />
            </g>
          </g>
          <g
             id="text_4">
            <!-- 0.9 -->
            <g
               transform="matrix(0.1,0,0,-0.1,24.906875,53.356445)"
               id="g23">
              <defs
                 id="defs20">
                <path
                   id="DejaVuSans-39"
                   d="m 703,97 v 575 q 238,-113 481,-172 244,-59 479,-59 625,0 954,420 330,420 377,1277 -181,-269 -460,-413 -278,-144 -615,-144 -700,0 -1108,423 -408,424 -408,1159 0,718 425,1152 425,435 1131,435 810,0 1236,-621 427,-620 427,-1801 Q 3622,1225 3098,567 2575,-91 1691,-91 1453,-91 1209,-44 966,3 703,97 Z m 1256,1978 q 425,0 673,290 249,291 249,798 0,503 -249,795 -248,292 -673,292 -425,0 -673,-292 -248,-292 -248,-795 0,-507 248,-798 248,-290 673,-290 z"
                   transform="scale(0.015625)" />
              </defs>
              <use
                 xlink:href="#DejaVuSans-30"
                 id="use21" />
              <use
                 xlink:href="#DejaVuSans-2e"
                 x="63.623047"
                 id="use22" />
              <use
                 xlink:href="#DejaVuSans-39"
                 x="95.410156"
                 id="use23" />
            </g>
          </g>
        </g>
        <g
           id="ytick_5">
          <g
             id="line2d_11">
            <g
               id="g24">
              <use
                 xlink:href="#m69e40cefb6"
                 x="47.810001"
                 y="14.840046"
                 style="stroke:#000000;stroke-width:0.8"
                 id="use24" />
            </g>
          </g>
          <g
             id="text_5">
            <!-- 1.0 -->
            <g
               transform="matrix(0.1,0,0,-0.1,24.906875,18.639265)"
               id="g27">
              <defs
                 id="defs24">
                <path
                   id="DejaVuSans-31"
                   d="M 794,531 H 1825 V 4091 L 703,3866 v 575 l 1116,225 h 631 V 531 H 3481 V 0 H 794 Z"
                   transform="scale(0.015625)" />
              </defs>
              <use
                 xlink:href="#DejaVuSans-31"
                 id="use25" />
              <use
                 xlink:href="#DejaVuSans-2e"
                 x="63.623047"
                 id="use26" />
              <use
                 xlink:href="#DejaVuSans-30"
                 x="95.410156"
                 id="use27" />
            </g>
          </g>
        </g>
        <g
           id="text_6">
          <!-- IPC -->
          <g
             transform="matrix(0,-0.1,-0.1,0,18.827188,92.111062)"
             id="g30">
            <defs
               id="defs27">
              <path
                 id="DejaVuSans-49"
                 d="m 628,4666 h 631 V 0 H 628 Z"
                 transform="scale(0.015625)" />
              <path
                 id="DejaVuSans-50"
                 d="M 1259,4147 V 2394 h 794 q 441,0 681,228 241,228 241,650 0,419 -241,647 -240,228 -681,228 z m -631,519 h 1425 q 785,0 1186,-355 402,-355 402,-1039 0,-691 -402,-1044 -401,-353 -1186,-353 H 1259 V 0 H 628 Z"
                 transform="scale(0.015625)" />
              <path
                 id="DejaVuSans-43"
                 d="m 4122,4306 v -665 q -319,297 -680,443 -361,147 -767,147 -800,0 -1225,-489 -425,-489 -425,-1414 0,-922 425,-1411 425,-489 1225,-489 406,0 767,147 361,147 680,444 V 359 Q 3791,134 3420,21 3050,-91 2638,-91 1578,-91 968,557 359,1206 359,2328 q 0,1125 609,1773 610,649 1670,649 418,0 788,-111 371,-111 696,-333 z"
                 transform="scale(0.015625)" />
            </defs>
            <use
               xlink:href="#DejaVuSans-49"
               id="use28" />
            <use
               xlink:href="#DejaVuSans-50"
               x="29.492188"
               id="use29" />
            <use
               xlink:href="#DejaVuSans-43"
               x="89.794922"
               id="use30" />
          </g>
        </g>
      </g>
      <g
         id="line2d_12">
        <path
           d="m 86.010455,138.69937 v -0.0201 l 3.059095,0.0567 v 1.23721 h 0.764774 v 0.55453 h 0.764774 v 0.63372 h 0.764774 v -0.24004 h 0.764773 v -1.81605 h 0.764774 v -0.90844 h 0.764774 v -5.37545 h 0.764774 v 1.83521 h 0.764774 v -10.46257 l 3.059095,0.003 v 0.14121 h 0.764774 v -0.14121 h 2.29432 v 0.19465 h 0.76478 v -0.19465 h 0.76477 v 9.81726 h 0.76477 v -4.38414 h 0.76478 v 19.45955 h 0.76477 v 0.19505 h 2.29432 v -0.18633 h 0.76478 v 0.151 l 4.58864,0.0353 v -0.19505 h 0.76477 v 0.19505 l 1.52955,-0.0353 v -20.4172 h 0.76478 v 7.83434 h 0.76477 v 10.85298 h 0.76477 v -11.22061 h 0.76478 v -0.24452 h 0.76477 v -1.97537 h 0.76478 v 1.8981 h 0.76477 v 0.56184 h 0.76477 v -2.03217 h 0.76478 v -2.26259 h 0.76477 v 3.99057 h 0.76477 v 0.23419 h 0.76478 v -3.59095 h 0.76477 v 3.1683 h 0.76478 v 1.01539 h 0.76477 v -3.93924 h 0.76477 v 2.35053 h 0.76478 v 1.46643 h 0.76477 v -0.12512 h 0.76477 v -4.27992 h 0.76478 v 3.09912 h 0.76477 v 1.12349 h 0.76478 v -0.25221 h 0.76477 v -1.88639 h 0.76477 v 4.16837 l 2.29433,0.0794 v -0.21035 h 0.76477 v 0.17271 h 0.76477 v -0.20526 h 0.76478 v -8.04339 h 0.76477 v -10.86258 h 0.76477 v -4.9876 h 0.76478 v 0.21513 h 0.76477 v 0.22083 h 0.76478 v 4.3742 h 0.76477 v 2.34915 h 0.76477 v 12.68484 h 0.76478 v 4.75729 l 1.52955,0.087 v 0.26021 h 0.76477 v 0.12272 h 0.76477 v -0.49225 h 0.76478 v 1.60391 h 0.76477 v 2.07443 h 0.76477 v -1.10784 h 0.76478 v 0.38094 h 0.76477 v -3.35419 h 0.76478 v 0.69554 h 0.76477 v -0.18171 l 2.29432,-0.0247 v -0.40544 h 0.76478 v -2.50578 h 0.76477 v -0.40017 h 0.76477 v -1.07612 h 0.76478 v 0.4227 h 0.76477 v -0.37968 h 0.76478 v 1.13238 l 2.29432,0.0404 v 0.49434 h 0.76477 v -1.66715 l 1.52955,0.0931 v 0.77874 h 0.76477 v 0.30096 h 0.76478 v -0.31408 h 0.76477 v 1.38673 h 0.76477 v -1.07646 h 3.0591 v 1.07123 h 0.76477 V 136.03 h 0.76478 v 0.1934 h 0.76477 v 1.09146 h 0.76477 v -1.25146 h 0.76478 v 0.15619 h 0.76477 v -0.99147 h 0.76478 v -0.17753 h 1.52954 v 1.07686 l 2.29433,0.041 v 1.42119 h 0.76477 v 2.01204 h 0.76477 v 0.26257 h 0.76478 v -0.28787 h 0.76477 v -0.20432 h 0.76477 v 0.3338 h 0.76478 v 0.97266 h 0.76477 v 1.20637 h 0.76478 v 0.33275 h 0.76477 v -0.45459 h 0.76477 v -3.47778 h 0.76478 v 1.51358 l 1.52955,0.0759 v -0.22964 h 0.76477 v -0.1916 h 0.76477 v -1.09991 h 0.76478 v 0.76501 h 0.76477 v 7.17528 h 0.76478 v 1.6099 h 0.76477 v -7.88296 h 0.76477 v 4.42406 h 1.52955 v -1.13136 h 0.76478 v 4.63215 h 3.05909 v -1.83839 h 0.76477 v -0.84005 h 0.76478 v -0.80709 h 4.58864 v 1.65597 h 0.76477 v 1.82956 h 4.58865 v -2.20659 h 0.76477 v -0.70216 h 0.76478 v -0.59204 l 3.05909,0.0153 v -5.17746 h 0.76477 v 1.26121 l 1.52955,-0.007 v 1.88003 h 0.76478 v -1.88227 h 0.76477 v -1.42939 h 0.76477 v 0.88661 h 0.76478 v -3.424 h 0.76477 v -2.46733 h 0.76478 v -5.90004 h 0.76477 v -3.86249 h 0.76477 v -0.14121 h 4.58865 v 0.14121 h 0.76477 v -0.14121 h 0.76477 v 11.10395 h 0.76478 v -5.85683 h 0.76477 v 12.82886 h 0.76478 v 7.01174 h 0.76477 v -0.16301 h 0.76477 v 0.16312 l 2.29433,-0.0354 v -0.151 h 0.76477 v 0.151 l 2.29432,0.0353 v -0.19505 h 0.76477 v 0.19505 h 1.52955 v -0.17284 h 0.76478 v -13.3374 h 0.76477 v -4.34973 h 0.76477 v 16.75097 h 0.76478 v -4.52333 h 0.76477 v -2.14988 h 0.76478 v -2.39699 h 0.76477 v -0.20486 h 0.76477 v -3.34937 h 0.76478 v -1.43172 h 0.76477 V 124.375 h 0.76477 v -0.15376 l 2.29433,-0.0244 v 0.14121 h 0.76477 v -0.14121 h 3.82387 v 11.04669 h 0.76477 v -5.68973 h 0.76478 v 14.4535 h 0.76477 v 5.09093 h 0.76478 v 0.151 l 2.29432,0.0353 v -0.19505 h 0.76477 v 0.19505 h 1.52955 v -0.16301 h 0.76477 v 0.16312 l 2.29432,-1.1e-4 v -0.18633 h 0.76478 v 0.151 h 0.76477 v -15.7289 h 0.76478 v -0.48779 h 0.76477 v 15.70499 h 0.76477 v -6.63162 h 0.76478 v -0.42931 h 0.76477 v -2.57114 h 0.76478 v -0.62205 h 0.76477 v -3.98749 h 0.76477 v -0.32578 h 0.76478 v -9.90269 l 7.64774,0.0431 v 10.53638 h 0.76477 v -5.15476 h 0.76477 v 18.37444 h 0.76478 v 1.21807 h 0.76477 v -0.16301 h 0.76477 v 0.16312 l 2.29433,-0.0354 v -0.151 h 0.76477 v 0.18633 h 2.29432 v -0.19505 h 0.76478 v 0.19505 h 1.52954 v -0.17284 h 0.76478 v -17.82382 h 0.76477 v 3.71485 h 0.76478 v 13.21538 h 0.76477 v -11.88977 h 0.76477 v -0.23552 h 0.76478 v -1.81465 h 0.76477 v 1.50355 h 0.76477 v 0.75544 h 0.76478 v -1.5281 h 0.76477 v -2.19297 h 0.76478 v 3.42043 h 0.76477 v 0.31176 h 0.76477 v -3.48334 h 0.76478 v 3.13864 h 0.76477 v 0.91766 h 0.76477 v -4.86913 h 0.76478 v 1.88628 h 0.76477 v 2.86026 h 0.76478 v 0.15508 h 0.76477 v -3.98557 h 0.76477 v 2.95274 h 0.76478 v 0.70841 h 0.76477 v -0.2075 h 0.76478 v -3.58579 h 0.76477 v 4.9676 h 0.76477 v 0.83569 h 0.76478 v -0.17915 h 0.76477 v 0.28289 h 0.76478 v -0.3851 h 0.76477 v -0.40836 h 0.76477 v -1.78526 h 0.76478 v -0.30573 h 0.76477 v -1.93939 h 0.76478 v 1.36237 h 0.76477 v 1.05676 h 0.76477 v -1.08239 h 0.76478 v -2.40157 h 0.76477 v 3.13105 h 0.76477 v 0.36769 h 0.76478 v -2.74775 h 0.76477 v 2.1112 h 0.76478 v 1.25609 h 0.76477 v -4.8343 h 0.76477 v 2.58216 h 0.76478 v 1.98775 l 1.52954,0.0715 v -4.33783 h 0.76478 v 3.11472 h 0.76477 v 0.99381 h 0.76478 v -0.24852 h 0.76477 v -3.30966 h 0.76477 v 5.60813 l 1.52955,-0.0779 v 0.19722 l 1.52955,-0.0512 v -0.14322 h 0.76477 v -0.75884 h 0.76478 v -1.42793 h 0.76477 v -1.05464 h 0.76477 v -2.48783 h 0.76478 v 3.18895 h 0.76477 v 0.33864 h 0.76478 v -2.75805 h 0.76477 v -0.69713 h 0.76477 v 3.29174 l 1.52955,-0.0198 v -1.91906 h 0.76478 v 2.2125 h 0.76477 v 0.57625 h 0.76477 v -4.26783 h 0.76478 v 2.99734 h 0.76477 v 0.99133 h 0.76478 v -0.19013 h 0.76477 v -4.0476 h 0.76477 v 2.99159 h 0.76478 v 1.03578 h 0.76477 v -0.30103 h 0.76477 v -0.79297 h 0.76478 v 3.13302 l 3.05909,0.0915 v -0.298 l 1.52955,-0.10555 v 2.111 h 0.76478 v 0.96076 h 0.76477 v -1.31374 h 0.76477 v -1.10018 h 0.76478 v 1.54719 h 0.76477 v -3.84951 h 0.76477 v -2.72969 h 0.76478 v -4.45449 h 0.76477 v -5.42202 l 4.58865,0.0705 v 0.0707 h 0.76477 v -0.14121 h 1.52955 v 10.95362 h 0.76477 v -5.7065 h 0.76477 v 12.34435 h 0.76478 v 7.51452 l 3.05909,-0.0183 v -0.19505 h 0.76478 v 0.19505 h 2.29432 v -0.18633 h 0.76477 v 0.151 l 2.29433,0.0353 v -0.19505 h 0.76477 v -12.87566 h 0.76477 v -4.71417 h 0.76478 v 16.31079 h 0.76477 v -10.8169 h 0.76477 v -0.79586 h 0.76478 v -2.11337 h 0.76477 v 1.25324 h 0.76478 v 0.96116 H 391.92 v -0.23879 h 0.76477 v -1.98966 h 0.76478 v 1.2715 h 0.76477 v 1.2007 h 0.76478 v -1.05846 h 0.76477 v -0.42445 h 0.76477 v 2.03877 h 0.76478 v -2.25197 h 0.76477 V 131.694 h 0.76477 v 5.34401 h 0.76478 v 0.17683 h 0.76477 v -5.08689 h 0.76478 v 2.07624 h 0.76477 v 2.80303 l 1.52955,0.0352 v -4.19704 h 0.76477 v 5.17502 h 0.76478 v 0.53824 h 0.76477 v 0.25984 h 0.76477 v -0.30091 h 0.76478 v 0.25379 h 0.76477 v -0.61318 h 0.76477 v -1.07655 h 0.76478 V 118.3529 h 0.76477 v 2.44534 h 0.76478 v -6.05327 h 0.76477 v -0.16693 h 0.76477 v 5.146 h 0.76478 v 2.03888 h 0.76477 v 8.1563 h 0.76478 v 9.4891 h 0.76477 v 0.43926 h 0.76477 v -0.17521 l 1.52955,-0.10125 v -0.25718 h 0.76478 v 0.49118 h 0.76477 v 2.52668 h 0.76477 v 0.27554 h 0.76478 v -0.5875 h 0.76477 v -1.8769 h 0.76478 v -0.9047 l 1.52954,0.0541 v 0.32858 h 0.76478 v -0.19258 l 1.52954,0.0483 v -2.0299 h 0.76478 v -1.22325 h 0.76477 v -0.70048 h 0.76478 v 1.70757 h 0.76477 v -1.0109 h 1.52955 v -0.55851 h 0.76477 v -0.61049 h 0.76477 v 1.9424 h 0.76478 v -0.76959 l 2.29432,0.059 v -1.23181 h 1.52955 v 0.1151 h 0.76477 v 0.91816 h 0.76478 v -1.01024 h 0.76477 v 0.34324 h 0.76477 v -0.34324 l 1.52955,-0.023 v 1.91079 h 0.76478 v -1.91079 h 1.52954 v 0.67384 h 0.76478 v -0.17038 h 0.76477 v 1.5981 h 0.76478 v -1.08875 h 0.76477 v 0.15619 l 1.52955,-0.0948 v -1.07425 h 1.52954 v 1.53184 h 0.76478 v 2.30322 h 0.76477 v 0.80828 l 2.29432,0.011 v -0.30831 h 0.76478 v 0.11547 h 0.76477 v 2.54589 h 0.76477 v 0.92625 h 0.76478 v -1.07583 h 0.76477 v -3.52249 h 0.76478 v 1.05644 h 0.76477 v 0.25118 h 0.76477 v 0.1523 l 1.52955,0.046 v -1.22054 h 0.76478 v 0.72894 h 0.76477 v 0.21225 h 0.76477 v 6.29273 h 0.76478 v -0.67272 h 0.76477 v -0.19719 h 0.76478 v 2.86841 h 0.76477 v -8.15498 h 0.76477 v 4.8612 h 0.76478 v -0.16512 l 4.58864,0.0698 v 3.38433 l 4.58864,0.005 v -0.39846 h 0.76478 v -2.09822 h 0.76477 v -0.98649 h 4.58864 v 0.61843 h 0.76478 v 2.86474 l 2.29432,0.0419 v -9.34245 h 0.76477 v 1.89998 l 1.52955,0.0629 v 0.57455 h 0.76477 v -0.86901 h 0.76478 v -1.11127 h 0.76477 v 1.97073 h 0.76478 v -3.83126 h 0.76477 v -3.22316 h 0.76477 v -2.16645 h 0.76478 v -7.71323 h 4.58864 v 0.14121 h 0.76477 v -0.14121 h 1.52955 v 9.83506 h 0.76478 v -4.58794 h 0.76477 v 10.24559 h 0.76477 v 9.59501 l 1.52955,-0.0196 v -0.11375 l 1.52955,0.098 v 0.0353 h 0.76477 v -0.18633 h 0.76478 v 0.151 l 2.29432,0.0353 v -0.19505 h 0.76477 v 0.19505 l 2.29432,-0.0353 V 137.4924 h 0.76478 v -6.40976 h 0.76477 v 16.27007 h 0.76478 v -5.96961 h 0.76477 v -1.26996 h 0.76477 v -1.0075 h 0.76478 v 1.74226 h 0.76477 v -3.9813 h 0.76478 v -2.80783 h 0.76477 v -4.21594 h 0.76477 v -5.64565 h 1.52955 v 0.14121 h 0.76477 v -0.14121 l 2.29433,0.0705 v 0.0707 h 0.76477 v -0.14121 h 1.52955 v 10.88698 h 0.76477 v -5.63986 h 0.76478 v 12.13465 h 0.76477 v 7.51962 h 0.76477 v 0.151 l 2.29432,0.0353 v -0.19505 h 0.76478 v 0.19505 h 2.29432 v -0.18633 h 0.76477 v 0.151 l 1.52955,0.0353 v -0.18633 h 0.76478 v 0.151 h 0.76477 v -12.89267 h 0.76477 v -4.97449 h 0.76478 V 147.851 h 0.76477 v -5.2267 h 0.76478 v -2.01849 H 544.11 v -1.50036 h 0.76477 v 0.77975 h 0.76478 v -3.37849 h 0.76477 v -2.40391 h 0.76477 v -6.56278 h 0.76478 v -3.20188 h 0.76477 v -0.14121 h 2.29432 v 0.14121 l 1.52955,-0.0707 v -0.0705 h 0.76478 v 0.11359 l 1.52954,-0.1016 v 11.11029 h 0.76478 v -5.87516 h 0.76477 v 12.88846 h 0.76478 v 6.95214 l 3.82386,-0.0353 v -0.151 h 0.76478 v 0.151 l 2.29432,0.0353 v -0.19505 h 0.76477 v 0.19505 l 2.29433,-0.0353 v -13.51878 h 0.76477 v -4.37439 h 0.76477 v 17.02805 h 0.76478 v -11.67177 h 0.76477 v -0.63073 h 0.76477 v -1.68119 h 0.76478 v 0.72702 h 0.76477 v 1.17643 h 0.76478 v -0.27041 h 0.76477 v -1.90363 h 0.76477 v 1.99851 h 0.76478 v 0.44639 h 0.76477 v -2.06562 h 0.76478 v 1.46133 h 0.76477 v 1.08017 h 0.76477 v -2.20759 h 0.76478 v -3.14663 h 0.76477 v 5.2535 h 0.76478 v 0.24018 h 0.76477 v -4.91336 h 0.76477 v 2.39319 h 0.76478 v 2.27988 l 1.52954,0.0747 v -4.39702 h 0.76478 v 5.26625 h 0.76477 v 1.03861 h 0.76478 v -0.20524 l 2.29432,-0.0937 v -0.46559 h 0.76477 v -1.38648 h 0.76478 v -0.65139 h 0.76477 v -2.03743 h 0.76477 v 0.99024 h 0.76478 v 1.24881 h 0.76477 v -0.24982 h 0.76477 v -1.81122 h 0.76478 v 1.58415 h 0.76477 v 0.68548 h 0.76478 v -1.74431 h 0.76477 v 0.54958 h 0.76477 v 1.73906 h 0.76478 v -2.25905 h 0.76477 v -2.6871 h 0.76478 v 4.74891 h 0.76477 v 0.18798 h 0.76477 v -4.05144 h 0.76478 v 2.36064 h 0.76477 v 1.56516 l 1.52955,-0.0732 v -4.29137 h 0.76477 v 5.53818 h 0.76478 v 0.44794 h 0.76477 v -0.14852 h 0.76477 v 0.48771 l 1.52955,-0.11047 v -0.63208 h 0.76478 v -1.78406 h 0.76477 v -0.32404 h 0.76477 v -1.98074 h 0.76478 v 1.29749 h 0.76477 v 1.16232 h 0.76478 v -1.05925 h 0.76477 v -2.48254 h 0.76477 v 3.18317 h 0.76478 v 0.35211 h 0.76477 v -2.72764 h 0.76477 v 2.33659 h 0.76478 v 0.95541 h 0.76477 v -3.57264 l 1.52955,0.0973 v 3.39219 h 0.76477 v 0.20115 h 0.76478 v -4.27148 h 0.76477 v 3.02718 h 0.76477 v 0.94766 h 0.76478 v -0.18058 h 0.76477 v -3.92313 h 0.76478 v 5.17497 h 0.76477 v 0.8165 l 1.52955,-0.0783 v -0.14312 h 0.76477 v 0.35043 h 0.76478 v -0.76666 h 0.76477 v 2.33134 h 0.76477 v 0.26366 h 0.76478 v -0.51524 h 0.76477 v -1.07929 h 0.76478 v 1.20683 h 0.76477 v -2.93563 h 0.76477 v -3.36327 h 0.76478 v -0.92089 h 0.76477 v -8.95863 h 0.76477 v 0.14121 h 0.76478 v -0.14121 h 4.58864 v 0.14121 h 0.76478 v 8.54548 h 0.76477 v -3.43957 h 0.76477 v 9.38307 h 0.76478 v 10.29452 h 0.76477 v 0.16312 l 2.29432,-0.0354 v -0.151 h 0.76478 v 0.18633 h 2.29432 v -0.18633 h 0.76477 v 0.151 l 3.0591,0.0318 v -11.33283 h 0.76477 v -6.73842 h 0.76477 v 16.43901 h 0.76478 v -10.07167 h 0.76477 v -1.05934 h 0.76478 v -2.04891 h 0.76477 v 0.52579 h 0.76477 v 1.42771 h 0.76478 v -0.28252 h 0.76477 v -2.04303 h 0.76478 v 0.99537 h 0.76477 v 1.22918 h 0.76477 v -0.26627 h 0.76478 v -1.40995 h 0.76477 v 2.245 h 0.76478 v -0.67074 h 0.76477 v -3.44406 h 0.76477 v 4.46134 h 0.76478 v -0.19023 h 0.76477 v -2.21982 h 0.76477 v -2.95209 h 0.76478 v 5.0391 h 0.76477 v 0.23852 h 0.76478 v -4.66803 h 0.76477 v 5.12494 h 0.76477 v 0.99052 h 0.76478 v 0.25084 h 0.76477 v -0.26964 h 0.76478 v 0.31137 h 0.76477 v -0.42272 h 0.76477 v 0.29882 h 0.76478 v -23.71931 h 0.76477 v 4.53422 h 0.76478 v -5.52837 h 0.76477 v 2.20712 h 0.76477 v -0.61244 h 0.76478 v 5.26643 h 0.76477 v 1.11542 h 0.76477 v 16.39036 h 0.76478 v 1.42827 l 1.52955,-0.0462 v -0.0669 h 0.76477 v -0.21789 h 0.76477 v -0.89369 h 0.76478 v 4.55828 h 0.76477 v -0.38952 h 0.76478 v -0.61103 h 0.76477 V 140.522 h 0.76477 v -0.85219 l 1.52955,0.10439 v 0.11231 h 0.76477 v -0.29037 H 696.3 v 0.31784 h 0.76477 v -2.17087 h 0.76478 v -1.81289 h 0.76477 v 0.29318 h 0.76477 v -0.46766 h 0.76478 v -0.68213 l 1.52955,-0.023 v 0.51062 h 0.76477 v 0.65838 h 0.76477 v 0.31832 h 0.76478 v -1.12167 h 0.76477 v -0.36565 h 0.76478 v 0.45153 h 0.76477 v 0.72128 l 1.52955,-0.004 v 1.10737 h 0.76477 v -1.22289 h 0.76477 v 0.11933 h 2.29433 v -0.19284 h 0.76477 v 1.30783 h 0.76477 v -1.11499 h 0.76478 v -0.3917 h 0.76477 v 1.45287 h 0.76478 v -1.06117 h 0.76477 v -1.00033 l 1.52955,0.0939 v -0.24331 h 0.76477 v 1.37661 h 0.76477 v -0.23063 h 1.52955 v 0.55306 h 0.76478 v 1.63831 h 0.76477 v 1.22411 h 0.76477 v -0.29781 h 0.76478 v 0.12896 h 0.76477 v 0.2899 h 0.76477 v -0.92188 h 0.76478 v 2.15433 h 0.76477 v 1.99842 h 0.76478 v -0.84916 h 0.76477 v -3.21194 h 0.76478 v 0.80789 l 1.52954,-0.10628 v -0.31162 l 1.52955,-0.0185 v -0.28508 h 0.76477 v 0.63092 h 0.76478 v 0.28933 h 0.76477 v 7.9712 l 1.52955,0.0419 v -7.73212 h 0.76477 v 4.20706 h 0.76478 v 0.32415 h 0.76477 v 3.20091 l 3.82387,-0.0419 v -2.44195 h 0.76477 v -0.65286 h 0.76478 v -0.38836 h 4.58864 v 3.13062 h 0.76477 v 0.35255 l 4.58865,-0.0104 v -2.68168 h 0.76477 v -0.64998 h 0.76478 v -0.14108 l 2.29432,0.0243 v -5.7295 h 0.76477 v 1.8044 l 1.52955,0.0233 v -0.33753 h 0.76477 v -0.25136 h 0.76478 v -0.82784 h 0.76477 v 0.5147 h 0.76477 v -2.07133 h 0.76478 v -3.49307 h 0.76477 v 0.26225 h 0.76478 v -10.14193 h 4.58864 v 0.14121 h 0.76477 v -0.14121 h 1.52955 v 6.50614 h 0.76477 v -1.25636 h 0.76478 v 8.57782 h 0.76477 v 11.22479 l 1.52955,0.0353 v -0.16583 h 0.76477 v 0.13536 l 2.29433,0.0305 v -0.19505 h 0.76477 v 0.19505 l 2.29432,-0.0353 v -0.151 h 0.76477 v 0.151 l 1.52955,0.0353 v -10.56603 h 0.76478 v -7.50878 h 0.76477 v 17.47858 h 0.76477 v -7.75283 h 0.76478 v -0.64896 h 0.76477 v -1.11676 h 0.76478 v 1.6339 h 0.76477 v -3.43743 h 0.76477 v -3.28989 h 0.76478 v -1.57198 h 0.76477 v -8.30754 h 1.52955 v 0.14121 h 0.76477 v -0.14121 l 1.52955,0.0705 v 0.0438 h 0.76477 v -0.11548 l 2.29433,0.001 v 9.32805 h 0.76477 v -4.08093 h 0.76477 v 9.8098 h 0.76478 v 10.0308 h 0.76477 v -0.19505 h 0.76478 v 0.19505 h 2.29432 v -0.18633 h 0.76477 v 0.151 l 1.52955,0.0353 v -0.18633 h 0.76477 v 0.151 l 2.29432,0.0353 v -0.19505 h 0.76478 v -11.41787 h 0.76477 v -6.46092 h 0.76478 v 15.80127 h 0.76477 v -5.75186 h 0.76477 v -1.05659 h 0.76478 v -1.06241 h 0.76477 v 2.24823 h 0.76478 v -4.1762 h 0.76477 v -3.13666 h 0.76477 v -2.46031 h 0.76478 v -7.27814 h 0.76477 v -0.14121 h 1.52955 v 0.12351 l 1.52955,-0.057 v -0.0665 h 1.52954 v 0.14121 h 0.76478 v -0.14121 h 0.76477 v 10.19862 h 0.76478 v -4.94417 h 0.76477 v 10.63105 h 0.76477 v 9.20222 l 1.52955,-0.0353 v -0.151 h 0.76478 v 0.151 l 2.29432,0.0353 v -0.19505 h 0.76477 v 0.19505 l 4.58864,-0.0353 v -11.98348 h 0.76478 v -6.17531 h 0.76477 v 16.20135 h 0.76478 v -10.00586 h 0.76477 v -0.97125 h 0.76477 v -2.1545 h 0.76478 v 1.29017 h 0.76477 v 0.87575 h 0.76477 v -0.2678 h 0.76478 v -1.84016 h 0.76477 v 1.08529 h 0.76478 v 1.1661 h 0.76477 v -1.00764 h 0.76477 v 0.40867 H 848.49 v 1.21287 h 0.76477 v -1.26867 h 0.76477 v 0"
           clip-path="url(#pe5ddfdce09)"
           style="fill:none;stroke:#0000ff;stroke-width:1.5;stroke-linecap:square"
           id="path30" />
      </g>
      <g
         id="line2d_13">
        <path
           d="m 86.010455,82.034589 v 6.182463 h 0.764773 v -4.834258 h 0.764774 v -2.027212 h 0.764774 v 3.80475 h 0.764774 v 8.558007 h 0.764774 v -2.300256 h 0.764774 V 70.025472 h 0.764774 v 3.157922 h 0.764773 v -31.73646 h 0.764774 v 51.64795 h 0.764774 V 65.53721 h 0.764774 v -8.06203 h 0.764774 v 29.003493 h 0.764774 V 76.27374 h 2.294321 v 0.703788 h 0.764774 v 0.700331 h 0.764774 v 5.928375 h 0.764776 v 8.022591 h 2.29432 V 61.94979 h 0.76477 V 41.150664 h 0.76478 V 105.7965 h 0.76477 v -4.22861 h 0.76478 v -5.384373 h 0.76477 v 1.819357 h 0.76477 v 0.600931 h 0.76478 v -1.811056 h 0.76477 v 0.606446 h 0.76477 v 1.802811 h 0.76478 v 1.385294 h 0.76477 v 4.4506 h 0.76478 v 1.70057 h 0.76477 v 2.04814 h 0.76477 v -0.92689 h 0.76478 v -0.93369 h 0.76477 V 50.367502 h 0.76478 v 0.279502 h 0.76477 v 21.329922 h 0.76477 v 9.831693 h 0.76478 V 71.491512 h 0.76477 v -2.451648 h 0.76478 v 1.475929 h 0.76477 v 0.975719 h 1.52955 v -5.196701 h 0.76477 v 7.368365 h 0.76477 v -0.239691 h 0.76478 v -3.152646 h 0.76477 v 7.40702 h 0.76478 v -3.059886 h 0.76477 v -3.613502 h 0.76477 v -3.455559 h 0.76478 v 10.825844 h 0.76477 v -3.994889 h 0.76477 v -2.160841 h 0.76478 V 67.04855 h 0.76477 v 8.517917 h 0.76478 v -6.279578 h 0.76477 v 10.70075 h 0.76477 v 2.272556 h 0.76478 v 6.38803 h 0.76477 v -8.889874 h 0.76478 v 8.458701 h 0.76477 v -3.277671 h 0.76477 v 1.757795 h 0.76478 V 67.548912 h 0.76477 V 56.671653 h 0.76477 V 36.028936 h 0.76478 v 3.632121 h 0.76477 V 32.00063 h 0.76478 v -1.89299 h 0.76477 V 19.970664 h 0.76477 v 58.866795 h 0.76478 v 1.379096 h 0.76477 v -1.610259 h 0.76478 v 6.333085 h 0.76477 v 0.881694 h 0.76477 v -0.440144 h 0.76478 v 2.403586 h 0.76477 v 9.614678 h 0.76477 V 85.380931 h 0.76478 v -5.62258 h 0.76477 v -5.855882 h 0.76478 v 9.032368 h 0.76477 v -2.261564 h 0.76477 v 4.266108 h 0.76478 v 1.320441 h 1.52955 v 36.652988 h 0.76477 v -4.70138 h 0.76477 v -3.1212 h 0.76478 v 3.29228 h 0.76477 v -2.94154 h 0.76478 v -4.09468 h 0.76477 v 9.40649 h 0.76477 v -0.84121 h 0.76478 v -12.05185 h 0.76477 v 8.62752 h 0.76477 v -0.34777 h 0.76478 v 3.7721 h 0.76477 v -0.33813 h 0.76478 v -0.84947 h 0.76477 V 99.400803 h 0.76477 v 20.679477 h 0.76478 v -0.33766 h 0.76477 v 1.67893 h 0.76478 v -1.67893 h 0.76477 V 99.002908 h 0.76477 v 21.245852 h 0.76478 v -0.67532 h 0.76477 V 99.002908 h 0.76477 v 20.231452 h 0.76478 v 0.84592 h 0.76477 v -3.07323 h 0.76478 v -1.04184 h 0.76477 v -0.52424 h 0.76477 v -3.01345 h 0.76478 v 7.3151 h 0.76477 v 0.16895 h 0.76478 v -8.38443 h 0.76477 V 84.496419 h 0.76477 v 1.544204 h 0.76478 v -1.101242 h 0.76477 v -4.494282 h 0.76477 v 10.338779 h 0.76478 v -6.509471 h 0.76477 v -1.788969 h 0.76478 v 4.647708 h 0.76477 V 75.329931 h 0.76477 v 6.252352 h 0.76478 v 9.201595 h 0.76477 v -7.624882 h 0.76478 v 0.223798 h 0.76477 v 2.438281 h 0.76477 v 9.954729 h 0.76478 v 3.624999 h 0.76477 V 118.0401 h 0.76478 v -2.07489 h 0.76477 V 99.5993 h 0.76477 v 20.48098 h 0.76478 v -1.69777 h 0.76477 v -5.23934 h 0.76478 v 2.2978 h 3.05909 v 1.04627 h 0.76477 v 0.34678 h 0.76478 v 2.06032 h 0.76477 v -0.51183 h 0.76478 v 0.17085 h 0.76477 v -0.17085 h 0.76477 v 0.34146 h 0.76478 v -0.34146 h 0.76477 v -1.03014 h 0.76477 v -1.9114 h 0.76478 v 0.52424 h 0.76477 v -0.52424 h 3.0591 v 1.04627 h 0.76477 v 0.69259 h 0.76478 v 1.88464 h 0.76477 v -0.68196 h 0.76477 v 0.34146 h 0.76478 v -0.34146 h 0.76477 V 84.718077 h 0.76477 v 6.700006 h 0.76478 v -2.55478 h 0.76477 V 71.734422 h 0.76478 v 12.761997 h 0.76477 V 42.037837 h 0.76477 v 32.34203 h 0.76478 v 3.530671 h 0.76477 V 40.853845 h 0.76478 v 40.047233 h 0.76477 v -3.92355 h 0.76477 V 76.27374 h 1.52955 v 0.703788 h 0.76478 v -1.647597 h 0.76477 v 0.70844 h 0.76477 v 0.235369 h 0.76478 v 0.703788 h 0.76477 V 76.27374 h 0.76477 v -7.97746 h 0.76478 V 26.903931 h 0.76477 v 73.091464 h 0.76478 v -1.992521 h 1.52954 v -0.603679 h 2.29433 v 1.20461 h 0.76477 v -1.811056 h 0.76477 v 1.210125 h 0.76478 v -0.603679 h 1.52954 v 0.603679 h 1.52955 v -0.603679 h 0.76478 v -30.85271 h 0.76477 V 42.037837 h 0.76477 V 68.29628 h 0.76478 v -2.506105 h 0.76477 v 13.27807 h 0.76478 V 41.446934 h 0.76477 v 40.587655 h 0.76477 v -7.654722 h 0.76478 V 43.213132 h 0.76477 v 42.167799 h 0.76477 v -6.543472 h 0.76478 V 76.27374 h 1.52955 v 1.404119 h 0.76477 v -0.700331 h 0.76477 v 4.378054 h 0.76478 v 10.273243 h 1.52955 v 0.839699 h 0.76477 V 66.042708 h 0.76477 V 33.561705 h 0.76478 v 66.43369 h 0.76477 v 3.126225 h 0.76478 v -6.938103 h 0.76477 v 1.819357 h 1.52955 v -0.603679 h 2.29432 v 4.753525 h 0.76477 v 1.73883 h 0.76478 v 3.59552 h 0.76477 v -0.18674 h 0.76477 v 1.30144 h 0.76478 v -1.67574 h 0.76477 V 55.051811 h 0.76478 v -7.507175 h 0.76477 v 23.703559 h 0.76477 v -7.493908 h 0.76478 v 12.754435 h 0.76477 V 40.258556 h 0.76478 v 44.237863 h 0.76477 V 61.430202 h 0.76477 V 49.244459 h 0.76478 v 26.322008 h 0.76477 v 0.707273 h 0.76478 v 1.404119 h 0.76477 V 76.27374 h 2.29432 v -0.235369 h 1.52955 v 0.235369 h 0.76477 v 0.703788 h 0.76478 V 57.47518 h 0.76477 V 44.088953 h 0.76477 v 53.511775 h 0.76478 v 1.003077 h 0.76477 v -0.600931 h 0.76477 v -0.603679 h 0.76478 v 0.603679 h 0.76477 v -1.210125 h 0.76478 v 1.811056 h 0.76477 v -1.811056 h 0.76477 v 1.210125 h 0.76478 v -0.603679 h 1.52955 v 0.603679 h 1.52954 v -0.603679 h 0.76478 V 49.806991 h 0.76477 v -1.41014 h 0.76478 v 26.458834 h 0.76477 v 12.059649 h 0.76477 V 71.976926 h 0.76478 v -1.706087 h 0.76477 v -0.245367 h 0.76477 v 0.490321 h 0.76478 v 0.975719 h 0.76477 v -4.693781 h 0.76478 v 5.904283 h 0.76477 v 0.48138 h 0.76477 v -1.691882 h 0.76478 v 10.317107 h 0.76477 v -6.715615 h 0.76477 v -3.116078 h 0.76478 v -2.197234 h 0.76477 v 2.681029 h 0.76478 v 4.750634 h 0.76477 v -7.924466 h 0.76477 v 1.717582 h 0.76478 v 3.851214 h 0.76477 v -1.912781 h 0.76478 v -1.694709 h 0.76477 v 19.111227 h 0.76477 v -7.200426 h 0.76478 v -3.171357 h 0.76477 v 6.052984 h 0.76478 v -3.780428 h 0.76477 v 7.032249 h 0.76477 v -9.075889 h 0.76478 v -7.997529 h 0.76477 v -0.970831 h 0.76478 v -0.243724 h 1.52954 v -0.733632 h 0.76478 v -2.971895 h 0.76477 v 3.949251 h 0.76477 v 2.654274 h 0.76478 v -3.63163 h 0.76477 v 9.027816 h 0.76478 v -4.44297 h 0.76477 v -4.339892 h 0.76477 V 68.29628 h 0.76478 v 7.270187 h 0.76477 v 1.644888 h 0.76477 v -5.96316 h 0.76478 v -5.205487 h 0.76477 v 10.70061 h 0.76478 v -5.251806 h 0.76477 v 2.649854 h 0.76477 v 12.99178 h 0.76478 v -8.295687 h 0.76477 v 3.87286 h 0.76478 v 5.937906 h 0.76477 V 78.142836 h 0.76477 v 4.792001 h 0.76478 v -7.841833 h 0.76477 v -4.577211 h 0.76477 v -2.468214 h 0.76478 v 1.977893 h 0.76477 v 3.637704 h 0.76478 v -4.129678 h 0.76477 v -3.238687 h 0.76477 v 4.70966 h 0.76478 v 3.375396 h 0.76477 v -4.354395 h 0.76478 v 11.556811 h 0.76477 v -8.398889 h 0.76477 v -1.935199 h 0.76478 v -0.487858 h 0.76477 v 5.278034 h 0.76478 v -1.897005 h 0.76477 v -1.680645 h 0.76477 v -1.45625 h 0.76478 v 2.897998 h 0.76477 V 68.29628 h 0.76477 v 13.512339 h 0.76478 v 11.077802 h 0.76477 V 79.52869 h 0.76478 v 6.949983 h 0.76477 v -1.097742 h 0.76477 v -9.578317 h 0.76478 v 8.915463 h 0.76477 v 9.000262 h 0.76478 V 64.010302 h 0.76477 v 23.122844 h 0.76477 V 43.213132 h 0.76478 v 30.689337 h 0.76477 v 12.138154 h 0.76477 V 34.799971 h 0.76478 v 53.848254 h 0.76477 v -8.889874 h 0.76478 V 76.27374 h 0.76477 v 0.703788 h 0.76477 V 76.27374 h 0.76478 v -0.943809 h 0.76477 v 6.252352 h 0.76478 v 9.8358 h 0.76477 v 0.210742 h 1.52955 V 77.444798 h 0.76477 V 27.871519 h 0.76477 v 68.92123 h 0.76478 v 7.290571 h 0.76477 v -6.684125 h 1.52955 v -0.606446 h 0.76477 v 1.811056 h 0.76478 v -0.600931 h 0.76477 v -1.210125 h 0.76478 v 4.187671 h 0.76477 v 2.71908 h 0.76477 v 3.03897 h 0.76478 v 1.30717 h 0.76477 v -0.18592 h 0.76478 v -0.37265 h 0.76477 V 71.248195 h 0.76477 V 40.556476 h 0.76478 v 25.990009 h 0.76477 v 21.45447 h 0.76477 V 77.677859 h 0.76478 v -6.186347 h 0.76477 v -8.507917 h 0.76478 v 11.87209 H 391.92 v -4.830213 h 0.76477 v -0.738583 h 0.76478 v 1.717582 h 0.76477 v 0.972455 h 0.76478 v -1.706087 h 0.76477 v 9.257851 h 0.76477 v -6.345296 h 0.76478 v -2.178923 h 0.76477 v -1.470973 h 0.76477 v 5.559506 h 0.76478 v 0.70961 h 0.76477 v -5.042277 h 0.76478 v -3.962606 h 0.76477 v 6.145173 h 0.76478 v 5.663392 h 0.76477 v -8.090503 h 0.76477 v 15.744029 h 0.76478 v 1.741133 h 0.76477 v -1.960332 h 0.76477 v -6.052984 h 0.76478 v 3.618595 h 0.76477 v 3.961503 h 0.76477 v -1.746662 h 0.76478 V 51.204506 h 0.76477 v -2.807655 h 0.76478 V 36.028936 h 0.76477 v -2.156787 h 0.76477 v -2.500112 h 0.76478 V 18.956708 h 0.76477 v 42.473494 h 0.76478 v 31.872822 h 0.76477 v -8.806605 h 0.76477 v -0.222012 h 0.76478 v 2.204266 h 0.76477 v -6.262118 h 0.76478 V 95.36684 h 0.76477 v 4.82615 h 0.76477 V 88.648225 h 0.76478 V 78.142836 h 0.76477 v 5.01616 h 0.76478 v 3.97415 h 0.76477 v 4.706094 h 0.76477 v -5.142064 h 0.76478 v -12.55581 h 0.76477 v 9.01763 h 0.76477 V 120.417 h 0.76478 v -0.67438 h 0.76477 v -2.39025 h 0.76478 v -15.58925 h 0.76477 v 18.31716 h 0.76477 v -0.33766 h 0.76478 v -0.3386 h 0.76477 v -3.43881 h 0.76477 v -12.07366 h 0.76478 v 16.86123 h 0.76477 v -0.84121 h 0.76478 v -8.0235 h 0.76477 v 4.07714 h 0.76477 v -0.52424 h 0.76478 v 1.9114 h 0.76477 v 2.05165 h 0.76478 v -3.43881 h 0.76477 v -0.52424 h 2.29432 v -7.39533 h 0.76478 v 7.57032 h 0.76477 v -0.17499 h 0.76477 v 4.13247 h 0.76478 v -2.22107 h 0.76477 v -14.81122 h 0.76478 v 16.35319 h 0.76477 v 1.18594 h 0.76477 v -7.83232 h 0.76478 v 4.23928 h 0.76477 v -1.04627 h 0.76477 v 0.17499 h 0.76478 v -14.63554 h 0.76477 V 82.934837 h 2.29432 v 3.105786 h 0.76478 v -9.531901 h 0.76477 v 17.416793 h 0.76477 v -6.574902 h 0.76478 V 76.743318 h 0.76477 v 4.15776 h 0.76478 v 9.458344 h 0.76477 v -7.424585 h 0.76477 v -2.261564 h 0.76478 V 90.99561 h 0.76477 v -1.275371 h 0.76478 V 105.0379 h 0.76477 v -4.64761 h 0.76477 v 16.61676 h 0.76478 v -0.17303 h 0.76477 v 2.73942 h 0.76478 v -4.13247 h 0.76477 V 99.5993 h 0.76477 v 18.4408 h 0.76478 v 0.85424 h 0.76477 v -0.17037 h 0.76478 v -0.34146 h 1.52954 v 0.17085 h 0.76478 v 0.34098 h 0.76477 v -3.45337 h 0.76477 v 0.52424 h 0.76478 v -0.52424 h 3.05909 v 0.6985 h 0.76478 v -0.17426 h 0.76477 v 3.26915 h 0.76477 v -0.85185 h 1.52955 v 0.17085 h 0.76478 v -0.17085 h 0.76477 v 0.34146 h 0.76477 v -0.51254 h 0.76478 v -2.77046 h 0.76477 v 0.52424 h 0.76478 v -0.52424 h 0.76477 V 98.203489 h 0.76477 V 90.99561 h 0.76478 v -2.132307 h 0.76477 V 70.270839 h 0.76477 v 15.988983 h 0.76478 V 47.259535 h 0.76477 V 65.53721 h 0.76478 v 23.111015 h 0.76477 V 30.10764 h 0.76477 v 51.700979 h 0.76478 V 76.27374 h 1.52955 v 0.703788 h 0.76477 v -0.939157 h 0.76477 v -0.70844 h 0.76478 v 0.943809 h 0.76477 v 0.703788 h 0.76477 V 76.27374 h 0.76478 v 0.703788 h 0.76477 v -3.075059 h 0.76478 V 28.833535 h 0.76477 v 61.950343 h 0.76477 v 6.008871 h 0.76478 v 1.210125 h 1.52955 v -1.210125 h 0.76477 v 1.210125 h 0.76477 v 0.600931 h 0.76478 v -1.811056 h 0.76477 v 0.606446 h 0.76478 v 0.603679 h 1.52954 v -0.603679 h 0.76478 v -0.606446 h 0.76477 v 1.210125 h 0.76477 V 79.52869 h 0.76478 V 32.93905 h 0.76477 v 27.969761 h 0.76478 v 6.390133 h 0.76477 v 18.960878 h 0.76477 V 42.920119 h 0.76478 v 28.328076 h 0.76477 v 14.792428 h 0.76478 V 36.334736 h 0.76477 v 52.098073 h 0.76477 v -7.98771 h 0.76478 V 76.27374 h 0.76477 v 0.703788 h 0.76477 V 76.27374 h 0.76478 v -0.943809 h 0.76477 v 6.252352 h 0.76478 v 9.624728 h 0.76477 v 0.421814 h 1.52955 V 76.977528 h 0.76477 V 27.871519 h 0.76478 v 67.290367 h 0.76477 v 8.345274 h 0.76477 v -6.107965 h 0.76478 v 0.603679 h 0.76477 v -0.603679 h 0.76477 v 0.603679 h 0.76478 v -0.603679 h 1.52955 v 2.991095 h 0.76477 v 3.69303 h 0.76477 v 2.84271 h 0.76478 v 0.93369 h 0.76477 v 0.18592 h 0.76478 v -1.30717 h 0.76477 V 69.779692 h 0.76477 V 39.661057 h 0.76478 V 67.04855 h 0.76477 v 0.749907 h 0.76478 V 83.158996 H 544.11 V 42.037837 h 0.76477 v 34.000534 h 0.76478 v -0.945367 h 0.76477 V 38.157555 h 0.76477 v 39.752983 h 0.76478 v 1.157707 h 0.76477 V 76.27374 h 2.29432 v -0.235369 h 1.52955 v 0.235369 h 0.76478 v 0.703788 h 0.76477 V 76.27374 h 0.76477 V 65.790175 h 0.76478 V 26.903931 h 0.76477 V 99.5993 h 0.76478 v -1.596426 h 0.76477 v -0.603679 h 0.76477 v 0.603679 h 0.76478 v -0.603679 h 1.52954 v 0.603679 h 0.76478 v -0.603679 h 1.52955 v 0.603679 h 1.52954 v -0.603679 h 2.29433 V 60.908811 h 0.76477 V 43.505608 h 0.76477 v 19.735327 h 0.76478 v 21.477142 h 0.76477 v -5.649832 h 0.76477 V 68.29628 h 0.76478 v -0.747368 h 0.76477 v 5.634482 h 0.76478 v -6.385663 h 0.76477 v 2.981961 h 0.76477 v 2.439334 h 0.76478 v -1.458689 h 0.76477 v 1.216589 h 0.76478 v 12.519493 h 0.76477 V 74.141366 h 0.76477 v -2.406944 h 0.76478 v -2.942001 h 0.76477 v 7.950897 h 0.76478 v -2.601952 h 0.76477 v -3.381029 h 0.76477 V 67.04855 h 0.76478 v 6.614626 h 0.76477 v 4.71158 h 0.76477 v -7.370285 h 0.76478 v 17.428338 h 0.76477 v -5.72249 h 0.76478 v -8.80785 h 0.76477 v 12.576204 h 0.76477 v 4.728338 h 0.76478 v -9.172422 h 1.52955 v -5.525867 h 0.76477 v -5.504251 h 0.76477 V 67.04855 h 0.76478 v 6.374935 h 0.76477 v -3.398013 h 0.76477 v -0.738583 h 0.76478 v 1.961306 h 0.76477 v -0.243724 h 0.76478 v -0.733632 h 0.76477 v 8.56662 h 0.76477 v -5.174283 h 0.76478 v -2.658705 h 0.76477 v -2.956892 h 0.76478 v 8.695739 h 0.76477 v -1.413387 h 0.76477 v -5.796433 h 0.76478 v -3.238687 h 0.76477 v 11.848025 h 0.76478 v -3.524863 h 0.76477 v -1.434579 h 0.76477 v 11.091013 h 0.76478 v -0.222368 h 0.76477 v 0.887342 h 0.76477 v -9.60945 h 0.76478 v 8.944476 h 0.76477 v -1.33957 h 0.76478 v -4.560081 h 0.76477 v -8.103917 h 0.76477 v -0.737341 h 1.52955 v 2.200924 h 0.76478 v -1.95473 h 0.76477 v -2.480748 h 0.76477 v 3.216849 h 0.76478 v 3.386676 h 0.76477 v -3.63163 h 0.76477 v 10.630239 h 0.76478 v -5.098464 h 0.76477 v -6.269116 h 0.76478 v -0.246609 h 0.76477 v 5.806115 h 1.52955 v -5.806115 h 0.76477 v 0.98395 h 0.76477 v 4.347134 h 0.76478 v -0.954797 h 0.76477 v -1.44415 h 0.76478 V 89.50651 h 1.52955 V 76.038371 h 0.76477 v 6.221824 h 0.76477 v 7.673439 h 0.76478 V 79.52869 h 0.76477 v 19.075115 h 0.76477 V 76.038371 h 0.76478 v 7.790944 h 0.76477 V 49.806991 h 0.76478 v 13.433944 h 0.76477 v 36.159868 h 0.76477 V 29.790028 h 0.76478 v 55.149353 h 0.76477 v -4.038303 h 0.76477 v -3.92355 h 1.52955 v -1.647597 h 0.76478 v 0.70844 h 0.76477 v 4.406728 h 0.76477 v 9.488535 h 0.76478 v 1.695191 h 0.76477 v 0.839699 h 0.76478 v -5.771348 h 0.76477 V 31.686632 h 0.76477 v 52.809787 h 0.76478 v 19.395131 h 0.76477 v -5.888676 h 1.52955 v -1.210125 h 0.76477 v 1.811056 h 0.76478 v -1.20461 h 1.52954 v 2.398302 h 0.76478 v 2.549583 h 0.76477 v 5.13999 h 0.76478 v 0.37265 h 0.76477 v 0.18592 h 0.76477 v -1.30717 h 0.76478 V 87.567737 h 0.76477 V 28.833535 h 0.76477 v 33.63405 h 0.76478 v 34.72977 h 0.76477 V 73.663176 h 0.76478 v 2.610564 h 0.76477 V 64.775717 h 0.76477 v 9.126752 h 0.76478 v 1.190535 h 0.76477 v -4.822165 h 0.76478 V 68.29628 h 0.76477 v 4.164441 h 0.76477 v -2.435249 h 0.76478 v 6.717846 h 0.76477 v 1.631438 h 0.76478 V 66.797731 h 0.76477 v 6.145173 h 0.76477 v 0.720272 h 0.76478 v -0.239691 h 0.76477 v -2.663148 h 0.76477 v -2.96188 h 0.76478 v 7.531474 h 0.76477 v -1.188565 h 0.76478 v -3.625573 h 0.76477 v 15.085385 h 0.76477 v -1.771863 h 0.76478 v -2.473733 h 0.76477 v 5.559752 h 0.76478 v -4.655139 h 0.76477 v 6.817847 h 0.76477 v -5.248727 h 0.76478 V 47.829222 h 0.76477 v 4.760343 h 0.76478 V 33.872149 h 0.76477 v -4.400341 h 0.76477 v -1.279 h 0.76478 v -0.321289 h 0.76477 v -3.575431 h 0.76477 v 87.772062 h 0.76478 V 79.068245 h 0.76477 v 8.499492 h 0.76478 v -3.961503 h 0.76477 v 0.668173 h 0.76477 v 7.984682 h 0.76478 v 2.28604 h 0.76477 v -2.916304 h 0.76478 V 81.582283 h 0.76477 v -5.779669 h 0.76477 v 12.630195 h 0.76478 v 1.713886 h 0.76477 v -0.854251 h 0.76477 V 74.855685 H 696.3 v 8.750549 h 0.76477 v 25.917036 h 0.76478 v 9.03009 h 0.76477 v 1.6954 h 0.76477 v -5.15853 h 0.76478 v 0.35074 h 1.52955 v -0.52649 h 0.76477 v 4.82814 h 0.76477 v -11.8829 h 0.76478 v 10.52279 h 0.76477 v -2.94154 h 0.76478 v 2.77046 h 0.76477 v 2.20557 h 0.76477 v -0.84356 h 0.76478 V 98.803508 h 0.76477 v 20.600512 h 0.76477 v 0.3386 h 0.76478 v 1.67893 h 0.76477 v -1.67893 h 0.76478 v -0.50826 h 0.76477 V 99.995395 h 0.76477 v 20.084885 h 0.76478 v -1.86885 h 0.76477 V 99.797497 h 0.76478 v 20.282783 h 0.76477 v -3.59304 h 0.76477 v 1.89527 h 0.76478 v -2.94154 h 0.76477 v -5.73421 h 0.76477 V 120.585 h 0.76478 v -0.84238 h 0.76477 v -11.69698 h 0.76478 v -5.89292 h 0.76477 V 87.567737 h 0.76477 v -4.857418 h 0.76478 v -3.87286 h 0.76477 v 6.763719 h 0.76477 v -1.104759 h 0.76478 v 4.366884 h 0.76477 v -1.078786 h 0.76478 v -7.567962 h 0.76477 v -2.306017 h 0.76478 v 12.023096 h 0.76477 v -5.437215 h 0.76477 v -2.6878 h 0.76478 v 7.054684 h 0.76477 v 1.496119 h 0.76477 v 20.078658 h 0.76478 v -5.40018 h 0.76477 v 10.92731 h 1.52955 v -13.81249 h 0.76477 v 16.74162 h 0.76478 v -4.3321 h 0.76477 v 1.40297 h 0.76478 v -0.52424 h 3.05909 v 1.04627 h 0.76477 v 1.20948 h 0.76478 v 1.53764 h 0.76477 v -0.85185 h 1.52955 v 0.17085 h 0.76477 v -0.17085 h 0.76478 v 0.34146 h 0.76477 v -2.5845 h 0.76477 v -0.17426 h 0.76478 v -0.52424 h 3.0591 v 0.6985 h 0.76477 v -0.17426 h 0.76477 v 2.24622 h 0.76478 v 0.68291 h 0.76477 v -0.34098 h 0.76477 v -0.17085 h 0.76478 V 95.775804 h 0.76477 v 8.881116 h 0.76478 v -6.854966 h 0.76477 v -21.99934 h 0.76477 v 6.457581 h 0.76478 v -26.66653 h 0.76477 v 0.539944 h 0.76477 v 41.467119 h 0.76478 V 30.10764 h 0.76477 v 50.793438 h 0.76478 V 76.27374 h 1.52954 v 0.469578 h 0.76478 v -2.125345 h 0.76477 v 2.359555 h 0.76478 V 76.27374 h 0.76477 v 0.703788 h 0.76477 V 76.27374 h 1.52955 v 2.101016 h 0.76477 V 33.561705 h 0.76478 v 48.246914 h 0.76477 v 14.98413 h 0.76478 v 1.811056 h 1.52954 v -2.420288 h 0.76478 v 1.819357 h 1.52955 v -0.603679 h 0.76477 v 0.603679 h 0.76477 v -0.603679 h 0.76478 v -0.606446 h 0.76477 v 1.811056 h 0.76477 v -1.20461 h 1.52955 V 85.601178 h 0.76478 V 28.833535 h 0.76477 v 31.552074 h 0.76477 v 6.913335 h 0.76478 v 15.860052 h 0.76477 V 48.396851 h 0.76478 v 11.988758 h 0.76477 v 34.15952 h 0.76477 V 31.056842 h 0.76478 v 48.930797 h 0.76477 v 2.04695 h 0.76478 V 76.27374 h 0.76477 v 0.703788 h 0.76477 v -1.647597 h 0.76478 v 0.70844 h 0.76477 v 5.770248 h 0.76477 v 7.269423 h 0.76478 v 2.550783 h 1.52955 v -8.246031 h 0.76477 V 29.790028 h 0.76477 v 56.250595 h 0.76478 v 17.850927 h 0.76477 v -5.287745 h 0.76478 v -1.20461 h 2.29432 v 1.20461 h 0.76477 v -1.811056 h 0.76477 v 3.597541 h 0.76478 v 2.34463 h 0.76477 v 4.00355 h 0.76478 v 1.30717 h 0.76477 v -0.74531 h 0.76477 v 0.74531 h 0.76478 V 79.758351 h 0.76477 V 31.372037 h 0.76478 v 31.353775 h 0.76477 v 6.066609 h 0.76477 v 15.925656 h 0.76478 V 45.826236 h 0.76477 V 65.53721 h 0.76478 v 19.180867 h 0.76477 V 30.10764 h 0.76477 v 49.42105 h 0.76478 v -1.153934 h 0.76477 V 76.27374 h 0.76477 v 0.703788 h 0.76478 v -0.939157 h 0.76477 v -0.70844 h 0.76478 v 0.943809 h 0.76477 v 0.703788 h 1.52955 V 76.27374 h 0.76477 v -6.002901 h 0.76478 V 29.790028 h 0.76477 V 90.99561 h 0.76477 v 7.007264 h 0.76478 v -1.210125 h 0.76477 v 1.811056 h 0.76478 v -1.20461 h 2.29432 v 0.603679 h 1.52954 v -0.603679 h 1.52955 v 0.603679 h 0.76478 v -0.603679 h 1.52954 v -26.151 h 0.76478 V 36.028936 h 0.76477 v 24.618501 h 0.76478 v 25.612385 h 0.76477 v -6.043267 h 0.76477 v -8.725043 h 0.76478 v -6.46153 h 0.76477 v 9.825703 h 0.76477 v -2.636659 h 0.76478 v -2.685528 h 0.76477 V 68.54456 h 0.76478 v 3.674466 h 0.76477 v -3.179162 h 0.76477 V 83.829315 H 848.49 v -9.211342 h 0.76477 v -5.578109 h 0.76477 v 0"
           clip-path="url(#pe5ddfdce09)"
           style="fill:none;stroke:#008000;stroke-width:1.5;stroke-linecap:square"
           id="path31" />
      </g>
      <g
         id="patch_3">
        <path
           d="M 47.81,155.82023 V 12.439398"
           style="fill:none;stroke:#000000;stroke-width:0.8;stroke-linecap:square;stroke-linejoin:miter"
           id="path32" />
      </g>
      <g
         id="patch_4">
        <path
           d="M 888.22,155.82023 V 12.439398"
           style="fill:none;stroke:#000000;stroke-width:0.8;stroke-linecap:square;stroke-linejoin:miter"
           id="path33" />
      </g>
      <g
         id="patch_5">
        <path
           d="M 47.81,155.82023 H 888.22"
           style="fill:none;stroke:#000000;stroke-width:0.8;stroke-linecap:square;stroke-linejoin:miter"
           id="path34" />
      </g>
      <g
         id="patch_6">
        <path
           d="M 47.81,12.439398 H 888.22"
           style="fill:none;stroke:#000000;stroke-width:0.8;stroke-linecap:square;stroke-linejoin:miter"
           id="path35" />
      </g>
      <g
         id="legend_1">
        <g
           id="patch_7">
          <path
             d="m 54.81,49.795648 h 177.97656 q 2,0 2,-2 v -28.35625 q 0,-2 -2,-2 H 54.81 q -2,0 -2,2 v 28.35625 q 0,2 2,2 z"
             style="opacity:0.8;fill:#ffffff;stroke:#cccccc;stroke-linejoin:miter"
             id="path36" />
        </g>
        <g
           id="line2d_14">
          <path
             d="m 56.81,25.537835 v 0 h 10 v 0 h 10"
             style="fill:none;stroke:#0000ff;stroke-width:1.5;stroke-linecap:square"
             id="path37" />
        </g>
        <g
           id="text_7">
          <!-- Estimated IPC (TidalSim) -->
          <g
             transform="matrix(0.1,0,0,-0.1,84.81,29.037835)"
             id="g60">
            <defs
               id="defs37">
              <path
                 id="DejaVuSans-45"
                 d="M 628,4666 H 3578 V 4134 H 1259 V 2753 H 3481 V 2222 H 1259 V 531 H 3634 V 0 H 628 Z"
                 transform="scale(0.015625)" />
              <path
                 id="DejaVuSans-73"
                 d="m 2834,3397 v -544 q -243,125 -506,187 -262,63 -544,63 -428,0 -642,-131 -214,-131 -214,-394 0,-200 153,-314 153,-114 616,-217 l 197,-44 q 612,-131 870,-370 258,-239 258,-667 0,-488 -386,-773 Q 2250,-91 1575,-91 1294,-91 989,-36 684,19 347,128 v 594 q 319,-166 628,-249 309,-82 613,-82 406,0 624,139 219,139 219,392 0,234 -158,359 -157,125 -692,241 l -200,47 q -534,112 -772,345 -237,233 -237,639 0,494 350,762 350,269 994,269 318,0 599,-47 282,-46 519,-140 z"
                 transform="scale(0.015625)" />
              <path
                 id="DejaVuSans-74"
                 d="M 1172,4494 V 3500 H 2356 V 3053 H 1172 V 1153 q 0,-428 117,-550 117,-122 477,-122 h 590 V 0 H 1766 Q 1100,0 847,248 594,497 594,1153 V 3053 H 172 v 447 h 422 v 994 z"
                 transform="scale(0.015625)" />
              <path
                 id="DejaVuSans-69"
                 d="m 603,3500 h 575 V 0 H 603 Z m 0,1363 h 575 V 4134 H 603 Z"
                 transform="scale(0.015625)" />
              <path
                 id="DejaVuSans-6d"
                 d="m 3328,2828 q 216,388 516,572 300,184 706,184 547,0 844,-383 297,-382 297,-1088 V 0 h -578 v 2094 q 0,503 -179,746 -178,244 -543,244 -447,0 -707,-297 -259,-296 -259,-809 V 0 h -578 v 2094 q 0,506 -178,748 -178,242 -550,242 -441,0 -701,-298 -259,-298 -259,-808 V 0 H 581 v 3500 h 578 v -544 q 197,322 472,475 275,153 653,153 382,0 649,-194 267,-193 395,-562 z"
                 transform="scale(0.015625)" />
              <path
                 id="DejaVuSans-61"
                 d="m 2194,1759 q -697,0 -966,-159 -269,-159 -269,-544 0,-306 202,-486 202,-179 548,-179 479,0 768,339 289,339 289,901 v 128 z m 1147,238 V 0 H 2766 V 531 Q 2569,213 2275,61 1981,-91 1556,-91 q -537,0 -855,302 -317,302 -317,808 0,590 395,890 396,300 1180,300 h 807 v 57 q 0,397 -261,614 -261,217 -733,217 -300,0 -585,-72 -284,-72 -546,-216 v 532 q 315,122 612,182 297,61 578,61 760,0 1135,-394 375,-393 375,-1193 z"
                 transform="scale(0.015625)" />
              <path
                 id="DejaVuSans-65"
                 d="M 3597,1894 V 1613 H 953 q 38,-594 358,-905 320,-311 892,-311 331,0 642,81 311,81 618,244 V 178 Q 3153,47 2828,-22 2503,-91 2169,-91 1331,-91 842,396 353,884 353,1716 q 0,859 464,1363 464,505 1252,505 706,0 1117,-455 411,-454 411,-1235 z m -575,169 q -6,471 -264,752 -258,282 -683,282 -481,0 -770,-272 -289,-272 -333,-766 z"
                 transform="scale(0.015625)" />
              <path
                 id="DejaVuSans-64"
                 d="m 2906,2969 v 1894 h 575 V 0 H 2906 V 525 Q 2725,213 2448,61 2172,-91 1784,-91 1150,-91 751,415 353,922 353,1747 q 0,825 398,1331 399,506 1033,506 388,0 664,-152 277,-151 458,-463 z M 947,1747 q 0,-634 261,-995 261,-361 717,-361 456,0 718,361 263,361 263,995 0,634 -263,995 -262,361 -718,361 -456,0 -717,-361 -261,-361 -261,-995 z"
                 transform="scale(0.015625)" />
              <path
                 id="DejaVuSans-20"
                 transform="scale(0.015625)"
                 d="" />
              <path
                 id="DejaVuSans-28"
                 d="m 1984,4856 q -418,-718 -622,-1422 -203,-703 -203,-1425 0,-721 205,-1429 205,-708 620,-1424 h -500 q -468,735 -701,1444 -233,709 -233,1409 0,697 231,1403 232,707 703,1444 z"
                 transform="scale(0.015625)" />
              <path
                 id="DejaVuSans-54"
                 d="M -19,4666 H 3928 V 4134 H 2272 V 0 H 1638 V 4134 H -19 Z"
                 transform="scale(0.015625)" />
              <path
                 id="DejaVuSans-6c"
                 d="m 603,4863 h 575 V 0 H 603 Z"
                 transform="scale(0.015625)" />
              <path
                 id="DejaVuSans-53"
                 d="m 3425,4513 v -616 q -359,172 -678,256 -319,85 -616,85 -515,0 -795,-200 -280,-200 -280,-569 0,-310 186,-468 186,-157 705,-254 l 381,-78 q 706,-135 1042,-474 336,-339 336,-907 0,-679 -455,-1029 -454,-350 -1332,-350 -331,0 -705,75 -373,75 -773,222 v 650 q 384,-215 753,-325 369,-109 725,-109 540,0 834,212 294,213 294,607 0,343 -211,537 -211,194 -692,291 l -385,75 q -706,140 -1022,440 -315,300 -315,835 0,619 436,975 436,356 1201,356 329,0 669,-60 341,-59 697,-177 z"
                 transform="scale(0.015625)" />
              <path
                 id="DejaVuSans-29"
                 d="m 513,4856 h 500 q 468,-737 701,-1444 233,-706 233,-1403 0,-700 -233,-1409 -233,-709 -701,-1444 H 513 q 415,716 620,1424 205,708 205,1429 0,722 -205,1425 -205,704 -620,1422 z"
                 transform="scale(0.015625)" />
            </defs>
            <use
               xlink:href="#DejaVuSans-45"
               id="use37" />
            <use
               xlink:href="#DejaVuSans-73"
               x="63.183594"
               id="use38" />
            <use
               xlink:href="#DejaVuSans-74"
               x="115.2832"
               id="use39" />
            <use
               xlink:href="#DejaVuSans-69"
               x="154.49219"
               id="use40" />
            <use
               xlink:href="#DejaVuSans-6d"
               x="182.27539"
               id="use41" />
            <use
               xlink:href="#DejaVuSans-61"
               x="279.6875"
               id="use42" />
            <use
               xlink:href="#DejaVuSans-74"
               x="340.9668"
               id="use43" />
            <use
               xlink:href="#DejaVuSans-65"
               x="380.17578"
               id="use44" />
            <use
               xlink:href="#DejaVuSans-64"
               x="441.69922"
               id="use45" />
            <use
               xlink:href="#DejaVuSans-20"
               x="505.17578"
               id="use46" />
            <use
               xlink:href="#DejaVuSans-49"
               x="536.96289"
               id="use47" />
            <use
               xlink:href="#DejaVuSans-50"
               x="566.45508"
               id="use48" />
            <use
               xlink:href="#DejaVuSans-43"
               x="626.75781"
               id="use49" />
            <use
               xlink:href="#DejaVuSans-20"
               x="696.58203"
               id="use50" />
            <use
               xlink:href="#DejaVuSans-28"
               x="728.36914"
               id="use51" />
            <use
               xlink:href="#DejaVuSans-54"
               x="767.38281"
               id="use52" />
            <use
               xlink:href="#DejaVuSans-69"
               x="825.3418"
               id="use53" />
            <use
               xlink:href="#DejaVuSans-64"
               x="853.125"
               id="use54" />
            <use
               xlink:href="#DejaVuSans-61"
               x="916.60156"
               id="use55" />
            <use
               xlink:href="#DejaVuSans-6c"
               x="977.88086"
               id="use56" />
            <use
               xlink:href="#DejaVuSans-53"
               x="1005.6641"
               id="use57" />
            <use
               xlink:href="#DejaVuSans-69"
               x="1069.1406"
               id="use58" />
            <use
               xlink:href="#DejaVuSans-6d"
               x="1096.9238"
               id="use59" />
            <use
               xlink:href="#DejaVuSans-29"
               x="1194.3359"
               id="use60" />
          </g>
        </g>
        <g
           id="line2d_15">
          <path
             d="m 56.81,40.21596 v 0 h 10 v 0 h 10"
             style="fill:none;stroke:#008000;stroke-width:1.5;stroke-linecap:square"
             id="path60" />
        </g>
        <g
           id="text_8">
          <!-- True IPC (Full RTL Simulation) -->
          <g
             transform="matrix(0.1,0,0,-0.1,84.81,43.71596)"
             id="g90">
            <defs
               id="defs60">
              <path
                 id="DejaVuSans-72"
                 d="m 2631,2963 q -97,56 -211,82 -114,27 -251,27 -488,0 -749,-317 -261,-317 -261,-911 V 0 H 581 v 3500 h 578 v -544 q 182,319 472,473 291,155 707,155 59,0 131,-8 72,-7 159,-23 z"
                 transform="scale(0.015625)" />
              <path
                 id="DejaVuSans-75"
                 d="m 544,1381 v 2119 h 575 V 1403 q 0,-497 193,-746 194,-248 582,-248 465,0 735,297 271,297 271,810 v 1984 h 575 V 0 H 2900 V 538 Q 2691,219 2414,64 2138,-91 1772,-91 1169,-91 856,284 544,659 544,1381 Z m 1447,2203 z"
                 transform="scale(0.015625)" />
              <path
                 id="DejaVuSans-46"
                 d="M 628,4666 H 3309 V 4134 H 1259 V 2759 H 3109 V 2228 H 1259 V 0 H 628 Z"
                 transform="scale(0.015625)" />
              <path
                 id="DejaVuSans-52"
                 d="m 2841,2188 q 203,-69 395,-294 192,-225 386,-619 L 4263,0 h -679 l -596,1197 q -232,469 -449,622 -217,153 -592,153 H 1259 V 0 H 628 v 4666 h 1425 q 800,0 1194,-335 394,-334 394,-1009 0,-441 -205,-732 -205,-290 -595,-402 z M 1259,4147 V 2491 h 794 q 456,0 689,211 233,211 233,620 0,409 -233,617 -233,208 -689,208 z"
                 transform="scale(0.015625)" />
              <path
                 id="DejaVuSans-4c"
                 d="m 628,4666 h 631 V 531 H 3531 V 0 H 628 Z"
                 transform="scale(0.015625)" />
              <path
                 id="DejaVuSans-6f"
                 d="m 1959,3097 q -462,0 -731,-361 -269,-361 -269,-989 0,-628 267,-989 268,-361 733,-361 460,0 728,362 269,363 269,988 0,622 -269,986 -268,364 -728,364 z m 0,487 q 750,0 1178,-488 429,-487 429,-1349 Q 3566,888 3137,398 2709,-91 1959,-91 1206,-91 779,398 353,888 353,1747 q 0,862 426,1349 427,488 1180,488 z"
                 transform="scale(0.015625)" />
              <path
                 id="DejaVuSans-6e"
                 d="M 3513,2113 V 0 h -575 v 2094 q 0,497 -194,743 -194,247 -581,247 -466,0 -735,-297 -269,-296 -269,-809 V 0 H 581 v 3500 h 578 v -544 q 207,316 486,472 280,156 646,156 603,0 912,-373 310,-373 310,-1098 z"
                 transform="scale(0.015625)" />
            </defs>
            <use
               xlink:href="#DejaVuSans-54"
               id="use61" />
            <use
               xlink:href="#DejaVuSans-72"
               x="46.333984"
               id="use62" />
            <use
               xlink:href="#DejaVuSans-75"
               x="87.447266"
               id="use63" />
            <use
               xlink:href="#DejaVuSans-65"
               x="150.82617"
               id="use64" />
            <use
               xlink:href="#DejaVuSans-20"
               x="212.34961"
               id="use65" />
            <use
               xlink:href="#DejaVuSans-49"
               x="244.13672"
               id="use66" />
            <use
               xlink:href="#DejaVuSans-50"
               x="273.62891"
               id="use67" />
            <use
               xlink:href="#DejaVuSans-43"
               x="333.93164"
               id="use68" />
            <use
               xlink:href="#DejaVuSans-20"
               x="403.75586"
               id="use69" />
            <use
               xlink:href="#DejaVuSans-28"
               x="435.54297"
               id="use70" />
            <use
               xlink:href="#DejaVuSans-46"
               x="474.55664"
               id="use71" />
            <use
               xlink:href="#DejaVuSans-75"
               x="526.57617"
               id="use72" />
            <use
               xlink:href="#DejaVuSans-6c"
               x="589.95508"
               id="use73" />
            <use
               xlink:href="#DejaVuSans-6c"
               x="617.73828"
               id="use74" />
            <use
               xlink:href="#DejaVuSans-20"
               x="645.52148"
               id="use75" />
            <use
               xlink:href="#DejaVuSans-52"
               x="677.30859"
               id="use76" />
            <use
               xlink:href="#DejaVuSans-54"
               x="739.54102"
               id="use77" />
            <use
               xlink:href="#DejaVuSans-4c"
               x="800.625"
               id="use78" />
            <use
               xlink:href="#DejaVuSans-20"
               x="856.33789"
               id="use79" />
            <use
               xlink:href="#DejaVuSans-53"
               x="888.125"
               id="use80" />
            <use
               xlink:href="#DejaVuSans-69"
               x="951.60156"
               id="use81" />
            <use
               xlink:href="#DejaVuSans-6d"
               x="979.38477"
               id="use82" />
            <use
               xlink:href="#DejaVuSans-75"
               x="1076.7969"
               id="use83" />
            <use
               xlink:href="#DejaVuSans-6c"
               x="1140.1758"
               id="use84" />
            <use
               xlink:href="#DejaVuSans-61"
               x="1167.959"
               id="use85" />
            <use
               xlink:href="#DejaVuSans-74"
               x="1229.2383"
               id="use86" />
            <use
               xlink:href="#DejaVuSans-69"
               x="1268.4473"
               id="use87" />
            <use
               xlink:href="#DejaVuSans-6f"
               x="1296.2305"
               id="use88" />
            <use
               xlink:href="#DejaVuSans-6e"
               x="1357.4121"
               id="use89" />
            <use
               xlink:href="#DejaVuSans-29"
               x="1420.791"
               id="use90" />
          </g>
        </g>
      </g>
    </g>
  </g>
  <defs
     id="defs262">
    <clipPath
       id="pe5ddfdce09">
      <rect
         x="47.810001"
         y="12.439398"
         width="840.40997"
         height="143.38083"
         id="rect261" />
    </clipPath>
    <clipPath
       id="p4ba89c91a0">
      <rect
         x="47.810001"
         y="174.65916"
         width="840.40997"
         height="143.38083"
         id="rect262" />
    </clipPath>
  </defs>
</svg>
