<?xml version="1.0" encoding="utf-8" standalone="no"?>
<!DOCTYPE svg PUBLIC "-//W3C//DTD SVG 1.1//EN"
  "http://www.w3.org/Graphics/SVG/1.1/DTD/svg11.dtd">
<svg xmlns:xlink="http://www.w3.org/1999/xlink" width="936pt" height="360pt" viewBox="0 0 936 360" xmlns="http://www.w3.org/2000/svg" version="1.1">
 <metadata>
  <rdf:RDF xmlns:dc="http://purl.org/dc/elements/1.1/" xmlns:cc="http://creativecommons.org/ns#" xmlns:rdf="http://www.w3.org/1999/02/22-rdf-syntax-ns#">
   <cc:Work>
    <dc:type rdf:resource="http://purl.org/dc/dcmitype/StillImage"/>
    <dc:date>2023-12-11T16:54:11.967132</dc:date>
    <dc:format>image/svg+xml</dc:format>
    <dc:creator>
     <cc:Agent>
      <dc:title>Matplotlib v3.8.2, https://matplotlib.org/</dc:title>
     </cc:Agent>
    </dc:creator>
   </cc:Work>
  </rdf:RDF>
 </metadata>
 <defs>
  <style type="text/css">*{stroke-linejoin: round; stroke-linecap: butt}</style>
 </defs>
 <g id="figure_1">
  <g id="patch_1">
   <path d="M 0 360 
L 936 360 
L 936 0 
L 0 0 
z
" style="fill: #ffffff"/>
  </g>
  <g id="axes_1">
   <g id="patch_2">
    <path d="M 47.81 155.29 
L 888.22 155.29 
L 888.22 10.8 
L 47.81 10.8 
z
" style="fill: #ffffff"/>
   </g>
   <g id="matplotlib.axis_1">
    <g id="xtick_1">
     <g id="line2d_1">
      <defs>
       <path id="m09455650fb" d="M 0 0 
L 0 3.5 
" style="stroke: #000000; stroke-width: 0.8"/>
      </defs>
      <g>
       <use xlink:href="#m09455650fb" x="103.837333" y="155.29" style="stroke: #000000; stroke-width: 0.8"/>
      </g>
     </g>
    </g>
    <g id="xtick_2">
     <g id="line2d_2">
      <g>
       <use xlink:href="#m09455650fb" x="215.892" y="155.29" style="stroke: #000000; stroke-width: 0.8"/>
      </g>
     </g>
    </g>
    <g id="xtick_3">
     <g id="line2d_3">
      <g>
       <use xlink:href="#m09455650fb" x="327.946667" y="155.29" style="stroke: #000000; stroke-width: 0.8"/>
      </g>
     </g>
    </g>
    <g id="xtick_4">
     <g id="line2d_4">
      <g>
       <use xlink:href="#m09455650fb" x="440.001333" y="155.29" style="stroke: #000000; stroke-width: 0.8"/>
      </g>
     </g>
    </g>
    <g id="xtick_5">
     <g id="line2d_5">
      <g>
       <use xlink:href="#m09455650fb" x="552.056" y="155.29" style="stroke: #000000; stroke-width: 0.8"/>
      </g>
     </g>
    </g>
    <g id="xtick_6">
     <g id="line2d_6">
      <g>
       <use xlink:href="#m09455650fb" x="664.110667" y="155.29" style="stroke: #000000; stroke-width: 0.8"/>
      </g>
     </g>
    </g>
    <g id="xtick_7">
     <g id="line2d_7">
      <g>
       <use xlink:href="#m09455650fb" x="776.165333" y="155.29" style="stroke: #000000; stroke-width: 0.8"/>
      </g>
     </g>
    </g>
    <g id="xtick_8">
     <g id="line2d_8">
      <g>
       <use xlink:href="#m09455650fb" x="888.22" y="155.29" style="stroke: #000000; stroke-width: 0.8"/>
      </g>
     </g>
    </g>
   </g>
   <g id="matplotlib.axis_2">
    <g id="ytick_1">
     <g id="line2d_9">
      <defs>
       <path id="m22efbaf959" d="M 0 0 
L -3.5 0 
" style="stroke: #000000; stroke-width: 0.8"/>
      </defs>
      <g>
       <use xlink:href="#m22efbaf959" x="47.81" y="144.145821" style="stroke: #000000; stroke-width: 0.8"/>
      </g>
     </g>
     <g id="text_1">
      <!-- 0.5 -->
      <g transform="translate(24.906875 147.94504) scale(0.1 -0.1)">
       <defs>
        <path id="DejaVuSans-30" d="M 2034 4250 
Q 1547 4250 1301 3770 
Q 1056 3291 1056 2328 
Q 1056 1369 1301 889 
Q 1547 409 2034 409 
Q 2525 409 2770 889 
Q 3016 1369 3016 2328 
Q 3016 3291 2770 3770 
Q 2525 4250 2034 4250 
z
M 2034 4750 
Q 2819 4750 3233 4129 
Q 3647 3509 3647 2328 
Q 3647 1150 3233 529 
Q 2819 -91 2034 -91 
Q 1250 -91 836 529 
Q 422 1150 422 2328 
Q 422 3509 836 4129 
Q 1250 4750 2034 4750 
z
" transform="scale(0.015625)"/>
        <path id="DejaVuSans-2e" d="M 684 794 
L 1344 794 
L 1344 0 
L 684 0 
L 684 794 
z
" transform="scale(0.015625)"/>
        <path id="DejaVuSans-35" d="M 691 4666 
L 3169 4666 
L 3169 4134 
L 1269 4134 
L 1269 2991 
Q 1406 3038 1543 3061 
Q 1681 3084 1819 3084 
Q 2600 3084 3056 2656 
Q 3513 2228 3513 1497 
Q 3513 744 3044 326 
Q 2575 -91 1722 -91 
Q 1428 -91 1123 -41 
Q 819 9 494 109 
L 494 744 
Q 775 591 1075 516 
Q 1375 441 1709 441 
Q 2250 441 2565 725 
Q 2881 1009 2881 1497 
Q 2881 1984 2565 2268 
Q 2250 2553 1709 2553 
Q 1456 2553 1204 2497 
Q 953 2441 691 2322 
L 691 4666 
z
" transform="scale(0.015625)"/>
       </defs>
       <use xlink:href="#DejaVuSans-30"/>
       <use xlink:href="#DejaVuSans-2e" x="63.623047"/>
       <use xlink:href="#DejaVuSans-35" x="95.410156"/>
      </g>
     </g>
    </g>
    <g id="ytick_2">
     <g id="line2d_10">
      <g>
       <use xlink:href="#m22efbaf959" x="47.81" y="118.790202" style="stroke: #000000; stroke-width: 0.8"/>
      </g>
     </g>
     <g id="text_2">
      <!-- 0.6 -->
      <g transform="translate(24.906875 122.589421) scale(0.1 -0.1)">
       <defs>
        <path id="DejaVuSans-36" d="M 2113 2584 
Q 1688 2584 1439 2293 
Q 1191 2003 1191 1497 
Q 1191 994 1439 701 
Q 1688 409 2113 409 
Q 2538 409 2786 701 
Q 3034 994 3034 1497 
Q 3034 2003 2786 2293 
Q 2538 2584 2113 2584 
z
M 3366 4563 
L 3366 3988 
Q 3128 4100 2886 4159 
Q 2644 4219 2406 4219 
Q 1781 4219 1451 3797 
Q 1122 3375 1075 2522 
Q 1259 2794 1537 2939 
Q 1816 3084 2150 3084 
Q 2853 3084 3261 2657 
Q 3669 2231 3669 1497 
Q 3669 778 3244 343 
Q 2819 -91 2113 -91 
Q 1303 -91 875 529 
Q 447 1150 447 2328 
Q 447 3434 972 4092 
Q 1497 4750 2381 4750 
Q 2619 4750 2861 4703 
Q 3103 4656 3366 4563 
z
" transform="scale(0.015625)"/>
       </defs>
       <use xlink:href="#DejaVuSans-30"/>
       <use xlink:href="#DejaVuSans-2e" x="63.623047"/>
       <use xlink:href="#DejaVuSans-36" x="95.410156"/>
      </g>
     </g>
    </g>
    <g id="ytick_3">
     <g id="line2d_11">
      <g>
       <use xlink:href="#m22efbaf959" x="47.81" y="93.434584" style="stroke: #000000; stroke-width: 0.8"/>
      </g>
     </g>
     <g id="text_3">
      <!-- 0.7 -->
      <g transform="translate(24.906875 97.233802) scale(0.1 -0.1)">
       <defs>
        <path id="DejaVuSans-37" d="M 525 4666 
L 3525 4666 
L 3525 4397 
L 1831 0 
L 1172 0 
L 2766 4134 
L 525 4134 
L 525 4666 
z
" transform="scale(0.015625)"/>
       </defs>
       <use xlink:href="#DejaVuSans-30"/>
       <use xlink:href="#DejaVuSans-2e" x="63.623047"/>
       <use xlink:href="#DejaVuSans-37" x="95.410156"/>
      </g>
     </g>
    </g>
    <g id="ytick_4">
     <g id="line2d_12">
      <g>
       <use xlink:href="#m22efbaf959" x="47.81" y="68.078965" style="stroke: #000000; stroke-width: 0.8"/>
      </g>
     </g>
     <g id="text_4">
      <!-- 0.8 -->
      <g transform="translate(24.906875 71.878184) scale(0.1 -0.1)">
       <defs>
        <path id="DejaVuSans-38" d="M 2034 2216 
Q 1584 2216 1326 1975 
Q 1069 1734 1069 1313 
Q 1069 891 1326 650 
Q 1584 409 2034 409 
Q 2484 409 2743 651 
Q 3003 894 3003 1313 
Q 3003 1734 2745 1975 
Q 2488 2216 2034 2216 
z
M 1403 2484 
Q 997 2584 770 2862 
Q 544 3141 544 3541 
Q 544 4100 942 4425 
Q 1341 4750 2034 4750 
Q 2731 4750 3128 4425 
Q 3525 4100 3525 3541 
Q 3525 3141 3298 2862 
Q 3072 2584 2669 2484 
Q 3125 2378 3379 2068 
Q 3634 1759 3634 1313 
Q 3634 634 3220 271 
Q 2806 -91 2034 -91 
Q 1263 -91 848 271 
Q 434 634 434 1313 
Q 434 1759 690 2068 
Q 947 2378 1403 2484 
z
M 1172 3481 
Q 1172 3119 1398 2916 
Q 1625 2713 2034 2713 
Q 2441 2713 2670 2916 
Q 2900 3119 2900 3481 
Q 2900 3844 2670 4047 
Q 2441 4250 2034 4250 
Q 1625 4250 1398 4047 
Q 1172 3844 1172 3481 
z
" transform="scale(0.015625)"/>
       </defs>
       <use xlink:href="#DejaVuSans-30"/>
       <use xlink:href="#DejaVuSans-2e" x="63.623047"/>
       <use xlink:href="#DejaVuSans-38" x="95.410156"/>
      </g>
     </g>
    </g>
    <g id="ytick_5">
     <g id="line2d_13">
      <g>
       <use xlink:href="#m22efbaf959" x="47.81" y="42.723346" style="stroke: #000000; stroke-width: 0.8"/>
      </g>
     </g>
     <g id="text_5">
      <!-- 0.9 -->
      <g transform="translate(24.906875 46.522565) scale(0.1 -0.1)">
       <defs>
        <path id="DejaVuSans-39" d="M 703 97 
L 703 672 
Q 941 559 1184 500 
Q 1428 441 1663 441 
Q 2288 441 2617 861 
Q 2947 1281 2994 2138 
Q 2813 1869 2534 1725 
Q 2256 1581 1919 1581 
Q 1219 1581 811 2004 
Q 403 2428 403 3163 
Q 403 3881 828 4315 
Q 1253 4750 1959 4750 
Q 2769 4750 3195 4129 
Q 3622 3509 3622 2328 
Q 3622 1225 3098 567 
Q 2575 -91 1691 -91 
Q 1453 -91 1209 -44 
Q 966 3 703 97 
z
M 1959 2075 
Q 2384 2075 2632 2365 
Q 2881 2656 2881 3163 
Q 2881 3666 2632 3958 
Q 2384 4250 1959 4250 
Q 1534 4250 1286 3958 
Q 1038 3666 1038 3163 
Q 1038 2656 1286 2365 
Q 1534 2075 1959 2075 
z
" transform="scale(0.015625)"/>
       </defs>
       <use xlink:href="#DejaVuSans-30"/>
       <use xlink:href="#DejaVuSans-2e" x="63.623047"/>
       <use xlink:href="#DejaVuSans-39" x="95.410156"/>
      </g>
     </g>
    </g>
    <g id="ytick_6">
     <g id="line2d_14">
      <g>
       <use xlink:href="#m22efbaf959" x="47.81" y="17.367727" style="stroke: #000000; stroke-width: 0.8"/>
      </g>
     </g>
     <g id="text_6">
      <!-- 1.0 -->
      <g transform="translate(24.906875 21.166946) scale(0.1 -0.1)">
       <defs>
        <path id="DejaVuSans-31" d="M 794 531 
L 1825 531 
L 1825 4091 
L 703 3866 
L 703 4441 
L 1819 4666 
L 2450 4666 
L 2450 531 
L 3481 531 
L 3481 0 
L 794 0 
L 794 531 
z
" transform="scale(0.015625)"/>
       </defs>
       <use xlink:href="#DejaVuSans-31"/>
       <use xlink:href="#DejaVuSans-2e" x="63.623047"/>
       <use xlink:href="#DejaVuSans-30" x="95.410156"/>
      </g>
     </g>
    </g>
    <g id="text_7">
     <!-- IPC -->
     <g transform="translate(18.827188 91.02625) rotate(-90) scale(0.1 -0.1)">
      <defs>
       <path id="DejaVuSans-49" d="M 628 4666 
L 1259 4666 
L 1259 0 
L 628 0 
L 628 4666 
z
" transform="scale(0.015625)"/>
       <path id="DejaVuSans-50" d="M 1259 4147 
L 1259 2394 
L 2053 2394 
Q 2494 2394 2734 2622 
Q 2975 2850 2975 3272 
Q 2975 3691 2734 3919 
Q 2494 4147 2053 4147 
L 1259 4147 
z
M 628 4666 
L 2053 4666 
Q 2838 4666 3239 4311 
Q 3641 3956 3641 3272 
Q 3641 2581 3239 2228 
Q 2838 1875 2053 1875 
L 1259 1875 
L 1259 0 
L 628 0 
L 628 4666 
z
" transform="scale(0.015625)"/>
       <path id="DejaVuSans-43" d="M 4122 4306 
L 4122 3641 
Q 3803 3938 3442 4084 
Q 3081 4231 2675 4231 
Q 1875 4231 1450 3742 
Q 1025 3253 1025 2328 
Q 1025 1406 1450 917 
Q 1875 428 2675 428 
Q 3081 428 3442 575 
Q 3803 722 4122 1019 
L 4122 359 
Q 3791 134 3420 21 
Q 3050 -91 2638 -91 
Q 1578 -91 968 557 
Q 359 1206 359 2328 
Q 359 3453 968 4101 
Q 1578 4750 2638 4750 
Q 3056 4750 3426 4639 
Q 3797 4528 4122 4306 
z
" transform="scale(0.015625)"/>
      </defs>
      <use xlink:href="#DejaVuSans-49"/>
      <use xlink:href="#DejaVuSans-50" x="29.492188"/>
      <use xlink:href="#DejaVuSans-43" x="89.794922"/>
     </g>
    </g>
   </g>
   <g id="line2d_15">
    <path d="M -1 27.199054 
L 25.399067 27.199054 
L 25.399067 82.725044 
L 31.0018 82.725044 
L 31.0018 73.075917 
L 75.823667 73.075917 
L 75.823667 54.267342 
L 98.2346 54.267342 
L 98.2346 69.342958 
L 103.837333 69.342958 
L 103.837333 77.29176 
L 109.440067 77.29176 
L 109.440067 113.667636 
L 115.0428 113.667636 
L 115.0428 72.074407 
L 137.453733 72.074407 
L 137.453733 54.267342 
L 143.056467 54.267342 
L 143.056467 84.401195 
L 148.6592 84.401195 
L 148.6592 27.199054 
L 182.2756 27.199054 
L 182.2756 73.075917 
L 227.097467 73.075917 
L 227.097467 79.882882 
L 232.7002 79.882882 
L 232.7002 54.267342 
L 255.111133 54.267342 
L 255.111133 91.84132 
L 260.713867 91.84132 
L 260.713867 97.923433 
L 266.3166 97.923433 
L 266.3166 72.074407 
L 288.727533 72.074407 
L 288.727533 65.351429 
L 294.330267 65.351429 
L 294.330267 93.901734 
L 299.933 93.901734 
L 299.933 27.199054 
L 333.5494 27.199054 
L 333.5494 73.075917 
L 383.974 73.075917 
L 383.974 54.267342 
L 406.384933 54.267342 
L 406.384933 97.149738 
L 411.987667 97.149738 
L 411.987667 79.813294 
L 417.5904 79.813294 
L 417.5904 72.074407 
L 445.604067 72.074407 
L 445.604067 54.267342 
L 451.2068 54.267342 
L 451.2068 44.958778 
L 456.809533 44.958778 
L 456.809533 27.199054 
L 484.8232 27.199054 
L 484.8232 82.725044 
L 490.425933 82.725044 
L 490.425933 73.075917 
L 535.2478 73.075917 
L 535.2478 54.267342 
L 557.658733 54.267342 
L 557.658733 69.342958 
L 563.261467 69.342958 
L 563.261467 91.84132 
L 568.8642 91.84132 
L 568.8642 113.667636 
L 574.466933 113.667636 
L 574.466933 72.074407 
L 596.877867 72.074407 
L 596.877867 65.351429 
L 602.4806 65.351429 
L 602.4806 93.901734 
L 608.083333 93.901734 
L 608.083333 27.199054 
L 641.699733 27.199054 
L 641.699733 73.075917 
L 686.5216 73.075917 
L 686.5216 79.882882 
L 692.124333 79.882882 
L 692.124333 54.267342 
L 714.535267 54.267342 
L 714.535267 97.149738 
L 720.138 97.149738 
L 720.138 97.923433 
L 725.740733 97.923433 
L 725.740733 72.074407 
L 753.7544 72.074407 
L 753.7544 54.267342 
L 759.357133 54.267342 
L 759.357133 44.958778 
L 764.959867 44.958778 
L 764.959867 27.199054 
L 792.973533 27.199054 
L 792.973533 82.725044 
L 798.576267 82.725044 
L 798.576267 73.075917 
L 843.398133 73.075917 
L 843.398133 54.267342 
L 865.809067 54.267342 
L 865.809067 69.342958 
L 871.4118 69.342958 
L 871.4118 77.29176 
L 877.014533 77.29176 
L 877.014533 113.667636 
L 882.617267 113.667636 
L 882.617267 72.074407 
L 905.0282 72.074407 
L 905.0282 54.267342 
L 910.630933 54.267342 
L 910.630933 84.401195 
L 916.233667 84.401195 
L 916.233667 27.199054 
L 937 27.199054 
L 937 27.199054 
" clip-path="url(#p2e64dfd111)" style="fill: none; stroke: #0000ff; stroke-width: 1.5; stroke-linecap: square"/>
   </g>
   <g id="line2d_16">
    <path d="M -1 21.777617 
L 25.399067 21.777617 
L 25.399067 53.017257 
L 31.0018 53.017257 
L 31.0018 73.157604 
L 36.604533 73.157604 
L 36.604533 71.993907 
L 42.207267 71.993907 
L 42.207267 70.926922 
L 47.81 70.926922 
L 47.81 71.806444 
L 53.412733 71.806444 
L 53.412733 72.600733 
L 59.015467 72.600733 
L 59.015467 72.429953 
L 64.6182 72.429953 
L 64.6182 72.009513 
L 75.823667 71.962688 
L 75.823667 32.417483 
L 81.4264 32.417483 
L 81.4264 21.237861 
L 87.029133 21.237861 
L 87.029133 24.465723 
L 92.631867 24.465723 
L 92.631867 23.552025 
L 98.2346 23.552025 
L 98.2346 40.815749 
L 103.837333 40.815749 
L 103.837333 54.855583 
L 109.440067 54.855583 
L 109.440067 62.390164 
L 115.0428 62.390164 
L 115.0428 69.192522 
L 120.645533 69.192522 
L 120.645533 69.416971 
L 126.248267 69.416971 
L 126.248267 70.182732 
L 131.851 70.182732 
L 131.851 69.656898 
L 137.453733 69.656898 
L 137.453733 40.208549 
L 143.056467 40.208549 
L 143.056467 38.708339 
L 148.6592 38.708339 
L 148.6592 22.144296 
L 154.261933 22.144296 
L 154.261933 21.777617 
L 176.672867 21.851039 
L 176.672867 31.109115 
L 182.2756 31.109115 
L 182.2756 74.032948 
L 187.878333 74.032948 
L 187.878333 71.978299 
L 193.481067 71.978299 
L 193.481067 70.832226 
L 199.0838 70.832226 
L 199.0838 72.492089 
L 204.686533 72.492089 
L 204.686533 71.790806 
L 210.289267 71.790806 
L 210.289267 72.009513 
L 215.892 72.009513 
L 215.892 73.557847 
L 221.494733 73.557847 
L 221.494733 70.974236 
L 227.097467 70.974236 
L 227.097467 51.887816 
L 232.7002 51.887816 
L 232.7002 17.798041 
L 238.302933 17.798041 
L 238.302933 21.139472 
L 243.905667 21.139472 
L 243.905667 17.62103 
L 249.5084 17.62103 
L 249.5084 20.027232 
L 255.111133 20.027232 
L 255.111133 56.354915 
L 260.713867 56.354915 
L 260.713867 56.100406 
L 266.3166 56.100406 
L 266.3166 68.951486 
L 271.919333 68.951486 
L 271.919333 69.465002 
L 277.522067 69.465002 
L 277.522067 70.119141 
L 283.1248 70.119141 
L 283.1248 69.096177 
L 288.727533 69.096177 
L 288.727533 59.433225 
L 294.330267 59.433225 
L 294.330267 32.080483 
L 299.933 32.080483 
L 299.933 25.18231 
L 305.535733 25.18231 
L 305.535733 21.851039 
L 311.138467 21.851039 
L 311.138467 21.704151 
L 333.5494 21.704151 
L 333.5494 62.046588 
L 339.152133 62.046588 
L 339.152133 72.647259 
L 344.754867 72.647259 
L 344.754867 71.100298 
L 350.3576 71.100298 
L 350.3576 72.724753 
L 355.960333 72.724753 
L 355.960333 71.336236 
L 361.563067 71.336236 
L 361.563067 70.531765 
L 367.1658 70.531765 
L 367.1658 72.44549 
L 372.768533 72.44549 
L 372.768533 73.311735 
L 378.371267 73.311735 
L 378.371267 72.258877 
L 383.974 72.258877 
L 383.974 17.545092 
L 389.576733 17.545092 
L 389.576733 19.60447 
L 395.179467 19.60447 
L 395.179467 18.403063 
L 400.7822 18.403063 
L 400.7822 18.829873 
L 406.384933 18.829873 
L 406.384933 43.946753 
L 411.987667 43.946753 
L 411.987667 57.726078 
L 417.5904 57.726078 
L 417.5904 63.482053 
L 423.193133 63.482053 
L 423.193133 68.305897 
L 428.795867 68.305897 
L 428.795867 69.832482 
L 440.001333 69.912192 
L 440.001333 70.166838 
L 445.604067 70.166838 
L 445.604067 27.657881 
L 451.2068 27.657881 
L 451.2068 37.790237 
L 456.809533 37.790237 
L 456.809533 21.777617 
L 484.8232 21.777617 
L 484.8232 42.762134 
L 490.425933 42.762134 
L 490.425933 73.373321 
L 496.028667 73.373321 
L 496.028667 73.219285 
L 501.6314 73.219285 
L 501.6314 70.135043 
L 507.234133 70.135043 
L 507.234133 71.649954 
L 512.836867 71.649954 
L 512.836867 72.616244 
L 518.4396 72.616244 
L 518.4396 72.321121 
L 524.042333 72.321121 
L 524.042333 72.071913 
L 535.2478 72.009513 
L 535.2478 42.556638 
L 540.850533 42.556638 
L 540.850533 17.367727 
L 546.453267 17.367727 
L 546.453267 18.403063 
L 552.056 18.403063 
L 552.056 18.654302 
L 557.658733 18.654302 
L 557.658733 28.980988 
L 563.261467 28.980988 
L 563.261467 55.168139 
L 568.8642 55.168139 
L 568.8642 59.185971 
L 574.466933 59.185971 
L 574.466933 68.838805 
L 580.069667 68.838805 
L 580.069667 69.384937 
L 585.6724 69.384937 
L 585.6724 69.784626 
L 591.275133 69.784626 
L 591.275133 69.49701 
L 596.877867 69.49701 
L 596.877867 50.094628 
L 602.4806 50.094628 
L 602.4806 33.511754 
L 608.083333 33.511754 
L 608.083333 24.10586 
L 613.686067 24.10586 
L 613.686067 21.777617 
L 636.097 21.851039 
L 636.097 21.899963 
L 641.699733 21.899963 
L 641.699733 71.021528 
L 647.302467 71.021528 
L 647.302467 72.492089 
L 652.9052 72.492089 
L 652.9052 70.452546 
L 658.507933 70.452546 
L 658.507933 72.071913 
L 664.110667 72.071913 
L 664.110667 71.72823 
L 669.7134 71.72823 
L 669.7134 71.100298 
L 675.316133 71.100298 
L 675.316133 73.049568 
L 680.918867 73.049568 
L 680.918867 72.071913 
L 686.5216 72.071913 
L 686.5216 63.702447 
L 692.124333 63.702447 
L 692.124333 17.798041 
L 697.727067 17.798041 
L 697.727067 17.62103 
L 708.932533 17.62103 
L 708.932533 18.403063 
L 714.535267 18.403063 
L 714.535267 49.419427 
L 720.138 49.419427 
L 720.138 54.579045 
L 725.740733 54.579045 
L 725.740733 68.451514 
L 731.343467 68.451514 
L 731.343467 68.967573 
L 736.9462 68.967573 
L 736.9462 69.991838 
L 742.548933 69.991838 
L 742.548933 69.352894 
L 748.151667 69.352894 
L 748.151667 68.224908 
L 753.7544 68.224908 
L 753.7544 29.073297 
L 759.357133 29.073297 
L 759.357133 27.04954 
L 764.959867 27.04954 
L 764.959867 21.851039 
L 770.5626 21.851039 
L 770.5626 21.704151 
L 776.165333 21.704151 
L 776.165333 21.851039 
L 781.768067 21.851039 
L 781.768067 21.704151 
L 792.973533 21.777617 
L 792.973533 52.848584 
L 798.576267 52.848584 
L 798.576267 73.173028 
L 804.179 73.173028 
L 804.179 71.367652 
L 809.781733 71.367652 
L 809.781733 71.068797 
L 815.384467 71.068797 
L 815.384467 71.602959 
L 820.9872 71.602959 
L 820.9872 72.647259 
L 826.589933 72.647259 
L 826.589933 72.429953 
L 832.192667 72.429953 
L 832.192667 72.087507 
L 837.7954 72.087507 
L 837.7954 71.822079 
L 843.398133 71.822079 
L 843.398133 29.280736 
L 849.000867 29.280736 
L 849.000867 17.367727 
L 854.6036 17.367727 
L 854.6036 18.654302 
L 860.206333 18.654302 
L 860.206333 18.050486 
L 865.809067 18.050486 
L 865.809067 38.814626 
L 871.4118 38.814626 
L 871.4118 52.961061 
L 877.014533 52.961061 
L 877.014533 61.252049 
L 882.617267 61.252049 
L 882.617267 68.613065 
L 888.22 68.613065 
L 888.22 69.416971 
L 893.822733 69.416971 
L 893.822733 70.182732 
L 899.425467 70.182732 
L 899.425467 69.608959 
L 905.0282 69.608959 
L 905.0282 39.25997 
L 910.630933 39.25997 
L 910.630933 36.084434 
L 916.233667 36.084434 
L 916.233667 22.144296 
L 921.8364 22.144296 
L 921.8364 21.777617 
L 937 21.704151 
L 937 21.704151 
" clip-path="url(#p2e64dfd111)" style="fill: none; stroke: #008000; stroke-width: 1.5; stroke-linecap: square"/>
   </g>
   <g id="patch_3">
    <path d="M 47.81 155.29 
L 47.81 10.8 
" style="fill: none; stroke: #000000; stroke-width: 0.8; stroke-linejoin: miter; stroke-linecap: square"/>
   </g>
   <g id="patch_4">
    <path d="M 888.22 155.29 
L 888.22 10.8 
" style="fill: none; stroke: #000000; stroke-width: 0.8; stroke-linejoin: miter; stroke-linecap: square"/>
   </g>
   <g id="patch_5">
    <path d="M 47.81 155.29 
L 888.22 155.29 
" style="fill: none; stroke: #000000; stroke-width: 0.8; stroke-linejoin: miter; stroke-linecap: square"/>
   </g>
   <g id="patch_6">
    <path d="M 47.81 10.8 
L 888.22 10.8 
" style="fill: none; stroke: #000000; stroke-width: 0.8; stroke-linejoin: miter; stroke-linecap: square"/>
   </g>
   <g id="legend_1">
    <g id="patch_7">
     <path d="M 54.81 150.29 
L 232.786563 150.29 
Q 234.786563 150.29 234.786563 148.29 
L 234.786563 119.93375 
Q 234.786563 117.93375 232.786563 117.93375 
L 54.81 117.93375 
Q 52.81 117.93375 52.81 119.93375 
L 52.81 148.29 
Q 52.81 150.29 54.81 150.29 
z
" style="fill: #ffffff; opacity: 0.8; stroke: #cccccc; stroke-linejoin: miter"/>
    </g>
    <g id="line2d_17">
     <path d="M 56.81 126.032187 
L 56.81 126.032187 
L 66.81 126.032187 
L 66.81 126.032187 
L 76.81 126.032187 
" style="fill: none; stroke: #0000ff; stroke-width: 1.5; stroke-linecap: square"/>
    </g>
    <g id="text_8">
     <!-- Estimated IPC (TidalSim) -->
     <g transform="translate(84.81 129.532187) scale(0.1 -0.1)">
      <defs>
       <path id="DejaVuSans-45" d="M 628 4666 
L 3578 4666 
L 3578 4134 
L 1259 4134 
L 1259 2753 
L 3481 2753 
L 3481 2222 
L 1259 2222 
L 1259 531 
L 3634 531 
L 3634 0 
L 628 0 
L 628 4666 
z
" transform="scale(0.015625)"/>
       <path id="DejaVuSans-73" d="M 2834 3397 
L 2834 2853 
Q 2591 2978 2328 3040 
Q 2066 3103 1784 3103 
Q 1356 3103 1142 2972 
Q 928 2841 928 2578 
Q 928 2378 1081 2264 
Q 1234 2150 1697 2047 
L 1894 2003 
Q 2506 1872 2764 1633 
Q 3022 1394 3022 966 
Q 3022 478 2636 193 
Q 2250 -91 1575 -91 
Q 1294 -91 989 -36 
Q 684 19 347 128 
L 347 722 
Q 666 556 975 473 
Q 1284 391 1588 391 
Q 1994 391 2212 530 
Q 2431 669 2431 922 
Q 2431 1156 2273 1281 
Q 2116 1406 1581 1522 
L 1381 1569 
Q 847 1681 609 1914 
Q 372 2147 372 2553 
Q 372 3047 722 3315 
Q 1072 3584 1716 3584 
Q 2034 3584 2315 3537 
Q 2597 3491 2834 3397 
z
" transform="scale(0.015625)"/>
       <path id="DejaVuSans-74" d="M 1172 4494 
L 1172 3500 
L 2356 3500 
L 2356 3053 
L 1172 3053 
L 1172 1153 
Q 1172 725 1289 603 
Q 1406 481 1766 481 
L 2356 481 
L 2356 0 
L 1766 0 
Q 1100 0 847 248 
Q 594 497 594 1153 
L 594 3053 
L 172 3053 
L 172 3500 
L 594 3500 
L 594 4494 
L 1172 4494 
z
" transform="scale(0.015625)"/>
       <path id="DejaVuSans-69" d="M 603 3500 
L 1178 3500 
L 1178 0 
L 603 0 
L 603 3500 
z
M 603 4863 
L 1178 4863 
L 1178 4134 
L 603 4134 
L 603 4863 
z
" transform="scale(0.015625)"/>
       <path id="DejaVuSans-6d" d="M 3328 2828 
Q 3544 3216 3844 3400 
Q 4144 3584 4550 3584 
Q 5097 3584 5394 3201 
Q 5691 2819 5691 2113 
L 5691 0 
L 5113 0 
L 5113 2094 
Q 5113 2597 4934 2840 
Q 4756 3084 4391 3084 
Q 3944 3084 3684 2787 
Q 3425 2491 3425 1978 
L 3425 0 
L 2847 0 
L 2847 2094 
Q 2847 2600 2669 2842 
Q 2491 3084 2119 3084 
Q 1678 3084 1418 2786 
Q 1159 2488 1159 1978 
L 1159 0 
L 581 0 
L 581 3500 
L 1159 3500 
L 1159 2956 
Q 1356 3278 1631 3431 
Q 1906 3584 2284 3584 
Q 2666 3584 2933 3390 
Q 3200 3197 3328 2828 
z
" transform="scale(0.015625)"/>
       <path id="DejaVuSans-61" d="M 2194 1759 
Q 1497 1759 1228 1600 
Q 959 1441 959 1056 
Q 959 750 1161 570 
Q 1363 391 1709 391 
Q 2188 391 2477 730 
Q 2766 1069 2766 1631 
L 2766 1759 
L 2194 1759 
z
M 3341 1997 
L 3341 0 
L 2766 0 
L 2766 531 
Q 2569 213 2275 61 
Q 1981 -91 1556 -91 
Q 1019 -91 701 211 
Q 384 513 384 1019 
Q 384 1609 779 1909 
Q 1175 2209 1959 2209 
L 2766 2209 
L 2766 2266 
Q 2766 2663 2505 2880 
Q 2244 3097 1772 3097 
Q 1472 3097 1187 3025 
Q 903 2953 641 2809 
L 641 3341 
Q 956 3463 1253 3523 
Q 1550 3584 1831 3584 
Q 2591 3584 2966 3190 
Q 3341 2797 3341 1997 
z
" transform="scale(0.015625)"/>
       <path id="DejaVuSans-65" d="M 3597 1894 
L 3597 1613 
L 953 1613 
Q 991 1019 1311 708 
Q 1631 397 2203 397 
Q 2534 397 2845 478 
Q 3156 559 3463 722 
L 3463 178 
Q 3153 47 2828 -22 
Q 2503 -91 2169 -91 
Q 1331 -91 842 396 
Q 353 884 353 1716 
Q 353 2575 817 3079 
Q 1281 3584 2069 3584 
Q 2775 3584 3186 3129 
Q 3597 2675 3597 1894 
z
M 3022 2063 
Q 3016 2534 2758 2815 
Q 2500 3097 2075 3097 
Q 1594 3097 1305 2825 
Q 1016 2553 972 2059 
L 3022 2063 
z
" transform="scale(0.015625)"/>
       <path id="DejaVuSans-64" d="M 2906 2969 
L 2906 4863 
L 3481 4863 
L 3481 0 
L 2906 0 
L 2906 525 
Q 2725 213 2448 61 
Q 2172 -91 1784 -91 
Q 1150 -91 751 415 
Q 353 922 353 1747 
Q 353 2572 751 3078 
Q 1150 3584 1784 3584 
Q 2172 3584 2448 3432 
Q 2725 3281 2906 2969 
z
M 947 1747 
Q 947 1113 1208 752 
Q 1469 391 1925 391 
Q 2381 391 2643 752 
Q 2906 1113 2906 1747 
Q 2906 2381 2643 2742 
Q 2381 3103 1925 3103 
Q 1469 3103 1208 2742 
Q 947 2381 947 1747 
z
" transform="scale(0.015625)"/>
       <path id="DejaVuSans-20" transform="scale(0.015625)"/>
       <path id="DejaVuSans-28" d="M 1984 4856 
Q 1566 4138 1362 3434 
Q 1159 2731 1159 2009 
Q 1159 1288 1364 580 
Q 1569 -128 1984 -844 
L 1484 -844 
Q 1016 -109 783 600 
Q 550 1309 550 2009 
Q 550 2706 781 3412 
Q 1013 4119 1484 4856 
L 1984 4856 
z
" transform="scale(0.015625)"/>
       <path id="DejaVuSans-54" d="M -19 4666 
L 3928 4666 
L 3928 4134 
L 2272 4134 
L 2272 0 
L 1638 0 
L 1638 4134 
L -19 4134 
L -19 4666 
z
" transform="scale(0.015625)"/>
       <path id="DejaVuSans-6c" d="M 603 4863 
L 1178 4863 
L 1178 0 
L 603 0 
L 603 4863 
z
" transform="scale(0.015625)"/>
       <path id="DejaVuSans-53" d="M 3425 4513 
L 3425 3897 
Q 3066 4069 2747 4153 
Q 2428 4238 2131 4238 
Q 1616 4238 1336 4038 
Q 1056 3838 1056 3469 
Q 1056 3159 1242 3001 
Q 1428 2844 1947 2747 
L 2328 2669 
Q 3034 2534 3370 2195 
Q 3706 1856 3706 1288 
Q 3706 609 3251 259 
Q 2797 -91 1919 -91 
Q 1588 -91 1214 -16 
Q 841 59 441 206 
L 441 856 
Q 825 641 1194 531 
Q 1563 422 1919 422 
Q 2459 422 2753 634 
Q 3047 847 3047 1241 
Q 3047 1584 2836 1778 
Q 2625 1972 2144 2069 
L 1759 2144 
Q 1053 2284 737 2584 
Q 422 2884 422 3419 
Q 422 4038 858 4394 
Q 1294 4750 2059 4750 
Q 2388 4750 2728 4690 
Q 3069 4631 3425 4513 
z
" transform="scale(0.015625)"/>
       <path id="DejaVuSans-29" d="M 513 4856 
L 1013 4856 
Q 1481 4119 1714 3412 
Q 1947 2706 1947 2009 
Q 1947 1309 1714 600 
Q 1481 -109 1013 -844 
L 513 -844 
Q 928 -128 1133 580 
Q 1338 1288 1338 2009 
Q 1338 2731 1133 3434 
Q 928 4138 513 4856 
z
" transform="scale(0.015625)"/>
      </defs>
      <use xlink:href="#DejaVuSans-45"/>
      <use xlink:href="#DejaVuSans-73" x="63.183594"/>
      <use xlink:href="#DejaVuSans-74" x="115.283203"/>
      <use xlink:href="#DejaVuSans-69" x="154.492188"/>
      <use xlink:href="#DejaVuSans-6d" x="182.275391"/>
      <use xlink:href="#DejaVuSans-61" x="279.6875"/>
      <use xlink:href="#DejaVuSans-74" x="340.966797"/>
      <use xlink:href="#DejaVuSans-65" x="380.175781"/>
      <use xlink:href="#DejaVuSans-64" x="441.699219"/>
      <use xlink:href="#DejaVuSans-20" x="505.175781"/>
      <use xlink:href="#DejaVuSans-49" x="536.962891"/>
      <use xlink:href="#DejaVuSans-50" x="566.455078"/>
      <use xlink:href="#DejaVuSans-43" x="626.757812"/>
      <use xlink:href="#DejaVuSans-20" x="696.582031"/>
      <use xlink:href="#DejaVuSans-28" x="728.369141"/>
      <use xlink:href="#DejaVuSans-54" x="767.382812"/>
      <use xlink:href="#DejaVuSans-69" x="825.341797"/>
      <use xlink:href="#DejaVuSans-64" x="853.125"/>
      <use xlink:href="#DejaVuSans-61" x="916.601562"/>
      <use xlink:href="#DejaVuSans-6c" x="977.880859"/>
      <use xlink:href="#DejaVuSans-53" x="1005.664062"/>
      <use xlink:href="#DejaVuSans-69" x="1069.140625"/>
      <use xlink:href="#DejaVuSans-6d" x="1096.923828"/>
      <use xlink:href="#DejaVuSans-29" x="1194.335938"/>
     </g>
    </g>
    <g id="line2d_18">
     <path d="M 56.81 140.710312 
L 56.81 140.710312 
L 66.81 140.710312 
L 66.81 140.710312 
L 76.81 140.710312 
" style="fill: none; stroke: #008000; stroke-width: 1.5; stroke-linecap: square"/>
    </g>
    <g id="text_9">
     <!-- True IPC (Full RTL Simulation) -->
     <g transform="translate(84.81 144.210312) scale(0.1 -0.1)">
      <defs>
       <path id="DejaVuSans-72" d="M 2631 2963 
Q 2534 3019 2420 3045 
Q 2306 3072 2169 3072 
Q 1681 3072 1420 2755 
Q 1159 2438 1159 1844 
L 1159 0 
L 581 0 
L 581 3500 
L 1159 3500 
L 1159 2956 
Q 1341 3275 1631 3429 
Q 1922 3584 2338 3584 
Q 2397 3584 2469 3576 
Q 2541 3569 2628 3553 
L 2631 2963 
z
" transform="scale(0.015625)"/>
       <path id="DejaVuSans-75" d="M 544 1381 
L 544 3500 
L 1119 3500 
L 1119 1403 
Q 1119 906 1312 657 
Q 1506 409 1894 409 
Q 2359 409 2629 706 
Q 2900 1003 2900 1516 
L 2900 3500 
L 3475 3500 
L 3475 0 
L 2900 0 
L 2900 538 
Q 2691 219 2414 64 
Q 2138 -91 1772 -91 
Q 1169 -91 856 284 
Q 544 659 544 1381 
z
M 1991 3584 
L 1991 3584 
z
" transform="scale(0.015625)"/>
       <path id="DejaVuSans-46" d="M 628 4666 
L 3309 4666 
L 3309 4134 
L 1259 4134 
L 1259 2759 
L 3109 2759 
L 3109 2228 
L 1259 2228 
L 1259 0 
L 628 0 
L 628 4666 
z
" transform="scale(0.015625)"/>
       <path id="DejaVuSans-52" d="M 2841 2188 
Q 3044 2119 3236 1894 
Q 3428 1669 3622 1275 
L 4263 0 
L 3584 0 
L 2988 1197 
Q 2756 1666 2539 1819 
Q 2322 1972 1947 1972 
L 1259 1972 
L 1259 0 
L 628 0 
L 628 4666 
L 2053 4666 
Q 2853 4666 3247 4331 
Q 3641 3997 3641 3322 
Q 3641 2881 3436 2590 
Q 3231 2300 2841 2188 
z
M 1259 4147 
L 1259 2491 
L 2053 2491 
Q 2509 2491 2742 2702 
Q 2975 2913 2975 3322 
Q 2975 3731 2742 3939 
Q 2509 4147 2053 4147 
L 1259 4147 
z
" transform="scale(0.015625)"/>
       <path id="DejaVuSans-4c" d="M 628 4666 
L 1259 4666 
L 1259 531 
L 3531 531 
L 3531 0 
L 628 0 
L 628 4666 
z
" transform="scale(0.015625)"/>
       <path id="DejaVuSans-6f" d="M 1959 3097 
Q 1497 3097 1228 2736 
Q 959 2375 959 1747 
Q 959 1119 1226 758 
Q 1494 397 1959 397 
Q 2419 397 2687 759 
Q 2956 1122 2956 1747 
Q 2956 2369 2687 2733 
Q 2419 3097 1959 3097 
z
M 1959 3584 
Q 2709 3584 3137 3096 
Q 3566 2609 3566 1747 
Q 3566 888 3137 398 
Q 2709 -91 1959 -91 
Q 1206 -91 779 398 
Q 353 888 353 1747 
Q 353 2609 779 3096 
Q 1206 3584 1959 3584 
z
" transform="scale(0.015625)"/>
       <path id="DejaVuSans-6e" d="M 3513 2113 
L 3513 0 
L 2938 0 
L 2938 2094 
Q 2938 2591 2744 2837 
Q 2550 3084 2163 3084 
Q 1697 3084 1428 2787 
Q 1159 2491 1159 1978 
L 1159 0 
L 581 0 
L 581 3500 
L 1159 3500 
L 1159 2956 
Q 1366 3272 1645 3428 
Q 1925 3584 2291 3584 
Q 2894 3584 3203 3211 
Q 3513 2838 3513 2113 
z
" transform="scale(0.015625)"/>
      </defs>
      <use xlink:href="#DejaVuSans-54"/>
      <use xlink:href="#DejaVuSans-72" x="46.333984"/>
      <use xlink:href="#DejaVuSans-75" x="87.447266"/>
      <use xlink:href="#DejaVuSans-65" x="150.826172"/>
      <use xlink:href="#DejaVuSans-20" x="212.349609"/>
      <use xlink:href="#DejaVuSans-49" x="244.136719"/>
      <use xlink:href="#DejaVuSans-50" x="273.628906"/>
      <use xlink:href="#DejaVuSans-43" x="333.931641"/>
      <use xlink:href="#DejaVuSans-20" x="403.755859"/>
      <use xlink:href="#DejaVuSans-28" x="435.542969"/>
      <use xlink:href="#DejaVuSans-46" x="474.556641"/>
      <use xlink:href="#DejaVuSans-75" x="526.576172"/>
      <use xlink:href="#DejaVuSans-6c" x="589.955078"/>
      <use xlink:href="#DejaVuSans-6c" x="617.738281"/>
      <use xlink:href="#DejaVuSans-20" x="645.521484"/>
      <use xlink:href="#DejaVuSans-52" x="677.308594"/>
      <use xlink:href="#DejaVuSans-54" x="739.541016"/>
      <use xlink:href="#DejaVuSans-4c" x="800.625"/>
      <use xlink:href="#DejaVuSans-20" x="856.337891"/>
      <use xlink:href="#DejaVuSans-53" x="888.125"/>
      <use xlink:href="#DejaVuSans-69" x="951.601562"/>
      <use xlink:href="#DejaVuSans-6d" x="979.384766"/>
      <use xlink:href="#DejaVuSans-75" x="1076.796875"/>
      <use xlink:href="#DejaVuSans-6c" x="1140.175781"/>
      <use xlink:href="#DejaVuSans-61" x="1167.958984"/>
      <use xlink:href="#DejaVuSans-74" x="1229.238281"/>
      <use xlink:href="#DejaVuSans-69" x="1268.447266"/>
      <use xlink:href="#DejaVuSans-6f" x="1296.230469"/>
      <use xlink:href="#DejaVuSans-6e" x="1357.412109"/>
      <use xlink:href="#DejaVuSans-29" x="1420.791016"/>
     </g>
    </g>
   </g>
  </g>
  <g id="axes_2">
   <g id="patch_8">
    <path d="M 47.81 318.04 
L 888.22 318.04 
L 888.22 173.55 
L 47.81 173.55 
z
" style="fill: #ffffff"/>
   </g>
   <g id="matplotlib.axis_3">
    <g id="xtick_9">
     <g id="line2d_19">
      <g>
       <use xlink:href="#m09455650fb" x="103.837333" y="318.04" style="stroke: #000000; stroke-width: 0.8"/>
      </g>
     </g>
     <g id="text_10">
      <!-- 0.6 -->
      <g transform="translate(95.885771 332.638437) scale(0.1 -0.1)">
       <use xlink:href="#DejaVuSans-30"/>
       <use xlink:href="#DejaVuSans-2e" x="63.623047"/>
       <use xlink:href="#DejaVuSans-36" x="95.410156"/>
      </g>
     </g>
    </g>
    <g id="xtick_10">
     <g id="line2d_20">
      <g>
       <use xlink:href="#m09455650fb" x="215.892" y="318.04" style="stroke: #000000; stroke-width: 0.8"/>
      </g>
     </g>
     <g id="text_11">
      <!-- 0.8 -->
      <g transform="translate(207.940438 332.638437) scale(0.1 -0.1)">
       <use xlink:href="#DejaVuSans-30"/>
       <use xlink:href="#DejaVuSans-2e" x="63.623047"/>
       <use xlink:href="#DejaVuSans-38" x="95.410156"/>
      </g>
     </g>
    </g>
    <g id="xtick_11">
     <g id="line2d_21">
      <g>
       <use xlink:href="#m09455650fb" x="327.946667" y="318.04" style="stroke: #000000; stroke-width: 0.8"/>
      </g>
     </g>
     <g id="text_12">
      <!-- 1.0 -->
      <g transform="translate(319.995104 332.638437) scale(0.1 -0.1)">
       <use xlink:href="#DejaVuSans-31"/>
       <use xlink:href="#DejaVuSans-2e" x="63.623047"/>
       <use xlink:href="#DejaVuSans-30" x="95.410156"/>
      </g>
     </g>
    </g>
    <g id="xtick_12">
     <g id="line2d_22">
      <g>
       <use xlink:href="#m09455650fb" x="440.001333" y="318.04" style="stroke: #000000; stroke-width: 0.8"/>
      </g>
     </g>
     <g id="text_13">
      <!-- 1.2 -->
      <g transform="translate(432.049771 332.638437) scale(0.1 -0.1)">
       <defs>
        <path id="DejaVuSans-32" d="M 1228 531 
L 3431 531 
L 3431 0 
L 469 0 
L 469 531 
Q 828 903 1448 1529 
Q 2069 2156 2228 2338 
Q 2531 2678 2651 2914 
Q 2772 3150 2772 3378 
Q 2772 3750 2511 3984 
Q 2250 4219 1831 4219 
Q 1534 4219 1204 4116 
Q 875 4013 500 3803 
L 500 4441 
Q 881 4594 1212 4672 
Q 1544 4750 1819 4750 
Q 2544 4750 2975 4387 
Q 3406 4025 3406 3419 
Q 3406 3131 3298 2873 
Q 3191 2616 2906 2266 
Q 2828 2175 2409 1742 
Q 1991 1309 1228 531 
z
" transform="scale(0.015625)"/>
       </defs>
       <use xlink:href="#DejaVuSans-31"/>
       <use xlink:href="#DejaVuSans-2e" x="63.623047"/>
       <use xlink:href="#DejaVuSans-32" x="95.410156"/>
      </g>
     </g>
    </g>
    <g id="xtick_13">
     <g id="line2d_23">
      <g>
       <use xlink:href="#m09455650fb" x="552.056" y="318.04" style="stroke: #000000; stroke-width: 0.8"/>
      </g>
     </g>
     <g id="text_14">
      <!-- 1.4 -->
      <g transform="translate(544.104438 332.638437) scale(0.1 -0.1)">
       <defs>
        <path id="DejaVuSans-34" d="M 2419 4116 
L 825 1625 
L 2419 1625 
L 2419 4116 
z
M 2253 4666 
L 3047 4666 
L 3047 1625 
L 3713 1625 
L 3713 1100 
L 3047 1100 
L 3047 0 
L 2419 0 
L 2419 1100 
L 313 1100 
L 313 1709 
L 2253 4666 
z
" transform="scale(0.015625)"/>
       </defs>
       <use xlink:href="#DejaVuSans-31"/>
       <use xlink:href="#DejaVuSans-2e" x="63.623047"/>
       <use xlink:href="#DejaVuSans-34" x="95.410156"/>
      </g>
     </g>
    </g>
    <g id="xtick_14">
     <g id="line2d_24">
      <g>
       <use xlink:href="#m09455650fb" x="664.110667" y="318.04" style="stroke: #000000; stroke-width: 0.8"/>
      </g>
     </g>
     <g id="text_15">
      <!-- 1.6 -->
      <g transform="translate(656.159104 332.638437) scale(0.1 -0.1)">
       <use xlink:href="#DejaVuSans-31"/>
       <use xlink:href="#DejaVuSans-2e" x="63.623047"/>
       <use xlink:href="#DejaVuSans-36" x="95.410156"/>
      </g>
     </g>
    </g>
    <g id="xtick_15">
     <g id="line2d_25">
      <g>
       <use xlink:href="#m09455650fb" x="776.165333" y="318.04" style="stroke: #000000; stroke-width: 0.8"/>
      </g>
     </g>
     <g id="text_16">
      <!-- 1.8 -->
      <g transform="translate(768.213771 332.638437) scale(0.1 -0.1)">
       <use xlink:href="#DejaVuSans-31"/>
       <use xlink:href="#DejaVuSans-2e" x="63.623047"/>
       <use xlink:href="#DejaVuSans-38" x="95.410156"/>
      </g>
     </g>
    </g>
    <g id="xtick_16">
     <g id="line2d_26">
      <g>
       <use xlink:href="#m09455650fb" x="888.22" y="318.04" style="stroke: #000000; stroke-width: 0.8"/>
      </g>
     </g>
     <g id="text_17">
      <!-- 2.0 -->
      <g transform="translate(880.268438 332.638437) scale(0.1 -0.1)">
       <use xlink:href="#DejaVuSans-32"/>
       <use xlink:href="#DejaVuSans-2e" x="63.623047"/>
       <use xlink:href="#DejaVuSans-30" x="95.410156"/>
      </g>
     </g>
    </g>
    <g id="text_18">
     <!-- Instructions -->
     <g transform="translate(438.650938 346.316562) scale(0.1 -0.1)">
      <defs>
       <path id="DejaVuSans-63" d="M 3122 3366 
L 3122 2828 
Q 2878 2963 2633 3030 
Q 2388 3097 2138 3097 
Q 1578 3097 1268 2742 
Q 959 2388 959 1747 
Q 959 1106 1268 751 
Q 1578 397 2138 397 
Q 2388 397 2633 464 
Q 2878 531 3122 666 
L 3122 134 
Q 2881 22 2623 -34 
Q 2366 -91 2075 -91 
Q 1284 -91 818 406 
Q 353 903 353 1747 
Q 353 2603 823 3093 
Q 1294 3584 2113 3584 
Q 2378 3584 2631 3529 
Q 2884 3475 3122 3366 
z
" transform="scale(0.015625)"/>
      </defs>
      <use xlink:href="#DejaVuSans-49"/>
      <use xlink:href="#DejaVuSans-6e" x="29.492188"/>
      <use xlink:href="#DejaVuSans-73" x="92.871094"/>
      <use xlink:href="#DejaVuSans-74" x="144.970703"/>
      <use xlink:href="#DejaVuSans-72" x="184.179688"/>
      <use xlink:href="#DejaVuSans-75" x="225.292969"/>
      <use xlink:href="#DejaVuSans-63" x="288.671875"/>
      <use xlink:href="#DejaVuSans-74" x="343.652344"/>
      <use xlink:href="#DejaVuSans-69" x="382.861328"/>
      <use xlink:href="#DejaVuSans-6f" x="410.644531"/>
      <use xlink:href="#DejaVuSans-6e" x="471.826172"/>
      <use xlink:href="#DejaVuSans-73" x="535.205078"/>
     </g>
    </g>
    <g id="text_19">
     <!-- 1e6 -->
     <g transform="translate(869.341875 345.316562) scale(0.1 -0.1)">
      <use xlink:href="#DejaVuSans-31"/>
      <use xlink:href="#DejaVuSans-65" x="63.623047"/>
      <use xlink:href="#DejaVuSans-36" x="125.146484"/>
     </g>
    </g>
   </g>
   <g id="matplotlib.axis_4">
    <g id="ytick_7">
     <g id="line2d_27">
      <g>
       <use xlink:href="#m22efbaf959" x="47.81" y="318.04" style="stroke: #000000; stroke-width: 0.8"/>
      </g>
     </g>
     <g id="text_20">
      <!-- 0 -->
      <g transform="translate(34.4475 321.839219) scale(0.1 -0.1)">
       <use xlink:href="#DejaVuSans-30"/>
      </g>
     </g>
    </g>
    <g id="ytick_8">
     <g id="line2d_28">
      <g>
       <use xlink:href="#m22efbaf959" x="47.81" y="293.958333" style="stroke: #000000; stroke-width: 0.8"/>
      </g>
     </g>
     <g id="text_21">
      <!-- 5 -->
      <g transform="translate(34.4475 297.757552) scale(0.1 -0.1)">
       <use xlink:href="#DejaVuSans-35"/>
      </g>
     </g>
    </g>
    <g id="ytick_9">
     <g id="line2d_29">
      <g>
       <use xlink:href="#m22efbaf959" x="47.81" y="269.876667" style="stroke: #000000; stroke-width: 0.8"/>
      </g>
     </g>
     <g id="text_22">
      <!-- 10 -->
      <g transform="translate(28.085 273.675885) scale(0.1 -0.1)">
       <use xlink:href="#DejaVuSans-31"/>
       <use xlink:href="#DejaVuSans-30" x="63.623047"/>
      </g>
     </g>
    </g>
    <g id="ytick_10">
     <g id="line2d_30">
      <g>
       <use xlink:href="#m22efbaf959" x="47.81" y="245.795" style="stroke: #000000; stroke-width: 0.8"/>
      </g>
     </g>
     <g id="text_23">
      <!-- 15 -->
      <g transform="translate(28.085 249.594219) scale(0.1 -0.1)">
       <use xlink:href="#DejaVuSans-31"/>
       <use xlink:href="#DejaVuSans-35" x="63.623047"/>
      </g>
     </g>
    </g>
    <g id="ytick_11">
     <g id="line2d_31">
      <g>
       <use xlink:href="#m22efbaf959" x="47.81" y="221.713333" style="stroke: #000000; stroke-width: 0.8"/>
      </g>
     </g>
     <g id="text_24">
      <!-- 20 -->
      <g transform="translate(28.085 225.512552) scale(0.1 -0.1)">
       <use xlink:href="#DejaVuSans-32"/>
       <use xlink:href="#DejaVuSans-30" x="63.623047"/>
      </g>
     </g>
    </g>
    <g id="ytick_12">
     <g id="line2d_32">
      <g>
       <use xlink:href="#m22efbaf959" x="47.81" y="197.631667" style="stroke: #000000; stroke-width: 0.8"/>
      </g>
     </g>
     <g id="text_25">
      <!-- 25 -->
      <g transform="translate(28.085 201.430885) scale(0.1 -0.1)">
       <use xlink:href="#DejaVuSans-32"/>
       <use xlink:href="#DejaVuSans-35" x="63.623047"/>
      </g>
     </g>
    </g>
    <g id="ytick_13">
     <g id="line2d_33">
      <g>
       <use xlink:href="#m22efbaf959" x="47.81" y="173.55" style="stroke: #000000; stroke-width: 0.8"/>
      </g>
     </g>
     <g id="text_26">
      <!-- 30 -->
      <g transform="translate(28.085 177.349219) scale(0.1 -0.1)">
       <defs>
        <path id="DejaVuSans-33" d="M 2597 2516 
Q 3050 2419 3304 2112 
Q 3559 1806 3559 1356 
Q 3559 666 3084 287 
Q 2609 -91 1734 -91 
Q 1441 -91 1130 -33 
Q 819 25 488 141 
L 488 750 
Q 750 597 1062 519 
Q 1375 441 1716 441 
Q 2309 441 2620 675 
Q 2931 909 2931 1356 
Q 2931 1769 2642 2001 
Q 2353 2234 1838 2234 
L 1294 2234 
L 1294 2753 
L 1863 2753 
Q 2328 2753 2575 2939 
Q 2822 3125 2822 3475 
Q 2822 3834 2567 4026 
Q 2313 4219 1838 4219 
Q 1578 4219 1281 4162 
Q 984 4106 628 3988 
L 628 4550 
Q 988 4650 1302 4700 
Q 1616 4750 1894 4750 
Q 2613 4750 3031 4423 
Q 3450 4097 3450 3541 
Q 3450 3153 3228 2886 
Q 3006 2619 2597 2516 
z
" transform="scale(0.015625)"/>
       </defs>
       <use xlink:href="#DejaVuSans-33"/>
       <use xlink:href="#DejaVuSans-30" x="63.623047"/>
      </g>
     </g>
    </g>
    <g id="text_27">
     <!-- Absolute IPC error (%) -->
     <g transform="translate(22.005313 301.15125) rotate(-90) scale(0.1 -0.1)">
      <defs>
       <path id="DejaVuSans-41" d="M 2188 4044 
L 1331 1722 
L 3047 1722 
L 2188 4044 
z
M 1831 4666 
L 2547 4666 
L 4325 0 
L 3669 0 
L 3244 1197 
L 1141 1197 
L 716 0 
L 50 0 
L 1831 4666 
z
" transform="scale(0.015625)"/>
       <path id="DejaVuSans-62" d="M 3116 1747 
Q 3116 2381 2855 2742 
Q 2594 3103 2138 3103 
Q 1681 3103 1420 2742 
Q 1159 2381 1159 1747 
Q 1159 1113 1420 752 
Q 1681 391 2138 391 
Q 2594 391 2855 752 
Q 3116 1113 3116 1747 
z
M 1159 2969 
Q 1341 3281 1617 3432 
Q 1894 3584 2278 3584 
Q 2916 3584 3314 3078 
Q 3713 2572 3713 1747 
Q 3713 922 3314 415 
Q 2916 -91 2278 -91 
Q 1894 -91 1617 61 
Q 1341 213 1159 525 
L 1159 0 
L 581 0 
L 581 4863 
L 1159 4863 
L 1159 2969 
z
" transform="scale(0.015625)"/>
       <path id="DejaVuSans-25" d="M 4653 2053 
Q 4381 2053 4226 1822 
Q 4072 1591 4072 1178 
Q 4072 772 4226 539 
Q 4381 306 4653 306 
Q 4919 306 5073 539 
Q 5228 772 5228 1178 
Q 5228 1588 5073 1820 
Q 4919 2053 4653 2053 
z
M 4653 2450 
Q 5147 2450 5437 2106 
Q 5728 1763 5728 1178 
Q 5728 594 5436 251 
Q 5144 -91 4653 -91 
Q 4153 -91 3862 251 
Q 3572 594 3572 1178 
Q 3572 1766 3864 2108 
Q 4156 2450 4653 2450 
z
M 1428 4353 
Q 1159 4353 1004 4120 
Q 850 3888 850 3481 
Q 850 3069 1003 2837 
Q 1156 2606 1428 2606 
Q 1700 2606 1854 2837 
Q 2009 3069 2009 3481 
Q 2009 3884 1853 4118 
Q 1697 4353 1428 4353 
z
M 4250 4750 
L 4750 4750 
L 1831 -91 
L 1331 -91 
L 4250 4750 
z
M 1428 4750 
Q 1922 4750 2215 4408 
Q 2509 4066 2509 3481 
Q 2509 2891 2217 2550 
Q 1925 2209 1428 2209 
Q 931 2209 642 2551 
Q 353 2894 353 3481 
Q 353 4063 643 4406 
Q 934 4750 1428 4750 
z
" transform="scale(0.015625)"/>
      </defs>
      <use xlink:href="#DejaVuSans-41"/>
      <use xlink:href="#DejaVuSans-62" x="68.408203"/>
      <use xlink:href="#DejaVuSans-73" x="131.884766"/>
      <use xlink:href="#DejaVuSans-6f" x="183.984375"/>
      <use xlink:href="#DejaVuSans-6c" x="245.166016"/>
      <use xlink:href="#DejaVuSans-75" x="272.949219"/>
      <use xlink:href="#DejaVuSans-74" x="336.328125"/>
      <use xlink:href="#DejaVuSans-65" x="375.537109"/>
      <use xlink:href="#DejaVuSans-20" x="437.060547"/>
      <use xlink:href="#DejaVuSans-49" x="468.847656"/>
      <use xlink:href="#DejaVuSans-50" x="498.339844"/>
      <use xlink:href="#DejaVuSans-43" x="558.642578"/>
      <use xlink:href="#DejaVuSans-20" x="628.466797"/>
      <use xlink:href="#DejaVuSans-65" x="660.253906"/>
      <use xlink:href="#DejaVuSans-72" x="721.777344"/>
      <use xlink:href="#DejaVuSans-72" x="761.140625"/>
      <use xlink:href="#DejaVuSans-6f" x="800.003906"/>
      <use xlink:href="#DejaVuSans-72" x="861.185547"/>
      <use xlink:href="#DejaVuSans-20" x="902.298828"/>
      <use xlink:href="#DejaVuSans-28" x="934.085938"/>
      <use xlink:href="#DejaVuSans-25" x="973.099609"/>
      <use xlink:href="#DejaVuSans-29" x="1068.119141"/>
     </g>
    </g>
   </g>
   <g id="line2d_34">
    <path d="M -1 307.559631 
L 2.988133 307.559631 
L 2.988133 307.420743 
L 8.590867 307.420743 
L 8.590867 307.698519 
L 14.1936 307.698519 
L 14.1936 307.420743 
L 19.796333 307.420743 
L 19.796333 307.559631 
L 25.399067 307.559631 
L 25.399067 252.377661 
L 31.0018 252.377661 
L 31.0018 317.841064 
L 36.604533 317.841064 
L 36.604533 315.420325 
L 42.207267 315.420325 
L 42.207267 312.864783 
L 47.81 312.864783 
L 47.81 314.969347 
L 53.412733 314.969347 
L 53.412733 316.886003 
L 59.015467 316.886003 
L 59.015467 316.472606 
L 64.6182 316.472606 
L 64.6182 315.457906 
L 70.220933 315.457906 
L 70.220933 315.345162 
L 75.823667 315.345162 
L 75.823667 273.916996 
L 81.4264 273.916996 
L 81.4264 254.327596 
L 87.029133 254.327596 
L 87.029133 259.801105 
L 92.631867 259.801105 
L 92.631867 258.237245 
L 103.837333 258.330452 
L 103.837333 268.027993 
L 109.440067 268.027993 
L 109.440067 199.608622 
L 115.0428 199.608622 
L 115.0428 311.159506 
L 120.645533 311.159506 
L 120.645533 311.68831 
L 126.248267 311.68831 
L 126.248267 313.501353 
L 131.851 313.501353 
L 131.851 312.254886 
L 137.453733 312.254886 
L 137.453733 288.691355 
L 143.056467 288.691355 
L 143.056467 223.269429 
L 148.6592 223.269429 
L 148.6592 308.254069 
L 154.261933 308.254069 
L 154.261933 307.559631 
L 165.4674 307.559631 
L 165.4674 307.420743 
L 171.070133 307.420743 
L 171.070133 307.698519 
L 176.672867 307.698519 
L 176.672867 310.187209 
L 182.2756 310.187209 
L 182.2756 315.698919 
L 187.878333 315.698919 
L 187.878333 315.382743 
L 193.481067 315.382743 
L 193.481067 312.639295 
L 199.0838 312.639295 
L 199.0838 316.622932 
L 204.686533 316.622932 
L 204.686533 314.931765 
L 210.289267 314.931765 
L 210.289267 315.457906 
L 215.892 315.457906 
L 215.892 316.863945 
L 221.494733 316.863945 
L 221.494733 312.977528 
L 227.097467 312.977528 
L 227.097467 256.482308 
L 232.7002 256.482308 
L 232.7002 248.648316 
L 238.302933 248.648316 
L 238.302933 254.162979 
L 243.905667 254.162979 
L 243.905667 248.360236 
L 249.5084 248.360236 
L 249.5084 252.31104 
L 255.111133 252.31104 
L 255.111133 238.385271 
L 260.713867 238.385271 
L 260.713867 224.272964 
L 266.3166 224.272964 
L 266.3166 310.59293 
L 271.919333 310.59293 
L 271.919333 311.801625 
L 277.522067 311.801625 
L 277.522067 313.350266 
L 283.1248 313.350266 
L 283.1248 310.932875 
L 288.727533 310.932875 
L 288.727533 304.562318 
L 294.330267 304.562318 
L 294.330267 193.37601 
L 299.933 193.37601 
L 299.933 314.087347 
L 305.535733 314.087347 
L 305.535733 307.698519 
L 311.138467 307.698519 
L 311.138467 307.420743 
L 316.7412 307.420743 
L 316.7412 307.559631 
L 327.946667 307.559631 
L 327.946667 307.420743 
L 333.5494 307.420743 
L 333.5494 292.608361 
L 339.152133 292.608361 
L 339.152133 316.998747 
L 344.754867 316.998747 
L 344.754867 313.27818 
L 350.3576 313.27818 
L 350.3576 317.186655 
L 355.960333 317.186655 
L 355.960333 313.841902 
L 361.563067 313.841902 
L 361.563067 311.925246 
L 367.1658 311.925246 
L 367.1658 316.510188 
L 372.768533 316.510188 
L 372.768533 317.465249 
L 378.371267 317.465249 
L 378.371267 316.05921 
L 383.974 316.05921 
L 383.974 248.236774 
L 389.576733 248.236774 
L 389.576733 251.611418 
L 395.179467 251.611418 
L 395.179467 249.636017 
L 400.7822 249.636017 
L 400.7822 250.335638 
L 406.384933 250.335638 
L 406.384933 205.146127 
L 411.987667 205.146127 
L 411.987667 268.142968 
L 417.5904 268.142968 
L 417.5904 298.090488 
L 423.193133 298.090488 
L 423.193133 309.082061 
L 428.795867 309.082061 
L 428.795867 312.670375 
L 434.3986 312.670375 
L 434.3986 312.859234 
L 440.001333 312.859234 
L 440.001333 313.463581 
L 445.604067 313.463581 
L 445.604067 265.356922 
L 451.2068 265.356922 
L 451.2068 303.230436 
L 456.809533 303.230436 
L 456.809533 307.559631 
L 462.412267 307.559631 
L 462.412267 307.420743 
L 468.015 307.420743 
L 468.015 307.698519 
L 473.617733 307.698519 
L 473.617733 307.420743 
L 479.220467 307.420743 
L 479.220467 307.559631 
L 484.8232 307.559631 
L 484.8232 233.68113 
L 490.425933 233.68113 
L 490.425933 317.314923 
L 496.028667 317.314923 
L 496.028667 317.690738 
L 501.6314 317.690738 
L 501.6314 310.985709 
L 507.234133 310.985709 
L 507.234133 314.593532 
L 512.836867 314.593532 
L 512.836867 316.923584 
L 518.4396 316.923584 
L 518.4396 316.209536 
L 524.042333 316.209536 
L 524.042333 315.608232 
L 529.645067 315.608232 
L 529.645067 315.457906 
L 535.2478 315.457906 
L 535.2478 293.34178 
L 540.850533 293.34178 
L 540.850533 247.948694 
L 546.453267 247.948694 
L 546.453267 249.636017 
L 552.056 249.636017 
L 552.056 250.047559 
L 557.658733 250.047559 
L 557.658733 237.691835 
L 563.261467 237.691835 
L 563.261467 236.174168 
L 568.8642 236.174168 
L 568.8642 194.112351 
L 574.466933 194.112351 
L 574.466933 310.328528 
L 580.069667 310.328528 
L 580.069667 311.612767 
L 585.6724 311.612767 
L 585.6724 312.55706 
L 591.275133 312.55706 
L 591.275133 311.877169 
L 596.877867 311.877169 
L 596.877867 284.764594 
L 602.4806 284.764594 
L 602.4806 195.528049 
L 608.083333 195.528049 
L 608.083333 312.004034 
L 613.686067 312.004034 
L 613.686067 307.559631 
L 624.891533 307.559631 
L 624.891533 307.420743 
L 630.494267 307.420743 
L 630.494267 307.698519 
L 641.699733 307.79111 
L 641.699733 313.090272 
L 647.302467 313.090272 
L 647.302467 316.622932 
L 652.9052 316.622932 
L 652.9052 311.737339 
L 658.507933 311.737339 
L 658.507933 315.608232 
L 664.110667 315.608232 
L 664.110667 314.781439 
L 669.7134 314.781439 
L 669.7134 313.27818 
L 675.316133 313.27818 
L 675.316133 317.975866 
L 680.918867 317.975866 
L 680.918867 315.608232 
L 686.5216 315.608232 
L 686.5216 280.432716 
L 692.124333 280.432716 
L 692.124333 248.648316 
L 697.727067 248.648316 
L 697.727067 248.360236 
L 708.932533 248.360236 
L 708.932533 249.636017 
L 714.535267 249.636017 
L 714.535267 214.25651 
L 720.138 214.25651 
L 720.138 221.545445 
L 725.740733 221.545445 
L 725.740733 309.422006 
L 731.343467 309.422006 
L 731.343467 310.630702 
L 736.9462 310.630702 
L 736.9462 313.048092 
L 742.548933 313.048092 
L 742.548933 311.537223 
L 748.151667 311.537223 
L 748.151667 308.893202 
L 753.7544 308.893202 
L 753.7544 267.867329 
L 759.357133 267.867329 
L 759.357133 282.670617 
L 764.959867 282.670617 
L 764.959867 307.698519 
L 770.5626 307.698519 
L 770.5626 307.420743 
L 776.165333 307.420743 
L 776.165333 307.698519 
L 781.768067 307.698519 
L 781.768067 307.420743 
L 787.3708 307.420743 
L 787.3708 307.559631 
L 792.973533 307.559631 
L 792.973533 252.055923 
L 798.576267 252.055923 
L 798.576267 317.803482 
L 804.179 317.803482 
L 804.179 313.917065 
L 809.781733 313.917065 
L 809.781733 313.203017 
L 815.384467 313.203017 
L 815.384467 314.480788 
L 820.9872 314.480788 
L 820.9872 316.998747 
L 826.589933 316.998747 
L 826.589933 316.472606 
L 832.192667 316.472606 
L 832.192667 315.645814 
L 837.7954 315.645814 
L 837.7954 315.006928 
L 843.398133 315.006928 
L 843.398133 268.237716 
L 849.000867 268.237716 
L 849.000867 247.948694 
L 854.6036 247.948694 
L 854.6036 250.047559 
L 860.206333 250.047559 
L 860.206333 249.059858 
L 865.809067 249.059858 
L 865.809067 254.692848 
L 871.4118 254.692848 
L 871.4118 264.276363 
L 877.014533 264.276363 
L 877.014533 197.637133 
L 882.617267 197.637133 
L 882.617267 309.799724 
L 888.22 309.799724 
L 888.22 311.68831 
L 893.822733 311.68831 
L 893.822733 313.501353 
L 899.425467 313.501353 
L 899.425467 312.141571 
L 905.0282 312.141571 
L 905.0282 286.839416 
L 910.630933 286.839416 
L 910.630933 218.94694 
L 916.233667 218.94694 
L 916.233667 308.254069 
L 921.8364 308.254069 
L 921.8364 307.559631 
L 933.041867 307.559631 
L 933.041867 307.420743 
L 937 307.420743 
L 937 307.420743 
" clip-path="url(#p0f160d9d9d)" style="fill: none; stroke: #bfbf00; stroke-width: 1.5; stroke-linecap: square"/>
   </g>
   <g id="patch_9">
    <path d="M 47.81 318.04 
L 47.81 173.55 
" style="fill: none; stroke: #000000; stroke-width: 0.8; stroke-linejoin: miter; stroke-linecap: square"/>
   </g>
   <g id="patch_10">
    <path d="M 888.22 318.04 
L 888.22 173.55 
" style="fill: none; stroke: #000000; stroke-width: 0.8; stroke-linejoin: miter; stroke-linecap: square"/>
   </g>
   <g id="patch_11">
    <path d="M 47.81 318.04 
L 888.22 318.04 
" style="fill: none; stroke: #000000; stroke-width: 0.8; stroke-linejoin: miter; stroke-linecap: square"/>
   </g>
   <g id="patch_12">
    <path d="M 47.81 173.55 
L 888.22 173.55 
" style="fill: none; stroke: #000000; stroke-width: 0.8; stroke-linejoin: miter; stroke-linecap: square"/>
   </g>
   <g id="legend_2">
    <g id="patch_13">
     <path d="M 710.873125 210.90625 
L 881.22 210.90625 
Q 883.22 210.90625 883.22 208.90625 
L 883.22 180.55 
Q 883.22 178.55 881.22 178.55 
L 710.873125 178.55 
Q 708.873125 178.55 708.873125 180.55 
L 708.873125 208.90625 
Q 708.873125 210.90625 710.873125 210.90625 
z
" style="fill: #ffffff; opacity: 0.8; stroke: #cccccc; stroke-linejoin: miter"/>
    </g>
    <g id="line2d_35">
     <path d="M 712.873125 186.648438 
L 712.873125 186.648438 
L 722.873125 186.648438 
L 722.873125 186.648438 
L 732.873125 186.648438 
" style="fill: none; stroke: #bfbf00; stroke-width: 1.5; stroke-linecap: square"/>
    </g>
    <g id="text_28">
     <!-- Absolute IPC error -->
     <g transform="translate(740.873125 190.148438) scale(0.1 -0.1)">
      <use xlink:href="#DejaVuSans-41"/>
      <use xlink:href="#DejaVuSans-62" x="68.408203"/>
      <use xlink:href="#DejaVuSans-73" x="131.884766"/>
      <use xlink:href="#DejaVuSans-6f" x="183.984375"/>
      <use xlink:href="#DejaVuSans-6c" x="245.166016"/>
      <use xlink:href="#DejaVuSans-75" x="272.949219"/>
      <use xlink:href="#DejaVuSans-74" x="336.328125"/>
      <use xlink:href="#DejaVuSans-65" x="375.537109"/>
      <use xlink:href="#DejaVuSans-20" x="437.060547"/>
      <use xlink:href="#DejaVuSans-49" x="468.847656"/>
      <use xlink:href="#DejaVuSans-50" x="498.339844"/>
      <use xlink:href="#DejaVuSans-43" x="558.642578"/>
      <use xlink:href="#DejaVuSans-20" x="628.466797"/>
      <use xlink:href="#DejaVuSans-65" x="660.253906"/>
      <use xlink:href="#DejaVuSans-72" x="721.777344"/>
      <use xlink:href="#DejaVuSans-72" x="761.140625"/>
      <use xlink:href="#DejaVuSans-6f" x="800.003906"/>
      <use xlink:href="#DejaVuSans-72" x="861.185547"/>
     </g>
    </g>
    <g id="line2d_36">
     <path d="M 712.873125 201.326562 
L 712.873125 201.326562 
L 722.873125 201.326562 
L 722.873125 201.326562 
L 732.873125 201.326562 
" style="fill: none; stroke: #ff0000; stroke-width: 1.5; stroke-linecap: square"/>
    </g>
    <g id="text_29">
     <!-- Distance to cluster centroid -->
     <g transform="translate(740.873125 204.826562) scale(0.1 -0.1)">
      <defs>
       <path id="DejaVuSans-44" d="M 1259 4147 
L 1259 519 
L 2022 519 
Q 2988 519 3436 956 
Q 3884 1394 3884 2338 
Q 3884 3275 3436 3711 
Q 2988 4147 2022 4147 
L 1259 4147 
z
M 628 4666 
L 1925 4666 
Q 3281 4666 3915 4102 
Q 4550 3538 4550 2338 
Q 4550 1131 3912 565 
Q 3275 0 1925 0 
L 628 0 
L 628 4666 
z
" transform="scale(0.015625)"/>
      </defs>
      <use xlink:href="#DejaVuSans-44"/>
      <use xlink:href="#DejaVuSans-69" x="77.001953"/>
      <use xlink:href="#DejaVuSans-73" x="104.785156"/>
      <use xlink:href="#DejaVuSans-74" x="156.884766"/>
      <use xlink:href="#DejaVuSans-61" x="196.09375"/>
      <use xlink:href="#DejaVuSans-6e" x="257.373047"/>
      <use xlink:href="#DejaVuSans-63" x="320.751953"/>
      <use xlink:href="#DejaVuSans-65" x="375.732422"/>
      <use xlink:href="#DejaVuSans-20" x="437.255859"/>
      <use xlink:href="#DejaVuSans-74" x="469.042969"/>
      <use xlink:href="#DejaVuSans-6f" x="508.251953"/>
      <use xlink:href="#DejaVuSans-20" x="569.433594"/>
      <use xlink:href="#DejaVuSans-63" x="601.220703"/>
      <use xlink:href="#DejaVuSans-6c" x="656.201172"/>
      <use xlink:href="#DejaVuSans-75" x="683.984375"/>
      <use xlink:href="#DejaVuSans-73" x="747.363281"/>
      <use xlink:href="#DejaVuSans-74" x="799.462891"/>
      <use xlink:href="#DejaVuSans-65" x="838.671875"/>
      <use xlink:href="#DejaVuSans-72" x="900.195312"/>
      <use xlink:href="#DejaVuSans-20" x="941.308594"/>
      <use xlink:href="#DejaVuSans-63" x="973.095703"/>
      <use xlink:href="#DejaVuSans-65" x="1028.076172"/>
      <use xlink:href="#DejaVuSans-6e" x="1089.599609"/>
      <use xlink:href="#DejaVuSans-74" x="1152.978516"/>
      <use xlink:href="#DejaVuSans-72" x="1192.1875"/>
      <use xlink:href="#DejaVuSans-6f" x="1231.050781"/>
      <use xlink:href="#DejaVuSans-69" x="1292.232422"/>
      <use xlink:href="#DejaVuSans-64" x="1320.015625"/>
     </g>
    </g>
   </g>
  </g>
  <g id="axes_3">
   <g id="matplotlib.axis_5">
    <g id="ytick_14">
     <g id="line2d_37">
      <defs>
       <path id="m8124584da0" d="M 0 0 
L 3.5 0 
" style="stroke: #000000; stroke-width: 0.8"/>
      </defs>
      <g>
       <use xlink:href="#m8124584da0" x="888.22" y="318.04" style="stroke: #000000; stroke-width: 0.8"/>
      </g>
     </g>
     <g id="text_30">
      <!-- 0.0 -->
      <g transform="translate(895.22 321.839219) scale(0.1 -0.1)">
       <use xlink:href="#DejaVuSans-30"/>
       <use xlink:href="#DejaVuSans-2e" x="63.623047"/>
       <use xlink:href="#DejaVuSans-30" x="95.410156"/>
      </g>
     </g>
    </g>
    <g id="ytick_15">
     <g id="line2d_38">
      <g>
       <use xlink:href="#m8124584da0" x="888.22" y="289.142" style="stroke: #000000; stroke-width: 0.8"/>
      </g>
     </g>
     <g id="text_31">
      <!-- 0.5 -->
      <g transform="translate(895.22 292.941219) scale(0.1 -0.1)">
       <use xlink:href="#DejaVuSans-30"/>
       <use xlink:href="#DejaVuSans-2e" x="63.623047"/>
       <use xlink:href="#DejaVuSans-35" x="95.410156"/>
      </g>
     </g>
    </g>
    <g id="ytick_16">
     <g id="line2d_39">
      <g>
       <use xlink:href="#m8124584da0" x="888.22" y="260.244" style="stroke: #000000; stroke-width: 0.8"/>
      </g>
     </g>
     <g id="text_32">
      <!-- 1.0 -->
      <g transform="translate(895.22 264.043219) scale(0.1 -0.1)">
       <use xlink:href="#DejaVuSans-31"/>
       <use xlink:href="#DejaVuSans-2e" x="63.623047"/>
       <use xlink:href="#DejaVuSans-30" x="95.410156"/>
      </g>
     </g>
    </g>
    <g id="ytick_17">
     <g id="line2d_40">
      <g>
       <use xlink:href="#m8124584da0" x="888.22" y="231.346" style="stroke: #000000; stroke-width: 0.8"/>
      </g>
     </g>
     <g id="text_33">
      <!-- 1.5 -->
      <g transform="translate(895.22 235.145219) scale(0.1 -0.1)">
       <use xlink:href="#DejaVuSans-31"/>
       <use xlink:href="#DejaVuSans-2e" x="63.623047"/>
       <use xlink:href="#DejaVuSans-35" x="95.410156"/>
      </g>
     </g>
    </g>
    <g id="ytick_18">
     <g id="line2d_41">
      <g>
       <use xlink:href="#m8124584da0" x="888.22" y="202.448" style="stroke: #000000; stroke-width: 0.8"/>
      </g>
     </g>
     <g id="text_34">
      <!-- 2.0 -->
      <g transform="translate(895.22 206.247219) scale(0.1 -0.1)">
       <use xlink:href="#DejaVuSans-32"/>
       <use xlink:href="#DejaVuSans-2e" x="63.623047"/>
       <use xlink:href="#DejaVuSans-30" x="95.410156"/>
      </g>
     </g>
    </g>
    <g id="ytick_19">
     <g id="line2d_42">
      <g>
       <use xlink:href="#m8124584da0" x="888.22" y="173.55" style="stroke: #000000; stroke-width: 0.8"/>
      </g>
     </g>
     <g id="text_35">
      <!-- 2.5 -->
      <g transform="translate(895.22 177.349219) scale(0.1 -0.1)">
       <use xlink:href="#DejaVuSans-32"/>
       <use xlink:href="#DejaVuSans-2e" x="63.623047"/>
       <use xlink:href="#DejaVuSans-35" x="95.410156"/>
      </g>
     </g>
    </g>
    <g id="text_36">
     <!-- abs(z-score) -->
     <g transform="translate(922.721563 276.400469) rotate(-90) scale(0.1 -0.1)">
      <defs>
       <path id="DejaVuSans-7a" d="M 353 3500 
L 3084 3500 
L 3084 2975 
L 922 459 
L 3084 459 
L 3084 0 
L 275 0 
L 275 525 
L 2438 3041 
L 353 3041 
L 353 3500 
z
" transform="scale(0.015625)"/>
       <path id="DejaVuSans-2d" d="M 313 2009 
L 1997 2009 
L 1997 1497 
L 313 1497 
L 313 2009 
z
" transform="scale(0.015625)"/>
      </defs>
      <use xlink:href="#DejaVuSans-61"/>
      <use xlink:href="#DejaVuSans-62" x="61.279297"/>
      <use xlink:href="#DejaVuSans-73" x="124.755859"/>
      <use xlink:href="#DejaVuSans-28" x="176.855469"/>
      <use xlink:href="#DejaVuSans-7a" x="215.869141"/>
      <use xlink:href="#DejaVuSans-2d" x="268.359375"/>
      <use xlink:href="#DejaVuSans-73" x="304.443359"/>
      <use xlink:href="#DejaVuSans-63" x="356.542969"/>
      <use xlink:href="#DejaVuSans-6f" x="411.523438"/>
      <use xlink:href="#DejaVuSans-72" x="472.705078"/>
      <use xlink:href="#DejaVuSans-65" x="511.568359"/>
      <use xlink:href="#DejaVuSans-29" x="573.091797"/>
     </g>
    </g>
   </g>
   <g id="line2d_43">
    <path d="M -1 300.42462 
L 2.988133 300.42462 
L 2.988133 301.635033 
L 8.590867 301.635033 
L 8.590867 299.888991 
L 14.1936 299.888991 
L 14.1936 301.635033 
L 19.796333 301.635033 
L 19.796333 299.888991 
L 25.399067 299.888991 
L 25.399067 274.042278 
L 31.0018 274.042278 
L 31.0018 314.793868 
L 36.604533 314.793868 
L 36.604533 317.140125 
L 42.207267 317.140125 
L 42.207267 300.018604 
L 47.81 300.018604 
L 47.81 314.132349 
L 53.412733 314.132349 
L 53.412733 295.732728 
L 59.015467 295.732728 
L 59.015467 299.240367 
L 64.6182 299.240367 
L 64.6182 297.013692 
L 70.220933 297.013692 
L 70.220933 295.74132 
L 75.823667 295.74132 
L 75.823667 299.723387 
L 81.4264 299.723387 
L 81.4264 294.286279 
L 98.2346 294.28937 
L 98.2346 245.822233 
L 103.837333 245.822233 
L 103.837333 260.255107 
L 109.440067 260.255107 
L 109.440067 246.755778 
L 115.0428 246.755778 
L 115.0428 301.468055 
L 137.453733 301.541557 
L 137.453733 184.793826 
L 143.056467 184.793826 
L 143.056467 260.246345 
L 148.6592 260.246345 
L 148.6592 297.621276 
L 154.261933 297.621276 
L 154.261933 299.888991 
L 159.864667 299.888991 
L 159.864667 301.635033 
L 171.070133 301.635033 
L 171.070133 299.888991 
L 176.672867 299.888991 
L 176.672867 64.122001 
L 182.2756 64.122001 
L 182.2756 315.495123 
L 187.878333 315.495123 
L 187.878333 298.444128 
L 193.481067 298.444128 
L 193.481067 305.503615 
L 199.0838 305.503615 
L 199.0838 299.929356 
L 204.686533 299.929356 
L 204.686533 302.848493 
L 210.289267 302.848493 
L 210.289267 316.375356 
L 215.892 316.375356 
L 215.892 308.757832 
L 221.494733 308.757832 
L 221.494733 306.506823 
L 227.097467 306.506823 
L 227.097467 245.935011 
L 232.7002 245.935011 
L 232.7002 294.286279 
L 249.5084 294.291961 
L 249.5084 294.954423 
L 255.111133 294.954423 
L 255.111133 248.471792 
L 260.713867 248.471792 
L 260.713867 245.952019 
L 266.3166 245.952019 
L 266.3166 301.754444 
L 277.522067 301.649804 
L 277.522067 301.474533 
L 288.727533 301.458114 
L 288.727533 249.050939 
L 294.330267 249.050939 
L 294.330267 248.750446 
L 299.933 248.750446 
L 299.933 122.40864 
L 305.535733 122.40864 
L 305.535733 299.888991 
L 311.138467 299.888991 
L 311.138467 301.635033 
L 316.7412 301.635033 
L 316.7412 299.888991 
L 322.343933 299.888991 
L 322.343933 301.635033 
L 333.5494 301.635033 
L 333.5494 -1 
M 339.152133 -1 
L 339.152133 302.630151 
L 344.754867 302.630151 
L 344.754867 310.383373 
L 350.3576 310.383373 
L 350.3576 302.200584 
L 355.960333 302.200584 
L 355.960333 313.403667 
L 361.563067 313.403667 
L 361.563067 311.813878 
L 367.1658 311.813878 
L 367.1658 296.992629 
L 372.768533 296.992629 
L 372.768533 308.705694 
L 378.371267 308.705694 
L 378.371267 299.49002 
L 383.974 299.49002 
L 383.974 294.295066 
L 406.384933 294.28937 
L 406.384933 248.569558 
L 411.987667 248.569558 
L 411.987667 260.372009 
L 417.5904 260.372009 
L 417.5904 37.189503 
L 423.193133 37.189503 
L 423.193133 301.495894 
L 445.604067 301.455312 
L 445.604067 300.158813 
L 451.2068 300.158813 
L 451.2068 249.133538 
L 456.809533 249.133538 
L 456.809533 301.635033 
L 468.015 301.635033 
L 468.015 299.888991 
L 473.617733 299.888991 
L 473.617733 301.635033 
L 479.220467 301.635033 
L 479.220467 299.888991 
L 484.8232 299.888991 
L 484.8232 248.141139 
L 490.425933 248.141139 
L 490.425933 308.995177 
L 496.028667 308.995177 
L 496.028667 300.870942 
L 501.6314 300.870942 
L 501.6314 317.101172 
L 507.234133 317.101172 
L 507.234133 298.034461 
L 512.836867 298.034461 
L 512.836867 315.565625 
L 518.4396 315.565625 
L 518.4396 308.151914 
L 524.042333 308.151914 
L 524.042333 297.655367 
L 529.645067 297.655367 
L 529.645067 295.868249 
L 535.2478 295.868249 
L 535.2478 186.794646 
L 540.850533 186.794646 
L 540.850533 294.286279 
L 557.658733 294.296526 
L 557.658733 273.508773 
L 563.261467 273.508773 
L 563.261467 267.657467 
L 568.8642 267.657467 
L 568.8642 274.156546 
L 574.466933 274.156546 
L 574.466933 301.53932 
L 596.877867 301.559873 
L 596.877867 268.774613 
L 602.4806 268.774613 
L 602.4806 267.5149 
L 608.083333 267.5149 
L 608.083333 308.313512 
L 613.686067 308.313512 
L 613.686067 299.888991 
L 619.2888 299.888991 
L 619.2888 301.635033 
L 630.494267 301.635033 
L 630.494267 299.888991 
L 636.097 299.888991 
L 636.097 300.486824 
L 641.699733 300.486824 
L 641.699733 212.038264 
L 647.302467 212.038264 
L 647.302467 297.550208 
L 652.9052 297.550208 
L 652.9052 305.249121 
L 658.507933 305.249121 
L 658.507933 303.691467 
L 664.110667 303.691467 
L 664.110667 302.376969 
L 669.7134 302.376969 
L 669.7134 311.486863 
L 675.316133 311.486863 
L 675.316133 304.350064 
L 680.918867 304.350064 
L 680.918867 301.182422 
L 686.5216 301.182422 
L 686.5216 271.250551 
L 692.124333 271.250551 
L 692.124333 294.286279 
L 714.535267 294.28937 
L 714.535267 270.900774 
L 725.740733 270.910051 
L 725.740733 302.900731 
L 731.343467 302.900731 
L 731.343467 301.54381 
L 748.151667 301.551273 
L 748.151667 273.136583 
L 753.7544 273.136583 
L 753.7544 274.873896 
L 759.357133 274.873896 
L 759.357133 271.071603 
L 764.959867 271.071603 
L 764.959867 299.888991 
L 770.5626 299.888991 
L 770.5626 301.635033 
L 776.165333 301.635033 
L 776.165333 299.888991 
L 781.768067 299.888991 
L 781.768067 301.635033 
L 787.3708 301.635033 
L 787.3708 300.06736 
L 792.973533 300.06736 
L 792.973533 270.354859 
L 798.576267 270.354859 
L 798.576267 314.793868 
L 804.179 314.793868 
L 804.179 316.757582 
L 809.781733 316.757582 
L 809.781733 298.605959 
L 815.384467 298.605959 
L 815.384467 314.083475 
L 820.9872 314.083475 
L 820.9872 295.762118 
L 826.589933 295.762118 
L 826.589933 300.441168 
L 832.192667 300.441168 
L 832.192667 296.423807 
L 837.7954 296.423807 
L 837.7954 295.735395 
L 843.398133 295.735395 
L 843.398133 299.20589 
L 849.000867 299.20589 
L 849.000867 294.286279 
L 865.809067 294.28937 
L 865.809067 249.087189 
L 871.4118 249.087189 
L 871.4118 260.255107 
L 877.014533 260.255107 
L 877.014533 248.63263 
L 882.617267 248.63263 
L 882.617267 301.460119 
L 888.22 301.460119 
L 888.22 301.576617 
L 893.822733 301.576617 
L 893.822733 301.455938 
L 905.0282 301.535906 
L 905.0282 183.79557 
L 910.630933 183.79557 
L 910.630933 260.246345 
L 916.233667 260.246345 
L 916.233667 297.621276 
L 921.8364 297.621276 
L 921.8364 300.26127 
L 927.439133 300.26127 
L 927.439133 301.256756 
L 933.041867 301.256756 
L 933.041867 301.635033 
L 937 301.635033 
L 937 301.635033 
" clip-path="url(#p0f160d9d9d)" style="fill: none; stroke: #ff0000; stroke-width: 1.5; stroke-linecap: square"/>
   </g>
   <g id="patch_14">
    <path d="M 47.81 318.04 
L 47.81 173.55 
" style="fill: none; stroke: #000000; stroke-width: 0.8; stroke-linejoin: miter; stroke-linecap: square"/>
   </g>
   <g id="patch_15">
    <path d="M 888.22 318.04 
L 888.22 173.55 
" style="fill: none; stroke: #000000; stroke-width: 0.8; stroke-linejoin: miter; stroke-linecap: square"/>
   </g>
   <g id="patch_16">
    <path d="M 47.81 318.04 
L 888.22 318.04 
" style="fill: none; stroke: #000000; stroke-width: 0.8; stroke-linejoin: miter; stroke-linecap: square"/>
   </g>
   <g id="patch_17">
    <path d="M 47.81 173.55 
L 888.22 173.55 
" style="fill: none; stroke: #000000; stroke-width: 0.8; stroke-linejoin: miter; stroke-linecap: square"/>
   </g>
  </g>
 </g>
 <defs>
  <clipPath id="p2e64dfd111">
   <rect x="47.81" y="10.8" width="840.41" height="144.49"/>
  </clipPath>
  <clipPath id="p0f160d9d9d">
   <rect x="47.81" y="173.55" width="840.41" height="144.49"/>
  </clipPath>
 </defs>
</svg>
