<?xml version="1.0" encoding="utf-8" standalone="no"?>
<!DOCTYPE svg PUBLIC "-//W3C//DTD SVG 1.1//EN"
  "http://www.w3.org/Graphics/SVG/1.1/DTD/svg11.dtd">
<svg xmlns:xlink="http://www.w3.org/1999/xlink" width="936pt" height="216pt" viewBox="0 0 936 216" xmlns="http://www.w3.org/2000/svg" version="1.1">
 <metadata>
  <rdf:RDF xmlns:dc="http://purl.org/dc/elements/1.1/" xmlns:cc="http://creativecommons.org/ns#" xmlns:rdf="http://www.w3.org/1999/02/22-rdf-syntax-ns#">
   <cc:Work>
    <dc:type rdf:resource="http://purl.org/dc/dcmitype/StillImage"/>
    <dc:date>2024-04-25T20:22:33.530783</dc:date>
    <dc:format>image/svg+xml</dc:format>
    <dc:creator>
     <cc:Agent>
      <dc:title>Matplotlib v3.8.3, https://matplotlib.org/</dc:title>
     </cc:Agent>
    </dc:creator>
   </cc:Work>
  </rdf:RDF>
 </metadata>
 <defs>
  <style type="text/css">*{stroke-linejoin: round; stroke-linecap: butt}</style>
 </defs>
 <g id="figure_1">
  <g id="patch_1">
   <path d="M 0 216 
L 936 216 
L 936 0 
L 0 0 
z
" style="fill: #ffffff"/>
  </g>
  <g id="axes_1">
   <g id="patch_2">
    <path d="M 47.81 174.04 
L 925.2 174.04 
L 925.2 10.8 
L 47.81 10.8 
z
" style="fill: #ffffff"/>
   </g>
   <g id="matplotlib.axis_1">
    <g id="xtick_1">
     <g id="line2d_1">
      <defs>
       <path id="md76f249c16" d="M 0 0 
L 0 3.5 
" style="stroke: #000000; stroke-width: 0.8"/>
      </defs>
      <g>
       <use xlink:href="#md76f249c16" x="85.266961" y="174.04" style="stroke: #000000; stroke-width: 0.8"/>
      </g>
     </g>
     <g id="text_1">
      <!-- 0.0 -->
      <g transform="translate(77.315398 188.638438) scale(0.1 -0.1)">
       <defs>
        <path id="DejaVuSans-30" d="M 2034 4250 
Q 1547 4250 1301 3770 
Q 1056 3291 1056 2328 
Q 1056 1369 1301 889 
Q 1547 409 2034 409 
Q 2525 409 2770 889 
Q 3016 1369 3016 2328 
Q 3016 3291 2770 3770 
Q 2525 4250 2034 4250 
z
M 2034 4750 
Q 2819 4750 3233 4129 
Q 3647 3509 3647 2328 
Q 3647 1150 3233 529 
Q 2819 -91 2034 -91 
Q 1250 -91 836 529 
Q 422 1150 422 2328 
Q 422 3509 836 4129 
Q 1250 4750 2034 4750 
z
" transform="scale(0.015625)"/>
        <path id="DejaVuSans-2e" d="M 684 794 
L 1344 794 
L 1344 0 
L 684 0 
L 684 794 
z
" transform="scale(0.015625)"/>
       </defs>
       <use xlink:href="#DejaVuSans-30"/>
       <use xlink:href="#DejaVuSans-2e" x="63.623047"/>
       <use xlink:href="#DejaVuSans-30" x="95.410156"/>
      </g>
     </g>
    </g>
    <g id="xtick_2">
     <g id="line2d_2">
      <g>
       <use xlink:href="#md76f249c16" x="206.487095" y="174.04" style="stroke: #000000; stroke-width: 0.8"/>
      </g>
     </g>
     <g id="text_2">
      <!-- 0.5 -->
      <g transform="translate(198.535533 188.638438) scale(0.1 -0.1)">
       <defs>
        <path id="DejaVuSans-35" d="M 691 4666 
L 3169 4666 
L 3169 4134 
L 1269 4134 
L 1269 2991 
Q 1406 3038 1543 3061 
Q 1681 3084 1819 3084 
Q 2600 3084 3056 2656 
Q 3513 2228 3513 1497 
Q 3513 744 3044 326 
Q 2575 -91 1722 -91 
Q 1428 -91 1123 -41 
Q 819 9 494 109 
L 494 744 
Q 775 591 1075 516 
Q 1375 441 1709 441 
Q 2250 441 2565 725 
Q 2881 1009 2881 1497 
Q 2881 1984 2565 2268 
Q 2250 2553 1709 2553 
Q 1456 2553 1204 2497 
Q 953 2441 691 2322 
L 691 4666 
z
" transform="scale(0.015625)"/>
       </defs>
       <use xlink:href="#DejaVuSans-30"/>
       <use xlink:href="#DejaVuSans-2e" x="63.623047"/>
       <use xlink:href="#DejaVuSans-35" x="95.410156"/>
      </g>
     </g>
    </g>
    <g id="xtick_3">
     <g id="line2d_3">
      <g>
       <use xlink:href="#md76f249c16" x="327.70723" y="174.04" style="stroke: #000000; stroke-width: 0.8"/>
      </g>
     </g>
     <g id="text_3">
      <!-- 1.0 -->
      <g transform="translate(319.755667 188.638438) scale(0.1 -0.1)">
       <defs>
        <path id="DejaVuSans-31" d="M 794 531 
L 1825 531 
L 1825 4091 
L 703 3866 
L 703 4441 
L 1819 4666 
L 2450 4666 
L 2450 531 
L 3481 531 
L 3481 0 
L 794 0 
L 794 531 
z
" transform="scale(0.015625)"/>
       </defs>
       <use xlink:href="#DejaVuSans-31"/>
       <use xlink:href="#DejaVuSans-2e" x="63.623047"/>
       <use xlink:href="#DejaVuSans-30" x="95.410156"/>
      </g>
     </g>
    </g>
    <g id="xtick_4">
     <g id="line2d_4">
      <g>
       <use xlink:href="#md76f249c16" x="448.927364" y="174.04" style="stroke: #000000; stroke-width: 0.8"/>
      </g>
     </g>
     <g id="text_4">
      <!-- 1.5 -->
      <g transform="translate(440.975802 188.638438) scale(0.1 -0.1)">
       <use xlink:href="#DejaVuSans-31"/>
       <use xlink:href="#DejaVuSans-2e" x="63.623047"/>
       <use xlink:href="#DejaVuSans-35" x="95.410156"/>
      </g>
     </g>
    </g>
    <g id="xtick_5">
     <g id="line2d_5">
      <g>
       <use xlink:href="#md76f249c16" x="570.147499" y="174.04" style="stroke: #000000; stroke-width: 0.8"/>
      </g>
     </g>
     <g id="text_5">
      <!-- 2.0 -->
      <g transform="translate(562.195936 188.638438) scale(0.1 -0.1)">
       <defs>
        <path id="DejaVuSans-32" d="M 1228 531 
L 3431 531 
L 3431 0 
L 469 0 
L 469 531 
Q 828 903 1448 1529 
Q 2069 2156 2228 2338 
Q 2531 2678 2651 2914 
Q 2772 3150 2772 3378 
Q 2772 3750 2511 3984 
Q 2250 4219 1831 4219 
Q 1534 4219 1204 4116 
Q 875 4013 500 3803 
L 500 4441 
Q 881 4594 1212 4672 
Q 1544 4750 1819 4750 
Q 2544 4750 2975 4387 
Q 3406 4025 3406 3419 
Q 3406 3131 3298 2873 
Q 3191 2616 2906 2266 
Q 2828 2175 2409 1742 
Q 1991 1309 1228 531 
z
" transform="scale(0.015625)"/>
       </defs>
       <use xlink:href="#DejaVuSans-32"/>
       <use xlink:href="#DejaVuSans-2e" x="63.623047"/>
       <use xlink:href="#DejaVuSans-30" x="95.410156"/>
      </g>
     </g>
    </g>
    <g id="xtick_6">
     <g id="line2d_6">
      <g>
       <use xlink:href="#md76f249c16" x="691.367633" y="174.04" style="stroke: #000000; stroke-width: 0.8"/>
      </g>
     </g>
     <g id="text_6">
      <!-- 2.5 -->
      <g transform="translate(683.416071 188.638438) scale(0.1 -0.1)">
       <use xlink:href="#DejaVuSans-32"/>
       <use xlink:href="#DejaVuSans-2e" x="63.623047"/>
       <use xlink:href="#DejaVuSans-35" x="95.410156"/>
      </g>
     </g>
    </g>
    <g id="xtick_7">
     <g id="line2d_7">
      <g>
       <use xlink:href="#md76f249c16" x="812.587768" y="174.04" style="stroke: #000000; stroke-width: 0.8"/>
      </g>
     </g>
     <g id="text_7">
      <!-- 3.0 -->
      <g transform="translate(804.636205 188.638438) scale(0.1 -0.1)">
       <defs>
        <path id="DejaVuSans-33" d="M 2597 2516 
Q 3050 2419 3304 2112 
Q 3559 1806 3559 1356 
Q 3559 666 3084 287 
Q 2609 -91 1734 -91 
Q 1441 -91 1130 -33 
Q 819 25 488 141 
L 488 750 
Q 750 597 1062 519 
Q 1375 441 1716 441 
Q 2309 441 2620 675 
Q 2931 909 2931 1356 
Q 2931 1769 2642 2001 
Q 2353 2234 1838 2234 
L 1294 2234 
L 1294 2753 
L 1863 2753 
Q 2328 2753 2575 2939 
Q 2822 3125 2822 3475 
Q 2822 3834 2567 4026 
Q 2313 4219 1838 4219 
Q 1578 4219 1281 4162 
Q 984 4106 628 3988 
L 628 4550 
Q 988 4650 1302 4700 
Q 1616 4750 1894 4750 
Q 2613 4750 3031 4423 
Q 3450 4097 3450 3541 
Q 3450 3153 3228 2886 
Q 3006 2619 2597 2516 
z
" transform="scale(0.015625)"/>
       </defs>
       <use xlink:href="#DejaVuSans-33"/>
       <use xlink:href="#DejaVuSans-2e" x="63.623047"/>
       <use xlink:href="#DejaVuSans-30" x="95.410156"/>
      </g>
     </g>
    </g>
    <g id="text_8">
     <!-- Instructions -->
     <g transform="translate(457.140938 202.316563) scale(0.1 -0.1)">
      <defs>
       <path id="DejaVuSans-49" d="M 628 4666 
L 1259 4666 
L 1259 0 
L 628 0 
L 628 4666 
z
" transform="scale(0.015625)"/>
       <path id="DejaVuSans-6e" d="M 3513 2113 
L 3513 0 
L 2938 0 
L 2938 2094 
Q 2938 2591 2744 2837 
Q 2550 3084 2163 3084 
Q 1697 3084 1428 2787 
Q 1159 2491 1159 1978 
L 1159 0 
L 581 0 
L 581 3500 
L 1159 3500 
L 1159 2956 
Q 1366 3272 1645 3428 
Q 1925 3584 2291 3584 
Q 2894 3584 3203 3211 
Q 3513 2838 3513 2113 
z
" transform="scale(0.015625)"/>
       <path id="DejaVuSans-73" d="M 2834 3397 
L 2834 2853 
Q 2591 2978 2328 3040 
Q 2066 3103 1784 3103 
Q 1356 3103 1142 2972 
Q 928 2841 928 2578 
Q 928 2378 1081 2264 
Q 1234 2150 1697 2047 
L 1894 2003 
Q 2506 1872 2764 1633 
Q 3022 1394 3022 966 
Q 3022 478 2636 193 
Q 2250 -91 1575 -91 
Q 1294 -91 989 -36 
Q 684 19 347 128 
L 347 722 
Q 666 556 975 473 
Q 1284 391 1588 391 
Q 1994 391 2212 530 
Q 2431 669 2431 922 
Q 2431 1156 2273 1281 
Q 2116 1406 1581 1522 
L 1381 1569 
Q 847 1681 609 1914 
Q 372 2147 372 2553 
Q 372 3047 722 3315 
Q 1072 3584 1716 3584 
Q 2034 3584 2315 3537 
Q 2597 3491 2834 3397 
z
" transform="scale(0.015625)"/>
       <path id="DejaVuSans-74" d="M 1172 4494 
L 1172 3500 
L 2356 3500 
L 2356 3053 
L 1172 3053 
L 1172 1153 
Q 1172 725 1289 603 
Q 1406 481 1766 481 
L 2356 481 
L 2356 0 
L 1766 0 
Q 1100 0 847 248 
Q 594 497 594 1153 
L 594 3053 
L 172 3053 
L 172 3500 
L 594 3500 
L 594 4494 
L 1172 4494 
z
" transform="scale(0.015625)"/>
       <path id="DejaVuSans-72" d="M 2631 2963 
Q 2534 3019 2420 3045 
Q 2306 3072 2169 3072 
Q 1681 3072 1420 2755 
Q 1159 2438 1159 1844 
L 1159 0 
L 581 0 
L 581 3500 
L 1159 3500 
L 1159 2956 
Q 1341 3275 1631 3429 
Q 1922 3584 2338 3584 
Q 2397 3584 2469 3576 
Q 2541 3569 2628 3553 
L 2631 2963 
z
" transform="scale(0.015625)"/>
       <path id="DejaVuSans-75" d="M 544 1381 
L 544 3500 
L 1119 3500 
L 1119 1403 
Q 1119 906 1312 657 
Q 1506 409 1894 409 
Q 2359 409 2629 706 
Q 2900 1003 2900 1516 
L 2900 3500 
L 3475 3500 
L 3475 0 
L 2900 0 
L 2900 538 
Q 2691 219 2414 64 
Q 2138 -91 1772 -91 
Q 1169 -91 856 284 
Q 544 659 544 1381 
z
M 1991 3584 
L 1991 3584 
z
" transform="scale(0.015625)"/>
       <path id="DejaVuSans-63" d="M 3122 3366 
L 3122 2828 
Q 2878 2963 2633 3030 
Q 2388 3097 2138 3097 
Q 1578 3097 1268 2742 
Q 959 2388 959 1747 
Q 959 1106 1268 751 
Q 1578 397 2138 397 
Q 2388 397 2633 464 
Q 2878 531 3122 666 
L 3122 134 
Q 2881 22 2623 -34 
Q 2366 -91 2075 -91 
Q 1284 -91 818 406 
Q 353 903 353 1747 
Q 353 2603 823 3093 
Q 1294 3584 2113 3584 
Q 2378 3584 2631 3529 
Q 2884 3475 3122 3366 
z
" transform="scale(0.015625)"/>
       <path id="DejaVuSans-69" d="M 603 3500 
L 1178 3500 
L 1178 0 
L 603 0 
L 603 3500 
z
M 603 4863 
L 1178 4863 
L 1178 4134 
L 603 4134 
L 603 4863 
z
" transform="scale(0.015625)"/>
       <path id="DejaVuSans-6f" d="M 1959 3097 
Q 1497 3097 1228 2736 
Q 959 2375 959 1747 
Q 959 1119 1226 758 
Q 1494 397 1959 397 
Q 2419 397 2687 759 
Q 2956 1122 2956 1747 
Q 2956 2369 2687 2733 
Q 2419 3097 1959 3097 
z
M 1959 3584 
Q 2709 3584 3137 3096 
Q 3566 2609 3566 1747 
Q 3566 888 3137 398 
Q 2709 -91 1959 -91 
Q 1206 -91 779 398 
Q 353 888 353 1747 
Q 353 2609 779 3096 
Q 1206 3584 1959 3584 
z
" transform="scale(0.015625)"/>
      </defs>
      <use xlink:href="#DejaVuSans-49"/>
      <use xlink:href="#DejaVuSans-6e" x="29.492188"/>
      <use xlink:href="#DejaVuSans-73" x="92.871094"/>
      <use xlink:href="#DejaVuSans-74" x="144.970703"/>
      <use xlink:href="#DejaVuSans-72" x="184.179688"/>
      <use xlink:href="#DejaVuSans-75" x="225.292969"/>
      <use xlink:href="#DejaVuSans-63" x="288.671875"/>
      <use xlink:href="#DejaVuSans-74" x="343.652344"/>
      <use xlink:href="#DejaVuSans-69" x="382.861328"/>
      <use xlink:href="#DejaVuSans-6f" x="410.644531"/>
      <use xlink:href="#DejaVuSans-6e" x="471.826172"/>
      <use xlink:href="#DejaVuSans-73" x="535.205078"/>
     </g>
    </g>
    <g id="text_9">
     <!-- 1e6 -->
     <g transform="translate(906.321875 201.316563) scale(0.1 -0.1)">
      <defs>
       <path id="DejaVuSans-65" d="M 3597 1894 
L 3597 1613 
L 953 1613 
Q 991 1019 1311 708 
Q 1631 397 2203 397 
Q 2534 397 2845 478 
Q 3156 559 3463 722 
L 3463 178 
Q 3153 47 2828 -22 
Q 2503 -91 2169 -91 
Q 1331 -91 842 396 
Q 353 884 353 1716 
Q 353 2575 817 3079 
Q 1281 3584 2069 3584 
Q 2775 3584 3186 3129 
Q 3597 2675 3597 1894 
z
M 3022 2063 
Q 3016 2534 2758 2815 
Q 2500 3097 2075 3097 
Q 1594 3097 1305 2825 
Q 1016 2553 972 2059 
L 3022 2063 
z
" transform="scale(0.015625)"/>
       <path id="DejaVuSans-36" d="M 2113 2584 
Q 1688 2584 1439 2293 
Q 1191 2003 1191 1497 
Q 1191 994 1439 701 
Q 1688 409 2113 409 
Q 2538 409 2786 701 
Q 3034 994 3034 1497 
Q 3034 2003 2786 2293 
Q 2538 2584 2113 2584 
z
M 3366 4563 
L 3366 3988 
Q 3128 4100 2886 4159 
Q 2644 4219 2406 4219 
Q 1781 4219 1451 3797 
Q 1122 3375 1075 2522 
Q 1259 2794 1537 2939 
Q 1816 3084 2150 3084 
Q 2853 3084 3261 2657 
Q 3669 2231 3669 1497 
Q 3669 778 3244 343 
Q 2819 -91 2113 -91 
Q 1303 -91 875 529 
Q 447 1150 447 2328 
Q 447 3434 972 4092 
Q 1497 4750 2381 4750 
Q 2619 4750 2861 4703 
Q 3103 4656 3366 4563 
z
" transform="scale(0.015625)"/>
      </defs>
      <use xlink:href="#DejaVuSans-31"/>
      <use xlink:href="#DejaVuSans-65" x="63.623047"/>
      <use xlink:href="#DejaVuSans-36" x="125.146484"/>
     </g>
    </g>
   </g>
   <g id="matplotlib.axis_2">
    <g id="ytick_1">
     <g id="line2d_8">
      <defs>
       <path id="mb6f2ab3821" d="M 0 0 
L -3.5 0 
" style="stroke: #000000; stroke-width: 0.8"/>
      </defs>
      <g>
       <use xlink:href="#mb6f2ab3821" x="47.81" y="167.24856" style="stroke: #000000; stroke-width: 0.8"/>
      </g>
     </g>
     <g id="text_10">
      <!-- 0.5 -->
      <g transform="translate(24.906875 171.047779) scale(0.1 -0.1)">
       <use xlink:href="#DejaVuSans-30"/>
       <use xlink:href="#DejaVuSans-2e" x="63.623047"/>
       <use xlink:href="#DejaVuSans-35" x="95.410156"/>
      </g>
     </g>
    </g>
    <g id="ytick_2">
     <g id="line2d_9">
      <g>
       <use xlink:href="#mb6f2ab3821" x="47.81" y="137.442848" style="stroke: #000000; stroke-width: 0.8"/>
      </g>
     </g>
     <g id="text_11">
      <!-- 0.6 -->
      <g transform="translate(24.906875 141.242067) scale(0.1 -0.1)">
       <use xlink:href="#DejaVuSans-30"/>
       <use xlink:href="#DejaVuSans-2e" x="63.623047"/>
       <use xlink:href="#DejaVuSans-36" x="95.410156"/>
      </g>
     </g>
    </g>
    <g id="ytick_3">
     <g id="line2d_10">
      <g>
       <use xlink:href="#mb6f2ab3821" x="47.81" y="107.637136" style="stroke: #000000; stroke-width: 0.8"/>
      </g>
     </g>
     <g id="text_12">
      <!-- 0.7 -->
      <g transform="translate(24.906875 111.436355) scale(0.1 -0.1)">
       <defs>
        <path id="DejaVuSans-37" d="M 525 4666 
L 3525 4666 
L 3525 4397 
L 1831 0 
L 1172 0 
L 2766 4134 
L 525 4134 
L 525 4666 
z
" transform="scale(0.015625)"/>
       </defs>
       <use xlink:href="#DejaVuSans-30"/>
       <use xlink:href="#DejaVuSans-2e" x="63.623047"/>
       <use xlink:href="#DejaVuSans-37" x="95.410156"/>
      </g>
     </g>
    </g>
    <g id="ytick_4">
     <g id="line2d_11">
      <g>
       <use xlink:href="#mb6f2ab3821" x="47.81" y="77.831424" style="stroke: #000000; stroke-width: 0.8"/>
      </g>
     </g>
     <g id="text_13">
      <!-- 0.8 -->
      <g transform="translate(24.906875 81.630643) scale(0.1 -0.1)">
       <defs>
        <path id="DejaVuSans-38" d="M 2034 2216 
Q 1584 2216 1326 1975 
Q 1069 1734 1069 1313 
Q 1069 891 1326 650 
Q 1584 409 2034 409 
Q 2484 409 2743 651 
Q 3003 894 3003 1313 
Q 3003 1734 2745 1975 
Q 2488 2216 2034 2216 
z
M 1403 2484 
Q 997 2584 770 2862 
Q 544 3141 544 3541 
Q 544 4100 942 4425 
Q 1341 4750 2034 4750 
Q 2731 4750 3128 4425 
Q 3525 4100 3525 3541 
Q 3525 3141 3298 2862 
Q 3072 2584 2669 2484 
Q 3125 2378 3379 2068 
Q 3634 1759 3634 1313 
Q 3634 634 3220 271 
Q 2806 -91 2034 -91 
Q 1263 -91 848 271 
Q 434 634 434 1313 
Q 434 1759 690 2068 
Q 947 2378 1403 2484 
z
M 1172 3481 
Q 1172 3119 1398 2916 
Q 1625 2713 2034 2713 
Q 2441 2713 2670 2916 
Q 2900 3119 2900 3481 
Q 2900 3844 2670 4047 
Q 2441 4250 2034 4250 
Q 1625 4250 1398 4047 
Q 1172 3844 1172 3481 
z
" transform="scale(0.015625)"/>
       </defs>
       <use xlink:href="#DejaVuSans-30"/>
       <use xlink:href="#DejaVuSans-2e" x="63.623047"/>
       <use xlink:href="#DejaVuSans-38" x="95.410156"/>
      </g>
     </g>
    </g>
    <g id="ytick_5">
     <g id="line2d_12">
      <g>
       <use xlink:href="#mb6f2ab3821" x="47.81" y="48.025712" style="stroke: #000000; stroke-width: 0.8"/>
      </g>
     </g>
     <g id="text_14">
      <!-- 0.9 -->
      <g transform="translate(24.906875 51.824931) scale(0.1 -0.1)">
       <defs>
        <path id="DejaVuSans-39" d="M 703 97 
L 703 672 
Q 941 559 1184 500 
Q 1428 441 1663 441 
Q 2288 441 2617 861 
Q 2947 1281 2994 2138 
Q 2813 1869 2534 1725 
Q 2256 1581 1919 1581 
Q 1219 1581 811 2004 
Q 403 2428 403 3163 
Q 403 3881 828 4315 
Q 1253 4750 1959 4750 
Q 2769 4750 3195 4129 
Q 3622 3509 3622 2328 
Q 3622 1225 3098 567 
Q 2575 -91 1691 -91 
Q 1453 -91 1209 -44 
Q 966 3 703 97 
z
M 1959 2075 
Q 2384 2075 2632 2365 
Q 2881 2656 2881 3163 
Q 2881 3666 2632 3958 
Q 2384 4250 1959 4250 
Q 1534 4250 1286 3958 
Q 1038 3666 1038 3163 
Q 1038 2656 1286 2365 
Q 1534 2075 1959 2075 
z
" transform="scale(0.015625)"/>
       </defs>
       <use xlink:href="#DejaVuSans-30"/>
       <use xlink:href="#DejaVuSans-2e" x="63.623047"/>
       <use xlink:href="#DejaVuSans-39" x="95.410156"/>
      </g>
     </g>
    </g>
    <g id="ytick_6">
     <g id="line2d_13">
      <g>
       <use xlink:href="#mb6f2ab3821" x="47.81" y="18.22" style="stroke: #000000; stroke-width: 0.8"/>
      </g>
     </g>
     <g id="text_15">
      <!-- 1.0 -->
      <g transform="translate(24.906875 22.019219) scale(0.1 -0.1)">
       <use xlink:href="#DejaVuSans-31"/>
       <use xlink:href="#DejaVuSans-2e" x="63.623047"/>
       <use xlink:href="#DejaVuSans-30" x="95.410156"/>
      </g>
     </g>
    </g>
    <g id="text_16">
     <!-- IPC -->
     <g transform="translate(18.827188 100.40125) rotate(-90) scale(0.1 -0.1)">
      <defs>
       <path id="DejaVuSans-50" d="M 1259 4147 
L 1259 2394 
L 2053 2394 
Q 2494 2394 2734 2622 
Q 2975 2850 2975 3272 
Q 2975 3691 2734 3919 
Q 2494 4147 2053 4147 
L 1259 4147 
z
M 628 4666 
L 2053 4666 
Q 2838 4666 3239 4311 
Q 3641 3956 3641 3272 
Q 3641 2581 3239 2228 
Q 2838 1875 2053 1875 
L 1259 1875 
L 1259 0 
L 628 0 
L 628 4666 
z
" transform="scale(0.015625)"/>
       <path id="DejaVuSans-43" d="M 4122 4306 
L 4122 3641 
Q 3803 3938 3442 4084 
Q 3081 4231 2675 4231 
Q 1875 4231 1450 3742 
Q 1025 3253 1025 2328 
Q 1025 1406 1450 917 
Q 1875 428 2675 428 
Q 3081 428 3442 575 
Q 3803 722 4122 1019 
L 4122 359 
Q 3791 134 3420 21 
Q 3050 -91 2638 -91 
Q 1578 -91 968 557 
Q 359 1206 359 2328 
Q 359 3453 968 4101 
Q 1578 4750 2638 4750 
Q 3056 4750 3426 4639 
Q 3797 4528 4122 4306 
z
" transform="scale(0.015625)"/>
      </defs>
      <use xlink:href="#DejaVuSans-49"/>
      <use xlink:href="#DejaVuSans-50" x="29.492188"/>
      <use xlink:href="#DejaVuSans-43" x="89.794922"/>
     </g>
    </g>
   </g>
   <g id="line2d_14">
    <path d="M 87.691364 62.289148 
L 94.964572 62.289148 
L 94.964572 70.504293 
L 97.388974 70.504293 
L 97.388974 101.111825 
L 99.813377 101.111825 
L 99.813377 110.502496 
L 102.23778 110.502496 
L 102.23778 81.616629 
L 111.935391 81.616629 
L 111.935391 73.508837 
L 114.359793 73.508837 
L 114.359793 105.052052 
L 116.784196 105.052052 
L 116.784196 33.396652 
L 131.330612 33.396652 
L 131.330612 87.584584 
L 150.725834 87.584584 
L 150.725834 90.890263 
L 153.150236 90.890263 
L 153.150236 62.289148 
L 162.847847 62.289148 
L 162.847847 103.761171 
L 165.27225 103.761171 
L 165.27225 110.558154 
L 167.696652 110.558154 
L 167.696652 81.616629 
L 179.818666 81.616629 
L 179.818666 62.289148 
L 182.243069 62.289148 
L 182.243069 52.190315 
L 184.667471 52.190315 
L 184.667471 33.396652 
L 196.789485 33.396652 
L 196.789485 95.853893 
L 199.213887 95.853893 
L 199.213887 87.584584 
L 218.609109 87.584584 
L 218.609109 62.289148 
L 228.30672 62.289148 
L 228.30672 70.504293 
L 230.731122 70.504293 
L 230.731122 90.062137 
L 233.155525 90.062137 
L 233.155525 110.502496 
L 235.579928 110.502496 
L 235.579928 81.616629 
L 245.277538 81.616629 
L 245.277538 62.289148 
L 247.701941 62.289148 
L 247.701941 92.196009 
L 250.126344 92.196009 
L 250.126344 33.396652 
L 264.67276 33.396652 
L 264.67276 87.584584 
L 284.067982 87.584584 
L 284.067982 90.890263 
L 286.492384 90.890263 
L 286.492384 62.289148 
L 296.189995 62.289148 
L 296.189995 101.111825 
L 298.614398 101.111825 
L 298.614398 110.558154 
L 301.0388 110.558154 
L 301.0388 81.616629 
L 310.736411 81.616629 
L 310.736411 73.508837 
L 313.160814 73.508837 
L 313.160814 105.052052 
L 315.585216 105.052052 
L 315.585216 33.396652 
L 330.131633 33.396652 
L 330.131633 99.844426 
L 332.556035 99.844426 
L 332.556035 87.584584 
L 351.951257 87.584584 
L 351.951257 62.289148 
L 361.648868 62.289148 
L 361.648868 103.761171 
L 364.07327 103.761171 
L 364.07327 90.062137 
L 366.497673 90.062137 
L 366.497673 110.502496 
L 368.922076 110.502496 
L 368.922076 81.616629 
L 378.619686 81.616629 
L 378.619686 62.289148 
L 381.044089 62.289148 
L 381.044089 52.190315 
L 383.468492 52.190315 
L 383.468492 33.396652 
L 395.590505 33.396652 
L 395.590505 95.853893 
L 398.014908 95.853893 
L 398.014908 87.584584 
L 417.410129 87.584584 
L 417.410129 62.289148 
L 427.10774 62.289148 
L 427.10774 70.504293 
L 429.532143 70.504293 
L 429.532143 101.111825 
L 431.956546 101.111825 
L 431.956546 110.502496 
L 434.380948 110.502496 
L 434.380948 81.616629 
L 444.078559 81.616629 
L 444.078559 73.508837 
L 446.502962 73.508837 
L 446.502962 105.052052 
L 448.927364 105.052052 
L 448.927364 33.396652 
L 463.473781 33.396652 
L 463.473781 87.584584 
L 482.869002 87.584584 
L 482.869002 90.890263 
L 485.293405 90.890263 
L 485.293405 62.289148 
L 494.991016 62.289148 
L 494.991016 103.761171 
L 497.415418 103.761171 
L 497.415418 110.558154 
L 499.839821 110.558154 
L 499.839821 81.616629 
L 511.961834 81.616629 
L 511.961834 62.289148 
L 514.386237 62.289148 
L 514.386237 52.190315 
L 516.81064 52.190315 
L 516.81064 33.396652 
L 528.932653 33.396652 
L 528.932653 95.853893 
L 531.357056 95.853893 
L 531.357056 87.584584 
L 550.752277 87.584584 
L 550.752277 62.289148 
L 560.449888 62.289148 
L 560.449888 70.504293 
L 562.874291 70.504293 
L 562.874291 90.062137 
L 565.298694 90.062137 
L 565.298694 110.502496 
L 567.723096 110.502496 
L 567.723096 81.616629 
L 577.420707 81.616629 
L 577.420707 62.289148 
L 579.84511 62.289148 
L 579.84511 92.196009 
L 582.269512 92.196009 
L 582.269512 33.396652 
L 596.815928 33.396652 
L 596.815928 87.584584 
L 616.21115 87.584584 
L 616.21115 90.890263 
L 618.635553 90.890263 
L 618.635553 62.289148 
L 628.333163 62.289148 
L 628.333163 101.111825 
L 630.757566 101.111825 
L 630.757566 110.558154 
L 633.181969 110.558154 
L 633.181969 81.616629 
L 642.87958 81.616629 
L 642.87958 73.508837 
L 645.303982 73.508837 
L 645.303982 105.052052 
L 647.728385 105.052052 
L 647.728385 33.396652 
L 662.274801 33.396652 
L 662.274801 99.844426 
L 664.699204 99.844426 
L 664.699204 87.584584 
L 684.094425 87.584584 
L 684.094425 62.289148 
L 693.792036 62.289148 
L 693.792036 103.761171 
L 696.216439 103.761171 
L 696.216439 90.062137 
L 698.640841 90.062137 
L 698.640841 110.502496 
L 701.065244 110.502496 
L 701.065244 81.616629 
L 710.762855 81.616629 
L 710.762855 62.289148 
L 713.187258 62.289148 
L 713.187258 52.190315 
L 715.61166 52.190315 
L 715.61166 33.396652 
L 727.733674 33.396652 
L 727.733674 95.853893 
L 730.158076 95.853893 
L 730.158076 87.584584 
L 749.553298 87.584584 
L 749.553298 62.289148 
L 759.250909 62.289148 
L 759.250909 70.504293 
L 761.675311 70.504293 
L 761.675311 101.111825 
L 764.099714 101.111825 
L 764.099714 110.502496 
L 766.524117 110.502496 
L 766.524117 81.616629 
L 776.221728 81.616629 
L 776.221728 73.508837 
L 778.64613 73.508837 
L 778.64613 105.052052 
L 781.070533 105.052052 
L 781.070533 33.396652 
L 795.616949 33.396652 
L 795.616949 87.584584 
L 815.012171 87.584584 
L 815.012171 90.890263 
L 817.436573 90.890263 
L 817.436573 62.289148 
L 827.134184 62.289148 
L 827.134184 103.761171 
L 829.558587 103.761171 
L 829.558587 110.558154 
L 831.982989 110.558154 
L 831.982989 81.616629 
L 844.105003 81.616629 
L 844.105003 62.289148 
L 846.529406 62.289148 
L 846.529406 52.190315 
L 848.953808 52.190315 
L 848.953808 33.396652 
L 861.075822 33.396652 
L 861.075822 95.853893 
L 863.500224 95.853893 
L 863.500224 87.584584 
L 882.895446 87.584584 
L 882.895446 119.855678 
L 885.318636 119.855678 
L 885.318636 119.855678 
" clip-path="url(#p72763b8752)" style="fill: none; stroke: #0000ff; stroke-width: 1.5; stroke-linecap: square"/>
   </g>
   <g id="line2d_15">
    <path d="M 87.691364 166.62 
L 87.691364 67.002954 
L 90.115766 67.002954 
L 90.115766 71.466344 
L 92.540169 71.466344 
L 92.540169 74.269065 
L 94.964572 74.269065 
L 94.964572 75.908475 
L 97.388974 75.908475 
L 97.388974 90.459164 
L 99.813377 90.459164 
L 99.813377 87.618033 
L 102.23778 87.618033 
L 102.23778 79.366604 
L 104.662182 79.366604 
L 104.662182 82.378415 
L 107.086585 82.378415 
L 107.086585 80.49109 
L 109.510988 80.49109 
L 109.510988 81.438544 
L 111.935391 81.438544 
L 111.935391 78.781407 
L 114.359793 78.781407 
L 114.359793 70.071007 
L 116.784196 70.071007 
L 116.784196 31.30043 
L 119.208599 31.30043 
L 119.208599 28.2714 
L 124.057404 28.299226 
L 124.057404 27.964951 
L 126.481807 27.964951 
L 126.481807 28.826913 
L 128.906209 28.826913 
L 128.906209 30.644997 
L 131.330612 30.644997 
L 131.330612 86.170488 
L 133.755015 86.170488 
L 133.755015 86.347999 
L 136.179417 86.347999 
L 136.179417 83.128559 
L 138.60382 83.128559 
L 138.60382 87.213855 
L 141.028223 87.213855 
L 141.028223 85.117573 
L 143.452626 85.117573 
L 143.452626 83.656251 
L 145.877028 83.656251 
L 145.877028 85.832462 
L 148.301431 85.832462 
L 148.301431 88.160543 
L 150.725834 88.160543 
L 150.725834 86.772908 
L 153.150236 86.772908 
L 153.150236 33.248804 
L 155.574639 33.248804 
L 155.574639 54.823506 
L 157.999042 54.823506 
L 157.999042 46.54217 
L 160.423444 46.54217 
L 160.423444 32.142592 
L 162.847847 32.142592 
L 162.847847 60.938201 
L 165.27225 60.938201 
L 165.27225 63.836093 
L 167.696652 63.836093 
L 167.696652 79.064927 
L 170.121055 79.064927 
L 170.121055 80.061301 
L 172.545458 80.061301 
L 172.545458 80.900732 
L 174.96986 80.900732 
L 174.96986 81.512533 
L 177.394263 81.512533 
L 177.394263 79.629943 
L 179.818666 79.629943 
L 179.818666 47.199644 
L 182.243069 47.199644 
L 182.243069 35.51495 
L 184.667471 35.51495 
L 184.667471 28.21573 
L 189.516277 28.243568 
L 189.516277 30.178905 
L 191.940679 30.178905 
L 191.940679 28.2714 
L 196.789485 28.2714 
L 196.789485 61.06938 
L 199.213887 61.06938 
L 199.213887 87.407336 
L 201.63829 87.407336 
L 201.63829 85.51131 
L 204.062693 85.51131 
L 204.062693 84.90224 
L 206.487095 84.90224 
L 206.487095 85.40406 
L 208.911498 85.40406 
L 208.911498 87.002412 
L 211.335901 87.002412 
L 211.335901 84.19963 
L 213.760304 84.19963 
L 213.760304 85.063777 
L 216.184706 85.063777 
L 216.184706 86.010494 
L 218.609109 86.010494 
L 218.609109 42.553987 
L 221.033512 42.553987 
L 221.033512 32.142592 
L 223.457914 32.142592 
L 223.457914 28.743722 
L 225.882317 28.743722 
L 225.882317 25.006603 
L 228.30672 25.006603 
L 228.30672 34.931906 
L 230.731122 34.931906 
L 230.731122 61.831909 
L 233.155525 61.831909 
L 233.155525 70.720092 
L 235.579928 70.720092 
L 235.579928 79.460721 
L 238.00433 79.460721 
L 238.00433 81.531022 
L 240.428733 81.531022 
L 240.428733 81.123574 
L 242.853136 81.123574 
L 242.853136 80.640216 
L 245.277538 80.640216 
L 245.277538 52.205958 
L 247.701941 52.205958 
L 247.701941 44.995496 
L 250.126344 44.995496 
L 250.126344 28.882346 
L 252.550747 28.882346 
L 252.550747 27.881261 
L 254.975149 27.881261 
L 254.975149 28.327048 
L 257.399552 28.327048 
L 257.399552 28.21573 
L 259.823955 28.21573 
L 259.823955 28.104327 
L 262.248357 28.104327 
L 262.248357 35.567834 
L 264.67276 35.567834 
L 264.67276 87.512733 
L 267.097163 87.512733 
L 267.097163 83.74699 
L 269.521565 83.74699 
L 269.521565 84.830374 
L 271.945968 84.830374 
L 271.945968 85.992704 
L 274.370371 85.992704 
L 274.370371 84.650511 
L 276.794773 84.650511 
L 276.794773 85.081712 
L 279.219176 85.081712 
L 279.219176 85.796823 
L 281.643579 85.796823 
L 281.643579 85.51131 
L 284.067982 85.51131 
L 284.067982 64.518424 
L 286.492384 64.518424 
L 286.492384 19.318746 
L 288.916787 19.318746 
L 288.916787 24.121543 
L 291.34119 24.121543 
L 291.34119 26.140724 
L 293.765592 26.140724 
L 293.765592 20.702824 
L 296.189995 20.702824 
L 296.189995 55.006853 
L 298.614398 55.006853 
L 298.614398 62.762516 
L 301.0388 62.762516 
L 301.0388 80.098736 
L 303.463203 80.098736 
L 303.463203 80.696089 
L 305.887606 80.696089 
L 305.887606 81.844904 
L 308.312008 81.844904 
L 308.312008 80.173571 
L 310.736411 80.173571 
L 310.736411 70.111676 
L 313.160814 70.111676 
L 313.160814 38.704835 
L 315.585216 38.704835 
L 315.585216 32.034206 
L 318.009619 32.034206 
L 318.009619 28.048593 
L 322.858425 28.132186 
L 322.858425 28.438279 
L 325.282827 28.438279 
L 325.282827 28.104327 
L 327.70723 28.104327 
L 327.70723 28.21573 
L 330.131633 28.21573 
L 330.131633 71.687328 
L 332.556035 71.687328 
L 332.556035 86.666828 
L 334.980438 86.666828 
L 334.980438 83.8014 
L 337.404841 83.8014 
L 337.404841 86.48981 
L 339.829243 86.48981 
L 339.829243 85.654155 
L 342.253646 85.654155 
L 342.253646 84.524441 
L 344.678049 84.524441 
L 344.678049 83.855785 
L 347.102451 83.855785 
L 347.102451 86.312518 
L 349.526854 86.312518 
L 349.526854 87.653111 
L 351.951257 87.653111 
L 351.951257 22.219188 
L 354.37566 22.219188 
L 354.37566 21.521266 
L 356.800062 21.521266 
L 356.800062 18.57724 
L 359.224465 18.57724 
L 359.224465 23.834891 
L 361.648868 23.834891 
L 361.648868 36.437556 
L 364.07327 36.437556 
L 364.07327 64.135068 
L 366.497673 64.135068 
L 366.497673 72.128103 
L 368.922076 72.128103 
L 368.922076 79.798923 
L 371.346478 79.798923 
L 371.346478 80.192272 
L 373.770881 80.192272 
L 373.770881 81.36451 
L 376.195284 81.36451 
L 376.195284 81.567993 
L 378.619686 81.567993 
L 378.619686 34.692689 
L 381.044089 34.692689 
L 381.044089 43.904718 
L 383.468492 43.904718 
L 383.468492 28.410479 
L 385.892894 28.410479 
L 385.892894 28.187887 
L 388.317297 28.187887 
L 388.317297 28.048593 
L 390.7417 28.048593 
L 390.7417 28.521646 
L 393.166103 28.521646 
L 393.166103 27.769599 
L 395.590505 27.769599 
L 395.590505 49.940671 
L 398.014908 49.940671 
L 398.014908 86.843574 
L 400.439311 86.843574 
L 400.439311 85.493442 
L 402.863713 85.493442 
L 402.863713 83.383605 
L 405.288116 83.383605 
L 405.288116 84.560475 
L 407.712519 84.560475 
L 407.712519 85.368288 
L 410.136921 85.368288 
L 410.136921 84.974062 
L 412.561324 84.974062 
L 412.561324 85.314609 
L 414.985727 85.314609 
L 414.985727 84.974062 
L 417.410129 84.974062 
L 417.410129 58.442241 
L 419.834532 58.442241 
L 419.834532 18.22 
L 422.258935 18.22 
L 422.258935 21.433792 
L 424.683338 21.433792 
L 424.683338 22.595851 
L 427.10774 22.595851 
L 427.10774 27.93706 
L 429.532143 27.93706 
L 429.532143 59.020845 
L 431.956546 59.020845 
L 431.956546 69.663584 
L 434.380948 69.663584 
L 434.380948 79.780159 
L 436.805351 79.780159 
L 436.805351 80.677468 
L 439.229754 80.677468 
L 439.229754 81.142125 
L 441.654156 81.142125 
L 441.654156 80.584316 
L 444.078559 80.584316 
L 444.078559 57.659228 
L 446.502962 57.659228 
L 446.502962 40.655592 
L 448.927364 40.655592 
L 448.927364 30.617622 
L 451.351767 30.617622 
L 451.351767 27.881261 
L 453.77617 27.881261 
L 453.77617 28.410479 
L 456.200572 28.410479 
L 456.200572 28.2714 
L 463.473781 28.21573 
L 463.473781 82.065962 
L 465.898183 82.065962 
L 465.898183 85.260905 
L 468.322586 85.260905 
L 468.322586 83.946369 
L 470.746989 83.946369 
L 470.746989 86.436651 
L 473.171391 86.436651 
L 473.171391 84.9202 
L 475.595794 84.9202 
L 475.595794 83.819531 
L 478.020197 83.819531 
L 478.020197 86.010494 
L 480.444599 86.010494 
L 480.444599 85.368288 
L 482.869002 85.368288 
L 482.869002 78.041072 
L 485.293405 78.041072 
L 485.293405 18.398727 
L 487.717807 18.398727 
L 487.717807 21.608687 
L 490.14221 21.608687 
L 490.14221 18.57724 
L 492.566613 18.57724 
L 492.566613 22.103097 
L 494.991016 22.103097 
L 494.991016 48.769383 
L 497.415418 48.769383 
L 497.415418 63.921587 
L 499.839821 63.921587 
L 499.839821 77.430161 
L 502.264224 77.430161 
L 502.264224 79.686296 
L 504.688626 79.686296 
L 504.688626 80.49109 
L 507.113029 80.49109 
L 507.113029 80.005126 
L 509.537432 80.005126 
L 509.537432 79.234715 
L 511.961834 79.234715 
L 511.961834 32.359117 
L 514.386237 32.359117 
L 514.386237 34.799058 
L 516.81064 34.799058 
L 516.81064 28.2714 
L 521.659445 28.2714 
L 521.659445 27.964951 
L 524.083848 27.964951 
L 524.083848 28.604965 
L 526.50825 28.604965 
L 526.50825 27.769599 
L 528.932653 27.769599 
L 528.932653 61.875345 
L 531.357056 61.875345 
L 531.357056 86.808246 
L 533.781459 86.808246 
L 533.781459 84.488396 
L 536.205861 84.488396 
L 536.205861 84.776444 
L 538.630264 84.776444 
L 538.630264 84.50642 
L 541.054667 84.50642 
L 541.054667 85.921513 
L 543.479069 85.921513 
L 543.479069 84.181559 
L 545.903472 84.181559 
L 545.903472 85.207177 
L 548.327875 85.207177 
L 548.327875 85.493442 
L 550.752277 85.493442 
L 550.752277 36.962042 
L 553.17668 36.962042 
L 553.17668 19.997677 
L 555.601083 19.997677 
L 555.601083 24.236046 
L 558.025485 24.236046 
L 558.025485 22.595851 
L 560.449888 22.595851 
L 560.449888 33.704955 
L 562.874291 33.704955 
L 562.874291 59.486287 
L 565.298694 59.486287 
L 565.298694 70.881829 
L 567.723096 70.881829 
L 567.723096 79.310098 
L 570.147499 79.310098 
L 570.147499 79.780159 
L 572.571902 79.780159 
L 572.571902 80.751936 
L 574.996304 80.751936 
L 574.996304 80.621585 
L 577.420707 80.621585 
L 577.420707 46.077573 
L 579.84511 46.077573 
L 579.84511 44.128544 
L 582.269512 44.128544 
L 582.269512 28.466073 
L 584.693915 28.466073 
L 584.693915 28.076462 
L 587.118318 28.076462 
L 587.118318 28.466073 
L 589.54272 28.466073 
L 589.54272 28.104327 
L 591.967123 28.104327 
L 591.967123 28.299226 
L 594.391526 28.299226 
L 594.391526 36.358713 
L 596.815928 36.358713 
L 596.815928 86.984774 
L 599.240331 86.984774 
L 599.240331 85.903708 
L 601.664734 85.903708 
L 601.664734 84.253829 
L 604.089137 84.253829 
L 604.089137 85.332505 
L 606.513539 85.332505 
L 606.513539 84.938157 
L 608.937942 84.938157 
L 608.937942 84.344103 
L 611.362345 84.344103 
L 611.362345 85.921513 
L 613.786747 85.921513 
L 613.786747 84.434307 
L 616.21115 84.434307 
L 616.21115 63.321913 
L 618.635553 63.321913 
L 618.635553 18.22 
L 621.059955 18.22 
L 621.059955 23.748786 
L 623.484358 23.748786 
L 623.484358 22.161154 
L 625.908761 22.161154 
L 625.908761 21.229486 
L 628.333163 21.229486 
L 628.333163 55.05265 
L 630.757566 55.05265 
L 630.757566 63.429207 
L 633.181969 63.429207 
L 633.181969 79.64873 
L 635.606372 79.64873 
L 635.606372 79.780159 
L 638.030774 79.780159 
L 638.030774 80.751936 
L 640.455177 80.751936 
L 640.455177 80.397791 
L 642.87958 80.397791 
L 642.87958 67.999636 
L 645.303982 67.999636 
L 645.303982 35.779172 
L 647.728385 35.779172 
L 647.728385 31.952862 
L 650.152788 31.952862 
L 650.152788 28.048593 
L 652.57719 28.048593 
L 652.57719 28.521646 
L 655.001593 28.521646 
L 655.001593 27.93706 
L 657.425996 27.93706 
L 657.425996 28.243568 
L 659.850398 28.243568 
L 659.850398 28.104327 
L 662.274801 28.104327 
L 662.274801 71.767588 
L 664.699204 71.767588 
L 664.699204 86.099407 
L 667.123606 86.099407 
L 667.123606 83.964478 
L 669.548009 83.964478 
L 669.548009 86.294774 
L 671.972412 86.294774 
L 671.972412 84.90224 
L 674.396815 84.90224 
L 674.396815 84.19963 
L 676.821217 84.19963 
L 676.821217 85.009957 
L 679.24562 85.009957 
L 679.24562 86.099407 
L 681.670023 86.099407 
L 681.670023 87.143418 
L 684.094425 87.143418 
L 684.094425 19.584785 
L 686.518828 19.584785 
L 686.518828 20.35067 
L 688.943231 20.35067 
L 688.943231 18.57724 
L 691.367633 18.57724 
L 691.367633 22.248196 
L 693.792036 22.248196 
L 693.792036 34.772473 
L 696.216439 34.772473 
L 696.216439 64.582204 
L 698.640841 64.582204 
L 698.640841 72.467615 
L 701.065244 72.467615 
L 701.065244 78.875989 
L 703.489647 78.875989 
L 703.489647 80.975059 
L 705.91405 80.975059 
L 705.91405 80.696089 
L 708.338452 80.696089 
L 708.338452 81.586474 
L 710.762855 81.586474 
L 710.762855 32.925927 
L 713.187258 32.925927 
L 713.187258 45.807864 
L 715.61166 45.807864 
L 715.61166 28.299226 
L 720.460466 28.299226 
L 720.460466 28.132186 
L 727.733674 28.048593 
L 727.733674 49.797799 
L 730.158076 49.797799 
L 730.158076 85.903708 
L 732.582479 85.903708 
L 732.582479 85.61846 
L 735.006882 85.61846 
L 735.006882 83.892027 
L 737.431284 83.892027 
L 737.431284 85.903708 
L 739.855687 85.903708 
L 739.855687 86.949491 
L 742.28009 86.949491 
L 742.28009 85.099644 
L 747.128895 85.04584 
L 747.128895 85.40406 
L 749.553298 85.40406 
L 749.553298 52.112341 
L 751.977701 52.112341 
L 751.977701 18.22 
L 754.402103 18.22 
L 754.402103 20.35067 
L 756.826506 20.35067 
L 756.826506 20.702824 
L 759.250909 20.702824 
L 759.250909 25.659803 
L 761.675311 25.659803 
L 761.675311 56.441779 
L 764.099714 56.441779 
L 764.099714 66.77342 
L 766.524117 66.77342 
L 766.524117 79.705075 
L 768.948519 79.705075 
L 768.948519 80.751936 
L 771.372922 80.751936 
L 771.372922 81.438544 
L 773.797325 81.438544 
L 773.797325 80.45378 
L 776.221728 80.45378 
L 776.221728 57.074476 
L 778.64613 57.074476 
L 778.64613 41.671334 
L 781.070533 41.671334 
L 781.070533 30.781794 
L 783.494936 30.781794 
L 783.494936 28.048593 
L 785.919338 28.048593 
L 785.919338 28.382674 
L 788.343741 28.382674 
L 788.343741 27.881261 
L 790.768144 27.881261 
L 790.768144 28.410479 
L 793.192546 28.410479 
L 793.192546 28.299226 
L 795.616949 28.299226 
L 795.616949 82.341699 
L 798.041352 82.341699 
L 798.041352 85.099644 
L 800.465754 85.099644 
L 800.465754 84.740477 
L 802.890157 84.740477 
L 802.890157 85.957114 
L 805.31456 85.957114 
L 805.31456 84.596498 
L 807.738962 84.596498 
L 807.738962 82.872954 
L 810.163365 82.872954 
L 810.163365 86.347999 
L 812.587768 86.347999 
L 812.587768 85.278809 
L 815.012171 85.278809 
L 815.012171 74.131438 
L 817.436573 74.131438 
L 817.436573 18.22 
L 819.860976 18.22 
L 819.860976 18.57724 
L 824.709781 18.57724 
L 824.709781 23.317497 
L 827.134184 23.317497 
L 827.134184 45.192882 
L 829.558587 45.192882 
L 829.558587 61.94047 
L 831.982989 61.94047 
L 831.982989 78.07915 
L 834.407392 78.07915 
L 834.407392 79.046047 
L 836.831795 79.046047 
L 836.831795 79.930185 
L 839.256197 79.930185 
L 839.256197 80.584316 
L 841.6806 80.584316 
L 841.6806 79.027164 
L 844.105003 79.027164 
L 844.105003 33.114361 
L 846.529406 33.114361 
L 846.529406 36.673818 
L 848.953808 36.673818 
L 848.953808 28.132186 
L 851.378211 28.132186 
L 851.378211 27.881261 
L 853.802614 27.881261 
L 853.802614 28.410479 
L 856.227016 28.410479 
L 856.227016 28.2714 
L 858.651419 28.2714 
L 858.651419 28.048593 
L 861.075822 28.048593 
L 861.075822 66.480673 
L 863.500224 66.480673 
L 863.500224 87.249058 
L 865.924627 87.249058 
L 865.924627 85.189261 
L 870.773432 85.242999 
L 870.773432 84.50642 
L 873.197835 84.50642 
L 873.197835 85.529175 
L 875.622238 85.529175 
L 875.622238 84.488396 
L 878.04664 84.488396 
L 878.04664 85.350398 
L 880.471043 85.350398 
L 880.471043 85.600609 
L 882.895446 85.600609 
L 882.895446 115.155829 
L 884.200259 115.155829 
L 884.200259 115.155829 
" clip-path="url(#p72763b8752)" style="fill: none; stroke: #008000; stroke-width: 1.5; stroke-linecap: square"/>
   </g>
   <g id="patch_3">
    <path d="M 47.81 174.04 
L 47.81 10.8 
" style="fill: none; stroke: #000000; stroke-width: 0.8; stroke-linejoin: miter; stroke-linecap: square"/>
   </g>
   <g id="patch_4">
    <path d="M 925.2 174.04 
L 925.2 10.8 
" style="fill: none; stroke: #000000; stroke-width: 0.8; stroke-linejoin: miter; stroke-linecap: square"/>
   </g>
   <g id="patch_5">
    <path d="M 47.81 174.04 
L 925.2 174.04 
" style="fill: none; stroke: #000000; stroke-width: 0.8; stroke-linejoin: miter; stroke-linecap: square"/>
   </g>
   <g id="patch_6">
    <path d="M 47.81 10.8 
L 925.2 10.8 
" style="fill: none; stroke: #000000; stroke-width: 0.8; stroke-linejoin: miter; stroke-linecap: square"/>
   </g>
   <g id="legend_1">
    <g id="patch_7">
     <path d="M 740.223438 169.04 
L 918.2 169.04 
Q 920.2 169.04 920.2 167.04 
L 920.2 138.68375 
Q 920.2 136.68375 918.2 136.68375 
L 740.223438 136.68375 
Q 738.223438 136.68375 738.223438 138.68375 
L 738.223438 167.04 
Q 738.223438 169.04 740.223438 169.04 
z
" style="fill: #ffffff; opacity: 0.8; stroke: #cccccc; stroke-linejoin: miter"/>
    </g>
    <g id="line2d_16">
     <path d="M 742.223438 144.782188 
L 742.223438 144.782188 
L 752.223438 144.782188 
L 752.223438 144.782188 
L 762.223438 144.782188 
" style="fill: none; stroke: #0000ff; stroke-width: 1.5; stroke-linecap: square"/>
    </g>
    <g id="text_17">
     <!-- Estimated IPC (TidalSim) -->
     <g transform="translate(770.223438 148.282188) scale(0.1 -0.1)">
      <defs>
       <path id="DejaVuSans-45" d="M 628 4666 
L 3578 4666 
L 3578 4134 
L 1259 4134 
L 1259 2753 
L 3481 2753 
L 3481 2222 
L 1259 2222 
L 1259 531 
L 3634 531 
L 3634 0 
L 628 0 
L 628 4666 
z
" transform="scale(0.015625)"/>
       <path id="DejaVuSans-6d" d="M 3328 2828 
Q 3544 3216 3844 3400 
Q 4144 3584 4550 3584 
Q 5097 3584 5394 3201 
Q 5691 2819 5691 2113 
L 5691 0 
L 5113 0 
L 5113 2094 
Q 5113 2597 4934 2840 
Q 4756 3084 4391 3084 
Q 3944 3084 3684 2787 
Q 3425 2491 3425 1978 
L 3425 0 
L 2847 0 
L 2847 2094 
Q 2847 2600 2669 2842 
Q 2491 3084 2119 3084 
Q 1678 3084 1418 2786 
Q 1159 2488 1159 1978 
L 1159 0 
L 581 0 
L 581 3500 
L 1159 3500 
L 1159 2956 
Q 1356 3278 1631 3431 
Q 1906 3584 2284 3584 
Q 2666 3584 2933 3390 
Q 3200 3197 3328 2828 
z
" transform="scale(0.015625)"/>
       <path id="DejaVuSans-61" d="M 2194 1759 
Q 1497 1759 1228 1600 
Q 959 1441 959 1056 
Q 959 750 1161 570 
Q 1363 391 1709 391 
Q 2188 391 2477 730 
Q 2766 1069 2766 1631 
L 2766 1759 
L 2194 1759 
z
M 3341 1997 
L 3341 0 
L 2766 0 
L 2766 531 
Q 2569 213 2275 61 
Q 1981 -91 1556 -91 
Q 1019 -91 701 211 
Q 384 513 384 1019 
Q 384 1609 779 1909 
Q 1175 2209 1959 2209 
L 2766 2209 
L 2766 2266 
Q 2766 2663 2505 2880 
Q 2244 3097 1772 3097 
Q 1472 3097 1187 3025 
Q 903 2953 641 2809 
L 641 3341 
Q 956 3463 1253 3523 
Q 1550 3584 1831 3584 
Q 2591 3584 2966 3190 
Q 3341 2797 3341 1997 
z
" transform="scale(0.015625)"/>
       <path id="DejaVuSans-64" d="M 2906 2969 
L 2906 4863 
L 3481 4863 
L 3481 0 
L 2906 0 
L 2906 525 
Q 2725 213 2448 61 
Q 2172 -91 1784 -91 
Q 1150 -91 751 415 
Q 353 922 353 1747 
Q 353 2572 751 3078 
Q 1150 3584 1784 3584 
Q 2172 3584 2448 3432 
Q 2725 3281 2906 2969 
z
M 947 1747 
Q 947 1113 1208 752 
Q 1469 391 1925 391 
Q 2381 391 2643 752 
Q 2906 1113 2906 1747 
Q 2906 2381 2643 2742 
Q 2381 3103 1925 3103 
Q 1469 3103 1208 2742 
Q 947 2381 947 1747 
z
" transform="scale(0.015625)"/>
       <path id="DejaVuSans-20" transform="scale(0.015625)"/>
       <path id="DejaVuSans-28" d="M 1984 4856 
Q 1566 4138 1362 3434 
Q 1159 2731 1159 2009 
Q 1159 1288 1364 580 
Q 1569 -128 1984 -844 
L 1484 -844 
Q 1016 -109 783 600 
Q 550 1309 550 2009 
Q 550 2706 781 3412 
Q 1013 4119 1484 4856 
L 1984 4856 
z
" transform="scale(0.015625)"/>
       <path id="DejaVuSans-54" d="M -19 4666 
L 3928 4666 
L 3928 4134 
L 2272 4134 
L 2272 0 
L 1638 0 
L 1638 4134 
L -19 4134 
L -19 4666 
z
" transform="scale(0.015625)"/>
       <path id="DejaVuSans-6c" d="M 603 4863 
L 1178 4863 
L 1178 0 
L 603 0 
L 603 4863 
z
" transform="scale(0.015625)"/>
       <path id="DejaVuSans-53" d="M 3425 4513 
L 3425 3897 
Q 3066 4069 2747 4153 
Q 2428 4238 2131 4238 
Q 1616 4238 1336 4038 
Q 1056 3838 1056 3469 
Q 1056 3159 1242 3001 
Q 1428 2844 1947 2747 
L 2328 2669 
Q 3034 2534 3370 2195 
Q 3706 1856 3706 1288 
Q 3706 609 3251 259 
Q 2797 -91 1919 -91 
Q 1588 -91 1214 -16 
Q 841 59 441 206 
L 441 856 
Q 825 641 1194 531 
Q 1563 422 1919 422 
Q 2459 422 2753 634 
Q 3047 847 3047 1241 
Q 3047 1584 2836 1778 
Q 2625 1972 2144 2069 
L 1759 2144 
Q 1053 2284 737 2584 
Q 422 2884 422 3419 
Q 422 4038 858 4394 
Q 1294 4750 2059 4750 
Q 2388 4750 2728 4690 
Q 3069 4631 3425 4513 
z
" transform="scale(0.015625)"/>
       <path id="DejaVuSans-29" d="M 513 4856 
L 1013 4856 
Q 1481 4119 1714 3412 
Q 1947 2706 1947 2009 
Q 1947 1309 1714 600 
Q 1481 -109 1013 -844 
L 513 -844 
Q 928 -128 1133 580 
Q 1338 1288 1338 2009 
Q 1338 2731 1133 3434 
Q 928 4138 513 4856 
z
" transform="scale(0.015625)"/>
      </defs>
      <use xlink:href="#DejaVuSans-45"/>
      <use xlink:href="#DejaVuSans-73" x="63.183594"/>
      <use xlink:href="#DejaVuSans-74" x="115.283203"/>
      <use xlink:href="#DejaVuSans-69" x="154.492188"/>
      <use xlink:href="#DejaVuSans-6d" x="182.275391"/>
      <use xlink:href="#DejaVuSans-61" x="279.6875"/>
      <use xlink:href="#DejaVuSans-74" x="340.966797"/>
      <use xlink:href="#DejaVuSans-65" x="380.175781"/>
      <use xlink:href="#DejaVuSans-64" x="441.699219"/>
      <use xlink:href="#DejaVuSans-20" x="505.175781"/>
      <use xlink:href="#DejaVuSans-49" x="536.962891"/>
      <use xlink:href="#DejaVuSans-50" x="566.455078"/>
      <use xlink:href="#DejaVuSans-43" x="626.757812"/>
      <use xlink:href="#DejaVuSans-20" x="696.582031"/>
      <use xlink:href="#DejaVuSans-28" x="728.369141"/>
      <use xlink:href="#DejaVuSans-54" x="767.382812"/>
      <use xlink:href="#DejaVuSans-69" x="825.341797"/>
      <use xlink:href="#DejaVuSans-64" x="853.125"/>
      <use xlink:href="#DejaVuSans-61" x="916.601562"/>
      <use xlink:href="#DejaVuSans-6c" x="977.880859"/>
      <use xlink:href="#DejaVuSans-53" x="1005.664062"/>
      <use xlink:href="#DejaVuSans-69" x="1069.140625"/>
      <use xlink:href="#DejaVuSans-6d" x="1096.923828"/>
      <use xlink:href="#DejaVuSans-29" x="1194.335938"/>
     </g>
    </g>
    <g id="line2d_17">
     <path d="M 742.223438 159.460313 
L 742.223438 159.460313 
L 752.223438 159.460313 
L 752.223438 159.460313 
L 762.223438 159.460313 
" style="fill: none; stroke: #008000; stroke-width: 1.5; stroke-linecap: square"/>
    </g>
    <g id="text_18">
     <!-- True IPC (Full RTL Simulation) -->
     <g transform="translate(770.223438 162.960313) scale(0.1 -0.1)">
      <defs>
       <path id="DejaVuSans-46" d="M 628 4666 
L 3309 4666 
L 3309 4134 
L 1259 4134 
L 1259 2759 
L 3109 2759 
L 3109 2228 
L 1259 2228 
L 1259 0 
L 628 0 
L 628 4666 
z
" transform="scale(0.015625)"/>
       <path id="DejaVuSans-52" d="M 2841 2188 
Q 3044 2119 3236 1894 
Q 3428 1669 3622 1275 
L 4263 0 
L 3584 0 
L 2988 1197 
Q 2756 1666 2539 1819 
Q 2322 1972 1947 1972 
L 1259 1972 
L 1259 0 
L 628 0 
L 628 4666 
L 2053 4666 
Q 2853 4666 3247 4331 
Q 3641 3997 3641 3322 
Q 3641 2881 3436 2590 
Q 3231 2300 2841 2188 
z
M 1259 4147 
L 1259 2491 
L 2053 2491 
Q 2509 2491 2742 2702 
Q 2975 2913 2975 3322 
Q 2975 3731 2742 3939 
Q 2509 4147 2053 4147 
L 1259 4147 
z
" transform="scale(0.015625)"/>
       <path id="DejaVuSans-4c" d="M 628 4666 
L 1259 4666 
L 1259 531 
L 3531 531 
L 3531 0 
L 628 0 
L 628 4666 
z
" transform="scale(0.015625)"/>
      </defs>
      <use xlink:href="#DejaVuSans-54"/>
      <use xlink:href="#DejaVuSans-72" x="46.333984"/>
      <use xlink:href="#DejaVuSans-75" x="87.447266"/>
      <use xlink:href="#DejaVuSans-65" x="150.826172"/>
      <use xlink:href="#DejaVuSans-20" x="212.349609"/>
      <use xlink:href="#DejaVuSans-49" x="244.136719"/>
      <use xlink:href="#DejaVuSans-50" x="273.628906"/>
      <use xlink:href="#DejaVuSans-43" x="333.931641"/>
      <use xlink:href="#DejaVuSans-20" x="403.755859"/>
      <use xlink:href="#DejaVuSans-28" x="435.542969"/>
      <use xlink:href="#DejaVuSans-46" x="474.556641"/>
      <use xlink:href="#DejaVuSans-75" x="526.576172"/>
      <use xlink:href="#DejaVuSans-6c" x="589.955078"/>
      <use xlink:href="#DejaVuSans-6c" x="617.738281"/>
      <use xlink:href="#DejaVuSans-20" x="645.521484"/>
      <use xlink:href="#DejaVuSans-52" x="677.308594"/>
      <use xlink:href="#DejaVuSans-54" x="739.541016"/>
      <use xlink:href="#DejaVuSans-4c" x="800.625"/>
      <use xlink:href="#DejaVuSans-20" x="856.337891"/>
      <use xlink:href="#DejaVuSans-53" x="888.125"/>
      <use xlink:href="#DejaVuSans-69" x="951.601562"/>
      <use xlink:href="#DejaVuSans-6d" x="979.384766"/>
      <use xlink:href="#DejaVuSans-75" x="1076.796875"/>
      <use xlink:href="#DejaVuSans-6c" x="1140.175781"/>
      <use xlink:href="#DejaVuSans-61" x="1167.958984"/>
      <use xlink:href="#DejaVuSans-74" x="1229.238281"/>
      <use xlink:href="#DejaVuSans-69" x="1268.447266"/>
      <use xlink:href="#DejaVuSans-6f" x="1296.230469"/>
      <use xlink:href="#DejaVuSans-6e" x="1357.412109"/>
      <use xlink:href="#DejaVuSans-29" x="1420.791016"/>
     </g>
    </g>
   </g>
  </g>
 </g>
 <defs>
  <clipPath id="p72763b8752">
   <rect x="47.81" y="10.8" width="877.39" height="163.24"/>
  </clipPath>
 </defs>
</svg>
