<?xml version="1.0" encoding="utf-8" standalone="no"?>
<!DOCTYPE svg PUBLIC "-//W3C//DTD SVG 1.1//EN"
  "http://www.w3.org/Graphics/SVG/1.1/DTD/svg11.dtd">
<svg xmlns:xlink="http://www.w3.org/1999/xlink" width="936pt" height="360pt" viewBox="0 0 936 360" xmlns="http://www.w3.org/2000/svg" version="1.1">
 <metadata>
  <rdf:RDF xmlns:dc="http://purl.org/dc/elements/1.1/" xmlns:cc="http://creativecommons.org/ns#" xmlns:rdf="http://www.w3.org/1999/02/22-rdf-syntax-ns#">
   <cc:Work>
    <dc:type rdf:resource="http://purl.org/dc/dcmitype/StillImage"/>
    <dc:date>2024-01-14T17:30:30.072409</dc:date>
    <dc:format>image/svg+xml</dc:format>
    <dc:creator>
     <cc:Agent>
      <dc:title>Matplotlib v3.8.2, https://matplotlib.org/</dc:title>
     </cc:Agent>
    </dc:creator>
   </cc:Work>
  </rdf:RDF>
 </metadata>
 <defs>
  <style type="text/css">*{stroke-linejoin: round; stroke-linecap: butt}</style>
 </defs>
 <g id="figure_1">
  <g id="patch_1">
   <path d="M 0 360 
L 936 360 
L 936 0 
L 0 0 
z
" style="fill: #ffffff"/>
  </g>
  <g id="axes_1">
   <g id="patch_2">
    <path d="M 47.81 156.900891 
L 888.22 156.900891 
L 888.22 14.021781 
L 47.81 14.021781 
z
" style="fill: #ffffff"/>
   </g>
   <g id="matplotlib.axis_1">
    <g id="xtick_1">
     <g id="line2d_1">
      <defs>
       <path id="md0dace346d" d="M 0 0 
L 0 3.5 
" style="stroke: #000000; stroke-width: 0.8"/>
      </defs>
      <g>
       <use xlink:href="#md0dace346d" x="97.245882" y="156.900891" style="stroke: #000000; stroke-width: 0.8"/>
      </g>
     </g>
    </g>
    <g id="xtick_2">
     <g id="line2d_2">
      <g>
       <use xlink:href="#md0dace346d" x="196.117647" y="156.900891" style="stroke: #000000; stroke-width: 0.8"/>
      </g>
     </g>
    </g>
    <g id="xtick_3">
     <g id="line2d_3">
      <g>
       <use xlink:href="#md0dace346d" x="294.989412" y="156.900891" style="stroke: #000000; stroke-width: 0.8"/>
      </g>
     </g>
    </g>
    <g id="xtick_4">
     <g id="line2d_4">
      <g>
       <use xlink:href="#md0dace346d" x="393.861176" y="156.900891" style="stroke: #000000; stroke-width: 0.8"/>
      </g>
     </g>
    </g>
    <g id="xtick_5">
     <g id="line2d_5">
      <g>
       <use xlink:href="#md0dace346d" x="492.732941" y="156.900891" style="stroke: #000000; stroke-width: 0.8"/>
      </g>
     </g>
    </g>
    <g id="xtick_6">
     <g id="line2d_6">
      <g>
       <use xlink:href="#md0dace346d" x="591.604706" y="156.900891" style="stroke: #000000; stroke-width: 0.8"/>
      </g>
     </g>
    </g>
    <g id="xtick_7">
     <g id="line2d_7">
      <g>
       <use xlink:href="#md0dace346d" x="690.476471" y="156.900891" style="stroke: #000000; stroke-width: 0.8"/>
      </g>
     </g>
    </g>
    <g id="xtick_8">
     <g id="line2d_8">
      <g>
       <use xlink:href="#md0dace346d" x="789.348235" y="156.900891" style="stroke: #000000; stroke-width: 0.8"/>
      </g>
     </g>
    </g>
    <g id="xtick_9">
     <g id="line2d_9">
      <g>
       <use xlink:href="#md0dace346d" x="888.22" y="156.900891" style="stroke: #000000; stroke-width: 0.8"/>
      </g>
     </g>
    </g>
   </g>
   <g id="matplotlib.axis_2">
    <g id="ytick_1">
     <g id="line2d_10">
      <defs>
       <path id="m6f45bb0b08" d="M 0 0 
L -3.5 0 
" style="stroke: #000000; stroke-width: 0.8"/>
      </defs>
      <g>
       <use xlink:href="#m6f45bb0b08" x="47.81" y="144.697036" style="stroke: #000000; stroke-width: 0.8"/>
      </g>
     </g>
     <g id="text_1">
      <!-- 0.4 -->
      <g transform="translate(24.906875 148.496255) scale(0.1 -0.1)">
       <defs>
        <path id="DejaVuSans-30" d="M 2034 4250 
Q 1547 4250 1301 3770 
Q 1056 3291 1056 2328 
Q 1056 1369 1301 889 
Q 1547 409 2034 409 
Q 2525 409 2770 889 
Q 3016 1369 3016 2328 
Q 3016 3291 2770 3770 
Q 2525 4250 2034 4250 
z
M 2034 4750 
Q 2819 4750 3233 4129 
Q 3647 3509 3647 2328 
Q 3647 1150 3233 529 
Q 2819 -91 2034 -91 
Q 1250 -91 836 529 
Q 422 1150 422 2328 
Q 422 3509 836 4129 
Q 1250 4750 2034 4750 
z
" transform="scale(0.015625)"/>
        <path id="DejaVuSans-2e" d="M 684 794 
L 1344 794 
L 1344 0 
L 684 0 
L 684 794 
z
" transform="scale(0.015625)"/>
        <path id="DejaVuSans-34" d="M 2419 4116 
L 825 1625 
L 2419 1625 
L 2419 4116 
z
M 2253 4666 
L 3047 4666 
L 3047 1625 
L 3713 1625 
L 3713 1100 
L 3047 1100 
L 3047 0 
L 2419 0 
L 2419 1100 
L 313 1100 
L 313 1709 
L 2253 4666 
z
" transform="scale(0.015625)"/>
       </defs>
       <use xlink:href="#DejaVuSans-30"/>
       <use xlink:href="#DejaVuSans-2e" x="63.623047"/>
       <use xlink:href="#DejaVuSans-34" x="95.410156"/>
      </g>
     </g>
    </g>
    <g id="ytick_2">
     <g id="line2d_11">
      <g>
       <use xlink:href="#m6f45bb0b08" x="47.81" y="123.044662" style="stroke: #000000; stroke-width: 0.8"/>
      </g>
     </g>
     <g id="text_2">
      <!-- 0.5 -->
      <g transform="translate(24.906875 126.843881) scale(0.1 -0.1)">
       <defs>
        <path id="DejaVuSans-35" d="M 691 4666 
L 3169 4666 
L 3169 4134 
L 1269 4134 
L 1269 2991 
Q 1406 3038 1543 3061 
Q 1681 3084 1819 3084 
Q 2600 3084 3056 2656 
Q 3513 2228 3513 1497 
Q 3513 744 3044 326 
Q 2575 -91 1722 -91 
Q 1428 -91 1123 -41 
Q 819 9 494 109 
L 494 744 
Q 775 591 1075 516 
Q 1375 441 1709 441 
Q 2250 441 2565 725 
Q 2881 1009 2881 1497 
Q 2881 1984 2565 2268 
Q 2250 2553 1709 2553 
Q 1456 2553 1204 2497 
Q 953 2441 691 2322 
L 691 4666 
z
" transform="scale(0.015625)"/>
       </defs>
       <use xlink:href="#DejaVuSans-30"/>
       <use xlink:href="#DejaVuSans-2e" x="63.623047"/>
       <use xlink:href="#DejaVuSans-35" x="95.410156"/>
      </g>
     </g>
    </g>
    <g id="ytick_3">
     <g id="line2d_12">
      <g>
       <use xlink:href="#m6f45bb0b08" x="47.81" y="101.392288" style="stroke: #000000; stroke-width: 0.8"/>
      </g>
     </g>
     <g id="text_3">
      <!-- 0.6 -->
      <g transform="translate(24.906875 105.191507) scale(0.1 -0.1)">
       <defs>
        <path id="DejaVuSans-36" d="M 2113 2584 
Q 1688 2584 1439 2293 
Q 1191 2003 1191 1497 
Q 1191 994 1439 701 
Q 1688 409 2113 409 
Q 2538 409 2786 701 
Q 3034 994 3034 1497 
Q 3034 2003 2786 2293 
Q 2538 2584 2113 2584 
z
M 3366 4563 
L 3366 3988 
Q 3128 4100 2886 4159 
Q 2644 4219 2406 4219 
Q 1781 4219 1451 3797 
Q 1122 3375 1075 2522 
Q 1259 2794 1537 2939 
Q 1816 3084 2150 3084 
Q 2853 3084 3261 2657 
Q 3669 2231 3669 1497 
Q 3669 778 3244 343 
Q 2819 -91 2113 -91 
Q 1303 -91 875 529 
Q 447 1150 447 2328 
Q 447 3434 972 4092 
Q 1497 4750 2381 4750 
Q 2619 4750 2861 4703 
Q 3103 4656 3366 4563 
z
" transform="scale(0.015625)"/>
       </defs>
       <use xlink:href="#DejaVuSans-30"/>
       <use xlink:href="#DejaVuSans-2e" x="63.623047"/>
       <use xlink:href="#DejaVuSans-36" x="95.410156"/>
      </g>
     </g>
    </g>
    <g id="ytick_4">
     <g id="line2d_13">
      <g>
       <use xlink:href="#m6f45bb0b08" x="47.81" y="79.739914" style="stroke: #000000; stroke-width: 0.8"/>
      </g>
     </g>
     <g id="text_4">
      <!-- 0.7 -->
      <g transform="translate(24.906875 83.539133) scale(0.1 -0.1)">
       <defs>
        <path id="DejaVuSans-37" d="M 525 4666 
L 3525 4666 
L 3525 4397 
L 1831 0 
L 1172 0 
L 2766 4134 
L 525 4134 
L 525 4666 
z
" transform="scale(0.015625)"/>
       </defs>
       <use xlink:href="#DejaVuSans-30"/>
       <use xlink:href="#DejaVuSans-2e" x="63.623047"/>
       <use xlink:href="#DejaVuSans-37" x="95.410156"/>
      </g>
     </g>
    </g>
    <g id="ytick_5">
     <g id="line2d_14">
      <g>
       <use xlink:href="#m6f45bb0b08" x="47.81" y="58.08754" style="stroke: #000000; stroke-width: 0.8"/>
      </g>
     </g>
     <g id="text_5">
      <!-- 0.8 -->
      <g transform="translate(24.906875 61.886759) scale(0.1 -0.1)">
       <defs>
        <path id="DejaVuSans-38" d="M 2034 2216 
Q 1584 2216 1326 1975 
Q 1069 1734 1069 1313 
Q 1069 891 1326 650 
Q 1584 409 2034 409 
Q 2484 409 2743 651 
Q 3003 894 3003 1313 
Q 3003 1734 2745 1975 
Q 2488 2216 2034 2216 
z
M 1403 2484 
Q 997 2584 770 2862 
Q 544 3141 544 3541 
Q 544 4100 942 4425 
Q 1341 4750 2034 4750 
Q 2731 4750 3128 4425 
Q 3525 4100 3525 3541 
Q 3525 3141 3298 2862 
Q 3072 2584 2669 2484 
Q 3125 2378 3379 2068 
Q 3634 1759 3634 1313 
Q 3634 634 3220 271 
Q 2806 -91 2034 -91 
Q 1263 -91 848 271 
Q 434 634 434 1313 
Q 434 1759 690 2068 
Q 947 2378 1403 2484 
z
M 1172 3481 
Q 1172 3119 1398 2916 
Q 1625 2713 2034 2713 
Q 2441 2713 2670 2916 
Q 2900 3119 2900 3481 
Q 2900 3844 2670 4047 
Q 2441 4250 2034 4250 
Q 1625 4250 1398 4047 
Q 1172 3844 1172 3481 
z
" transform="scale(0.015625)"/>
       </defs>
       <use xlink:href="#DejaVuSans-30"/>
       <use xlink:href="#DejaVuSans-2e" x="63.623047"/>
       <use xlink:href="#DejaVuSans-38" x="95.410156"/>
      </g>
     </g>
    </g>
    <g id="ytick_6">
     <g id="line2d_15">
      <g>
       <use xlink:href="#m6f45bb0b08" x="47.81" y="36.435166" style="stroke: #000000; stroke-width: 0.8"/>
      </g>
     </g>
    </g>
    <g id="ytick_7">
     <g id="line2d_16">
      <g>
       <use xlink:href="#m6f45bb0b08" x="47.81" y="14.782792" style="stroke: #000000; stroke-width: 0.8"/>
      </g>
     </g>
    </g>
    <g id="text_6">
     <!-- IPC -->
     <g transform="translate(18.827188 93.442586) rotate(-90) scale(0.1 -0.1)">
      <defs>
       <path id="DejaVuSans-49" d="M 628 4666 
L 1259 4666 
L 1259 0 
L 628 0 
L 628 4666 
z
" transform="scale(0.015625)"/>
       <path id="DejaVuSans-50" d="M 1259 4147 
L 1259 2394 
L 2053 2394 
Q 2494 2394 2734 2622 
Q 2975 2850 2975 3272 
Q 2975 3691 2734 3919 
Q 2494 4147 2053 4147 
L 1259 4147 
z
M 628 4666 
L 2053 4666 
Q 2838 4666 3239 4311 
Q 3641 3956 3641 3272 
Q 3641 2581 3239 2228 
Q 2838 1875 2053 1875 
L 1259 1875 
L 1259 0 
L 628 0 
L 628 4666 
z
" transform="scale(0.015625)"/>
       <path id="DejaVuSans-43" d="M 4122 4306 
L 4122 3641 
Q 3803 3938 3442 4084 
Q 3081 4231 2675 4231 
Q 1875 4231 1450 3742 
Q 1025 3253 1025 2328 
Q 1025 1406 1450 917 
Q 1875 428 2675 428 
Q 3081 428 3442 575 
Q 3803 722 4122 1019 
L 4122 359 
Q 3791 134 3420 21 
Q 3050 -91 2638 -91 
Q 1578 -91 968 557 
Q 359 1206 359 2328 
Q 359 3453 968 4101 
Q 1578 4750 2638 4750 
Q 3056 4750 3426 4639 
Q 3797 4528 4122 4306 
z
" transform="scale(0.015625)"/>
      </defs>
      <use xlink:href="#DejaVuSans-49"/>
      <use xlink:href="#DejaVuSans-50" x="29.492188"/>
      <use xlink:href="#DejaVuSans-43" x="89.794922"/>
     </g>
    </g>
   </g>
   <g id="line2d_17">
    <path d="M 3.317706 26.134563 
L 3.317706 61.143155 
L 8.261294 61.143155 
L 8.261294 92.296503 
L 13.204882 92.296503 
L 13.204882 73.355606 
L 18.148471 73.355606 
L 18.148471 92.296503 
L 23.092059 92.296503 
L 23.092059 68.384121 
L 28.035647 68.384121 
L 28.035647 33.068754 
L 57.697176 33.068754 
L 57.697176 73.355606 
L 87.358706 73.355606 
L 87.358706 92.296503 
L 92.302294 92.296503 
L 92.302294 85.086166 
L 97.245882 85.086166 
L 97.245882 149.159818 
L 107.133059 149.159818 
L 107.133059 33.068754 
L 161.512529 33.068754 
L 161.512529 83.244495 
L 196.117647 83.244495 
L 196.117647 92.296503 
L 201.061235 92.296503 
L 201.061235 83.244495 
L 206.004824 83.244495 
L 206.004824 92.296503 
L 210.948412 92.296503 
L 210.948412 95.33069 
L 215.892 95.33069 
L 215.892 92.296503 
L 220.835588 92.296503 
L 220.835588 150.406386 
L 230.722765 150.406386 
L 230.722765 61.143155 
L 235.666353 61.143155 
L 235.666353 64.635235 
L 240.609941 64.635235 
L 240.609941 61.143155 
L 245.553529 61.143155 
L 245.553529 64.635235 
L 250.497118 64.635235 
L 250.497118 33.068754 
L 299.933 33.068754 
L 299.933 69.665657 
L 304.876588 69.665657 
L 304.876588 83.244495 
L 344.425294 83.244495 
L 344.425294 92.296503 
L 349.368882 92.296503 
L 349.368882 83.244495 
L 359.256059 83.244495 
L 359.256059 92.296503 
L 364.199647 92.296503 
L 364.199647 61.143155 
L 369.143235 61.143155 
L 369.143235 147.012857 
L 379.030412 147.012857 
L 379.030412 61.143155 
L 383.974 61.143155 
L 383.974 68.384121 
L 393.861176 68.384121 
L 393.861176 33.068754 
L 418.579118 33.068754 
L 418.579118 73.355606 
L 448.240647 73.355606 
L 448.240647 92.296503 
L 453.184235 92.296503 
L 453.184235 85.086166 
L 458.127824 85.086166 
L 458.127824 70.104559 
L 463.071412 70.104559 
L 463.071412 61.143155 
L 468.015 61.143155 
L 468.015 92.296503 
L 477.902176 92.296503 
L 477.902176 68.384121 
L 482.845765 68.384121 
L 482.845765 48.071354 
L 487.789353 48.071354 
L 487.789353 33.068754 
L 512.507294 33.068754 
L 512.507294 69.665657 
L 517.450882 69.665657 
L 517.450882 73.355606 
L 552.056 73.355606 
L 552.056 125.35591 
L 556.999588 125.35591 
L 556.999588 149.159818 
L 561.943176 149.159818 
L 561.943176 48.071354 
L 566.886765 48.071354 
L 566.886765 33.068754 
L 616.322647 33.068754 
L 616.322647 69.665657 
L 621.266235 69.665657 
L 621.266235 83.244495 
L 660.814941 83.244495 
L 660.814941 92.296503 
L 665.758529 92.296503 
L 665.758529 95.33069 
L 670.702118 95.33069 
L 670.702118 83.244495 
L 675.645706 83.244495 
L 675.645706 150.406386 
L 685.532882 150.406386 
L 685.532882 61.143155 
L 690.476471 61.143155 
L 690.476471 64.635235 
L 695.420059 64.635235 
L 695.420059 61.143155 
L 700.363647 61.143155 
L 700.363647 64.635235 
L 705.307235 64.635235 
L 705.307235 33.068754 
L 759.686706 33.068754 
L 759.686706 83.244495 
L 794.291824 83.244495 
L 794.291824 92.296503 
L 799.235412 92.296503 
L 799.235412 83.244495 
L 804.179 83.244495 
L 804.179 92.296503 
L 809.122588 92.296503 
L 809.122588 95.33069 
L 814.066176 95.33069 
L 814.066176 92.296503 
L 819.009765 92.296503 
L 819.009765 64.635235 
L 823.953353 64.635235 
L 823.953353 61.143155 
L 828.896941 61.143155 
L 828.896941 147.012857 
L 838.784118 147.012857 
L 838.784118 61.143155 
L 843.727706 61.143155 
L 843.727706 68.384121 
L 848.671294 68.384121 
L 848.671294 48.071354 
L 853.614882 48.071354 
L 853.614882 33.068754 
L 873.389235 33.068754 
L 873.389235 69.665657 
L 878.332824 69.665657 
L 878.332824 73.355606 
L 903.050765 73.355606 
L 903.050765 92.296503 
L 907.994353 92.296503 
L 907.994353 85.086166 
L 912.937941 85.086166 
L 912.937941 85.314685 
L 925.29444 85.314685 
L 925.29444 85.314685 
" clip-path="url(#p1891fb1ea1)" style="fill: none; stroke: #0000ff; stroke-width: 1.5; stroke-linecap: square"/>
   </g>
   <g id="line2d_18">
    <path d="M 3.317706 92.766805 
L 3.317706 39.148438 
L 8.261294 39.148438 
L 8.261294 74.120514 
L 13.204882 74.120514 
L 13.204882 62.858002 
L 18.148471 62.858002 
L 18.148471 65.920235 
L 23.092059 65.920235 
L 23.092059 40.166225 
L 28.035647 40.166225 
L 28.035647 28.131398 
L 32.979235 28.131398 
L 32.979235 25.973445 
L 37.922824 25.973445 
L 37.922824 26.400939 
L 42.866412 26.400939 
L 42.866412 24.126606 
L 47.81 24.126606 
L 47.81 25.113083 
L 57.697176 25.113083 
L 57.697176 49.170142 
L 62.640765 49.170142 
L 62.640765 55.912656 
L 67.584353 55.912656 
L 67.584353 58.308977 
L 72.527941 58.308977 
L 72.527941 54.811798 
L 77.471529 54.811798 
L 77.471529 55.599529 
L 82.415118 55.599529 
L 82.415118 54.306826 
L 87.358706 54.306826 
L 87.358706 64.467466 
L 92.302294 64.467466 
L 92.302294 42.384326 
L 97.245882 42.384326 
L 97.245882 141.148413 
L 102.189471 141.148413 
L 102.189471 138.822447 
L 107.133059 138.822447 
L 107.133059 21.354297 
L 112.076647 21.354297 
L 112.076647 20.55732 
L 117.020235 20.55732 
L 117.020235 23.62982 
L 121.963824 23.62982 
L 121.963824 20.618841 
L 126.907412 20.618841 
L 126.907412 21.922778 
L 131.851 21.922778 
L 131.851 20.885016 
L 136.794588 20.885016 
L 136.794588 21.659223 
L 141.738176 21.659223 
L 141.738176 21.252457 
L 146.681765 21.252457 
L 146.681765 20.516286 
L 151.625353 20.516286 
L 151.625353 22.205865 
L 156.568941 22.205865 
L 156.568941 20.700812 
L 161.512529 20.700812 
L 161.512529 68.738967 
L 166.456118 68.738967 
L 166.456118 69.152903 
L 171.399706 69.152903 
L 171.399706 69.007049 
L 176.343294 69.007049 
L 176.343294 69.552655 
L 181.286882 69.552655 
L 181.286882 69.080009 
L 191.174059 68.994883 
L 191.174059 69.564738 
L 196.117647 69.564738 
L 196.117647 68.970544 
L 201.061235 68.970544 
L 201.061235 69.443827 
L 206.004824 69.443827 
L 206.004824 69.067854 
L 215.892 68.958373 
L 215.892 89.090611 
L 220.835588 89.090611 
L 220.835588 146.178268 
L 225.779176 146.178268 
L 225.779176 121.222776 
L 230.722765 121.222776 
L 230.722765 32.587974 
L 235.666353 32.587974 
L 235.666353 38.515382 
L 240.609941 38.515382 
L 240.609941 35.640763 
L 245.553529 35.640763 
L 245.553529 36.695944 
L 250.497118 36.695944 
L 250.497118 22.125061 
L 255.440706 22.125061 
L 255.440706 21.943024 
L 260.384294 21.943024 
L 260.384294 21.67952 
L 270.271471 21.740388 
L 270.271471 20.762249 
L 275.215059 20.762249 
L 275.215059 22.145268 
L 280.158647 22.145268 
L 280.158647 20.946345 
L 285.102235 20.946345 
L 285.102235 21.780946 
L 290.045824 21.780946 
L 290.045824 21.130119 
L 294.989412 21.130119 
L 294.989412 20.577831 
L 299.933 20.577831 
L 299.933 39.063133 
L 304.876588 39.063133 
L 304.876588 69.031376 
L 309.820176 69.031376 
L 309.820176 68.836554 
L 314.763765 68.836554 
L 314.763765 69.902328 
L 319.707353 69.902328 
L 319.707353 69.007049 
L 324.650941 69.007049 
L 324.650941 68.787775 
L 329.594529 68.787775 
L 329.594529 69.600975 
L 334.538118 69.600975 
L 334.538118 69.104314 
L 339.481706 69.104314 
L 339.481706 68.958373 
L 344.425294 68.958373 
L 344.425294 69.419623 
L 349.368882 69.419623 
L 349.368882 69.092163 
L 354.312471 69.092163 
L 354.312471 68.934023 
L 359.256059 68.934023 
L 359.256059 58.226004 
L 364.199647 58.226004 
L 364.199647 28.188577 
L 369.143235 28.188577 
L 369.143235 124.979808 
L 374.086824 124.979808 
L 374.086824 145.483178 
L 379.030412 145.483178 
L 379.030412 38.154221 
L 383.974 38.154221 
L 383.974 38.360764 
L 388.917588 38.360764 
L 388.917588 36.433217 
L 393.861176 36.433217 
L 393.861176 24.69991 
L 398.804765 24.69991 
L 398.804765 28.226678 
L 403.748353 28.226678 
L 403.748353 26.303937 
L 408.691941 26.303937 
L 408.691941 25.289653 
L 413.635529 25.289653 
L 413.635529 28.112331 
L 418.579118 28.112331 
L 418.579118 50.855044 
L 423.522706 50.855044 
L 423.522706 55.070377 
L 428.466294 55.070377 
L 428.466294 52.094696 
L 433.409882 52.094696 
L 433.409882 52.37608 
L 438.353471 52.37608 
L 438.353471 53.390558 
L 443.297059 53.390558 
L 443.297059 54.408051 
L 448.240647 54.408051 
L 448.240647 59.639411 
L 453.184235 59.639411 
L 453.184235 28.302838 
L 458.127824 28.302838 
L 458.127824 23.210674 
L 463.071412 23.210674 
L 463.071412 40.822024 
L 468.015 40.822024 
L 468.015 62.081256 
L 472.958588 62.081256 
L 472.958588 58.571199 
L 477.902176 58.571199 
L 477.902176 48.106819 
L 482.845765 48.106819 
L 482.845765 34.0723 
L 487.789353 34.0723 
L 487.789353 26.362149 
L 492.732941 26.362149 
L 492.732941 25.465919 
L 497.676529 25.465919 
L 497.676529 25.073805 
L 502.620118 25.073805 
L 502.620118 24.324656 
L 507.563706 24.324656 
L 507.563706 26.265111 
L 512.507294 26.265111 
L 512.507294 35.764456 
L 517.450882 35.764456 
L 517.450882 55.099061 
L 522.394471 55.099061 
L 522.394471 59.788994 
L 527.338059 59.788994 
L 527.338059 53.624159 
L 532.281647 53.624159 
L 532.281647 56.436769 
L 537.225235 56.436769 
L 537.225235 55.855807 
L 547.112412 55.870022 
L 547.112412 56.746922 
L 552.056 56.746922 
L 552.056 110.208243 
L 556.999588 110.208243 
L 556.999588 145.213594 
L 561.943176 145.213594 
L 561.943176 86.8418 
L 566.886765 86.8418 
L 566.886765 22.468048 
L 571.830353 22.468048 
L 571.830353 21.780946 
L 576.773941 21.780946 
L 576.773941 22.266427 
L 581.717529 22.266427 
L 581.717529 21.130119 
L 586.661118 21.130119 
L 586.661118 21.415353 
L 596.548294 21.496706 
L 596.548294 20.577831 
L 601.491882 20.577831 
L 601.491882 22.326954 
L 606.435471 22.326954 
L 606.435471 20.762249 
L 611.379059 20.762249 
L 611.379059 21.963266 
L 616.322647 21.963266 
L 616.322647 44.953369 
L 621.266235 44.953369 
L 621.266235 69.177187 
L 626.209824 69.177187 
L 626.209824 68.946199 
L 631.153412 68.946199 
L 631.153412 69.697531 
L 636.097 69.697531 
L 636.097 69.031376 
L 645.984176 68.934023 
L 645.984176 69.600975 
L 650.927765 69.600975 
L 650.927765 68.824362 
L 655.871353 68.824362 
L 655.871353 69.104314 
L 660.814941 69.104314 
L 660.814941 69.407519 
L 665.758529 69.407519 
L 665.758529 69.067854 
L 675.645706 68.958373 
L 675.645706 133.002827 
L 680.589294 133.002827 
L 680.589294 146.38194 
L 685.532882 146.38194 
L 685.532882 39.148438 
L 690.476471 39.148438 
L 690.476471 42.664138 
L 695.420059 42.664138 
L 695.420059 27.997856 
L 700.363647 27.997856 
L 700.363647 46.512011 
L 705.307235 46.512011 
L 705.307235 21.293205 
L 710.250824 21.293205 
L 710.250824 20.78272 
L 715.194412 20.78272 
L 715.194412 23.609899 
L 720.138 23.609899 
L 720.138 20.577831 
L 725.081588 20.577831 
L 725.081588 22.145268 
L 730.025176 22.145268 
L 730.025176 20.946345 
L 734.968765 20.946345 
L 734.968765 21.699813 
L 739.912353 21.699813 
L 739.912353 21.395005 
L 744.855941 21.395005 
L 744.855941 20.577831 
L 749.799529 20.577831 
L 749.799529 22.326954 
L 754.743118 22.326954 
L 754.743118 20.762249 
L 759.686706 20.762249 
L 759.686706 63.977521 
L 764.630294 63.977521 
L 764.630294 69.152903 
L 769.573882 69.152903 
L 769.573882 69.007049 
L 774.517471 69.007049 
L 774.517471 69.588898 
L 779.461059 69.588898 
L 779.461059 69.080009 
L 789.348235 68.994883 
L 789.348235 69.564738 
L 794.291824 69.564738 
L 794.291824 68.970544 
L 799.235412 68.970544 
L 799.235412 69.443827 
L 804.179 69.443827 
L 804.179 69.067854 
L 814.066176 68.958373 
L 814.066176 66.511844 
L 819.009765 66.511844 
L 819.009765 37.912695 
L 823.953353 37.912695 
L 823.953353 77.186139 
L 828.896941 77.186139 
L 828.896941 145.500184 
L 833.840529 145.500184 
L 833.840529 107.726976 
L 838.784118 107.726976 
L 838.784118 34.877483 
L 843.727706 34.877483 
L 843.727706 36.380586 
L 848.671294 36.380586 
L 848.671294 30.151069 
L 853.614882 30.151069 
L 853.614882 27.01958 
L 858.558471 27.01958 
L 858.558471 26.807344 
L 863.502059 26.807344 
L 863.502059 26.070759 
L 868.445647 26.070759 
L 868.445647 26.439714 
L 873.389235 26.439714 
L 873.389235 41.772446 
L 878.332824 41.772446 
L 878.332824 53.214954 
L 883.276412 53.214954 
L 883.276412 52.862705 
L 888.22 52.862705 
L 888.22 52.346502 
L 893.163588 52.346502 
L 893.163588 58.543634 
L 898.107176 58.543634 
L 898.107176 49.537106 
L 903.050765 49.537106 
L 903.050765 62.094481 
L 907.994353 62.094481 
L 907.994353 34.73482 
L 912.937941 34.73482 
L 912.937941 107.444201 
L 917.881529 107.444201 
L 917.881529 66.222863 
L 922.825118 66.222863 
L 922.825118 74.298897 
L 924.770914 74.298897 
L 924.770914 74.298897 
" clip-path="url(#p1891fb1ea1)" style="fill: none; stroke: #008000; stroke-width: 1.5; stroke-linecap: square"/>
   </g>
   <g id="patch_3">
    <path d="M 47.81 156.900891 
L 47.81 14.021781 
" style="fill: none; stroke: #000000; stroke-width: 0.8; stroke-linejoin: miter; stroke-linecap: square"/>
   </g>
   <g id="patch_4">
    <path d="M 888.22 156.900891 
L 888.22 14.021781 
" style="fill: none; stroke: #000000; stroke-width: 0.8; stroke-linejoin: miter; stroke-linecap: square"/>
   </g>
   <g id="patch_5">
    <path d="M 47.81 156.900891 
L 888.22 156.900891 
" style="fill: none; stroke: #000000; stroke-width: 0.8; stroke-linejoin: miter; stroke-linecap: square"/>
   </g>
   <g id="patch_6">
    <path d="M 47.81 14.021781 
L 888.22 14.021781 
" style="fill: none; stroke: #000000; stroke-width: 0.8; stroke-linejoin: miter; stroke-linecap: square"/>
   </g>
   <g id="legend_1">
    <g id="patch_7">
     <path d="M 703.243438 151.900891 
L 881.22 151.900891 
Q 883.22 151.900891 883.22 149.900891 
L 883.22 121.544641 
Q 883.22 119.544641 881.22 119.544641 
L 703.243438 119.544641 
Q 701.243438 119.544641 701.243438 121.544641 
L 701.243438 149.900891 
Q 701.243438 151.900891 703.243438 151.900891 
z
" style="fill: #ffffff; opacity: 0.8; stroke: #cccccc; stroke-linejoin: miter"/>
    </g>
    <g id="line2d_19">
     <path d="M 705.243438 127.643078 
L 705.243438 127.643078 
L 715.243438 127.643078 
L 715.243438 127.643078 
L 725.243438 127.643078 
" style="fill: none; stroke: #0000ff; stroke-width: 1.5; stroke-linecap: square"/>
    </g>
    <g id="text_7">
     <!-- Estimated IPC (TidalSim) -->
     <g transform="translate(733.243438 131.143078) scale(0.1 -0.1)">
      <defs>
       <path id="DejaVuSans-45" d="M 628 4666 
L 3578 4666 
L 3578 4134 
L 1259 4134 
L 1259 2753 
L 3481 2753 
L 3481 2222 
L 1259 2222 
L 1259 531 
L 3634 531 
L 3634 0 
L 628 0 
L 628 4666 
z
" transform="scale(0.015625)"/>
       <path id="DejaVuSans-73" d="M 2834 3397 
L 2834 2853 
Q 2591 2978 2328 3040 
Q 2066 3103 1784 3103 
Q 1356 3103 1142 2972 
Q 928 2841 928 2578 
Q 928 2378 1081 2264 
Q 1234 2150 1697 2047 
L 1894 2003 
Q 2506 1872 2764 1633 
Q 3022 1394 3022 966 
Q 3022 478 2636 193 
Q 2250 -91 1575 -91 
Q 1294 -91 989 -36 
Q 684 19 347 128 
L 347 722 
Q 666 556 975 473 
Q 1284 391 1588 391 
Q 1994 391 2212 530 
Q 2431 669 2431 922 
Q 2431 1156 2273 1281 
Q 2116 1406 1581 1522 
L 1381 1569 
Q 847 1681 609 1914 
Q 372 2147 372 2553 
Q 372 3047 722 3315 
Q 1072 3584 1716 3584 
Q 2034 3584 2315 3537 
Q 2597 3491 2834 3397 
z
" transform="scale(0.015625)"/>
       <path id="DejaVuSans-74" d="M 1172 4494 
L 1172 3500 
L 2356 3500 
L 2356 3053 
L 1172 3053 
L 1172 1153 
Q 1172 725 1289 603 
Q 1406 481 1766 481 
L 2356 481 
L 2356 0 
L 1766 0 
Q 1100 0 847 248 
Q 594 497 594 1153 
L 594 3053 
L 172 3053 
L 172 3500 
L 594 3500 
L 594 4494 
L 1172 4494 
z
" transform="scale(0.015625)"/>
       <path id="DejaVuSans-69" d="M 603 3500 
L 1178 3500 
L 1178 0 
L 603 0 
L 603 3500 
z
M 603 4863 
L 1178 4863 
L 1178 4134 
L 603 4134 
L 603 4863 
z
" transform="scale(0.015625)"/>
       <path id="DejaVuSans-6d" d="M 3328 2828 
Q 3544 3216 3844 3400 
Q 4144 3584 4550 3584 
Q 5097 3584 5394 3201 
Q 5691 2819 5691 2113 
L 5691 0 
L 5113 0 
L 5113 2094 
Q 5113 2597 4934 2840 
Q 4756 3084 4391 3084 
Q 3944 3084 3684 2787 
Q 3425 2491 3425 1978 
L 3425 0 
L 2847 0 
L 2847 2094 
Q 2847 2600 2669 2842 
Q 2491 3084 2119 3084 
Q 1678 3084 1418 2786 
Q 1159 2488 1159 1978 
L 1159 0 
L 581 0 
L 581 3500 
L 1159 3500 
L 1159 2956 
Q 1356 3278 1631 3431 
Q 1906 3584 2284 3584 
Q 2666 3584 2933 3390 
Q 3200 3197 3328 2828 
z
" transform="scale(0.015625)"/>
       <path id="DejaVuSans-61" d="M 2194 1759 
Q 1497 1759 1228 1600 
Q 959 1441 959 1056 
Q 959 750 1161 570 
Q 1363 391 1709 391 
Q 2188 391 2477 730 
Q 2766 1069 2766 1631 
L 2766 1759 
L 2194 1759 
z
M 3341 1997 
L 3341 0 
L 2766 0 
L 2766 531 
Q 2569 213 2275 61 
Q 1981 -91 1556 -91 
Q 1019 -91 701 211 
Q 384 513 384 1019 
Q 384 1609 779 1909 
Q 1175 2209 1959 2209 
L 2766 2209 
L 2766 2266 
Q 2766 2663 2505 2880 
Q 2244 3097 1772 3097 
Q 1472 3097 1187 3025 
Q 903 2953 641 2809 
L 641 3341 
Q 956 3463 1253 3523 
Q 1550 3584 1831 3584 
Q 2591 3584 2966 3190 
Q 3341 2797 3341 1997 
z
" transform="scale(0.015625)"/>
       <path id="DejaVuSans-65" d="M 3597 1894 
L 3597 1613 
L 953 1613 
Q 991 1019 1311 708 
Q 1631 397 2203 397 
Q 2534 397 2845 478 
Q 3156 559 3463 722 
L 3463 178 
Q 3153 47 2828 -22 
Q 2503 -91 2169 -91 
Q 1331 -91 842 396 
Q 353 884 353 1716 
Q 353 2575 817 3079 
Q 1281 3584 2069 3584 
Q 2775 3584 3186 3129 
Q 3597 2675 3597 1894 
z
M 3022 2063 
Q 3016 2534 2758 2815 
Q 2500 3097 2075 3097 
Q 1594 3097 1305 2825 
Q 1016 2553 972 2059 
L 3022 2063 
z
" transform="scale(0.015625)"/>
       <path id="DejaVuSans-64" d="M 2906 2969 
L 2906 4863 
L 3481 4863 
L 3481 0 
L 2906 0 
L 2906 525 
Q 2725 213 2448 61 
Q 2172 -91 1784 -91 
Q 1150 -91 751 415 
Q 353 922 353 1747 
Q 353 2572 751 3078 
Q 1150 3584 1784 3584 
Q 2172 3584 2448 3432 
Q 2725 3281 2906 2969 
z
M 947 1747 
Q 947 1113 1208 752 
Q 1469 391 1925 391 
Q 2381 391 2643 752 
Q 2906 1113 2906 1747 
Q 2906 2381 2643 2742 
Q 2381 3103 1925 3103 
Q 1469 3103 1208 2742 
Q 947 2381 947 1747 
z
" transform="scale(0.015625)"/>
       <path id="DejaVuSans-20" transform="scale(0.015625)"/>
       <path id="DejaVuSans-28" d="M 1984 4856 
Q 1566 4138 1362 3434 
Q 1159 2731 1159 2009 
Q 1159 1288 1364 580 
Q 1569 -128 1984 -844 
L 1484 -844 
Q 1016 -109 783 600 
Q 550 1309 550 2009 
Q 550 2706 781 3412 
Q 1013 4119 1484 4856 
L 1984 4856 
z
" transform="scale(0.015625)"/>
       <path id="DejaVuSans-54" d="M -19 4666 
L 3928 4666 
L 3928 4134 
L 2272 4134 
L 2272 0 
L 1638 0 
L 1638 4134 
L -19 4134 
L -19 4666 
z
" transform="scale(0.015625)"/>
       <path id="DejaVuSans-6c" d="M 603 4863 
L 1178 4863 
L 1178 0 
L 603 0 
L 603 4863 
z
" transform="scale(0.015625)"/>
       <path id="DejaVuSans-53" d="M 3425 4513 
L 3425 3897 
Q 3066 4069 2747 4153 
Q 2428 4238 2131 4238 
Q 1616 4238 1336 4038 
Q 1056 3838 1056 3469 
Q 1056 3159 1242 3001 
Q 1428 2844 1947 2747 
L 2328 2669 
Q 3034 2534 3370 2195 
Q 3706 1856 3706 1288 
Q 3706 609 3251 259 
Q 2797 -91 1919 -91 
Q 1588 -91 1214 -16 
Q 841 59 441 206 
L 441 856 
Q 825 641 1194 531 
Q 1563 422 1919 422 
Q 2459 422 2753 634 
Q 3047 847 3047 1241 
Q 3047 1584 2836 1778 
Q 2625 1972 2144 2069 
L 1759 2144 
Q 1053 2284 737 2584 
Q 422 2884 422 3419 
Q 422 4038 858 4394 
Q 1294 4750 2059 4750 
Q 2388 4750 2728 4690 
Q 3069 4631 3425 4513 
z
" transform="scale(0.015625)"/>
       <path id="DejaVuSans-29" d="M 513 4856 
L 1013 4856 
Q 1481 4119 1714 3412 
Q 1947 2706 1947 2009 
Q 1947 1309 1714 600 
Q 1481 -109 1013 -844 
L 513 -844 
Q 928 -128 1133 580 
Q 1338 1288 1338 2009 
Q 1338 2731 1133 3434 
Q 928 4138 513 4856 
z
" transform="scale(0.015625)"/>
      </defs>
      <use xlink:href="#DejaVuSans-45"/>
      <use xlink:href="#DejaVuSans-73" x="63.183594"/>
      <use xlink:href="#DejaVuSans-74" x="115.283203"/>
      <use xlink:href="#DejaVuSans-69" x="154.492188"/>
      <use xlink:href="#DejaVuSans-6d" x="182.275391"/>
      <use xlink:href="#DejaVuSans-61" x="279.6875"/>
      <use xlink:href="#DejaVuSans-74" x="340.966797"/>
      <use xlink:href="#DejaVuSans-65" x="380.175781"/>
      <use xlink:href="#DejaVuSans-64" x="441.699219"/>
      <use xlink:href="#DejaVuSans-20" x="505.175781"/>
      <use xlink:href="#DejaVuSans-49" x="536.962891"/>
      <use xlink:href="#DejaVuSans-50" x="566.455078"/>
      <use xlink:href="#DejaVuSans-43" x="626.757812"/>
      <use xlink:href="#DejaVuSans-20" x="696.582031"/>
      <use xlink:href="#DejaVuSans-28" x="728.369141"/>
      <use xlink:href="#DejaVuSans-54" x="767.382812"/>
      <use xlink:href="#DejaVuSans-69" x="825.341797"/>
      <use xlink:href="#DejaVuSans-64" x="853.125"/>
      <use xlink:href="#DejaVuSans-61" x="916.601562"/>
      <use xlink:href="#DejaVuSans-6c" x="977.880859"/>
      <use xlink:href="#DejaVuSans-53" x="1005.664062"/>
      <use xlink:href="#DejaVuSans-69" x="1069.140625"/>
      <use xlink:href="#DejaVuSans-6d" x="1096.923828"/>
      <use xlink:href="#DejaVuSans-29" x="1194.335938"/>
     </g>
    </g>
    <g id="line2d_20">
     <path d="M 705.243438 142.321203 
L 705.243438 142.321203 
L 715.243438 142.321203 
L 715.243438 142.321203 
L 725.243438 142.321203 
" style="fill: none; stroke: #008000; stroke-width: 1.5; stroke-linecap: square"/>
    </g>
    <g id="text_8">
     <!-- True IPC (Full RTL Simulation) -->
     <g transform="translate(733.243438 145.821203) scale(0.1 -0.1)">
      <defs>
       <path id="DejaVuSans-72" d="M 2631 2963 
Q 2534 3019 2420 3045 
Q 2306 3072 2169 3072 
Q 1681 3072 1420 2755 
Q 1159 2438 1159 1844 
L 1159 0 
L 581 0 
L 581 3500 
L 1159 3500 
L 1159 2956 
Q 1341 3275 1631 3429 
Q 1922 3584 2338 3584 
Q 2397 3584 2469 3576 
Q 2541 3569 2628 3553 
L 2631 2963 
z
" transform="scale(0.015625)"/>
       <path id="DejaVuSans-75" d="M 544 1381 
L 544 3500 
L 1119 3500 
L 1119 1403 
Q 1119 906 1312 657 
Q 1506 409 1894 409 
Q 2359 409 2629 706 
Q 2900 1003 2900 1516 
L 2900 3500 
L 3475 3500 
L 3475 0 
L 2900 0 
L 2900 538 
Q 2691 219 2414 64 
Q 2138 -91 1772 -91 
Q 1169 -91 856 284 
Q 544 659 544 1381 
z
M 1991 3584 
L 1991 3584 
z
" transform="scale(0.015625)"/>
       <path id="DejaVuSans-46" d="M 628 4666 
L 3309 4666 
L 3309 4134 
L 1259 4134 
L 1259 2759 
L 3109 2759 
L 3109 2228 
L 1259 2228 
L 1259 0 
L 628 0 
L 628 4666 
z
" transform="scale(0.015625)"/>
       <path id="DejaVuSans-52" d="M 2841 2188 
Q 3044 2119 3236 1894 
Q 3428 1669 3622 1275 
L 4263 0 
L 3584 0 
L 2988 1197 
Q 2756 1666 2539 1819 
Q 2322 1972 1947 1972 
L 1259 1972 
L 1259 0 
L 628 0 
L 628 4666 
L 2053 4666 
Q 2853 4666 3247 4331 
Q 3641 3997 3641 3322 
Q 3641 2881 3436 2590 
Q 3231 2300 2841 2188 
z
M 1259 4147 
L 1259 2491 
L 2053 2491 
Q 2509 2491 2742 2702 
Q 2975 2913 2975 3322 
Q 2975 3731 2742 3939 
Q 2509 4147 2053 4147 
L 1259 4147 
z
" transform="scale(0.015625)"/>
       <path id="DejaVuSans-4c" d="M 628 4666 
L 1259 4666 
L 1259 531 
L 3531 531 
L 3531 0 
L 628 0 
L 628 4666 
z
" transform="scale(0.015625)"/>
       <path id="DejaVuSans-6f" d="M 1959 3097 
Q 1497 3097 1228 2736 
Q 959 2375 959 1747 
Q 959 1119 1226 758 
Q 1494 397 1959 397 
Q 2419 397 2687 759 
Q 2956 1122 2956 1747 
Q 2956 2369 2687 2733 
Q 2419 3097 1959 3097 
z
M 1959 3584 
Q 2709 3584 3137 3096 
Q 3566 2609 3566 1747 
Q 3566 888 3137 398 
Q 2709 -91 1959 -91 
Q 1206 -91 779 398 
Q 353 888 353 1747 
Q 353 2609 779 3096 
Q 1206 3584 1959 3584 
z
" transform="scale(0.015625)"/>
       <path id="DejaVuSans-6e" d="M 3513 2113 
L 3513 0 
L 2938 0 
L 2938 2094 
Q 2938 2591 2744 2837 
Q 2550 3084 2163 3084 
Q 1697 3084 1428 2787 
Q 1159 2491 1159 1978 
L 1159 0 
L 581 0 
L 581 3500 
L 1159 3500 
L 1159 2956 
Q 1366 3272 1645 3428 
Q 1925 3584 2291 3584 
Q 2894 3584 3203 3211 
Q 3513 2838 3513 2113 
z
" transform="scale(0.015625)"/>
      </defs>
      <use xlink:href="#DejaVuSans-54"/>
      <use xlink:href="#DejaVuSans-72" x="46.333984"/>
      <use xlink:href="#DejaVuSans-75" x="87.447266"/>
      <use xlink:href="#DejaVuSans-65" x="150.826172"/>
      <use xlink:href="#DejaVuSans-20" x="212.349609"/>
      <use xlink:href="#DejaVuSans-49" x="244.136719"/>
      <use xlink:href="#DejaVuSans-50" x="273.628906"/>
      <use xlink:href="#DejaVuSans-43" x="333.931641"/>
      <use xlink:href="#DejaVuSans-20" x="403.755859"/>
      <use xlink:href="#DejaVuSans-28" x="435.542969"/>
      <use xlink:href="#DejaVuSans-46" x="474.556641"/>
      <use xlink:href="#DejaVuSans-75" x="526.576172"/>
      <use xlink:href="#DejaVuSans-6c" x="589.955078"/>
      <use xlink:href="#DejaVuSans-6c" x="617.738281"/>
      <use xlink:href="#DejaVuSans-20" x="645.521484"/>
      <use xlink:href="#DejaVuSans-52" x="677.308594"/>
      <use xlink:href="#DejaVuSans-54" x="739.541016"/>
      <use xlink:href="#DejaVuSans-4c" x="800.625"/>
      <use xlink:href="#DejaVuSans-20" x="856.337891"/>
      <use xlink:href="#DejaVuSans-53" x="888.125"/>
      <use xlink:href="#DejaVuSans-69" x="951.601562"/>
      <use xlink:href="#DejaVuSans-6d" x="979.384766"/>
      <use xlink:href="#DejaVuSans-75" x="1076.796875"/>
      <use xlink:href="#DejaVuSans-6c" x="1140.175781"/>
      <use xlink:href="#DejaVuSans-61" x="1167.958984"/>
      <use xlink:href="#DejaVuSans-74" x="1229.238281"/>
      <use xlink:href="#DejaVuSans-69" x="1268.447266"/>
      <use xlink:href="#DejaVuSans-6f" x="1296.230469"/>
      <use xlink:href="#DejaVuSans-6e" x="1357.412109"/>
      <use xlink:href="#DejaVuSans-29" x="1420.791016"/>
     </g>
    </g>
   </g>
  </g>
  <g id="axes_2">
   <g id="patch_8">
    <path d="M 47.81 318.04 
L 888.22 318.04 
L 888.22 175.160891 
L 47.81 175.160891 
z
" style="fill: #ffffff"/>
   </g>
   <g id="matplotlib.axis_3">
    <g id="xtick_10">
     <g id="line2d_21">
      <g>
       <use xlink:href="#md0dace346d" x="97.245882" y="318.04" style="stroke: #000000; stroke-width: 0.8"/>
      </g>
     </g>
     <g id="text_9">
      <!-- 0.2 -->
      <g transform="translate(89.29432 332.638438) scale(0.1 -0.1)">
       <defs>
        <path id="DejaVuSans-32" d="M 1228 531 
L 3431 531 
L 3431 0 
L 469 0 
L 469 531 
Q 828 903 1448 1529 
Q 2069 2156 2228 2338 
Q 2531 2678 2651 2914 
Q 2772 3150 2772 3378 
Q 2772 3750 2511 3984 
Q 2250 4219 1831 4219 
Q 1534 4219 1204 4116 
Q 875 4013 500 3803 
L 500 4441 
Q 881 4594 1212 4672 
Q 1544 4750 1819 4750 
Q 2544 4750 2975 4387 
Q 3406 4025 3406 3419 
Q 3406 3131 3298 2873 
Q 3191 2616 2906 2266 
Q 2828 2175 2409 1742 
Q 1991 1309 1228 531 
z
" transform="scale(0.015625)"/>
       </defs>
       <use xlink:href="#DejaVuSans-30"/>
       <use xlink:href="#DejaVuSans-2e" x="63.623047"/>
       <use xlink:href="#DejaVuSans-32" x="95.410156"/>
      </g>
     </g>
    </g>
    <g id="xtick_11">
     <g id="line2d_22">
      <g>
       <use xlink:href="#md0dace346d" x="196.117647" y="318.04" style="stroke: #000000; stroke-width: 0.8"/>
      </g>
     </g>
     <g id="text_10">
      <!-- 0.4 -->
      <g transform="translate(188.166085 332.638438) scale(0.1 -0.1)">
       <use xlink:href="#DejaVuSans-30"/>
       <use xlink:href="#DejaVuSans-2e" x="63.623047"/>
       <use xlink:href="#DejaVuSans-34" x="95.410156"/>
      </g>
     </g>
    </g>
    <g id="xtick_12">
     <g id="line2d_23">
      <g>
       <use xlink:href="#md0dace346d" x="294.989412" y="318.04" style="stroke: #000000; stroke-width: 0.8"/>
      </g>
     </g>
     <g id="text_11">
      <!-- 0.6 -->
      <g transform="translate(287.037849 332.638438) scale(0.1 -0.1)">
       <use xlink:href="#DejaVuSans-30"/>
       <use xlink:href="#DejaVuSans-2e" x="63.623047"/>
       <use xlink:href="#DejaVuSans-36" x="95.410156"/>
      </g>
     </g>
    </g>
    <g id="xtick_13">
     <g id="line2d_24">
      <g>
       <use xlink:href="#md0dace346d" x="393.861176" y="318.04" style="stroke: #000000; stroke-width: 0.8"/>
      </g>
     </g>
     <g id="text_12">
      <!-- 0.8 -->
      <g transform="translate(385.909614 332.638438) scale(0.1 -0.1)">
       <use xlink:href="#DejaVuSans-30"/>
       <use xlink:href="#DejaVuSans-2e" x="63.623047"/>
       <use xlink:href="#DejaVuSans-38" x="95.410156"/>
      </g>
     </g>
    </g>
    <g id="xtick_14">
     <g id="line2d_25">
      <g>
       <use xlink:href="#md0dace346d" x="492.732941" y="318.04" style="stroke: #000000; stroke-width: 0.8"/>
      </g>
     </g>
     <g id="text_13">
      <!-- 1.0 -->
      <g transform="translate(484.781379 332.638438) scale(0.1 -0.1)">
       <defs>
        <path id="DejaVuSans-31" d="M 794 531 
L 1825 531 
L 1825 4091 
L 703 3866 
L 703 4441 
L 1819 4666 
L 2450 4666 
L 2450 531 
L 3481 531 
L 3481 0 
L 794 0 
L 794 531 
z
" transform="scale(0.015625)"/>
       </defs>
       <use xlink:href="#DejaVuSans-31"/>
       <use xlink:href="#DejaVuSans-2e" x="63.623047"/>
       <use xlink:href="#DejaVuSans-30" x="95.410156"/>
      </g>
     </g>
    </g>
    <g id="xtick_15">
     <g id="line2d_26">
      <g>
       <use xlink:href="#md0dace346d" x="591.604706" y="318.04" style="stroke: #000000; stroke-width: 0.8"/>
      </g>
     </g>
     <g id="text_14">
      <!-- 1.2 -->
      <g transform="translate(583.653143 332.638438) scale(0.1 -0.1)">
       <use xlink:href="#DejaVuSans-31"/>
       <use xlink:href="#DejaVuSans-2e" x="63.623047"/>
       <use xlink:href="#DejaVuSans-32" x="95.410156"/>
      </g>
     </g>
    </g>
    <g id="xtick_16">
     <g id="line2d_27">
      <g>
       <use xlink:href="#md0dace346d" x="690.476471" y="318.04" style="stroke: #000000; stroke-width: 0.8"/>
      </g>
     </g>
     <g id="text_15">
      <!-- 1.4 -->
      <g transform="translate(682.524908 332.638438) scale(0.1 -0.1)">
       <use xlink:href="#DejaVuSans-31"/>
       <use xlink:href="#DejaVuSans-2e" x="63.623047"/>
       <use xlink:href="#DejaVuSans-34" x="95.410156"/>
      </g>
     </g>
    </g>
    <g id="xtick_17">
     <g id="line2d_28">
      <g>
       <use xlink:href="#md0dace346d" x="789.348235" y="318.04" style="stroke: #000000; stroke-width: 0.8"/>
      </g>
     </g>
     <g id="text_16">
      <!-- 1.6 -->
      <g transform="translate(781.396673 332.638438) scale(0.1 -0.1)">
       <use xlink:href="#DejaVuSans-31"/>
       <use xlink:href="#DejaVuSans-2e" x="63.623047"/>
       <use xlink:href="#DejaVuSans-36" x="95.410156"/>
      </g>
     </g>
    </g>
    <g id="xtick_18">
     <g id="line2d_29">
      <g>
       <use xlink:href="#md0dace346d" x="888.22" y="318.04" style="stroke: #000000; stroke-width: 0.8"/>
      </g>
     </g>
     <g id="text_17">
      <!-- 1.8 -->
      <g transform="translate(880.268437 332.638438) scale(0.1 -0.1)">
       <use xlink:href="#DejaVuSans-31"/>
       <use xlink:href="#DejaVuSans-2e" x="63.623047"/>
       <use xlink:href="#DejaVuSans-38" x="95.410156"/>
      </g>
     </g>
    </g>
    <g id="text_18">
     <!-- Instructions -->
     <g transform="translate(438.650938 346.316563) scale(0.1 -0.1)">
      <defs>
       <path id="DejaVuSans-63" d="M 3122 3366 
L 3122 2828 
Q 2878 2963 2633 3030 
Q 2388 3097 2138 3097 
Q 1578 3097 1268 2742 
Q 959 2388 959 1747 
Q 959 1106 1268 751 
Q 1578 397 2138 397 
Q 2388 397 2633 464 
Q 2878 531 3122 666 
L 3122 134 
Q 2881 22 2623 -34 
Q 2366 -91 2075 -91 
Q 1284 -91 818 406 
Q 353 903 353 1747 
Q 353 2603 823 3093 
Q 1294 3584 2113 3584 
Q 2378 3584 2631 3529 
Q 2884 3475 3122 3366 
z
" transform="scale(0.015625)"/>
      </defs>
      <use xlink:href="#DejaVuSans-49"/>
      <use xlink:href="#DejaVuSans-6e" x="29.492188"/>
      <use xlink:href="#DejaVuSans-73" x="92.871094"/>
      <use xlink:href="#DejaVuSans-74" x="144.970703"/>
      <use xlink:href="#DejaVuSans-72" x="184.179688"/>
      <use xlink:href="#DejaVuSans-75" x="225.292969"/>
      <use xlink:href="#DejaVuSans-63" x="288.671875"/>
      <use xlink:href="#DejaVuSans-74" x="343.652344"/>
      <use xlink:href="#DejaVuSans-69" x="382.861328"/>
      <use xlink:href="#DejaVuSans-6f" x="410.644531"/>
      <use xlink:href="#DejaVuSans-6e" x="471.826172"/>
      <use xlink:href="#DejaVuSans-73" x="535.205078"/>
     </g>
    </g>
    <g id="text_19">
     <!-- 1e6 -->
     <g transform="translate(869.341875 345.316563) scale(0.1 -0.1)">
      <use xlink:href="#DejaVuSans-31"/>
      <use xlink:href="#DejaVuSans-65" x="63.623047"/>
      <use xlink:href="#DejaVuSans-36" x="125.146484"/>
     </g>
    </g>
   </g>
   <g id="matplotlib.axis_4">
    <g id="ytick_8">
     <g id="line2d_30">
      <g>
       <use xlink:href="#m6f45bb0b08" x="47.81" y="318.04" style="stroke: #000000; stroke-width: 0.8"/>
      </g>
     </g>
     <g id="text_20">
      <!-- 0 -->
      <g transform="translate(34.4475 321.839219) scale(0.1 -0.1)">
       <use xlink:href="#DejaVuSans-30"/>
      </g>
     </g>
    </g>
    <g id="ytick_9">
     <g id="line2d_31">
      <g>
       <use xlink:href="#m6f45bb0b08" x="47.81" y="294.226815" style="stroke: #000000; stroke-width: 0.8"/>
      </g>
     </g>
     <g id="text_21">
      <!-- 5 -->
      <g transform="translate(34.4475 298.026034) scale(0.1 -0.1)">
       <use xlink:href="#DejaVuSans-35"/>
      </g>
     </g>
    </g>
    <g id="ytick_10">
     <g id="line2d_32">
      <g>
       <use xlink:href="#m6f45bb0b08" x="47.81" y="270.41363" style="stroke: #000000; stroke-width: 0.8"/>
      </g>
     </g>
     <g id="text_22">
      <!-- 10 -->
      <g transform="translate(28.085 274.212849) scale(0.1 -0.1)">
       <use xlink:href="#DejaVuSans-31"/>
       <use xlink:href="#DejaVuSans-30" x="63.623047"/>
      </g>
     </g>
    </g>
    <g id="ytick_11">
     <g id="line2d_33">
      <g>
       <use xlink:href="#m6f45bb0b08" x="47.81" y="246.600445" style="stroke: #000000; stroke-width: 0.8"/>
      </g>
     </g>
     <g id="text_23">
      <!-- 15 -->
      <g transform="translate(28.085 250.399664) scale(0.1 -0.1)">
       <use xlink:href="#DejaVuSans-31"/>
       <use xlink:href="#DejaVuSans-35" x="63.623047"/>
      </g>
     </g>
    </g>
    <g id="ytick_12">
     <g id="line2d_34">
      <g>
       <use xlink:href="#m6f45bb0b08" x="47.81" y="222.78726" style="stroke: #000000; stroke-width: 0.8"/>
      </g>
     </g>
     <g id="text_24">
      <!-- 20 -->
      <g transform="translate(28.085 226.586479) scale(0.1 -0.1)">
       <use xlink:href="#DejaVuSans-32"/>
       <use xlink:href="#DejaVuSans-30" x="63.623047"/>
      </g>
     </g>
    </g>
    <g id="ytick_13">
     <g id="line2d_35">
      <g>
       <use xlink:href="#m6f45bb0b08" x="47.81" y="198.974076" style="stroke: #000000; stroke-width: 0.8"/>
      </g>
     </g>
     <g id="text_25">
      <!-- 25 -->
      <g transform="translate(28.085 202.773294) scale(0.1 -0.1)">
       <use xlink:href="#DejaVuSans-32"/>
       <use xlink:href="#DejaVuSans-35" x="63.623047"/>
      </g>
     </g>
    </g>
    <g id="ytick_14">
     <g id="line2d_36">
      <g>
       <use xlink:href="#m6f45bb0b08" x="47.81" y="175.160891" style="stroke: #000000; stroke-width: 0.8"/>
      </g>
     </g>
     <g id="text_26">
      <!-- 30 -->
      <g transform="translate(28.085 178.960109) scale(0.1 -0.1)">
       <defs>
        <path id="DejaVuSans-33" d="M 2597 2516 
Q 3050 2419 3304 2112 
Q 3559 1806 3559 1356 
Q 3559 666 3084 287 
Q 2609 -91 1734 -91 
Q 1441 -91 1130 -33 
Q 819 25 488 141 
L 488 750 
Q 750 597 1062 519 
Q 1375 441 1716 441 
Q 2309 441 2620 675 
Q 2931 909 2931 1356 
Q 2931 1769 2642 2001 
Q 2353 2234 1838 2234 
L 1294 2234 
L 1294 2753 
L 1863 2753 
Q 2328 2753 2575 2939 
Q 2822 3125 2822 3475 
Q 2822 3834 2567 4026 
Q 2313 4219 1838 4219 
Q 1578 4219 1281 4162 
Q 984 4106 628 3988 
L 628 4550 
Q 988 4650 1302 4700 
Q 1616 4750 1894 4750 
Q 2613 4750 3031 4423 
Q 3450 4097 3450 3541 
Q 3450 3153 3228 2886 
Q 3006 2619 2597 2516 
z
" transform="scale(0.015625)"/>
       </defs>
       <use xlink:href="#DejaVuSans-33"/>
       <use xlink:href="#DejaVuSans-30" x="63.623047"/>
      </g>
     </g>
    </g>
    <g id="text_27">
     <!-- Absolute IPC error (%) -->
     <g transform="translate(22.005313 301.956695) rotate(-90) scale(0.1 -0.1)">
      <defs>
       <path id="DejaVuSans-41" d="M 2188 4044 
L 1331 1722 
L 3047 1722 
L 2188 4044 
z
M 1831 4666 
L 2547 4666 
L 4325 0 
L 3669 0 
L 3244 1197 
L 1141 1197 
L 716 0 
L 50 0 
L 1831 4666 
z
" transform="scale(0.015625)"/>
       <path id="DejaVuSans-62" d="M 3116 1747 
Q 3116 2381 2855 2742 
Q 2594 3103 2138 3103 
Q 1681 3103 1420 2742 
Q 1159 2381 1159 1747 
Q 1159 1113 1420 752 
Q 1681 391 2138 391 
Q 2594 391 2855 752 
Q 3116 1113 3116 1747 
z
M 1159 2969 
Q 1341 3281 1617 3432 
Q 1894 3584 2278 3584 
Q 2916 3584 3314 3078 
Q 3713 2572 3713 1747 
Q 3713 922 3314 415 
Q 2916 -91 2278 -91 
Q 1894 -91 1617 61 
Q 1341 213 1159 525 
L 1159 0 
L 581 0 
L 581 4863 
L 1159 4863 
L 1159 2969 
z
" transform="scale(0.015625)"/>
       <path id="DejaVuSans-25" d="M 4653 2053 
Q 4381 2053 4226 1822 
Q 4072 1591 4072 1178 
Q 4072 772 4226 539 
Q 4381 306 4653 306 
Q 4919 306 5073 539 
Q 5228 772 5228 1178 
Q 5228 1588 5073 1820 
Q 4919 2053 4653 2053 
z
M 4653 2450 
Q 5147 2450 5437 2106 
Q 5728 1763 5728 1178 
Q 5728 594 5436 251 
Q 5144 -91 4653 -91 
Q 4153 -91 3862 251 
Q 3572 594 3572 1178 
Q 3572 1766 3864 2108 
Q 4156 2450 4653 2450 
z
M 1428 4353 
Q 1159 4353 1004 4120 
Q 850 3888 850 3481 
Q 850 3069 1003 2837 
Q 1156 2606 1428 2606 
Q 1700 2606 1854 2837 
Q 2009 3069 2009 3481 
Q 2009 3884 1853 4118 
Q 1697 4353 1428 4353 
z
M 4250 4750 
L 4750 4750 
L 1831 -91 
L 1331 -91 
L 4250 4750 
z
M 1428 4750 
Q 1922 4750 2215 4408 
Q 2509 4066 2509 3481 
Q 2509 2891 2217 2550 
Q 1925 2209 1428 2209 
Q 931 2209 642 2551 
Q 353 2894 353 3481 
Q 353 4063 643 4406 
Q 934 4750 1428 4750 
z
" transform="scale(0.015625)"/>
      </defs>
      <use xlink:href="#DejaVuSans-41"/>
      <use xlink:href="#DejaVuSans-62" x="68.408203"/>
      <use xlink:href="#DejaVuSans-73" x="131.884766"/>
      <use xlink:href="#DejaVuSans-6f" x="183.984375"/>
      <use xlink:href="#DejaVuSans-6c" x="245.166016"/>
      <use xlink:href="#DejaVuSans-75" x="272.949219"/>
      <use xlink:href="#DejaVuSans-74" x="336.328125"/>
      <use xlink:href="#DejaVuSans-65" x="375.537109"/>
      <use xlink:href="#DejaVuSans-20" x="437.060547"/>
      <use xlink:href="#DejaVuSans-49" x="468.847656"/>
      <use xlink:href="#DejaVuSans-50" x="498.339844"/>
      <use xlink:href="#DejaVuSans-43" x="558.642578"/>
      <use xlink:href="#DejaVuSans-20" x="628.466797"/>
      <use xlink:href="#DejaVuSans-65" x="660.253906"/>
      <use xlink:href="#DejaVuSans-72" x="721.777344"/>
      <use xlink:href="#DejaVuSans-72" x="761.140625"/>
      <use xlink:href="#DejaVuSans-6f" x="800.003906"/>
      <use xlink:href="#DejaVuSans-72" x="861.185547"/>
      <use xlink:href="#DejaVuSans-20" x="902.298828"/>
      <use xlink:href="#DejaVuSans-28" x="934.085938"/>
      <use xlink:href="#DejaVuSans-25" x="973.099609"/>
      <use xlink:href="#DejaVuSans-29" x="1068.119141"/>
     </g>
    </g>
   </g>
   <g id="line2d_37">
    <path d="M 3.317706 88.975614 
L 3.317706 263.52611 
L 8.261294 263.52611 
L 8.261294 262.967903 
L 13.204882 262.967903 
L 13.204882 288.359552 
L 18.148471 288.359552 
L 18.148471 242.084137 
L 23.092059 242.084137 
L 23.092059 247.729558 
L 28.035647 247.729558 
L 28.035647 306.466324 
L 32.979235 306.466324 
L 32.979235 301.582652 
L 37.922824 301.582652 
L 37.922824 302.541945 
L 42.866412 302.541945 
L 42.866412 297.483857 
L 47.81 297.483857 
L 47.81 299.664067 
L 57.697176 299.664067 
L 57.697176 254.79806 
L 62.640765 254.79806 
L 62.640765 270.675495 
L 67.584353 270.675495 
L 67.584353 276.616504 
L 72.527941 276.616504 
L 72.527941 268.000303 
L 77.471529 268.000303 
L 77.471529 269.911154 
L 82.415118 269.911154 
L 82.415118 266.784307 
L 87.358706 266.784307 
L 87.358706 238.598414 
L 92.302294 238.598414 
L 92.302294 210.390737 
L 97.245882 210.390737 
L 97.245882 275.719444 
L 102.189471 275.719444 
L 102.189471 264.805818 
L 107.133059 264.805818 
L 107.133059 291.466477 
L 112.076647 291.466477 
L 112.076647 289.765913 
L 117.020235 289.765913 
L 117.020235 296.393752 
L 121.963824 296.393752 
L 121.963824 289.896725 
L 126.907412 289.896725 
L 126.907412 292.687395 
L 131.851 292.687395 
L 131.851 290.46358 
L 136.794588 290.46358 
L 136.794588 292.12054 
L 141.738176 292.12054 
L 141.738176 291.248456 
L 146.681765 291.248456 
L 146.681765 289.678704 
L 151.625353 289.678704 
L 151.625353 293.297853 
L 156.568941 293.297853 
L 156.568941 290.071142 
L 161.512529 290.071142 
L 161.512529 275.54409 
L 166.456118 275.54409 
L 166.456118 276.651388 
L 171.399706 276.651388 
L 171.399706 276.260577 
L 176.343294 276.260577 
L 176.343294 277.726118 
L 181.286882 277.726118 
L 181.286882 276.455982 
L 186.230471 276.455982 
L 186.230471 276.228009 
L 191.174059 276.228009 
L 191.174059 277.758686 
L 196.117647 277.758686 
L 196.117647 249.605962 
L 201.061235 249.605962 
L 201.061235 277.43301 
L 206.004824 277.43301 
L 206.004824 249.850574 
L 210.948412 249.850574 
L 210.948412 240.674311 
L 215.892 240.674311 
L 215.892 307.30386 
L 220.835588 307.30386 
L 220.835588 294.385119 
L 225.779176 294.385119 
L 225.779176 191.780738 
L 230.722765 191.780738 
L 230.722765 249.602527 
L 235.666353 249.602527 
L 235.666353 253.51454 
L 240.609941 253.51454 
L 240.609941 255.965455 
L 245.553529 255.965455 
L 245.553529 249.665148 
L 250.497118 249.665148 
L 250.497118 293.123437 
L 255.440706 293.123437 
L 255.440706 292.730999 
L 260.384294 292.730999 
L 260.384294 292.164144 
L 265.327882 292.164144 
L 265.327882 292.294957 
L 270.271471 292.294957 
L 270.271471 290.201955 
L 275.215059 290.201955 
L 275.215059 293.167041 
L 280.158647 293.167041 
L 280.158647 290.594393 
L 285.102235 290.594393 
L 285.102235 292.382165 
L 290.045824 292.382165 
L 290.045824 290.98683 
L 294.989412 290.98683 
L 294.989412 289.809517 
L 299.933 289.809517 
L 299.933 242.225322 
L 304.876588 242.225322 
L 304.876588 276.325712 
L 309.820176 276.325712 
L 309.820176 275.80463 
L 314.763765 275.80463 
L 314.763765 278.670579 
L 319.707353 278.670579 
L 319.707353 276.260577 
L 324.650941 276.260577 
L 324.650941 275.67436 
L 329.594529 275.67436 
L 329.594529 277.856389 
L 334.538118 277.856389 
L 334.538118 276.521118 
L 339.481706 276.521118 
L 339.481706 276.130306 
L 344.425294 276.130306 
L 344.425294 250.737293 
L 349.368882 250.737293 
L 349.368882 276.48855 
L 354.312471 276.48855 
L 354.312471 276.065171 
L 359.256059 276.065171 
L 359.256059 224.288601 
L 364.199647 224.288601 
L 364.199647 240.769287 
L 369.143235 240.769287 
L 369.143235 219.348524 
L 374.086824 219.348524 
L 374.086824 309.551276 
L 379.030412 309.551276 
L 379.030412 261.355229 
L 383.974 261.355229 
L 383.974 243.930914 
L 388.917588 243.930914 
L 388.917588 239.953088 
L 393.861176 239.953088 
L 393.861176 298.748379 
L 398.804765 298.748379 
L 398.804765 306.684345 
L 403.748353 306.684345 
L 403.748353 302.323924 
L 408.691941 302.323924 
L 408.691941 300.056505 
L 413.635529 300.056505 
L 413.635529 306.422719 
L 418.579118 306.422719 
L 418.579118 258.654505 
L 423.522706 258.654505 
L 423.522706 268.625673 
L 428.466294 268.625673 
L 428.466294 261.538153 
L 433.409882 261.538153 
L 433.409882 262.198265 
L 438.353471 262.198265 
L 438.353471 264.595514 
L 443.297059 264.595514 
L 443.297059 267.027507 
L 448.240647 267.027507 
L 448.240647 227.437983 
L 453.184235 227.437983 
L 453.184235 184.821548 
L 458.127824 184.821548 
L 458.127824 210.715157 
L 463.071412 210.715157 
L 463.071412 267.231579 
L 468.015 267.231579 
L 468.015 233.00291 
L 472.958588 233.00291 
L 472.958588 225.053014 
L 477.902176 225.053014 
L 477.902176 265.325166 
L 482.845765 265.325166 
L 482.845765 284.236327 
L 487.789353 284.236327 
L 487.789353 302.454737 
L 492.732941 302.454737 
L 492.732941 300.448943 
L 497.676529 300.448943 
L 497.676529 299.576859 
L 502.620118 299.576859 
L 502.620118 297.919899 
L 507.563706 297.919899 
L 507.563706 302.236716 
L 512.507294 302.236716 
L 512.507294 235.469989 
L 517.450882 235.469989 
L 517.450882 268.695158 
L 522.394471 268.695158 
L 522.394471 280.368721 
L 527.338059 280.368721 
L 527.338059 265.151398 
L 532.281647 265.151398 
L 532.281647 271.960976 
L 537.225235 271.960976 
L 537.225235 270.536524 
L 547.112412 270.571267 
L 547.112412 272.725317 
L 552.056 272.725317 
L 552.056 258.466213 
L 556.999588 258.466213 
L 556.999588 296.209598 
L 561.943176 296.209598 
L 561.943176 190.223643 
L 566.886765 190.223643 
L 566.886765 293.864708 
L 571.830353 293.864708 
L 571.830353 292.382165 
L 576.773941 292.382165 
L 576.773941 293.428666 
L 581.717529 293.428666 
L 581.717529 290.98683 
L 586.661118 290.98683 
L 586.661118 291.597289 
L 591.604706 291.597289 
L 591.604706 291.771706 
L 596.548294 291.771706 
L 596.548294 289.809517 
L 601.491882 289.809517 
L 601.491882 293.559479 
L 606.435471 293.559479 
L 606.435471 290.201955 
L 611.379059 290.201955 
L 611.379059 292.774603 
L 616.322647 292.774603 
L 616.322647 254.882683 
L 621.266235 254.882683 
L 621.266235 276.716523 
L 626.209824 276.716523 
L 626.209824 276.097739 
L 631.153412 276.097739 
L 631.153412 278.11693 
L 636.097 278.11693 
L 636.097 276.325712 
L 641.040588 276.325712 
L 641.040588 276.065171 
L 645.984176 276.065171 
L 645.984176 277.856389 
L 650.927765 277.856389 
L 650.927765 275.772063 
L 655.871353 275.772063 
L 655.871353 276.521118 
L 660.814941 276.521118 
L 660.814941 250.706717 
L 665.758529 250.706717 
L 665.758529 240.943494 
L 670.702118 240.943494 
L 670.702118 276.130306 
L 675.645706 276.130306 
L 675.645706 233.722903 
L 680.589294 233.722903 
L 680.589294 295.470597 
L 685.532882 295.470597 
L 685.532882 263.52611 
L 690.476471 263.52611 
L 690.476471 262.569775 
L 695.420059 262.569775 
L 695.420059 240.394997 
L 700.363647 240.394997 
L 700.363647 271.331723 
L 705.307235 271.331723 
L 705.307235 291.335664 
L 710.250824 291.335664 
L 710.250824 290.245559 
L 715.194412 290.245559 
L 715.194412 296.350148 
L 720.138 296.350148 
L 720.138 289.809517 
L 725.081588 289.809517 
L 725.081588 293.167041 
L 730.025176 293.167041 
L 730.025176 290.594393 
L 734.968765 290.594393 
L 734.968765 292.207748 
L 739.912353 292.207748 
L 739.912353 291.553685 
L 744.855941 291.553685 
L 744.855941 289.809517 
L 749.799529 289.809517 
L 749.799529 293.559479 
L 754.743118 293.559479 
L 754.743118 290.201955 
L 759.686706 290.201955 
L 759.686706 263.200971 
L 764.630294 263.200971 
L 764.630294 276.651388 
L 769.573882 276.651388 
L 769.573882 276.260577 
L 774.517471 276.260577 
L 774.517471 277.823821 
L 779.461059 277.823821 
L 779.461059 276.455982 
L 784.404647 276.455982 
L 784.404647 276.228009 
L 789.348235 276.228009 
L 789.348235 277.758686 
L 794.291824 277.758686 
L 794.291824 249.605962 
L 799.235412 249.605962 
L 799.235412 277.43301 
L 804.179 277.43301 
L 804.179 249.850574 
L 809.122588 249.850574 
L 809.122588 240.674311 
L 814.066176 240.674311 
L 814.066176 243.521234 
L 819.009765 243.521234 
L 819.009765 252.231409 
L 823.953353 252.231409 
L 823.953353 268.463882 
L 828.896941 268.463882 
L 828.896941 309.643982 
L 833.840529 309.643982 
L 833.840529 166.636 
L 838.784118 166.636 
L 838.784118 254.356008 
L 843.727706 254.356008 
L 843.727706 239.845579 
L 848.671294 239.845579 
L 848.671294 275.611218 
L 853.614882 275.611218 
L 853.614882 303.93728 
L 858.558471 303.93728 
L 858.558471 303.457633 
L 863.502059 303.457633 
L 863.502059 301.800674 
L 868.445647 301.800674 
L 868.445647 302.629153 
L 873.389235 302.629153 
L 873.389235 247.949578 
L 878.332824 247.949578 
L 878.332824 264.178601 
L 883.276412 264.178601 
L 883.276412 263.344776 
L 888.22 263.344776 
L 888.22 262.128779 
L 893.163588 262.128779 
L 893.163588 277.207131 
L 898.107176 277.207131 
L 898.107176 255.631886 
L 903.050765 255.631886 
L 903.050765 233.033487 
L 907.994353 233.033487 
L 907.994353 196.046261 
L 912.937941 196.046261 
L 912.937941 232.949682 
L 917.881529 232.949682 
L 917.881529 262.960404 
L 922.825118 262.960404 
L 922.825118 284.624937 
L 924.770914 284.624937 
L 924.770914 284.624937 
" clip-path="url(#p8e453899ff)" style="fill: none; stroke: #bfbf00; stroke-width: 1.5; stroke-linecap: square"/>
   </g>
   <g id="patch_9">
    <path d="M 47.81 318.04 
L 47.81 175.160891 
" style="fill: none; stroke: #000000; stroke-width: 0.8; stroke-linejoin: miter; stroke-linecap: square"/>
   </g>
   <g id="patch_10">
    <path d="M 888.22 318.04 
L 888.22 175.160891 
" style="fill: none; stroke: #000000; stroke-width: 0.8; stroke-linejoin: miter; stroke-linecap: square"/>
   </g>
   <g id="patch_11">
    <path d="M 47.81 318.04 
L 888.22 318.04 
" style="fill: none; stroke: #000000; stroke-width: 0.8; stroke-linejoin: miter; stroke-linecap: square"/>
   </g>
   <g id="patch_12">
    <path d="M 47.81 175.160891 
L 888.22 175.160891 
" style="fill: none; stroke: #000000; stroke-width: 0.8; stroke-linejoin: miter; stroke-linecap: square"/>
   </g>
   <g id="legend_2">
    <g id="patch_13">
     <path d="M 710.873125 212.517141 
L 881.22 212.517141 
Q 883.22 212.517141 883.22 210.517141 
L 883.22 182.160891 
Q 883.22 180.160891 881.22 180.160891 
L 710.873125 180.160891 
Q 708.873125 180.160891 708.873125 182.160891 
L 708.873125 210.517141 
Q 708.873125 212.517141 710.873125 212.517141 
z
" style="fill: #ffffff; opacity: 0.8; stroke: #cccccc; stroke-linejoin: miter"/>
    </g>
    <g id="line2d_38">
     <path d="M 712.873125 188.259328 
L 712.873125 188.259328 
L 722.873125 188.259328 
L 722.873125 188.259328 
L 732.873125 188.259328 
" style="fill: none; stroke: #bfbf00; stroke-width: 1.5; stroke-linecap: square"/>
    </g>
    <g id="text_28">
     <!-- Absolute IPC error -->
     <g transform="translate(740.873125 191.759328) scale(0.1 -0.1)">
      <use xlink:href="#DejaVuSans-41"/>
      <use xlink:href="#DejaVuSans-62" x="68.408203"/>
      <use xlink:href="#DejaVuSans-73" x="131.884766"/>
      <use xlink:href="#DejaVuSans-6f" x="183.984375"/>
      <use xlink:href="#DejaVuSans-6c" x="245.166016"/>
      <use xlink:href="#DejaVuSans-75" x="272.949219"/>
      <use xlink:href="#DejaVuSans-74" x="336.328125"/>
      <use xlink:href="#DejaVuSans-65" x="375.537109"/>
      <use xlink:href="#DejaVuSans-20" x="437.060547"/>
      <use xlink:href="#DejaVuSans-49" x="468.847656"/>
      <use xlink:href="#DejaVuSans-50" x="498.339844"/>
      <use xlink:href="#DejaVuSans-43" x="558.642578"/>
      <use xlink:href="#DejaVuSans-20" x="628.466797"/>
      <use xlink:href="#DejaVuSans-65" x="660.253906"/>
      <use xlink:href="#DejaVuSans-72" x="721.777344"/>
      <use xlink:href="#DejaVuSans-72" x="761.140625"/>
      <use xlink:href="#DejaVuSans-6f" x="800.003906"/>
      <use xlink:href="#DejaVuSans-72" x="861.185547"/>
     </g>
    </g>
    <g id="line2d_39">
     <path d="M 712.873125 202.937453 
L 712.873125 202.937453 
L 722.873125 202.937453 
L 722.873125 202.937453 
L 732.873125 202.937453 
" style="fill: none; stroke: #ff0000; stroke-width: 1.5; stroke-linecap: square"/>
    </g>
    <g id="text_29">
     <!-- Distance to cluster centroid -->
     <g transform="translate(740.873125 206.437453) scale(0.1 -0.1)">
      <defs>
       <path id="DejaVuSans-44" d="M 1259 4147 
L 1259 519 
L 2022 519 
Q 2988 519 3436 956 
Q 3884 1394 3884 2338 
Q 3884 3275 3436 3711 
Q 2988 4147 2022 4147 
L 1259 4147 
z
M 628 4666 
L 1925 4666 
Q 3281 4666 3915 4102 
Q 4550 3538 4550 2338 
Q 4550 1131 3912 565 
Q 3275 0 1925 0 
L 628 0 
L 628 4666 
z
" transform="scale(0.015625)"/>
      </defs>
      <use xlink:href="#DejaVuSans-44"/>
      <use xlink:href="#DejaVuSans-69" x="77.001953"/>
      <use xlink:href="#DejaVuSans-73" x="104.785156"/>
      <use xlink:href="#DejaVuSans-74" x="156.884766"/>
      <use xlink:href="#DejaVuSans-61" x="196.09375"/>
      <use xlink:href="#DejaVuSans-6e" x="257.373047"/>
      <use xlink:href="#DejaVuSans-63" x="320.751953"/>
      <use xlink:href="#DejaVuSans-65" x="375.732422"/>
      <use xlink:href="#DejaVuSans-20" x="437.255859"/>
      <use xlink:href="#DejaVuSans-74" x="469.042969"/>
      <use xlink:href="#DejaVuSans-6f" x="508.251953"/>
      <use xlink:href="#DejaVuSans-20" x="569.433594"/>
      <use xlink:href="#DejaVuSans-63" x="601.220703"/>
      <use xlink:href="#DejaVuSans-6c" x="656.201172"/>
      <use xlink:href="#DejaVuSans-75" x="683.984375"/>
      <use xlink:href="#DejaVuSans-73" x="747.363281"/>
      <use xlink:href="#DejaVuSans-74" x="799.462891"/>
      <use xlink:href="#DejaVuSans-65" x="838.671875"/>
      <use xlink:href="#DejaVuSans-72" x="900.195312"/>
      <use xlink:href="#DejaVuSans-20" x="941.308594"/>
      <use xlink:href="#DejaVuSans-63" x="973.095703"/>
      <use xlink:href="#DejaVuSans-65" x="1028.076172"/>
      <use xlink:href="#DejaVuSans-6e" x="1089.599609"/>
      <use xlink:href="#DejaVuSans-74" x="1152.978516"/>
      <use xlink:href="#DejaVuSans-72" x="1192.1875"/>
      <use xlink:href="#DejaVuSans-6f" x="1231.050781"/>
      <use xlink:href="#DejaVuSans-69" x="1292.232422"/>
      <use xlink:href="#DejaVuSans-64" x="1320.015625"/>
     </g>
    </g>
   </g>
  </g>
  <g id="axes_3">
   <g id="matplotlib.axis_5">
    <g id="ytick_15">
     <g id="line2d_40">
      <defs>
       <path id="m0704939a5a" d="M 0 0 
L 3.5 0 
" style="stroke: #000000; stroke-width: 0.8"/>
      </defs>
      <g>
       <use xlink:href="#m0704939a5a" x="888.22" y="318.04" style="stroke: #000000; stroke-width: 0.8"/>
      </g>
     </g>
     <g id="text_30">
      <!-- 0.0 -->
      <g transform="translate(895.22 321.839219) scale(0.1 -0.1)">
       <use xlink:href="#DejaVuSans-30"/>
       <use xlink:href="#DejaVuSans-2e" x="63.623047"/>
       <use xlink:href="#DejaVuSans-30" x="95.410156"/>
      </g>
     </g>
    </g>
    <g id="ytick_16">
     <g id="line2d_41">
      <g>
       <use xlink:href="#m0704939a5a" x="888.22" y="289.464178" style="stroke: #000000; stroke-width: 0.8"/>
      </g>
     </g>
     <g id="text_31">
      <!-- 0.5 -->
      <g transform="translate(895.22 293.263397) scale(0.1 -0.1)">
       <use xlink:href="#DejaVuSans-30"/>
       <use xlink:href="#DejaVuSans-2e" x="63.623047"/>
       <use xlink:href="#DejaVuSans-35" x="95.410156"/>
      </g>
     </g>
    </g>
    <g id="ytick_17">
     <g id="line2d_42">
      <g>
       <use xlink:href="#m0704939a5a" x="888.22" y="260.888356" style="stroke: #000000; stroke-width: 0.8"/>
      </g>
     </g>
     <g id="text_32">
      <!-- 1.0 -->
      <g transform="translate(895.22 264.687575) scale(0.1 -0.1)">
       <use xlink:href="#DejaVuSans-31"/>
       <use xlink:href="#DejaVuSans-2e" x="63.623047"/>
       <use xlink:href="#DejaVuSans-30" x="95.410156"/>
      </g>
     </g>
    </g>
    <g id="ytick_18">
     <g id="line2d_43">
      <g>
       <use xlink:href="#m0704939a5a" x="888.22" y="232.312534" style="stroke: #000000; stroke-width: 0.8"/>
      </g>
     </g>
     <g id="text_33">
      <!-- 1.5 -->
      <g transform="translate(895.22 236.111753) scale(0.1 -0.1)">
       <use xlink:href="#DejaVuSans-31"/>
       <use xlink:href="#DejaVuSans-2e" x="63.623047"/>
       <use xlink:href="#DejaVuSans-35" x="95.410156"/>
      </g>
     </g>
    </g>
    <g id="ytick_19">
     <g id="line2d_44">
      <g>
       <use xlink:href="#m0704939a5a" x="888.22" y="203.736713" style="stroke: #000000; stroke-width: 0.8"/>
      </g>
     </g>
     <g id="text_34">
      <!-- 2.0 -->
      <g transform="translate(895.22 207.535931) scale(0.1 -0.1)">
       <use xlink:href="#DejaVuSans-32"/>
       <use xlink:href="#DejaVuSans-2e" x="63.623047"/>
       <use xlink:href="#DejaVuSans-30" x="95.410156"/>
      </g>
     </g>
    </g>
    <g id="ytick_20">
     <g id="line2d_45">
      <g>
       <use xlink:href="#m0704939a5a" x="888.22" y="175.160891" style="stroke: #000000; stroke-width: 0.8"/>
      </g>
     </g>
     <g id="text_35">
      <!-- 2.5 -->
      <g transform="translate(895.22 178.960109) scale(0.1 -0.1)">
       <use xlink:href="#DejaVuSans-32"/>
       <use xlink:href="#DejaVuSans-2e" x="63.623047"/>
       <use xlink:href="#DejaVuSans-35" x="95.410156"/>
      </g>
     </g>
    </g>
    <g id="text_36">
     <!-- abs(z-score) -->
     <g transform="translate(922.721563 277.205914) rotate(-90) scale(0.1 -0.1)">
      <defs>
       <path id="DejaVuSans-7a" d="M 353 3500 
L 3084 3500 
L 3084 2975 
L 922 459 
L 3084 459 
L 3084 0 
L 275 0 
L 275 525 
L 2438 3041 
L 353 3041 
L 353 3500 
z
" transform="scale(0.015625)"/>
       <path id="DejaVuSans-2d" d="M 313 2009 
L 1997 2009 
L 1997 1497 
L 313 1497 
L 313 2009 
z
" transform="scale(0.015625)"/>
      </defs>
      <use xlink:href="#DejaVuSans-61"/>
      <use xlink:href="#DejaVuSans-62" x="61.279297"/>
      <use xlink:href="#DejaVuSans-73" x="124.755859"/>
      <use xlink:href="#DejaVuSans-28" x="176.855469"/>
      <use xlink:href="#DejaVuSans-7a" x="215.869141"/>
      <use xlink:href="#DejaVuSans-2d" x="268.359375"/>
      <use xlink:href="#DejaVuSans-73" x="304.443359"/>
      <use xlink:href="#DejaVuSans-63" x="356.542969"/>
      <use xlink:href="#DejaVuSans-6f" x="411.523438"/>
      <use xlink:href="#DejaVuSans-72" x="472.705078"/>
      <use xlink:href="#DejaVuSans-65" x="511.568359"/>
      <use xlink:href="#DejaVuSans-29" x="573.091797"/>
     </g>
    </g>
   </g>
   <g id="line2d_46">
    <path d="M 3.317706 318.04 
L 3.317706 288.556883 
L 8.261294 288.556883 
L 8.261294 283.324881 
L 13.204882 283.324881 
L 13.204882 254.136062 
L 18.148471 254.136062 
L 18.148471 306.697213 
L 23.092059 306.697213 
L 23.092059 315.248119 
L 28.035647 315.248119 
L 28.035647 232.015185 
L 32.979235 232.015185 
L 32.979235 240.870459 
L 37.922824 240.870459 
L 37.922824 246.808276 
L 42.866412 246.808276 
L 42.866412 310.789096 
L 47.81 310.789096 
L 47.81 297.216824 
L 52.753588 297.216824 
L 52.753588 316.217733 
L 57.697176 316.217733 
L 57.697176 123.915036 
L 62.640765 123.915036 
L 62.640765 270.638407 
L 67.584353 270.638407 
L 67.584353 313.696339 
L 72.527941 313.696339 
L 72.527941 273.369521 
L 77.471529 273.369521 
L 77.471529 286.490183 
L 82.415118 286.490183 
L 82.415118 310.102197 
L 87.358706 310.102197 
L 87.358706 294.633902 
L 92.302294 294.633902 
L 92.302294 270.533616 
L 97.245882 270.533616 
L 97.245882 299.004986 
L 102.189471 299.004986 
L 102.189471 240.495169 
L 107.133059 240.495169 
L 107.133059 283.258285 
L 112.076647 283.258285 
L 112.076647 288.134839 
L 117.020235 288.134839 
L 117.020235 283.661291 
L 121.963824 283.661291 
L 121.963824 285.335213 
L 126.907412 285.335213 
L 126.907412 282.520268 
L 131.851 282.520268 
L 131.851 283.975759 
L 136.794588 283.975759 
L 136.794588 282.303537 
L 141.738176 282.303537 
L 141.738176 283.202887 
L 146.681765 283.202887 
L 146.681765 286.387208 
L 151.625353 286.387208 
L 151.625353 284.500783 
L 156.568941 284.500783 
L 156.568941 285.296562 
L 161.512529 285.296562 
L 161.512529 291.596385 
L 166.456118 291.596385 
L 166.456118 221.546675 
L 171.399706 221.546675 
L 171.399706 221.948947 
L 176.343294 221.948947 
L 176.343294 260.479193 
L 181.286882 260.479193 
L 181.286882 287.031776 
L 186.230471 287.031776 
L 186.230471 292.610821 
L 191.174059 292.610821 
L 191.174059 264.803101 
L 196.117647 264.803101 
L 196.117647 291.166291 
L 201.061235 291.166291 
L 201.061235 269.812675 
L 206.004824 269.812675 
L 206.004824 302.067185 
L 210.948412 302.067185 
L 210.948412 275.429845 
L 215.892 275.429845 
L 215.892 298.541087 
L 220.835588 298.541087 
L 220.835588 263.002366 
L 225.779176 263.002366 
L 225.779176 284.777068 
L 230.722765 284.777068 
L 230.722765 281.190585 
L 235.666353 281.190585 
L 235.666353 261.147012 
L 240.609941 261.147012 
L 240.609941 308.231893 
L 245.553529 308.231893 
L 245.553529 229.911455 
L 250.497118 229.911455 
L 250.497118 282.937185 
L 255.440706 282.937185 
L 255.440706 282.825202 
L 260.384294 282.825202 
L 260.384294 282.505551 
L 265.327882 282.505551 
L 265.327882 283.264442 
L 270.271471 283.264442 
L 270.271471 284.631211 
L 275.215059 284.631211 
L 275.215059 284.162424 
L 280.158647 284.162424 
L 280.158647 283.931347 
L 285.102235 283.931347 
L 285.102235 282.303537 
L 290.045824 282.303537 
L 290.045824 282.909745 
L 294.989412 282.909745 
L 294.989412 286.959718 
L 299.933 286.959718 
L 299.933 284.640897 
L 304.876588 284.640897 
L 304.876588 311.227473 
L 309.820176 311.227473 
L 309.820176 273.991306 
L 314.763765 273.991306 
L 314.763765 284.61433 
L 319.707353 284.61433 
L 319.707353 285.926108 
L 324.650941 285.926108 
L 324.650941 259.000177 
L 329.594529 259.000177 
L 329.594529 257.903545 
L 334.538118 257.903545 
L 334.538118 253.348752 
L 339.481706 253.348752 
L 339.481706 299.736988 
L 344.425294 299.736988 
L 344.425294 291.491287 
L 349.368882 291.491287 
L 349.368882 205.936002 
L 354.312471 205.936002 
L 354.312471 302.669632 
L 359.256059 302.669632 
L 359.256059 105.353804 
L 364.199647 105.353804 
L 364.199647 288.437988 
L 369.143235 288.437988 
L 369.143235 243.120183 
L 374.086824 243.120183 
L 374.086824 312.513915 
L 379.030412 312.513915 
L 379.030412 278.818796 
L 383.974 278.818796 
L 383.974 277.597786 
L 388.917588 277.597786 
L 388.917588 249.285725 
L 393.861176 249.285725 
L 393.861176 287.727785 
L 398.804765 287.727785 
L 398.804765 152.869348 
L 403.748353 152.869348 
L 403.748353 204.694732 
L 408.691941 204.694732 
L 408.691941 237.894286 
L 413.635529 237.894286 
L 413.635529 151.74606 
L 418.579118 151.74606 
L 418.579118 235.204396 
L 423.522706 235.204396 
L 423.522706 278.548592 
L 428.466294 278.548592 
L 428.466294 313.560326 
L 433.409882 313.560326 
L 433.409882 287.614643 
L 438.353471 287.614643 
L 438.353471 303.344398 
L 443.297059 303.344398 
L 443.297059 309.239602 
L 448.240647 309.239602 
L 448.240647 313.865016 
L 453.184235 313.865016 
L 453.184235 237.657989 
L 458.127824 237.657989 
L 458.127824 318.04 
L 463.071412 318.04 
L 463.071412 173.03061 
L 468.015 173.03061 
L 468.015 298.175373 
L 472.958588 298.175373 
L 472.958588 307.180335 
L 477.902176 307.180335 
L 477.902176 235.870276 
L 482.845765 235.870276 
L 482.845765 283.738498 
L 487.789353 283.738498 
L 487.789353 271.497348 
L 492.732941 271.497348 
L 492.732941 248.581572 
L 497.676529 248.581572 
L 497.676529 282.09181 
L 502.620118 282.09181 
L 502.620118 306.071299 
L 507.563706 306.071299 
L 507.563706 279.14377 
L 512.507294 279.14377 
L 512.507294 290.512446 
L 517.450882 290.512446 
L 517.450882 282.912671 
L 522.394471 282.912671 
L 522.394471 256.689393 
L 527.338059 256.689393 
L 527.338059 301.884972 
L 532.281647 301.884972 
L 532.281647 268.921452 
L 537.225235 268.921452 
L 537.225235 268.699988 
L 542.168824 268.699988 
L 542.168824 270.923602 
L 547.112412 270.923602 
L 547.112412 309.500649 
L 552.056 309.500649 
L 552.056 318.04 
L 556.999588 318.04 
L 556.999588 259.530184 
L 561.943176 259.530184 
L 561.943176 271.810779 
L 566.886765 271.810779 
L 566.886765 284.98882 
L 571.830353 284.98882 
L 571.830353 285.336841 
L 576.773941 285.336841 
L 576.773941 282.498655 
L 581.717529 282.498655 
L 581.717529 283.620191 
L 586.661118 283.620191 
L 586.661118 282.118419 
L 591.604706 282.118419 
L 591.604706 282.727128 
L 596.548294 282.727128 
L 596.548294 286.150465 
L 601.491882 286.150465 
L 601.491882 284.7181 
L 606.435471 284.7181 
L 606.435471 285.31382 
L 611.379059 285.31382 
L 611.379059 282.560252 
L 616.322647 282.560252 
L 616.322647 240.355521 
L 621.266235 240.355521 
L 621.266235 220.878413 
L 626.209824 220.878413 
L 626.209824 281.141792 
L 631.153412 281.141792 
L 631.153412 235.098801 
L 636.097 235.098801 
L 636.097 306.365457 
L 641.040588 306.365457 
L 641.040588 270.184847 
L 645.984176 270.184847 
L 645.984176 288.793023 
L 650.927765 288.793023 
L 650.927765 299.12472 
L 655.871353 299.12472 
L 655.871353 253.348752 
L 660.814941 253.348752 
L 660.814941 291.443883 
L 665.758529 291.443883 
L 665.758529 237.255963 
L 670.702118 237.255963 
L 670.702118 286.362272 
L 675.645706 286.362272 
L 675.645706 241.226141 
L 680.589294 241.226141 
L 680.589294 263.000843 
L 685.532882 263.000843 
L 685.532882 283.58864 
L 690.476471 283.58864 
L 690.476471 269.792279 
L 695.420059 269.792279 
L 695.420059 288.396913 
L 700.363647 288.396913 
L 700.363647 288.760172 
L 705.307235 288.760172 
L 705.307235 282.81327 
L 710.250824 282.81327 
L 710.250824 287.636503 
L 715.194412 287.636503 
L 715.194412 283.916049 
L 720.138 283.916049 
L 720.138 285.86327 
L 725.081588 285.86327 
L 725.081588 284.186239 
L 730.025176 284.186239 
L 730.025176 283.924644 
L 734.968765 283.924644 
L 734.968765 282.303537 
L 739.912353 282.303537 
L 739.912353 283.069398 
L 744.855941 283.069398 
L 744.855941 286.036126 
L 749.799529 286.036126 
L 749.799529 285.013917 
L 754.743118 285.013917 
L 754.743118 285.366832 
L 759.686706 285.366832 
L 759.686706 291.363003 
L 764.630294 291.363003 
L 764.630294 220.878413 
L 769.573882 220.878413 
L 769.573882 222.97472 
L 774.517471 222.97472 
L 774.517471 260.479193 
L 779.461059 260.479193 
L 779.461059 281.542689 
L 784.404647 281.542689 
L 784.404647 287.660543 
L 789.348235 287.660543 
L 789.348235 270.461975 
L 794.291824 270.461975 
L 794.291824 291.166291 
L 799.235412 291.166291 
L 799.235412 264.147658 
L 804.179 264.147658 
L 804.179 300.90855 
L 809.122588 300.90855 
L 809.122588 279.866118 
L 814.066176 279.866118 
L 814.066176 294.214114 
L 819.009765 294.214114 
L 819.009765 271.748008 
L 823.953353 271.748008 
L 823.953353 248.727974 
L 828.896941 248.727974 
L 828.896941 312.513889 
L 833.840529 312.513889 
L 833.840529 232.067987 
L 838.784118 232.067987 
L 838.784118 312.776885 
L 843.727706 312.776885 
L 843.727706 261.390457 
L 848.671294 261.390457 
L 848.671294 237.509278 
L 853.614882 237.509278 
L 853.614882 226.911675 
L 858.558471 226.911675 
L 858.558471 208.210069 
L 863.502059 208.210069 
L 863.502059 177.577854 
L 868.445647 177.577854 
L 868.445647 217.270544 
L 873.389235 217.270544 
L 873.389235 246.22707 
L 878.332824 246.22707 
L 878.332824 296.37334 
L 883.276412 296.37334 
L 883.276412 307.169503 
L 888.22 307.169503 
L 888.22 268.253472 
L 893.163588 268.253472 
L 893.163588 221.949159 
L 898.107176 221.949159 
L 898.107176 303.517135 
L 903.050765 303.517135 
L 903.050765 301.888829 
L 907.994353 301.888829 
L 907.994353 285.164372 
L 912.937941 285.164372 
L 912.937941 293.641452 
L 917.881529 293.641452 
L 917.881529 263.508481 
L 922.825118 263.508481 
L 922.825118 239.109933 
L 925.29444 239.109933 
L 925.29444 239.109933 
" clip-path="url(#p8e453899ff)" style="fill: none; stroke: #ff0000; stroke-width: 1.5; stroke-linecap: square"/>
   </g>
   <g id="patch_14">
    <path d="M 47.81 318.04 
L 47.81 175.160891 
" style="fill: none; stroke: #000000; stroke-width: 0.8; stroke-linejoin: miter; stroke-linecap: square"/>
   </g>
   <g id="patch_15">
    <path d="M 888.22 318.04 
L 888.22 175.160891 
" style="fill: none; stroke: #000000; stroke-width: 0.8; stroke-linejoin: miter; stroke-linecap: square"/>
   </g>
   <g id="patch_16">
    <path d="M 47.81 318.04 
L 888.22 318.04 
" style="fill: none; stroke: #000000; stroke-width: 0.8; stroke-linejoin: miter; stroke-linecap: square"/>
   </g>
   <g id="patch_17">
    <path d="M 47.81 175.160891 
L 888.22 175.160891 
" style="fill: none; stroke: #000000; stroke-width: 0.8; stroke-linejoin: miter; stroke-linecap: square"/>
   </g>
  </g>
 </g>
 <defs>
  <clipPath id="p1891fb1ea1">
   <rect x="47.81" y="14.021781" width="840.41" height="142.879109"/>
  </clipPath>
  <clipPath id="p8e453899ff">
   <rect x="47.81" y="175.160891" width="840.41" height="142.879109"/>
  </clipPath>
 </defs>
</svg>
