<?xml version="1.0" encoding="utf-8" standalone="no"?>
<!DOCTYPE svg PUBLIC "-//W3C//DTD SVG 1.1//EN"
  "http://www.w3.org/Graphics/SVG/1.1/DTD/svg11.dtd">
<svg xmlns:xlink="http://www.w3.org/1999/xlink" width="936pt" height="360pt" viewBox="0 0 936 360" xmlns="http://www.w3.org/2000/svg" version="1.1">
 <metadata>
  <rdf:RDF xmlns:dc="http://purl.org/dc/elements/1.1/" xmlns:cc="http://creativecommons.org/ns#" xmlns:rdf="http://www.w3.org/1999/02/22-rdf-syntax-ns#">
   <cc:Work>
    <dc:type rdf:resource="http://purl.org/dc/dcmitype/StillImage"/>
    <dc:date>2024-02-19T15:31:22.071609</dc:date>
    <dc:format>image/svg+xml</dc:format>
    <dc:creator>
     <cc:Agent>
      <dc:title>Matplotlib v3.8.3, https://matplotlib.org/</dc:title>
     </cc:Agent>
    </dc:creator>
   </cc:Work>
  </rdf:RDF>
 </metadata>
 <defs>
  <style type="text/css">*{stroke-linejoin: round; stroke-linecap: butt}</style>
 </defs>
 <g id="figure_1">
  <g id="patch_1">
   <path d="M 0 360 
L 936 360 
L 936 0 
L 0 0 
z
" style="fill: #ffffff"/>
  </g>
  <g id="axes_1">
   <g id="patch_2">
    <path d="M 47.81 156.989807 
L 888.22 156.989807 
L 888.22 14.199615 
L 47.81 14.199615 
z
" style="fill: #ffffff"/>
   </g>
   <g id="matplotlib.axis_1">
    <g id="xtick_1">
     <g id="line2d_1">
      <defs>
       <path id="m837725b21b" d="M 0 0 
L 0 3.5 
" style="stroke: #000000; stroke-width: 0.8"/>
      </defs>
      <g>
       <use xlink:href="#m837725b21b" x="81.91388" y="156.989807" style="stroke: #000000; stroke-width: 0.8"/>
      </g>
     </g>
    </g>
    <g id="xtick_2">
     <g id="line2d_2">
      <g>
       <use xlink:href="#m837725b21b" x="184.328242" y="156.989807" style="stroke: #000000; stroke-width: 0.8"/>
      </g>
     </g>
    </g>
    <g id="xtick_3">
     <g id="line2d_3">
      <g>
       <use xlink:href="#m837725b21b" x="286.742604" y="156.989807" style="stroke: #000000; stroke-width: 0.8"/>
      </g>
     </g>
    </g>
    <g id="xtick_4">
     <g id="line2d_4">
      <g>
       <use xlink:href="#m837725b21b" x="389.156966" y="156.989807" style="stroke: #000000; stroke-width: 0.8"/>
      </g>
     </g>
    </g>
    <g id="xtick_5">
     <g id="line2d_5">
      <g>
       <use xlink:href="#m837725b21b" x="491.571327" y="156.989807" style="stroke: #000000; stroke-width: 0.8"/>
      </g>
     </g>
    </g>
    <g id="xtick_6">
     <g id="line2d_6">
      <g>
       <use xlink:href="#m837725b21b" x="593.985689" y="156.989807" style="stroke: #000000; stroke-width: 0.8"/>
      </g>
     </g>
    </g>
    <g id="xtick_7">
     <g id="line2d_7">
      <g>
       <use xlink:href="#m837725b21b" x="696.400051" y="156.989807" style="stroke: #000000; stroke-width: 0.8"/>
      </g>
     </g>
    </g>
    <g id="xtick_8">
     <g id="line2d_8">
      <g>
       <use xlink:href="#m837725b21b" x="798.814413" y="156.989807" style="stroke: #000000; stroke-width: 0.8"/>
      </g>
     </g>
    </g>
   </g>
   <g id="matplotlib.axis_2">
    <g id="ytick_1">
     <g id="line2d_9">
      <defs>
       <path id="m080f3dc929" d="M 0 0 
L -3.5 0 
" style="stroke: #000000; stroke-width: 0.8"/>
      </defs>
      <g>
       <use xlink:href="#m080f3dc929" x="47.81" y="148.761649" style="stroke: #000000; stroke-width: 0.8"/>
      </g>
     </g>
     <g id="text_1">
      <!-- 0.4 -->
      <g transform="translate(24.906875 152.560868) scale(0.1 -0.1)">
       <defs>
        <path id="DejaVuSans-30" d="M 2034 4250 
Q 1547 4250 1301 3770 
Q 1056 3291 1056 2328 
Q 1056 1369 1301 889 
Q 1547 409 2034 409 
Q 2525 409 2770 889 
Q 3016 1369 3016 2328 
Q 3016 3291 2770 3770 
Q 2525 4250 2034 4250 
z
M 2034 4750 
Q 2819 4750 3233 4129 
Q 3647 3509 3647 2328 
Q 3647 1150 3233 529 
Q 2819 -91 2034 -91 
Q 1250 -91 836 529 
Q 422 1150 422 2328 
Q 422 3509 836 4129 
Q 1250 4750 2034 4750 
z
" transform="scale(0.015625)"/>
        <path id="DejaVuSans-2e" d="M 684 794 
L 1344 794 
L 1344 0 
L 684 0 
L 684 794 
z
" transform="scale(0.015625)"/>
        <path id="DejaVuSans-34" d="M 2419 4116 
L 825 1625 
L 2419 1625 
L 2419 4116 
z
M 2253 4666 
L 3047 4666 
L 3047 1625 
L 3713 1625 
L 3713 1100 
L 3047 1100 
L 3047 0 
L 2419 0 
L 2419 1100 
L 313 1100 
L 313 1709 
L 2253 4666 
z
" transform="scale(0.015625)"/>
       </defs>
       <use xlink:href="#DejaVuSans-30"/>
       <use xlink:href="#DejaVuSans-2e" x="63.623047"/>
       <use xlink:href="#DejaVuSans-34" x="95.410156"/>
      </g>
     </g>
    </g>
    <g id="ytick_2">
     <g id="line2d_10">
      <g>
       <use xlink:href="#m080f3dc929" x="47.81" y="126.430864" style="stroke: #000000; stroke-width: 0.8"/>
      </g>
     </g>
     <g id="text_2">
      <!-- 0.5 -->
      <g transform="translate(24.906875 130.230083) scale(0.1 -0.1)">
       <defs>
        <path id="DejaVuSans-35" d="M 691 4666 
L 3169 4666 
L 3169 4134 
L 1269 4134 
L 1269 2991 
Q 1406 3038 1543 3061 
Q 1681 3084 1819 3084 
Q 2600 3084 3056 2656 
Q 3513 2228 3513 1497 
Q 3513 744 3044 326 
Q 2575 -91 1722 -91 
Q 1428 -91 1123 -41 
Q 819 9 494 109 
L 494 744 
Q 775 591 1075 516 
Q 1375 441 1709 441 
Q 2250 441 2565 725 
Q 2881 1009 2881 1497 
Q 2881 1984 2565 2268 
Q 2250 2553 1709 2553 
Q 1456 2553 1204 2497 
Q 953 2441 691 2322 
L 691 4666 
z
" transform="scale(0.015625)"/>
       </defs>
       <use xlink:href="#DejaVuSans-30"/>
       <use xlink:href="#DejaVuSans-2e" x="63.623047"/>
       <use xlink:href="#DejaVuSans-35" x="95.410156"/>
      </g>
     </g>
    </g>
    <g id="ytick_3">
     <g id="line2d_11">
      <g>
       <use xlink:href="#m080f3dc929" x="47.81" y="104.10008" style="stroke: #000000; stroke-width: 0.8"/>
      </g>
     </g>
     <g id="text_3">
      <!-- 0.6 -->
      <g transform="translate(24.906875 107.899298) scale(0.1 -0.1)">
       <defs>
        <path id="DejaVuSans-36" d="M 2113 2584 
Q 1688 2584 1439 2293 
Q 1191 2003 1191 1497 
Q 1191 994 1439 701 
Q 1688 409 2113 409 
Q 2538 409 2786 701 
Q 3034 994 3034 1497 
Q 3034 2003 2786 2293 
Q 2538 2584 2113 2584 
z
M 3366 4563 
L 3366 3988 
Q 3128 4100 2886 4159 
Q 2644 4219 2406 4219 
Q 1781 4219 1451 3797 
Q 1122 3375 1075 2522 
Q 1259 2794 1537 2939 
Q 1816 3084 2150 3084 
Q 2853 3084 3261 2657 
Q 3669 2231 3669 1497 
Q 3669 778 3244 343 
Q 2819 -91 2113 -91 
Q 1303 -91 875 529 
Q 447 1150 447 2328 
Q 447 3434 972 4092 
Q 1497 4750 2381 4750 
Q 2619 4750 2861 4703 
Q 3103 4656 3366 4563 
z
" transform="scale(0.015625)"/>
       </defs>
       <use xlink:href="#DejaVuSans-30"/>
       <use xlink:href="#DejaVuSans-2e" x="63.623047"/>
       <use xlink:href="#DejaVuSans-36" x="95.410156"/>
      </g>
     </g>
    </g>
    <g id="ytick_4">
     <g id="line2d_12">
      <g>
       <use xlink:href="#m080f3dc929" x="47.81" y="81.769295" style="stroke: #000000; stroke-width: 0.8"/>
      </g>
     </g>
     <g id="text_4">
      <!-- 0.7 -->
      <g transform="translate(24.906875 85.568514) scale(0.1 -0.1)">
       <defs>
        <path id="DejaVuSans-37" d="M 525 4666 
L 3525 4666 
L 3525 4397 
L 1831 0 
L 1172 0 
L 2766 4134 
L 525 4134 
L 525 4666 
z
" transform="scale(0.015625)"/>
       </defs>
       <use xlink:href="#DejaVuSans-30"/>
       <use xlink:href="#DejaVuSans-2e" x="63.623047"/>
       <use xlink:href="#DejaVuSans-37" x="95.410156"/>
      </g>
     </g>
    </g>
    <g id="ytick_5">
     <g id="line2d_13">
      <g>
       <use xlink:href="#m080f3dc929" x="47.81" y="59.438511" style="stroke: #000000; stroke-width: 0.8"/>
      </g>
     </g>
     <g id="text_5">
      <!-- 0.8 -->
      <g transform="translate(24.906875 63.237729) scale(0.1 -0.1)">
       <defs>
        <path id="DejaVuSans-38" d="M 2034 2216 
Q 1584 2216 1326 1975 
Q 1069 1734 1069 1313 
Q 1069 891 1326 650 
Q 1584 409 2034 409 
Q 2484 409 2743 651 
Q 3003 894 3003 1313 
Q 3003 1734 2745 1975 
Q 2488 2216 2034 2216 
z
M 1403 2484 
Q 997 2584 770 2862 
Q 544 3141 544 3541 
Q 544 4100 942 4425 
Q 1341 4750 2034 4750 
Q 2731 4750 3128 4425 
Q 3525 4100 3525 3541 
Q 3525 3141 3298 2862 
Q 3072 2584 2669 2484 
Q 3125 2378 3379 2068 
Q 3634 1759 3634 1313 
Q 3634 634 3220 271 
Q 2806 -91 2034 -91 
Q 1263 -91 848 271 
Q 434 634 434 1313 
Q 434 1759 690 2068 
Q 947 2378 1403 2484 
z
M 1172 3481 
Q 1172 3119 1398 2916 
Q 1625 2713 2034 2713 
Q 2441 2713 2670 2916 
Q 2900 3119 2900 3481 
Q 2900 3844 2670 4047 
Q 2441 4250 2034 4250 
Q 1625 4250 1398 4047 
Q 1172 3844 1172 3481 
z
" transform="scale(0.015625)"/>
       </defs>
       <use xlink:href="#DejaVuSans-30"/>
       <use xlink:href="#DejaVuSans-2e" x="63.623047"/>
       <use xlink:href="#DejaVuSans-38" x="95.410156"/>
      </g>
     </g>
    </g>
    <g id="ytick_6">
     <g id="line2d_14">
      <g>
       <use xlink:href="#m080f3dc929" x="47.81" y="37.107726" style="stroke: #000000; stroke-width: 0.8"/>
      </g>
     </g>
    </g>
    <g id="ytick_7">
     <g id="line2d_15">
      <g>
       <use xlink:href="#m080f3dc929" x="47.81" y="14.776942" style="stroke: #000000; stroke-width: 0.8"/>
      </g>
     </g>
    </g>
    <g id="text_6">
     <!-- IPC -->
     <g transform="translate(18.827188 93.575961) rotate(-90) scale(0.1 -0.1)">
      <defs>
       <path id="DejaVuSans-49" d="M 628 4666 
L 1259 4666 
L 1259 0 
L 628 0 
L 628 4666 
z
" transform="scale(0.015625)"/>
       <path id="DejaVuSans-50" d="M 1259 4147 
L 1259 2394 
L 2053 2394 
Q 2494 2394 2734 2622 
Q 2975 2850 2975 3272 
Q 2975 3691 2734 3919 
Q 2494 4147 2053 4147 
L 1259 4147 
z
M 628 4666 
L 2053 4666 
Q 2838 4666 3239 4311 
Q 3641 3956 3641 3272 
Q 3641 2581 3239 2228 
Q 2838 1875 2053 1875 
L 1259 1875 
L 1259 0 
L 628 0 
L 628 4666 
z
" transform="scale(0.015625)"/>
       <path id="DejaVuSans-43" d="M 4122 4306 
L 4122 3641 
Q 3803 3938 3442 4084 
Q 3081 4231 2675 4231 
Q 1875 4231 1450 3742 
Q 1025 3253 1025 2328 
Q 1025 1406 1450 917 
Q 1875 428 2675 428 
Q 3081 428 3442 575 
Q 3803 722 4122 1019 
L 4122 359 
Q 3791 134 3420 21 
Q 3050 -91 2638 -91 
Q 1578 -91 968 557 
Q 359 1206 359 2328 
Q 359 3453 968 4101 
Q 1578 4750 2638 4750 
Q 3056 4750 3426 4639 
Q 3797 4528 4122 4306 
z
" transform="scale(0.015625)"/>
      </defs>
      <use xlink:href="#DejaVuSans-49"/>
      <use xlink:href="#DejaVuSans-50" x="29.492188"/>
      <use xlink:href="#DejaVuSans-43" x="89.794922"/>
     </g>
    </g>
   </g>
   <g id="line2d_16">
    <path d="M 86.010455 41.276113 
L 86.010455 29.726165 
L 90.107029 29.726165 
L 90.107029 75.127736 
L 94.203603 75.127736 
L 94.203603 53.324871 
L 98.300178 53.324871 
L 98.300178 75.127736 
L 102.396752 75.127736 
L 102.396752 45.391853 
L 106.493327 45.391853 
L 106.493327 25.211662 
L 131.072774 25.211662 
L 131.072774 53.324871 
L 155.652221 53.324871 
L 155.652221 75.127736 
L 159.748795 75.127736 
L 159.748795 44.338975 
L 163.84537 44.338975 
L 163.84537 149.145107 
L 172.038518 149.145107 
L 172.038518 25.211662 
L 217.100838 25.211662 
L 217.100838 75.406168 
L 245.776859 75.406168 
L 245.776859 75.127736 
L 249.873433 75.127736 
L 249.873433 75.406168 
L 253.970008 75.406168 
L 253.970008 75.127736 
L 258.066582 75.127736 
L 258.066582 72.690112 
L 262.163157 72.690112 
L 262.163157 75.127736 
L 266.259731 75.127736 
L 266.259731 150.444232 
L 274.45288 150.444232 
L 274.45288 29.726165 
L 278.549455 29.726165 
L 278.549455 43.952936 
L 282.646029 43.952936 
L 282.646029 29.726165 
L 286.742604 29.726165 
L 286.742604 43.952936 
L 290.839178 43.952936 
L 290.839178 25.211662 
L 331.804923 25.211662 
L 331.804923 51.194958 
L 335.901497 51.194958 
L 335.901497 75.406168 
L 368.674093 75.406168 
L 368.674093 75.127736 
L 372.770668 75.127736 
L 372.770668 75.406168 
L 380.963817 75.406168 
L 380.963817 75.127736 
L 385.060391 75.127736 
L 385.060391 29.726165 
L 389.156966 29.726165 
L 389.156966 128.581675 
L 397.350114 128.581675 
L 397.350114 29.726165 
L 401.446689 29.726165 
L 401.446689 45.391853 
L 409.639838 45.391853 
L 409.639838 25.211662 
L 430.12271 25.211662 
L 430.12271 53.324871 
L 454.702157 53.324871 
L 454.702157 75.127736 
L 458.798732 75.127736 
L 458.798732 44.338975 
L 462.895306 44.338975 
L 462.895306 31.923111 
L 466.991881 31.923111 
L 466.991881 29.726165 
L 471.088455 29.726165 
L 471.088455 75.127736 
L 479.281604 75.127736 
L 479.281604 45.391853 
L 483.378178 45.391853 
L 483.378178 36.633092 
L 487.474753 36.633092 
L 487.474753 25.211662 
L 507.957625 25.211662 
L 507.957625 51.194958 
L 512.0542 51.194958 
L 512.0542 53.324871 
L 540.730221 53.324871 
L 540.730221 100.819909 
L 544.826796 100.819909 
L 544.826796 149.145107 
L 548.92337 149.145107 
L 548.92337 36.633092 
L 553.019944 36.633092 
L 553.019944 25.211662 
L 593.985689 25.211662 
L 593.985689 51.194958 
L 598.082264 51.194958 
L 598.082264 75.406168 
L 630.854859 75.406168 
L 630.854859 75.127736 
L 634.951434 75.127736 
L 634.951434 72.690112 
L 639.048008 72.690112 
L 639.048008 75.406168 
L 643.144583 75.406168 
L 643.144583 150.444232 
L 651.337732 150.444232 
L 651.337732 29.726165 
L 655.434306 29.726165 
L 655.434306 43.952936 
L 659.530881 43.952936 
L 659.530881 29.726165 
L 663.627455 29.726165 
L 663.627455 43.952936 
L 667.72403 43.952936 
L 667.72403 25.211662 
L 712.786349 25.211662 
L 712.786349 75.406168 
L 741.46237 75.406168 
L 741.46237 75.127736 
L 745.558945 75.127736 
L 745.558945 75.406168 
L 749.655519 75.406168 
L 749.655519 75.127736 
L 753.752094 75.127736 
L 753.752094 72.690112 
L 757.848668 72.690112 
L 757.848668 75.127736 
L 761.945243 75.127736 
L 761.945243 43.952936 
L 766.041817 43.952936 
L 766.041817 29.726165 
L 770.138392 29.726165 
L 770.138392 128.581675 
L 778.33154 128.581675 
L 778.33154 29.726165 
L 782.428115 29.726165 
L 782.428115 45.391853 
L 786.524689 45.391853 
L 786.524689 36.633092 
L 790.621264 36.633092 
L 790.621264 25.211662 
L 807.007562 25.211662 
L 807.007562 51.194958 
L 811.104136 51.194958 
L 811.104136 53.324871 
L 831.587009 53.324871 
L 831.587009 75.127736 
L 835.683583 75.127736 
L 835.683583 44.338975 
L 839.780158 44.338975 
L 839.780158 64.379389 
L 850.019545 64.379389 
L 850.019545 64.379389 
" clip-path="url(#p1f1d4baf4d)" style="fill: none; stroke: #0000ff; stroke-width: 1.5; stroke-linecap: square"/>
   </g>
   <g id="line2d_17">
    <path d="M 86.010455 94.191595 
L 86.010455 40.046613 
L 90.107029 40.046613 
L 90.107029 75.891407 
L 94.203603 75.891407 
L 94.203603 64.277311 
L 98.300178 64.277311 
L 98.300178 67.516619 
L 102.396752 67.516619 
L 102.396752 40.955686 
L 106.493327 40.955686 
L 106.493327 28.543786 
L 110.589901 28.543786 
L 110.589901 26.31822 
L 114.686476 26.31822 
L 114.686476 26.759108 
L 118.78305 26.759108 
L 118.78305 24.413516 
L 122.879625 24.413516 
L 122.879625 25.430901 
L 131.072774 25.430901 
L 131.072774 50.241714 
L 135.169348 50.241714 
L 135.169348 57.195483 
L 139.265923 57.195483 
L 139.265923 59.666886 
L 143.362497 59.666886 
L 143.362497 56.060133 
L 147.459072 56.060133 
L 147.459072 56.872545 
L 151.555646 56.872545 
L 151.555646 55.53934 
L 155.652221 55.53934 
L 155.652221 66.018332 
L 159.748795 66.018332 
L 159.748795 43.243285 
L 163.84537 43.243285 
L 163.84537 145.10184 
L 167.941944 145.10184 
L 167.941944 142.702998 
L 172.038518 142.702998 
L 172.038518 21.554345 
L 176.135093 21.554345 
L 176.135093 20.732397 
L 180.231667 20.732397 
L 180.231667 23.901164 
L 184.328242 23.901164 
L 184.328242 20.795845 
L 188.424816 20.795845 
L 188.424816 22.140637 
L 192.521391 22.140637 
L 192.521391 21.07036 
L 196.617965 21.07036 
L 196.617965 21.868825 
L 200.71454 21.868825 
L 200.71454 21.449314 
L 204.811114 21.449314 
L 204.811114 20.690078 
L 208.907689 20.690078 
L 208.907689 22.432595 
L 213.004263 22.432595 
L 213.004263 20.880385 
L 217.100838 20.880385 
L 217.100838 70.322902 
L 221.197412 70.322902 
L 221.197412 70.850573 
L 225.293987 70.850573 
L 225.293987 70.700149 
L 229.390561 70.700149 
L 229.390561 71.26285 
L 233.487136 71.26285 
L 233.487136 70.775395 
L 241.680285 70.687602 
L 241.680285 71.275311 
L 245.776859 71.275311 
L 245.776859 70.662501 
L 249.873433 70.662501 
L 249.873433 71.150612 
L 253.970008 71.150612 
L 253.970008 70.762859 
L 258.066582 70.762859 
L 258.066582 70.649948 
L 262.163157 70.649948 
L 262.163157 91.412967 
L 266.259731 91.412967 
L 266.259731 150.28929 
L 270.356306 150.28929 
L 270.356306 124.551895 
L 274.45288 124.551895 
L 274.45288 33.139995 
L 278.549455 33.139995 
L 278.549455 39.25312 
L 282.646029 39.25312 
L 282.646029 36.288433 
L 286.742604 36.288433 
L 286.742604 37.376675 
L 290.839178 37.376675 
L 290.839178 22.349259 
L 294.935753 22.349259 
L 294.935753 22.161518 
L 299.032327 22.161518 
L 299.032327 21.889758 
L 307.225476 21.952533 
L 307.225476 20.943747 
L 311.322051 20.943747 
L 311.322051 22.370099 
L 315.418625 22.370099 
L 315.418625 21.133611 
L 319.5152 21.133611 
L 319.5152 21.994362 
L 323.611774 21.994362 
L 323.611774 21.323143 
L 327.708348 21.323143 
L 327.708348 20.753551 
L 331.804923 20.753551 
L 331.804923 39.818033 
L 335.901497 39.818033 
L 335.901497 70.725239 
L 339.998072 70.725239 
L 339.998072 70.524312 
L 344.094646 70.524312 
L 344.094646 71.623479 
L 348.191221 71.623479 
L 348.191221 70.700149 
L 352.287795 70.700149 
L 352.287795 70.474005 
L 356.38437 70.474005 
L 356.38437 71.312684 
L 360.480944 71.312684 
L 360.480944 70.800462 
L 364.577519 70.800462 
L 364.577519 70.649948 
L 368.674093 70.649948 
L 368.674093 71.12565 
L 372.770668 71.12565 
L 372.770668 70.78793 
L 376.867242 70.78793 
L 376.867242 70.624835 
L 380.963817 70.624835 
L 380.963817 59.581314 
L 385.060391 59.581314 
L 385.060391 28.602756 
L 389.156966 28.602756 
L 389.156966 128.426642 
L 393.25354 128.426642 
L 393.25354 149.572422 
L 397.350114 149.572422 
L 397.350114 38.880643 
L 401.446689 38.880643 
L 401.446689 39.093658 
L 405.543263 39.093658 
L 405.543263 37.105716 
L 409.639838 37.105716 
L 409.639838 25.004782 
L 413.736412 25.004782 
L 413.736412 28.642051 
L 417.832987 28.642051 
L 417.832987 26.659067 
L 421.929561 26.659067 
L 421.929561 25.613003 
L 426.026136 25.613003 
L 426.026136 28.524121 
L 430.12271 28.524121 
L 430.12271 51.979407 
L 434.219285 51.979407 
L 434.219285 56.326814 
L 438.315859 56.326814 
L 438.315859 53.2579 
L 442.412434 53.2579 
L 442.412434 53.5481 
L 446.509008 53.5481 
L 446.509008 54.594364 
L 450.605583 54.594364 
L 450.605583 55.643737 
L 454.702157 55.643737 
L 454.702157 61.039005 
L 458.798732 61.039005 
L 458.798732 28.720597 
L 462.895306 28.720597 
L 462.895306 23.468886 
L 466.991881 23.468886 
L 466.991881 41.632033 
L 471.088455 41.632033 
L 471.088455 63.557358 
L 475.185029 63.557358 
L 475.185029 59.937324 
L 479.281604 59.937324 
L 479.281604 49.145075 
L 483.378178 49.145075 
L 483.378178 34.670827 
L 487.474753 34.670827 
L 487.474753 26.719103 
L 491.571327 26.719103 
L 491.571327 25.794792 
L 495.667902 25.794792 
L 495.667902 25.390392 
L 499.764476 25.390392 
L 499.764476 24.617771 
L 503.861051 24.617771 
L 503.861051 26.619024 
L 507.957625 26.619024 
L 507.957625 36.416002 
L 512.0542 36.416002 
L 512.0542 56.356397 
L 516.150774 56.356397 
L 516.150774 61.193275 
L 520.247349 61.193275 
L 520.247349 54.835283 
L 524.343923 54.835283 
L 524.343923 57.736018 
L 528.440498 57.736018 
L 528.440498 57.136853 
L 536.633647 57.151514 
L 536.633647 58.055889 
L 540.730221 58.055889 
L 540.730221 113.192256 
L 544.826796 113.192256 
L 544.826796 149.294391 
L 548.92337 149.294391 
L 548.92337 89.093697 
L 553.019944 89.093697 
L 553.019944 22.702992 
L 557.116519 22.702992 
L 557.116519 21.994362 
L 561.213093 21.994362 
L 561.213093 22.495054 
L 565.309668 22.495054 
L 565.309668 21.323143 
L 569.406242 21.323143 
L 569.406242 21.617314 
L 577.599391 21.701216 
L 577.599391 20.753551 
L 581.695966 20.753551 
L 581.695966 22.557478 
L 585.79254 22.557478 
L 585.79254 20.943747 
L 589.889115 20.943747 
L 589.889115 22.182394 
L 593.985689 22.182394 
L 593.985689 45.892821 
L 598.082264 45.892821 
L 598.082264 70.875618 
L 602.178838 70.875618 
L 602.178838 70.637392 
L 606.275413 70.637392 
L 606.275413 71.412265 
L 610.371987 71.412265 
L 610.371987 70.725239 
L 618.565136 70.624835 
L 618.565136 71.312684 
L 622.66171 71.312684 
L 622.66171 70.511738 
L 626.758285 70.511738 
L 626.758285 70.800462 
L 630.854859 70.800462 
L 630.854859 71.113166 
L 634.951434 71.113166 
L 634.951434 70.762859 
L 639.048008 70.762859 
L 639.048008 70.649948 
L 643.144583 70.649948 
L 643.144583 136.701038 
L 647.241157 136.701038 
L 647.241157 150.499344 
L 651.337732 150.499344 
L 651.337732 39.906011 
L 655.434306 39.906011 
L 655.434306 43.531864 
L 659.530881 43.531864 
L 659.530881 28.406059 
L 663.627455 28.406059 
L 663.627455 47.500298 
L 667.72403 47.500298 
L 667.72403 21.491339 
L 671.820604 21.491339 
L 671.820604 20.96486 
L 675.917179 20.96486 
L 675.917179 23.880619 
L 680.013753 23.880619 
L 680.013753 20.753551 
L 684.110328 20.753551 
L 684.110328 22.370099 
L 688.206902 22.370099 
L 688.206902 21.133611 
L 692.303477 21.133611 
L 692.303477 21.910687 
L 696.400051 21.910687 
L 696.400051 21.596328 
L 700.496625 21.596328 
L 700.496625 20.753551 
L 704.5932 20.753551 
L 704.5932 22.557478 
L 708.689774 22.557478 
L 708.689774 20.943747 
L 712.786349 20.943747 
L 712.786349 65.513036 
L 716.882923 65.513036 
L 716.882923 70.850573 
L 720.979498 70.850573 
L 720.979498 70.700149 
L 725.076072 70.700149 
L 725.076072 71.300229 
L 729.172647 71.300229 
L 729.172647 70.775395 
L 737.365796 70.687602 
L 737.365796 71.275311 
L 741.46237 71.275311 
L 741.46237 70.662501 
L 745.558945 70.662501 
L 745.558945 71.150612 
L 749.655519 71.150612 
L 749.655519 70.762859 
L 753.752094 70.762859 
L 753.752094 70.649948 
L 757.848668 70.649948 
L 757.848668 68.126765 
L 761.945243 68.126765 
L 761.945243 38.631549 
L 766.041817 38.631549 
L 766.041817 79.135506 
L 770.138392 79.135506 
L 770.138392 149.58996 
L 774.234966 149.58996 
L 774.234966 110.633246 
L 778.33154 110.633246 
L 778.33154 35.501239 
L 782.428115 35.501239 
L 782.428115 37.051437 
L 786.524689 37.051437 
L 786.524689 30.626737 
L 790.621264 30.626737 
L 790.621264 27.397132 
L 794.717838 27.397132 
L 794.717838 27.178246 
L 798.814413 27.178246 
L 798.814413 26.418583 
L 802.910987 26.418583 
L 802.910987 26.799097 
L 807.007562 26.799097 
L 807.007562 42.612233 
L 811.104136 42.612233 
L 811.104136 54.413258 
L 815.200711 54.413258 
L 815.200711 54.049971 
L 819.297285 54.049971 
L 819.297285 53.517595 
L 823.39386 53.517595 
L 823.39386 59.908895 
L 827.490434 59.908895 
L 827.490434 50.620175 
L 831.587009 50.620175 
L 831.587009 63.570997 
L 835.683583 63.570997 
L 835.683583 35.354106 
L 839.780158 35.354106 
L 839.780158 110.268494 
L 843.876732 110.268494 
L 843.876732 67.828729 
L 847.973307 67.828729 
L 847.973307 76.144298 
L 849.580802 76.144298 
L 849.580802 76.144298 
" clip-path="url(#p1f1d4baf4d)" style="fill: none; stroke: #008000; stroke-width: 1.5; stroke-linecap: square"/>
   </g>
   <g id="patch_3">
    <path d="M 47.81 156.989807 
L 47.81 14.199615 
" style="fill: none; stroke: #000000; stroke-width: 0.8; stroke-linejoin: miter; stroke-linecap: square"/>
   </g>
   <g id="patch_4">
    <path d="M 888.22 156.989807 
L 888.22 14.199615 
" style="fill: none; stroke: #000000; stroke-width: 0.8; stroke-linejoin: miter; stroke-linecap: square"/>
   </g>
   <g id="patch_5">
    <path d="M 47.81 156.989807 
L 888.22 156.989807 
" style="fill: none; stroke: #000000; stroke-width: 0.8; stroke-linejoin: miter; stroke-linecap: square"/>
   </g>
   <g id="patch_6">
    <path d="M 47.81 14.199615 
L 888.22 14.199615 
" style="fill: none; stroke: #000000; stroke-width: 0.8; stroke-linejoin: miter; stroke-linecap: square"/>
   </g>
   <g id="legend_1">
    <g id="patch_7">
     <path d="M 703.243438 151.989807 
L 881.22 151.989807 
Q 883.22 151.989807 883.22 149.989807 
L 883.22 121.633557 
Q 883.22 119.633557 881.22 119.633557 
L 703.243438 119.633557 
Q 701.243438 119.633557 701.243438 121.633557 
L 701.243438 149.989807 
Q 701.243438 151.989807 703.243438 151.989807 
z
" style="fill: #ffffff; opacity: 0.8; stroke: #cccccc; stroke-linejoin: miter"/>
    </g>
    <g id="line2d_18">
     <path d="M 705.243438 127.731995 
L 705.243438 127.731995 
L 715.243438 127.731995 
L 715.243438 127.731995 
L 725.243438 127.731995 
" style="fill: none; stroke: #0000ff; stroke-width: 1.5; stroke-linecap: square"/>
    </g>
    <g id="text_7">
     <!-- Estimated IPC (TidalSim) -->
     <g transform="translate(733.243438 131.231995) scale(0.1 -0.1)">
      <defs>
       <path id="DejaVuSans-45" d="M 628 4666 
L 3578 4666 
L 3578 4134 
L 1259 4134 
L 1259 2753 
L 3481 2753 
L 3481 2222 
L 1259 2222 
L 1259 531 
L 3634 531 
L 3634 0 
L 628 0 
L 628 4666 
z
" transform="scale(0.015625)"/>
       <path id="DejaVuSans-73" d="M 2834 3397 
L 2834 2853 
Q 2591 2978 2328 3040 
Q 2066 3103 1784 3103 
Q 1356 3103 1142 2972 
Q 928 2841 928 2578 
Q 928 2378 1081 2264 
Q 1234 2150 1697 2047 
L 1894 2003 
Q 2506 1872 2764 1633 
Q 3022 1394 3022 966 
Q 3022 478 2636 193 
Q 2250 -91 1575 -91 
Q 1294 -91 989 -36 
Q 684 19 347 128 
L 347 722 
Q 666 556 975 473 
Q 1284 391 1588 391 
Q 1994 391 2212 530 
Q 2431 669 2431 922 
Q 2431 1156 2273 1281 
Q 2116 1406 1581 1522 
L 1381 1569 
Q 847 1681 609 1914 
Q 372 2147 372 2553 
Q 372 3047 722 3315 
Q 1072 3584 1716 3584 
Q 2034 3584 2315 3537 
Q 2597 3491 2834 3397 
z
" transform="scale(0.015625)"/>
       <path id="DejaVuSans-74" d="M 1172 4494 
L 1172 3500 
L 2356 3500 
L 2356 3053 
L 1172 3053 
L 1172 1153 
Q 1172 725 1289 603 
Q 1406 481 1766 481 
L 2356 481 
L 2356 0 
L 1766 0 
Q 1100 0 847 248 
Q 594 497 594 1153 
L 594 3053 
L 172 3053 
L 172 3500 
L 594 3500 
L 594 4494 
L 1172 4494 
z
" transform="scale(0.015625)"/>
       <path id="DejaVuSans-69" d="M 603 3500 
L 1178 3500 
L 1178 0 
L 603 0 
L 603 3500 
z
M 603 4863 
L 1178 4863 
L 1178 4134 
L 603 4134 
L 603 4863 
z
" transform="scale(0.015625)"/>
       <path id="DejaVuSans-6d" d="M 3328 2828 
Q 3544 3216 3844 3400 
Q 4144 3584 4550 3584 
Q 5097 3584 5394 3201 
Q 5691 2819 5691 2113 
L 5691 0 
L 5113 0 
L 5113 2094 
Q 5113 2597 4934 2840 
Q 4756 3084 4391 3084 
Q 3944 3084 3684 2787 
Q 3425 2491 3425 1978 
L 3425 0 
L 2847 0 
L 2847 2094 
Q 2847 2600 2669 2842 
Q 2491 3084 2119 3084 
Q 1678 3084 1418 2786 
Q 1159 2488 1159 1978 
L 1159 0 
L 581 0 
L 581 3500 
L 1159 3500 
L 1159 2956 
Q 1356 3278 1631 3431 
Q 1906 3584 2284 3584 
Q 2666 3584 2933 3390 
Q 3200 3197 3328 2828 
z
" transform="scale(0.015625)"/>
       <path id="DejaVuSans-61" d="M 2194 1759 
Q 1497 1759 1228 1600 
Q 959 1441 959 1056 
Q 959 750 1161 570 
Q 1363 391 1709 391 
Q 2188 391 2477 730 
Q 2766 1069 2766 1631 
L 2766 1759 
L 2194 1759 
z
M 3341 1997 
L 3341 0 
L 2766 0 
L 2766 531 
Q 2569 213 2275 61 
Q 1981 -91 1556 -91 
Q 1019 -91 701 211 
Q 384 513 384 1019 
Q 384 1609 779 1909 
Q 1175 2209 1959 2209 
L 2766 2209 
L 2766 2266 
Q 2766 2663 2505 2880 
Q 2244 3097 1772 3097 
Q 1472 3097 1187 3025 
Q 903 2953 641 2809 
L 641 3341 
Q 956 3463 1253 3523 
Q 1550 3584 1831 3584 
Q 2591 3584 2966 3190 
Q 3341 2797 3341 1997 
z
" transform="scale(0.015625)"/>
       <path id="DejaVuSans-65" d="M 3597 1894 
L 3597 1613 
L 953 1613 
Q 991 1019 1311 708 
Q 1631 397 2203 397 
Q 2534 397 2845 478 
Q 3156 559 3463 722 
L 3463 178 
Q 3153 47 2828 -22 
Q 2503 -91 2169 -91 
Q 1331 -91 842 396 
Q 353 884 353 1716 
Q 353 2575 817 3079 
Q 1281 3584 2069 3584 
Q 2775 3584 3186 3129 
Q 3597 2675 3597 1894 
z
M 3022 2063 
Q 3016 2534 2758 2815 
Q 2500 3097 2075 3097 
Q 1594 3097 1305 2825 
Q 1016 2553 972 2059 
L 3022 2063 
z
" transform="scale(0.015625)"/>
       <path id="DejaVuSans-64" d="M 2906 2969 
L 2906 4863 
L 3481 4863 
L 3481 0 
L 2906 0 
L 2906 525 
Q 2725 213 2448 61 
Q 2172 -91 1784 -91 
Q 1150 -91 751 415 
Q 353 922 353 1747 
Q 353 2572 751 3078 
Q 1150 3584 1784 3584 
Q 2172 3584 2448 3432 
Q 2725 3281 2906 2969 
z
M 947 1747 
Q 947 1113 1208 752 
Q 1469 391 1925 391 
Q 2381 391 2643 752 
Q 2906 1113 2906 1747 
Q 2906 2381 2643 2742 
Q 2381 3103 1925 3103 
Q 1469 3103 1208 2742 
Q 947 2381 947 1747 
z
" transform="scale(0.015625)"/>
       <path id="DejaVuSans-20" transform="scale(0.015625)"/>
       <path id="DejaVuSans-28" d="M 1984 4856 
Q 1566 4138 1362 3434 
Q 1159 2731 1159 2009 
Q 1159 1288 1364 580 
Q 1569 -128 1984 -844 
L 1484 -844 
Q 1016 -109 783 600 
Q 550 1309 550 2009 
Q 550 2706 781 3412 
Q 1013 4119 1484 4856 
L 1984 4856 
z
" transform="scale(0.015625)"/>
       <path id="DejaVuSans-54" d="M -19 4666 
L 3928 4666 
L 3928 4134 
L 2272 4134 
L 2272 0 
L 1638 0 
L 1638 4134 
L -19 4134 
L -19 4666 
z
" transform="scale(0.015625)"/>
       <path id="DejaVuSans-6c" d="M 603 4863 
L 1178 4863 
L 1178 0 
L 603 0 
L 603 4863 
z
" transform="scale(0.015625)"/>
       <path id="DejaVuSans-53" d="M 3425 4513 
L 3425 3897 
Q 3066 4069 2747 4153 
Q 2428 4238 2131 4238 
Q 1616 4238 1336 4038 
Q 1056 3838 1056 3469 
Q 1056 3159 1242 3001 
Q 1428 2844 1947 2747 
L 2328 2669 
Q 3034 2534 3370 2195 
Q 3706 1856 3706 1288 
Q 3706 609 3251 259 
Q 2797 -91 1919 -91 
Q 1588 -91 1214 -16 
Q 841 59 441 206 
L 441 856 
Q 825 641 1194 531 
Q 1563 422 1919 422 
Q 2459 422 2753 634 
Q 3047 847 3047 1241 
Q 3047 1584 2836 1778 
Q 2625 1972 2144 2069 
L 1759 2144 
Q 1053 2284 737 2584 
Q 422 2884 422 3419 
Q 422 4038 858 4394 
Q 1294 4750 2059 4750 
Q 2388 4750 2728 4690 
Q 3069 4631 3425 4513 
z
" transform="scale(0.015625)"/>
       <path id="DejaVuSans-29" d="M 513 4856 
L 1013 4856 
Q 1481 4119 1714 3412 
Q 1947 2706 1947 2009 
Q 1947 1309 1714 600 
Q 1481 -109 1013 -844 
L 513 -844 
Q 928 -128 1133 580 
Q 1338 1288 1338 2009 
Q 1338 2731 1133 3434 
Q 928 4138 513 4856 
z
" transform="scale(0.015625)"/>
      </defs>
      <use xlink:href="#DejaVuSans-45"/>
      <use xlink:href="#DejaVuSans-73" x="63.183594"/>
      <use xlink:href="#DejaVuSans-74" x="115.283203"/>
      <use xlink:href="#DejaVuSans-69" x="154.492188"/>
      <use xlink:href="#DejaVuSans-6d" x="182.275391"/>
      <use xlink:href="#DejaVuSans-61" x="279.6875"/>
      <use xlink:href="#DejaVuSans-74" x="340.966797"/>
      <use xlink:href="#DejaVuSans-65" x="380.175781"/>
      <use xlink:href="#DejaVuSans-64" x="441.699219"/>
      <use xlink:href="#DejaVuSans-20" x="505.175781"/>
      <use xlink:href="#DejaVuSans-49" x="536.962891"/>
      <use xlink:href="#DejaVuSans-50" x="566.455078"/>
      <use xlink:href="#DejaVuSans-43" x="626.757812"/>
      <use xlink:href="#DejaVuSans-20" x="696.582031"/>
      <use xlink:href="#DejaVuSans-28" x="728.369141"/>
      <use xlink:href="#DejaVuSans-54" x="767.382812"/>
      <use xlink:href="#DejaVuSans-69" x="825.341797"/>
      <use xlink:href="#DejaVuSans-64" x="853.125"/>
      <use xlink:href="#DejaVuSans-61" x="916.601562"/>
      <use xlink:href="#DejaVuSans-6c" x="977.880859"/>
      <use xlink:href="#DejaVuSans-53" x="1005.664062"/>
      <use xlink:href="#DejaVuSans-69" x="1069.140625"/>
      <use xlink:href="#DejaVuSans-6d" x="1096.923828"/>
      <use xlink:href="#DejaVuSans-29" x="1194.335938"/>
     </g>
    </g>
    <g id="line2d_19">
     <path d="M 705.243438 142.41012 
L 705.243438 142.41012 
L 715.243438 142.41012 
L 715.243438 142.41012 
L 725.243438 142.41012 
" style="fill: none; stroke: #008000; stroke-width: 1.5; stroke-linecap: square"/>
    </g>
    <g id="text_8">
     <!-- True IPC (Full RTL Simulation) -->
     <g transform="translate(733.243438 145.91012) scale(0.1 -0.1)">
      <defs>
       <path id="DejaVuSans-72" d="M 2631 2963 
Q 2534 3019 2420 3045 
Q 2306 3072 2169 3072 
Q 1681 3072 1420 2755 
Q 1159 2438 1159 1844 
L 1159 0 
L 581 0 
L 581 3500 
L 1159 3500 
L 1159 2956 
Q 1341 3275 1631 3429 
Q 1922 3584 2338 3584 
Q 2397 3584 2469 3576 
Q 2541 3569 2628 3553 
L 2631 2963 
z
" transform="scale(0.015625)"/>
       <path id="DejaVuSans-75" d="M 544 1381 
L 544 3500 
L 1119 3500 
L 1119 1403 
Q 1119 906 1312 657 
Q 1506 409 1894 409 
Q 2359 409 2629 706 
Q 2900 1003 2900 1516 
L 2900 3500 
L 3475 3500 
L 3475 0 
L 2900 0 
L 2900 538 
Q 2691 219 2414 64 
Q 2138 -91 1772 -91 
Q 1169 -91 856 284 
Q 544 659 544 1381 
z
M 1991 3584 
L 1991 3584 
z
" transform="scale(0.015625)"/>
       <path id="DejaVuSans-46" d="M 628 4666 
L 3309 4666 
L 3309 4134 
L 1259 4134 
L 1259 2759 
L 3109 2759 
L 3109 2228 
L 1259 2228 
L 1259 0 
L 628 0 
L 628 4666 
z
" transform="scale(0.015625)"/>
       <path id="DejaVuSans-52" d="M 2841 2188 
Q 3044 2119 3236 1894 
Q 3428 1669 3622 1275 
L 4263 0 
L 3584 0 
L 2988 1197 
Q 2756 1666 2539 1819 
Q 2322 1972 1947 1972 
L 1259 1972 
L 1259 0 
L 628 0 
L 628 4666 
L 2053 4666 
Q 2853 4666 3247 4331 
Q 3641 3997 3641 3322 
Q 3641 2881 3436 2590 
Q 3231 2300 2841 2188 
z
M 1259 4147 
L 1259 2491 
L 2053 2491 
Q 2509 2491 2742 2702 
Q 2975 2913 2975 3322 
Q 2975 3731 2742 3939 
Q 2509 4147 2053 4147 
L 1259 4147 
z
" transform="scale(0.015625)"/>
       <path id="DejaVuSans-4c" d="M 628 4666 
L 1259 4666 
L 1259 531 
L 3531 531 
L 3531 0 
L 628 0 
L 628 4666 
z
" transform="scale(0.015625)"/>
       <path id="DejaVuSans-6f" d="M 1959 3097 
Q 1497 3097 1228 2736 
Q 959 2375 959 1747 
Q 959 1119 1226 758 
Q 1494 397 1959 397 
Q 2419 397 2687 759 
Q 2956 1122 2956 1747 
Q 2956 2369 2687 2733 
Q 2419 3097 1959 3097 
z
M 1959 3584 
Q 2709 3584 3137 3096 
Q 3566 2609 3566 1747 
Q 3566 888 3137 398 
Q 2709 -91 1959 -91 
Q 1206 -91 779 398 
Q 353 888 353 1747 
Q 353 2609 779 3096 
Q 1206 3584 1959 3584 
z
" transform="scale(0.015625)"/>
       <path id="DejaVuSans-6e" d="M 3513 2113 
L 3513 0 
L 2938 0 
L 2938 2094 
Q 2938 2591 2744 2837 
Q 2550 3084 2163 3084 
Q 1697 3084 1428 2787 
Q 1159 2491 1159 1978 
L 1159 0 
L 581 0 
L 581 3500 
L 1159 3500 
L 1159 2956 
Q 1366 3272 1645 3428 
Q 1925 3584 2291 3584 
Q 2894 3584 3203 3211 
Q 3513 2838 3513 2113 
z
" transform="scale(0.015625)"/>
      </defs>
      <use xlink:href="#DejaVuSans-54"/>
      <use xlink:href="#DejaVuSans-72" x="46.333984"/>
      <use xlink:href="#DejaVuSans-75" x="87.447266"/>
      <use xlink:href="#DejaVuSans-65" x="150.826172"/>
      <use xlink:href="#DejaVuSans-20" x="212.349609"/>
      <use xlink:href="#DejaVuSans-49" x="244.136719"/>
      <use xlink:href="#DejaVuSans-50" x="273.628906"/>
      <use xlink:href="#DejaVuSans-43" x="333.931641"/>
      <use xlink:href="#DejaVuSans-20" x="403.755859"/>
      <use xlink:href="#DejaVuSans-28" x="435.542969"/>
      <use xlink:href="#DejaVuSans-46" x="474.556641"/>
      <use xlink:href="#DejaVuSans-75" x="526.576172"/>
      <use xlink:href="#DejaVuSans-6c" x="589.955078"/>
      <use xlink:href="#DejaVuSans-6c" x="617.738281"/>
      <use xlink:href="#DejaVuSans-20" x="645.521484"/>
      <use xlink:href="#DejaVuSans-52" x="677.308594"/>
      <use xlink:href="#DejaVuSans-54" x="739.541016"/>
      <use xlink:href="#DejaVuSans-4c" x="800.625"/>
      <use xlink:href="#DejaVuSans-20" x="856.337891"/>
      <use xlink:href="#DejaVuSans-53" x="888.125"/>
      <use xlink:href="#DejaVuSans-69" x="951.601562"/>
      <use xlink:href="#DejaVuSans-6d" x="979.384766"/>
      <use xlink:href="#DejaVuSans-75" x="1076.796875"/>
      <use xlink:href="#DejaVuSans-6c" x="1140.175781"/>
      <use xlink:href="#DejaVuSans-61" x="1167.958984"/>
      <use xlink:href="#DejaVuSans-74" x="1229.238281"/>
      <use xlink:href="#DejaVuSans-69" x="1268.447266"/>
      <use xlink:href="#DejaVuSans-6f" x="1296.230469"/>
      <use xlink:href="#DejaVuSans-6e" x="1357.412109"/>
      <use xlink:href="#DejaVuSans-29" x="1420.791016"/>
     </g>
    </g>
   </g>
  </g>
  <g id="axes_2">
   <g id="patch_8">
    <path d="M 47.81 318.04 
L 888.22 318.04 
L 888.22 175.249807 
L 47.81 175.249807 
z
" style="fill: #ffffff"/>
   </g>
   <g id="matplotlib.axis_3">
    <g id="xtick_9">
     <g id="line2d_20">
      <g>
       <use xlink:href="#m837725b21b" x="81.91388" y="318.04" style="stroke: #000000; stroke-width: 0.8"/>
      </g>
     </g>
     <g id="text_9">
      <!-- 0.00 -->
      <g transform="translate(70.781068 332.638438) scale(0.1 -0.1)">
       <use xlink:href="#DejaVuSans-30"/>
       <use xlink:href="#DejaVuSans-2e" x="63.623047"/>
       <use xlink:href="#DejaVuSans-30" x="95.410156"/>
       <use xlink:href="#DejaVuSans-30" x="159.033203"/>
      </g>
     </g>
    </g>
    <g id="xtick_10">
     <g id="line2d_21">
      <g>
       <use xlink:href="#m837725b21b" x="184.328242" y="318.04" style="stroke: #000000; stroke-width: 0.8"/>
      </g>
     </g>
     <g id="text_10">
      <!-- 0.25 -->
      <g transform="translate(173.195429 332.638438) scale(0.1 -0.1)">
       <defs>
        <path id="DejaVuSans-32" d="M 1228 531 
L 3431 531 
L 3431 0 
L 469 0 
L 469 531 
Q 828 903 1448 1529 
Q 2069 2156 2228 2338 
Q 2531 2678 2651 2914 
Q 2772 3150 2772 3378 
Q 2772 3750 2511 3984 
Q 2250 4219 1831 4219 
Q 1534 4219 1204 4116 
Q 875 4013 500 3803 
L 500 4441 
Q 881 4594 1212 4672 
Q 1544 4750 1819 4750 
Q 2544 4750 2975 4387 
Q 3406 4025 3406 3419 
Q 3406 3131 3298 2873 
Q 3191 2616 2906 2266 
Q 2828 2175 2409 1742 
Q 1991 1309 1228 531 
z
" transform="scale(0.015625)"/>
       </defs>
       <use xlink:href="#DejaVuSans-30"/>
       <use xlink:href="#DejaVuSans-2e" x="63.623047"/>
       <use xlink:href="#DejaVuSans-32" x="95.410156"/>
       <use xlink:href="#DejaVuSans-35" x="159.033203"/>
      </g>
     </g>
    </g>
    <g id="xtick_11">
     <g id="line2d_22">
      <g>
       <use xlink:href="#m837725b21b" x="286.742604" y="318.04" style="stroke: #000000; stroke-width: 0.8"/>
      </g>
     </g>
     <g id="text_11">
      <!-- 0.50 -->
      <g transform="translate(275.609791 332.638438) scale(0.1 -0.1)">
       <use xlink:href="#DejaVuSans-30"/>
       <use xlink:href="#DejaVuSans-2e" x="63.623047"/>
       <use xlink:href="#DejaVuSans-35" x="95.410156"/>
       <use xlink:href="#DejaVuSans-30" x="159.033203"/>
      </g>
     </g>
    </g>
    <g id="xtick_12">
     <g id="line2d_23">
      <g>
       <use xlink:href="#m837725b21b" x="389.156966" y="318.04" style="stroke: #000000; stroke-width: 0.8"/>
      </g>
     </g>
     <g id="text_12">
      <!-- 0.75 -->
      <g transform="translate(378.024153 332.638438) scale(0.1 -0.1)">
       <use xlink:href="#DejaVuSans-30"/>
       <use xlink:href="#DejaVuSans-2e" x="63.623047"/>
       <use xlink:href="#DejaVuSans-37" x="95.410156"/>
       <use xlink:href="#DejaVuSans-35" x="159.033203"/>
      </g>
     </g>
    </g>
    <g id="xtick_13">
     <g id="line2d_24">
      <g>
       <use xlink:href="#m837725b21b" x="491.571327" y="318.04" style="stroke: #000000; stroke-width: 0.8"/>
      </g>
     </g>
     <g id="text_13">
      <!-- 1.00 -->
      <g transform="translate(480.438515 332.638438) scale(0.1 -0.1)">
       <defs>
        <path id="DejaVuSans-31" d="M 794 531 
L 1825 531 
L 1825 4091 
L 703 3866 
L 703 4441 
L 1819 4666 
L 2450 4666 
L 2450 531 
L 3481 531 
L 3481 0 
L 794 0 
L 794 531 
z
" transform="scale(0.015625)"/>
       </defs>
       <use xlink:href="#DejaVuSans-31"/>
       <use xlink:href="#DejaVuSans-2e" x="63.623047"/>
       <use xlink:href="#DejaVuSans-30" x="95.410156"/>
       <use xlink:href="#DejaVuSans-30" x="159.033203"/>
      </g>
     </g>
    </g>
    <g id="xtick_14">
     <g id="line2d_25">
      <g>
       <use xlink:href="#m837725b21b" x="593.985689" y="318.04" style="stroke: #000000; stroke-width: 0.8"/>
      </g>
     </g>
     <g id="text_14">
      <!-- 1.25 -->
      <g transform="translate(582.852877 332.638438) scale(0.1 -0.1)">
       <use xlink:href="#DejaVuSans-31"/>
       <use xlink:href="#DejaVuSans-2e" x="63.623047"/>
       <use xlink:href="#DejaVuSans-32" x="95.410156"/>
       <use xlink:href="#DejaVuSans-35" x="159.033203"/>
      </g>
     </g>
    </g>
    <g id="xtick_15">
     <g id="line2d_26">
      <g>
       <use xlink:href="#m837725b21b" x="696.400051" y="318.04" style="stroke: #000000; stroke-width: 0.8"/>
      </g>
     </g>
     <g id="text_15">
      <!-- 1.50 -->
      <g transform="translate(685.267239 332.638438) scale(0.1 -0.1)">
       <use xlink:href="#DejaVuSans-31"/>
       <use xlink:href="#DejaVuSans-2e" x="63.623047"/>
       <use xlink:href="#DejaVuSans-35" x="95.410156"/>
       <use xlink:href="#DejaVuSans-30" x="159.033203"/>
      </g>
     </g>
    </g>
    <g id="xtick_16">
     <g id="line2d_27">
      <g>
       <use xlink:href="#m837725b21b" x="798.814413" y="318.04" style="stroke: #000000; stroke-width: 0.8"/>
      </g>
     </g>
     <g id="text_16">
      <!-- 1.75 -->
      <g transform="translate(787.6816 332.638438) scale(0.1 -0.1)">
       <use xlink:href="#DejaVuSans-31"/>
       <use xlink:href="#DejaVuSans-2e" x="63.623047"/>
       <use xlink:href="#DejaVuSans-37" x="95.410156"/>
       <use xlink:href="#DejaVuSans-35" x="159.033203"/>
      </g>
     </g>
    </g>
    <g id="text_17">
     <!-- Instructions -->
     <g transform="translate(438.650938 346.316563) scale(0.1 -0.1)">
      <defs>
       <path id="DejaVuSans-63" d="M 3122 3366 
L 3122 2828 
Q 2878 2963 2633 3030 
Q 2388 3097 2138 3097 
Q 1578 3097 1268 2742 
Q 959 2388 959 1747 
Q 959 1106 1268 751 
Q 1578 397 2138 397 
Q 2388 397 2633 464 
Q 2878 531 3122 666 
L 3122 134 
Q 2881 22 2623 -34 
Q 2366 -91 2075 -91 
Q 1284 -91 818 406 
Q 353 903 353 1747 
Q 353 2603 823 3093 
Q 1294 3584 2113 3584 
Q 2378 3584 2631 3529 
Q 2884 3475 3122 3366 
z
" transform="scale(0.015625)"/>
      </defs>
      <use xlink:href="#DejaVuSans-49"/>
      <use xlink:href="#DejaVuSans-6e" x="29.492188"/>
      <use xlink:href="#DejaVuSans-73" x="92.871094"/>
      <use xlink:href="#DejaVuSans-74" x="144.970703"/>
      <use xlink:href="#DejaVuSans-72" x="184.179688"/>
      <use xlink:href="#DejaVuSans-75" x="225.292969"/>
      <use xlink:href="#DejaVuSans-63" x="288.671875"/>
      <use xlink:href="#DejaVuSans-74" x="343.652344"/>
      <use xlink:href="#DejaVuSans-69" x="382.861328"/>
      <use xlink:href="#DejaVuSans-6f" x="410.644531"/>
      <use xlink:href="#DejaVuSans-6e" x="471.826172"/>
      <use xlink:href="#DejaVuSans-73" x="535.205078"/>
     </g>
    </g>
    <g id="text_18">
     <!-- 1e6 -->
     <g transform="translate(869.341875 345.316563) scale(0.1 -0.1)">
      <use xlink:href="#DejaVuSans-31"/>
      <use xlink:href="#DejaVuSans-65" x="63.623047"/>
      <use xlink:href="#DejaVuSans-36" x="125.146484"/>
     </g>
    </g>
   </g>
   <g id="matplotlib.axis_4">
    <g id="ytick_8">
     <g id="line2d_28">
      <g>
       <use xlink:href="#m080f3dc929" x="47.81" y="318.04" style="stroke: #000000; stroke-width: 0.8"/>
      </g>
     </g>
     <g id="text_19">
      <!-- 0 -->
      <g transform="translate(34.4475 321.839219) scale(0.1 -0.1)">
       <use xlink:href="#DejaVuSans-30"/>
      </g>
     </g>
    </g>
    <g id="ytick_9">
     <g id="line2d_29">
      <g>
       <use xlink:href="#m080f3dc929" x="47.81" y="294.241635" style="stroke: #000000; stroke-width: 0.8"/>
      </g>
     </g>
     <g id="text_20">
      <!-- 5 -->
      <g transform="translate(34.4475 298.040853) scale(0.1 -0.1)">
       <use xlink:href="#DejaVuSans-35"/>
      </g>
     </g>
    </g>
    <g id="ytick_10">
     <g id="line2d_30">
      <g>
       <use xlink:href="#m080f3dc929" x="47.81" y="270.443269" style="stroke: #000000; stroke-width: 0.8"/>
      </g>
     </g>
     <g id="text_21">
      <!-- 10 -->
      <g transform="translate(28.085 274.242488) scale(0.1 -0.1)">
       <use xlink:href="#DejaVuSans-31"/>
       <use xlink:href="#DejaVuSans-30" x="63.623047"/>
      </g>
     </g>
    </g>
    <g id="ytick_11">
     <g id="line2d_31">
      <g>
       <use xlink:href="#m080f3dc929" x="47.81" y="246.644904" style="stroke: #000000; stroke-width: 0.8"/>
      </g>
     </g>
     <g id="text_22">
      <!-- 15 -->
      <g transform="translate(28.085 250.444122) scale(0.1 -0.1)">
       <use xlink:href="#DejaVuSans-31"/>
       <use xlink:href="#DejaVuSans-35" x="63.623047"/>
      </g>
     </g>
    </g>
    <g id="ytick_12">
     <g id="line2d_32">
      <g>
       <use xlink:href="#m080f3dc929" x="47.81" y="222.846538" style="stroke: #000000; stroke-width: 0.8"/>
      </g>
     </g>
     <g id="text_23">
      <!-- 20 -->
      <g transform="translate(28.085 226.645757) scale(0.1 -0.1)">
       <use xlink:href="#DejaVuSans-32"/>
       <use xlink:href="#DejaVuSans-30" x="63.623047"/>
      </g>
     </g>
    </g>
    <g id="ytick_13">
     <g id="line2d_33">
      <g>
       <use xlink:href="#m080f3dc929" x="47.81" y="199.048173" style="stroke: #000000; stroke-width: 0.8"/>
      </g>
     </g>
     <g id="text_24">
      <!-- 25 -->
      <g transform="translate(28.085 202.847391) scale(0.1 -0.1)">
       <use xlink:href="#DejaVuSans-32"/>
       <use xlink:href="#DejaVuSans-35" x="63.623047"/>
      </g>
     </g>
    </g>
    <g id="ytick_14">
     <g id="line2d_34">
      <g>
       <use xlink:href="#m080f3dc929" x="47.81" y="175.249807" style="stroke: #000000; stroke-width: 0.8"/>
      </g>
     </g>
     <g id="text_25">
      <!-- 30 -->
      <g transform="translate(28.085 179.049026) scale(0.1 -0.1)">
       <defs>
        <path id="DejaVuSans-33" d="M 2597 2516 
Q 3050 2419 3304 2112 
Q 3559 1806 3559 1356 
Q 3559 666 3084 287 
Q 2609 -91 1734 -91 
Q 1441 -91 1130 -33 
Q 819 25 488 141 
L 488 750 
Q 750 597 1062 519 
Q 1375 441 1716 441 
Q 2309 441 2620 675 
Q 2931 909 2931 1356 
Q 2931 1769 2642 2001 
Q 2353 2234 1838 2234 
L 1294 2234 
L 1294 2753 
L 1863 2753 
Q 2328 2753 2575 2939 
Q 2822 3125 2822 3475 
Q 2822 3834 2567 4026 
Q 2313 4219 1838 4219 
Q 1578 4219 1281 4162 
Q 984 4106 628 3988 
L 628 4550 
Q 988 4650 1302 4700 
Q 1616 4750 1894 4750 
Q 2613 4750 3031 4423 
Q 3450 4097 3450 3541 
Q 3450 3153 3228 2886 
Q 3006 2619 2597 2516 
z
" transform="scale(0.015625)"/>
       </defs>
       <use xlink:href="#DejaVuSans-33"/>
       <use xlink:href="#DejaVuSans-30" x="63.623047"/>
      </g>
     </g>
    </g>
    <g id="text_26">
     <!-- Absolute IPC error (%) -->
     <g transform="translate(22.005313 302.001154) rotate(-90) scale(0.1 -0.1)">
      <defs>
       <path id="DejaVuSans-41" d="M 2188 4044 
L 1331 1722 
L 3047 1722 
L 2188 4044 
z
M 1831 4666 
L 2547 4666 
L 4325 0 
L 3669 0 
L 3244 1197 
L 1141 1197 
L 716 0 
L 50 0 
L 1831 4666 
z
" transform="scale(0.015625)"/>
       <path id="DejaVuSans-62" d="M 3116 1747 
Q 3116 2381 2855 2742 
Q 2594 3103 2138 3103 
Q 1681 3103 1420 2742 
Q 1159 2381 1159 1747 
Q 1159 1113 1420 752 
Q 1681 391 2138 391 
Q 2594 391 2855 752 
Q 3116 1113 3116 1747 
z
M 1159 2969 
Q 1341 3281 1617 3432 
Q 1894 3584 2278 3584 
Q 2916 3584 3314 3078 
Q 3713 2572 3713 1747 
Q 3713 922 3314 415 
Q 2916 -91 2278 -91 
Q 1894 -91 1617 61 
Q 1341 213 1159 525 
L 1159 0 
L 581 0 
L 581 4863 
L 1159 4863 
L 1159 2969 
z
" transform="scale(0.015625)"/>
       <path id="DejaVuSans-25" d="M 4653 2053 
Q 4381 2053 4226 1822 
Q 4072 1591 4072 1178 
Q 4072 772 4226 539 
Q 4381 306 4653 306 
Q 4919 306 5073 539 
Q 5228 772 5228 1178 
Q 5228 1588 5073 1820 
Q 4919 2053 4653 2053 
z
M 4653 2450 
Q 5147 2450 5437 2106 
Q 5728 1763 5728 1178 
Q 5728 594 5436 251 
Q 5144 -91 4653 -91 
Q 4153 -91 3862 251 
Q 3572 594 3572 1178 
Q 3572 1766 3864 2108 
Q 4156 2450 4653 2450 
z
M 1428 4353 
Q 1159 4353 1004 4120 
Q 850 3888 850 3481 
Q 850 3069 1003 2837 
Q 1156 2606 1428 2606 
Q 1700 2606 1854 2837 
Q 2009 3069 2009 3481 
Q 2009 3884 1853 4118 
Q 1697 4353 1428 4353 
z
M 4250 4750 
L 4750 4750 
L 1831 -91 
L 1331 -91 
L 4250 4750 
z
M 1428 4750 
Q 1922 4750 2215 4408 
Q 2509 4066 2509 3481 
Q 2509 2891 2217 2550 
Q 1925 2209 1428 2209 
Q 931 2209 642 2551 
Q 353 2894 353 3481 
Q 353 4063 643 4406 
Q 934 4750 1428 4750 
z
" transform="scale(0.015625)"/>
      </defs>
      <use xlink:href="#DejaVuSans-41"/>
      <use xlink:href="#DejaVuSans-62" x="68.408203"/>
      <use xlink:href="#DejaVuSans-73" x="131.884766"/>
      <use xlink:href="#DejaVuSans-6f" x="183.984375"/>
      <use xlink:href="#DejaVuSans-6c" x="245.166016"/>
      <use xlink:href="#DejaVuSans-75" x="272.949219"/>
      <use xlink:href="#DejaVuSans-74" x="336.328125"/>
      <use xlink:href="#DejaVuSans-65" x="375.537109"/>
      <use xlink:href="#DejaVuSans-20" x="437.060547"/>
      <use xlink:href="#DejaVuSans-49" x="468.847656"/>
      <use xlink:href="#DejaVuSans-50" x="498.339844"/>
      <use xlink:href="#DejaVuSans-43" x="558.642578"/>
      <use xlink:href="#DejaVuSans-20" x="628.466797"/>
      <use xlink:href="#DejaVuSans-65" x="660.253906"/>
      <use xlink:href="#DejaVuSans-72" x="721.777344"/>
      <use xlink:href="#DejaVuSans-72" x="761.140625"/>
      <use xlink:href="#DejaVuSans-6f" x="800.003906"/>
      <use xlink:href="#DejaVuSans-72" x="861.185547"/>
      <use xlink:href="#DejaVuSans-20" x="902.298828"/>
      <use xlink:href="#DejaVuSans-28" x="934.085938"/>
      <use xlink:href="#DejaVuSans-25" x="973.099609"/>
      <use xlink:href="#DejaVuSans-29" x="1068.119141"/>
     </g>
    </g>
   </g>
   <g id="line2d_35">
    <path d="M 86.010455 143.007124 
L 86.010455 293.235714 
L 90.107029 293.235714 
L 90.107029 315.798956 
L 94.203603 315.798956 
L 94.203603 288.047025 
L 98.300178 288.047025 
L 98.300178 296.801319 
L 102.396752 296.801319 
L 102.396752 307.328895 
L 106.493327 307.328895 
L 106.493327 310.471162 
L 110.589901 310.471162 
L 110.589901 315.552897 
L 114.686476 315.552897 
L 114.686476 314.554699 
L 118.78305 314.554699 
L 118.78305 316.262075 
L 122.879625 316.262075 
L 122.879625 317.549293 
L 131.072774 317.549293 
L 131.072774 310.227723 
L 135.169348 310.227723 
L 135.169348 307.855402 
L 139.265923 307.855402 
L 139.265923 301.121341 
L 143.362497 301.121341 
L 143.362497 310.887698 
L 147.459072 310.887698 
L 147.459072 308.721772 
L 151.555646 308.721772 
L 151.555646 312.266015 
L 155.652221 312.266015 
L 155.652221 292.841721 
L 159.748795 292.841721 
L 159.748795 315.363401 
L 163.84537 315.363401 
L 163.84537 297.343057 
L 167.941944 297.343057 
L 167.941944 285.893053 
L 172.038518 285.893053 
L 172.038518 310.000652 
L 176.135093 310.000652 
L 176.135093 308.231119 
L 180.231667 308.231119 
L 180.231667 315.12776 
L 184.328242 315.12776 
L 184.328242 308.367237 
L 188.424816 308.367237 
L 188.424816 311.271086 
L 192.521391 311.271086 
L 192.521391 308.957082 
L 196.617965 308.957082 
L 196.617965 310.681242 
L 200.71454 310.681242 
L 200.71454 309.773789 
L 204.811114 309.773789 
L 204.811114 308.140374 
L 208.907689 308.140374 
L 208.907689 311.906303 
L 213.004263 311.906303 
L 213.004263 308.548728 
L 217.100838 308.548728 
L 217.100838 303.617962 
L 221.197412 303.617962 
L 221.197412 305.074269 
L 225.293987 305.074269 
L 225.293987 304.658181 
L 229.390561 304.658181 
L 229.390561 306.21851 
L 233.487136 306.21851 
L 233.487136 304.866225 
L 237.58371 304.866225 
L 237.58371 304.623507 
L 241.680285 304.623507 
L 241.680285 306.253184 
L 245.776859 306.253184 
L 245.776859 305.345716 
L 249.873433 305.345716 
L 249.873433 305.906444 
L 253.970008 305.906444 
L 253.970008 305.623583 
L 258.066582 305.623583 
L 258.066582 312.240421 
L 262.163157 312.240421 
L 262.163157 265.192509 
L 266.259731 265.192509 
L 266.259731 317.20001 
L 270.356306 317.20001 
L 270.356306 209.490786 
L 274.45288 209.490786 
L 274.45288 310.111663 
L 278.549455 310.111663 
L 278.549455 306.789484 
L 282.646029 306.789484 
L 282.646029 302.561897 
L 286.742604 302.561897 
L 286.742604 302.44479 
L 290.839178 302.44479 
L 290.839178 311.724812 
L 294.935753 311.724812 
L 294.935753 311.316458 
L 299.032327 311.316458 
L 299.032327 310.726614 
L 303.128902 310.726614 
L 303.128902 310.862732 
L 307.225476 310.862732 
L 307.225476 308.684846 
L 311.322051 308.684846 
L 311.322051 311.770185 
L 315.418625 311.770185 
L 315.418625 309.093199 
L 319.5152 309.093199 
L 319.5152 310.953477 
L 323.611774 310.953477 
L 323.611774 309.501553 
L 327.708348 309.501553 
L 327.708348 308.276492 
L 331.804923 308.276492 
L 331.804923 290.728087 
L 335.901497 290.728087 
L 335.901497 304.727529 
L 339.998072 304.727529 
L 339.998072 304.172746 
L 344.094646 304.172746 
L 344.094646 307.224055 
L 348.191221 307.224055 
L 348.191221 304.658181 
L 352.287795 304.658181 
L 352.287795 304.03405 
L 356.38437 304.03405 
L 356.38437 306.357206 
L 360.480944 306.357206 
L 360.480944 304.935573 
L 364.577519 304.935573 
L 364.577519 304.519485 
L 368.674093 304.519485 
L 368.674093 306.630849 
L 372.770668 306.630849 
L 372.770668 304.900899 
L 376.867242 304.900899 
L 376.867242 304.450137 
L 380.963817 304.450137 
L 380.963817 276.586527 
L 385.060391 276.586527 
L 385.060391 315.487484 
L 389.156966 315.487484 
L 389.156966 317.367088 
L 393.25354 317.367088 
L 393.25354 205.164137 
L 397.350114 205.164137 
L 397.350114 296.1668 
L 401.446689 296.1668 
L 401.446689 302.975333 
L 405.543263 302.975333 
L 405.543263 298.416413 
L 409.639838 298.416413 
L 409.639838 317.577882 
L 413.736412 317.577882 
L 413.736412 310.244299 
L 417.832987 310.244299 
L 417.832987 314.781562 
L 421.929561 314.781562 
L 421.929561 317.140939 
L 426.026136 317.140939 
L 426.026136 310.516535 
L 430.12271 310.516535 
L 430.12271 314.598955 
L 434.219285 314.598955 
L 434.219285 310.17885 
L 438.315859 310.17885 
L 438.315859 317.867534 
L 442.412434 317.867534 
L 442.412434 317.464237 
L 446.509008 317.464237 
L 446.509008 314.746984 
L 450.605583 314.746984 
L 450.605583 311.990351 
L 454.702157 311.990351 
L 454.702157 280.164059 
L 458.798732 280.164059 
L 458.798732 282.533271 
L 462.895306 282.533271 
L 462.895306 299.290527 
L 466.991881 299.290527 
L 466.991881 289.194368 
L 471.088455 289.194368 
L 471.088455 286.485523 
L 475.185029 286.485523 
L 475.185029 277.45486 
L 479.281604 277.45486 
L 479.281604 308.585074 
L 483.378178 308.585074 
L 483.378178 313.448506 
L 487.474753 313.448506 
L 487.474753 314.645444 
L 491.571327 314.645444 
L 491.571327 316.732586 
L 495.667902 316.732586 
L 495.667902 317.640038 
L 499.764476 317.640038 
L 499.764476 316.715802 
L 503.861051 316.715802 
L 503.861051 314.872308 
L 507.957625 314.872308 
L 507.957625 283.159542 
L 512.0542 283.159542 
L 512.0542 310.100089 
L 516.150774 310.100089 
L 516.150774 296.868251 
L 520.247349 296.868251 
L 520.247349 314.116897 
L 524.343923 314.116897 
L 524.343923 306.398324 
L 528.440498 306.398324 
L 528.440498 308.012924 
L 536.633647 307.973543 
L 536.633647 305.531954 
L 540.730221 305.531954 
L 540.730221 270.8888 
L 544.826796 270.8888 
L 544.826796 317.239749 
L 548.92337 317.239749 
L 548.92337 150.449219 
L 553.019944 150.449219 
L 553.019944 312.496147 
L 557.116519 312.496147 
L 557.116519 310.953477 
L 561.213093 310.953477 
L 561.213093 312.042421 
L 565.309668 312.042421 
L 565.309668 309.501553 
L 569.406242 309.501553 
L 569.406242 310.13677 
L 573.502817 310.13677 
L 573.502817 310.318261 
L 577.599391 310.318261 
L 577.599391 308.276492 
L 581.695966 308.276492 
L 581.695966 312.178539 
L 585.79254 312.178539 
L 585.79254 308.684846 
L 589.889115 308.684846 
L 589.889115 311.361831 
L 593.985689 311.361831 
L 593.985689 304.909151 
L 598.082264 304.909151 
L 598.082264 305.143617 
L 602.178838 305.143617 
L 602.178838 304.484811 
L 606.275413 304.484811 
L 606.275413 306.634598 
L 610.371987 306.634598 
L 610.371987 304.727529 
L 614.468562 304.727529 
L 614.468562 304.450137 
L 618.565136 304.450137 
L 618.565136 306.357206 
L 622.66171 306.357206 
L 622.66171 304.138072 
L 626.758285 304.138072 
L 626.758285 304.935573 
L 630.854859 304.935573 
L 630.854859 306.596116 
L 634.951434 306.596116 
L 634.951434 312.557697 
L 639.048008 312.557697 
L 639.048008 304.519485 
L 643.144583 304.519485 
L 643.144583 253.519687 
L 647.241157 253.519687 
L 647.241157 317.740506 
L 651.337732 317.740506 
L 651.337732 293.590997 
L 655.434306 293.590997 
L 655.434306 317.00986 
L 659.530881 317.00986 
L 659.530881 315.04338 
L 663.627455 315.04338 
L 663.627455 309.180787 
L 667.72403 309.180787 
L 667.72403 309.864534 
L 671.820604 309.864534 
L 671.820604 308.730218 
L 675.917179 308.730218 
L 675.917179 315.082387 
L 680.013753 315.082387 
L 680.013753 308.276492 
L 684.110328 308.276492 
L 684.110328 311.770185 
L 688.206902 311.770185 
L 688.206902 309.093199 
L 692.303477 309.093199 
L 692.303477 310.771987 
L 696.400051 310.771987 
L 696.400051 310.091397 
L 700.496625 310.091397 
L 700.496625 308.276492 
L 704.5932 308.276492 
L 704.5932 312.178539 
L 708.689774 312.178539 
L 708.689774 308.684846 
L 712.786349 308.684846 
L 712.786349 290.753918 
L 716.882923 290.753918 
L 716.882923 305.074269 
L 720.979498 305.074269 
L 720.979498 304.658181 
L 725.076072 304.658181 
L 725.076072 306.322532 
L 729.172647 306.322532 
L 729.172647 304.866225 
L 733.269221 304.866225 
L 733.269221 304.623507 
L 737.365796 304.623507 
L 737.365796 306.253184 
L 741.46237 306.253184 
L 741.46237 305.345716 
L 745.558945 305.345716 
L 745.558945 305.906444 
L 749.655519 305.906444 
L 749.655519 305.623583 
L 753.752094 305.623583 
L 753.752094 312.240421 
L 757.848668 312.240421 
L 757.848668 298.433785 
L 761.945243 298.433785 
L 761.945243 305.341252 
L 766.041817 305.341252 
L 766.041817 170.085693 
L 770.138392 170.085693 
L 770.138392 205.047438 
L 774.234966 205.047438 
L 774.234966 251.011658 
L 778.33154 251.011658 
L 778.33154 304.471544 
L 782.428115 304.471544 
L 782.428115 298.293199 
L 786.524689 298.293199 
L 786.524689 304.259726 
L 790.621264 304.259726 
L 790.621264 313.102775 
L 794.717838 313.102775 
L 794.717838 313.601874 
L 798.814413 313.601874 
L 798.814413 315.326034 
L 802.910987 315.326034 
L 802.910987 314.463954 
L 807.007562 314.463954 
L 807.007562 297.141434 
L 811.104136 297.141434 
L 811.104136 315.21955 
L 815.200711 315.21955 
L 815.200711 316.164681 
L 819.297285 316.164681 
L 819.297285 317.542998 
L 823.39386 317.542998 
L 823.39386 300.451873 
L 827.490434 300.451873 
L 827.490434 311.172854 
L 831.587009 311.172854 
L 831.587009 286.520257 
L 835.683583 286.520257 
L 835.683583 296.945492 
L 839.780158 296.945492 
L 839.780158 147.156358 
L 843.876732 147.156358 
L 843.876732 308.397036 
L 847.973307 308.397036 
L 847.973307 283.461174 
L 849.580802 283.461174 
L 849.580802 283.461174 
" clip-path="url(#p694be757c7)" style="fill: none; stroke: #bfbf00; stroke-width: 1.5; stroke-linecap: square"/>
   </g>
   <g id="patch_9">
    <path d="M 47.81 318.04 
L 47.81 175.249807 
" style="fill: none; stroke: #000000; stroke-width: 0.8; stroke-linejoin: miter; stroke-linecap: square"/>
   </g>
   <g id="patch_10">
    <path d="M 888.22 318.04 
L 888.22 175.249807 
" style="fill: none; stroke: #000000; stroke-width: 0.8; stroke-linejoin: miter; stroke-linecap: square"/>
   </g>
   <g id="patch_11">
    <path d="M 47.81 318.04 
L 888.22 318.04 
" style="fill: none; stroke: #000000; stroke-width: 0.8; stroke-linejoin: miter; stroke-linecap: square"/>
   </g>
   <g id="patch_12">
    <path d="M 47.81 175.249807 
L 888.22 175.249807 
" style="fill: none; stroke: #000000; stroke-width: 0.8; stroke-linejoin: miter; stroke-linecap: square"/>
   </g>
   <g id="legend_2">
    <g id="patch_13">
     <path d="M 54.81 212.606057 
L 225.156875 212.606057 
Q 227.156875 212.606057 227.156875 210.606057 
L 227.156875 182.249807 
Q 227.156875 180.249807 225.156875 180.249807 
L 54.81 180.249807 
Q 52.81 180.249807 52.81 182.249807 
L 52.81 210.606057 
Q 52.81 212.606057 54.81 212.606057 
z
" style="fill: #ffffff; opacity: 0.8; stroke: #cccccc; stroke-linejoin: miter"/>
    </g>
    <g id="line2d_36">
     <path d="M 56.81 188.348245 
L 56.81 188.348245 
L 66.81 188.348245 
L 66.81 188.348245 
L 76.81 188.348245 
" style="fill: none; stroke: #bfbf00; stroke-width: 1.5; stroke-linecap: square"/>
    </g>
    <g id="text_27">
     <!-- Absolute IPC error -->
     <g transform="translate(84.81 191.848245) scale(0.1 -0.1)">
      <use xlink:href="#DejaVuSans-41"/>
      <use xlink:href="#DejaVuSans-62" x="68.408203"/>
      <use xlink:href="#DejaVuSans-73" x="131.884766"/>
      <use xlink:href="#DejaVuSans-6f" x="183.984375"/>
      <use xlink:href="#DejaVuSans-6c" x="245.166016"/>
      <use xlink:href="#DejaVuSans-75" x="272.949219"/>
      <use xlink:href="#DejaVuSans-74" x="336.328125"/>
      <use xlink:href="#DejaVuSans-65" x="375.537109"/>
      <use xlink:href="#DejaVuSans-20" x="437.060547"/>
      <use xlink:href="#DejaVuSans-49" x="468.847656"/>
      <use xlink:href="#DejaVuSans-50" x="498.339844"/>
      <use xlink:href="#DejaVuSans-43" x="558.642578"/>
      <use xlink:href="#DejaVuSans-20" x="628.466797"/>
      <use xlink:href="#DejaVuSans-65" x="660.253906"/>
      <use xlink:href="#DejaVuSans-72" x="721.777344"/>
      <use xlink:href="#DejaVuSans-72" x="761.140625"/>
      <use xlink:href="#DejaVuSans-6f" x="800.003906"/>
      <use xlink:href="#DejaVuSans-72" x="861.185547"/>
     </g>
    </g>
    <g id="line2d_37">
     <path d="M 56.81 203.02637 
L 56.81 203.02637 
L 66.81 203.02637 
L 66.81 203.02637 
L 76.81 203.02637 
" style="fill: none; stroke: #ff0000; stroke-width: 1.5; stroke-linecap: square"/>
    </g>
    <g id="text_28">
     <!-- Distance to cluster centroid -->
     <g transform="translate(84.81 206.52637) scale(0.1 -0.1)">
      <defs>
       <path id="DejaVuSans-44" d="M 1259 4147 
L 1259 519 
L 2022 519 
Q 2988 519 3436 956 
Q 3884 1394 3884 2338 
Q 3884 3275 3436 3711 
Q 2988 4147 2022 4147 
L 1259 4147 
z
M 628 4666 
L 1925 4666 
Q 3281 4666 3915 4102 
Q 4550 3538 4550 2338 
Q 4550 1131 3912 565 
Q 3275 0 1925 0 
L 628 0 
L 628 4666 
z
" transform="scale(0.015625)"/>
      </defs>
      <use xlink:href="#DejaVuSans-44"/>
      <use xlink:href="#DejaVuSans-69" x="77.001953"/>
      <use xlink:href="#DejaVuSans-73" x="104.785156"/>
      <use xlink:href="#DejaVuSans-74" x="156.884766"/>
      <use xlink:href="#DejaVuSans-61" x="196.09375"/>
      <use xlink:href="#DejaVuSans-6e" x="257.373047"/>
      <use xlink:href="#DejaVuSans-63" x="320.751953"/>
      <use xlink:href="#DejaVuSans-65" x="375.732422"/>
      <use xlink:href="#DejaVuSans-20" x="437.255859"/>
      <use xlink:href="#DejaVuSans-74" x="469.042969"/>
      <use xlink:href="#DejaVuSans-6f" x="508.251953"/>
      <use xlink:href="#DejaVuSans-20" x="569.433594"/>
      <use xlink:href="#DejaVuSans-63" x="601.220703"/>
      <use xlink:href="#DejaVuSans-6c" x="656.201172"/>
      <use xlink:href="#DejaVuSans-75" x="683.984375"/>
      <use xlink:href="#DejaVuSans-73" x="747.363281"/>
      <use xlink:href="#DejaVuSans-74" x="799.462891"/>
      <use xlink:href="#DejaVuSans-65" x="838.671875"/>
      <use xlink:href="#DejaVuSans-72" x="900.195312"/>
      <use xlink:href="#DejaVuSans-20" x="941.308594"/>
      <use xlink:href="#DejaVuSans-63" x="973.095703"/>
      <use xlink:href="#DejaVuSans-65" x="1028.076172"/>
      <use xlink:href="#DejaVuSans-6e" x="1089.599609"/>
      <use xlink:href="#DejaVuSans-74" x="1152.978516"/>
      <use xlink:href="#DejaVuSans-72" x="1192.1875"/>
      <use xlink:href="#DejaVuSans-6f" x="1231.050781"/>
      <use xlink:href="#DejaVuSans-69" x="1292.232422"/>
      <use xlink:href="#DejaVuSans-64" x="1320.015625"/>
     </g>
    </g>
   </g>
  </g>
  <g id="axes_3">
   <g id="matplotlib.axis_5">
    <g id="ytick_15">
     <g id="line2d_38">
      <defs>
       <path id="mff90f705b5" d="M 0 0 
L 3.5 0 
" style="stroke: #000000; stroke-width: 0.8"/>
      </defs>
      <g>
       <use xlink:href="#mff90f705b5" x="888.22" y="318.04" style="stroke: #000000; stroke-width: 0.8"/>
      </g>
     </g>
     <g id="text_29">
      <!-- 0.0 -->
      <g transform="translate(895.22 321.839219) scale(0.1 -0.1)">
       <use xlink:href="#DejaVuSans-30"/>
       <use xlink:href="#DejaVuSans-2e" x="63.623047"/>
       <use xlink:href="#DejaVuSans-30" x="95.410156"/>
      </g>
     </g>
    </g>
    <g id="ytick_16">
     <g id="line2d_39">
      <g>
       <use xlink:href="#mff90f705b5" x="888.22" y="289.481961" style="stroke: #000000; stroke-width: 0.8"/>
      </g>
     </g>
     <g id="text_30">
      <!-- 0.5 -->
      <g transform="translate(895.22 293.28118) scale(0.1 -0.1)">
       <use xlink:href="#DejaVuSans-30"/>
       <use xlink:href="#DejaVuSans-2e" x="63.623047"/>
       <use xlink:href="#DejaVuSans-35" x="95.410156"/>
      </g>
     </g>
    </g>
    <g id="ytick_17">
     <g id="line2d_40">
      <g>
       <use xlink:href="#mff90f705b5" x="888.22" y="260.923923" style="stroke: #000000; stroke-width: 0.8"/>
      </g>
     </g>
     <g id="text_31">
      <!-- 1.0 -->
      <g transform="translate(895.22 264.723142) scale(0.1 -0.1)">
       <use xlink:href="#DejaVuSans-31"/>
       <use xlink:href="#DejaVuSans-2e" x="63.623047"/>
       <use xlink:href="#DejaVuSans-30" x="95.410156"/>
      </g>
     </g>
    </g>
    <g id="ytick_18">
     <g id="line2d_41">
      <g>
       <use xlink:href="#mff90f705b5" x="888.22" y="232.365884" style="stroke: #000000; stroke-width: 0.8"/>
      </g>
     </g>
     <g id="text_32">
      <!-- 1.5 -->
      <g transform="translate(895.22 236.165103) scale(0.1 -0.1)">
       <use xlink:href="#DejaVuSans-31"/>
       <use xlink:href="#DejaVuSans-2e" x="63.623047"/>
       <use xlink:href="#DejaVuSans-35" x="95.410156"/>
      </g>
     </g>
    </g>
    <g id="ytick_19">
     <g id="line2d_42">
      <g>
       <use xlink:href="#mff90f705b5" x="888.22" y="203.807846" style="stroke: #000000; stroke-width: 0.8"/>
      </g>
     </g>
     <g id="text_33">
      <!-- 2.0 -->
      <g transform="translate(895.22 207.607065) scale(0.1 -0.1)">
       <use xlink:href="#DejaVuSans-32"/>
       <use xlink:href="#DejaVuSans-2e" x="63.623047"/>
       <use xlink:href="#DejaVuSans-30" x="95.410156"/>
      </g>
     </g>
    </g>
    <g id="ytick_20">
     <g id="line2d_43">
      <g>
       <use xlink:href="#mff90f705b5" x="888.22" y="175.249807" style="stroke: #000000; stroke-width: 0.8"/>
      </g>
     </g>
     <g id="text_34">
      <!-- 2.5 -->
      <g transform="translate(895.22 179.049026) scale(0.1 -0.1)">
       <use xlink:href="#DejaVuSans-32"/>
       <use xlink:href="#DejaVuSans-2e" x="63.623047"/>
       <use xlink:href="#DejaVuSans-35" x="95.410156"/>
      </g>
     </g>
    </g>
    <g id="text_35">
     <!-- abs(z-score) -->
     <g transform="translate(922.721563 277.250372) rotate(-90) scale(0.1 -0.1)">
      <defs>
       <path id="DejaVuSans-7a" d="M 353 3500 
L 3084 3500 
L 3084 2975 
L 922 459 
L 3084 459 
L 3084 0 
L 275 0 
L 275 525 
L 2438 3041 
L 353 3041 
L 353 3500 
z
" transform="scale(0.015625)"/>
       <path id="DejaVuSans-2d" d="M 313 2009 
L 1997 2009 
L 1997 1497 
L 313 1497 
L 313 2009 
z
" transform="scale(0.015625)"/>
      </defs>
      <use xlink:href="#DejaVuSans-61"/>
      <use xlink:href="#DejaVuSans-62" x="61.279297"/>
      <use xlink:href="#DejaVuSans-73" x="124.755859"/>
      <use xlink:href="#DejaVuSans-28" x="176.855469"/>
      <use xlink:href="#DejaVuSans-7a" x="215.869141"/>
      <use xlink:href="#DejaVuSans-2d" x="268.359375"/>
      <use xlink:href="#DejaVuSans-73" x="304.443359"/>
      <use xlink:href="#DejaVuSans-63" x="356.542969"/>
      <use xlink:href="#DejaVuSans-6f" x="411.523438"/>
      <use xlink:href="#DejaVuSans-72" x="472.705078"/>
      <use xlink:href="#DejaVuSans-65" x="511.568359"/>
      <use xlink:href="#DejaVuSans-29" x="573.091797"/>
     </g>
    </g>
   </g>
   <g id="line2d_44">
    <path d="M 86.010455 318.04 
L 86.010455 288.575231 
L 90.107029 288.575231 
L 90.107029 283.346485 
L 94.203603 283.346485 
L 94.203603 254.175831 
L 98.300178 254.175831 
L 98.300178 306.704272 
L 102.396752 306.704272 
L 102.396752 315.249857 
L 106.493327 315.249857 
L 106.493327 232.06872 
L 110.589901 232.06872 
L 110.589901 240.918483 
L 114.686476 240.918483 
L 114.686476 246.852605 
L 118.78305 246.852605 
L 118.78305 310.793609 
L 122.879625 310.793609 
L 122.879625 297.229783 
L 126.976199 297.229783 
L 126.976199 316.218867 
L 131.072774 316.218867 
L 131.072774 124.035844 
L 135.169348 124.035844 
L 135.169348 270.667906 
L 139.265923 270.667906 
L 139.265923 313.699042 
L 143.362497 313.699042 
L 143.362497 273.397321 
L 147.459072 273.397321 
L 147.459072 286.509817 
L 151.555646 286.509817 
L 151.555646 310.107137 
L 155.652221 310.107137 
L 155.652221 294.648468 
L 159.748795 294.648468 
L 159.748795 270.56318 
L 163.84537 270.56318 
L 163.84537 299.016832 
L 167.941944 299.016832 
L 167.941944 240.543427 
L 172.038518 240.543427 
L 172.038518 283.27993 
L 176.135093 283.27993 
L 176.135093 288.15345 
L 180.231667 288.15345 
L 180.231667 283.682686 
L 184.328242 283.682686 
L 184.328242 285.355566 
L 188.424816 285.355566 
L 188.424816 282.542372 
L 192.521391 282.542372 
L 192.521391 283.996958 
L 196.617965 283.996958 
L 196.617965 282.325776 
L 200.71454 282.325776 
L 200.71454 283.224567 
L 204.811114 283.224567 
L 204.811114 286.406906 
L 208.907689 286.406906 
L 208.907689 284.521655 
L 213.004263 284.521655 
L 213.004263 285.316939 
L 217.100838 285.316939 
L 217.100838 291.612841 
L 221.197412 291.612841 
L 221.197412 221.606725 
L 225.293987 221.606725 
L 225.293987 222.008746 
L 229.390561 222.008746 
L 229.390561 260.515014 
L 233.487136 260.515014 
L 233.487136 287.051073 
L 237.58371 287.051073 
L 237.58371 292.626646 
L 241.680285 292.626646 
L 241.680285 264.836231 
L 245.776859 264.836231 
L 245.776859 291.183015 
L 249.873433 291.183015 
L 249.873433 269.842688 
L 253.970008 269.842688 
L 253.970008 302.077125 
L 258.066582 302.077125 
L 258.066582 275.456362 
L 262.163157 275.456362 
L 262.163157 298.553221 
L 266.259731 298.553221 
L 266.259731 263.036617 
L 270.356306 263.036617 
L 270.356306 284.797768 
L 274.45288 284.797768 
L 274.45288 281.213518 
L 278.549455 281.213518 
L 278.549455 261.182418 
L 282.646029 261.182418 
L 282.646029 308.237997 
L 286.742604 308.237997 
L 286.742604 229.966299 
L 290.839178 229.966299 
L 290.839178 282.95903 
L 294.935753 282.95903 
L 294.935753 282.847117 
L 299.032327 282.847117 
L 299.032327 282.527665 
L 303.128902 282.527665 
L 303.128902 283.286083 
L 307.225476 283.286083 
L 307.225476 284.652002 
L 311.322051 284.652002 
L 311.322051 284.183506 
L 315.418625 284.183506 
L 315.418625 283.952574 
L 319.5152 283.952574 
L 319.5152 282.325776 
L 323.611774 282.325776 
L 323.611774 282.931607 
L 327.708348 282.931607 
L 327.708348 286.97906 
L 331.804923 286.97906 
L 331.804923 284.661682 
L 335.901497 284.661682 
L 335.901497 311.231713 
L 339.998072 311.231713 
L 339.998072 274.018719 
L 344.094646 274.018719 
L 344.094646 284.635131 
L 348.191221 284.635131 
L 348.191221 285.946093 
L 352.287795 285.946093 
L 352.287795 259.036918 
L 356.38437 259.036918 
L 356.38437 257.940969 
L 360.480944 257.940969 
L 360.480944 253.389011 
L 364.577519 253.389011 
L 364.577519 299.748378 
L 368.674093 299.748378 
L 368.674093 291.507809 
L 372.770668 291.507809 
L 372.770668 206.005767 
L 376.867242 206.005767 
L 376.867242 302.679197 
L 380.963817 302.679197 
L 380.963817 105.486163 
L 385.060391 105.486163 
L 385.060391 288.45641 
L 389.156966 288.45641 
L 389.156966 243.166807 
L 393.25354 243.166807 
L 393.25354 312.517354 
L 397.350114 312.517354 
L 397.350114 278.843204 
L 401.446689 278.843204 
L 401.446689 277.622954 
L 405.543263 277.622954 
L 405.543263 249.328512 
L 409.639838 249.328512 
L 409.639838 287.746649 
L 413.736412 287.746649 
L 413.736412 152.972137 
L 417.832987 152.972137 
L 417.832987 204.765269 
L 421.929561 204.765269 
L 421.929561 237.944162 
L 426.026136 237.944162 
L 426.026136 151.849549 
L 430.12271 151.849549 
L 430.12271 235.255947 
L 434.219285 235.255947 
L 434.219285 278.573168 
L 438.315859 278.573168 
L 438.315859 313.563114 
L 442.412434 313.563114 
L 442.412434 287.633578 
L 446.509008 287.633578 
L 446.509008 303.353544 
L 450.605583 303.353544 
L 450.605583 309.245079 
L 454.702157 309.245079 
L 454.702157 313.867614 
L 458.798732 313.867614 
L 458.798732 237.708012 
L 462.895306 237.708012 
L 462.895306 318.04 
L 466.991881 318.04 
L 466.991881 173.120852 
L 471.088455 173.120852 
L 471.088455 298.187736 
L 475.185029 298.187736 
L 475.185029 307.187093 
L 479.281604 307.187093 
L 479.281604 235.921412 
L 483.378178 235.921412 
L 483.378178 283.759845 
L 487.474753 283.759845 
L 487.474753 271.526313 
L 491.571327 271.526313 
L 491.571327 248.624797 
L 495.667902 248.624797 
L 495.667902 282.114181 
L 499.764476 282.114181 
L 499.764476 306.078747 
L 503.861051 306.078747 
L 503.861051 279.167976 
L 507.957625 279.167976 
L 507.957625 290.529577 
L 512.0542 290.529577 
L 512.0542 282.934531 
L 516.150774 282.934531 
L 516.150774 256.727572 
L 520.247349 256.727572 
L 520.247349 301.895026 
L 524.343923 301.895026 
L 524.343923 268.95202 
L 528.440498 268.95202 
L 528.440498 268.730694 
L 532.537072 268.730694 
L 532.537072 270.952923 
L 536.633647 270.952923 
L 536.633647 309.505963 
L 540.730221 309.505963 
L 540.730221 318.04 
L 544.826796 318.04 
L 544.826796 259.566595 
L 548.92337 259.566595 
L 548.92337 271.839548 
L 553.019944 271.839548 
L 553.019944 285.009388 
L 557.116519 285.009388 
L 557.116519 285.357193 
L 561.213093 285.357193 
L 561.213093 282.520773 
L 565.309668 282.520773 
L 565.309668 283.641611 
L 569.406242 283.641611 
L 569.406242 282.140774 
L 573.502817 282.140774 
L 573.502817 282.749104 
L 577.599391 282.749104 
L 577.599391 286.170311 
L 581.695966 286.170311 
L 581.695966 284.738837 
L 585.79254 284.738837 
L 585.79254 285.334187 
L 589.889115 285.334187 
L 589.889115 282.582332 
L 593.985689 282.582332 
L 593.985689 240.403865 
L 598.082264 240.403865 
L 598.082264 220.938879 
L 602.178838 220.938879 
L 602.178838 281.164754 
L 606.275413 281.164754 
L 606.275413 235.150417 
L 610.371987 235.150417 
L 610.371987 306.372723 
L 614.468562 306.372723 
L 614.468562 270.214629 
L 618.565136 270.214629 
L 618.565136 288.811224 
L 622.66171 288.811224 
L 622.66171 299.136491 
L 626.758285 299.136491 
L 626.758285 253.389011 
L 630.854859 253.389011 
L 630.854859 291.460435 
L 634.951434 291.460435 
L 634.951434 237.306237 
L 639.048008 237.306237 
L 639.048008 286.381986 
L 643.144583 286.381986 
L 643.144583 241.273944 
L 647.241157 241.273944 
L 647.241157 263.035095 
L 651.337732 263.035095 
L 651.337732 283.61008 
L 655.434306 283.61008 
L 655.434306 269.822305 
L 659.530881 269.822305 
L 659.530881 288.415361 
L 663.627455 288.415361 
L 663.627455 288.778393 
L 667.72403 288.778393 
L 667.72403 282.835192 
L 671.820604 282.835192 
L 671.820604 287.655423 
L 675.917179 287.655423 
L 675.917179 283.937285 
L 680.013753 283.937285 
L 680.013753 285.883294 
L 684.110328 285.883294 
L 684.110328 284.207306 
L 688.206902 284.207306 
L 688.206902 283.945875 
L 692.303477 283.945875 
L 692.303477 282.325776 
L 696.400051 282.325776 
L 696.400051 283.091161 
L 700.496625 283.091161 
L 700.496625 286.056043 
L 704.5932 286.056043 
L 704.5932 285.034469 
L 708.689774 285.034469 
L 708.689774 285.387165 
L 712.786349 285.387165 
L 712.786349 291.379605 
L 716.882923 291.379605 
L 716.882923 220.938879 
L 720.979498 220.938879 
L 720.979498 223.033881 
L 725.076072 223.033881 
L 725.076072 260.515014 
L 729.172647 260.515014 
L 729.172647 281.565402 
L 733.269221 281.565402 
L 733.269221 287.679449 
L 737.365796 287.679449 
L 737.365796 270.491584 
L 741.46237 270.491584 
L 741.46237 291.183015 
L 745.558945 291.183015 
L 745.558945 264.181196 
L 749.655519 264.181196 
L 749.655519 300.919211 
L 753.752094 300.919211 
L 753.752094 279.889875 
L 757.848668 279.889875 
L 757.848668 294.228942 
L 761.945243 294.228942 
L 761.945243 271.776817 
L 766.041817 271.776817 
L 766.041817 248.771108 
L 770.138392 248.771108 
L 770.138392 312.517328 
L 774.234966 312.517328 
L 774.234966 232.121489 
L 778.33154 232.121489 
L 778.33154 312.78016 
L 782.428115 312.78016 
L 782.428115 261.425711 
L 786.524689 261.425711 
L 786.524689 237.559393 
L 790.621264 237.559393 
L 790.621264 226.968386 
L 794.717838 226.968386 
L 794.717838 208.278418 
L 798.814413 208.278418 
L 798.814413 177.665266 
L 802.910987 177.665266 
L 802.910987 217.333255 
L 807.007562 217.333255 
L 807.007562 246.271761 
L 811.104136 246.271761 
L 811.104136 296.386824 
L 815.200711 296.386824 
L 815.200711 307.176268 
L 819.297285 307.176268 
L 819.297285 268.284455 
L 823.39386 268.284455 
L 823.39386 222.008958 
L 827.490434 222.008958 
L 827.490434 303.526173 
L 831.587009 303.526173 
L 831.587009 301.89888 
L 835.683583 301.89888 
L 835.683583 285.184832 
L 839.780158 285.184832 
L 839.780158 293.656635 
L 843.876732 293.656635 
L 843.876732 263.542418 
L 847.973307 263.542418 
L 847.973307 239.159053 
L 850.019545 239.159053 
L 850.019545 239.159053 
" clip-path="url(#p694be757c7)" style="fill: none; stroke: #ff0000; stroke-width: 1.5; stroke-linecap: square"/>
   </g>
   <g id="patch_14">
    <path d="M 47.81 318.04 
L 47.81 175.249807 
" style="fill: none; stroke: #000000; stroke-width: 0.8; stroke-linejoin: miter; stroke-linecap: square"/>
   </g>
   <g id="patch_15">
    <path d="M 888.22 318.04 
L 888.22 175.249807 
" style="fill: none; stroke: #000000; stroke-width: 0.8; stroke-linejoin: miter; stroke-linecap: square"/>
   </g>
   <g id="patch_16">
    <path d="M 47.81 318.04 
L 888.22 318.04 
" style="fill: none; stroke: #000000; stroke-width: 0.8; stroke-linejoin: miter; stroke-linecap: square"/>
   </g>
   <g id="patch_17">
    <path d="M 47.81 175.249807 
L 888.22 175.249807 
" style="fill: none; stroke: #000000; stroke-width: 0.8; stroke-linejoin: miter; stroke-linecap: square"/>
   </g>
  </g>
 </g>
 <defs>
  <clipPath id="p1f1d4baf4d">
   <rect x="47.81" y="14.199615" width="840.41" height="142.790193"/>
  </clipPath>
  <clipPath id="p694be757c7">
   <rect x="47.81" y="175.249807" width="840.41" height="142.790193"/>
  </clipPath>
 </defs>
</svg>
