<?xml version="1.0" encoding="UTF-8"?><svg xmlns="http://www.w3.org/2000/svg" xmlns:xlink="http://www.w3.org/1999/xlink" fill-opacity="1" color-rendering="auto" color-interpolation="auto" text-rendering="auto" stroke="black" stroke-linecap="square" width="537" stroke-miterlimit="10" shape-rendering="auto" stroke-opacity="1" fill="black" stroke-dasharray="none" font-weight="normal" stroke-width="1" height="121" font-family="'Dialog'" font-style="normal" stroke-linejoin="miter" font-size="12px" stroke-dashoffset="0" image-rendering="auto">
  <!--Generated by ySVG 2.6-->
  <defs id="genericDefs"/>
  <g>
    <defs id="defs1">
      <clipPath clipPathUnits="userSpaceOnUse" id="clipPath1">
        <path d="M0 0 L537 0 L537 121 L0 121 L0 0 Z"/>
      </clipPath>
      <clipPath clipPathUnits="userSpaceOnUse" id="clipPath2">
        <path d="M-190 67 L347 67 L347 188 L-190 188 L-190 67 Z"/>
      </clipPath>
    </defs>
    <g fill="rgb(200,255,35)" text-rendering="geometricPrecision" shape-rendering="geometricPrecision" transform="matrix(1,0,0,1,190,-67)" stroke="rgb(200,255,35)">
      <rect x="-189.3878" width="150" height="30" y="127.2876" clip-path="url(#clipPath2)" stroke="none"/>
    </g>
    <g text-rendering="geometricPrecision" stroke-miterlimit="1.45" shape-rendering="geometricPrecision" transform="matrix(1,0,0,1,190,-67)" stroke-linecap="butt">
      <rect fill="none" x="-189.3878" width="150" height="30" y="127.2876" clip-path="url(#clipPath2)"/>
      <text x="-175.7003" xml:space="preserve" y="146.8228" clip-path="url(#clipPath2)" font-family="sans-serif" stroke="none">Identifier(Adder,io_a)</text>
    </g>
    <g fill="rgb(200,255,35)" text-rendering="geometricPrecision" shape-rendering="geometricPrecision" transform="matrix(1,0,0,1,190,-67)" stroke="rgb(200,255,35)">
      <rect x="-189.3878" width="150" height="30" y="67.2876" clip-path="url(#clipPath2)" stroke="none"/>
    </g>
    <g text-rendering="geometricPrecision" stroke-miterlimit="1.45" shape-rendering="geometricPrecision" transform="matrix(1,0,0,1,190,-67)" stroke-linecap="butt">
      <rect fill="none" x="-189.3878" width="150" height="30" y="67.2876" clip-path="url(#clipPath2)"/>
      <text x="-176.1632" xml:space="preserve" y="86.8228" clip-path="url(#clipPath2)" font-family="sans-serif" stroke="none">Identifier(Adder,io_b)</text>
    </g>
    <g fill="rgb(127,229,255)" text-rendering="geometricPrecision" shape-rendering="geometricPrecision" transform="matrix(1,0,0,1,190,-67)" stroke="rgb(127,229,255)">
      <rect x="196.6122" width="150" height="30" y="157.2876" clip-path="url(#clipPath2)" stroke="none"/>
    </g>
    <g text-rendering="geometricPrecision" stroke-miterlimit="1.45" shape-rendering="geometricPrecision" transform="matrix(1,0,0,1,190,-67)" stroke-linecap="butt">
      <rect fill="none" x="196.6122" width="150" height="30" y="157.2876" clip-path="url(#clipPath2)"/>
      <text x="210.5399" xml:space="preserve" y="176.8228" clip-path="url(#clipPath2)" font-family="sans-serif" stroke="none">Identifier(Adder,io_c)</text>
    </g>
    <g fill="rgb(255,219,76)" text-rendering="geometricPrecision" shape-rendering="geometricPrecision" transform="matrix(1,0,0,1,190,-67)" stroke="rgb(255,219,76)">
      <rect x="196.6122" width="150" height="30" y="103.2876" clip-path="url(#clipPath2)" stroke="none"/>
    </g>
    <g text-rendering="geometricPrecision" stroke-miterlimit="1.45" shape-rendering="geometricPrecision" transform="matrix(1,0,0,1,190,-67)" stroke-linecap="butt">
      <rect fill="none" x="196.6122" width="150" height="30" y="103.2876" clip-path="url(#clipPath2)"/>
      <text x="200.746" xml:space="preserve" y="122.8228" clip-path="url(#clipPath2)" font-family="sans-serif" stroke="none">Identifier(Adder,_io_c_T)</text>
    </g>
    <g fill="rgb(219,183,255)" text-rendering="geometricPrecision" shape-rendering="geometricPrecision" transform="matrix(1,0,0,1,190,-67)" stroke="rgb(219,183,255)">
      <rect x="16.6122" width="150" height="30" y="103.2876" clip-path="url(#clipPath2)" stroke="none"/>
    </g>
    <g text-rendering="geometricPrecision" stroke-miterlimit="1.45" shape-rendering="geometricPrecision" transform="matrix(1,0,0,1,190,-67)" stroke-linecap="butt">
      <rect fill="none" x="16.6122" width="150" height="30" y="103.2876" clip-path="url(#clipPath2)"/>
      <text x="80.746" xml:space="preserve" y="122.8228" clip-path="url(#clipPath2)" font-family="sans-serif" stroke="none">add</text>
      <path fill="none" d="M271.6122 133.2876 L271.6122 149.2876" clip-path="url(#clipPath2)"/>
      <path d="M271.6122 157.2876 L276.6122 145.2876 L271.6122 148.2876 L266.6122 145.2876 Z" clip-path="url(#clipPath2)" stroke="none"/>
      <path fill="none" d="M-39.3878 133.5497 L8.6659 127.9512" clip-path="url(#clipPath2)"/>
      <path d="M16.6122 127.0255 L4.1142 123.4477 L7.6726 128.067 L5.2714 133.3805 Z" clip-path="url(#clipPath2)" stroke="none"/>
      <text x="-32.716" xml:space="preserve" y="148.607" clip-path="url(#clipPath2)" font-family="sans-serif" stroke="none">LeftArg</text>
      <path fill="none" d="M-39.3878 95.3944 L8.7316 103.8036" clip-path="url(#clipPath2)"/>
      <path d="M16.6122 105.1808 L5.6521 98.1897 L7.7465 103.6315 L3.9306 108.0404 Z" clip-path="url(#clipPath2)" stroke="none"/>
      <text x="-36.9611" xml:space="preserve" y="88.9377" clip-path="url(#clipPath2)" font-family="sans-serif" stroke="none">RightArg</text>
      <path fill="none" d="M166.6122 118.2876 L188.6122 118.2876" clip-path="url(#clipPath2)"/>
      <path d="M196.6122 118.2876 L184.6122 113.2876 L187.6122 118.2876 L184.6122 123.2876 Z" clip-path="url(#clipPath2)" stroke="none"/>
    </g>
  </g>
</svg>
