<?xml version="1.0" encoding="UTF-8" standalone="no"?><!DOCTYPE svg PUBLIC "-//W3C//DTD SVG 1.1//EN" "http://www.w3.org/Graphics/SVG/1.1/DTD/svg11.dtd"><!-- Generated by graphviz version 2.40.1 (20161225.0304)
 --><!-- Title: G Pages: 1 --><svg xmlns="http://www.w3.org/2000/svg" xmlns:xlink="http://www.w3.org/1999/xlink" width="2048pt" height="1198pt" viewBox="0.00 0.00 2047.67 1198.40">
<g id="graph0" class="graph" transform="scale(1 1) rotate(0) translate(4 1194.4)">
<title>G</title>
<polygon fill="#ffffff" stroke="transparent" points="-4,4 -4,-1194.4 2043.6687,-1194.4 2043.6687,4 -4,4"/>
<!-- 1 -->
<g id="node1" class="node">
<title>1</title>
<ellipse fill="none" stroke="#000000" cx="171.9791" cy="-1172.4" rx="104.7073" ry="18"/>
<text text-anchor="middle" x="171.9791" y="-1168.2" font-family="Times,serif" font-size="14.00" fill="#000000">Identifier(Arbiter,clock)</text>
</g>
<!-- 2 -->
<g id="node2" class="node">
<title>2</title>
<ellipse fill="none" stroke="#000000" cx="396.9791" cy="-1172.4" rx="101.8342" ry="18"/>
<text text-anchor="middle" x="396.9791" y="-1168.2" font-family="Times,serif" font-size="14.00" fill="#000000">Identifier(Arbiter,reset)</text>
</g>
<!-- 3 -->
<g id="node3" class="node">
<title>3</title>
<ellipse fill="none" stroke="#000000" cx="843.9791" cy="-373.2" rx="139.4458" ry="18"/>
<text text-anchor="middle" x="843.9791" y="-369" font-family="Times,serif" font-size="14.00" fill="#000000">Identifier(Arbiter,io_in_0_ready)</text>
</g>
<!-- 4 -->
<g id="node4" class="node">
<title>4</title>
<ellipse fill="none" stroke="#000000" cx="672.9791" cy="-994.8" rx="137.1776" ry="18"/>
<text text-anchor="middle" x="672.9791" y="-990.6" font-family="Times,serif" font-size="14.00" fill="#000000">Identifier(Arbiter,io_in_0_valid)</text>
</g>
<!-- 44 -->
<g id="node44" class="node">
<title>44</title>
<ellipse fill="none" stroke="#000000" cx="1560.9791" cy="-728.4" rx="29.0567" ry="18"/>
<text text-anchor="middle" x="1560.9791" y="-724.2" font-family="Times,serif" font-size="14.00" fill="#000000">Mux</text>
</g>
<!-- 4&#45;&gt;44 -->
<g id="edge17" class="edge">
<title>4-&gt;44</title>
<path fill="none" stroke="#000000" d="M772.17,-982.2522C788.1469,-980.3469 804.513,-978.464 819.9791,-976.8 906.0748,-967.5367 929.9028,-979.5232 1013.9791,-958.8 1153.9949,-924.2888 1192.9304,-913.5751 1313.9791,-835.2 1333.5076,-822.5559 1330.8513,-808.9391 1351.9791,-799.2 1420.9791,-767.3936 1456.0459,-818.9551 1521.9791,-781.2 1532.6552,-775.0866 1541.2623,-764.7401 1547.647,-754.8176"/>
<polygon fill="#000000" stroke="#000000" points="1550.808,-756.348 1552.8813,-745.958 1544.7813,-752.7873 1550.808,-756.348"/>
<text text-anchor="middle" x="1313.7463" y="-857.4" font-family="Times,serif" font-size="14.00" fill="#000000">EdgeType</text>
</g>
<!-- 45 -->
<g id="node45" class="node">
<title>45</title>
<ellipse fill="none" stroke="#000000" cx="254.9791" cy="-728.4" rx="29.0567" ry="18"/>
<text text-anchor="middle" x="254.9791" y="-724.2" font-family="Times,serif" font-size="14.00" fill="#000000">Mux</text>
</g>
<!-- 4&#45;&gt;45 -->
<g id="edge21" class="edge">
<title>4-&gt;45</title>
<path fill="none" stroke="#000000" d="M623.211,-977.954C555.9286,-953.5864 434.3329,-903.7919 346.9791,-835.2 314.7635,-809.9036 314.9367,-795.239 287.9791,-764.4 284.2823,-760.1709 280.2888,-755.7198 276.3998,-751.4447"/>
<polygon fill="#000000" stroke="#000000" points="278.9364,-749.0322 269.599,-744.0257 273.7763,-753.7623 278.9364,-749.0322"/>
<text text-anchor="middle" x="422.7463" y="-857.4" font-family="Times,serif" font-size="14.00" fill="#000000">EdgeType</text>
</g>
<!-- 46 -->
<g id="node46" class="node">
<title>46</title>
<ellipse fill="none" stroke="#000000" cx="857.9791" cy="-906" rx="27" ry="18"/>
<text text-anchor="middle" x="857.9791" y="-901.8" font-family="Times,serif" font-size="14.00" fill="#000000">or</text>
</g>
<!-- 4&#45;&gt;46 -->
<g id="edge25" class="edge">
<title>4-&gt;46</title>
<path fill="none" stroke="#000000" d="M709.5292,-977.256C743.8404,-960.7866 794.603,-936.4205 826.9817,-920.8788"/>
<polygon fill="#000000" stroke="#000000" points="828.4986,-924.033 835.9993,-916.5503 825.4694,-917.7224 828.4986,-924.033"/>
<text text-anchor="middle" x="823.0198" y="-946.2" font-family="Times,serif" font-size="14.00" fill="#000000">LeftArgument</text>
</g>
<!-- 48 -->
<g id="node48" class="node">
<title>48</title>
<ellipse fill="none" stroke="#000000" cx="647.9791" cy="-728.4" rx="27" ry="18"/>
<text text-anchor="middle" x="647.9791" y="-724.2" font-family="Times,serif" font-size="14.00" fill="#000000">eq</text>
</g>
<!-- 4&#45;&gt;48 -->
<g id="edge31" class="edge">
<title>4-&gt;48</title>
<path fill="none" stroke="#000000" d="M666.5352,-976.6912C664.7684,-971.0303 663.0473,-964.7168 661.9791,-958.8 648.9831,-886.8166 647.4023,-800.351 647.5654,-756.6506"/>
<polygon fill="#000000" stroke="#000000" points="651.0663,-756.5215 647.6385,-746.4965 644.0665,-756.471 651.0663,-756.5215"/>
<text text-anchor="middle" x="692.0198" y="-857.4" font-family="Times,serif" font-size="14.00" fill="#000000">LeftArgument</text>
</g>
<!-- 5 -->
<g id="node5" class="node">
<title>5</title>
<ellipse fill="none" stroke="#000000" cx="487.9791" cy="-817.2" rx="131.9582" ry="18"/>
<text text-anchor="middle" x="487.9791" y="-813" font-family="Times,serif" font-size="14.00" fill="#000000">Identifier(Arbiter,io_in_0_bits)</text>
</g>
<!-- 5&#45;&gt;45 -->
<g id="edge22" class="edge">
<title>5-&gt;45</title>
<path fill="none" stroke="#000000" d="M443.3301,-800.1835C398.5288,-783.1091 330.4692,-757.1705 289.6001,-741.5946"/>
<polygon fill="#000000" stroke="#000000" points="290.6645,-738.2548 280.0737,-737.9639 288.1716,-744.7958 290.6645,-738.2548"/>
<text text-anchor="middle" x="421.7463" y="-768.6" font-family="Times,serif" font-size="14.00" fill="#000000">EdgeType</text>
</g>
<!-- 6 -->
<g id="node6" class="node">
<title>6</title>
<ellipse fill="none" stroke="#000000" cx="249.9791" cy="-373.2" rx="139.4458" ry="18"/>
<text text-anchor="middle" x="249.9791" y="-369" font-family="Times,serif" font-size="14.00" fill="#000000">Identifier(Arbiter,io_in_1_ready)</text>
</g>
<!-- 7 -->
<g id="node7" class="node">
<title>7</title>
<ellipse fill="none" stroke="#000000" cx="965.9791" cy="-994.8" rx="137.1776" ry="18"/>
<text text-anchor="middle" x="965.9791" y="-990.6" font-family="Times,serif" font-size="14.00" fill="#000000">Identifier(Arbiter,io_in_1_valid)</text>
</g>
<!-- 41 -->
<g id="node41" class="node">
<title>41</title>
<ellipse fill="none" stroke="#000000" cx="1374.9791" cy="-906" rx="29.0567" ry="18"/>
<text text-anchor="middle" x="1374.9791" y="-901.8" font-family="Times,serif" font-size="14.00" fill="#000000">Mux</text>
</g>
<!-- 7&#45;&gt;41 -->
<g id="edge9" class="edge">
<title>7-&gt;41</title>
<path fill="none" stroke="#000000" d="M1037.2215,-979.3322C1124.5169,-960.3791 1269.1932,-928.9677 1337.3113,-914.1782"/>
<polygon fill="#000000" stroke="#000000" points="1338.1487,-917.5781 1347.1784,-912.0359 1336.6635,-910.7374 1338.1487,-917.5781"/>
<text text-anchor="middle" x="1236.7463" y="-946.2" font-family="Times,serif" font-size="14.00" fill="#000000">EdgeType</text>
</g>
<!-- 42 -->
<g id="node42" class="node">
<title>42</title>
<ellipse fill="none" stroke="#000000" cx="235.9791" cy="-906" rx="29.0567" ry="18"/>
<text text-anchor="middle" x="235.9791" y="-901.8" font-family="Times,serif" font-size="14.00" fill="#000000">Mux</text>
</g>
<!-- 7&#45;&gt;42 -->
<g id="edge13" class="edge">
<title>7-&gt;42</title>
<path fill="none" stroke="#000000" d="M865.5556,-982.4898C849.9627,-980.5822 834.0373,-978.6363 818.9791,-976.8 614.0834,-951.814 368.6573,-922.0693 274.9428,-910.7182"/>
<polygon fill="#000000" stroke="#000000" points="275.143,-907.217 264.7947,-909.4891 274.3013,-914.1662 275.143,-907.217"/>
<text text-anchor="middle" x="687.7463" y="-946.2" font-family="Times,serif" font-size="14.00" fill="#000000">EdgeType</text>
</g>
<!-- 7&#45;&gt;46 -->
<g id="edge26" class="edge">
<title>7-&gt;46</title>
<path fill="none" stroke="#000000" d="M944.1237,-976.83C926.4056,-962.2618 901.4283,-941.7249 882.9283,-926.5138"/>
<polygon fill="#000000" stroke="#000000" points="885.1325,-923.7949 875.1853,-920.1473 880.6867,-929.2019 885.1325,-923.7949"/>
<text text-anchor="middle" x="965.9195" y="-946.2" font-family="Times,serif" font-size="14.00" fill="#000000">RightArgument</text>
</g>
<!-- 8 -->
<g id="node8" class="node">
<title>8</title>
<ellipse fill="none" stroke="#000000" cx="131.9791" cy="-994.8" rx="131.9582" ry="18"/>
<text text-anchor="middle" x="131.9791" y="-990.6" font-family="Times,serif" font-size="14.00" fill="#000000">Identifier(Arbiter,io_in_1_bits)</text>
</g>
<!-- 8&#45;&gt;42 -->
<g id="edge14" class="edge">
<title>8-&gt;42</title>
<path fill="none" stroke="#000000" d="M140.8603,-976.4581C146.8981,-965.426 155.7265,-951.6909 166.4447,-942 176.5494,-932.8638 189.398,-925.3639 201.2941,-919.6193"/>
<polygon fill="#000000" stroke="#000000" points="202.9153,-922.7267 210.5596,-915.3908 200.009,-916.3585 202.9153,-922.7267"/>
<text text-anchor="middle" x="195.7463" y="-946.2" font-family="Times,serif" font-size="14.00" fill="#000000">EdgeType</text>
</g>
<!-- 9 -->
<g id="node9" class="node">
<title>9</title>
<ellipse fill="none" stroke="#000000" cx="546.9791" cy="-373.2" rx="139.4458" ry="18"/>
<text text-anchor="middle" x="546.9791" y="-369" font-family="Times,serif" font-size="14.00" fill="#000000">Identifier(Arbiter,io_in_2_ready)</text>
</g>
<!-- 10 -->
<g id="node10" class="node">
<title>10</title>
<ellipse fill="none" stroke="#000000" cx="1531.9791" cy="-1172.4" rx="137.1776" ry="18"/>
<text text-anchor="middle" x="1531.9791" y="-1168.2" font-family="Times,serif" font-size="14.00" fill="#000000">Identifier(Arbiter,io_in_2_valid)</text>
</g>
<!-- 38 -->
<g id="node38" class="node">
<title>38</title>
<ellipse fill="none" stroke="#000000" cx="1770.9791" cy="-1083.6" rx="29.0567" ry="18"/>
<text text-anchor="middle" x="1770.9791" y="-1079.4" font-family="Times,serif" font-size="14.00" fill="#000000">Mux</text>
</g>
<!-- 10&#45;&gt;38 -->
<g id="edge1" class="edge">
<title>10-&gt;38</title>
<path fill="none" stroke="#000000" d="M1583.6146,-1155.6759C1601.2505,-1149.7921 1621.0447,-1142.998 1638.9791,-1136.4 1672.4594,-1124.0827 1710.211,-1108.8432 1736.7386,-1097.9075"/>
<polygon fill="#000000" stroke="#000000" points="1738.4213,-1100.9991 1746.3237,-1093.9421 1735.7452,-1094.5308 1738.4213,-1100.9991"/>
<text text-anchor="middle" x="1710.7463" y="-1123.8" font-family="Times,serif" font-size="14.00" fill="#000000">EdgeType</text>
</g>
<!-- 39 -->
<g id="node39" class="node">
<title>39</title>
<ellipse fill="none" stroke="#000000" cx="789.9791" cy="-1083.6" rx="29.0567" ry="18"/>
<text text-anchor="middle" x="789.9791" y="-1079.4" font-family="Times,serif" font-size="14.00" fill="#000000">Mux</text>
</g>
<!-- 10&#45;&gt;39 -->
<g id="edge5" class="edge">
<title>10-&gt;39</title>
<path fill="none" stroke="#000000" d="M1430.363,-1160.2389C1263.8739,-1140.3141 940.3525,-1101.5962 828.8535,-1088.2523"/>
<polygon fill="#000000" stroke="#000000" points="829.0826,-1084.7549 818.7375,-1087.0417 828.2507,-1091.7053 829.0826,-1084.7549"/>
<text text-anchor="middle" x="1256.7463" y="-1123.8" font-family="Times,serif" font-size="14.00" fill="#000000">EdgeType</text>
</g>
<!-- 47 -->
<g id="node47" class="node">
<title>47</title>
<ellipse fill="none" stroke="#000000" cx="1369.9791" cy="-728.4" rx="27" ry="18"/>
<text text-anchor="middle" x="1369.9791" y="-724.2" font-family="Times,serif" font-size="14.00" fill="#000000">or</text>
</g>
<!-- 10&#45;&gt;47 -->
<g id="edge29" class="edge">
<title>10-&gt;47</title>
<path fill="none" stroke="#000000" d="M1569.2699,-1155.0502C1595.1432,-1140.1592 1624.9791,-1115.9698 1624.9791,-1083.6 1624.9791,-1083.6 1624.9791,-1083.6 1624.9791,-817.2 1624.9791,-771.6074 1477.7598,-744.0324 1407.0423,-733.4167"/>
<polygon fill="#000000" stroke="#000000" points="1407.1881,-729.9008 1396.7866,-731.9157 1406.1744,-736.827 1407.1881,-729.9008"/>
<text text-anchor="middle" x="1668.9195" y="-946.2" font-family="Times,serif" font-size="14.00" fill="#000000">RightArgument</text>
</g>
<!-- 11 -->
<g id="node11" class="node">
<title>11</title>
<ellipse fill="none" stroke="#000000" cx="648.9791" cy="-1172.4" rx="131.9582" ry="18"/>
<text text-anchor="middle" x="648.9791" y="-1168.2" font-family="Times,serif" font-size="14.00" fill="#000000">Identifier(Arbiter,io_in_2_bits)</text>
</g>
<!-- 11&#45;&gt;39 -->
<g id="edge6" class="edge">
<title>11-&gt;39</title>
<path fill="none" stroke="#000000" d="M677.1737,-1154.6434C701.3664,-1139.4072 736.1062,-1117.5285 760.6276,-1102.0852"/>
<polygon fill="#000000" stroke="#000000" points="762.5645,-1105.0017 769.161,-1096.711 758.8341,-1099.0785 762.5645,-1105.0017"/>
<text text-anchor="middle" x="761.7463" y="-1123.8" font-family="Times,serif" font-size="14.00" fill="#000000">EdgeType</text>
</g>
<!-- 12 -->
<g id="node12" class="node">
<title>12</title>
<ellipse fill="none" stroke="#000000" cx="942.9791" cy="-195.6" rx="139.4458" ry="18"/>
<text text-anchor="middle" x="942.9791" y="-191.4" font-family="Times,serif" font-size="14.00" fill="#000000">Identifier(Arbiter,io_in_3_ready)</text>
</g>
<!-- 13 -->
<g id="node13" class="node">
<title>13</title>
<ellipse fill="none" stroke="#000000" cx="1252.9791" cy="-284.4" rx="137.1776" ry="18"/>
<text text-anchor="middle" x="1252.9791" y="-280.2" font-family="Times,serif" font-size="14.00" fill="#000000">Identifier(Arbiter,io_in_3_valid)</text>
</g>
<!-- 56 -->
<g id="node56" class="node">
<title>56</title>
<ellipse fill="none" stroke="#000000" cx="1307.9791" cy="-195.6" rx="27" ry="18"/>
<text text-anchor="middle" x="1307.9791" y="-191.4" font-family="Times,serif" font-size="14.00" fill="#000000">or</text>
</g>
<!-- 13&#45;&gt;56 -->
<g id="edge56" class="edge">
<title>13-&gt;56</title>
<path fill="none" stroke="#000000" d="M1264.1092,-266.43C1272.2193,-253.3358 1283.316,-235.4197 1292.3197,-220.8829"/>
<polygon fill="#000000" stroke="#000000" points="1295.3197,-222.6861 1297.6098,-212.3417 1289.3687,-219.0002 1295.3197,-222.6861"/>
<text text-anchor="middle" x="1329.9195" y="-235.8" font-family="Times,serif" font-size="14.00" fill="#000000">RightArgument</text>
</g>
<!-- 14 -->
<g id="node14" class="node">
<title>14</title>
<ellipse fill="none" stroke="#000000" cx="930.9791" cy="-1172.4" rx="131.9582" ry="18"/>
<text text-anchor="middle" x="930.9791" y="-1168.2" font-family="Times,serif" font-size="14.00" fill="#000000">Identifier(Arbiter,io_in_3_bits)</text>
</g>
<!-- 14&#45;&gt;39 -->
<g id="edge7" class="edge">
<title>14-&gt;39</title>
<path fill="none" stroke="#000000" d="M902.7845,-1154.6434C878.5919,-1139.4072 843.8521,-1117.5285 819.3306,-1102.0852"/>
<polygon fill="#000000" stroke="#000000" points="821.1241,-1099.0785 810.7972,-1096.711 817.3937,-1105.0017 821.1241,-1099.0785"/>
<text text-anchor="middle" x="902.7463" y="-1123.8" font-family="Times,serif" font-size="14.00" fill="#000000">EdgeType</text>
</g>
<!-- 15 -->
<g id="node15" class="node">
<title>15</title>
<ellipse fill="none" stroke="#000000" cx="935.9791" cy="-639.6" rx="134.789" ry="18"/>
<text text-anchor="middle" x="935.9791" y="-635.4" font-family="Times,serif" font-size="14.00" fill="#000000">Identifier(Arbiter,io_out_ready)</text>
</g>
<!-- 51 -->
<g id="node51" class="node">
<title>51</title>
<ellipse fill="none" stroke="#000000" cx="1099.9791" cy="-550.8" rx="27" ry="18"/>
<text text-anchor="middle" x="1099.9791" y="-546.6" font-family="Times,serif" font-size="14.00" fill="#000000">and</text>
</g>
<!-- 15&#45;&gt;51 -->
<g id="edge41" class="edge">
<title>15-&gt;51</title>
<path fill="none" stroke="#000000" d="M957.0544,-621.589C970.6944,-610.5461 989.1908,-596.6807 1007.0983,-586.8 1025.6236,-576.5784 1047.6556,-567.9045 1065.6115,-561.6336"/>
<polygon fill="#000000" stroke="#000000" points="1066.7775,-564.934 1075.1195,-558.4024 1064.5251,-558.3063 1066.7775,-564.934"/>
<text text-anchor="middle" x="1051.9195" y="-591" font-family="Times,serif" font-size="14.00" fill="#000000">RightArgument</text>
</g>
<!-- 52 -->
<g id="node52" class="node">
<title>52</title>
<ellipse fill="none" stroke="#000000" cx="425.9791" cy="-550.8" rx="27" ry="18"/>
<text text-anchor="middle" x="425.9791" y="-546.6" font-family="Times,serif" font-size="14.00" fill="#000000">and</text>
</g>
<!-- 15&#45;&gt;52 -->
<g id="edge44" class="edge">
<title>15-&gt;52</title>
<path fill="none" stroke="#000000" d="M837.8208,-627.2512C778.8803,-619.3748 712.8878,-609.5615 700.0983,-603.6 689.8456,-598.8209 691.2584,-591.5216 680.9791,-586.8 676.0519,-584.5368 532.0937,-565.022 462.6965,-555.7081"/>
<polygon fill="#000000" stroke="#000000" points="463.0038,-552.2181 452.6274,-554.3581 462.0736,-559.156 463.0038,-552.2181"/>
<text text-anchor="middle" x="744.9195" y="-591" font-family="Times,serif" font-size="14.00" fill="#000000">RightArgument</text>
</g>
<!-- 53 -->
<g id="node53" class="node">
<title>53</title>
<ellipse fill="none" stroke="#000000" cx="599.9791" cy="-550.8" rx="27" ry="18"/>
<text text-anchor="middle" x="599.9791" y="-546.6" font-family="Times,serif" font-size="14.00" fill="#000000">and</text>
</g>
<!-- 15&#45;&gt;53 -->
<g id="edge47" class="edge">
<title>15-&gt;53</title>
<path fill="none" stroke="#000000" d="M868.5641,-623.9073C850.7172,-618.5837 831.785,-611.8451 815.0983,-603.6 803.711,-597.9734 803.6438,-591.8265 791.9791,-586.8 741.0878,-564.8699 676.9419,-556.2684 637.1945,-552.9152"/>
<polygon fill="#000000" stroke="#000000" points="637.3909,-549.42 627.1502,-552.1362 636.8496,-556.399 637.3909,-549.42"/>
<text text-anchor="middle" x="859.9195" y="-591" font-family="Times,serif" font-size="14.00" fill="#000000">RightArgument</text>
</g>
<!-- 54 -->
<g id="node54" class="node">
<title>54</title>
<ellipse fill="none" stroke="#000000" cx="1027.9791" cy="-373.2" rx="27" ry="18"/>
<text text-anchor="middle" x="1027.9791" y="-369" font-family="Times,serif" font-size="14.00" fill="#000000">and</text>
</g>
<!-- 15&#45;&gt;54 -->
<g id="edge50" class="edge">
<title>15-&gt;54</title>
<path fill="none" stroke="#000000" d="M930.9285,-621.4179C921.9634,-585.3805 906.8081,-503.2581 935.9791,-444 942.8762,-429.9892 975.136,-406.9969 999.5245,-391.0311"/>
<polygon fill="#000000" stroke="#000000" points="1001.5915,-393.8627 1008.0921,-385.4966 997.7931,-387.9828 1001.5915,-393.8627"/>
<text text-anchor="middle" x="964.9195" y="-502.2" font-family="Times,serif" font-size="14.00" fill="#000000">RightArgument</text>
</g>
<!-- 16 -->
<g id="node16" class="node">
<title>16</title>
<ellipse fill="none" stroke="#000000" cx="1307.9791" cy="-18" rx="132.5205" ry="18"/>
<text text-anchor="middle" x="1307.9791" y="-13.8" font-family="Times,serif" font-size="14.00" fill="#000000">Identifier(Arbiter,io_out_valid)</text>
</g>
<!-- 17 -->
<g id="node17" class="node">
<title>17</title>
<ellipse fill="none" stroke="#000000" cx="176.9791" cy="-550.8" rx="127.3015" ry="18"/>
<text text-anchor="middle" x="176.9791" y="-546.6" font-family="Times,serif" font-size="14.00" fill="#000000">Identifier(Arbiter,io_out_bits)</text>
</g>
<!-- 18 -->
<g id="node18" class="node">
<title>18</title>
<ellipse fill="none" stroke="#000000" cx="1677.9791" cy="-550.8" rx="122.6894" ry="18"/>
<text text-anchor="middle" x="1677.9791" y="-546.6" font-family="Times,serif" font-size="14.00" fill="#000000">Identifier(Arbiter,io_chosen)</text>
</g>
<!-- 19 -->
<g id="node19" class="node">
<title>19</title>
<ellipse fill="none" stroke="#000000" cx="1770.9791" cy="-994.8" rx="118.0342" ry="18"/>
<text text-anchor="middle" x="1770.9791" y="-990.6" font-family="Times,serif" font-size="14.00" fill="#000000">Identifier(Arbiter,_GEN_0)</text>
</g>
<!-- 19&#45;&gt;41 -->
<g id="edge11" class="edge">
<title>19-&gt;41</title>
<path fill="none" stroke="#000000" d="M1680.143,-983.3037C1638.7849,-977.302 1589.3669,-969.0529 1545.4447,-958.8 1497.8015,-947.6785 1444.0735,-930.1872 1409.8956,-918.4162"/>
<polygon fill="#000000" stroke="#000000" points="1410.9652,-915.0827 1400.3704,-915.1092 1408.6693,-921.6955 1410.9652,-915.0827"/>
<text text-anchor="middle" x="1573.7463" y="-946.2" font-family="Times,serif" font-size="14.00" fill="#000000">EdgeType</text>
</g>
<!-- 20 -->
<g id="node20" class="node">
<title>20</title>
<ellipse fill="none" stroke="#000000" cx="399.9791" cy="-994.8" rx="118.0342" ry="18"/>
<text text-anchor="middle" x="399.9791" y="-990.6" font-family="Times,serif" font-size="14.00" fill="#000000">Identifier(Arbiter,_GEN_1)</text>
</g>
<!-- 20&#45;&gt;42 -->
<g id="edge15" class="edge">
<title>20-&gt;42</title>
<path fill="none" stroke="#000000" d="M320.4038,-981.4881C293.0139,-975.5341 266.6511,-967.8129 256.4447,-958.8 249.1631,-952.3698 244.4536,-943.0371 241.4154,-934.0006"/>
<polygon fill="#000000" stroke="#000000" points="244.7095,-932.7836 238.6475,-924.0944 237.9678,-934.6674 244.7095,-932.7836"/>
<text text-anchor="middle" x="285.7463" y="-946.2" font-family="Times,serif" font-size="14.00" fill="#000000">EdgeType</text>
</g>
<!-- 21 -->
<g id="node21" class="node">
<title>21</title>
<ellipse fill="none" stroke="#000000" cx="1478.9791" cy="-817.2" rx="118.0342" ry="18"/>
<text text-anchor="middle" x="1478.9791" y="-813" font-family="Times,serif" font-size="14.00" fill="#000000">Identifier(Arbiter,_GEN_2)</text>
</g>
<!-- 21&#45;&gt;44 -->
<g id="edge19" class="edge">
<title>21-&gt;44</title>
<path fill="none" stroke="#000000" d="M1526.5492,-800.5924C1535.4369,-795.5797 1543.8457,-789.2104 1549.9791,-781.2 1555.3211,-774.2232 1558.2248,-765.2663 1559.7599,-756.7185"/>
<polygon fill="#000000" stroke="#000000" points="1563.2502,-757.0143 1561.0256,-746.6556 1556.3049,-756.1406 1563.2502,-757.0143"/>
<text text-anchor="middle" x="1585.7463" y="-768.6" font-family="Times,serif" font-size="14.00" fill="#000000">EdgeType</text>
</g>
<!-- 22 -->
<g id="node22" class="node">
<title>22</title>
<ellipse fill="none" stroke="#000000" cx="181.9791" cy="-817.2" rx="118.0342" ry="18"/>
<text text-anchor="middle" x="181.9791" y="-813" font-family="Times,serif" font-size="14.00" fill="#000000">Identifier(Arbiter,_GEN_3)</text>
</g>
<!-- 22&#45;&gt;45 -->
<g id="edge23" class="edge">
<title>22-&gt;45</title>
<path fill="none" stroke="#000000" d="M196.7518,-799.23C207.8598,-785.7177 223.189,-767.0707 235.3307,-752.301"/>
<polygon fill="#000000" stroke="#000000" points="238.0545,-754.4993 241.7012,-744.5518 232.6471,-750.054 238.0545,-754.4993"/>
<text text-anchor="middle" x="254.7463" y="-768.6" font-family="Times,serif" font-size="14.00" fill="#000000">EdgeType</text>
</g>
<!-- 23 -->
<g id="node23" class="node">
<title>23</title>
<ellipse fill="none" stroke="#000000" cx="1674.9791" cy="-639.6" rx="118.0342" ry="18"/>
<text text-anchor="middle" x="1674.9791" y="-635.4" font-family="Times,serif" font-size="14.00" fill="#000000">Identifier(Arbiter,_GEN_4)</text>
</g>
<!-- 23&#45;&gt;18 -->
<g id="edge64" class="edge">
<title>23-&gt;18</title>
<path fill="none" stroke="#000000" d="M1675.6007,-621.2006C1676.0097,-609.0949 1676.5532,-593.0076 1677.0174,-579.2674"/>
<polygon fill="#000000" stroke="#000000" points="1680.5288,-578.9845 1677.3686,-568.872 1673.5328,-578.7481 1680.5288,-578.9845"/>
<text text-anchor="middle" x="1704.7463" y="-591" font-family="Times,serif" font-size="14.00" fill="#000000">EdgeType</text>
</g>
<!-- 24 -->
<g id="node24" class="node">
<title>24</title>
<ellipse fill="none" stroke="#000000" cx="176.9791" cy="-639.6" rx="118.0342" ry="18"/>
<text text-anchor="middle" x="176.9791" y="-635.4" font-family="Times,serif" font-size="14.00" fill="#000000">Identifier(Arbiter,_GEN_5)</text>
</g>
<!-- 24&#45;&gt;17 -->
<g id="edge63" class="edge">
<title>24-&gt;17</title>
<path fill="none" stroke="#000000" d="M176.9791,-621.2006C176.9791,-609.0949 176.9791,-593.0076 176.9791,-579.2674"/>
<polygon fill="#000000" stroke="#000000" points="180.4792,-578.872 176.9791,-568.872 173.4792,-578.8721 180.4792,-578.872"/>
<text text-anchor="middle" x="205.7463" y="-591" font-family="Times,serif" font-size="14.00" fill="#000000">EdgeType</text>
</g>
<!-- 25 -->
<g id="node25" class="node">
<title>25</title>
<ellipse fill="none" stroke="#000000" cx="857.9791" cy="-817.2" rx="119.1762" ry="18"/>
<text text-anchor="middle" x="857.9791" y="-813" font-family="Times,serif" font-size="14.00" fill="#000000">Identifier(Arbiter,_grant_T)</text>
</g>
<!-- 25&#45;&gt;47 -->
<g id="edge28" class="edge">
<title>25-&gt;47</title>
<path fill="none" stroke="#000000" d="M926.3194,-802.4142C945.4921,-797.0115 965.9994,-790.0058 983.9791,-781.2 995.3214,-775.6449 995.1032,-768.9163 1006.8977,-764.4 1065.776,-741.8548 1252.6228,-732.6042 1332.8242,-729.6046"/>
<polygon fill="#000000" stroke="#000000" points="1333.0939,-733.0972 1342.9607,-729.2377 1332.8406,-726.1018 1333.0939,-733.0972"/>
<text text-anchor="middle" x="1047.0198" y="-768.6" font-family="Times,serif" font-size="14.00" fill="#000000">LeftArgument</text>
</g>
<!-- 49 -->
<g id="node49" class="node">
<title>49</title>
<ellipse fill="none" stroke="#000000" cx="791.9791" cy="-728.4" rx="27" ry="18"/>
<text text-anchor="middle" x="791.9791" y="-724.2" font-family="Times,serif" font-size="14.00" fill="#000000">eq</text>
</g>
<!-- 25&#45;&gt;49 -->
<g id="edge34" class="edge">
<title>25-&gt;49</title>
<path fill="none" stroke="#000000" d="M812.872,-800.4884C804.9336,-795.5002 797.6892,-789.167 792.8977,-781.2 788.4635,-773.8271 787.1568,-764.7644 787.2805,-756.2417"/>
<polygon fill="#000000" stroke="#000000" points="790.7711,-756.4966 788.0268,-746.2634 783.7906,-755.9745 790.7711,-756.4966"/>
<text text-anchor="middle" x="833.0198" y="-768.6" font-family="Times,serif" font-size="14.00" fill="#000000">LeftArgument</text>
</g>
<!-- 26 -->
<g id="node26" class="node">
<title>26</title>
<ellipse fill="none" stroke="#000000" cx="1369.9791" cy="-639.6" rx="128.9905" ry="18"/>
<text text-anchor="middle" x="1369.9791" y="-635.4" font-family="Times,serif" font-size="14.00" fill="#000000">Identifier(Arbiter,_grant_T_1)</text>
</g>
<!-- 50 -->
<g id="node50" class="node">
<title>50</title>
<ellipse fill="none" stroke="#000000" cx="1369.9791" cy="-550.8" rx="27" ry="18"/>
<text text-anchor="middle" x="1369.9791" y="-546.6" font-family="Times,serif" font-size="14.00" fill="#000000">eq</text>
</g>
<!-- 26&#45;&gt;50 -->
<g id="edge37" class="edge">
<title>26-&gt;50</title>
<path fill="none" stroke="#000000" d="M1369.9791,-621.2006C1369.9791,-609.0949 1369.9791,-593.0076 1369.9791,-579.2674"/>
<polygon fill="#000000" stroke="#000000" points="1373.4792,-578.872 1369.9791,-568.872 1366.4792,-578.8721 1373.4792,-578.872"/>
<text text-anchor="middle" x="1410.0198" y="-591" font-family="Times,serif" font-size="14.00" fill="#000000">LeftArgument</text>
</g>
<!-- 27 -->
<g id="node27" class="node">
<title>27</title>
<ellipse fill="none" stroke="#000000" cx="425.9791" cy="-639.6" rx="113.3776" ry="18"/>
<text text-anchor="middle" x="425.9791" y="-635.4" font-family="Times,serif" font-size="14.00" fill="#000000">Identifier(Arbiter,grant_1)</text>
</g>
<!-- 27&#45;&gt;52 -->
<g id="edge43" class="edge">
<title>27-&gt;52</title>
<path fill="none" stroke="#000000" d="M425.9791,-621.2006C425.9791,-609.0949 425.9791,-593.0076 425.9791,-579.2674"/>
<polygon fill="#000000" stroke="#000000" points="429.4792,-578.872 425.9791,-568.872 422.4792,-578.8721 429.4792,-578.872"/>
<text text-anchor="middle" x="466.0198" y="-591" font-family="Times,serif" font-size="14.00" fill="#000000">LeftArgument</text>
</g>
<!-- 28 -->
<g id="node28" class="node">
<title>28</title>
<ellipse fill="none" stroke="#000000" cx="669.9791" cy="-639.6" rx="113.3776" ry="18"/>
<text text-anchor="middle" x="669.9791" y="-635.4" font-family="Times,serif" font-size="14.00" fill="#000000">Identifier(Arbiter,grant_2)</text>
</g>
<!-- 28&#45;&gt;53 -->
<g id="edge46" class="edge">
<title>28-&gt;53</title>
<path fill="none" stroke="#000000" d="M621.8044,-623.1657C613.5113,-618.1722 605.9485,-611.7664 600.8977,-603.6 596.3722,-596.2827 595.0411,-587.235 595.1706,-578.7087"/>
<polygon fill="#000000" stroke="#000000" points="598.6618,-578.9568 595.9364,-568.7185 591.6823,-578.4217 598.6618,-578.9568"/>
<text text-anchor="middle" x="641.0198" y="-591" font-family="Times,serif" font-size="14.00" fill="#000000">LeftArgument</text>
</g>
<!-- 29 -->
<g id="node29" class="node">
<title>29</title>
<ellipse fill="none" stroke="#000000" cx="1385.9791" cy="-462" rx="113.3776" ry="18"/>
<text text-anchor="middle" x="1385.9791" y="-457.8" font-family="Times,serif" font-size="14.00" fill="#000000">Identifier(Arbiter,grant_3)</text>
</g>
<!-- 29&#45;&gt;54 -->
<g id="edge49" class="edge">
<title>29-&gt;54</title>
<path fill="none" stroke="#000000" d="M1324.8435,-446.8356C1249.5188,-428.1517 1124.0672,-397.0341 1063.222,-381.9418"/>
<polygon fill="#000000" stroke="#000000" points="1063.8815,-378.4994 1053.333,-379.4889 1062.1962,-385.2935 1063.8815,-378.4994"/>
<text text-anchor="middle" x="1280.0198" y="-413.4" font-family="Times,serif" font-size="14.00" fill="#000000">LeftArgument</text>
</g>
<!-- 55 -->
<g id="node55" class="node">
<title>55</title>
<ellipse fill="none" stroke="#000000" cx="1526.9791" cy="-373.2" rx="27" ry="18"/>
<text text-anchor="middle" x="1526.9791" y="-369" font-family="Times,serif" font-size="14.00" fill="#000000">eq</text>
</g>
<!-- 29&#45;&gt;55 -->
<g id="edge52" class="edge">
<title>29-&gt;55</title>
<path fill="none" stroke="#000000" d="M1398.3893,-444.073C1406.9772,-432.7826 1419.2802,-418.6142 1432.8977,-409.2 1450.6188,-396.9488 1473.0701,-388.1523 1491.5958,-382.3224"/>
<polygon fill="#000000" stroke="#000000" points="1492.8488,-385.601 1501.429,-379.3857 1490.8456,-378.8937 1492.8488,-385.601"/>
<text text-anchor="middle" x="1472.0198" y="-413.4" font-family="Times,serif" font-size="14.00" fill="#000000">LeftArgument</text>
</g>
<!-- 30 -->
<g id="node30" class="node">
<title>30</title>
<ellipse fill="none" stroke="#000000" cx="1099.9791" cy="-462" rx="155.0586" ry="18"/>
<text text-anchor="middle" x="1099.9791" y="-457.8" font-family="Times,serif" font-size="14.00" fill="#000000">Identifier(Arbiter,_io_in_0_ready_T)</text>
</g>
<!-- 30&#45;&gt;3 -->
<g id="edge58" class="edge">
<title>30-&gt;3</title>
<path fill="none" stroke="#000000" d="M1050.6197,-444.8785C1008.2514,-430.182 947.1151,-408.9753 902.3321,-393.4412"/>
<polygon fill="#000000" stroke="#000000" points="903.347,-390.0887 892.7522,-390.1182 901.0529,-396.7021 903.347,-390.0887"/>
<text text-anchor="middle" x="1023.7463" y="-413.4" font-family="Times,serif" font-size="14.00" fill="#000000">EdgeType</text>
</g>
<!-- 31 -->
<g id="node31" class="node">
<title>31</title>
<ellipse fill="none" stroke="#000000" cx="254.9791" cy="-462" rx="155.0586" ry="18"/>
<text text-anchor="middle" x="254.9791" y="-457.8" font-family="Times,serif" font-size="14.00" fill="#000000">Identifier(Arbiter,_io_in_1_ready_T)</text>
</g>
<!-- 31&#45;&gt;6 -->
<g id="edge59" class="edge">
<title>31-&gt;6</title>
<path fill="none" stroke="#000000" d="M253.9431,-443.6006C253.2547,-431.375 252.3377,-415.0887 251.5591,-401.2599"/>
<polygon fill="#000000" stroke="#000000" points="255.0534,-401.0594 250.9967,-391.272 248.0645,-401.453 255.0534,-401.0594"/>
<text text-anchor="middle" x="281.7463" y="-413.4" font-family="Times,serif" font-size="14.00" fill="#000000">EdgeType</text>
</g>
<!-- 32 -->
<g id="node32" class="node">
<title>32</title>
<ellipse fill="none" stroke="#000000" cx="585.9791" cy="-462" rx="155.0586" ry="18"/>
<text text-anchor="middle" x="585.9791" y="-457.8" font-family="Times,serif" font-size="14.00" fill="#000000">Identifier(Arbiter,_io_in_2_ready_T)</text>
</g>
<!-- 32&#45;&gt;9 -->
<g id="edge60" class="edge">
<title>32-&gt;9</title>
<path fill="none" stroke="#000000" d="M577.8983,-443.6006C572.4237,-431.1353 565.095,-414.4484 558.9467,-400.4494"/>
<polygon fill="#000000" stroke="#000000" points="562.1419,-399.0205 554.9162,-391.272 555.7328,-401.8353 562.1419,-399.0205"/>
<text text-anchor="middle" x="598.7463" y="-413.4" font-family="Times,serif" font-size="14.00" fill="#000000">EdgeType</text>
</g>
<!-- 33 -->
<g id="node33" class="node">
<title>33</title>
<ellipse fill="none" stroke="#000000" cx="942.9791" cy="-284.4" rx="155.0586" ry="18"/>
<text text-anchor="middle" x="942.9791" y="-280.2" font-family="Times,serif" font-size="14.00" fill="#000000">Identifier(Arbiter,_io_in_3_ready_T)</text>
</g>
<!-- 33&#45;&gt;12 -->
<g id="edge61" class="edge">
<title>33-&gt;12</title>
<path fill="none" stroke="#000000" d="M942.9791,-266.0006C942.9791,-253.8949 942.9791,-237.8076 942.9791,-224.0674"/>
<polygon fill="#000000" stroke="#000000" points="946.4792,-223.672 942.9791,-213.672 939.4792,-223.6721 946.4792,-223.672"/>
<text text-anchor="middle" x="971.7463" y="-235.8" font-family="Times,serif" font-size="14.00" fill="#000000">EdgeType</text>
</g>
<!-- 34 -->
<g id="node34" class="node">
<title>34</title>
<ellipse fill="none" stroke="#000000" cx="1555.9791" cy="-284.4" rx="148.1333" ry="18"/>
<text text-anchor="middle" x="1555.9791" y="-280.2" font-family="Times,serif" font-size="14.00" fill="#000000">Identifier(Arbiter,_io_out_valid_T)</text>
</g>
<!-- 34&#45;&gt;56 -->
<g id="edge55" class="edge">
<title>34-&gt;56</title>
<path fill="none" stroke="#000000" d="M1508.1622,-267.2785C1459.1939,-249.7447 1384.3462,-222.9443 1341.398,-207.5661"/>
<polygon fill="#000000" stroke="#000000" points="1342.5642,-204.2661 1331.9696,-204.1902 1340.2044,-210.8564 1342.5642,-204.2661"/>
<text text-anchor="middle" x="1494.0198" y="-235.8" font-family="Times,serif" font-size="14.00" fill="#000000">LeftArgument</text>
</g>
<!-- 35 -->
<g id="node35" class="node">
<title>35</title>
<ellipse fill="none" stroke="#000000" cx="1307.9791" cy="-106.8" rx="157.9474" ry="18"/>
<text text-anchor="middle" x="1307.9791" y="-102.6" font-family="Times,serif" font-size="14.00" fill="#000000">Identifier(Arbiter,_io_out_valid_T_1)</text>
</g>
<!-- 35&#45;&gt;16 -->
<g id="edge62" class="edge">
<title>35-&gt;16</title>
<path fill="none" stroke="#000000" d="M1307.9791,-88.4006C1307.9791,-76.2949 1307.9791,-60.2076 1307.9791,-46.4674"/>
<polygon fill="#000000" stroke="#000000" points="1311.4792,-46.072 1307.9791,-36.072 1304.4792,-46.0721 1311.4792,-46.072"/>
<text text-anchor="middle" x="1336.7463" y="-58.2" font-family="Times,serif" font-size="14.00" fill="#000000">EdgeType</text>
</g>
<!-- 36 -->
<g id="node36" class="node">
<title>36</title>
<ellipse fill="none" stroke="#000000" cx="1770.9791" cy="-1172.4" rx="83.8796" ry="18"/>
<text text-anchor="middle" x="1770.9791" y="-1168.2" font-family="Times,serif" font-size="14.00" fill="#000000">Identifier(Arbiter,)</text>
</g>
<!-- 36&#45;&gt;38 -->
<g id="edge2" class="edge">
<title>36-&gt;38</title>
<path fill="none" stroke="#000000" d="M1770.9791,-1154.0006C1770.9791,-1141.8949 1770.9791,-1125.8076 1770.9791,-1112.0674"/>
<polygon fill="#000000" stroke="#000000" points="1774.4792,-1111.672 1770.9791,-1101.672 1767.4792,-1111.6721 1774.4792,-1111.672"/>
<text text-anchor="middle" x="1799.7463" y="-1123.8" font-family="Times,serif" font-size="14.00" fill="#000000">EdgeType</text>
</g>
<!-- 37 -->
<g id="node37" class="node">
<title>37</title>
<ellipse fill="none" stroke="#000000" cx="1955.9791" cy="-1172.4" rx="83.8796" ry="18"/>
<text text-anchor="middle" x="1955.9791" y="-1168.2" font-family="Times,serif" font-size="14.00" fill="#000000">Identifier(Arbiter,)</text>
</g>
<!-- 37&#45;&gt;38 -->
<g id="edge3" class="edge">
<title>37-&gt;38</title>
<path fill="none" stroke="#000000" d="M1921.6156,-1155.9055C1887.8532,-1139.6996 1836.7134,-1115.1524 1803.5743,-1099.2457"/>
<polygon fill="#000000" stroke="#000000" points="1804.8507,-1095.9761 1794.3209,-1094.804 1801.8215,-1102.2867 1804.8507,-1095.9761"/>
<text text-anchor="middle" x="1908.7463" y="-1123.8" font-family="Times,serif" font-size="14.00" fill="#000000">EdgeType</text>
</g>
<!-- 38&#45;&gt;19 -->
<g id="edge4" class="edge">
<title>38-&gt;19</title>
<path fill="none" stroke="#000000" d="M1770.9791,-1065.2006C1770.9791,-1053.0949 1770.9791,-1037.0076 1770.9791,-1023.2674"/>
<polygon fill="#000000" stroke="#000000" points="1774.4792,-1022.872 1770.9791,-1012.872 1767.4792,-1022.8721 1774.4792,-1022.872"/>
<text text-anchor="middle" x="1799.7463" y="-1035" font-family="Times,serif" font-size="14.00" fill="#000000">EdgeType</text>
</g>
<!-- 39&#45;&gt;20 -->
<g id="edge8" class="edge">
<title>39-&gt;20</title>
<path fill="none" stroke="#000000" d="M762.2439,-1077.2849C703.1777,-1063.836 563.2191,-1031.9685 475.5778,-1012.0132"/>
<polygon fill="#000000" stroke="#000000" points="476.213,-1008.5684 465.6855,-1009.7608 474.6589,-1015.3937 476.213,-1008.5684"/>
<text text-anchor="middle" x="658.7463" y="-1035" font-family="Times,serif" font-size="14.00" fill="#000000">EdgeType</text>
</g>
<!-- 40 -->
<g id="node40" class="node">
<title>40</title>
<ellipse fill="none" stroke="#000000" cx="1254.9791" cy="-994.8" rx="83.8796" ry="18"/>
<text text-anchor="middle" x="1254.9791" y="-990.6" font-family="Times,serif" font-size="14.00" fill="#000000">Identifier(Arbiter,)</text>
</g>
<!-- 40&#45;&gt;41 -->
<g id="edge10" class="edge">
<title>40-&gt;41</title>
<path fill="none" stroke="#000000" d="M1278.4012,-977.4677C1298.3039,-962.7397 1326.8898,-941.5861 1347.797,-926.1148"/>
<polygon fill="#000000" stroke="#000000" points="1350.0021,-928.8371 1355.9585,-920.0752 1345.8381,-923.2102 1350.0021,-928.8371"/>
<text text-anchor="middle" x="1354.7463" y="-946.2" font-family="Times,serif" font-size="14.00" fill="#000000">EdgeType</text>
</g>
<!-- 40&#45;&gt;51 -->
<g id="edge40" class="edge">
<title>40-&gt;51</title>
<path fill="none" stroke="#000000" d="M1232.8049,-977.2585C1191.9618,-942.7987 1108.9791,-861.8302 1108.9791,-772.8 1108.9791,-772.8 1108.9791,-772.8 1108.9791,-639.6 1108.9791,-619.1966 1106.5982,-596.2899 1104.2855,-578.8528"/>
<polygon fill="#000000" stroke="#000000" points="1107.7274,-578.1928 1102.8763,-568.7738 1100.7948,-579.1622 1107.7274,-578.1928"/>
<text text-anchor="middle" x="1150.0198" y="-768.6" font-family="Times,serif" font-size="14.00" fill="#000000">LeftArgument</text>
</g>
<!-- 41&#45;&gt;21 -->
<g id="edge12" class="edge">
<title>41-&gt;21</title>
<path fill="none" stroke="#000000" d="M1392.1526,-891.3365C1408.0038,-877.802 1431.8456,-857.4448 1450.5376,-841.4847"/>
<polygon fill="#000000" stroke="#000000" points="1452.8626,-844.1018 1458.1948,-834.9466 1448.3171,-838.7783 1452.8626,-844.1018"/>
<text text-anchor="middle" x="1464.7463" y="-857.4" font-family="Times,serif" font-size="14.00" fill="#000000">EdgeType</text>
</g>
<!-- 42&#45;&gt;22 -->
<g id="edge16" class="edge">
<title>42-&gt;22</title>
<path fill="none" stroke="#000000" d="M225.5674,-888.8785C217.801,-876.1071 207.0449,-858.4193 198.161,-843.8103"/>
<polygon fill="#000000" stroke="#000000" points="201.1013,-841.9091 192.915,-835.1834 195.1203,-845.5462 201.1013,-841.9091"/>
<text text-anchor="middle" x="242.7463" y="-857.4" font-family="Times,serif" font-size="14.00" fill="#000000">EdgeType</text>
</g>
<!-- 43 -->
<g id="node43" class="node">
<title>43</title>
<ellipse fill="none" stroke="#000000" cx="1220.9791" cy="-817.2" rx="83.8796" ry="18"/>
<text text-anchor="middle" x="1220.9791" y="-813" font-family="Times,serif" font-size="14.00" fill="#000000">Identifier(Arbiter,)</text>
</g>
<!-- 43&#45;&gt;44 -->
<g id="edge18" class="edge">
<title>43-&gt;44</title>
<path fill="none" stroke="#000000" d="M1283.9201,-805.3014C1295.5644,-803.1962 1307.6301,-801.0789 1318.9791,-799.2 1373.0523,-790.2479 1390.1597,-801.729 1440.9791,-781.2 1452.8719,-776.3958 1453.1224,-770.4268 1464.4447,-764.4 1483.5838,-754.2124 1506.2411,-745.6012 1524.7941,-739.3577"/>
<polygon fill="#000000" stroke="#000000" points="1525.9419,-742.6648 1534.3553,-736.2254 1523.7626,-736.0126 1525.9419,-742.6648"/>
<text text-anchor="middle" x="1492.7463" y="-768.6" font-family="Times,serif" font-size="14.00" fill="#000000">EdgeType</text>
</g>
<!-- 43&#45;&gt;48 -->
<g id="edge32" class="edge">
<title>43-&gt;48</title>
<path fill="none" stroke="#000000" d="M1142.3986,-810.8962C1096.7494,-807.3055 1038.1268,-802.816 985.9791,-799.2 921.5917,-794.7353 754.3023,-809.0921 696.0983,-781.2 683.3018,-775.0677 672.3319,-763.8702 664.112,-753.36"/>
<polygon fill="#000000" stroke="#000000" points="666.8595,-751.1879 658.127,-745.1883 661.2121,-755.324 666.8595,-751.1879"/>
<text text-anchor="middle" x="740.9195" y="-768.6" font-family="Times,serif" font-size="14.00" fill="#000000">RightArgument</text>
</g>
<!-- 43&#45;&gt;49 -->
<g id="edge35" class="edge">
<title>43-&gt;49</title>
<path fill="none" stroke="#000000" d="M1142.8433,-810.6552C1054.0758,-802.8873 918.5565,-789.8947 896.0983,-781.2 884.2534,-776.6142 883.9808,-770.7477 872.9791,-764.4 857.7806,-755.6309 840.0518,-747.5315 825.062,-741.245"/>
<polygon fill="#000000" stroke="#000000" points="826.2412,-737.9457 815.6612,-737.3867 823.5834,-744.4215 826.2412,-737.9457"/>
<text text-anchor="middle" x="940.9195" y="-768.6" font-family="Times,serif" font-size="14.00" fill="#000000">RightArgument</text>
</g>
<!-- 43&#45;&gt;50 -->
<g id="edge38" class="edge">
<title>43-&gt;50</title>
<path fill="none" stroke="#000000" d="M1216.5206,-799.2131C1208.4985,-762.4556 1195.6428,-677.49 1231.9791,-621.6 1254.8913,-586.3581 1301.1743,-567.77 1333.806,-558.6295"/>
<polygon fill="#000000" stroke="#000000" points="1335.0916,-561.9107 1343.8741,-555.9847 1333.313,-555.1404 1335.0916,-561.9107"/>
<text text-anchor="middle" x="1255.9195" y="-679.8" font-family="Times,serif" font-size="14.00" fill="#000000">RightArgument</text>
</g>
<!-- 43&#45;&gt;55 -->
<g id="edge53" class="edge">
<title>43-&gt;55</title>
<path fill="none" stroke="#000000" d="M1277.4608,-803.7645C1365.8778,-778.9872 1526.9791,-717.1138 1526.9791,-595.2 1526.9791,-595.2 1526.9791,-595.2 1526.9791,-462 1526.9791,-441.7006 1526.9791,-418.791 1526.9791,-401.3264"/>
<polygon fill="#000000" stroke="#000000" points="1530.4792,-401.2279 1526.9791,-391.2279 1523.4792,-401.2279 1530.4792,-401.2279"/>
<text text-anchor="middle" x="1570.9195" y="-591" font-family="Times,serif" font-size="14.00" fill="#000000">RightArgument</text>
</g>
<!-- 44&#45;&gt;23 -->
<g id="edge20" class="edge">
<title>44-&gt;23</title>
<path fill="none" stroke="#000000" d="M1579.2952,-714.1327C1596.7423,-700.5424 1623.3448,-679.8204 1644.0748,-663.6728"/>
<polygon fill="#000000" stroke="#000000" points="1646.2463,-666.4179 1651.9845,-657.5116 1641.9447,-660.8956 1646.2463,-666.4179"/>
<text text-anchor="middle" x="1656.7463" y="-679.8" font-family="Times,serif" font-size="14.00" fill="#000000">EdgeType</text>
</g>
<!-- 45&#45;&gt;24 -->
<g id="edge24" class="edge">
<title>45-&gt;24</title>
<path fill="none" stroke="#000000" d="M241.0343,-712.5243C229.4666,-699.355 212.7991,-680.3797 199.3658,-665.0864"/>
<polygon fill="#000000" stroke="#000000" points="201.9091,-662.6783 192.68,-657.4749 196.6498,-667.2979 201.9091,-662.6783"/>
<text text-anchor="middle" x="251.7463" y="-679.8" font-family="Times,serif" font-size="14.00" fill="#000000">EdgeType</text>
</g>
<!-- 46&#45;&gt;25 -->
<g id="edge27" class="edge">
<title>46-&gt;25</title>
<path fill="none" stroke="#000000" d="M857.9791,-887.6006C857.9791,-875.4949 857.9791,-859.4076 857.9791,-845.6674"/>
<polygon fill="#000000" stroke="#000000" points="861.4792,-845.272 857.9791,-835.272 854.4792,-845.2721 861.4792,-845.272"/>
<text text-anchor="middle" x="886.7463" y="-857.4" font-family="Times,serif" font-size="14.00" fill="#000000">EdgeType</text>
</g>
<!-- 47&#45;&gt;26 -->
<g id="edge30" class="edge">
<title>47-&gt;26</title>
<path fill="none" stroke="#000000" d="M1369.9791,-710.0006C1369.9791,-697.8949 1369.9791,-681.8076 1369.9791,-668.0674"/>
<polygon fill="#000000" stroke="#000000" points="1373.4792,-667.672 1369.9791,-657.672 1366.4792,-667.6721 1373.4792,-667.672"/>
<text text-anchor="middle" x="1398.7463" y="-679.8" font-family="Times,serif" font-size="14.00" fill="#000000">EdgeType</text>
</g>
<!-- 48&#45;&gt;27 -->
<g id="edge33" class="edge">
<title>48-&gt;27</title>
<path fill="none" stroke="#000000" d="M624.6408,-719.0647C589.8553,-705.1505 523.5345,-678.6222 477.1267,-660.059"/>
<polygon fill="#000000" stroke="#000000" points="478.4201,-656.8068 467.8355,-656.3425 475.8203,-663.3062 478.4201,-656.8068"/>
<text text-anchor="middle" x="585.7463" y="-679.8" font-family="Times,serif" font-size="14.00" fill="#000000">EdgeType</text>
</g>
<!-- 49&#45;&gt;28 -->
<g id="edge36" class="edge">
<title>49-&gt;28</title>
<path fill="none" stroke="#000000" d="M773.7145,-715.1057C754.9708,-701.4628 725.4088,-679.9455 702.6297,-663.3653"/>
<polygon fill="#000000" stroke="#000000" points="704.413,-660.3344 694.2682,-657.2793 700.2936,-665.994 704.413,-660.3344"/>
<text text-anchor="middle" x="770.7463" y="-679.8" font-family="Times,serif" font-size="14.00" fill="#000000">EdgeType</text>
</g>
<!-- 50&#45;&gt;29 -->
<g id="edge39" class="edge">
<title>50-&gt;29</title>
<path fill="none" stroke="#000000" d="M1373.217,-532.83C1375.4145,-520.6338 1378.3657,-504.2543 1380.8767,-490.3187"/>
<polygon fill="#000000" stroke="#000000" points="1384.3624,-490.7103 1382.6912,-480.2481 1377.4733,-489.4689 1384.3624,-490.7103"/>
<text text-anchor="middle" x="1408.7463" y="-502.2" font-family="Times,serif" font-size="14.00" fill="#000000">EdgeType</text>
</g>
<!-- 51&#45;&gt;30 -->
<g id="edge42" class="edge">
<title>51-&gt;30</title>
<path fill="none" stroke="#000000" d="M1099.9791,-532.4006C1099.9791,-520.2949 1099.9791,-504.2076 1099.9791,-490.4674"/>
<polygon fill="#000000" stroke="#000000" points="1103.4792,-490.072 1099.9791,-480.072 1096.4792,-490.0721 1103.4792,-490.072"/>
<text text-anchor="middle" x="1128.7463" y="-502.2" font-family="Times,serif" font-size="14.00" fill="#000000">EdgeType</text>
</g>
<!-- 52&#45;&gt;31 -->
<g id="edge45" class="edge">
<title>52-&gt;31</title>
<path fill="none" stroke="#000000" d="M404.6676,-539.733C378.1526,-525.9638 332.2288,-502.1156 298.2208,-484.4553"/>
<polygon fill="#000000" stroke="#000000" points="299.4586,-481.1544 288.9709,-479.6519 296.2326,-487.3667 299.4586,-481.1544"/>
<text text-anchor="middle" x="384.7463" y="-502.2" font-family="Times,serif" font-size="14.00" fill="#000000">EdgeType</text>
</g>
<!-- 53&#45;&gt;32 -->
<g id="edge48" class="edge">
<title>53-&gt;32</title>
<path fill="none" stroke="#000000" d="M597.146,-532.83C595.2232,-520.6338 592.6408,-504.2543 590.4438,-490.3187"/>
<polygon fill="#000000" stroke="#000000" points="593.8708,-489.581 588.8561,-480.2481 586.9562,-490.6712 593.8708,-489.581"/>
<text text-anchor="middle" x="623.7463" y="-502.2" font-family="Times,serif" font-size="14.00" fill="#000000">EdgeType</text>
</g>
<!-- 54&#45;&gt;33 -->
<g id="edge51" class="edge">
<title>54-&gt;33</title>
<path fill="none" stroke="#000000" d="M1013.1732,-357.7322C1000.5017,-344.4942 982.0126,-325.1785 967.1907,-309.6939"/>
<polygon fill="#000000" stroke="#000000" points="969.6938,-307.2473 960.2505,-302.4436 964.637,-312.0877 969.6938,-307.2473"/>
<text text-anchor="middle" x="1022.7463" y="-324.6" font-family="Times,serif" font-size="14.00" fill="#000000">EdgeType</text>
</g>
<!-- 55&#45;&gt;34 -->
<g id="edge54" class="edge">
<title>55-&gt;34</title>
<path fill="none" stroke="#000000" d="M1532.8477,-355.23C1536.8697,-342.9142 1542.2849,-326.3328 1546.8645,-312.3095"/>
<polygon fill="#000000" stroke="#000000" points="1550.2423,-313.2406 1550.0197,-302.6481 1543.5882,-311.0674 1550.2423,-313.2406"/>
<text text-anchor="middle" x="1572.7463" y="-324.6" font-family="Times,serif" font-size="14.00" fill="#000000">EdgeType</text>
</g>
<!-- 56&#45;&gt;35 -->
<g id="edge57" class="edge">
<title>56-&gt;35</title>
<path fill="none" stroke="#000000" d="M1307.9791,-177.2006C1307.9791,-165.0949 1307.9791,-149.0076 1307.9791,-135.2674"/>
<polygon fill="#000000" stroke="#000000" points="1311.4792,-134.872 1307.9791,-124.872 1304.4792,-134.8721 1311.4792,-134.872"/>
<text text-anchor="middle" x="1336.7463" y="-147" font-family="Times,serif" font-size="14.00" fill="#000000">EdgeType</text>
</g>
</g>
</svg>