<?xml version="1.0" encoding="UTF-8" standalone="no"?><!DOCTYPE svg PUBLIC "-//W3C//DTD SVG 1.1//EN" "http://www.w3.org/Graphics/SVG/1.1/DTD/svg11.dtd"><!-- Generated by graphviz version 2.40.1 (20161225.0304)
 --><!-- Title: G Pages: 1 --><svg xmlns="http://www.w3.org/2000/svg" xmlns:xlink="http://www.w3.org/1999/xlink" width="1819pt" height="932pt" viewBox="0.00 0.00 1818.55 932.00">
<g id="graph0" class="graph" transform="scale(1 1) rotate(0) translate(4 928)">
<title>G</title>
<polygon fill="#ffffff" stroke="transparent" points="-4,4 -4,-928 1814.5475,-928 1814.5475,4 -4,4"/>
<!-- 1 -->
<g id="node1" class="node">
<title>1</title>
<ellipse fill="none" stroke="#000000" cx="103.0131" cy="-906" rx="103.0262" ry="18"/>
<text text-anchor="middle" x="103.0131" y="-901.8" font-family="Times,serif" font-size="14.00" fill="#000000">Identifier(Blinky,clock)</text>
</g>
<!-- 2 -->
<g id="node2" class="node">
<title>2</title>
<ellipse fill="none" stroke="#000000" cx="1170.0131" cy="-906" rx="100.1534" ry="18"/>
<text text-anchor="middle" x="1170.0131" y="-901.8" font-family="Times,serif" font-size="14.00" fill="#000000">Identifier(Blinky,reset)</text>
</g>
<!-- 26 -->
<g id="node26" class="node">
<title>26</title>
<ellipse fill="none" stroke="#000000" cx="1459.0131" cy="-550.8" rx="29.0567" ry="18"/>
<text text-anchor="middle" x="1459.0131" y="-546.6" font-family="Times,serif" font-size="14.00" fill="#000000">Mux</text>
</g>
<!-- 2&#45;&gt;26 -->
<g id="edge29" class="edge">
<title>2-&gt;26</title>
<path fill="none" stroke="#000000" d="M1254.3657,-896.2473C1338.4053,-884.1134 1455.0131,-859.632 1455.0131,-817.2 1455.0131,-817.2 1455.0131,-817.2 1455.0131,-639.6 1455.0131,-619.28 1456.0713,-596.371 1457.0991,-578.9118"/>
<polygon fill="#000000" stroke="#000000" points="1460.5994,-579.0148 1457.7255,-568.8172 1453.6128,-578.5812 1460.5994,-579.0148"/>
<text text-anchor="middle" x="1483.7803" y="-724.2" font-family="Times,serif" font-size="14.00" fill="#000000">EdgeType</text>
</g>
<!-- 28 -->
<g id="node28" class="node">
<title>28</title>
<ellipse fill="none" stroke="#000000" cx="306.0131" cy="-817.2" rx="29.0567" ry="18"/>
<text text-anchor="middle" x="306.0131" y="-813" font-family="Times,serif" font-size="14.00" fill="#000000">Mux</text>
</g>
<!-- 2&#45;&gt;28 -->
<g id="edge33" class="edge">
<title>2-&gt;28</title>
<path fill="none" stroke="#000000" d="M1082.8139,-897.0379C898.6085,-878.1056 476.061,-834.6771 345.3067,-821.2385"/>
<polygon fill="#000000" stroke="#000000" points="345.2883,-817.7183 334.9828,-820.1774 344.5726,-824.6816 345.2883,-817.7183"/>
<text text-anchor="middle" x="844.7803" y="-857.4" font-family="Times,serif" font-size="14.00" fill="#000000">EdgeType</text>
</g>
<!-- 3 -->
<g id="node3" class="node">
<title>3</title>
<ellipse fill="none" stroke="#000000" cx="1614.0131" cy="-373.2" rx="111.134" ry="18"/>
<text text-anchor="middle" x="1614.0131" y="-369" font-family="Times,serif" font-size="14.00" fill="#000000">Identifier(Blinky,io_led0)</text>
</g>
<!-- 4 -->
<g id="node4" class="node">
<title>4</title>
<ellipse fill="none" stroke="#000000" cx="1460.0131" cy="-462" rx="93.796" ry="18"/>
<text text-anchor="middle" x="1460.0131" y="-457.8" font-family="Times,serif" font-size="14.00" fill="#000000">Identifier(Blinky,led)</text>
</g>
<!-- 4&#45;&gt;3 -->
<g id="edge28" class="edge">
<title>4-&gt;3</title>
<path fill="none" stroke="#000000" d="M1489.7059,-444.8785C1513.9433,-430.9026 1548.3908,-411.0394 1574.8787,-395.7658"/>
<polygon fill="#000000" stroke="#000000" points="1576.9714,-398.5993 1583.8861,-390.572 1573.4747,-392.5352 1576.9714,-398.5993"/>
<text text-anchor="middle" x="1578.7803" y="-413.4" font-family="Times,serif" font-size="14.00" fill="#000000">EdgeType</text>
</g>
<!-- 24 -->
<g id="node24" class="node">
<title>24</title>
<ellipse fill="none" stroke="#000000" cx="1380.0131" cy="-373.2" rx="27" ry="18"/>
<text text-anchor="middle" x="1380.0131" y="-369" font-family="Times,serif" font-size="14.00" fill="#000000">not</text>
</g>
<!-- 4&#45;&gt;24 -->
<g id="edge21" class="edge">
<title>4-&gt;24</title>
<path fill="none" stroke="#000000" d="M1405.8142,-447.2286C1395.9967,-442.0921 1386.9712,-435.2082 1380.9317,-426 1376.2131,-418.8057 1374.8305,-409.7908 1374.9722,-401.2567"/>
<polygon fill="#000000" stroke="#000000" points="1378.4648,-401.4891 1375.7793,-391.2403 1371.4874,-400.9269 1378.4648,-401.4891"/>
<text text-anchor="middle" x="1420.0538" y="-413.4" font-family="Times,serif" font-size="14.00" fill="#000000">LeftArgument</text>
</g>
<!-- 25 -->
<g id="node25" class="node">
<title>25</title>
<ellipse fill="none" stroke="#000000" cx="1406.0131" cy="-195.6" rx="29.0567" ry="18"/>
<text text-anchor="middle" x="1406.0131" y="-191.4" font-family="Times,serif" font-size="14.00" fill="#000000">Mux</text>
</g>
<!-- 4&#45;&gt;25 -->
<g id="edge26" class="edge">
<title>4-&gt;25</title>
<path fill="none" stroke="#000000" d="M1462.1553,-443.8809C1465.7356,-408.9669 1471.1476,-330.1823 1456.0131,-266.4 1452.0829,-249.8368 1449.5391,-245.7082 1440.0131,-231.6 1436.8862,-226.9689 1433.1552,-222.3687 1429.3285,-218.0822"/>
<polygon fill="#000000" stroke="#000000" points="1431.848,-215.6523 1422.4469,-210.7665 1426.7492,-220.4485 1431.848,-215.6523"/>
<text text-anchor="middle" x="1493.7803" y="-324.6" font-family="Times,serif" font-size="14.00" fill="#000000">EdgeType</text>
</g>
<!-- 5 -->
<g id="node5" class="node">
<title>5</title>
<ellipse fill="none" stroke="#000000" cx="306.0131" cy="-728.4" rx="167.2186" ry="18"/>
<text text-anchor="middle" x="306.0131" y="-724.2" font-family="Times,serif" font-size="14.00" fill="#000000">Identifier(Blinky,counterWrap_c_value)</text>
</g>
<!-- 16 -->
<g id="node16" class="node">
<title>16</title>
<ellipse fill="none" stroke="#000000" cx="933.0131" cy="-639.6" rx="27" ry="18"/>
<text text-anchor="middle" x="933.0131" y="-635.4" font-family="Times,serif" font-size="14.00" fill="#000000">eq</text>
</g>
<!-- 5&#45;&gt;16 -->
<g id="edge1" class="edge">
<title>5-&gt;16</title>
<path fill="none" stroke="#000000" d="M349.9265,-710.9291C382.0747,-698.9205 427.0414,-683.7287 467.9317,-675.6 549.66,-659.353 800.5177,-645.964 895.7846,-641.3366"/>
<polygon fill="#000000" stroke="#000000" points="896.0053,-644.8301 905.8255,-640.8534 895.6688,-637.8382 896.0053,-644.8301"/>
<text text-anchor="middle" x="508.0538" y="-679.8" font-family="Times,serif" font-size="14.00" fill="#000000">LeftArgument</text>
</g>
<!-- 18 -->
<g id="node18" class="node">
<title>18</title>
<ellipse fill="none" stroke="#000000" cx="536.0131" cy="-639.6" rx="27" ry="18"/>
<text text-anchor="middle" x="536.0131" y="-635.4" font-family="Times,serif" font-size="14.00" fill="#000000">add</text>
</g>
<!-- 5&#45;&gt;18 -->
<g id="edge4" class="edge">
<title>5-&gt;18</title>
<path fill="none" stroke="#000000" d="M305.6635,-710.2236C306.4621,-698.682 309.5199,-684.3258 318.9317,-675.6 344.4609,-651.9317 443.6664,-643.7174 498.7043,-640.9488"/>
<polygon fill="#000000" stroke="#000000" points="498.9381,-644.4418 508.7638,-640.4787 498.6112,-637.4495 498.9381,-644.4418"/>
<text text-anchor="middle" x="359.0538" y="-679.8" font-family="Times,serif" font-size="14.00" fill="#000000">LeftArgument</text>
</g>
<!-- 22 -->
<g id="node22" class="node">
<title>22</title>
<ellipse fill="none" stroke="#000000" cx="269.0131" cy="-106.8" rx="29.0567" ry="18"/>
<text text-anchor="middle" x="269.0131" y="-102.6" font-family="Times,serif" font-size="14.00" fill="#000000">Mux</text>
</g>
<!-- 5&#45;&gt;22 -->
<g id="edge15" class="edge">
<title>5-&gt;22</title>
<path fill="none" stroke="#000000" d="M276.4631,-710.4464C254.7487,-694.7607 229.0131,-669.7999 229.0131,-639.6 229.0131,-639.6 229.0131,-639.6 229.0131,-195.6 229.0131,-172.6308 240.2762,-149.0342 250.8492,-131.9436"/>
<polygon fill="#000000" stroke="#000000" points="254.0444,-133.4514 256.5761,-123.1635 248.1814,-129.6272 254.0444,-133.4514"/>
<text text-anchor="middle" x="257.7803" y="-413.4" font-family="Times,serif" font-size="14.00" fill="#000000">EdgeType</text>
</g>
<!-- 6 -->
<g id="node6" class="node">
<title>6</title>
<ellipse fill="none" stroke="#000000" cx="933.0131" cy="-550.8" rx="180.5227" ry="18"/>
<text text-anchor="middle" x="933.0131" y="-546.6" font-family="Times,serif" font-size="14.00" fill="#000000">Identifier(Blinky,counterWrap_wrap_wrap)</text>
</g>
<!-- 21 -->
<g id="node21" class="node">
<title>21</title>
<ellipse fill="none" stroke="#000000" cx="831.0131" cy="-284.4" rx="29.0567" ry="18"/>
<text text-anchor="middle" x="831.0131" y="-280.2" font-family="Times,serif" font-size="14.00" fill="#000000">Mux</text>
</g>
<!-- 6&#45;&gt;21 -->
<g id="edge9" class="edge">
<title>6-&gt;21</title>
<path fill="none" stroke="#000000" d="M926.0022,-532.4892C908.4121,-486.5479 862.3312,-366.1955 841.5025,-311.7959"/>
<polygon fill="#000000" stroke="#000000" points="844.6488,-310.2247 837.8044,-302.1373 838.1116,-312.7277 844.6488,-310.2247"/>
<text text-anchor="middle" x="913.7803" y="-413.4" font-family="Times,serif" font-size="14.00" fill="#000000">EdgeType</text>
</g>
<!-- 23 -->
<g id="node23" class="node">
<title>23</title>
<ellipse fill="none" stroke="#000000" cx="1201.0131" cy="-462" rx="29.0567" ry="18"/>
<text text-anchor="middle" x="1201.0131" y="-457.8" font-family="Times,serif" font-size="14.00" fill="#000000">Mux</text>
</g>
<!-- 6&#45;&gt;23 -->
<g id="edge18" class="edge">
<title>6-&gt;23</title>
<path fill="none" stroke="#000000" d="M987.8221,-533.527C1032.004,-519.4763 1095.6695,-498.9436 1151.0131,-480 1155.9067,-478.325 1161.0548,-476.5204 1166.1114,-474.7232"/>
<polygon fill="#000000" stroke="#000000" points="1167.3978,-477.9802 1175.6314,-471.3125 1165.0369,-471.3904 1167.3978,-477.9802"/>
<text text-anchor="middle" x="1126.7803" y="-502.2" font-family="Times,serif" font-size="14.00" fill="#000000">EdgeType</text>
</g>
<!-- 7 -->
<g id="node7" class="node">
<title>7</title>
<ellipse fill="none" stroke="#000000" cx="536.0131" cy="-550.8" rx="197.8605" ry="18"/>
<text text-anchor="middle" x="536.0131" y="-546.6" font-family="Times,serif" font-size="14.00" fill="#000000">Identifier(Blinky,_counterWrap_wrap_value_T)</text>
</g>
<!-- 19 -->
<g id="node19" class="node">
<title>19</title>
<ellipse fill="none" stroke="#000000" cx="547.0131" cy="-462" rx="27" ry="18"/>
<text text-anchor="middle" x="547.0131" y="-457.8" font-family="Times,serif" font-size="14.00" fill="#000000">tail</text>
</g>
<!-- 7&#45;&gt;19 -->
<g id="edge7" class="edge">
<title>7-&gt;19</title>
<path fill="none" stroke="#000000" d="M538.2923,-532.4006C539.8067,-520.175 541.8242,-503.8887 543.5372,-490.0599"/>
<polygon fill="#000000" stroke="#000000" points="547.0185,-490.4265 544.7745,-480.072 540.0716,-489.5659 547.0185,-490.4265"/>
<text text-anchor="middle" x="583.0538" y="-502.2" font-family="Times,serif" font-size="14.00" fill="#000000">LeftArgument</text>
</g>
<!-- 8 -->
<g id="node8" class="node">
<title>8</title>
<ellipse fill="none" stroke="#000000" cx="601.0131" cy="-373.2" rx="207.6744" ry="18"/>
<text text-anchor="middle" x="601.0131" y="-369" font-family="Times,serif" font-size="14.00" fill="#000000">Identifier(Blinky,_counterWrap_wrap_value_T_1)</text>
</g>
<!-- 8&#45;&gt;21 -->
<g id="edge11" class="edge">
<title>8-&gt;21</title>
<path fill="none" stroke="#000000" d="M646.7287,-355.5498C690.8101,-338.5306 756.5449,-313.1512 796.433,-297.7509"/>
<polygon fill="#000000" stroke="#000000" points="797.9201,-300.9287 805.9883,-294.0618 795.3988,-294.3985 797.9201,-300.9287"/>
<text text-anchor="middle" x="765.7803" y="-324.6" font-family="Times,serif" font-size="14.00" fill="#000000">EdgeType</text>
</g>
<!-- 9 -->
<g id="node9" class="node">
<title>9</title>
<ellipse fill="none" stroke="#000000" cx="654.0131" cy="-195.6" rx="116.3533" ry="18"/>
<text text-anchor="middle" x="654.0131" y="-191.4" font-family="Times,serif" font-size="14.00" fill="#000000">Identifier(Blinky,_GEN_0)</text>
</g>
<!-- 9&#45;&gt;22 -->
<g id="edge14" class="edge">
<title>9-&gt;22</title>
<path fill="none" stroke="#000000" d="M589.1385,-180.6367C508.1779,-161.9632 372.4014,-130.6464 306.782,-115.5114"/>
<polygon fill="#000000" stroke="#000000" points="307.4028,-112.0627 296.872,-113.2256 305.8295,-118.8837 307.4028,-112.0627"/>
<text text-anchor="middle" x="524.7803" y="-147" font-family="Times,serif" font-size="14.00" fill="#000000">EdgeType</text>
</g>
<!-- 10 -->
<g id="node10" class="node">
<title>10</title>
<ellipse fill="none" stroke="#000000" cx="127.0131" cy="-18" rx="116.3533" ry="18"/>
<text text-anchor="middle" x="127.0131" y="-13.8" font-family="Times,serif" font-size="14.00" fill="#000000">Identifier(Blinky,_GEN_1)</text>
</g>
<!-- 10&#45;&gt;28 -->
<g id="edge35" class="edge">
<title>10-&gt;28</title>
<path fill="none" stroke="#000000" d="M121.7741,-36.1952C117.1078,-54.0246 111.0131,-82.0494 111.0131,-106.8 111.0131,-728.4 111.0131,-728.4 111.0131,-728.4 111.0131,-762.6316 211.7996,-793.5399 268.4566,-808.2105"/>
<polygon fill="#000000" stroke="#000000" points="267.9341,-811.6889 278.488,-810.7581 269.6571,-804.9042 267.9341,-811.6889"/>
<text text-anchor="middle" x="139.7803" y="-413.4" font-family="Times,serif" font-size="14.00" fill="#000000">EdgeType</text>
</g>
<!-- 11 -->
<g id="node11" class="node">
<title>11</title>
<ellipse fill="none" stroke="#000000" cx="1219.0131" cy="-373.2" rx="116.3533" ry="18"/>
<text text-anchor="middle" x="1219.0131" y="-369" font-family="Times,serif" font-size="14.00" fill="#000000">Identifier(Blinky,_GEN_2)</text>
</g>
<!-- 13 -->
<g id="node13" class="node">
<title>13</title>
<ellipse fill="none" stroke="#000000" cx="1078.0131" cy="-284.4" rx="132.5031" ry="18"/>
<text text-anchor="middle" x="1078.0131" y="-280.2" font-family="Times,serif" font-size="14.00" fill="#000000">Identifier(Blinky,counterWrap)</text>
</g>
<!-- 11&#45;&gt;13 -->
<g id="edge23" class="edge">
<title>11-&gt;13</title>
<path fill="none" stroke="#000000" d="M1191.156,-355.656C1169.2834,-341.8809 1138.6391,-322.5815 1114.7583,-307.5417"/>
<polygon fill="#000000" stroke="#000000" points="1116.6219,-304.579 1106.2949,-302.2115 1112.8915,-310.5023 1116.6219,-304.579"/>
<text text-anchor="middle" x="1190.7803" y="-324.6" font-family="Times,serif" font-size="14.00" fill="#000000">EdgeType</text>
</g>
<!-- 12 -->
<g id="node12" class="node">
<title>12</title>
<ellipse fill="none" stroke="#000000" cx="1338.0131" cy="-284.4" rx="109.4086" ry="18"/>
<text text-anchor="middle" x="1338.0131" y="-280.2" font-family="Times,serif" font-size="14.00" fill="#000000">Identifier(Blinky,_led_T)</text>
</g>
<!-- 12&#45;&gt;25 -->
<g id="edge25" class="edge">
<title>12-&gt;25</title>
<path fill="none" stroke="#000000" d="M1351.7739,-266.43C1361.9605,-253.1276 1375.9579,-234.8486 1387.1815,-220.1919"/>
<polygon fill="#000000" stroke="#000000" points="1390.1184,-222.1133 1393.4194,-212.0458 1384.5608,-217.8574 1390.1184,-222.1133"/>
<text text-anchor="middle" x="1406.7803" y="-235.8" font-family="Times,serif" font-size="14.00" fill="#000000">EdgeType</text>
</g>
<!-- 13&#45;&gt;25 -->
<g id="edge24" class="edge">
<title>13-&gt;25</title>
<path fill="none" stroke="#000000" d="M1137.792,-268.216C1205.2851,-249.9434 1312.9897,-220.7844 1369.1805,-205.5718"/>
<polygon fill="#000000" stroke="#000000" points="1370.3139,-208.891 1379.0517,-202.8993 1368.4846,-202.1342 1370.3139,-208.891"/>
<text text-anchor="middle" x="1299.7803" y="-235.8" font-family="Times,serif" font-size="14.00" fill="#000000">EdgeType</text>
</g>
<!-- 14 -->
<g id="node14" class="node">
<title>14</title>
<ellipse fill="none" stroke="#000000" cx="1577.0131" cy="-106.8" rx="116.3533" ry="18"/>
<text text-anchor="middle" x="1577.0131" y="-102.6" font-family="Times,serif" font-size="14.00" fill="#000000">Identifier(Blinky,_GEN_3)</text>
</g>
<!-- 14&#45;&gt;26 -->
<g id="edge31" class="edge">
<title>14-&gt;26</title>
<path fill="none" stroke="#000000" d="M1665.7865,-118.5433C1709.5272,-129.8536 1753.0131,-152.0493 1753.0131,-195.6 1753.0131,-462 1753.0131,-462 1753.0131,-462 1753.0131,-514.6227 1578.2267,-538.889 1498.1906,-547.2423"/>
<polygon fill="#000000" stroke="#000000" points="1497.6045,-543.7836 1488.0076,-548.2723 1498.3091,-550.7481 1497.6045,-543.7836"/>
<text text-anchor="middle" x="1781.7803" y="-324.6" font-family="Times,serif" font-size="14.00" fill="#000000">EdgeType</text>
</g>
<!-- 15 -->
<g id="node15" class="node">
<title>15</title>
<ellipse fill="none" stroke="#000000" cx="1335.0131" cy="-728.4" rx="82.1983" ry="18"/>
<text text-anchor="middle" x="1335.0131" y="-724.2" font-family="Times,serif" font-size="14.00" fill="#000000">Identifier(Blinky,)</text>
</g>
<!-- 15&#45;&gt;16 -->
<g id="edge2" class="edge">
<title>15-&gt;16</title>
<path fill="none" stroke="#000000" d="M1276.9882,-715.5826C1192.6069,-696.9431 1038.5242,-662.9069 968.8806,-647.523"/>
<polygon fill="#000000" stroke="#000000" points="969.3632,-644.0453 958.8436,-645.3058 967.8533,-650.8805 969.3632,-644.0453"/>
<text text-anchor="middle" x="1214.9535" y="-679.8" font-family="Times,serif" font-size="14.00" fill="#000000">RightArgument</text>
</g>
<!-- 16&#45;&gt;6 -->
<g id="edge3" class="edge">
<title>16-&gt;6</title>
<path fill="none" stroke="#000000" d="M933.0131,-621.2006C933.0131,-609.0949 933.0131,-593.0076 933.0131,-579.2674"/>
<polygon fill="#000000" stroke="#000000" points="936.5132,-578.872 933.0131,-568.872 929.5132,-578.8721 936.5132,-578.872"/>
<text text-anchor="middle" x="961.7803" y="-591" font-family="Times,serif" font-size="14.00" fill="#000000">EdgeType</text>
</g>
<!-- 17 -->
<g id="node17" class="node">
<title>17</title>
<ellipse fill="none" stroke="#000000" cx="573.0131" cy="-728.4" rx="82.1983" ry="18"/>
<text text-anchor="middle" x="573.0131" y="-724.2" font-family="Times,serif" font-size="14.00" fill="#000000">Identifier(Blinky,)</text>
</g>
<!-- 17&#45;&gt;18 -->
<g id="edge5" class="edge">
<title>17-&gt;18</title>
<path fill="none" stroke="#000000" d="M565.5256,-710.43C560.2756,-697.8299 553.1652,-680.765 547.2392,-666.5426"/>
<polygon fill="#000000" stroke="#000000" points="550.4402,-665.1248 543.3632,-657.2402 543.9787,-667.8172 550.4402,-665.1248"/>
<text text-anchor="middle" x="601.9535" y="-679.8" font-family="Times,serif" font-size="14.00" fill="#000000">RightArgument</text>
</g>
<!-- 17&#45;&gt;22 -->
<g id="edge13" class="edge">
<title>17-&gt;22</title>
<path fill="none" stroke="#000000" d="M512.081,-716.2426C463.5598,-706.4689 403.3638,-694.0954 401.0131,-692.4 326.3707,-638.5665 310.0131,-598.4301 310.0131,-506.4 310.0131,-506.4 310.0131,-506.4 310.0131,-195.6 310.0131,-172.5329 298.4684,-148.9423 287.6311,-131.8789"/>
<polygon fill="#000000" stroke="#000000" points="290.2343,-129.476 281.761,-123.1156 284.4185,-133.3718 290.2343,-129.476"/>
<text text-anchor="middle" x="338.7803" y="-413.4" font-family="Times,serif" font-size="14.00" fill="#000000">EdgeType</text>
</g>
<!-- 17&#45;&gt;23 -->
<g id="edge17" class="edge">
<title>17-&gt;23</title>
<path fill="none" stroke="#000000" d="M654.584,-726.1884C831.3688,-720.5602 1237.3481,-702.804 1279.0131,-657.6 1325.8189,-606.8186 1261.0749,-524.4741 1223.9229,-484.7997"/>
<polygon fill="#000000" stroke="#000000" points="1226.342,-482.2651 1216.9017,-477.4557 1221.2824,-487.1025 1226.342,-482.2651"/>
<text text-anchor="middle" x="1322.7803" y="-591" font-family="Times,serif" font-size="14.00" fill="#000000">EdgeType</text>
</g>
<!-- 18&#45;&gt;7 -->
<g id="edge6" class="edge">
<title>18-&gt;7</title>
<path fill="none" stroke="#000000" d="M536.0131,-621.2006C536.0131,-609.0949 536.0131,-593.0076 536.0131,-579.2674"/>
<polygon fill="#000000" stroke="#000000" points="539.5132,-578.872 536.0131,-568.872 532.5132,-578.8721 539.5132,-578.872"/>
<text text-anchor="middle" x="564.7803" y="-591" font-family="Times,serif" font-size="14.00" fill="#000000">EdgeType</text>
</g>
<!-- 19&#45;&gt;8 -->
<g id="edge8" class="edge">
<title>19-&gt;8</title>
<path fill="none" stroke="#000000" d="M557.1701,-445.2974C564.9121,-432.5661 575.7303,-414.7762 584.6832,-400.0536"/>
<polygon fill="#000000" stroke="#000000" points="587.7671,-401.7186 589.9724,-391.3558 581.7861,-398.0815 587.7671,-401.7186"/>
<text text-anchor="middle" x="607.7803" y="-413.4" font-family="Times,serif" font-size="14.00" fill="#000000">EdgeType</text>
</g>
<!-- 20 -->
<g id="node20" class="node">
<title>20</title>
<ellipse fill="none" stroke="#000000" cx="1188.0131" cy="-639.6" rx="82.1983" ry="18"/>
<text text-anchor="middle" x="1188.0131" y="-635.4" font-family="Times,serif" font-size="14.00" fill="#000000">Identifier(Blinky,)</text>
</g>
<!-- 20&#45;&gt;21 -->
<g id="edge10" class="edge">
<title>20-&gt;21</title>
<path fill="none" stroke="#000000" d="M1177.8976,-621.3816C1165.6673,-599.7497 1144.0915,-562.822 1123.0131,-532.8 1048.7756,-427.0636 919.2322,-338.8585 860.9394,-302.3925"/>
<polygon fill="#000000" stroke="#000000" points="862.5594,-299.2789 852.2149,-296.9894 858.8738,-305.2301 862.5594,-299.2789"/>
<text text-anchor="middle" x="1107.7803" y="-457.8" font-family="Times,serif" font-size="14.00" fill="#000000">EdgeType</text>
</g>
<!-- 20&#45;&gt;23 -->
<g id="edge19" class="edge">
<title>20-&gt;23</title>
<path fill="none" stroke="#000000" d="M1189.3312,-621.5934C1191.5989,-590.612 1196.2548,-527.006 1198.9537,-490.1346"/>
<polygon fill="#000000" stroke="#000000" points="1202.4521,-490.2831 1199.6916,-480.0543 1195.4708,-489.772 1202.4521,-490.2831"/>
<text text-anchor="middle" x="1224.7803" y="-546.6" font-family="Times,serif" font-size="14.00" fill="#000000">EdgeType</text>
</g>
<!-- 20&#45;&gt;26 -->
<g id="edge30" class="edge">
<title>20-&gt;26</title>
<path fill="none" stroke="#000000" d="M1195.1333,-621.4977C1200.7521,-609.6788 1209.7749,-594.9744 1222.4787,-586.8 1254.3605,-566.2855 1361.0385,-556.7229 1419.6364,-552.9241"/>
<polygon fill="#000000" stroke="#000000" points="1419.8815,-556.4157 1429.6447,-552.301 1419.4465,-549.4292 1419.8815,-556.4157"/>
<text text-anchor="middle" x="1251.7803" y="-591" font-family="Times,serif" font-size="14.00" fill="#000000">EdgeType</text>
</g>
<!-- 21&#45;&gt;9 -->
<g id="edge12" class="edge">
<title>21-&gt;9</title>
<path fill="none" stroke="#000000" d="M808.2358,-272.9727C780.3801,-258.9977 732.6234,-235.0384 697.6161,-217.4754"/>
<polygon fill="#000000" stroke="#000000" points="699.0676,-214.2879 688.5599,-212.9319 695.9286,-220.5446 699.0676,-214.2879"/>
<text text-anchor="middle" x="787.7803" y="-235.8" font-family="Times,serif" font-size="14.00" fill="#000000">EdgeType</text>
</g>
<!-- 22&#45;&gt;10 -->
<g id="edge16" class="edge">
<title>22-&gt;10</title>
<path fill="none" stroke="#000000" d="M248.3651,-93.8877C226.2504,-80.0583 190.7082,-57.8319 163.7912,-40.9993"/>
<polygon fill="#000000" stroke="#000000" points="165.3598,-37.8522 155.0254,-35.5175 161.6482,-43.7872 165.3598,-37.8522"/>
<text text-anchor="middle" x="239.7803" y="-58.2" font-family="Times,serif" font-size="14.00" fill="#000000">EdgeType</text>
</g>
<!-- 23&#45;&gt;11 -->
<g id="edge20" class="edge">
<title>23-&gt;11</title>
<path fill="none" stroke="#000000" d="M1204.6557,-444.03C1207.1279,-431.8338 1210.448,-415.4543 1213.2728,-401.5187"/>
<polygon fill="#000000" stroke="#000000" points="1216.7577,-401.9441 1215.3142,-391.4481 1209.8972,-400.5534 1216.7577,-401.9441"/>
<text text-anchor="middle" x="1240.7803" y="-413.4" font-family="Times,serif" font-size="14.00" fill="#000000">EdgeType</text>
</g>
<!-- 24&#45;&gt;12 -->
<g id="edge22" class="edge">
<title>24-&gt;12</title>
<path fill="none" stroke="#000000" d="M1371.7153,-355.656C1365.8104,-343.1714 1357.7593,-326.149 1351.0069,-311.8726"/>
<polygon fill="#000000" stroke="#000000" points="1354.0217,-310.0606 1346.5821,-302.5172 1347.6938,-313.0536 1354.0217,-310.0606"/>
<text text-anchor="middle" x="1390.7803" y="-324.6" font-family="Times,serif" font-size="14.00" fill="#000000">EdgeType</text>
</g>
<!-- 25&#45;&gt;14 -->
<g id="edge27" class="edge">
<title>25-&gt;14</title>
<path fill="none" stroke="#000000" d="M1428.7206,-183.808C1455.6265,-169.8359 1501.0219,-146.2621 1534.5149,-128.8692"/>
<polygon fill="#000000" stroke="#000000" points="1536.3591,-131.8554 1543.6208,-124.1406 1533.133,-125.6431 1536.3591,-131.8554"/>
<text text-anchor="middle" x="1534.7803" y="-147" font-family="Times,serif" font-size="14.00" fill="#000000">EdgeType</text>
</g>
<!-- 26&#45;&gt;4 -->
<g id="edge32" class="edge">
<title>26-&gt;4</title>
<path fill="none" stroke="#000000" d="M1459.2203,-532.4006C1459.3566,-520.2949 1459.5378,-504.2076 1459.6925,-490.4674"/>
<polygon fill="#000000" stroke="#000000" points="1463.1967,-490.1108 1459.8096,-480.072 1456.1971,-490.0319 1463.1967,-490.1108"/>
<text text-anchor="middle" x="1487.7803" y="-502.2" font-family="Times,serif" font-size="14.00" fill="#000000">EdgeType</text>
</g>
<!-- 27 -->
<g id="node27" class="node">
<title>27</title>
<ellipse fill="none" stroke="#000000" cx="306.0131" cy="-906" rx="82.1983" ry="18"/>
<text text-anchor="middle" x="306.0131" y="-901.8" font-family="Times,serif" font-size="14.00" fill="#000000">Identifier(Blinky,)</text>
</g>
<!-- 27&#45;&gt;28 -->
<g id="edge34" class="edge">
<title>27-&gt;28</title>
<path fill="none" stroke="#000000" d="M306.0131,-887.6006C306.0131,-875.4949 306.0131,-859.4076 306.0131,-845.6674"/>
<polygon fill="#000000" stroke="#000000" points="309.5132,-845.272 306.0131,-835.272 302.5132,-845.2721 309.5132,-845.272"/>
<text text-anchor="middle" x="334.7803" y="-857.4" font-family="Times,serif" font-size="14.00" fill="#000000">EdgeType</text>
</g>
<!-- 28&#45;&gt;5 -->
<g id="edge36" class="edge">
<title>28-&gt;5</title>
<path fill="none" stroke="#000000" d="M306.0131,-798.8006C306.0131,-786.6949 306.0131,-770.6076 306.0131,-756.8674"/>
<polygon fill="#000000" stroke="#000000" points="309.5132,-756.472 306.0131,-746.472 302.5132,-756.4721 309.5132,-756.472"/>
<text text-anchor="middle" x="334.7803" y="-768.6" font-family="Times,serif" font-size="14.00" fill="#000000">EdgeType</text>
</g>
</g>
</svg>