<?xml version="1.0" encoding="UTF-8"?><svg xmlns="http://www.w3.org/2000/svg" xmlns:xlink="http://www.w3.org/1999/xlink" fill-opacity="1" color-rendering="auto" color-interpolation="auto" text-rendering="auto" stroke="black" stroke-linecap="square" width="721" stroke-miterlimit="10" shape-rendering="auto" stroke-opacity="1" fill="black" stroke-dasharray="none" font-weight="normal" stroke-width="1" height="645" font-family="'Dialog'" font-style="normal" stroke-linejoin="miter" font-size="12px" stroke-dashoffset="0" image-rendering="auto">
  <!--Generated by ySVG 2.6-->
  <defs id="genericDefs"/>
  <g>
    <defs id="defs1">
      <clipPath clipPathUnits="userSpaceOnUse" id="clipPath1">
        <path d="M0 0 L721 0 L721 645 L0 645 L0 0 Z"/>
      </clipPath>
      <clipPath clipPathUnits="userSpaceOnUse" id="clipPath2">
        <path d="M-144 15 L577 15 L577 660 L-144 660 L-144 15 Z"/>
      </clipPath>
    </defs>
    <g fill="rgb(200,255,35)" text-rendering="geometricPrecision" shape-rendering="geometricPrecision" transform="matrix(1,0,0,1,144,-15)" stroke="rgb(200,255,35)">
      <rect x="-143.3119" width="220" height="30" y="15.512" clip-path="url(#clipPath2)" stroke="none"/>
    </g>
    <g text-rendering="geometricPrecision" stroke-miterlimit="1.45" shape-rendering="geometricPrecision" transform="matrix(1,0,0,1,144,-15)" stroke-linecap="butt">
      <rect fill="none" x="-143.3119" width="220" height="30" y="15.512" clip-path="url(#clipPath2)"/>
      <text x="-131.1239" font-size="14px" y="35.803" clip-path="url(#clipPath2)" font-family="sans-serif" stroke="none" xml:space="preserve">Identifier(ExampleClass,io_a)</text>
    </g>
    <g fill="rgb(200,255,35)" text-rendering="geometricPrecision" shape-rendering="geometricPrecision" transform="matrix(1,0,0,1,144,-15)" stroke="rgb(200,255,35)">
      <rect x="106.6881" width="220" height="30" y="15.512" clip-path="url(#clipPath2)" stroke="none"/>
    </g>
    <g text-rendering="geometricPrecision" stroke-miterlimit="1.45" shape-rendering="geometricPrecision" transform="matrix(1,0,0,1,144,-15)" stroke-linecap="butt">
      <rect fill="none" x="106.6881" width="220" height="30" y="15.512" clip-path="url(#clipPath2)"/>
      <text x="118.336" font-size="14px" y="35.803" clip-path="url(#clipPath2)" font-family="sans-serif" stroke="none" xml:space="preserve">Identifier(ExampleClass,io_b)</text>
    </g>
    <g fill="rgb(200,255,35)" text-rendering="geometricPrecision" shape-rendering="geometricPrecision" transform="matrix(1,0,0,1,144,-15)" stroke="rgb(200,255,35)">
      <rect x="356.6881" width="220" height="30" y="15.512" clip-path="url(#clipPath2)" stroke="none"/>
    </g>
    <g text-rendering="geometricPrecision" stroke-miterlimit="1.45" shape-rendering="geometricPrecision" transform="matrix(1,0,0,1,144,-15)" stroke-linecap="butt">
      <rect fill="none" x="356.6881" width="220" height="30" y="15.512" clip-path="url(#clipPath2)"/>
      <text x="369.1563" font-size="14px" y="35.803" clip-path="url(#clipPath2)" font-family="sans-serif" stroke="none" xml:space="preserve">Identifier(ExampleClass,io_c)</text>
    </g>
    <g fill="rgb(127,229,255)" text-rendering="geometricPrecision" shape-rendering="geometricPrecision" transform="matrix(1,0,0,1,144,-15)" stroke="rgb(127,229,255)">
      <rect x="262.0389" width="236.5" height="30" y="629.8555" clip-path="url(#clipPath2)" stroke="none"/>
    </g>
    <g text-rendering="geometricPrecision" stroke-miterlimit="1.45" shape-rendering="geometricPrecision" transform="matrix(1,0,0,1,144,-15)" stroke-linecap="butt">
      <rect fill="none" x="262.0389" width="236.5" height="30" y="629.8555" clip-path="url(#clipPath2)"/>
      <text x="275.0804" font-size="14px" y="650.1465" clip-path="url(#clipPath2)" font-family="sans-serif" stroke="none" xml:space="preserve">Identifier(ExampleClass,io_out)</text>
    </g>
    <g fill="rgb(255,204,0)" text-rendering="geometricPrecision" shape-rendering="geometricPrecision" transform="matrix(1,0,0,1,144,-15)" stroke="rgb(255,204,0)">
      <rect x="-143.3119" width="220" height="30" y="83.7724" clip-path="url(#clipPath2)" stroke="none"/>
    </g>
    <g text-rendering="geometricPrecision" stroke-miterlimit="1.45" shape-rendering="geometricPrecision" transform="matrix(1,0,0,1,144,-15)" stroke-linecap="butt">
      <rect fill="none" x="-143.3119" width="220" height="30" y="83.7724" clip-path="url(#clipPath2)"/>
      <text x="-136.9994" font-size="14px" y="104.0634" clip-path="url(#clipPath2)" font-family="sans-serif" stroke="none" xml:space="preserve">Identifier(ExampleClass,pipeA)</text>
    </g>
    <g fill="rgb(255,204,0)" text-rendering="geometricPrecision" shape-rendering="geometricPrecision" transform="matrix(1,0,0,1,144,-15)" stroke="rgb(255,204,0)">
      <rect x="106.6881" width="220" height="30" y="83.7724" clip-path="url(#clipPath2)" stroke="none"/>
    </g>
    <g text-rendering="geometricPrecision" stroke-miterlimit="1.45" shape-rendering="geometricPrecision" transform="matrix(1,0,0,1,144,-15)" stroke-linecap="butt">
      <rect fill="none" x="106.6881" width="220" height="30" y="83.7724" clip-path="url(#clipPath2)"/>
      <text x="113.8038" font-size="14px" y="104.0634" clip-path="url(#clipPath2)" font-family="sans-serif" stroke="none" xml:space="preserve">Identifier(ExampleClass,pipeB)</text>
    </g>
    <g fill="rgb(255,219,76)" text-rendering="geometricPrecision" shape-rendering="geometricPrecision" transform="matrix(1,0,0,1,144,-15)" stroke="rgb(255,219,76)">
      <rect x="-45.3663" width="255.5148" height="30" y="220.2932" clip-path="url(#clipPath2)" stroke="none"/>
    </g>
    <g text-rendering="geometricPrecision" stroke-miterlimit="1.45" shape-rendering="geometricPrecision" transform="matrix(1,0,0,1,144,-15)" stroke-linecap="butt">
      <rect fill="none" x="-45.3663" width="255.5148" height="30" y="220.2932" clip-path="url(#clipPath2)"/>
      <text x="-38.6187" font-size="14px" y="240.5842" clip-path="url(#clipPath2)" font-family="sans-serif" stroke="none" xml:space="preserve">Identifier(ExampleClass,_outPipe_T)</text>
    </g>
    <g fill="rgb(255,219,76)" text-rendering="geometricPrecision" shape-rendering="geometricPrecision" transform="matrix(1,0,0,1,144,-15)" stroke="rgb(255,219,76)">
      <rect x="-56.8259" width="278.4339" height="30" y="356.8139" clip-path="url(#clipPath2)" stroke="none"/>
    </g>
    <g text-rendering="geometricPrecision" stroke-miterlimit="1.45" shape-rendering="geometricPrecision" transform="matrix(1,0,0,1,144,-15)" stroke-linecap="butt">
      <rect fill="none" x="-56.8259" width="278.4339" height="30" y="356.8139" clip-path="url(#clipPath2)"/>
      <text x="-46.5449" font-size="14px" y="377.1049" clip-path="url(#clipPath2)" font-family="sans-serif" stroke="none" xml:space="preserve">Identifier(ExampleClass,_outPipe_T_1)</text>
    </g>
    <g fill="rgb(255,219,76)" text-rendering="geometricPrecision" shape-rendering="geometricPrecision" transform="matrix(1,0,0,1,144,-15)" stroke="rgb(255,219,76)">
      <rect x="-35.8589" width="236.5" height="30" y="425.0743" clip-path="url(#clipPath2)" stroke="none"/>
    </g>
    <g text-rendering="geometricPrecision" stroke-miterlimit="1.45" shape-rendering="geometricPrecision" transform="matrix(1,0,0,1,144,-15)" stroke-linecap="butt">
      <rect fill="none" x="-35.8589" width="236.5" height="30" y="425.0743" clip-path="url(#clipPath2)"/>
      <text x="-27.1924" font-size="14px" y="445.3654" clip-path="url(#clipPath2)" font-family="sans-serif" stroke="none" xml:space="preserve">Identifier(ExampleClass,outPipe)</text>
    </g>
    <g fill="rgb(255,219,76)" text-rendering="geometricPrecision" shape-rendering="geometricPrecision" transform="matrix(1,0,0,1,144,-15)" stroke="rgb(255,219,76)">
      <rect x="253.7889" width="253" height="30" y="493.3347" clip-path="url(#clipPath2)" stroke="none"/>
    </g>
    <g text-rendering="geometricPrecision" stroke-miterlimit="1.45" shape-rendering="geometricPrecision" transform="matrix(1,0,0,1,144,-15)" stroke-linecap="butt">
      <rect fill="none" x="253.7889" width="253" height="30" y="493.3347" clip-path="url(#clipPath2)"/>
      <text x="263.6542" font-size="14px" y="513.6257" clip-path="url(#clipPath2)" font-family="sans-serif" stroke="none" xml:space="preserve">Identifier(ExampleClass,_io_out_T)</text>
    </g>
    <g fill="rgb(219,183,255)" text-rendering="geometricPrecision" shape-rendering="geometricPrecision" transform="matrix(1,0,0,1,144,-15)" stroke="rgb(219,183,255)">
      <rect x="-27.6089" width="220" height="30" y="152.0328" clip-path="url(#clipPath2)" stroke="none"/>
    </g>
    <g text-rendering="geometricPrecision" stroke-miterlimit="1.45" shape-rendering="geometricPrecision" transform="matrix(1,0,0,1,144,-15)" stroke-linecap="butt">
      <rect fill="none" x="-27.6089" width="220" height="30" y="152.0328" clip-path="url(#clipPath2)"/>
      <text x="69.7139" font-size="14px" y="172.3238" clip-path="url(#clipPath2)" font-family="sans-serif" stroke="none" xml:space="preserve">add</text>
    </g>
    <g fill="rgb(219,183,255)" text-rendering="geometricPrecision" shape-rendering="geometricPrecision" transform="matrix(1,0,0,1,144,-15)" stroke="rgb(219,183,255)">
      <rect x="-27.6089" width="220" height="30" y="288.5535" clip-path="url(#clipPath2)" stroke="none"/>
    </g>
    <g text-rendering="geometricPrecision" stroke-miterlimit="1.45" shape-rendering="geometricPrecision" transform="matrix(1,0,0,1,144,-15)" stroke-linecap="butt">
      <rect fill="none" x="-27.6089" width="220" height="30" y="288.5535" clip-path="url(#clipPath2)"/>
      <text x="71.8603" font-size="14px" y="308.8446" clip-path="url(#clipPath2)" font-family="sans-serif" stroke="none" xml:space="preserve">tail</text>
    </g>
    <g fill="white" text-rendering="geometricPrecision" shape-rendering="geometricPrecision" transform="matrix(1,0,0,1,144,-15)" stroke="white">
      <rect x="270.2889" width="220" height="30" y="425.0743" clip-path="url(#clipPath2)" stroke="none"/>
    </g>
    <g text-rendering="geometricPrecision" stroke-miterlimit="1.45" shape-rendering="geometricPrecision" transform="matrix(1,0,0,1,144,-15)" stroke-linecap="butt">
      <rect fill="none" x="270.2889" width="220" height="30" y="425.0743" clip-path="url(#clipPath2)"/>
      <text x="365.6224" font-size="14px" y="445.3654" clip-path="url(#clipPath2)" font-family="sans-serif" stroke="none" xml:space="preserve">Mux</text>
    </g>
    <g fill="rgb(219,183,255)" text-rendering="geometricPrecision" shape-rendering="geometricPrecision" transform="matrix(1,0,0,1,144,-15)" stroke="rgb(219,183,255)">
      <rect x="270.2889" width="220" height="30" y="561.5951" clip-path="url(#clipPath2)" stroke="none"/>
    </g>
    <g text-rendering="geometricPrecision" stroke-miterlimit="1.45" shape-rendering="geometricPrecision" transform="matrix(1,0,0,1,144,-15)" stroke-linecap="butt">
      <rect fill="none" x="270.2889" width="220" height="30" y="561.5951" clip-path="url(#clipPath2)"/>
      <text x="367.6117" font-size="14px" y="581.8861" clip-path="url(#clipPath2)" font-family="sans-serif" stroke="none" xml:space="preserve">pad</text>
      <path fill="none" d="M-33.3119 45.512 L-33.3119 75.7724" clip-path="url(#clipPath2)"/>
      <path d="M-33.3119 83.7724 L-28.3119 71.7724 L-33.3119 74.7724 L-38.3119 71.7724 Z" clip-path="url(#clipPath2)" stroke="none"/>
      <path fill="none" d="M216.6881 45.512 L216.6881 75.7724" clip-path="url(#clipPath2)"/>
      <path d="M216.6881 83.7724 L221.6881 71.7724 L216.6881 74.7724 L211.6881 71.7724 Z" clip-path="url(#clipPath2)" stroke="none"/>
      <path fill="none" d="M82.3911 386.8139 L82.3911 417.0743" clip-path="url(#clipPath2)"/>
      <path d="M82.3911 425.0743 L87.3911 413.0743 L82.3911 416.0743 L77.3911 413.0743 Z" clip-path="url(#clipPath2)" stroke="none"/>
      <path fill="none" d="M-7.8866 113.7724 L50.0755 147.9678" clip-path="url(#clipPath2)"/>
      <path d="M56.9657 152.0328 L49.171 141.6288 L49.2142 147.4596 L44.0897 150.2417 Z" clip-path="url(#clipPath2)" stroke="none"/>
      <text x="-37.4844" xml:space="preserve" y="137.4377" clip-path="url(#clipPath2)" font-family="sans-serif" stroke="none">LeftArg</text>
      <path fill="none" d="M187.1767 113.7724 L119.0341 148.4079" clip-path="url(#clipPath2)"/>
      <path d="M111.9024 152.0328 L124.8654 151.0527 L119.9255 147.9548 L120.3344 142.1382 Z" clip-path="url(#clipPath2)" stroke="none"/>
      <text x="76.5556" xml:space="preserve" y="137.4377" clip-path="url(#clipPath2)" font-family="sans-serif" stroke="none">RightArg</text>
      <path fill="none" d="M82.3911 182.0328 L82.3911 212.2932" clip-path="url(#clipPath2)"/>
      <path d="M82.3911 220.2932 L87.3911 208.2932 L82.3911 211.2932 L77.3911 208.2932 Z" clip-path="url(#clipPath2)" stroke="none"/>
      <path fill="none" d="M82.3911 250.2932 L82.3911 280.5536" clip-path="url(#clipPath2)"/>
      <path d="M82.3911 288.5536 L87.3911 276.5536 L82.3911 279.5536 L77.3911 276.5536 Z" clip-path="url(#clipPath2)" stroke="none"/>
      <text x="86.3911" xml:space="preserve" y="273.9585" clip-path="url(#clipPath2)" font-family="sans-serif" stroke="none">LeftArg</text>
      <path fill="none" d="M82.3911 318.5536 L82.3911 348.8139" clip-path="url(#clipPath2)"/>
      <path d="M82.3911 356.8139 L87.3911 344.8139 L82.3911 347.8139 L77.3911 344.8139 Z" clip-path="url(#clipPath2)" stroke="none"/>
      <path fill="none" d="M463.5237 45.512 L385.1046 417.2466" clip-path="url(#clipPath2)"/>
      <path d="M383.4532 425.0743 L390.8225 414.3648 L385.311 416.2682 L381.0379 412.3007 Z" clip-path="url(#clipPath2)" stroke="none"/>
      <text x="429.4011" xml:space="preserve" y="239.8283" clip-path="url(#clipPath2)" font-family="sans-serif" stroke="none">ConditionEdge</text>
      <path fill="none" d="M223.8782 113.7724 L369.6408 417.8603" clip-path="url(#clipPath2)"/>
      <path d="M373.0988 425.0743 L372.4206 412.092 L369.2085 416.9585 L363.403 416.4145 Z" clip-path="url(#clipPath2)" stroke="none"/>
      <text x="306.8344" xml:space="preserve" y="273.9585" clip-path="url(#clipPath2)" font-family="sans-serif" stroke="none">FValEdge</text>
      <path fill="none" d="M200.6411 440.0743 L262.2889 440.0743" clip-path="url(#clipPath2)"/>
      <path d="M270.2889 440.0743 L258.2889 435.0743 L261.2889 440.0743 L258.2889 445.0743 Z" clip-path="url(#clipPath2)" stroke="none"/>
      <text x="208.5881" xml:space="preserve" y="455.6759" clip-path="url(#clipPath2)" font-family="sans-serif" stroke="none">TValEdge</text>
      <path fill="none" d="M380.2889 455.0743 L380.2889 485.3347" clip-path="url(#clipPath2)"/>
      <path d="M380.2889 493.3347 L385.2889 481.3347 L380.2889 484.3347 L375.2889 481.3347 Z" clip-path="url(#clipPath2)" stroke="none"/>
      <path fill="none" d="M380.2889 523.3347 L380.2889 553.5951" clip-path="url(#clipPath2)"/>
      <path d="M380.2889 561.5951 L385.2889 549.5951 L380.2889 552.5951 L375.2889 549.5951 Z" clip-path="url(#clipPath2)" stroke="none"/>
      <text x="384.2889" xml:space="preserve" y="547.0001" clip-path="url(#clipPath2)" font-family="sans-serif" stroke="none">LeftArg</text>
      <path fill="none" d="M380.2889 591.5951 L380.2889 621.8555" clip-path="url(#clipPath2)"/>
      <path d="M380.2889 629.8555 L385.2889 617.8555 L380.2889 620.8555 L375.2889 617.8555 Z" clip-path="url(#clipPath2)" stroke="none"/>
    </g>
  </g>
</svg>
