<?xml version="1.0" encoding="UTF-8"?><svg xmlns="http://www.w3.org/2000/svg" xmlns:xlink="http://www.w3.org/1999/xlink" fill-opacity="1" color-rendering="auto" color-interpolation="auto" text-rendering="auto" stroke="black" stroke-linecap="square" width="601" stroke-miterlimit="10" shape-rendering="auto" stroke-opacity="1" fill="black" stroke-dasharray="none" font-weight="normal" stroke-width="1" height="212" font-family="'Dialog'" font-style="normal" stroke-linejoin="miter" font-size="12px" stroke-dashoffset="0" image-rendering="auto">
  <!--Generated by ySVG 2.6-->
  <defs id="genericDefs"/>
  <g>
    <defs id="defs1">
      <clipPath clipPathUnits="userSpaceOnUse" id="clipPath1">
        <path d="M0 0 L601 0 L601 212 L0 212 L0 0 Z"/>
      </clipPath>
      <clipPath clipPathUnits="userSpaceOnUse" id="clipPath2">
        <path d="M55 53 L656 53 L656 265 L55 265 L55 53 Z"/>
      </clipPath>
    </defs>
    <g fill="rgb(200,255,35)" text-rendering="geometricPrecision" shape-rendering="geometricPrecision" transform="matrix(1,0,0,1,-55,-53)" stroke="rgb(200,255,35)">
      <rect x="325.1238" width="150" height="30" y="114.448" clip-path="url(#clipPath2)" stroke="none"/>
    </g>
    <g text-rendering="geometricPrecision" stroke-miterlimit="1.45" shape-rendering="geometricPrecision" transform="matrix(1,0,0,1,-55,-53)" stroke-linecap="butt">
      <rect fill="none" x="325.1238" width="150" height="30" y="114.448" clip-path="url(#clipPath2)"/>
      <text x="343.1296" xml:space="preserve" y="133.9832" clip-path="url(#clipPath2)" font-family="sans-serif" stroke="none">Identifier(First,io_d)</text>
    </g>
    <g fill="rgb(200,255,35)" text-rendering="geometricPrecision" shape-rendering="geometricPrecision" transform="matrix(1,0,0,1,-55,-53)" stroke="rgb(200,255,35)">
      <rect x="325.1238" width="150" height="30" y="234.448" clip-path="url(#clipPath2)" stroke="none"/>
    </g>
    <g text-rendering="geometricPrecision" stroke-miterlimit="1.45" shape-rendering="geometricPrecision" transform="matrix(1,0,0,1,-55,-53)" stroke-linecap="butt">
      <rect fill="none" x="325.1238" width="150" height="30" y="234.448" clip-path="url(#clipPath2)"/>
      <text x="343.1296" xml:space="preserve" y="253.9832" clip-path="url(#clipPath2)" font-family="sans-serif" stroke="none">Identifier(First,io_q)</text>
    </g>
    <g fill="rgb(200,255,35)" text-rendering="geometricPrecision" shape-rendering="geometricPrecision" transform="matrix(1,0,0,1,-55,-53)" stroke="rgb(200,255,35)">
      <rect x="325.1238" width="150" height="30" y="174.448" clip-path="url(#clipPath2)" stroke="none"/>
    </g>
    <g text-rendering="geometricPrecision" stroke-miterlimit="1.45" shape-rendering="geometricPrecision" transform="matrix(1,0,0,1,-55,-53)" stroke-linecap="butt">
      <rect fill="none" x="325.1238" width="150" height="30" y="174.448" clip-path="url(#clipPath2)"/>
      <text x="352.8708" xml:space="preserve" y="193.9832" clip-path="url(#clipPath2)" font-family="sans-serif" stroke="none">Identifier(First,r)</text>
    </g>
    <g fill="rgb(255,219,76)" text-rendering="geometricPrecision" shape-rendering="geometricPrecision" transform="matrix(1,0,0,1,-55,-53)" stroke="rgb(255,219,76)">
      <rect x="505.1238" width="150" height="30" y="114.448" clip-path="url(#clipPath2)" stroke="none"/>
    </g>
    <g text-rendering="geometricPrecision" stroke-miterlimit="1.45" shape-rendering="geometricPrecision" transform="matrix(1,0,0,1,-55,-53)" stroke-linecap="butt">
      <rect fill="none" x="505.1238" width="150" height="30" y="114.448" clip-path="url(#clipPath2)"/>
      <text x="515.0056" xml:space="preserve" y="133.9832" clip-path="url(#clipPath2)" font-family="sans-serif" stroke="none">Identifier(Second,io_d)</text>
    </g>
    <g fill="rgb(255,219,76)" text-rendering="geometricPrecision" shape-rendering="geometricPrecision" transform="matrix(1,0,0,1,-55,-53)" stroke="rgb(255,219,76)">
      <rect x="505.1238" width="150" height="30" y="234.448" clip-path="url(#clipPath2)" stroke="none"/>
    </g>
    <g text-rendering="geometricPrecision" stroke-miterlimit="1.45" shape-rendering="geometricPrecision" transform="matrix(1,0,0,1,-55,-53)" stroke-linecap="butt">
      <rect fill="none" x="505.1238" width="150" height="30" y="234.448" clip-path="url(#clipPath2)"/>
      <text x="515.0056" xml:space="preserve" y="253.9832" clip-path="url(#clipPath2)" font-family="sans-serif" stroke="none">Identifier(Second,io_q)</text>
    </g>
    <g fill="white" text-rendering="geometricPrecision" shape-rendering="geometricPrecision" transform="matrix(1,0,0,1,-55,-53)" stroke="white">
      <rect x="145.1238" width="150" height="30" y="234.448" clip-path="url(#clipPath2)" stroke="none"/>
    </g>
    <g text-rendering="geometricPrecision" stroke-miterlimit="1.45" shape-rendering="geometricPrecision" transform="matrix(1,0,0,1,-55,-53)" stroke-linecap="butt">
      <rect fill="none" x="145.1238" width="150" height="30" y="234.448" clip-path="url(#clipPath2)"/>
      <text x="164.5828" xml:space="preserve" y="253.9832" clip-path="url(#clipPath2)" font-family="sans-serif" stroke="none">Identifier(Top,io_q)</text>
    </g>
    <g fill="rgb(200,255,35)" text-rendering="geometricPrecision" shape-rendering="geometricPrecision" transform="matrix(1,0,0,1,-55,-53)" stroke="rgb(200,255,35)">
      <rect x="55.1238" width="150" height="30" y="53.0969" clip-path="url(#clipPath2)" stroke="none"/>
    </g>
    <g text-rendering="geometricPrecision" stroke-miterlimit="1.45" shape-rendering="geometricPrecision" transform="matrix(1,0,0,1,-55,-53)" stroke-linecap="butt">
      <rect fill="none" x="55.1238" width="150" height="30" y="53.0969" clip-path="url(#clipPath2)"/>
      <text x="83.0994" xml:space="preserve" y="72.6321" clip-path="url(#clipPath2)" font-family="sans-serif" stroke="none">Identifier(Top,x)</text>
    </g>
    <g fill="rgb(255,219,76)" text-rendering="geometricPrecision" shape-rendering="geometricPrecision" transform="matrix(1,0,0,1,-55,-53)" stroke="rgb(255,219,76)">
      <rect x="235.1238" width="150" height="30" y="54.448" clip-path="url(#clipPath2)" stroke="none"/>
    </g>
    <g text-rendering="geometricPrecision" stroke-miterlimit="1.45" shape-rendering="geometricPrecision" transform="matrix(1,0,0,1,-55,-53)" stroke-linecap="butt">
      <rect fill="none" x="235.1238" width="150" height="30" y="54.448" clip-path="url(#clipPath2)"/>
      <text x="263.6443" xml:space="preserve" y="73.9832" clip-path="url(#clipPath2)" font-family="sans-serif" stroke="none">Identifier(Top,y)</text>
    </g>
    <g fill="white" text-rendering="geometricPrecision" shape-rendering="geometricPrecision" transform="matrix(1,0,0,1,-55,-53)" stroke="white">
      <rect x="145.1238" width="150" height="30" y="174.448" clip-path="url(#clipPath2)" stroke="none"/>
    </g>
    <g text-rendering="geometricPrecision" stroke-miterlimit="1.45" shape-rendering="geometricPrecision" transform="matrix(1,0,0,1,-55,-53)" stroke-linecap="butt">
      <rect fill="none" x="145.1238" width="150" height="30" y="174.448" clip-path="url(#clipPath2)"/>
      <text x="154.7888" xml:space="preserve" y="193.9832" clip-path="url(#clipPath2)" font-family="sans-serif" stroke="none">Identifier(Top,_io_q_T)</text>
    </g>
    <g fill="white" text-rendering="geometricPrecision" shape-rendering="geometricPrecision" transform="matrix(1,0,0,1,-55,-53)" stroke="white">
      <rect x="145.1238" width="150" height="30" y="114.448" clip-path="url(#clipPath2)" stroke="none"/>
    </g>
    <g text-rendering="geometricPrecision" stroke-miterlimit="1.45" shape-rendering="geometricPrecision" transform="matrix(1,0,0,1,-55,-53)" stroke-linecap="butt">
      <rect fill="none" x="145.1238" width="150" height="30" y="114.448" clip-path="url(#clipPath2)"/>
      <text x="209.3103" xml:space="preserve" y="133.9832" clip-path="url(#clipPath2)" font-family="sans-serif" stroke="none">and</text>
      <path fill="none" d="M400.1238 144.448 L400.1238 166.448" clip-path="url(#clipPath2)"/>
      <path d="M400.1238 174.448 L405.1238 162.448 L400.1238 165.448 L395.1238 162.448 Z" clip-path="url(#clipPath2)" stroke="none"/>
      <path fill="none" d="M400.1238 204.448 L400.1238 226.448" clip-path="url(#clipPath2)"/>
      <path d="M400.1238 234.448 L405.1238 222.448 L400.1238 225.448 L395.1238 222.448 Z" clip-path="url(#clipPath2)" stroke="none"/>
      <path fill="none" d="M580.1238 144.448 L580.1238 226.448" clip-path="url(#clipPath2)"/>
      <path d="M580.1238 234.448 L585.1238 222.448 L580.1238 225.448 L575.1238 222.448 Z" clip-path="url(#clipPath2)" stroke="none"/>
      <path fill="none" d="M205.1228 68.6066 L227.1471 68.7719" clip-path="url(#clipPath2)"/>
      <path d="M235.1468 68.8319 L223.1847 63.742 L226.1471 68.7644 L223.1096 73.7417 Z" clip-path="url(#clipPath2)" stroke="none"/>
      <path fill="none" d="M235.1248 68.9384 L213.1005 68.7731" clip-path="url(#clipPath2)"/>
      <path d="M205.1007 68.713 L217.0629 73.803 L214.1005 68.7806 L217.1379 63.8032 Z" clip-path="url(#clipPath2)" stroke="none"/>
      <path fill="none" d="M220.1238 204.448 L220.1238 226.448" clip-path="url(#clipPath2)"/>
      <path d="M220.1238 234.448 L225.1238 222.448 L220.1238 225.448 L215.1238 222.448 Z" clip-path="url(#clipPath2)" stroke="none"/>
      <path fill="none" d="M152.1283 83.0969 L191.509 109.9419" clip-path="url(#clipPath2)"/>
      <path d="M198.1193 114.448 L191.0202 103.5575 L190.6827 109.3787 L185.3876 111.8203 Z" clip-path="url(#clipPath2)" stroke="none"/>
      <text x="77.8959" xml:space="preserve" y="103.3076" clip-path="url(#clipPath2)" font-family="sans-serif" stroke="none">LeftArgument</text>
      <path fill="none" d="M287.6238 84.448 L249.2802 110.0104" clip-path="url(#clipPath2)"/>
      <path d="M242.6238 114.448 L255.3819 111.9519 L250.1122 109.4557 L249.8349 103.6313 Z" clip-path="url(#clipPath2)" stroke="none"/>
      <text x="282.7234" xml:space="preserve" y="103.9832" clip-path="url(#clipPath2)" font-family="sans-serif" stroke="none">RightArgument</text>
      <path fill="none" d="M220.1238 144.448 L220.1238 166.448" clip-path="url(#clipPath2)"/>
      <path d="M220.1238 174.448 L225.1238 162.448 L220.1238 165.448 L215.1238 162.448 Z" clip-path="url(#clipPath2)" stroke="none"/>
    </g>
  </g>
</svg>
