<?xml version="1.0" encoding="utf-8" standalone="no"?>
<!DOCTYPE svg PUBLIC "-//W3C//DTD SVG 1.1//EN"
  "http://www.w3.org/Graphics/SVG/1.1/DTD/svg11.dtd">
<svg xmlns:xlink="http://www.w3.org/1999/xlink" width="460.8pt" height="345.6pt" viewBox="0 0 460.8 345.6" xmlns="http://www.w3.org/2000/svg" version="1.1">
 <metadata>
  <rdf:RDF xmlns:dc="http://purl.org/dc/elements/1.1/" xmlns:cc="http://creativecommons.org/ns#" xmlns:rdf="http://www.w3.org/1999/02/22-rdf-syntax-ns#">
   <cc:Work>
    <dc:type rdf:resource="http://purl.org/dc/dcmitype/StillImage"/>
    <dc:date>2023-05-17T14:12:07.340226</dc:date>
    <dc:format>image/svg+xml</dc:format>
    <dc:creator>
     <cc:Agent>
      <dc:title>Matplotlib v3.5.0, https://matplotlib.org/</dc:title>
     </cc:Agent>
    </dc:creator>
   </cc:Work>
  </rdf:RDF>
 </metadata>
 <defs>
  <style type="text/css">*{stroke-linejoin: round; stroke-linecap: butt}</style>
 </defs>
 <g id="figure_1">
  <g id="patch_1">
   <path d="M 0 345.6 
L 460.8 345.6 
L 460.8 0 
L 0 0 
z
" style="fill: #ffffff"/>
  </g>
  <g id="axes_1">
   <g id="patch_2">
    <path d="M 57.6 307.584 
L 414.72 307.584 
L 414.72 41.472 
L 57.6 41.472 
z
" style="fill: #ffffff"/>
   </g>
   <g id="matplotlib.axis_1">
    <g id="xtick_1">
     <g id="line2d_1">
      <defs>
       <path id="m26032dd7b2" d="M 0 0 
L 0 3.5 
" style="stroke: #000000; stroke-width: 0.8"/>
      </defs>
      <g>
       <use xlink:href="#m26032dd7b2" x="73.832727" y="307.584" style="stroke: #000000; stroke-width: 0.8"/>
      </g>
     </g>
     <g id="text_1">
      <!-- 0 -->
      <g transform="translate(70.651477 322.182437)scale(0.1 -0.1)">
       <defs>
        <path id="DejaVuSans-30" d="M 2034 4250 
Q 1547 4250 1301 3770 
Q 1056 3291 1056 2328 
Q 1056 1369 1301 889 
Q 1547 409 2034 409 
Q 2525 409 2770 889 
Q 3016 1369 3016 2328 
Q 3016 3291 2770 3770 
Q 2525 4250 2034 4250 
z
M 2034 4750 
Q 2819 4750 3233 4129 
Q 3647 3509 3647 2328 
Q 3647 1150 3233 529 
Q 2819 -91 2034 -91 
Q 1250 -91 836 529 
Q 422 1150 422 2328 
Q 422 3509 836 4129 
Q 1250 4750 2034 4750 
z
" transform="scale(0.015625)"/>
       </defs>
       <use xlink:href="#DejaVuSans-30"/>
      </g>
     </g>
    </g>
    <g id="xtick_2">
     <g id="line2d_2">
      <g>
       <use xlink:href="#m26032dd7b2" x="114.434847" y="307.584" style="stroke: #000000; stroke-width: 0.8"/>
      </g>
     </g>
     <g id="text_2">
      <!-- 250 -->
      <g transform="translate(104.891097 322.182437)scale(0.1 -0.1)">
       <defs>
        <path id="DejaVuSans-32" d="M 1228 531 
L 3431 531 
L 3431 0 
L 469 0 
L 469 531 
Q 828 903 1448 1529 
Q 2069 2156 2228 2338 
Q 2531 2678 2651 2914 
Q 2772 3150 2772 3378 
Q 2772 3750 2511 3984 
Q 2250 4219 1831 4219 
Q 1534 4219 1204 4116 
Q 875 4013 500 3803 
L 500 4441 
Q 881 4594 1212 4672 
Q 1544 4750 1819 4750 
Q 2544 4750 2975 4387 
Q 3406 4025 3406 3419 
Q 3406 3131 3298 2873 
Q 3191 2616 2906 2266 
Q 2828 2175 2409 1742 
Q 1991 1309 1228 531 
z
" transform="scale(0.015625)"/>
        <path id="DejaVuSans-35" d="M 691 4666 
L 3169 4666 
L 3169 4134 
L 1269 4134 
L 1269 2991 
Q 1406 3038 1543 3061 
Q 1681 3084 1819 3084 
Q 2600 3084 3056 2656 
Q 3513 2228 3513 1497 
Q 3513 744 3044 326 
Q 2575 -91 1722 -91 
Q 1428 -91 1123 -41 
Q 819 9 494 109 
L 494 744 
Q 775 591 1075 516 
Q 1375 441 1709 441 
Q 2250 441 2565 725 
Q 2881 1009 2881 1497 
Q 2881 1984 2565 2268 
Q 2250 2553 1709 2553 
Q 1456 2553 1204 2497 
Q 953 2441 691 2322 
L 691 4666 
z
" transform="scale(0.015625)"/>
       </defs>
       <use xlink:href="#DejaVuSans-32"/>
       <use xlink:href="#DejaVuSans-35" x="63.623047"/>
       <use xlink:href="#DejaVuSans-30" x="127.246094"/>
      </g>
     </g>
    </g>
    <g id="xtick_3">
     <g id="line2d_3">
      <g>
       <use xlink:href="#m26032dd7b2" x="155.036966" y="307.584" style="stroke: #000000; stroke-width: 0.8"/>
      </g>
     </g>
     <g id="text_3">
      <!-- 500 -->
      <g transform="translate(145.493216 322.182437)scale(0.1 -0.1)">
       <use xlink:href="#DejaVuSans-35"/>
       <use xlink:href="#DejaVuSans-30" x="63.623047"/>
       <use xlink:href="#DejaVuSans-30" x="127.246094"/>
      </g>
     </g>
    </g>
    <g id="xtick_4">
     <g id="line2d_4">
      <g>
       <use xlink:href="#m26032dd7b2" x="195.639085" y="307.584" style="stroke: #000000; stroke-width: 0.8"/>
      </g>
     </g>
     <g id="text_4">
      <!-- 750 -->
      <g transform="translate(186.095335 322.182437)scale(0.1 -0.1)">
       <defs>
        <path id="DejaVuSans-37" d="M 525 4666 
L 3525 4666 
L 3525 4397 
L 1831 0 
L 1172 0 
L 2766 4134 
L 525 4134 
L 525 4666 
z
" transform="scale(0.015625)"/>
       </defs>
       <use xlink:href="#DejaVuSans-37"/>
       <use xlink:href="#DejaVuSans-35" x="63.623047"/>
       <use xlink:href="#DejaVuSans-30" x="127.246094"/>
      </g>
     </g>
    </g>
    <g id="xtick_5">
     <g id="line2d_5">
      <g>
       <use xlink:href="#m26032dd7b2" x="236.241204" y="307.584" style="stroke: #000000; stroke-width: 0.8"/>
      </g>
     </g>
     <g id="text_5">
      <!-- 1000 -->
      <g transform="translate(223.516204 322.182437)scale(0.1 -0.1)">
       <defs>
        <path id="DejaVuSans-31" d="M 794 531 
L 1825 531 
L 1825 4091 
L 703 3866 
L 703 4441 
L 1819 4666 
L 2450 4666 
L 2450 531 
L 3481 531 
L 3481 0 
L 794 0 
L 794 531 
z
" transform="scale(0.015625)"/>
       </defs>
       <use xlink:href="#DejaVuSans-31"/>
       <use xlink:href="#DejaVuSans-30" x="63.623047"/>
       <use xlink:href="#DejaVuSans-30" x="127.246094"/>
       <use xlink:href="#DejaVuSans-30" x="190.869141"/>
      </g>
     </g>
    </g>
    <g id="xtick_6">
     <g id="line2d_6">
      <g>
       <use xlink:href="#m26032dd7b2" x="276.843323" y="307.584" style="stroke: #000000; stroke-width: 0.8"/>
      </g>
     </g>
     <g id="text_6">
      <!-- 1250 -->
      <g transform="translate(264.118323 322.182437)scale(0.1 -0.1)">
       <use xlink:href="#DejaVuSans-31"/>
       <use xlink:href="#DejaVuSans-32" x="63.623047"/>
       <use xlink:href="#DejaVuSans-35" x="127.246094"/>
       <use xlink:href="#DejaVuSans-30" x="190.869141"/>
      </g>
     </g>
    </g>
    <g id="xtick_7">
     <g id="line2d_7">
      <g>
       <use xlink:href="#m26032dd7b2" x="317.445443" y="307.584" style="stroke: #000000; stroke-width: 0.8"/>
      </g>
     </g>
     <g id="text_7">
      <!-- 1500 -->
      <g transform="translate(304.720443 322.182437)scale(0.1 -0.1)">
       <use xlink:href="#DejaVuSans-31"/>
       <use xlink:href="#DejaVuSans-35" x="63.623047"/>
       <use xlink:href="#DejaVuSans-30" x="127.246094"/>
       <use xlink:href="#DejaVuSans-30" x="190.869141"/>
      </g>
     </g>
    </g>
    <g id="xtick_8">
     <g id="line2d_8">
      <g>
       <use xlink:href="#m26032dd7b2" x="358.047562" y="307.584" style="stroke: #000000; stroke-width: 0.8"/>
      </g>
     </g>
     <g id="text_8">
      <!-- 1750 -->
      <g transform="translate(345.322562 322.182437)scale(0.1 -0.1)">
       <use xlink:href="#DejaVuSans-31"/>
       <use xlink:href="#DejaVuSans-37" x="63.623047"/>
       <use xlink:href="#DejaVuSans-35" x="127.246094"/>
       <use xlink:href="#DejaVuSans-30" x="190.869141"/>
      </g>
     </g>
    </g>
    <g id="xtick_9">
     <g id="line2d_9">
      <g>
       <use xlink:href="#m26032dd7b2" x="398.649681" y="307.584" style="stroke: #000000; stroke-width: 0.8"/>
      </g>
     </g>
     <g id="text_9">
      <!-- 2000 -->
      <g transform="translate(385.924681 322.182437)scale(0.1 -0.1)">
       <use xlink:href="#DejaVuSans-32"/>
       <use xlink:href="#DejaVuSans-30" x="63.623047"/>
       <use xlink:href="#DejaVuSans-30" x="127.246094"/>
       <use xlink:href="#DejaVuSans-30" x="190.869141"/>
      </g>
     </g>
    </g>
    <g id="text_10">
     <!-- Number of Iterations -->
     <g transform="translate(184.263125 335.860562)scale(0.1 -0.1)">
      <defs>
       <path id="DejaVuSans-4e" d="M 628 4666 
L 1478 4666 
L 3547 763 
L 3547 4666 
L 4159 4666 
L 4159 0 
L 3309 0 
L 1241 3903 
L 1241 0 
L 628 0 
L 628 4666 
z
" transform="scale(0.015625)"/>
       <path id="DejaVuSans-75" d="M 544 1381 
L 544 3500 
L 1119 3500 
L 1119 1403 
Q 1119 906 1312 657 
Q 1506 409 1894 409 
Q 2359 409 2629 706 
Q 2900 1003 2900 1516 
L 2900 3500 
L 3475 3500 
L 3475 0 
L 2900 0 
L 2900 538 
Q 2691 219 2414 64 
Q 2138 -91 1772 -91 
Q 1169 -91 856 284 
Q 544 659 544 1381 
z
M 1991 3584 
L 1991 3584 
z
" transform="scale(0.015625)"/>
       <path id="DejaVuSans-6d" d="M 3328 2828 
Q 3544 3216 3844 3400 
Q 4144 3584 4550 3584 
Q 5097 3584 5394 3201 
Q 5691 2819 5691 2113 
L 5691 0 
L 5113 0 
L 5113 2094 
Q 5113 2597 4934 2840 
Q 4756 3084 4391 3084 
Q 3944 3084 3684 2787 
Q 3425 2491 3425 1978 
L 3425 0 
L 2847 0 
L 2847 2094 
Q 2847 2600 2669 2842 
Q 2491 3084 2119 3084 
Q 1678 3084 1418 2786 
Q 1159 2488 1159 1978 
L 1159 0 
L 581 0 
L 581 3500 
L 1159 3500 
L 1159 2956 
Q 1356 3278 1631 3431 
Q 1906 3584 2284 3584 
Q 2666 3584 2933 3390 
Q 3200 3197 3328 2828 
z
" transform="scale(0.015625)"/>
       <path id="DejaVuSans-62" d="M 3116 1747 
Q 3116 2381 2855 2742 
Q 2594 3103 2138 3103 
Q 1681 3103 1420 2742 
Q 1159 2381 1159 1747 
Q 1159 1113 1420 752 
Q 1681 391 2138 391 
Q 2594 391 2855 752 
Q 3116 1113 3116 1747 
z
M 1159 2969 
Q 1341 3281 1617 3432 
Q 1894 3584 2278 3584 
Q 2916 3584 3314 3078 
Q 3713 2572 3713 1747 
Q 3713 922 3314 415 
Q 2916 -91 2278 -91 
Q 1894 -91 1617 61 
Q 1341 213 1159 525 
L 1159 0 
L 581 0 
L 581 4863 
L 1159 4863 
L 1159 2969 
z
" transform="scale(0.015625)"/>
       <path id="DejaVuSans-65" d="M 3597 1894 
L 3597 1613 
L 953 1613 
Q 991 1019 1311 708 
Q 1631 397 2203 397 
Q 2534 397 2845 478 
Q 3156 559 3463 722 
L 3463 178 
Q 3153 47 2828 -22 
Q 2503 -91 2169 -91 
Q 1331 -91 842 396 
Q 353 884 353 1716 
Q 353 2575 817 3079 
Q 1281 3584 2069 3584 
Q 2775 3584 3186 3129 
Q 3597 2675 3597 1894 
z
M 3022 2063 
Q 3016 2534 2758 2815 
Q 2500 3097 2075 3097 
Q 1594 3097 1305 2825 
Q 1016 2553 972 2059 
L 3022 2063 
z
" transform="scale(0.015625)"/>
       <path id="DejaVuSans-72" d="M 2631 2963 
Q 2534 3019 2420 3045 
Q 2306 3072 2169 3072 
Q 1681 3072 1420 2755 
Q 1159 2438 1159 1844 
L 1159 0 
L 581 0 
L 581 3500 
L 1159 3500 
L 1159 2956 
Q 1341 3275 1631 3429 
Q 1922 3584 2338 3584 
Q 2397 3584 2469 3576 
Q 2541 3569 2628 3553 
L 2631 2963 
z
" transform="scale(0.015625)"/>
       <path id="DejaVuSans-20" transform="scale(0.015625)"/>
       <path id="DejaVuSans-6f" d="M 1959 3097 
Q 1497 3097 1228 2736 
Q 959 2375 959 1747 
Q 959 1119 1226 758 
Q 1494 397 1959 397 
Q 2419 397 2687 759 
Q 2956 1122 2956 1747 
Q 2956 2369 2687 2733 
Q 2419 3097 1959 3097 
z
M 1959 3584 
Q 2709 3584 3137 3096 
Q 3566 2609 3566 1747 
Q 3566 888 3137 398 
Q 2709 -91 1959 -91 
Q 1206 -91 779 398 
Q 353 888 353 1747 
Q 353 2609 779 3096 
Q 1206 3584 1959 3584 
z
" transform="scale(0.015625)"/>
       <path id="DejaVuSans-66" d="M 2375 4863 
L 2375 4384 
L 1825 4384 
Q 1516 4384 1395 4259 
Q 1275 4134 1275 3809 
L 1275 3500 
L 2222 3500 
L 2222 3053 
L 1275 3053 
L 1275 0 
L 697 0 
L 697 3053 
L 147 3053 
L 147 3500 
L 697 3500 
L 697 3744 
Q 697 4328 969 4595 
Q 1241 4863 1831 4863 
L 2375 4863 
z
" transform="scale(0.015625)"/>
       <path id="DejaVuSans-49" d="M 628 4666 
L 1259 4666 
L 1259 0 
L 628 0 
L 628 4666 
z
" transform="scale(0.015625)"/>
       <path id="DejaVuSans-74" d="M 1172 4494 
L 1172 3500 
L 2356 3500 
L 2356 3053 
L 1172 3053 
L 1172 1153 
Q 1172 725 1289 603 
Q 1406 481 1766 481 
L 2356 481 
L 2356 0 
L 1766 0 
Q 1100 0 847 248 
Q 594 497 594 1153 
L 594 3053 
L 172 3053 
L 172 3500 
L 594 3500 
L 594 4494 
L 1172 4494 
z
" transform="scale(0.015625)"/>
       <path id="DejaVuSans-61" d="M 2194 1759 
Q 1497 1759 1228 1600 
Q 959 1441 959 1056 
Q 959 750 1161 570 
Q 1363 391 1709 391 
Q 2188 391 2477 730 
Q 2766 1069 2766 1631 
L 2766 1759 
L 2194 1759 
z
M 3341 1997 
L 3341 0 
L 2766 0 
L 2766 531 
Q 2569 213 2275 61 
Q 1981 -91 1556 -91 
Q 1019 -91 701 211 
Q 384 513 384 1019 
Q 384 1609 779 1909 
Q 1175 2209 1959 2209 
L 2766 2209 
L 2766 2266 
Q 2766 2663 2505 2880 
Q 2244 3097 1772 3097 
Q 1472 3097 1187 3025 
Q 903 2953 641 2809 
L 641 3341 
Q 956 3463 1253 3523 
Q 1550 3584 1831 3584 
Q 2591 3584 2966 3190 
Q 3341 2797 3341 1997 
z
" transform="scale(0.015625)"/>
       <path id="DejaVuSans-69" d="M 603 3500 
L 1178 3500 
L 1178 0 
L 603 0 
L 603 3500 
z
M 603 4863 
L 1178 4863 
L 1178 4134 
L 603 4134 
L 603 4863 
z
" transform="scale(0.015625)"/>
       <path id="DejaVuSans-6e" d="M 3513 2113 
L 3513 0 
L 2938 0 
L 2938 2094 
Q 2938 2591 2744 2837 
Q 2550 3084 2163 3084 
Q 1697 3084 1428 2787 
Q 1159 2491 1159 1978 
L 1159 0 
L 581 0 
L 581 3500 
L 1159 3500 
L 1159 2956 
Q 1366 3272 1645 3428 
Q 1925 3584 2291 3584 
Q 2894 3584 3203 3211 
Q 3513 2838 3513 2113 
z
" transform="scale(0.015625)"/>
       <path id="DejaVuSans-73" d="M 2834 3397 
L 2834 2853 
Q 2591 2978 2328 3040 
Q 2066 3103 1784 3103 
Q 1356 3103 1142 2972 
Q 928 2841 928 2578 
Q 928 2378 1081 2264 
Q 1234 2150 1697 2047 
L 1894 2003 
Q 2506 1872 2764 1633 
Q 3022 1394 3022 966 
Q 3022 478 2636 193 
Q 2250 -91 1575 -91 
Q 1294 -91 989 -36 
Q 684 19 347 128 
L 347 722 
Q 666 556 975 473 
Q 1284 391 1588 391 
Q 1994 391 2212 530 
Q 2431 669 2431 922 
Q 2431 1156 2273 1281 
Q 2116 1406 1581 1522 
L 1381 1569 
Q 847 1681 609 1914 
Q 372 2147 372 2553 
Q 372 3047 722 3315 
Q 1072 3584 1716 3584 
Q 2034 3584 2315 3537 
Q 2597 3491 2834 3397 
z
" transform="scale(0.015625)"/>
      </defs>
      <use xlink:href="#DejaVuSans-4e"/>
      <use xlink:href="#DejaVuSans-75" x="74.804688"/>
      <use xlink:href="#DejaVuSans-6d" x="138.183594"/>
      <use xlink:href="#DejaVuSans-62" x="235.595703"/>
      <use xlink:href="#DejaVuSans-65" x="299.072266"/>
      <use xlink:href="#DejaVuSans-72" x="360.595703"/>
      <use xlink:href="#DejaVuSans-20" x="401.708984"/>
      <use xlink:href="#DejaVuSans-6f" x="433.496094"/>
      <use xlink:href="#DejaVuSans-66" x="494.677734"/>
      <use xlink:href="#DejaVuSans-20" x="529.882812"/>
      <use xlink:href="#DejaVuSans-49" x="561.669922"/>
      <use xlink:href="#DejaVuSans-74" x="591.162109"/>
      <use xlink:href="#DejaVuSans-65" x="630.371094"/>
      <use xlink:href="#DejaVuSans-72" x="691.894531"/>
      <use xlink:href="#DejaVuSans-61" x="733.007812"/>
      <use xlink:href="#DejaVuSans-74" x="794.287109"/>
      <use xlink:href="#DejaVuSans-69" x="833.496094"/>
      <use xlink:href="#DejaVuSans-6f" x="861.279297"/>
      <use xlink:href="#DejaVuSans-6e" x="922.460938"/>
      <use xlink:href="#DejaVuSans-73" x="985.839844"/>
     </g>
    </g>
   </g>
   <g id="matplotlib.axis_2">
    <g id="ytick_1">
     <g id="line2d_10">
      <defs>
       <path id="m4cfa826701" d="M 0 0 
L -3.5 0 
" style="stroke: #000000; stroke-width: 0.8"/>
      </defs>
      <g>
       <use xlink:href="#m4cfa826701" x="57.6" y="307.584" style="stroke: #000000; stroke-width: 0.8"/>
      </g>
     </g>
     <g id="text_11">
      <!-- $\mathdefault{10^{-7}}$ -->
      <g transform="translate(27.1 311.383219)scale(0.1 -0.1)">
       <defs>
        <path id="DejaVuSans-2212" d="M 678 2272 
L 4684 2272 
L 4684 1741 
L 678 1741 
L 678 2272 
z
" transform="scale(0.015625)"/>
       </defs>
       <use xlink:href="#DejaVuSans-31" transform="translate(0 0.684375)"/>
       <use xlink:href="#DejaVuSans-30" transform="translate(63.623047 0.684375)"/>
       <use xlink:href="#DejaVuSans-2212" transform="translate(128.203125 38.965625)scale(0.7)"/>
       <use xlink:href="#DejaVuSans-37" transform="translate(186.855469 38.965625)scale(0.7)"/>
      </g>
     </g>
    </g>
    <g id="ytick_2">
     <g id="line2d_11">
      <g>
       <use xlink:href="#m4cfa826701" x="57.6" y="273.682158" style="stroke: #000000; stroke-width: 0.8"/>
      </g>
     </g>
     <g id="text_12">
      <!-- $\mathdefault{10^{-5}}$ -->
      <g transform="translate(27.1 277.481377)scale(0.1 -0.1)">
       <use xlink:href="#DejaVuSans-31" transform="translate(0 0.684375)"/>
       <use xlink:href="#DejaVuSans-30" transform="translate(63.623047 0.684375)"/>
       <use xlink:href="#DejaVuSans-2212" transform="translate(128.203125 38.965625)scale(0.7)"/>
       <use xlink:href="#DejaVuSans-35" transform="translate(186.855469 38.965625)scale(0.7)"/>
      </g>
     </g>
    </g>
    <g id="ytick_3">
     <g id="line2d_12">
      <g>
       <use xlink:href="#m4cfa826701" x="57.6" y="239.780316" style="stroke: #000000; stroke-width: 0.8"/>
      </g>
     </g>
     <g id="text_13">
      <!-- $\mathdefault{10^{-3}}$ -->
      <g transform="translate(27.1 243.579535)scale(0.1 -0.1)">
       <defs>
        <path id="DejaVuSans-33" d="M 2597 2516 
Q 3050 2419 3304 2112 
Q 3559 1806 3559 1356 
Q 3559 666 3084 287 
Q 2609 -91 1734 -91 
Q 1441 -91 1130 -33 
Q 819 25 488 141 
L 488 750 
Q 750 597 1062 519 
Q 1375 441 1716 441 
Q 2309 441 2620 675 
Q 2931 909 2931 1356 
Q 2931 1769 2642 2001 
Q 2353 2234 1838 2234 
L 1294 2234 
L 1294 2753 
L 1863 2753 
Q 2328 2753 2575 2939 
Q 2822 3125 2822 3475 
Q 2822 3834 2567 4026 
Q 2313 4219 1838 4219 
Q 1578 4219 1281 4162 
Q 984 4106 628 3988 
L 628 4550 
Q 988 4650 1302 4700 
Q 1616 4750 1894 4750 
Q 2613 4750 3031 4423 
Q 3450 4097 3450 3541 
Q 3450 3153 3228 2886 
Q 3006 2619 2597 2516 
z
" transform="scale(0.015625)"/>
       </defs>
       <use xlink:href="#DejaVuSans-31" transform="translate(0 0.765625)"/>
       <use xlink:href="#DejaVuSans-30" transform="translate(63.623047 0.765625)"/>
       <use xlink:href="#DejaVuSans-2212" transform="translate(128.203125 39.046875)scale(0.7)"/>
       <use xlink:href="#DejaVuSans-33" transform="translate(186.855469 39.046875)scale(0.7)"/>
      </g>
     </g>
    </g>
    <g id="ytick_4">
     <g id="line2d_13">
      <g>
       <use xlink:href="#m4cfa826701" x="57.6" y="205.878474" style="stroke: #000000; stroke-width: 0.8"/>
      </g>
     </g>
     <g id="text_14">
      <!-- $\mathdefault{10^{-1}}$ -->
      <g transform="translate(27.1 209.677693)scale(0.1 -0.1)">
       <use xlink:href="#DejaVuSans-31" transform="translate(0 0.684375)"/>
       <use xlink:href="#DejaVuSans-30" transform="translate(63.623047 0.684375)"/>
       <use xlink:href="#DejaVuSans-2212" transform="translate(128.203125 38.965625)scale(0.7)"/>
       <use xlink:href="#DejaVuSans-31" transform="translate(186.855469 38.965625)scale(0.7)"/>
      </g>
     </g>
    </g>
    <g id="ytick_5">
     <g id="line2d_14">
      <g>
       <use xlink:href="#m4cfa826701" x="57.6" y="171.976632" style="stroke: #000000; stroke-width: 0.8"/>
      </g>
     </g>
     <g id="text_15">
      <!-- $\mathdefault{10^{1}}$ -->
      <g transform="translate(33 175.775851)scale(0.1 -0.1)">
       <use xlink:href="#DejaVuSans-31" transform="translate(0 0.684375)"/>
       <use xlink:href="#DejaVuSans-30" transform="translate(63.623047 0.684375)"/>
       <use xlink:href="#DejaVuSans-31" transform="translate(128.203125 38.965625)scale(0.7)"/>
      </g>
     </g>
    </g>
    <g id="ytick_6">
     <g id="line2d_15">
      <g>
       <use xlink:href="#m4cfa826701" x="57.6" y="138.07479" style="stroke: #000000; stroke-width: 0.8"/>
      </g>
     </g>
     <g id="text_16">
      <!-- $\mathdefault{10^{3}}$ -->
      <g transform="translate(33 141.874009)scale(0.1 -0.1)">
       <use xlink:href="#DejaVuSans-31" transform="translate(0 0.765625)"/>
       <use xlink:href="#DejaVuSans-30" transform="translate(63.623047 0.765625)"/>
       <use xlink:href="#DejaVuSans-33" transform="translate(128.203125 39.046875)scale(0.7)"/>
      </g>
     </g>
    </g>
    <g id="ytick_7">
     <g id="line2d_16">
      <g>
       <use xlink:href="#m4cfa826701" x="57.6" y="104.172948" style="stroke: #000000; stroke-width: 0.8"/>
      </g>
     </g>
     <g id="text_17">
      <!-- $\mathdefault{10^{5}}$ -->
      <g transform="translate(33 107.972167)scale(0.1 -0.1)">
       <use xlink:href="#DejaVuSans-31" transform="translate(0 0.684375)"/>
       <use xlink:href="#DejaVuSans-30" transform="translate(63.623047 0.684375)"/>
       <use xlink:href="#DejaVuSans-35" transform="translate(128.203125 38.965625)scale(0.7)"/>
      </g>
     </g>
    </g>
    <g id="ytick_8">
     <g id="line2d_17">
      <g>
       <use xlink:href="#m4cfa826701" x="57.6" y="70.271106" style="stroke: #000000; stroke-width: 0.8"/>
      </g>
     </g>
     <g id="text_18">
      <!-- $\mathdefault{10^{7}}$ -->
      <g transform="translate(33 74.070325)scale(0.1 -0.1)">
       <use xlink:href="#DejaVuSans-31" transform="translate(0 0.684375)"/>
       <use xlink:href="#DejaVuSans-30" transform="translate(63.623047 0.684375)"/>
       <use xlink:href="#DejaVuSans-37" transform="translate(128.203125 38.965625)scale(0.7)"/>
      </g>
     </g>
    </g>
    <g id="text_19">
     <!-- Metric $\left[\frac{V}{(1.5)^{L}}\right]$ -->
     <g transform="translate(17.1 205.928)rotate(-90)scale(0.1 -0.1)">
      <defs>
       <path id="DejaVuSans-4d" d="M 628 4666 
L 1569 4666 
L 2759 1491 
L 3956 4666 
L 4897 4666 
L 4897 0 
L 4281 0 
L 4281 4097 
L 3078 897 
L 2444 897 
L 1241 4097 
L 1241 0 
L 628 0 
L 628 4666 
z
" transform="scale(0.015625)"/>
       <path id="DejaVuSans-63" d="M 3122 3366 
L 3122 2828 
Q 2878 2963 2633 3030 
Q 2388 3097 2138 3097 
Q 1578 3097 1268 2742 
Q 959 2388 959 1747 
Q 959 1106 1268 751 
Q 1578 397 2138 397 
Q 2388 397 2633 464 
Q 2878 531 3122 666 
L 3122 134 
Q 2881 22 2623 -34 
Q 2366 -91 2075 -91 
Q 1284 -91 818 406 
Q 353 903 353 1747 
Q 353 2603 823 3093 
Q 1294 3584 2113 3584 
Q 2378 3584 2631 3529 
Q 2884 3475 3122 3366 
z
" transform="scale(0.015625)"/>
       <path id="STIXSizeTwoSym-Regular-5b" d="M 2701 -1786 
L 1216 -1786 
L 1216 10022 
L 2701 10022 
L 2701 9766 
L 1702 9766 
L 1702 -1530 
L 2701 -1530 
L 2701 -1786 
z
" transform="scale(0.015625)"/>
       <path id="DejaVuSans-Oblique-56" d="M 1319 0 
L 500 4666 
L 1119 4666 
L 1797 653 
L 4063 4666 
L 4750 4666 
L 2053 0 
L 1319 0 
z
" transform="scale(0.015625)"/>
       <path id="DejaVuSans-28" d="M 1984 4856 
Q 1566 4138 1362 3434 
Q 1159 2731 1159 2009 
Q 1159 1288 1364 580 
Q 1569 -128 1984 -844 
L 1484 -844 
Q 1016 -109 783 600 
Q 550 1309 550 2009 
Q 550 2706 781 3412 
Q 1013 4119 1484 4856 
L 1984 4856 
z
" transform="scale(0.015625)"/>
       <path id="DejaVuSans-2e" d="M 684 794 
L 1344 794 
L 1344 0 
L 684 0 
L 684 794 
z
" transform="scale(0.015625)"/>
       <path id="DejaVuSans-29" d="M 513 4856 
L 1013 4856 
Q 1481 4119 1714 3412 
Q 1947 2706 1947 2009 
Q 1947 1309 1714 600 
Q 1481 -109 1013 -844 
L 513 -844 
Q 928 -128 1133 580 
Q 1338 1288 1338 2009 
Q 1338 2731 1133 3434 
Q 928 4138 513 4856 
z
" transform="scale(0.015625)"/>
       <path id="DejaVuSans-Oblique-4c" d="M 1075 4666 
L 1709 4666 
L 909 525 
L 3181 525 
L 3078 0 
L 172 0 
L 1075 4666 
z
" transform="scale(0.015625)"/>
       <path id="STIXSizeTwoSym-Regular-5d" d="M 1722 -1786 
L 237 -1786 
L 237 -1530 
L 1235 -1530 
L 1235 9766 
L 237 9766 
L 237 10022 
L 1722 10022 
L 1722 -1786 
z
" transform="scale(0.015625)"/>
      </defs>
      <use xlink:href="#DejaVuSans-4d" transform="translate(0 0.16875)"/>
      <use xlink:href="#DejaVuSans-65" transform="translate(86.279297 0.16875)"/>
      <use xlink:href="#DejaVuSans-74" transform="translate(147.802734 0.16875)"/>
      <use xlink:href="#DejaVuSans-72" transform="translate(187.011719 0.16875)"/>
      <use xlink:href="#DejaVuSans-69" transform="translate(228.125 0.16875)"/>
      <use xlink:href="#DejaVuSans-63" transform="translate(255.908203 0.16875)"/>
      <use xlink:href="#DejaVuSans-20" transform="translate(310.888672 0.16875)"/>
      <use xlink:href="#STIXSizeTwoSym-Regular-5b" transform="translate(342.675781 -35.739688)scale(0.834887)"/>
      <use xlink:href="#DejaVuSans-Oblique-56" transform="translate(454.995102 43.965625)scale(0.7)"/>
      <use xlink:href="#DejaVuSans-28" transform="translate(380.995102 -49.805312)scale(0.7)"/>
      <use xlink:href="#DejaVuSans-31" transform="translate(408.304672 -49.805312)scale(0.7)"/>
      <use xlink:href="#DejaVuSans-2e" transform="translate(452.840805 -49.805312)scale(0.7)"/>
      <use xlink:href="#DejaVuSans-35" transform="translate(475.091782 -49.805312)scale(0.7)"/>
      <use xlink:href="#DejaVuSans-29" transform="translate(519.627914 -49.805312)scale(0.7)"/>
      <use xlink:href="#DejaVuSans-Oblique-4c" transform="translate(547.607407 -23.008437)scale(0.49)"/>
      <use xlink:href="#STIXSizeTwoSym-Regular-5d" transform="translate(589.320786 -35.739688)scale(0.834887)"/>
      <path d="M 380.995102 18.965625 
L 380.995102 25.215625 
L 576.820786 25.215625 
L 576.820786 18.965625 
L 380.995102 18.965625 
z
"/>
     </g>
    </g>
   </g>
   <g id="line2d_18">
    <path d="M 74.753855 346.6 
L 74.807178 285.060525 
L 84.22687 285.060525 
L 84.389278 284.877495 
L 85.688546 284.877495 
L 85.850955 281.484141 
L 87.962265 281.484141 
L 88.124673 278.645612 
L 88.287082 278.645612 
L 88.44949 277.001539 
L 88.611899 277.001539 
L 88.774307 275.439735 
L 89.58635 275.439735 
L 89.748758 256.561599 
L 92.996928 256.561599 
L 93.159336 256.285647 
L 94.945829 256.285647 
L 95.108238 252.293671 
L 95.270646 252.075928 
L 95.757872 252.075928 
L 95.92028 246.801421 
L 96.569914 246.801421 
L 96.732323 246.411976 
L 98.03159 246.411976 
L 98.193999 245.790048 
L 98.356407 245.790048 
L 98.518816 237.608542 
L 99.16845 237.608542 
L 99.330858 221.88407 
L 101.27976 221.88407 
L 101.442168 221.616342 
L 102.091802 221.616342 
L 102.254211 220.946996 
L 102.741436 220.946996 
L 102.903845 220.481525 
L 103.228662 220.481525 
L 103.39107 219.365951 
L 104.040704 219.365951 
L 104.203112 217.731272 
L 105.177563 217.731272 
L 105.339972 205.041259 
L 108.263324 205.041259 
L 108.425733 201.254328 
L 112.97317 201.254253 
L 113.135579 195.042394 
L 116.383748 195.042394 
L 116.546157 174.247756 
L 123.367313 174.247756 
L 123.529721 173.849729 
L 124.341764 173.849729 
L 124.666581 173.702196 
L 124.828989 173.112946 
L 124.991398 169.042773 
L 127.589933 169.042773 
L 127.752342 167.206319 
L 128.077159 167.206319 
L 128.239567 165.03614 
L 129.701243 165.03614 
L 129.863652 163.734449 
L 130.350877 163.734449 
L 130.513286 163.558864 
L 130.838103 163.558864 
L 131.000511 161.525172 
L 134.086272 161.525172 
L 134.248681 160.74954 
L 139.445752 160.74954 
L 139.60816 160.047896 
L 139.770569 160.047896 
L 140.095386 159.933404 
L 142.85633 159.933404 
L 143.018738 159.344154 
L 145.942091 159.344154 
L 146.1045 158.754904 
L 146.266908 158.754904 
L 146.429316 158.209344 
L 150.651937 158.209344 
L 150.814345 157.663784 
L 156.011417 157.663784 
L 156.173825 157.118224 
L 156.336234 143.53597 
L 161.695713 143.53597 
L 161.858122 142.99041 
L 162.182939 142.99041 
L 162.345347 140.551061 
L 167.38001 140.551061 
L 167.542418 139.961812 
L 170.62818 139.961812 
L 170.790588 139.370668 
L 174.363575 139.370668 
L 174.525983 138.825108 
L 174.688391 138.825108 
L 174.8508 138.25536 
L 179.885463 138.25536 
L 180.047871 137.7098 
L 187.843478 137.7098 
L 188.005887 137.451468 
L 189.79238 137.451468 
L 189.954788 137.16424 
L 192.878141 137.16424 
L 193.040549 136.905908 
L 193.527775 136.905908 
L 193.690183 136.638181 
L 194.664634 136.638181 
L 194.827043 136.379849 
L 202.947466 136.379849 
L 203.109875 136.102017 
L 210.743073 136.102017 
L 210.905482 135.575958 
L 228.445597 135.575958 
L 228.608006 135.317626 
L 235.916387 135.317626 
L 236.078796 135.059295 
L 245.011262 135.059295 
L 245.17367 134.800964 
L 248.097023 134.800964 
L 248.259432 130.957731 
L 258.653574 130.957731 
L 258.815983 129.065444 
L 259.140799 129.065444 
L 259.303208 127.81102 
L 265.799547 127.81102 
L 265.961956 125.974269 
L 268.235674 125.974269 
L 268.398083 124.826111 
L 275.706464 124.826111 
L 275.868873 123.645718 
L 291.135269 123.645718 
L 291.297678 109.320528 
L 292.10972 109.320528 
L 292.272129 106.025091 
L 302.666271 106.025091 
L 302.82868 104.844698 
L 308.675385 104.844698 
L 308.837793 104.156837 
L 313.385231 104.156837 
L 313.547639 103.543007 
L 320.043978 103.543007 
L 320.206387 103.242488 
L 322.480106 103.242488 
L 322.642514 102.408197 
L 326.540317 102.408197 
L 326.702726 102.149866 
L 350.089547 102.149866 
L 350.251955 101.057244 
L 398.487273 101.057244 
L 398.487273 101.057244 
" clip-path="url(#p4193637f2f)" style="fill: none; stroke: #1f77b4; stroke-width: 1.5; stroke-linecap: square"/>
   </g>
   <g id="line2d_19">
    <path d="M 74.148043 346.6 
L 74.157544 340.774251 
L 74.64477 340.774251 
L 74.807178 189.184442 
L 79.841841 189.184442 
L 80.004249 174.400045 
L 84.876504 174.400045 
L 85.038912 163.237598 
L 87.799856 163.237598 
L 87.962265 161.895403 
L 90.235983 161.895403 
L 90.398392 158.483143 
L 95.270646 158.483143 
L 95.433055 157.197429 
L 96.082689 157.197429 
L 96.732323 156.781829 
L 97.219548 156.781829 
L 97.381956 153.574206 
L 100.792534 153.574206 
L 100.954943 152.602598 
L 102.416619 152.602598 
L 102.579028 150.047314 
L 105.989606 150.047314 
L 106.152014 148.629593 
L 116.383748 148.629593 
L 116.546157 145.778334 
L 132.462187 145.778334 
L 132.624596 142.918106 
L 144.642823 142.918106 
L 144.805232 142.392047 
L 168.029644 142.392047 
L 168.192052 138.146998 
L 227.471146 138.146998 
L 227.795963 138.020719 
L 302.341454 138.020719 
L 302.503863 136.805452 
L 360.808506 136.805452 
L 360.970915 135.627193 
L 381.109566 135.627193 
L 381.271974 134.015828 
L 398.487273 134.015828 
L 398.487273 134.015828 
" clip-path="url(#p4193637f2f)" style="fill: none; stroke: #ff7f0e; stroke-width: 1.5; stroke-linecap: square"/>
   </g>
   <g id="line2d_20">
    <path d="M 74.222658 346.6 
L 74.319953 298.587499 
L 76.918488 298.587499 
L 77.080897 294.52334 
L 78.704982 294.52334 
L 78.86739 279.723784 
L 79.517024 279.723784 
L 79.679432 268.552588 
L 82.765194 268.552588 
L 82.927602 262.76859 
L 83.09001 262.76859 
L 83.252419 229.950337 
L 86.500588 229.950337 
L 86.662997 194.423381 
L 92.996928 194.423381 
L 93.159336 193.738078 
L 93.971378 193.738078 
L 94.133787 186.120165 
L 97.219548 186.120165 
L 97.381956 181.017734 
L 102.416619 181.017734 
L 102.579028 174.798299 
L 116.870974 174.798299 
L 117.033382 174.365989 
L 120.281552 174.365989 
L 120.44396 173.857093 
L 121.418411 173.857093 
L 121.58082 172.848349 
L 130.513286 172.848349 
L 130.838103 161.469399 
L 133.923864 161.469399 
L 134.086272 159.778131 
L 140.095386 159.778131 
L 140.420203 159.641746 
L 143.018738 159.641746 
L 143.181147 146.618841 
L 146.754133 146.618841 
L 146.916542 135.486937 
L 148.21581 135.486937 
L 148.378218 126.262048 
L 160.883671 126.262048 
L 161.046079 122.295505 
L 162.02053 122.295505 
L 162.182939 120.999366 
L 167.055193 120.999366 
L 167.217602 118.906543 
L 177.286927 118.906543 
L 177.449336 116.862704 
L 182.646407 116.862704 
L 182.808815 114.122895 
L 201.160973 114.122895 
L 201.323382 110.337774 
L 227.795963 110.337774 
L 227.958372 110.07645 
L 244.19922 110.07645 
L 244.686445 108.786751 
L 245.336079 108.786751 
L 245.498487 108.230882 
L 264.825096 108.230882 
L 264.987505 107.778526 
L 279.604268 107.778526 
L 279.766676 105.792843 
L 339.04577 105.792843 
L 339.208179 105.465603 
L 342.29394 105.465603 
L 342.456348 104.372981 
L 397.837639 104.372981 
L 398.000047 104.173459 
L 398.487273 104.173459 
L 398.487273 104.173459 
" clip-path="url(#p4193637f2f)" style="fill: none; stroke: #2ca02c; stroke-width: 1.5; stroke-linecap: square"/>
   </g>
   <g id="line2d_21">
    <path d="M 74.481591 346.6 
L 74.482361 266.626638 
L 75.294404 266.626638 
L 75.456812 264.149634 
L 78.380165 264.149634 
L 78.542573 258.538994 
L 79.679432 258.538994 
L 79.841841 253.944162 
L 80.004249 253.944162 
L 80.166658 253.344807 
L 83.252419 253.344807 
L 83.414827 249.976236 
L 83.577236 236.686097 
L 84.22687 236.686097 
L 84.389278 199.937033 
L 85.038912 199.937033 
L 85.201321 192.219606 
L 87.312631 192.219606 
L 87.475039 189.994153 
L 88.287082 189.994153 
L 88.44949 185.474156 
L 89.58635 185.474156 
L 89.748758 176.714672 
L 89.911166 174.11487 
L 91.048026 174.11487 
L 91.210434 168.531654 
L 95.433055 168.531654 
L 95.595463 163.105188 
L 96.407506 163.105188 
L 96.569914 161.674745 
L 97.219548 161.674745 
L 97.381956 142.937607 
L 124.991398 142.937607 
L 125.153806 137.417883 
L 128.564384 137.417883 
L 128.726792 133.79541 
L 132.462187 133.79541 
L 132.624596 124.192077 
L 162.345347 124.192077 
L 162.507756 119.094512 
L 224.547794 119.094512 
L 224.710202 118.39431 
L 228.770414 118.39431 
L 228.932823 117.6962 
L 250.695559 117.6962 
L 250.857967 116.886799 
L 251.020376 116.886799 
L 251.182784 113.575972 
L 276.843323 113.575972 
L 277.005732 109.627475 
L 326.377909 109.627475 
L 326.540317 105.093006 
L 327.027543 105.093006 
L 327.189951 104.601804 
L 373.638776 104.601804 
L 373.801184 99.568935 
L 398.487273 99.568935 
L 398.487273 99.568935 
" clip-path="url(#p4193637f2f)" style="fill: none; stroke: #d62728; stroke-width: 1.5; stroke-linecap: square"/>
   </g>
   <g id="line2d_22">
    <path d="M 74.904635 346.6 
L 74.969587 246.550294 
L 76.918488 246.550294 
L 77.080897 230.915071 
L 79.354615 230.915071 
L 79.517024 201.614025 
L 81.141109 201.614025 
L 81.303517 198.458151 
L 83.739644 198.458151 
L 83.902053 195.869297 
L 85.363729 195.869297 
L 85.526138 193.47086 
L 85.688546 193.47086 
L 85.850955 192.389276 
L 86.33818 192.389276 
L 86.500588 189.690843 
L 87.799856 189.690843 
L 87.962265 174.910884 
L 93.484153 174.910884 
L 93.646561 174.734772 
L 95.92028 174.734772 
L 96.082689 168.64728 
L 97.219548 168.64728 
L 97.381956 163.319005 
L 106.314423 163.319005 
L 106.476831 160.367971 
L 107.61369 160.367971 
L 107.776099 159.979464 
L 112.485945 159.979464 
L 112.648353 144.634146 
L 116.383748 144.634146 
L 116.546157 144.398034 
L 122.230453 144.398034 
L 122.392862 143.370192 
L 124.991398 143.370192 
L 125.153806 127.610764 
L 129.863652 127.610764 
L 130.02606 111.812359 
L 143.668372 111.812359 
L 143.830781 106.896572 
L 145.130049 106.896572 
L 145.292457 105.475409 
L 149.027852 105.475409 
L 149.190261 104.907499 
L 152.113613 104.907499 
L 152.276022 96.265235 
L 163.15739 96.265235 
L 163.319798 87.707601 
L 169.328912 87.707601 
L 169.49132 86.537269 
L 190.604422 86.537269 
L 190.766831 79.891436 
L 217.889046 79.891436 
L 218.051455 73.356387 
L 392.478159 73.356387 
L 392.640568 69.708967 
L 398.487273 69.708967 
L 398.487273 69.708967 
" clip-path="url(#p4193637f2f)" style="fill: none; stroke: #9467bd; stroke-width: 1.5; stroke-linecap: square"/>
   </g>
   <g id="patch_3">
    <path d="M 57.6 307.584 
L 57.6 41.472 
" style="fill: none; stroke: #000000; stroke-width: 0.8; stroke-linejoin: miter; stroke-linecap: square"/>
   </g>
   <g id="patch_4">
    <path d="M 414.72 307.584 
L 414.72 41.472 
" style="fill: none; stroke: #000000; stroke-width: 0.8; stroke-linejoin: miter; stroke-linecap: square"/>
   </g>
   <g id="patch_5">
    <path d="M 57.6 307.584 
L 414.72 307.584 
" style="fill: none; stroke: #000000; stroke-width: 0.8; stroke-linejoin: miter; stroke-linecap: square"/>
   </g>
   <g id="patch_6">
    <path d="M 57.6 41.472 
L 414.72 41.472 
" style="fill: none; stroke: #000000; stroke-width: 0.8; stroke-linejoin: miter; stroke-linecap: square"/>
   </g>
   <g id="text_20">
    <!-- Feedback Metric Convergence for Different Mutation Strategies -->
    <g transform="translate(46.155 35.472)scale(0.12 -0.12)">
     <defs>
      <path id="DejaVuSans-46" d="M 628 4666 
L 3309 4666 
L 3309 4134 
L 1259 4134 
L 1259 2759 
L 3109 2759 
L 3109 2228 
L 1259 2228 
L 1259 0 
L 628 0 
L 628 4666 
z
" transform="scale(0.015625)"/>
      <path id="DejaVuSans-64" d="M 2906 2969 
L 2906 4863 
L 3481 4863 
L 3481 0 
L 2906 0 
L 2906 525 
Q 2725 213 2448 61 
Q 2172 -91 1784 -91 
Q 1150 -91 751 415 
Q 353 922 353 1747 
Q 353 2572 751 3078 
Q 1150 3584 1784 3584 
Q 2172 3584 2448 3432 
Q 2725 3281 2906 2969 
z
M 947 1747 
Q 947 1113 1208 752 
Q 1469 391 1925 391 
Q 2381 391 2643 752 
Q 2906 1113 2906 1747 
Q 2906 2381 2643 2742 
Q 2381 3103 1925 3103 
Q 1469 3103 1208 2742 
Q 947 2381 947 1747 
z
" transform="scale(0.015625)"/>
      <path id="DejaVuSans-6b" d="M 581 4863 
L 1159 4863 
L 1159 1991 
L 2875 3500 
L 3609 3500 
L 1753 1863 
L 3688 0 
L 2938 0 
L 1159 1709 
L 1159 0 
L 581 0 
L 581 4863 
z
" transform="scale(0.015625)"/>
      <path id="DejaVuSans-43" d="M 4122 4306 
L 4122 3641 
Q 3803 3938 3442 4084 
Q 3081 4231 2675 4231 
Q 1875 4231 1450 3742 
Q 1025 3253 1025 2328 
Q 1025 1406 1450 917 
Q 1875 428 2675 428 
Q 3081 428 3442 575 
Q 3803 722 4122 1019 
L 4122 359 
Q 3791 134 3420 21 
Q 3050 -91 2638 -91 
Q 1578 -91 968 557 
Q 359 1206 359 2328 
Q 359 3453 968 4101 
Q 1578 4750 2638 4750 
Q 3056 4750 3426 4639 
Q 3797 4528 4122 4306 
z
" transform="scale(0.015625)"/>
      <path id="DejaVuSans-76" d="M 191 3500 
L 800 3500 
L 1894 563 
L 2988 3500 
L 3597 3500 
L 2284 0 
L 1503 0 
L 191 3500 
z
" transform="scale(0.015625)"/>
      <path id="DejaVuSans-67" d="M 2906 1791 
Q 2906 2416 2648 2759 
Q 2391 3103 1925 3103 
Q 1463 3103 1205 2759 
Q 947 2416 947 1791 
Q 947 1169 1205 825 
Q 1463 481 1925 481 
Q 2391 481 2648 825 
Q 2906 1169 2906 1791 
z
M 3481 434 
Q 3481 -459 3084 -895 
Q 2688 -1331 1869 -1331 
Q 1566 -1331 1297 -1286 
Q 1028 -1241 775 -1147 
L 775 -588 
Q 1028 -725 1275 -790 
Q 1522 -856 1778 -856 
Q 2344 -856 2625 -561 
Q 2906 -266 2906 331 
L 2906 616 
Q 2728 306 2450 153 
Q 2172 0 1784 0 
Q 1141 0 747 490 
Q 353 981 353 1791 
Q 353 2603 747 3093 
Q 1141 3584 1784 3584 
Q 2172 3584 2450 3431 
Q 2728 3278 2906 2969 
L 2906 3500 
L 3481 3500 
L 3481 434 
z
" transform="scale(0.015625)"/>
      <path id="DejaVuSans-44" d="M 1259 4147 
L 1259 519 
L 2022 519 
Q 2988 519 3436 956 
Q 3884 1394 3884 2338 
Q 3884 3275 3436 3711 
Q 2988 4147 2022 4147 
L 1259 4147 
z
M 628 4666 
L 1925 4666 
Q 3281 4666 3915 4102 
Q 4550 3538 4550 2338 
Q 4550 1131 3912 565 
Q 3275 0 1925 0 
L 628 0 
L 628 4666 
z
" transform="scale(0.015625)"/>
      <path id="DejaVuSans-53" d="M 3425 4513 
L 3425 3897 
Q 3066 4069 2747 4153 
Q 2428 4238 2131 4238 
Q 1616 4238 1336 4038 
Q 1056 3838 1056 3469 
Q 1056 3159 1242 3001 
Q 1428 2844 1947 2747 
L 2328 2669 
Q 3034 2534 3370 2195 
Q 3706 1856 3706 1288 
Q 3706 609 3251 259 
Q 2797 -91 1919 -91 
Q 1588 -91 1214 -16 
Q 841 59 441 206 
L 441 856 
Q 825 641 1194 531 
Q 1563 422 1919 422 
Q 2459 422 2753 634 
Q 3047 847 3047 1241 
Q 3047 1584 2836 1778 
Q 2625 1972 2144 2069 
L 1759 2144 
Q 1053 2284 737 2584 
Q 422 2884 422 3419 
Q 422 4038 858 4394 
Q 1294 4750 2059 4750 
Q 2388 4750 2728 4690 
Q 3069 4631 3425 4513 
z
" transform="scale(0.015625)"/>
     </defs>
     <use xlink:href="#DejaVuSans-46"/>
     <use xlink:href="#DejaVuSans-65" x="52.019531"/>
     <use xlink:href="#DejaVuSans-65" x="113.542969"/>
     <use xlink:href="#DejaVuSans-64" x="175.066406"/>
     <use xlink:href="#DejaVuSans-62" x="238.542969"/>
     <use xlink:href="#DejaVuSans-61" x="302.019531"/>
     <use xlink:href="#DejaVuSans-63" x="363.298828"/>
     <use xlink:href="#DejaVuSans-6b" x="418.279297"/>
     <use xlink:href="#DejaVuSans-20" x="476.189453"/>
     <use xlink:href="#DejaVuSans-4d" x="507.976562"/>
     <use xlink:href="#DejaVuSans-65" x="594.255859"/>
     <use xlink:href="#DejaVuSans-74" x="655.779297"/>
     <use xlink:href="#DejaVuSans-72" x="694.988281"/>
     <use xlink:href="#DejaVuSans-69" x="736.101562"/>
     <use xlink:href="#DejaVuSans-63" x="763.884766"/>
     <use xlink:href="#DejaVuSans-20" x="818.865234"/>
     <use xlink:href="#DejaVuSans-43" x="850.652344"/>
     <use xlink:href="#DejaVuSans-6f" x="920.476562"/>
     <use xlink:href="#DejaVuSans-6e" x="981.658203"/>
     <use xlink:href="#DejaVuSans-76" x="1045.037109"/>
     <use xlink:href="#DejaVuSans-65" x="1104.216797"/>
     <use xlink:href="#DejaVuSans-72" x="1165.740234"/>
     <use xlink:href="#DejaVuSans-67" x="1205.103516"/>
     <use xlink:href="#DejaVuSans-65" x="1268.580078"/>
     <use xlink:href="#DejaVuSans-6e" x="1330.103516"/>
     <use xlink:href="#DejaVuSans-63" x="1393.482422"/>
     <use xlink:href="#DejaVuSans-65" x="1448.462891"/>
     <use xlink:href="#DejaVuSans-20" x="1509.986328"/>
     <use xlink:href="#DejaVuSans-66" x="1541.773438"/>
     <use xlink:href="#DejaVuSans-6f" x="1576.978516"/>
     <use xlink:href="#DejaVuSans-72" x="1638.160156"/>
     <use xlink:href="#DejaVuSans-20" x="1679.273438"/>
     <use xlink:href="#DejaVuSans-44" x="1711.060547"/>
     <use xlink:href="#DejaVuSans-69" x="1788.0625"/>
     <use xlink:href="#DejaVuSans-66" x="1815.845703"/>
     <use xlink:href="#DejaVuSans-66" x="1851.050781"/>
     <use xlink:href="#DejaVuSans-65" x="1886.255859"/>
     <use xlink:href="#DejaVuSans-72" x="1947.779297"/>
     <use xlink:href="#DejaVuSans-65" x="1986.642578"/>
     <use xlink:href="#DejaVuSans-6e" x="2048.166016"/>
     <use xlink:href="#DejaVuSans-74" x="2111.544922"/>
     <use xlink:href="#DejaVuSans-20" x="2150.753906"/>
     <use xlink:href="#DejaVuSans-4d" x="2182.541016"/>
     <use xlink:href="#DejaVuSans-75" x="2268.820312"/>
     <use xlink:href="#DejaVuSans-74" x="2332.199219"/>
     <use xlink:href="#DejaVuSans-61" x="2371.408203"/>
     <use xlink:href="#DejaVuSans-74" x="2432.6875"/>
     <use xlink:href="#DejaVuSans-69" x="2471.896484"/>
     <use xlink:href="#DejaVuSans-6f" x="2499.679688"/>
     <use xlink:href="#DejaVuSans-6e" x="2560.861328"/>
     <use xlink:href="#DejaVuSans-20" x="2624.240234"/>
     <use xlink:href="#DejaVuSans-53" x="2656.027344"/>
     <use xlink:href="#DejaVuSans-74" x="2719.503906"/>
     <use xlink:href="#DejaVuSans-72" x="2758.712891"/>
     <use xlink:href="#DejaVuSans-61" x="2799.826172"/>
     <use xlink:href="#DejaVuSans-74" x="2861.105469"/>
     <use xlink:href="#DejaVuSans-65" x="2900.314453"/>
     <use xlink:href="#DejaVuSans-67" x="2961.837891"/>
     <use xlink:href="#DejaVuSans-69" x="3025.314453"/>
     <use xlink:href="#DejaVuSans-65" x="3053.097656"/>
     <use xlink:href="#DejaVuSans-73" x="3114.621094"/>
    </g>
   </g>
   <g id="legend_1">
    <g id="patch_7">
     <path d="M 264.154375 302.584 
L 407.72 302.584 
Q 409.72 302.584 409.72 300.584 
L 409.72 228.193375 
Q 409.72 226.193375 407.72 226.193375 
L 264.154375 226.193375 
Q 262.154375 226.193375 262.154375 228.193375 
L 262.154375 300.584 
Q 262.154375 302.584 264.154375 302.584 
z
" style="fill: #ffffff; opacity: 0.8; stroke: #cccccc; stroke-linejoin: miter"/>
    </g>
    <g id="line2d_23">
     <path d="M 266.154375 234.291812 
L 276.154375 234.291812 
L 286.154375 234.291812 
" style="fill: none; stroke: #1f77b4; stroke-width: 1.5; stroke-linecap: square"/>
    </g>
    <g id="text_21">
     <!-- Naive Mutation -->
     <g transform="translate(294.154375 237.791812)scale(0.1 -0.1)">
      <use xlink:href="#DejaVuSans-4e"/>
      <use xlink:href="#DejaVuSans-61" x="74.804688"/>
      <use xlink:href="#DejaVuSans-69" x="136.083984"/>
      <use xlink:href="#DejaVuSans-76" x="163.867188"/>
      <use xlink:href="#DejaVuSans-65" x="223.046875"/>
      <use xlink:href="#DejaVuSans-20" x="284.570312"/>
      <use xlink:href="#DejaVuSans-4d" x="316.357422"/>
      <use xlink:href="#DejaVuSans-75" x="402.636719"/>
      <use xlink:href="#DejaVuSans-74" x="466.015625"/>
      <use xlink:href="#DejaVuSans-61" x="505.224609"/>
      <use xlink:href="#DejaVuSans-74" x="566.503906"/>
      <use xlink:href="#DejaVuSans-69" x="605.712891"/>
      <use xlink:href="#DejaVuSans-6f" x="633.496094"/>
      <use xlink:href="#DejaVuSans-6e" x="694.677734"/>
     </g>
    </g>
    <g id="line2d_24">
     <path d="M 266.154375 248.969937 
L 276.154375 248.969937 
L 286.154375 248.969937 
" style="fill: none; stroke: #ff7f0e; stroke-width: 1.5; stroke-linecap: square"/>
    </g>
    <g id="text_22">
     <!-- 25 Percentile Marked -->
     <g transform="translate(294.154375 252.469937)scale(0.1 -0.1)">
      <defs>
       <path id="DejaVuSans-50" d="M 1259 4147 
L 1259 2394 
L 2053 2394 
Q 2494 2394 2734 2622 
Q 2975 2850 2975 3272 
Q 2975 3691 2734 3919 
Q 2494 4147 2053 4147 
L 1259 4147 
z
M 628 4666 
L 2053 4666 
Q 2838 4666 3239 4311 
Q 3641 3956 3641 3272 
Q 3641 2581 3239 2228 
Q 2838 1875 2053 1875 
L 1259 1875 
L 1259 0 
L 628 0 
L 628 4666 
z
" transform="scale(0.015625)"/>
       <path id="DejaVuSans-6c" d="M 603 4863 
L 1178 4863 
L 1178 0 
L 603 0 
L 603 4863 
z
" transform="scale(0.015625)"/>
      </defs>
      <use xlink:href="#DejaVuSans-32"/>
      <use xlink:href="#DejaVuSans-35" x="63.623047"/>
      <use xlink:href="#DejaVuSans-20" x="127.246094"/>
      <use xlink:href="#DejaVuSans-50" x="159.033203"/>
      <use xlink:href="#DejaVuSans-65" x="215.710938"/>
      <use xlink:href="#DejaVuSans-72" x="277.234375"/>
      <use xlink:href="#DejaVuSans-63" x="316.097656"/>
      <use xlink:href="#DejaVuSans-65" x="371.078125"/>
      <use xlink:href="#DejaVuSans-6e" x="432.601562"/>
      <use xlink:href="#DejaVuSans-74" x="495.980469"/>
      <use xlink:href="#DejaVuSans-69" x="535.189453"/>
      <use xlink:href="#DejaVuSans-6c" x="562.972656"/>
      <use xlink:href="#DejaVuSans-65" x="590.755859"/>
      <use xlink:href="#DejaVuSans-20" x="652.279297"/>
      <use xlink:href="#DejaVuSans-4d" x="684.066406"/>
      <use xlink:href="#DejaVuSans-61" x="770.345703"/>
      <use xlink:href="#DejaVuSans-72" x="831.625"/>
      <use xlink:href="#DejaVuSans-6b" x="872.738281"/>
      <use xlink:href="#DejaVuSans-65" x="927.023438"/>
      <use xlink:href="#DejaVuSans-64" x="988.546875"/>
     </g>
    </g>
    <g id="line2d_25">
     <path d="M 266.154375 263.648062 
L 276.154375 263.648062 
L 286.154375 263.648062 
" style="fill: none; stroke: #2ca02c; stroke-width: 1.5; stroke-linecap: square"/>
    </g>
    <g id="text_23">
     <!-- 50 Percentile Marked -->
     <g transform="translate(294.154375 267.148062)scale(0.1 -0.1)">
      <use xlink:href="#DejaVuSans-35"/>
      <use xlink:href="#DejaVuSans-30" x="63.623047"/>
      <use xlink:href="#DejaVuSans-20" x="127.246094"/>
      <use xlink:href="#DejaVuSans-50" x="159.033203"/>
      <use xlink:href="#DejaVuSans-65" x="215.710938"/>
      <use xlink:href="#DejaVuSans-72" x="277.234375"/>
      <use xlink:href="#DejaVuSans-63" x="316.097656"/>
      <use xlink:href="#DejaVuSans-65" x="371.078125"/>
      <use xlink:href="#DejaVuSans-6e" x="432.601562"/>
      <use xlink:href="#DejaVuSans-74" x="495.980469"/>
      <use xlink:href="#DejaVuSans-69" x="535.189453"/>
      <use xlink:href="#DejaVuSans-6c" x="562.972656"/>
      <use xlink:href="#DejaVuSans-65" x="590.755859"/>
      <use xlink:href="#DejaVuSans-20" x="652.279297"/>
      <use xlink:href="#DejaVuSans-4d" x="684.066406"/>
      <use xlink:href="#DejaVuSans-61" x="770.345703"/>
      <use xlink:href="#DejaVuSans-72" x="831.625"/>
      <use xlink:href="#DejaVuSans-6b" x="872.738281"/>
      <use xlink:href="#DejaVuSans-65" x="927.023438"/>
      <use xlink:href="#DejaVuSans-64" x="988.546875"/>
     </g>
    </g>
    <g id="line2d_26">
     <path d="M 266.154375 278.326188 
L 276.154375 278.326188 
L 286.154375 278.326188 
" style="fill: none; stroke: #d62728; stroke-width: 1.5; stroke-linecap: square"/>
    </g>
    <g id="text_24">
     <!-- 75 Percentile Marked -->
     <g transform="translate(294.154375 281.826188)scale(0.1 -0.1)">
      <use xlink:href="#DejaVuSans-37"/>
      <use xlink:href="#DejaVuSans-35" x="63.623047"/>
      <use xlink:href="#DejaVuSans-20" x="127.246094"/>
      <use xlink:href="#DejaVuSans-50" x="159.033203"/>
      <use xlink:href="#DejaVuSans-65" x="215.710938"/>
      <use xlink:href="#DejaVuSans-72" x="277.234375"/>
      <use xlink:href="#DejaVuSans-63" x="316.097656"/>
      <use xlink:href="#DejaVuSans-65" x="371.078125"/>
      <use xlink:href="#DejaVuSans-6e" x="432.601562"/>
      <use xlink:href="#DejaVuSans-74" x="495.980469"/>
      <use xlink:href="#DejaVuSans-69" x="535.189453"/>
      <use xlink:href="#DejaVuSans-6c" x="562.972656"/>
      <use xlink:href="#DejaVuSans-65" x="590.755859"/>
      <use xlink:href="#DejaVuSans-20" x="652.279297"/>
      <use xlink:href="#DejaVuSans-4d" x="684.066406"/>
      <use xlink:href="#DejaVuSans-61" x="770.345703"/>
      <use xlink:href="#DejaVuSans-72" x="831.625"/>
      <use xlink:href="#DejaVuSans-6b" x="872.738281"/>
      <use xlink:href="#DejaVuSans-65" x="927.023438"/>
      <use xlink:href="#DejaVuSans-64" x="988.546875"/>
     </g>
    </g>
    <g id="line2d_27">
     <path d="M 266.154375 293.004312 
L 276.154375 293.004312 
L 286.154375 293.004312 
" style="fill: none; stroke: #9467bd; stroke-width: 1.5; stroke-linecap: square"/>
    </g>
    <g id="text_25">
     <!-- 100 Percentile Marked -->
     <g transform="translate(294.154375 296.504312)scale(0.1 -0.1)">
      <use xlink:href="#DejaVuSans-31"/>
      <use xlink:href="#DejaVuSans-30" x="63.623047"/>
      <use xlink:href="#DejaVuSans-30" x="127.246094"/>
      <use xlink:href="#DejaVuSans-20" x="190.869141"/>
      <use xlink:href="#DejaVuSans-50" x="222.65625"/>
      <use xlink:href="#DejaVuSans-65" x="279.333984"/>
      <use xlink:href="#DejaVuSans-72" x="340.857422"/>
      <use xlink:href="#DejaVuSans-63" x="379.720703"/>
      <use xlink:href="#DejaVuSans-65" x="434.701172"/>
      <use xlink:href="#DejaVuSans-6e" x="496.224609"/>
      <use xlink:href="#DejaVuSans-74" x="559.603516"/>
      <use xlink:href="#DejaVuSans-69" x="598.8125"/>
      <use xlink:href="#DejaVuSans-6c" x="626.595703"/>
      <use xlink:href="#DejaVuSans-65" x="654.378906"/>
      <use xlink:href="#DejaVuSans-20" x="715.902344"/>
      <use xlink:href="#DejaVuSans-4d" x="747.689453"/>
      <use xlink:href="#DejaVuSans-61" x="833.96875"/>
      <use xlink:href="#DejaVuSans-72" x="895.248047"/>
      <use xlink:href="#DejaVuSans-6b" x="936.361328"/>
      <use xlink:href="#DejaVuSans-65" x="990.646484"/>
      <use xlink:href="#DejaVuSans-64" x="1052.169922"/>
     </g>
    </g>
   </g>
  </g>
 </g>
 <defs>
  <clipPath id="p4193637f2f">
   <rect x="57.6" y="41.472" width="357.12" height="266.112"/>
  </clipPath>
 </defs>
</svg>
