<?xml version="1.0" encoding="UTF-8" standalone="no"?>
<svg
   version="1.1"
   viewBox="0 0 709.92371 271.07544"
   fill="none"
   stroke="none"
   stroke-linecap="square"
   stroke-miterlimit="10"
   id="svg143"
   sodipodi:docname="naive_fuzzing_loop.svg"
   width="709.92371"
   height="271.07544"
   inkscape:version="1.2.2 (b0a8486541, 2022-12-01)"
   xmlns:inkscape="http://www.inkscape.org/namespaces/inkscape"
   xmlns:sodipodi="http://sodipodi.sourceforge.net/DTD/sodipodi-0.dtd"
   xmlns="http://www.w3.org/2000/svg"
   xmlns:svg="http://www.w3.org/2000/svg">
  <defs
     id="defs147" />
  <sodipodi:namedview
     id="namedview145"
     pagecolor="#ffffff"
     bordercolor="#000000"
     borderopacity="0.25"
     inkscape:showpageshadow="2"
     inkscape:pageopacity="0.0"
     inkscape:pagecheckerboard="0"
     inkscape:deskcolor="#d1d1d1"
     showgrid="false"
     inkscape:zoom="2.0055556"
     inkscape:cx="347.53463"
     inkscape:cy="177.75623"
     inkscape:window-width="2560"
     inkscape:window-height="1373"
     inkscape:window-x="0"
     inkscape:window-y="30"
     inkscape:window-maximized="1"
     inkscape:current-layer="svg143" />
  <clipPath
     id="g244bbc4bcb3_0_91.0">
    <path
       d="M 0,0 H 960 V 540 H 0 Z"
       clip-rule="nonzero"
       id="path2" />
  </clipPath>
  <g
     clip-path="url(#g244bbc4bcb3_0_91.0)"
     id="g141"
     transform="translate(-132.69948,-92.35696)">
    <path
       fill="#353744"
       d="m 152.13269,135.979 h 153.37518 c 3.7e-4,0 7e-4,1.4e-4 9.5e-4,4e-4 2.4e-4,2.4e-4 3.9e-4,5.8e-4 3.9e-4,9.4e-4 l -10e-4,35.01164 c 0,3.86753 -3.13525,7.00277 -7.00278,7.00277 H 145.12992 v 0 c -7.4e-4,0 -0.001,-6e-4 -0.001,-0.001 l 0.001,-35.01164 v 0 c 0,-3.86752 3.13524,-7.00276 7.00277,-7.00276 z"
       fill-rule="evenodd"
       id="path7" />
    <path
       stroke="#202729"
       stroke-width="1"
       stroke-linejoin="round"
       stroke-linecap="butt"
       d="m 152.13269,135.979 h 153.37518 c 3.7e-4,0 7e-4,1.4e-4 9.5e-4,4e-4 2.4e-4,2.4e-4 3.9e-4,5.8e-4 3.9e-4,9.4e-4 l -10e-4,35.01164 c 0,3.86753 -3.13525,7.00277 -7.00278,7.00277 H 145.12992 v 0 c -7.4e-4,0 -0.001,-6e-4 -0.001,-0.001 l 0.001,-35.01164 v 0 c 0,-3.86752 3.13524,-7.00276 7.00277,-7.00276 z"
       fill-rule="evenodd"
       id="path9" />
    <path
       fill="#ffffff"
       d="m 191.78372,164.12563 q -3,0 -4.78125,-1.96875 l 0.92187,-1.17188 q 0.76563,0.84375 1.78125,1.3125 1.03125,0.45313 2.14063,0.45313 1.34375,0 2.125,-0.59375 0.79687,-0.59375 0.79687,-1.54688 0,-1.48437 -2.3125,-2.10937 -2.73437,-0.73438 -3.5,-1.15625 -0.75,-0.4375 -1.15625,-1.07813 -0.40625,-0.64062 -0.40625,-1.53125 0,-1.5 1.20313,-2.46875 1.20312,-0.98437 3.07812,-0.98437 2.79688,0 4.42188,1.73437 l -0.9375,1.14063 q -1.34375,-1.5 -3.59375,-1.5 -1.125,0 -1.84375,0.54687 -0.71875,0.53125 -0.71875,1.4375 0,0.64063 0.59375,1.10938 0.60937,0.45312 1.73437,0.73437 2.65625,0.71875 3.42188,1.1875 0.78125,0.46875 1.20312,1.15625 0.42188,0.67188 0.42188,1.64063 0,1.71875 -1.25,2.6875 -1.25,0.96875 -3.34375,0.96875 z m 10.91695,0 q -2.03125,0 -3.3125,-1.3125 -1.28125,-1.32813 -1.28125,-3.42188 0,-2 1.26562,-3.35937 1.28125,-1.35938 3.17188,-1.35938 1.9375,0 3.125,1.34375 1.20312,1.34375 1.20312,3.48438 V 159.86 h -7.29687 q 0.0781,1.375 1,2.25 0.92187,0.85938 2.25,0.85938 1.64062,0 2.78125,-1.14063 l 0.67187,0.92188 q -1.375,1.375 -3.57812,1.375 z m 2.79687,-5.29688 q 0,-1.25 -0.82812,-2.125 -0.8125,-0.875 -2.14063,-0.875 -1.25,0 -2.07812,0.875 -0.82813,0.875 -0.875,2.125 z m 7.40971,4.04688 q 0.76563,0 1.54688,-0.40625 0.78125,-0.42188 1.14062,-1.04688 V 157.36 q -0.34375,-0.57812 -1.09375,-1 -0.73437,-0.4375 -1.59375,-0.4375 -1.32812,0 -2.10937,0.96875 -0.76563,0.95313 -0.76563,2.5 0,1.54688 0.76563,2.51563 0.78125,0.96875 2.10937,0.96875 z m -0.34375,1.25 q -1.8125,0 -2.90625,-1.28125 -1.09375,-1.28125 -1.09375,-3.45313 0,-2.20312 1.10938,-3.45312 1.10937,-1.26563 2.89062,-1.26563 0.95313,0 1.75,0.4375 0.79688,0.4375 1.28125,1.125 v -1.34375 h 1.39063 v 12.45313 h -1.39063 v -4.79688 q -1.125,1.57813 -3.03125,1.57813 z m 6.59325,3.32812 v -16.20312 h 3.46875 v 1.03125 h -2.39062 v 14.14062 h 2.39062 v 1.03125 z m 5.23659,-3.54687 v -12.4375 h 5.54687 q 1.57813,0 2.53125,0.875 0.95313,0.85937 0.95313,2.29687 0,1.09375 -0.60938,1.85938 -0.60937,0.76562 -1.57812,0.98437 1,0.15625 1.71875,1.04688 0.71875,0.89062 0.71875,2.01562 0,1.53125 -0.96875,2.45313 -0.95313,0.90625 -2.64063,0.90625 z m 5.28125,-7.04688 q 1.0625,0 1.59375,-0.5625 0.54687,-0.57812 0.54687,-1.4375 0,-0.84375 -0.54687,-1.42187 -0.53125,-0.59375 -1.59375,-0.59375 h -3.73438 V 156.86 Z m 0.0781,5.67188 q 1.09375,0 1.70313,-0.5625 0.60937,-0.57813 0.60937,-1.59375 0,-0.95313 -0.64062,-1.54688 -0.625,-0.59375 -1.67188,-0.59375 h -3.8125 v 4.29688 z m 6.04729,3.625 q 0.29688,0.15625 0.76563,0.15625 0.45312,0 0.76562,-0.20313 0.32813,-0.1875 0.57813,-0.75 l 0.59375,-1.35937 -3.76563,-9.10938 h 1.5 l 3.01563,7.39063 2.98437,-7.39063 h 1.51563 l -4.5,10.84375 q -0.75,1.79688 -2.65625,1.82813 -0.54688,0 -1.03125,-0.125 z m 11.68845,-2.03125 q -2,0 -2,-2.10938 v -5.89062 h -1.48438 v -1.23438 h 1.48438 v -2.45312 h 1.40625 v 2.45312 h 1.82812 v 1.23438 h -1.82812 v 5.59375 q 0,0.51562 0.21875,0.84375 0.23437,0.3125 0.70312,0.3125 0.57813,0 0.9375,-0.375 l 0.42188,1.04687 q -0.57813,0.57813 -1.6875,0.57813 z m 7.28181,0 q -2.03125,0 -3.3125,-1.3125 -1.28125,-1.32813 -1.28125,-3.42188 0,-2 1.26563,-3.35937 1.28125,-1.35938 3.17187,-1.35938 1.9375,0 3.125,1.34375 1.20313,1.34375 1.20313,3.48438 V 159.86 h -7.29688 q 0.0781,1.375 1,2.25 0.92188,0.85938 2.25,0.85938 1.64063,0 2.78125,-1.14063 l 0.67188,0.92188 q -1.375,1.375 -3.57813,1.375 z m 2.79688,-5.29688 q 0,-1.25 -0.82813,-2.125 -0.8125,-0.875 -2.14062,-0.875 -1.25,0 -2.07813,0.875 -0.82812,0.875 -0.875,2.125 z m 2.55035,8.625 v -1.03125 h 2.39063 v -14.14062 h -2.39063 v -1.03125 h 3.46875 v 16.20312 z"
       fill-rule="nonzero"
       id="path11" />
    <path
       fill="#000000"
       fill-opacity="0"
       d="m 306.8517,128.4042 h 78.29919 v 42.01575 H 306.8517 Z"
       fill-rule="evenodd"
       id="path13" />
    <path
       fill="#000000"
       d="m 330.46793,155.3242 v -12.4375 h 5 q 1.78125,0 2.84375,1.0625 1.0625,1.0625 1.0625,2.6875 0,1.64062 -1.09375,2.70312 -1.07812,1.04688 -2.8125,1.04688 h -3.45312 v 4.9375 z m 4.8125,-6.32813 q 1.125,0 1.79688,-0.64062 0.6875,-0.65625 0.6875,-1.71875 0,-1.0625 -0.6875,-1.71875 -0.67188,-0.65625 -1.79688,-0.65625 h -3.26562 v 4.73437 z m 6.77933,-3.96875 q -0.375,0 -0.65625,-0.26562 -0.28125,-0.28125 -0.28125,-0.67188 0,-0.39062 0.28125,-0.67187 0.28125,-0.28125 0.65625,-0.28125 0.39062,0 0.67187,0.28125 0.28125,0.28125 0.28125,0.67187 0,0.39063 -0.28125,0.67188 -0.28125,0.26562 -0.67187,0.26562 z m -0.6875,10.29688 v -9.01563 h 1.39062 v 9.01563 z m 8.16641,0.21875 q -1.98438,0 -3.25,-1.34375 -1.25,-1.34375 -1.25,-3.39063 0,-2.03125 1.25,-3.375 1.26562,-1.34375 3.25,-1.34375 2.09375,0 3.29687,1.5625 l -0.92187,0.85938 q -0.85938,-1.17188 -2.29688,-1.17188 -1.39062,0 -2.26562,0.96875 -0.85938,0.95313 -0.85938,2.5 0,1.5625 0.85938,2.53125 0.85937,0.95313 2.26562,0.95313 1.40625,0 2.29688,-1.17188 l 0.92187,0.85938 q -1.20312,1.5625 -3.29687,1.5625 z m 11.39111,-0.21875 -3.23437,-4.04688 -1.5,1.46875 v 2.57813 h -1.39063 v -12.4375 h 1.39063 v 8.21875 l 4.73437,-4.79688 h 1.78125 l -4,4.09375 4.01563,4.92188 z"
       fill-rule="nonzero"
       id="path15" />
    <path
       fill="#000000"
       fill-opacity="0"
       d="m 324.0958,166.05511 h 56.56693"
       fill-rule="evenodd"
       id="path17" />
    <path
       stroke="#ff5252"
       stroke-width="2"
       stroke-linejoin="round"
       stroke-linecap="butt"
       d="m 324.0958,166.05511 h 44.56693"
       fill-rule="evenodd"
       id="path19" />
    <path
       fill="#ff5252"
       stroke="#ff5252"
       stroke-width="2"
       stroke-linecap="butt"
       d="m 368.66272,169.35858 9.0762,-3.30347 -9.0762,-3.30346 z"
       fill-rule="evenodd"
       id="path21" />
    <path
       fill="#000000"
       fill-opacity="0"
       d="M 132.69948,92.35696 H 324.10105 V 134.3727 H 132.69948 Z"
       fill-rule="evenodd"
       id="path23" />
    <path
       fill="#000000"
       d="m 182.31726,119.27696 v -12.4375 h 1.54687 v 12.4375 z m 10.4901,0 v -5.89063 q 0,-1.20312 -0.5625,-1.64062 -0.54688,-0.45313 -1.45313,-0.45313 -0.78125,0 -1.54687,0.42188 -0.75,0.42187 -1.125,0.98437 v 6.57813 h -1.39063 v -9.01563 h 1.39063 v 1.3125 q 0.57812,-0.67187 1.42187,-1.09375 0.85938,-0.4375 1.78125,-0.4375 2.875,0 2.875,2.90625 v 6.32813 z m 8.63897,0.21875 q -1.92187,0 -3.04687,-1.57813 v 4.79688 h -1.39063 v -12.45313 h 1.39063 v 1.34375 q 0.48437,-0.6875 1.28125,-1.125 0.8125,-0.4375 1.76562,-0.4375 1.8125,0 2.90625,1.26563 1.09375,1.26562 1.09375,3.45312 0,2.17188 -1.09375,3.45313 -1.07812,1.28125 -2.90625,1.28125 z m -0.35937,-1.25 q 1.3125,0 2.09375,-0.9375 0.79687,-0.95313 0.79687,-2.54688 0,-1.54687 -0.78125,-2.5 -0.78125,-0.96875 -2.10937,-0.96875 -0.84375,0 -1.57813,0.42188 -0.73437,0.42187 -1.10937,1.01562 v 4.0625 q 0.375,0.59375 1.10937,1.03125 0.73438,0.42188 1.57813,0.42188 z m 12.67137,1.03125 v -1.26563 q -0.53125,0.59375 -1.375,1.04688 -0.82813,0.4375 -1.84375,0.4375 -2.85938,0 -2.85938,-2.875 v -6.35938 h 1.39063 v 5.9375 q 0,1.0625 0.48437,1.5625 0.48438,0.48438 1.53125,0.48438 0.82813,0 1.54688,-0.40625 0.73437,-0.40625 1.125,-0.95313 v -6.625 h 1.39062 v 9.01563 z m 6.4671,0.21875 q -2,0 -2,-2.10938 v -5.89062 h -1.48437 v -1.23438 h 1.48437 v -2.45312 h 1.40625 v 2.45312 h 1.82813 v 1.23438 h -1.82813 v 5.59375 q 0,0.51562 0.21875,0.84375 0.23438,0.3125 0.70313,0.3125 0.57812,0 0.9375,-0.375 l 0.42187,1.04687 q -0.57812,0.57813 -1.6875,0.57813 z m 10.87638,0 q -2.29688,0 -3.64063,-1.40625 l 0.73438,-1.01563 q 0.45312,0.53125 1.23437,0.90625 0.79688,0.375 1.73438,0.375 1.04687,0 1.57812,-0.4375 0.54688,-0.4375 0.54688,-1.10937 0,-0.59375 -0.59375,-0.9375 -0.57813,-0.34375 -2.1875,-0.71875 -1.35938,-0.28125 -2.07813,-0.875 -0.71875,-0.60938 -0.71875,-1.64063 0,-1.14062 0.90625,-1.85937 0.92188,-0.73438 2.45313,-0.73438 2.03125,0 3.34375,1.3125 l -0.65625,0.96875 q -0.40625,-0.48437 -1.10938,-0.8125 -0.70312,-0.32812 -1.57812,-0.32812 -0.9375,0 -1.46875,0.40625 -0.53125,0.40625 -0.53125,1.01562 0,0.53125 0.59375,0.85938 0.60937,0.3125 2.20312,0.64062 1.35938,0.32813 2.0625,0.96875 0.71875,0.64063 0.71875,1.70313 0,1.25 -0.96875,1.98437 -0.96875,0.73438 -2.57812,0.73438 z m 9.8939,0 q -2.03125,0 -3.3125,-1.3125 -1.28125,-1.32813 -1.28125,-3.42188 0,-2 1.26563,-3.35937 1.28125,-1.35938 3.17187,-1.35938 1.9375,0 3.125,1.34375 1.20313,1.34375 1.20313,3.48438 v 0.35937 h -7.29688 q 0.0781,1.375 1,2.25 0.92188,0.85938 2.25,0.85938 1.64063,0 2.78125,-1.14063 l 0.67188,0.92188 q -1.375,1.375 -3.57813,1.375 z m 2.79688,-5.29688 q 0,-1.25 -0.82813,-2.125 -0.8125,-0.875 -2.14062,-0.875 -1.25,0 -2.07813,0.875 -0.82812,0.875 -0.875,2.125 z m 7.70658,5.29688 q -2.03125,0 -3.3125,-1.3125 -1.28125,-1.32813 -1.28125,-3.42188 0,-2 1.26563,-3.35937 1.28125,-1.35938 3.17187,-1.35938 1.9375,0 3.125,1.34375 1.20313,1.34375 1.20313,3.48438 v 0.35937 h -7.29688 q 0.0781,1.375 1,2.25 0.92188,0.85938 2.25,0.85938 1.64063,0 2.78125,-1.14063 l 0.67188,0.92188 q -1.375,1.375 -3.57813,1.375 z m 2.79688,-5.29688 q 0,-1.25 -0.82813,-2.125 -0.8125,-0.875 -2.14062,-0.875 -1.25,0 -2.07813,0.875 -0.82812,0.875 -0.875,2.125 z m 10.1597,5.07813 v -1.34375 q -0.5,0.6875 -1.29688,1.125 -0.78125,0.4375 -1.73437,0.4375 -1.81247,0 -2.92185,-1.28125 -1.09375,-1.28125 -1.09375,-3.4375 0,-2.15625 1.10938,-3.4375 1.10937,-1.29688 2.90622,-1.29688 0.90625,0 1.70312,0.42188 0.79688,0.42187 1.32813,1.15625 v -4.78125 h 1.40625 v 12.4375 z m -2.70313,-1.03125 q 0.84375,0 1.59375,-0.40625 0.75,-0.40625 1.10938,-1 v -4.09375 q -0.35938,-0.59375 -1.10938,-1.01563 -0.75,-0.4375 -1.59375,-0.4375 -1.29684,0 -2.09372,0.95313 -0.79687,0.95312 -0.79687,2.53125 0,1.54687 0.78125,2.51562 0.79687,0.95313 2.10934,0.95313 z m 9.75861,1.25 q -2.29688,0 -3.64063,-1.40625 l 0.73438,-1.01563 q 0.45312,0.53125 1.23437,0.90625 0.79688,0.375 1.73438,0.375 1.04687,0 1.57812,-0.4375 0.54688,-0.4375 0.54688,-1.10937 0,-0.59375 -0.59375,-0.9375 -0.57813,-0.34375 -2.1875,-0.71875 -1.35938,-0.28125 -2.07813,-0.875 -0.71875,-0.60938 -0.71875,-1.64063 0,-1.14062 0.90625,-1.85937 0.92188,-0.73438 2.45313,-0.73438 2.03125,0 3.34375,1.3125 l -0.65625,0.96875 q -0.40625,-0.48437 -1.10938,-0.8125 -0.70312,-0.32812 -1.57812,-0.32812 -0.9375,0 -1.46875,0.40625 -0.53125,0.40625 -0.53125,1.01562 0,0.53125 0.59375,0.85938 0.60937,0.3125 2.20312,0.64062 1.35938,0.32813 2.0625,0.96875 0.71875,0.64063 0.71875,1.70313 0,1.25 -0.96875,1.98437 -0.96875,0.73438 -2.57812,0.73438 z"
       fill-rule="nonzero"
       id="path25" />
    <path
       fill="#353744"
       d="m 156.59464,139.70341 h 153.37518 c 3.7e-4,0 7e-4,1.4e-4 9.5e-4,3.8e-4 2.4e-4,2.6e-4 3.9e-4,6e-4 3.9e-4,9.5e-4 l -10e-4,35.01166 c 0,3.8675 -3.13525,7.00276 -7.00278,7.00276 H 149.59186 v 0 c -7.3e-4,0 -0.001,-6e-4 -0.001,-10e-4 l 0.001,-35.01164 v 0 c 0,-3.86752 3.13526,-7.00276 7.00278,-7.00276 z"
       fill-rule="evenodd"
       id="path27" />
    <path
       stroke="#202729"
       stroke-width="1"
       stroke-linejoin="round"
       stroke-linecap="butt"
       d="m 156.59464,139.70341 h 153.37518 c 3.7e-4,0 7e-4,1.4e-4 9.5e-4,3.8e-4 2.4e-4,2.6e-4 3.9e-4,6e-4 3.9e-4,9.5e-4 l -10e-4,35.01166 c 0,3.8675 -3.13525,7.00276 -7.00278,7.00276 H 149.59186 v 0 c -7.3e-4,0 -0.001,-6e-4 -0.001,-10e-4 l 0.001,-35.01164 v 0 c 0,-3.86752 3.13526,-7.00276 7.00278,-7.00276 z"
       fill-rule="evenodd"
       id="path29" />
    <path
       fill="#ffffff"
       d="m 196.24567,167.85004 q -3,0 -4.78125,-1.96875 l 0.92187,-1.17188 q 0.76563,0.84375 1.78125,1.3125 1.03125,0.45313 2.14063,0.45313 1.34375,0 2.125,-0.59375 0.79687,-0.59375 0.79687,-1.54688 0,-1.48437 -2.3125,-2.10937 -2.73437,-0.73438 -3.5,-1.15625 -0.75,-0.4375 -1.15625,-1.07813 -0.40625,-0.64062 -0.40625,-1.53125 0,-1.5 1.20313,-2.46875 1.20312,-0.98437 3.07812,-0.98437 2.79688,0 4.42188,1.73437 l -0.9375,1.14063 q -1.34375,-1.5 -3.59375,-1.5 -1.125,0 -1.84375,0.54687 -0.71875,0.53125 -0.71875,1.4375 0,0.64063 0.59375,1.10938 0.60937,0.45312 1.73437,0.73437 2.65625,0.71875 3.42188,1.1875 0.78125,0.46875 1.20312,1.15625 0.42188,0.67188 0.42188,1.64063 0,1.71875 -1.25,2.6875 -1.25,0.96875 -3.34375,0.96875 z m 10.91695,0 q -2.03125,0 -3.3125,-1.3125 -1.28125,-1.32813 -1.28125,-3.42188 0,-2 1.26562,-3.35937 1.28125,-1.35938 3.17188,-1.35938 1.9375,0 3.125,1.34375 1.20312,1.34375 1.20312,3.48438 v 0.35937 h -7.29687 q 0.0781,1.375 1,2.25 0.92187,0.85938 2.25,0.85938 1.64062,0 2.78125,-1.14063 l 0.67187,0.92188 q -1.375,1.375 -3.57812,1.375 z m 2.79687,-5.29688 q 0,-1.25 -0.82812,-2.125 -0.8125,-0.875 -2.14063,-0.875 -1.25,0 -2.07812,0.875 -0.82813,0.875 -0.875,2.125 z m 7.40971,4.04688 q 0.76563,0 1.54688,-0.40625 0.78125,-0.42188 1.14062,-1.04688 v -4.0625 q -0.34375,-0.57812 -1.09375,-1 -0.73437,-0.4375 -1.59375,-0.4375 -1.32812,0 -2.10937,0.96875 -0.76563,0.95313 -0.76563,2.5 0,1.54688 0.76563,2.51563 0.78125,0.96875 2.10937,0.96875 z m -0.34375,1.25 q -1.8125,0 -2.90625,-1.28125 -1.09375,-1.28125 -1.09375,-3.45313 0,-2.20312 1.10938,-3.45312 1.10937,-1.26563 2.89062,-1.26563 0.95313,0 1.75,0.4375 0.79688,0.4375 1.28125,1.125 v -1.34375 h 1.39063 v 12.45313 h -1.39063 v -4.79688 q -1.125,1.57813 -3.03125,1.57813 z m 6.59325,3.32812 v -16.20312 h 3.46875 v 1.03125 h -2.39062 v 14.14062 h 2.39062 v 1.03125 z m 5.23659,-3.54687 v -12.4375 h 5.54687 q 1.57813,0 2.53125,0.875 0.95313,0.85937 0.95313,2.29687 0,1.09375 -0.60938,1.85938 -0.60937,0.76562 -1.57812,0.98437 1,0.15625 1.71875,1.04688 0.71875,0.89062 0.71875,2.01562 0,1.53125 -0.96875,2.45313 -0.95313,0.90625 -2.64063,0.90625 z m 5.28125,-7.04688 q 1.0625,0 1.59375,-0.5625 0.54687,-0.57812 0.54687,-1.4375 0,-0.84375 -0.54687,-1.42187 -0.53125,-0.59375 -1.59375,-0.59375 h -3.73438 v 4.01562 z m 0.0781,5.67188 q 1.09375,0 1.70313,-0.5625 0.60937,-0.57813 0.60937,-1.59375 0,-0.95313 -0.64062,-1.54688 -0.625,-0.59375 -1.67188,-0.59375 h -3.8125 v 4.29688 z m 6.04729,3.625 q 0.29688,0.15625 0.76563,0.15625 0.45312,0 0.76562,-0.20313 0.32813,-0.1875 0.57813,-0.75 l 0.59375,-1.35937 -3.76563,-9.10938 h 1.5 l 3.01563,7.39063 2.98437,-7.39063 h 1.51563 l -4.5,10.84375 q -0.75,1.79688 -2.65625,1.82813 -0.54688,0 -1.03125,-0.125 z m 11.68845,-2.03125 q -2,0 -2,-2.10938 v -5.89062 H 248.466 v -1.23438 h 1.48438 v -2.45312 h 1.40625 v 2.45312 h 1.82812 v 1.23438 h -1.82812 v 5.59375 q 0,0.51562 0.21875,0.84375 0.23437,0.3125 0.70312,0.3125 0.57813,0 0.9375,-0.375 l 0.42188,1.04687 q -0.57813,0.57813 -1.6875,0.57813 z m 7.28181,0 q -2.03125,0 -3.3125,-1.3125 -1.28125,-1.32813 -1.28125,-3.42188 0,-2 1.26563,-3.35937 1.28125,-1.35938 3.17187,-1.35938 1.9375,0 3.125,1.34375 1.20313,1.34375 1.20313,3.48438 v 0.35937 h -7.29688 q 0.0781,1.375 1,2.25 0.92188,0.85938 2.25,0.85938 1.64063,0 2.78125,-1.14063 l 0.67188,0.92188 q -1.375,1.375 -3.57813,1.375 z m 2.79688,-5.29688 q 0,-1.25 -0.82813,-2.125 -0.8125,-0.875 -2.14062,-0.875 -1.25,0 -2.07813,0.875 -0.82812,0.875 -0.875,2.125 z m 2.55035,8.625 v -1.03125 h 2.39063 v -14.14062 h -2.39063 v -1.03125 h 3.46875 v 16.20312 z"
       fill-rule="nonzero"
       id="path31" />
    <path
       fill="#353744"
       d="m 163.25604,145.04724 h 160.83975 c 3.7e-4,0 7.3e-4,1.5e-4 10e-4,4.1e-4 2.4e-4,2.6e-4 3.9e-4,6.3e-4 3.9e-4,9.9e-4 l -10e-4,35.01158 c 0,3.86753 -3.13525,7.00277 -7.00275,7.00277 H 156.25327 v 0 c -7.7e-4,0 -10e-4,-6.3e-4 -10e-4,-0.001 l 10e-4,-35.0116 v 0 c 0,-3.86751 3.13524,-7.00276 7.00277,-7.00276 z"
       fill-rule="evenodd"
       id="path33" />
    <path
       stroke="#202729"
       stroke-width="1"
       stroke-linejoin="round"
       stroke-linecap="butt"
       d="m 163.25604,145.04724 h 160.83975 c 3.7e-4,0 7.3e-4,1.5e-4 10e-4,4.1e-4 2.4e-4,2.6e-4 3.9e-4,6.3e-4 3.9e-4,9.9e-4 l -10e-4,35.01158 c 0,3.86753 -3.13525,7.00277 -7.00275,7.00277 H 156.25327 v 0 c -7.7e-4,0 -10e-4,-6.3e-4 -10e-4,-0.001 l 10e-4,-35.0116 v 0 c 0,-3.86751 3.13524,-7.00276 7.00277,-7.00276 z"
       fill-rule="evenodd"
       id="path35" />
    <path
       fill="#ffffff"
       d="m 172.32518,163.81886 v 1.35937 h 3.10937 v 6.4375 h -3.10937 v 1.35938 h 7.67187 v -1.35938 h -3 v -7.79687 z m 2.90625,-2.40625 q 0,0.39062 0.23437,0.64062 0.23438,0.25 0.70313,0.25 0.46875,0 0.70312,-0.25 0.23438,-0.25 0.23438,-0.64062 0,-0.20313 -0.0625,-0.375 -0.0625,-0.1875 -0.20313,-0.3125 -0.10937,-0.10938 -0.28125,-0.17188 -0.17187,-0.0625 -0.39062,-0.0625 -0.21875,0 -0.39063,0.0625 -0.17187,0.0625 -0.28125,0.17188 -0.14062,0.14062 -0.20312,0.3125 -0.0625,0.17187 -0.0625,0.375 z m 7.24232,11.5625 h 1.5625 v -6.5625 q 0.17188,-0.29688 0.375,-0.54688 0.21875,-0.25 0.48438,-0.42187 0.3125,-0.21875 0.67187,-0.34375 0.375,-0.125 0.8125,-0.125 0.5,0 0.875,0.125 0.39063,0.10937 0.65625,0.375 0.26563,0.26562 0.40625,0.6875 0.14063,0.42187 0.14063,1.03125 v 5.78125 h 1.5625 v -5.8125 q 0,-0.90625 -0.23438,-1.57813 -0.21875,-0.67187 -0.64062,-1.09375 -0.40625,-0.4375 -1,-0.64062 -0.57813,-0.20313 -1.29688,-0.20313 -0.53125,0.0156 -1.01562,0.17188 -0.48438,0.14062 -0.89063,0.40625 -0.26562,0.17187 -0.51562,0.42187 -0.23438,0.23438 -0.4375,0.53125 L 183.88,163.81886 h -1.40625 z m 10.39858,3.51562 h 1.5625 v -4.39062 q 0.17187,0.1875 0.35937,0.34375 0.20313,0.15625 0.42188,0.28125 0.35937,0.20312 0.8125,0.3125 0.45312,0.10937 0.96875,0.10937 0.875,0 1.54687,-0.35937 0.67188,-0.35938 1.125,-0.98438 0.45313,-0.625 0.6875,-1.46875 0.25,-0.85937 0.25,-1.82812 v -0.1875 q 0,-1.01563 -0.25,-1.875 -0.23437,-0.85938 -0.6875,-1.48438 -0.45312,-0.60937 -1.14062,-0.95312 -0.67188,-0.35938 -1.54688,-0.35938 -0.5,0 -0.9375,0.10938 -0.4375,0.10937 -0.79687,0.3125 -0.25,0.125 -0.46875,0.32812 -0.21875,0.1875 -0.40625,0.42188 l -0.0781,-1 h -1.42187 z m 6.15625,-8.17187 v 0.1875 q 0,0.65625 -0.15625,1.26562 -0.14063,0.60938 -0.4375,1.07813 -0.3125,0.46875 -0.78125,0.75 -0.46875,0.26562 -1.125,0.26562 -0.40625,0 -0.75,-0.0937 -0.32813,-0.10937 -0.59375,-0.28125 -0.23438,-0.15625 -0.42188,-0.375 -0.1875,-0.21875 -0.32812,-0.46875 v -4.42187 q 0.15625,-0.28125 0.35937,-0.51563 0.21875,-0.23437 0.5,-0.40625 0.23438,-0.15625 0.54688,-0.23437 0.3125,-0.0937 0.67187,-0.0937 0.65625,0 1.125,0.28125 0.48438,0.26562 0.79688,0.71875 0.29687,0.46875 0.4375,1.07812 0.15625,0.59375 0.15625,1.26563 z m 10.27357,4.65625 h 1.42188 v -9.15625 h -1.5625 v 6.5625 q -0.14063,0.29687 -0.32813,0.54687 -0.1875,0.25 -0.4375,0.4375 -0.3125,0.21875 -0.73437,0.34375 -0.40625,0.10938 -0.92188,0.10938 -0.45312,0 -0.79687,-0.10938 -0.34375,-0.125 -0.57813,-0.42187 -0.23437,-0.28125 -0.35937,-0.76563 -0.10938,-0.5 -0.10938,-1.25 v -5.45312 h -1.57812 v 5.4375 q 0,1.03125 0.21875,1.76562 0.23437,0.71875 0.65625,1.20313 0.40625,0.46875 0.98437,0.70312 0.59375,0.21875 1.3125,0.21875 0.89063,0 1.57813,-0.375 0.6875,-0.375 1.14062,-1.0625 z m 8.07045,-11.375 h -1.5625 v 2.21875 h -2.40625 v 1.21875 h 2.40625 v 4.96875 q 0,0.84375 0.21875,1.4375 0.21875,0.59375 0.60938,0.96875 0.39062,0.39062 0.92187,0.5625 0.53125,0.17187 1.14063,0.17187 0.35937,0 0.71875,-0.0469 0.375,-0.0312 0.70312,-0.0937 0.34375,-0.0625 0.60938,-0.14063 0.28125,-0.0937 0.48437,-0.21875 l -0.21875,-1.10937 q -0.15625,0.0469 -0.375,0.0937 -0.21875,0.0469 -0.48437,0.0781 -0.25,0.0469 -0.53125,0.0781 -0.26563,0.0312 -0.51563,0.0312 -0.34375,0 -0.65625,-0.0781 -0.3125,-0.0937 -0.54687,-0.3125 -0.23438,-0.20312 -0.375,-0.54687 -0.14063,-0.34375 -0.14063,-0.875 v -4.96875 h 3.5 v -1.21875 h -3.5 z"
       fill-rule="nonzero"
       id="path37" />
    <path
       fill="#ffffff"
       d="m 224.73993,165.88136 q -0.42188,0 -0.71875,-0.29688 -0.29688,-0.29687 -0.29688,-0.71875 0,-0.4375 0.29688,-0.73437 0.29687,-0.29688 0.71875,-0.29688 0.4375,0 0.73437,0.29688 0.29688,0.29687 0.29688,0.73437 0,0.42188 -0.29688,0.71875 -0.29687,0.29688 -0.73437,0.29688 z m 0,7.28125 q -0.42188,0 -0.71875,-0.29688 -0.29688,-0.29687 -0.29688,-0.73437 0,-0.42188 0.29688,-0.71875 0.29687,-0.29688 0.71875,-0.29688 0.4375,0 0.73437,0.29688 0.29688,0.29687 0.29688,0.71875 0,0.4375 -0.29688,0.73437 -0.29687,0.29688 -0.73437,0.29688 z m 12.448,0.0312 q -3,0 -4.78125,-1.96875 l 0.92187,-1.17188 q 0.76563,0.84375 1.78125,1.3125 1.03125,0.45313 2.14063,0.45313 1.34375,0 2.125,-0.59375 0.79687,-0.59375 0.79687,-1.54688 0,-1.48437 -2.3125,-2.10937 -2.73437,-0.73438 -3.5,-1.15625 -0.75,-0.4375 -1.15625,-1.07813 -0.40625,-0.64062 -0.40625,-1.53125 0,-1.5 1.20313,-2.46875 1.20312,-0.98437 3.07812,-0.98437 2.79688,0 4.42188,1.73437 l -0.9375,1.14063 q -1.34375,-1.5 -3.59375,-1.5 -1.125,0 -1.84375,0.54687 -0.71875,0.53125 -0.71875,1.4375 0,0.64063 0.59375,1.10938 0.60937,0.45312 1.73437,0.73437 2.65625,0.71875 3.42188,1.1875 0.78125,0.46875 1.20312,1.15625 0.42188,0.67188 0.42188,1.64063 0,1.71875 -1.25,2.6875 -1.25,0.96875 -3.34375,0.96875 z m 10.91694,0 q -2.03125,0 -3.3125,-1.3125 -1.28125,-1.32813 -1.28125,-3.42188 0,-2 1.26563,-3.35937 1.28125,-1.35938 3.17187,-1.35938 1.9375,0 3.125,1.34375 1.20313,1.34375 1.20313,3.48438 v 0.35937 h -7.29688 q 0.0781,1.375 1,2.25 0.92188,0.85938 2.25,0.85938 1.64063,0 2.78125,-1.14063 l 0.67188,0.92188 q -1.375,1.375 -3.57813,1.375 z m 2.79688,-5.29688 q 0,-1.25 -0.82813,-2.125 -0.8125,-0.875 -2.14062,-0.875 -1.25,0 -2.07813,0.875 -0.82812,0.875 -0.875,2.125 z m 7.40971,4.04688 q 0.76563,0 1.54688,-0.40625 0.78125,-0.42188 1.14062,-1.04688 v -4.0625 q -0.34375,-0.57812 -1.09375,-1 -0.73437,-0.4375 -1.59375,-0.4375 -1.32812,0 -2.10937,0.96875 -0.76563,0.95313 -0.76563,2.5 0,1.54688 0.76563,2.51563 0.78125,0.96875 2.10937,0.96875 z m -0.34375,1.25 q -1.8125,0 -2.90625,-1.28125 -1.09375,-1.28125 -1.09375,-3.45313 0,-2.20312 1.10938,-3.45312 1.10937,-1.26563 2.89062,-1.26563 0.95313,0 1.75,0.4375 0.79688,0.4375 1.28125,1.125 v -1.34375 h 1.39063 v 12.45313 h -1.39063 v -4.79688 q -1.125,1.57813 -3.03125,1.57813 z m 6.59323,3.32812 v -16.20312 h 3.46875 v 1.03125 h -2.39062 v 14.14062 h 2.39062 v 1.03125 z m 5.23661,-3.54687 v -12.4375 h 5.54687 q 1.57813,0 2.53125,0.875 0.95313,0.85937 0.95313,2.29687 0,1.09375 -0.60938,1.85938 -0.60937,0.76562 -1.57812,0.98437 1,0.15625 1.71875,1.04688 0.71875,0.89062 0.71875,2.01562 0,1.53125 -0.96875,2.45313 -0.95313,0.90625 -2.64063,0.90625 z m 5.28125,-7.04688 q 1.0625,0 1.59375,-0.5625 0.54687,-0.57812 0.54687,-1.4375 0,-0.84375 -0.54687,-1.42187 -0.53125,-0.59375 -1.59375,-0.59375 h -3.73438 v 4.01562 z m 0.0781,5.67188 q 1.09375,0 1.70313,-0.5625 0.60937,-0.57813 0.60937,-1.59375 0,-0.95313 -0.64062,-1.54688 -0.625,-0.59375 -1.67188,-0.59375 h -3.8125 v 4.29688 z m 6.04727,3.625 q 0.29688,0.15625 0.76563,0.15625 0.45312,0 0.76562,-0.20313 0.32813,-0.1875 0.57813,-0.75 l 0.59375,-1.35937 -3.76563,-9.10938 h 1.5 l 3.01563,7.39063 2.98437,-7.39063 h 1.51563 l -4.5,10.84375 q -0.75,1.79688 -2.65625,1.82813 -0.54688,0 -1.03125,-0.125 z m 11.68845,-2.03125 q -2,0 -2,-2.10938 v -5.89062 h -1.48438 v -1.23438 h 1.48438 v -2.45312 h 1.40625 v 2.45312 h 1.82812 v 1.23438 h -1.82812 v 5.59375 q 0,0.51562 0.21875,0.84375 0.23437,0.3125 0.70312,0.3125 0.57813,0 0.9375,-0.375 l 0.42188,1.04687 q -0.57813,0.57813 -1.6875,0.57813 z m 7.28183,0 q -2.03125,0 -3.3125,-1.3125 -1.28125,-1.32813 -1.28125,-3.42188 0,-2 1.26562,-3.35937 1.28125,-1.35938 3.17188,-1.35938 1.9375,0 3.125,1.34375 1.20312,1.34375 1.20312,3.48438 v 0.35937 h -7.29687 q 0.0781,1.375 1,2.25 0.92187,0.85938 2.25,0.85938 1.64062,0 2.78125,-1.14063 l 0.67187,0.92188 q -1.375,1.375 -3.57812,1.375 z m 2.79687,-5.29688 q 0,-1.25 -0.82812,-2.125 -0.8125,-0.875 -2.14063,-0.875 -1.25,0 -2.07812,0.875 -0.82813,0.875 -0.875,2.125 z m 2.55033,8.625 v -1.03125 h 2.39062 v -14.14062 h -2.39062 v -1.03125 h 3.46875 v 16.20312 z"
       fill-rule="nonzero"
       id="path39" />
    <path
       fill="#4ba173"
       d="M 656.2454,136.68504 H 816.62333 V 195.4252 H 656.2454 Z"
       fill-rule="evenodd"
       id="path41" />
    <path
       stroke="#4ba173"
       stroke-width="1"
       stroke-linejoin="round"
       stroke-linecap="butt"
       d="M 656.2454,136.68504 H 816.62333 V 195.4252 H 656.2454 Z"
       fill-rule="evenodd"
       id="path43" />
    <path
       fill="#ffffff"
       d="m 697.771,165.69386 q -1.26563,-1.73438 -1.95313,-3.85938 -0.67187,-2.14062 -0.67187,-4.39062 0,-2.26563 0.67187,-4.375 0.6875,-2.125 1.95313,-3.875 l 0.84375,0.64062 q -1.125,2.23438 -1.54688,3.90625 -0.40625,1.67188 -0.40625,3.70313 0,2.01562 0.42188,3.71875 0.42187,1.6875 1.53125,3.875 z m 9.82989,-3.71875 -3.17187,-4.9375 h -2.48438 v 4.9375 h -1.54687 v -12.4375 h 5 q 1.75,0 2.82812,1.04687 1.07813,1.03125 1.07813,2.70313 0,1.5625 -0.90625,2.53125 -0.90625,0.95312 -2.32813,1.07812 l 3.35938,5.07813 z m -2.39062,-6.3125 q 1.125,0 1.79687,-0.65625 0.6875,-0.65625 0.6875,-1.71875 0,-1.0625 -0.6875,-1.71875 -0.67187,-0.65625 -1.79687,-0.65625 h -3.26563 v 4.75 z m 9.60864,6.3125 v -11.0625 h -3.9375 v -1.375 h 9.4375 v 1.375 h -3.95312 v 11.0625 z m 7.55591,0 v -12.4375 h 1.54688 v 11.0625 h 5.78125 v 1.375 z m 8.06159,0.375 4.42187,-13.1875 h 1.09375 l -4.42187,13.1875 z m 15.85034,-0.375 -1.09375,-2.76563 h -6.1875 l -1.10938,2.76563 h -1.76562 l 5,-12.4375 h 1.92187 l 5.01563,12.4375 z m -4.1875,-10.84375 -2.65625,6.70312 h 5.28125 z m 7.54144,10.84375 v -9.01563 h 1.39062 v 1.45313 q 1.25,-1.64063 3,-1.64063 v 1.4375 l -0.54687,-0.0469 q -0.64063,0 -1.40625,0.45312 -0.76563,0.45313 -1.04688,0.98438 v 6.375 z m 10.12537,0.21875 q -1.98438,0 -3.25,-1.34375 -1.25,-1.34375 -1.25,-3.39063 0,-2.03125 1.25,-3.375 1.26562,-1.34375 3.25,-1.34375 2.09375,0 3.29687,1.5625 l -0.92187,0.85938 q -0.85938,-1.17188 -2.29688,-1.17188 -1.39062,0 -2.26562,0.96875 -0.85938,0.95313 -0.85938,2.5 0,1.5625 0.85938,2.53125 0.85937,0.95313 2.26562,0.95313 1.40625,0 2.29688,-1.17188 l 0.92187,0.85938 q -1.20312,1.5625 -3.29687,1.5625 z m 11.3598,-0.21875 v -5.9375 q 0,-1 -0.48438,-1.51563 -0.46875,-0.53125 -1.54687,-0.53125 -0.76563,0 -1.48438,0.39063 -0.71875,0.39062 -1.1875,1.01562 v 6.57813 h -1.39062 v -12.4375 h 1.39062 v 4.73437 q 0.59375,-0.6875 1.45313,-1.10937 0.85937,-0.42188 1.78125,-0.42188 2.875,0 2.875,2.875 v 6.35938 z m 3.11078,3.0625 q 1.10937,-2.17188 1.53125,-3.92188 0.4375,-1.76562 0.4375,-3.67187 0,-1.90625 -0.42188,-3.625 -0.42187,-1.73438 -1.54687,-3.98438 l 0.84375,-0.64062 q 1.28125,1.75 1.96875,3.875 0.6875,2.10937 0.6875,4.375 0,2.25 -0.6875,4.39062 -0.6875,2.125 -1.96875,3.85938 z"
       fill-rule="nonzero"
       id="path45" />
    <path
       fill="#ffffff"
       d="m 699.34515,184.19386 q -3,0 -4.78125,-1.96875 l 0.92187,-1.17188 q 0.76563,0.84375 1.78125,1.3125 1.03125,0.45313 2.14063,0.45313 1.34375,0 2.125,-0.59375 0.79687,-0.59375 0.79687,-1.54688 0,-1.48437 -2.3125,-2.10937 -2.73437,-0.73438 -3.5,-1.15625 -0.75,-0.4375 -1.15625,-1.07813 -0.40625,-0.64062 -0.40625,-1.53125 0,-1.5 1.20313,-2.46875 1.20312,-0.98437 3.07812,-0.98437 2.79688,0 4.42188,1.73437 l -0.9375,1.14063 q -1.34375,-1.5 -3.59375,-1.5 -1.125,0 -1.84375,0.54687 -0.71875,0.53125 -0.71875,1.4375 0,0.64063 0.59375,1.10938 0.60937,0.45312 1.73437,0.73437 2.65625,0.71875 3.42188,1.1875 0.78125,0.46875 1.20312,1.15625 0.42188,0.67188 0.42188,1.64063 0,1.71875 -1.25,2.6875 -1.25,0.96875 -3.34375,0.96875 z m 7.54199,-10.51563 q -0.375,0 -0.65625,-0.26562 -0.28125,-0.28125 -0.28125,-0.67188 0,-0.39062 0.28125,-0.67187 0.28125,-0.28125 0.65625,-0.28125 0.39063,0 0.67188,0.28125 0.28125,0.28125 0.28125,0.67187 0,0.39063 -0.28125,0.67188 -0.28125,0.26562 -0.67188,0.26562 z m -0.6875,10.29688 v -9.01563 h 1.39063 v 9.01563 z m 15.07263,0 v -6.125 q 0,-1.85938 -1.67187,-1.85938 -0.70313,0 -1.375,0.42188 -0.65625,0.42187 -1,0.95312 v 6.60938 h -1.40625 v -6.125 q 0,-1.85938 -1.65625,-1.85938 -0.6875,0 -1.34375,0.4375 -0.65625,0.42188 -1.03125,0.96875 v 6.57813 h -1.39063 v -9.01563 h 1.39063 v 1.3125 q 0.3125,-0.54687 1.1875,-1.03125 0.89062,-0.5 1.71875,-0.5 1.04687,0 1.625,0.48438 0.59375,0.48437 0.8125,1.1875 0.45312,-0.71875 1.3125,-1.1875 0.85937,-0.48438 1.70312,-0.48438 2.51563,0 2.51563,2.71875 v 6.51563 z m 10.27741,0 v -1.26563 q -0.53125,0.59375 -1.375,1.04688 -0.82813,0.4375 -1.84375,0.4375 -2.85938,0 -2.85938,-2.875 v -6.35938 h 1.39063 v 5.9375 q 0,1.0625 0.48437,1.5625 0.48438,0.48438 1.53125,0.48438 0.82813,0 1.54688,-0.40625 0.73437,-0.40625 1.125,-0.95313 v -6.625 h 1.39062 v 9.01563 z m 4.20148,0 v -12.4375 h 1.39062 v 12.4375 z m 9.82263,0 v -1.03125 q -1.14063,1.25 -2.98438,1.25 -1.35937,0 -2.26562,-0.85938 -0.89063,-0.85937 -0.89063,-2.125 0,-1.29687 0.89063,-2.125 0.89062,-0.84375 2.26562,-0.84375 1.9375,0 2.98438,1.23438 v -1.625 q 0,-0.90625 -0.64063,-1.39063 -0.64062,-0.5 -1.64062,-0.5 -1.57813,0 -2.75,1.25 l -0.65625,-0.98437 q 1.4375,-1.48438 3.59375,-1.48438 1.67187,0 2.57812,0.8125 0.92188,0.79688 0.92188,2.23438 v 6.1875 z m -2.48438,-0.78125 q 1.67188,0 2.48438,-1.125 v -1.6875 q -0.8125,-1.125 -2.48438,-1.125 -0.98437,0 -1.60937,0.54687 -0.60938,0.54688 -0.60938,1.42188 0,0.85937 0.60938,1.42187 0.625,0.54688 1.60937,0.54688 z m 8.95685,1 q -2,0 -2,-2.10938 v -5.89062 h -1.48437 v -1.23438 h 1.48437 v -2.45312 h 1.40625 v 2.45312 h 1.82813 v 1.23438 h -1.82813 v 5.59375 q 0,0.51562 0.21875,0.84375 0.23438,0.3125 0.70313,0.3125 0.57812,0 0.9375,-0.375 l 0.42187,1.04687 q -0.57812,0.57813 -1.6875,0.57813 z m 3.9068,-10.51563 q -0.375,0 -0.65625,-0.26562 -0.28125,-0.28125 -0.28125,-0.67188 0,-0.39062 0.28125,-0.67187 0.28125,-0.28125 0.65625,-0.28125 0.39063,0 0.67188,0.28125 0.28125,0.28125 0.28125,0.67187 0,0.39063 -0.28125,0.67188 -0.28125,0.26562 -0.67188,0.26562 z m -0.6875,10.29688 v -9.01563 h 1.39063 v 9.01563 z m 8.11957,0.21875 q -1.95313,0 -3.20313,-1.32813 -1.25,-1.32812 -1.25,-3.40625 0,-2.09375 1.25,-3.40625 1.25,-1.3125 3.20313,-1.3125 1.96875,0 3.21875,1.3125 1.25,1.3125 1.25,3.40625 0,2.07813 -1.25,3.40625 -1.25,1.32813 -3.21875,1.32813 z m 0,-1.25 q 1.3125,0 2.15625,-0.96875 0.84375,-0.98438 0.84375,-2.51563 0,-1.51562 -0.84375,-2.48437 -0.84375,-0.98438 -2.15625,-0.98438 -1.29688,0 -2.15625,0.96875 -0.84375,0.96875 -0.84375,2.5 0,1.54688 0.84375,2.51563 0.84375,0.96875 2.15625,0.96875 z m 12.82764,1.03125 v -5.89063 q 0,-1.20312 -0.5625,-1.64062 -0.54688,-0.45313 -1.45313,-0.45313 -0.78125,0 -1.54687,0.42188 -0.75,0.42187 -1.125,0.98437 v 6.57813 h -1.39063 v -9.01563 h 1.39063 v 1.3125 q 0.57812,-0.67187 1.42187,-1.09375 0.85938,-0.4375 1.78125,-0.4375 2.875,0 2.875,2.90625 v 6.32813 z"
       fill-rule="nonzero"
       id="path47" />
    <path
       fill="#353744"
       d="m 389.08023,140.84251 h 74.36728 c 1.8e-4,0 3.7e-4,8e-5 4.9e-4,2.1e-4 1.2e-4,1.3e-4 1.8e-4,3.1e-4 1.8e-4,4.9e-4 l -6.7e-4,42.02013 c 0,4.64161 -3.76276,8.40437 -8.40436,8.40437 h -74.36731 v 0 c -3.6e-4,0 -6.7e-4,-3e-4 -6.7e-4,-6.9e-4 l 6.7e-4,-42.02014 v 0 c 0,-4.6416 3.76279,-8.40437 8.40439,-8.40437 z"
       fill-rule="evenodd"
       id="path49" />
    <path
       stroke="#202729"
       stroke-width="1"
       stroke-linejoin="round"
       stroke-linecap="butt"
       d="m 389.08023,140.84251 h 74.36728 c 1.8e-4,0 3.7e-4,8e-5 4.9e-4,2.1e-4 1.2e-4,1.3e-4 1.8e-4,3.1e-4 1.8e-4,4.9e-4 l -6.7e-4,42.02013 c 0,4.64161 -3.76276,8.40437 -8.40436,8.40437 h -74.36731 v 0 c -3.6e-4,0 -6.7e-4,-3e-4 -6.7e-4,-6.9e-4 l 6.7e-4,-42.02014 v 0 c 0,-4.6416 3.76279,-8.40437 8.40439,-8.40437 z"
       fill-rule="evenodd"
       id="path51" />
    <path
       fill="#ffffff"
       d="m 397.784,163.03886 v 1.35937 h 3.10937 v 6.4375 H 397.784 v 1.35938 h 7.67187 v -1.35938 h -3 v -7.79687 z m 2.90625,-2.40625 q 0,0.39062 0.23437,0.64062 0.23438,0.25 0.70313,0.25 0.46875,0 0.70312,-0.25 0.23438,-0.25 0.23438,-0.64062 0,-0.20313 -0.0625,-0.375 -0.0625,-0.1875 -0.20313,-0.3125 -0.10937,-0.10938 -0.28125,-0.17188 -0.17187,-0.0625 -0.39062,-0.0625 -0.21875,0 -0.39063,0.0625 -0.17187,0.0625 -0.28125,0.17188 -0.14062,0.14062 -0.20312,0.3125 -0.0625,0.17187 -0.0625,0.375 z m 7.24231,11.5625 h 1.5625 v -6.5625 q 0.17187,-0.29688 0.375,-0.54688 0.21875,-0.25 0.48437,-0.42187 0.3125,-0.21875 0.67188,-0.34375 0.375,-0.125 0.8125,-0.125 0.5,0 0.875,0.125 0.39062,0.10937 0.65625,0.375 0.26562,0.26562 0.40625,0.6875 0.14062,0.42187 0.14062,1.03125 v 5.78125 h 1.5625 v -5.8125 q 0,-0.90625 -0.23437,-1.57813 -0.21875,-0.67187 -0.64063,-1.09375 -0.40625,-0.4375 -1,-0.64062 -0.57812,-0.20313 -1.29687,-0.20313 -0.53125,0.0156 -1.01563,0.17188 -0.48437,0.14062 -0.89062,0.40625 -0.26563,0.17187 -0.51563,0.42187 -0.23437,0.23438 -0.4375,0.53125 l -0.10937,-1.35937 h -1.40625 z m 10.39859,3.51562 h 1.5625 v -4.39062 q 0.17187,0.1875 0.35937,0.34375 0.20313,0.15625 0.42188,0.28125 0.35937,0.20312 0.8125,0.3125 0.45312,0.10937 0.96875,0.10937 0.875,0 1.54687,-0.35937 0.67188,-0.35938 1.125,-0.98438 0.45313,-0.625 0.6875,-1.46875 0.25,-0.85937 0.25,-1.82812 v -0.1875 q 0,-1.01563 -0.25,-1.875 -0.23437,-0.85938 -0.6875,-1.48438 -0.45312,-0.60937 -1.14062,-0.95312 -0.67188,-0.35938 -1.54688,-0.35938 -0.5,0 -0.9375,0.10938 -0.4375,0.10937 -0.79687,0.3125 -0.25,0.125 -0.46875,0.32812 -0.21875,0.1875 -0.40625,0.42188 l -0.0781,-1 h -1.42187 z m 6.15625,-8.17187 v 0.1875 q 0,0.65625 -0.15625,1.26562 -0.14063,0.60938 -0.4375,1.07813 -0.3125,0.46875 -0.78125,0.75 -0.46875,0.26562 -1.125,0.26562 -0.40625,0 -0.75,-0.0937 -0.32813,-0.10937 -0.59375,-0.28125 -0.23438,-0.15625 -0.42188,-0.375 -0.1875,-0.21875 -0.32812,-0.46875 v -4.42187 q 0.15625,-0.28125 0.35937,-0.51563 0.21875,-0.23437 0.5,-0.40625 0.23438,-0.15625 0.54688,-0.23437 0.3125,-0.0937 0.67187,-0.0937 0.65625,0 1.125,0.28125 0.48438,0.26562 0.79688,0.71875 0.29687,0.46875 0.4375,1.07812 0.15625,0.59375 0.15625,1.26563 z m 10.27356,4.65625 h 1.42187 v -9.15625 h -1.5625 v 6.5625 q -0.14062,0.29687 -0.32812,0.54687 -0.1875,0.25 -0.4375,0.4375 -0.3125,0.21875 -0.73438,0.34375 -0.40625,0.10938 -0.92187,0.10938 -0.45313,0 -0.79688,-0.10938 -0.34375,-0.125 -0.57812,-0.42187 -0.23438,-0.28125 -0.35938,-0.76563 -0.10937,-0.5 -0.10937,-1.25 v -5.45312 h -1.57813 v 5.4375 q 0,1.03125 0.21875,1.76562 0.23438,0.71875 0.65625,1.20313 0.40625,0.46875 0.98438,0.70312 0.59375,0.21875 1.3125,0.21875 0.89062,0 1.57812,-0.375 0.6875,-0.375 1.14063,-1.0625 z m 8.07046,-11.375 h -1.5625 v 2.21875 h -2.40625 v 1.21875 h 2.40625 v 4.96875 q 0,0.84375 0.21875,1.4375 0.21875,0.59375 0.60938,0.96875 0.39062,0.39062 0.92187,0.5625 0.53125,0.17187 1.14063,0.17187 0.35937,0 0.71875,-0.0469 0.375,-0.0312 0.70312,-0.0937 0.34375,-0.0625 0.60938,-0.14063 0.28125,-0.0937 0.48437,-0.21875 l -0.21875,-1.10937 q -0.15625,0.0469 -0.375,0.0937 -0.21875,0.0469 -0.48437,0.0781 -0.25,0.0469 -0.53125,0.0781 -0.26563,0.0312 -0.51563,0.0312 -0.34375,0 -0.65625,-0.0781 -0.3125,-0.0937 -0.54687,-0.3125 -0.23438,-0.20312 -0.375,-0.54687 -0.14063,-0.34375 -0.14063,-0.875 v -4.96875 h 3.5 v -1.21875 h -3.5 z"
       fill-rule="nonzero"
       id="path53" />
    <path
       fill="#353744"
       d="m 548.60535,140.84251 h 81.13892 c 1.8e-4,0 3.6e-4,9e-5 5.5e-4,2.3e-4 1.2e-4,1.4e-4 1.8e-4,3.2e-4 1.8e-4,5.2e-4 l -7.3e-4,42.02008 c 0,4.64161 -3.76276,8.40437 -8.40436,8.40437 h -81.13898 v 0 c -3.7e-4,0 -7.3e-4,-3.4e-4 -7.3e-4,-7.5e-4 l 7.3e-4,-42.02008 v 0 c 0,-4.6416 3.76282,-8.40437 8.40442,-8.40437 z"
       fill-rule="evenodd"
       id="path55" />
    <path
       stroke="#202729"
       stroke-width="1"
       stroke-linejoin="round"
       stroke-linecap="butt"
       d="m 548.60535,140.84251 h 81.13892 c 1.8e-4,0 3.6e-4,9e-5 5.5e-4,2.3e-4 1.2e-4,1.4e-4 1.8e-4,3.2e-4 1.8e-4,5.2e-4 l -7.3e-4,42.02008 c 0,4.64161 -3.76276,8.40437 -8.40436,8.40437 h -81.13898 v 0 c -3.7e-4,0 -7.3e-4,-3.4e-4 -7.3e-4,-7.5e-4 l 7.3e-4,-42.02008 v 0 c 0,-4.6416 3.76282,-8.40437 8.40442,-8.40437 z"
       fill-rule="evenodd"
       id="path57" />
    <path
       fill="#ffffff"
       d="m 555.4956,163.03886 v 1.35937 h 3.10937 v 6.4375 h -3.10937 v 1.35938 h 7.67187 v -1.35938 h -3 v -7.79687 z m 2.90625,-2.40625 q 0,0.39062 0.23437,0.64062 0.23438,0.25 0.70313,0.25 0.46875,0 0.70312,-0.25 0.23438,-0.25 0.23438,-0.64062 0,-0.20313 -0.0625,-0.375 -0.0625,-0.1875 -0.20313,-0.3125 -0.10937,-0.10938 -0.28125,-0.17188 -0.17187,-0.0625 -0.39062,-0.0625 -0.21875,0 -0.39063,0.0625 -0.17187,0.0625 -0.28125,0.17188 -0.14062,0.14062 -0.20312,0.3125 -0.0625,0.17187 -0.0625,0.375 z m 7.24237,11.5625 h 1.5625 v -6.5625 q 0.17188,-0.29688 0.375,-0.54688 0.21875,-0.25 0.48438,-0.42187 0.3125,-0.21875 0.67187,-0.34375 0.375,-0.125 0.8125,-0.125 0.5,0 0.875,0.125 0.39063,0.10937 0.65625,0.375 0.26563,0.26562 0.40625,0.6875 0.14063,0.42187 0.14063,1.03125 v 5.78125 h 1.5625 v -5.8125 q 0,-0.90625 -0.23438,-1.57813 -0.21875,-0.67187 -0.64062,-1.09375 -0.40625,-0.4375 -1,-0.64062 -0.57813,-0.20313 -1.29688,-0.20313 -0.53125,0.0156 -1.01562,0.17188 -0.48438,0.14062 -0.89063,0.40625 -0.26562,0.17187 -0.51562,0.42187 -0.23438,0.23438 -0.4375,0.53125 l -0.10938,-1.35937 h -1.40625 z m 10.39856,3.51562 h 1.5625 v -4.39062 q 0.17188,0.1875 0.35938,0.34375 0.20312,0.15625 0.42187,0.28125 0.35938,0.20312 0.8125,0.3125 0.45313,0.10937 0.96875,0.10937 0.875,0 1.54688,-0.35937 0.67187,-0.35938 1.125,-0.98438 0.45312,-0.625 0.6875,-1.46875 0.25,-0.85937 0.25,-1.82812 v -0.1875 q 0,-1.01563 -0.25,-1.875 -0.23438,-0.85938 -0.6875,-1.48438 -0.45313,-0.60937 -1.14063,-0.95312 -0.67187,-0.35938 -1.54687,-0.35938 -0.5,0 -0.9375,0.10938 -0.4375,0.10937 -0.79688,0.3125 -0.25,0.125 -0.46875,0.32812 -0.21875,0.1875 -0.40625,0.42188 l -0.0781,-1 h -1.42188 z m 6.15625,-8.17187 v 0.1875 q 0,0.65625 -0.15625,1.26562 -0.14062,0.60938 -0.4375,1.07813 -0.3125,0.46875 -0.78125,0.75 -0.46875,0.26562 -1.125,0.26562 -0.40625,0 -0.75,-0.0937 -0.32812,-0.10937 -0.59375,-0.28125 -0.23437,-0.15625 -0.42187,-0.375 -0.1875,-0.21875 -0.32813,-0.46875 v -4.42187 q 0.15625,-0.28125 0.35938,-0.51563 0.21875,-0.23437 0.5,-0.40625 0.23437,-0.15625 0.54687,-0.23437 0.3125,-0.0937 0.67188,-0.0937 0.65625,0 1.125,0.28125 0.48437,0.26562 0.79687,0.71875 0.29688,0.46875 0.4375,1.07812 0.15625,0.59375 0.15625,1.26563 z m 10.27356,4.65625 h 1.42188 v -9.15625 h -1.5625 v 6.5625 q -0.14063,0.29687 -0.32813,0.54687 -0.1875,0.25 -0.4375,0.4375 -0.3125,0.21875 -0.73437,0.34375 -0.40625,0.10938 -0.92188,0.10938 -0.45312,0 -0.79687,-0.10938 -0.34375,-0.125 -0.57813,-0.42187 -0.23437,-0.28125 -0.35937,-0.76563 -0.10938,-0.5 -0.10938,-1.25 v -5.45312 h -1.57812 v 5.4375 q 0,1.03125 0.21875,1.76562 0.23437,0.71875 0.65625,1.20313 0.40625,0.46875 0.98437,0.70312 0.59375,0.21875 1.3125,0.21875 0.89063,0 1.57813,-0.375 0.6875,-0.375 1.14062,-1.0625 z m 8.07044,-11.375 h -1.5625 v 2.21875 h -2.40625 v 1.21875 h 2.40625 v 4.96875 q 0,0.84375 0.21875,1.4375 0.21875,0.59375 0.60937,0.96875 0.39063,0.39062 0.92188,0.5625 0.53125,0.17187 1.14062,0.17187 0.35938,0 0.71875,-0.0469 0.375,-0.0312 0.70313,-0.0937 0.34375,-0.0625 0.60937,-0.14063 0.28125,-0.0937 0.48438,-0.21875 l -0.21875,-1.10937 q -0.15625,0.0469 -0.375,0.0937 -0.21875,0.0469 -0.48438,0.0781 -0.25,0.0469 -0.53125,0.0781 -0.26562,0.0312 -0.51562,0.0312 -0.34375,0 -0.65625,-0.0781 -0.3125,-0.0937 -0.54688,-0.3125 -0.23437,-0.20312 -0.375,-0.54687 -0.14062,-0.34375 -0.14062,-0.875 v -4.96875 h 3.5 v -1.21875 h -3.5 z m 11.46112,-0.5625 v -1.25 h -1.53125 v 1.28125 q 0,0.71875 -0.20313,1.34375 -0.20312,0.625 -0.59375,1.23437 l 0.84375,0.60938 q 0.35938,-0.3125 0.625,-0.70313 0.28125,-0.39062 0.46875,-0.8125 0.1875,-0.42187 0.28125,-0.85937 0.10938,-0.45313 0.10938,-0.84375 z"
       fill-rule="nonzero"
       id="path59" />
    <path
       fill="#000000"
       fill-opacity="0"
       d="m 463.4475,166.05511 h 76.75592"
       fill-rule="evenodd"
       id="path61" />
    <path
       stroke="#ff5252"
       stroke-width="2"
       stroke-linejoin="round"
       stroke-linecap="butt"
       d="m 463.4475,166.05511 h 64.75592"
       fill-rule="evenodd"
       id="path63" />
    <path
       fill="#ff5252"
       stroke="#ff5252"
       stroke-width="2"
       stroke-linecap="butt"
       d="m 528.2034,169.35858 9.07617,-3.30347 -9.07617,-3.30346 z"
       fill-rule="evenodd"
       id="path65" />
    <path
       fill="#000000"
       fill-opacity="0"
       d="m 462.00394,128.4042 h 78.29923 v 42.01575 h -78.29923 z"
       fill-rule="evenodd"
       id="path67" />
    <path
       fill="#000000"
       d="m 484.90845,155.3242 v -10.25 l -4.23437,10.25 h -0.64063 l -4.21875,-10.25 v 10.25 h -1.54687 v -12.4375 h 2.21875 l 3.85937,9.35937 3.89063,-9.35937 h 2.21875 v 12.4375 z m 10.48352,0 v -1.26563 q -0.53125,0.59375 -1.375,1.04688 -0.82812,0.4375 -1.84375,0.4375 -2.85937,0 -2.85937,-2.875 v -6.35938 h 1.39062 v 5.9375 q 0,1.0625 0.48438,1.5625 0.48437,0.48438 1.53125,0.48438 0.82812,0 1.54687,-0.40625 0.73438,-0.40625 1.125,-0.95313 v -6.625 h 1.39063 v 9.01563 z m 6.4671,0.21875 q -2,0 -2,-2.10938 v -5.89062 h -1.48437 v -1.23438 h 1.48437 v -2.45312 h 1.40625 v 2.45312 h 1.82813 v 1.23438 h -1.82813 v 5.59375 q 0,0.51562 0.21875,0.84375 0.23438,0.3125 0.70313,0.3125 0.57812,0 0.9375,-0.375 l 0.42187,1.04687 q -0.57812,0.57813 -1.6875,0.57813 z m 8.84433,-0.21875 v -1.03125 q -1.14062,1.25 -2.98437,1.25 -1.35938,0 -2.26563,-0.85938 -0.89062,-0.85937 -0.89062,-2.125 0,-1.29687 0.89062,-2.125 0.89063,-0.84375 2.26563,-0.84375 1.9375,0 2.98437,1.23438 v -1.625 q 0,-0.90625 -0.64062,-1.39063 -0.64063,-0.5 -1.64063,-0.5 -1.57812,0 -2.75,1.25 l -0.65625,-0.98437 q 1.4375,-1.48438 3.59375,-1.48438 1.67188,0 2.57813,0.8125 0.92184,0.79688 0.92184,2.23438 v 6.1875 z m -2.48437,-0.78125 q 1.67187,0 2.48437,-1.125 v -1.6875 q -0.8125,-1.125 -2.48437,-1.125 -0.98438,0 -1.60938,0.54687 -0.60937,0.54688 -0.60937,1.42188 0,0.85937 0.60937,1.42187 0.625,0.54688 1.60938,0.54688 z m 8.95682,1 q -2,0 -2,-2.10938 v -5.89062 h -1.48438 v -1.23438 h 1.48438 v -2.45312 h 1.40625 v 2.45312 h 1.82812 v 1.23438 h -1.82812 v 5.59375 q 0,0.51562 0.21875,0.84375 0.23437,0.3125 0.70312,0.3125 0.57813,0 0.9375,-0.375 l 0.42188,1.04687 q -0.57813,0.57813 -1.6875,0.57813 z m 7.28186,0 q -2.03125,0 -3.3125,-1.3125 -1.28125,-1.32813 -1.28125,-3.42188 0,-2 1.26562,-3.35937 1.28125,-1.35938 3.17188,-1.35938 1.9375,0 3.125,1.34375 1.20312,1.34375 1.20312,3.48438 v 0.35937 h -7.29687 q 0.0781,1.375 1,2.25 0.92187,0.85938 2.25,0.85938 1.64062,0 2.78125,-1.14063 l 0.67187,0.92188 q -1.375,1.375 -3.57812,1.375 z m 2.79687,-5.29688 q 0,-1.25 -0.82812,-2.125 -0.8125,-0.875 -2.14063,-0.875 -1.25,0 -2.07812,0.875 -0.82813,0.875 -0.875,2.125 z"
       fill-rule="nonzero"
       id="path69" />
    <path
       fill="#000000"
       fill-opacity="0"
       d="m 629.74426,166.05511 h 26.48816"
       fill-rule="evenodd"
       id="path71" />
    <path
       stroke="#ff5252"
       stroke-width="2"
       stroke-linejoin="round"
       stroke-linecap="butt"
       d="m 629.74426,166.05511 h 14.48816"
       fill-rule="evenodd"
       id="path73" />
    <path
       fill="#ff5252"
       stroke="#ff5252"
       stroke-width="2"
       stroke-linecap="butt"
       d="m 644.2324,169.35858 9.07623,-3.30347 -9.07623,-3.30346 z"
       fill-rule="evenodd"
       id="path75" />
    <path
       fill="#353744"
       d="m 626.5422,232.04199 h 121.57989 c 2.5e-4,0 5.5e-4,1.2e-4 7.4e-4,3.2e-4 1.8e-4,2e-4 3e-4,4.7e-4 3e-4,7.6e-4 l -10e-4,42.01976 c 0,4.6416 -3.76275,8.40436 -8.40441,8.40436 H 618.13784 v 0 c -6.1e-4,0 -10e-4,-4.9e-4 -10e-4,-0.001 l 10e-4,-42.01973 v 0 c 0,-4.6416 3.76276,-8.40437 8.40436,-8.40437 z"
       fill-rule="evenodd"
       id="path77" />
    <path
       stroke="#202729"
       stroke-width="1"
       stroke-linejoin="round"
       stroke-linecap="butt"
       d="m 626.5422,232.04199 h 121.57989 c 2.5e-4,0 5.5e-4,1.2e-4 7.4e-4,3.2e-4 1.8e-4,2e-4 3e-4,4.7e-4 3e-4,7.6e-4 l -10e-4,42.01976 c 0,4.6416 -3.76275,8.40436 -8.40441,8.40436 H 618.13784 v 0 c -6.1e-4,0 -10e-4,-4.9e-4 -10e-4,-0.001 l 10e-4,-42.01973 v 0 c 0,-4.6416 3.76276,-8.40437 8.40436,-8.40437 z"
       fill-rule="evenodd"
       id="path79" />
    <path
       fill="#ffffff"
       d="m 643.8938,253.17459 v -12.4375 h 8.15625 v 1.375 h -6.60937 v 4.01562 h 6.48437 v 1.375 h -6.48437 v 5.67188 z m 14.27655,0.21875 q -2.03125,0 -3.3125,-1.3125 -1.28125,-1.32813 -1.28125,-3.42188 0,-2 1.26563,-3.35937 1.28125,-1.35938 3.17187,-1.35938 1.9375,0 3.125,1.34375 1.20313,1.34375 1.20313,3.48438 v 0.35937 h -7.29688 q 0.0781,1.375 1,2.25 0.92188,0.85938 2.25,0.85938 1.64063,0 2.78125,-1.14063 l 0.67188,0.92188 q -1.375,1.375 -3.57813,1.375 z m 2.79688,-5.29688 q 0,-1.25 -0.82813,-2.125 -0.8125,-0.875 -2.14062,-0.875 -1.25,0 -2.07813,0.875 -0.82812,0.875 -0.875,2.125 z m 7.7066,5.29688 q -2.03125,0 -3.3125,-1.3125 -1.28125,-1.32813 -1.28125,-3.42188 0,-2 1.26562,-3.35937 1.28125,-1.35938 3.17188,-1.35938 1.9375,0 3.125,1.34375 1.20312,1.34375 1.20312,3.48438 v 0.35937 h -7.29687 q 0.0781,1.375 1,2.25 0.92187,0.85938 2.25,0.85938 1.64062,0 2.78125,-1.14063 l 0.67187,0.92188 q -1.375,1.375 -3.57812,1.375 z m 2.79687,-5.29688 q 0,-1.25 -0.82812,-2.125 -0.8125,-0.875 -2.14063,-0.875 -1.25,0 -2.07812,0.875 -0.82813,0.875 -0.875,2.125 z m 10.15967,5.07813 v -1.34375 q -0.5,0.6875 -1.29687,1.125 -0.78125,0.4375 -1.73438,0.4375 -1.8125,0 -2.92187,-1.28125 -1.09375,-1.28125 -1.09375,-3.4375 0,-2.15625 1.10937,-3.4375 1.10938,-1.29688 2.90625,-1.29688 0.90625,0 1.70313,0.42188 0.79687,0.42187 1.32812,1.15625 v -4.78125 h 1.40625 v 12.4375 z m -2.70312,-1.03125 q 0.84375,0 1.59375,-0.40625 0.75,-0.40625 1.10937,-1 v -4.09375 q -0.35937,-0.59375 -1.10937,-1.01563 -0.75,-0.4375 -1.59375,-0.4375 -1.29688,0 -2.09375,0.95313 -0.79688,0.95312 -0.79688,2.53125 0,1.54687 0.78125,2.51562 0.79688,0.95313 2.10938,0.95313 z m 8.30548,-1.40625 q 0.375,0.59375 1.10937,1 0.73438,0.40625 1.57813,0.40625 1.32812,0 2.10937,-0.95313 0.79688,-0.96875 0.79688,-2.51562 0,-1.5625 -0.78125,-2.51563 -0.78125,-0.96875 -2.125,-0.96875 -0.84375,0 -1.57813,0.4375 -0.73437,0.42188 -1.10937,1.01563 z m -1.39063,2.4375 v -12.4375 h 1.39063 v 4.78125 q 1.15625,-1.57813 3.04687,-1.57813 1.78125,0 2.89063,1.3125 1.10937,1.29688 1.10937,3.42188 0,2.17187 -1.10937,3.45312 -1.10938,1.26563 -2.89063,1.26563 -0.95312,0 -1.75,-0.4375 -0.79687,-0.4375 -1.29687,-1.125 v 1.34375 z m 16.35236,0 v -1.03125 q -1.14063,1.25 -2.98438,1.25 -1.35937,0 -2.26562,-0.85938 -0.89063,-0.85937 -0.89063,-2.125 0,-1.29687 0.89063,-2.125 0.89062,-0.84375 2.26562,-0.84375 1.9375,0 2.98438,1.23438 v -1.625 q 0,-0.90625 -0.64063,-1.39063 -0.64062,-0.5 -1.64062,-0.5 -1.57813,0 -2.75,1.25 l -0.65625,-0.98437 q 1.4375,-1.48438 3.59375,-1.48438 1.67187,0 2.57812,0.8125 0.92188,0.79688 0.92188,2.23438 v 6.1875 z m -2.48438,-0.78125 q 1.67188,0 2.48438,-1.125 v -1.6875 q -0.8125,-1.125 -2.48438,-1.125 -0.98437,0 -1.60937,0.54687 -0.60938,0.54688 -0.60938,1.42188 0,0.85937 0.60938,1.42187 0.625,0.54688 1.60937,0.54688 z m 10.65998,1 q -1.98438,0 -3.25,-1.34375 -1.25,-1.34375 -1.25,-3.39063 0,-2.03125 1.25,-3.375 1.26562,-1.34375 3.25,-1.34375 2.09375,0 3.29687,1.5625 l -0.92187,0.85938 q -0.85938,-1.17188 -2.29688,-1.17188 -1.39062,0 -2.26562,0.96875 -0.85938,0.95313 -0.85938,2.5 0,1.5625 0.85938,2.53125 0.85937,0.95313 2.26562,0.95313 1.40625,0 2.29688,-1.17188 l 0.92187,0.85938 q -1.20312,1.5625 -3.29687,1.5625 z m 11.39111,-0.21875 -3.23437,-4.04688 -1.5,1.46875 v 2.57813 h -1.39063 v -12.4375 h 1.39063 v 8.21875 l 4.73437,-4.79688 h 1.78125 l -4,4.09375 4.01563,4.92188 z"
       fill-rule="nonzero"
       id="path81" />
    <path
       fill="#ffffff"
       d="m 670.0853,275.1746 v -6.125 q 0,-1.85938 -1.67188,-1.85938 -0.70312,0 -1.375,0.42188 -0.65625,0.42187 -1,0.95312 v 6.60938 h -1.40625 v -6.125 q 0,-1.85938 -1.65625,-1.85938 -0.6875,0 -1.34375,0.4375 -0.65625,0.42188 -1.03125,0.96875 v 6.57813 h -1.39062 v -9.01563 h 1.39062 v 1.3125 q 0.3125,-0.54687 1.1875,-1.03125 0.89063,-0.5 1.71875,-0.5 1.04688,0 1.625,0.48438 0.59375,0.48437 0.8125,1.1875 0.45313,-0.71875 1.3125,-1.1875 0.85938,-0.48438 1.70313,-0.48438 2.51562,0 2.51562,2.71875 v 6.51563 z m 8.26172,0.21875 q -2.03125,0 -3.3125,-1.3125 -1.28125,-1.32813 -1.28125,-3.42188 0,-2 1.26562,-3.35937 1.28125,-1.35938 3.17188,-1.35938 1.9375,0 3.125,1.34375 1.20312,1.34375 1.20312,3.48438 v 0.35937 h -7.29687 q 0.0781,1.375 1,2.25 0.92187,0.85938 2.25,0.85938 1.64062,0 2.78125,-1.14063 l 0.67187,0.92188 q -1.375,1.375 -3.57812,1.375 z m 2.79687,-5.29688 q 0,-1.25 -0.82812,-2.125 -0.8125,-0.875 -2.14063,-0.875 -1.25,0 -2.07812,0.875 -0.82813,0.875 -0.875,2.125 z m 5.90973,5.29688 q -2,0 -2,-2.10938 v -5.89062 h -1.48437 v -1.23438 h 1.48437 v -2.45312 h 1.40625 v 2.45312 h 1.82813 v 1.23438 h -1.82813 v 5.59375 q 0,0.51562 0.21875,0.84375 0.23438,0.3125 0.70313,0.3125 0.57812,0 0.9375,-0.375 l 0.42187,1.04687 q -0.57812,0.57813 -1.6875,0.57813 z m 3.2193,-0.21875 v -9.01563 h 1.39063 v 1.45313 q 1.25,-1.64063 3,-1.64063 v 1.4375 l -0.54688,-0.0469 q -0.64062,0 -1.40625,0.45312 -0.76562,0.45313 -1.04687,0.98438 v 6.375 z m 6.84406,-10.29688 q -0.375,0 -0.65625,-0.26562 -0.28125,-0.28125 -0.28125,-0.67188 0,-0.39062 0.28125,-0.67187 0.28125,-0.28125 0.65625,-0.28125 0.39062,0 0.67187,0.28125 0.28125,0.28125 0.28125,0.67187 0,0.39063 -0.28125,0.67188 -0.28125,0.26562 -0.67187,0.26562 z m -0.6875,10.29688 v -9.01563 h 1.39062 v 9.01563 z m 8.16644,0.21875 q -1.98437,0 -3.25,-1.34375 -1.25,-1.34375 -1.25,-3.39063 0,-2.03125 1.25,-3.375 1.26563,-1.34375 3.25,-1.34375 2.09375,0 3.29688,1.5625 l -0.92188,0.85938 q -0.85937,-1.17188 -2.29687,-1.17188 -1.39063,0 -2.26563,0.96875 -0.85937,0.95313 -0.85937,2.5 0,1.5625 0.85937,2.53125 0.85938,0.95313 2.26563,0.95313 1.40625,0 2.29687,-1.17188 l 0.92188,0.85938 q -1.20313,1.5625 -3.29688,1.5625 z"
       fill-rule="nonzero"
       id="path83" />
    <path
       fill="#63d297"
       d="m 433.9567,257.2546 73.90552,-38.86615 73.90549,38.86615 -73.90549,38.86612 z"
       fill-rule="evenodd"
       id="path85" />
    <path
       stroke="#4ba173"
       stroke-width="1"
       stroke-linejoin="round"
       stroke-linecap="butt"
       d="m 433.9567,257.2546 73.90552,-38.86615 73.90549,38.86615 -73.90549,38.86612 z"
       fill-rule="evenodd"
       id="path87" />
    <path
       fill="#000000"
       d="m 485.39383,264.39334 q -3,0 -4.78125,-1.96875 l 0.92187,-1.17187 q 0.76563,0.84375 1.78125,1.3125 1.03125,0.45312 2.14063,0.45312 1.34375,0 2.125,-0.59375 0.79687,-0.59375 0.79687,-1.54687 0,-1.48438 -2.3125,-2.10938 -2.73437,-0.73437 -3.5,-1.15625 -0.75,-0.4375 -1.15625,-1.07812 -0.40625,-0.64063 -0.40625,-1.53125 0,-1.5 1.20313,-2.46875 1.20312,-0.98438 3.07812,-0.98438 2.79688,0 4.42188,1.73438 l -0.9375,1.14062 q -1.34375,-1.5 -3.59375,-1.5 -1.125,0 -1.84375,0.54688 -0.71875,0.53125 -0.71875,1.4375 0,0.64062 0.59375,1.10937 0.60937,0.45313 1.73437,0.73438 2.65625,0.71875 3.42188,1.1875 0.78125,0.46875 1.20312,1.15625 0.42188,0.67187 0.42188,1.64062 0,1.71875 -1.25,2.6875 -1.25,0.96875 -3.34375,0.96875 z m 12.47943,-0.21875 v -1.03125 q -1.14062,1.25 -2.98437,1.25 -1.35938,0 -2.26563,-0.85937 -0.89062,-0.85938 -0.89062,-2.125 0,-1.29688 0.89062,-2.125 0.89063,-0.84375 2.26563,-0.84375 1.9375,0 2.98437,1.23437 v -1.625 q 0,-0.90625 -0.64062,-1.39062 -0.64063,-0.5 -1.64063,-0.5 -1.57812,0 -2.75,1.25 l -0.65625,-0.98438 q 1.4375,-1.48437 3.59375,-1.48437 1.67188,0 2.57813,0.8125 0.92187,0.79687 0.92187,2.23437 v 6.1875 z m -2.48437,-0.78125 q 1.67187,0 2.48437,-1.125 v -1.6875 q -0.8125,-1.125 -2.48437,-1.125 -0.98438,0 -1.60938,0.54688 -0.60937,0.54687 -0.60937,1.42187 0,0.85938 0.60937,1.42188 0.625,0.54687 1.60938,0.54687 z m 9.09747,0.78125 -3.75,-9.01562 h 1.5 l 3.01562,7.39062 2.98438,-7.39062 h 1.51562 l -3.75,9.01562 z m 10.79782,0.21875 q -2.03125,0 -3.3125,-1.3125 -1.28125,-1.32812 -1.28125,-3.42187 0,-2 1.26562,-3.35938 1.28125,-1.35937 3.17188,-1.35937 1.9375,0 3.125,1.34375 1.20312,1.34375 1.20312,3.48437 v 0.35938 h -7.29687 q 0.0781,1.375 1,2.25 0.92187,0.85937 2.25,0.85937 1.64062,0 2.78125,-1.14062 l 0.67187,0.92187 q -1.375,1.375 -3.57812,1.375 z m 2.79687,-5.29687 q 0,-1.25 -0.82812,-2.125 -0.8125,-0.875 -2.14063,-0.875 -1.25,0 -2.07812,0.875 -0.82813,0.875 -0.875,2.125 z m 6.01911,1.625 q -0.71875,-0.60938 -0.71875,-1.51563 0,-0.6875 0.39062,-1.25 0.40625,-0.57812 1.29688,-1.17187 0.90625,-0.57813 1.29687,-1.0625 0.39063,-0.48438 0.39063,-1.0625 0,-0.70313 -0.54688,-1.21875 -0.53125,-0.51563 -1.65625,-0.51563 -1.8125,0 -2.96875,1.53125 l -0.9375,-1.01562 q 1.46875,-1.89063 4.0625,-1.89063 1.60938,0 2.625,0.8125 1.03125,0.8125 1.03125,2.07813 0,1.57812 -1.8125,2.8125 -1.0625,0.73437 -1.4375,1.17187 -0.375,0.42188 -0.375,0.90625 0,0.51563 0.5,0.90625 z m 0.39062,3.64062 q -0.42187,0 -0.71875,-0.29687 -0.29687,-0.29688 -0.29687,-0.73438 0,-0.42187 0.29687,-0.71875 0.29688,-0.29687 0.71875,-0.29687 0.4375,0 0.73438,0.29687 0.29687,0.29688 0.29687,0.71875 0,0.4375 -0.29687,0.73438 -0.29688,0.29687 -0.73438,0.29687 z"
       fill-rule="nonzero"
       id="path89" />
    <path
       fill="#63d297"
       d="m 324.10104,202.06299 h 62.19162 v 0 h 26.65353 17.76902 v 21.14699 l 35.71148,17.12857 -35.71148,-8.06558 v 6.04199 h -17.76902 -26.65353 v 0 h -62.19162 v -6.04199 -9.06299 0 z"
       fill-rule="evenodd"
       id="path91" />
    <path
       stroke="#4ba173"
       stroke-width="1"
       stroke-linejoin="round"
       stroke-linecap="butt"
       d="m 324.10104,202.06299 h 62.19162 v 0 h 26.65353 17.76902 v 21.14699 l 35.71148,17.12857 -35.71148,-8.06558 v 6.04199 h -17.76902 -26.65353 v 0 h -62.19162 v -6.04199 -9.06299 0 z"
       fill-rule="evenodd"
       id="path93" />
    <path
       fill="#000000"
       d="m 336.6323,217.8496 q -1.9375,0 -3.07813,-1.26563 l 0.59375,-0.76562 q 0.48438,0.5625 1.14063,0.85937 0.67187,0.28125 1.375,0.28125 0.85937,0 1.375,-0.375 0.51562,-0.39062 0.51562,-1 0,-0.95312 -1.5,-1.35937 -1.75,-0.46875 -2.25,-0.73438 -0.48437,-0.28125 -0.75,-0.6875 -0.25,-0.42187 -0.25,-1 0,-0.95312 0.76563,-1.57812 0.78125,-0.64063 1.98437,-0.64063 1.79688,0 2.84375,1.10938 l -0.59375,0.73437 q -0.85937,-0.95312 -2.3125,-0.95312 -0.73437,0 -1.20312,0.34375 -0.45313,0.34375 -0.45313,0.92187 0,0.42188 0.39063,0.71875 0.39062,0.29688 1.10937,0.46875 1.70313,0.46875 2.20313,0.78125 0.5,0.29688 0.76562,0.73438 0.28125,0.4375 0.28125,1.0625 0,1.09375 -0.8125,1.71875 -0.79687,0.625 -2.14062,0.625 z m 6.93829,0 q -1.26562,0 -2.07812,-0.85938 -0.79688,-0.85937 -0.79688,-2.1875 0,-1.34375 0.79688,-2.1875 0.8125,-0.84375 2.07812,-0.84375 1.25,0 2.04688,0.84375 0.8125,0.84375 0.8125,2.1875 0,1.32813 -0.8125,2.1875 -0.79688,0.85938 -2.04688,0.85938 z m 0,-0.79688 q 0.82813,0 1.375,-0.625 0.54688,-0.64062 0.54688,-1.625 0,-0.96875 -0.54688,-1.59375 -0.54687,-0.64062 -1.375,-0.64062 -0.84375,0 -1.39062,0.625 -0.54688,0.625 -0.54688,1.60937 0,1 0.53125,1.625 0.54688,0.625 1.40625,0.625 z m 11.31717,0.65625 v -3.9375 q 0,-1.20312 -1.0625,-1.20312 -0.45312,0 -0.89062,0.28125 -0.42188,0.26562 -0.64063,0.60937 v 4.25 h -0.90625 v -3.9375 q 0,-1.20312 -1.0625,-1.20312 -0.45312,0 -0.875,0.28125 -0.40625,0.28125 -0.65625,0.625 v 4.23437 h -0.89062 v -5.79687 h 0.89062 v 0.84375 q 0.20313,-0.34375 0.76563,-0.65625 0.5625,-0.32813 1.10937,-0.32813 0.67188,0 1.04688,0.3125 0.375,0.3125 0.51562,0.76563 0.29688,-0.46875 0.84375,-0.76563 0.5625,-0.3125 1.09375,-0.3125 1.625,0 1.625,1.75 v 4.1875 z m 5.32108,0.14063 q -1.3125,0 -2.14063,-0.84375 -0.8125,-0.85938 -0.8125,-2.20313 0,-1.28125 0.8125,-2.15625 0.82813,-0.875 2.04688,-0.875 1.25,0 2.01562,0.85938 0.76563,0.85937 0.76563,2.25 v 0.21875 h -4.6875 q 0.0469,0.89062 0.64062,1.45312 0.59375,0.5625 1.4375,0.5625 1.0625,0 1.79688,-0.73437 l 0.42187,0.57812 q -0.875,0.89063 -2.29687,0.89063 z m 1.79687,-3.40625 q 0,-0.79688 -0.53125,-1.35938 -0.51562,-0.57812 -1.375,-0.57812 -0.79687,0 -1.34375,0.57812 -0.53125,0.5625 -0.54687,1.35938 z m 3.80292,3.40625 q -1.28125,0 -1.28125,-1.35938 v -3.78125 h -0.95312 v -0.79687 h 0.95312 v -1.57813 h 0.90625 v 1.57813 h 1.17188 v 0.79687 h -1.17188 v 3.59375 q 0,0.32813 0.14063,0.54688 0.14062,0.20312 0.4375,0.20312 0.375,0 0.625,-0.25 l 0.25,0.67188 q -0.35938,0.375 -1.07813,0.375 z m 5.9968,-0.14063 v -3.8125 q 0,-0.65625 -0.3125,-0.98437 -0.29688,-0.34375 -1,-0.34375 -0.48438,0 -0.95313,0.26562 -0.46875,0.25 -0.76562,0.64063 v 4.23437 h -0.89063 v -8 h 0.89063 v 3.04688 q 0.39062,-0.45313 0.9375,-0.71875 0.54687,-0.26563 1.14062,-0.26563 1.84375,0 1.84375,1.84375 v 4.09375 z m 3.13968,-6.625 q -0.23438,0 -0.42188,-0.17187 -0.17187,-0.17188 -0.17187,-0.42188 0,-0.25 0.17187,-0.4375 0.1875,-0.1875 0.42188,-0.1875 0.25,0 0.42187,0.1875 0.1875,0.1875 0.1875,0.4375 0,0.25 -0.1875,0.42188 -0.17187,0.17187 -0.42187,0.17187 z m -0.4375,6.625 v -5.79687 h 0.89062 v 5.79687 z m 6.60626,0 v -3.79687 q 0,-0.76563 -0.35938,-1.04688 -0.34375,-0.29687 -0.9375,-0.29687 -0.5,0 -0.98437,0.28125 -0.48438,0.26562 -0.73438,0.625 v 4.23437 h -0.89062 v -5.79687 h 0.89062 v 0.84375 q 0.375,-0.4375 0.92188,-0.70313 0.54687,-0.28125 1.14062,-0.28125 1.85938,0 1.85938,1.875 v 4.0625 z m 5.0339,2.3594 q -0.75,0 -1.29687,-0.1875 -0.53125,-0.1875 -1.04688,-0.6875 l 0.45313,-0.67188 q 0.35937,0.4375 0.8125,0.60938 0.45312,0.1875 1.07812,0.1875 0.875,0 1.35938,-0.46875 0.5,-0.45313 0.5,-1.26565 v -0.82812 q -0.3125,0.4375 -0.82813,0.73437 -0.51562,0.29688 -1.125,0.29688 -1.17187,0 -1.875,-0.82813 -0.70312,-0.82812 -0.70312,-2.17187 0,-1.39063 0.70312,-2.20313 0.71875,-0.8125 1.875,-0.8125 1.20313,0 1.95313,1.01563 v -0.875 h 0.89062 v 5.625 q 0,1.23439 -0.71875,1.87502 -0.71875,0.65625 -2.03125,0.65625 z m 0.125,-3.07815 q 0.5,0 0.98438,-0.26562 0.48437,-0.26563 0.75,-0.6875 v -2.53125 q -0.26563,-0.42188 -0.76563,-0.67188 -0.48437,-0.26562 -0.96875,-0.26562 -0.84375,0 -1.35937,0.625 -0.5,0.60937 -0.5,1.59375 0,0.98437 0.51562,1.59375 0.51563,0.60937 1.34375,0.60937 z m 11.4372,0.71875 v -3.79687 q 0,-0.76563 -0.35938,-1.04688 -0.34375,-0.29687 -0.9375,-0.29687 -0.5,0 -0.98437,0.28125 -0.48438,0.26562 -0.73438,0.625 v 4.23437 h -0.89062 v -5.79687 h 0.89062 v 0.84375 q 0.375,-0.4375 0.92188,-0.70313 0.54687,-0.28125 1.14062,-0.28125 1.85938,0 1.85938,1.875 v 4.0625 z m 5.31518,0.14063 q -1.3125,0 -2.14062,-0.84375 -0.8125,-0.85938 -0.8125,-2.20313 0,-1.28125 0.8125,-2.15625 0.82812,-0.875 2.04687,-0.875 1.25,0 2.01563,0.85938 0.76562,0.85937 0.76562,2.25 v 0.21875 h -4.6875 q 0.0469,0.89062 0.64063,1.45312 0.59375,0.5625 1.4375,0.5625 1.0625,0 1.79687,-0.73437 l 0.42188,0.57812 q -0.875,0.89063 -2.29688,0.89063 z m 1.79688,-3.40625 q 0,-0.79688 -0.53125,-1.35938 -0.51563,-0.57812 -1.375,-0.57812 -0.79688,0 -1.34375,0.57812 -0.53125,0.5625 -0.54688,1.35938 z m 7.36542,3.26562 -1.51563,-4.65625 -1.51562,4.65625 h -0.90625 l -1.84375,-5.79687 h 0.9375 l 1.42187,4.625 1.51563,-4.625 h 0.76562 l 1.53125,4.625 1.42188,-4.625 h 0.92187 l -1.84375,5.79687 z"
       fill-rule="nonzero"
       id="path95" />
    <path
       fill="#000000"
       d="m 337.6323,231.70898 v -0.65625 q -0.73438,0.79687 -1.92188,0.79687 -0.875,0 -1.45312,-0.54687 -0.57813,-0.54688 -0.57813,-1.375 0,-0.82813 0.5625,-1.35938 0.57813,-0.54687 1.46875,-0.54687 1.25,0 1.92188,0.79687 v -1.04687 q 0,-0.59375 -0.42188,-0.90625 -0.40625,-0.3125 -1.04687,-0.3125 -1.01563,0 -1.78125,0.79687 l -0.42188,-0.625 q 0.92188,-0.95312 2.32813,-0.95312 1.0625,0 1.64062,0.51562 0.59375,0.51563 0.59375,1.4375 v 3.98438 z m -1.60938,-0.5 q 1.07813,0 1.60938,-0.71875 v -1.09375 q -0.53125,-0.71875 -1.60938,-0.71875 -0.625,0 -1.03125,0.35937 -0.39062,0.34375 -0.39062,0.90625 0,0.54688 0.39062,0.90625 0.40625,0.35938 1.03125,0.35938 z m 8.2147,0.5 v -3.79688 q 0,-0.76562 -0.35938,-1.04687 -0.34375,-0.29688 -0.9375,-0.29688 -0.5,0 -0.98437,0.28125 -0.48438,0.26563 -0.73438,0.625 v 4.23438 h -0.89062 v -5.79688 h 0.89062 v 0.84375 q 0.375,-0.4375 0.92188,-0.70312 0.54687,-0.28125 1.14062,-0.28125 1.85938,0 1.85938,1.875 v 4.0625 z m 6.89328,0 v -0.85938 q -0.3125,0.4375 -0.82813,0.71875 -0.51562,0.28125 -1.125,0.28125 -1.15625,0 -1.875,-0.82812 -0.70312,-0.82813 -0.70312,-2.20313 0,-1.39062 0.70312,-2.21875 0.71875,-0.82812 1.875,-0.82812 0.59375,0 1.09375,0.26562 0.51563,0.26563 0.85938,0.75 v -3.07812 h 0.90625 v 8 z m -1.73438,-0.65625 q 0.54688,0 1.01563,-0.26563 0.48437,-0.26562 0.71875,-0.65625 v -2.625 q -0.23438,-0.375 -0.71875,-0.65625 -0.46875,-0.28125 -1.01563,-0.28125 -0.84375,0 -1.35937,0.625 -0.5,0.60938 -0.5,1.625 0,1 0.5,1.625 0.51562,0.60938 1.35937,0.60938 z m 7.98047,-5.96875 q -0.23438,0 -0.42188,-0.17188 -0.17187,-0.17187 -0.17187,-0.42187 0,-0.25 0.17187,-0.4375 0.1875,-0.1875 0.42188,-0.1875 0.25,0 0.42187,0.1875 0.1875,0.1875 0.1875,0.4375 0,0.25 -0.1875,0.42187 -0.17187,0.17188 -0.42187,0.17188 z m -0.4375,6.625 v -5.79688 h 0.89062 v 5.79688 z m 6.60626,0 v -3.79688 q 0,-0.76562 -0.35937,-1.04687 -0.34375,-0.29688 -0.9375,-0.29688 -0.5,0 -0.98438,0.28125 -0.48437,0.26563 -0.73437,0.625 v 4.23438 h -0.89063 v -5.79688 h 0.89063 v 0.84375 q 0.375,-0.4375 0.92187,-0.70312 0.54688,-0.28125 1.14063,-0.28125 1.85937,0 1.85937,1.875 v 4.0625 z m 4.15891,0.14062 q -1.28125,0 -1.28125,-1.35937 v -3.78125 h -0.95313 v -0.79688 h 0.95313 v -1.57812 h 0.90625 v 1.57812 h 1.17187 v 0.79688 h -1.17187 v 3.59375 q 0,0.32812 0.14062,0.54687 0.14063,0.20313 0.4375,0.20313 0.375,0 0.625,-0.25 l 0.25,0.67187 q -0.35937,0.375 -1.07812,0.375 z m 4.68429,0 q -1.3125,0 -2.14062,-0.84375 -0.8125,-0.85937 -0.8125,-2.20312 0,-1.28125 0.8125,-2.15625 0.82812,-0.875 2.04687,-0.875 1.25,0 2.01563,0.85937 0.76562,0.85938 0.76562,2.25 v 0.21875 h -4.6875 q 0.0469,0.89063 0.64063,1.45313 0.59375,0.5625 1.4375,0.5625 1.0625,0 1.79687,-0.73438 l 0.42188,0.57813 q -0.875,0.89062 -2.29688,0.89062 z m 1.79688,-3.40625 q 0,-0.79687 -0.53125,-1.35937 -0.51563,-0.57813 -1.375,-0.57813 -0.79688,0 -1.34375,0.57813 -0.53125,0.5625 -0.54688,1.35937 z m 2.34979,3.26563 v -5.79688 h 0.89062 v 0.9375 q 0.8125,-1.0625 1.9375,-1.0625 v 0.9375 l -0.35937,-0.0469 q -0.40625,0 -0.90625,0.29687 -0.48438,0.29688 -0.67188,0.625 v 4.10938 z m 6.5694,0.14062 q -1.3125,0 -2.14063,-0.84375 -0.8125,-0.85937 -0.8125,-2.20312 0,-1.28125 0.8125,-2.15625 0.82813,-0.875 2.04688,-0.875 1.25,0 2.01562,0.85937 0.76563,0.85938 0.76563,2.25 v 0.21875 h -4.6875 q 0.0469,0.89063 0.64062,1.45313 0.59375,0.5625 1.4375,0.5625 1.0625,0 1.79688,-0.73438 l 0.42187,0.57813 q -0.875,0.89062 -2.29687,0.89062 z m 1.79687,-3.40625 q 0,-0.79687 -0.53125,-1.35937 -0.51562,-0.57813 -1.375,-0.57813 -0.79687,0 -1.34375,0.57813 -0.53125,0.5625 -0.54687,1.35937 z m 4.17792,3.40625 q -1.46875,0 -2.34375,-0.90625 l 0.46875,-0.65625 q 0.29687,0.34375 0.79687,0.59375 0.51563,0.23438 1.10938,0.23438 0.67187,0 1.01562,-0.28125 0.35938,-0.28125 0.35938,-0.70313 0,-0.39062 -0.375,-0.60937 -0.375,-0.21875 -1.40625,-0.46875 -0.89063,-0.17188 -1.35938,-0.5625 -0.45312,-0.39063 -0.45312,-1.04688 0,-0.73437 0.59375,-1.20312 0.59375,-0.46875 1.57812,-0.46875 1.29688,0 2.14063,0.84375 l -0.42188,0.625 q -0.26562,-0.3125 -0.71875,-0.51563 -0.4375,-0.21875 -1,-0.21875 -0.60937,0 -0.95312,0.26563 -0.34375,0.25 -0.34375,0.64062 0,0.34375 0.39062,0.54688 0.39063,0.20312 1.42188,0.42187 0.875,0.20313 1.32812,0.625 0.45313,0.40625 0.45313,1.09375 0,0.8125 -0.625,1.28125 -0.625,0.46875 -1.65625,0.46875 z m 5.20502,0 q -1.28125,0 -1.28125,-1.35937 v -3.78125 h -0.95313 v -0.79688 h 0.95313 v -1.57812 h 0.90625 v 1.57812 h 1.17187 v 0.79688 h -1.17187 v 3.59375 q 0,0.32812 0.14062,0.54687 0.14063,0.20313 0.4375,0.20313 0.375,0 0.625,-0.25 l 0.25,0.67187 q -0.35937,0.375 -1.07812,0.375 z m 2.51242,-6.76562 q -0.23438,0 -0.42188,-0.17188 -0.17187,-0.17187 -0.17187,-0.42187 0,-0.25 0.17187,-0.4375 0.1875,-0.1875 0.42188,-0.1875 0.25,0 0.42187,0.1875 0.1875,0.1875 0.1875,0.4375 0,0.25 -0.1875,0.42187 -0.17187,0.17188 -0.42187,0.17188 z m -0.4375,6.625 v -5.79688 h 0.89062 v 5.79688 z m 6.60626,0 v -3.79688 q 0,-0.76562 -0.35938,-1.04687 -0.34375,-0.29688 -0.9375,-0.29688 -0.5,0 -0.98437,0.28125 -0.48438,0.26563 -0.73438,0.625 v 4.23438 h -0.89062 v -5.79688 h 0.89062 v 0.84375 q 0.375,-0.4375 0.92188,-0.70312 0.54687,-0.28125 1.14062,-0.28125 1.85938,0 1.85938,1.875 v 4.0625 z m 5.0339,2.35937 q -0.75,0 -1.29687,-0.1875 -0.53125,-0.1875 -1.04688,-0.6875 l 0.45313,-0.67187 q 0.35937,0.4375 0.8125,0.60937 0.45312,0.1875 1.07812,0.1875 0.875,0 1.35938,-0.46875 0.5,-0.45312 0.5,-1.26562 v -0.82813 q -0.3125,0.4375 -0.82813,0.73438 -0.51562,0.29687 -1.125,0.29687 -1.17187,0 -1.875,-0.82812 -0.70312,-0.82813 -0.70312,-2.17188 0,-1.39062 0.70312,-2.20312 0.71875,-0.8125 1.875,-0.8125 1.20313,0 1.95313,1.01562 v -0.875 h 0.89062 v 5.625 q 0,1.23438 -0.71875,1.875 -0.71875,0.65625 -2.03125,0.65625 z m 0.125,-3.07812 q 0.5,0 0.98438,-0.26563 0.48437,-0.26562 0.75,-0.6875 v -2.53125 q -0.26563,-0.42187 -0.76563,-0.67187 -0.48437,-0.26563 -0.96875,-0.26563 -0.84375,0 -1.35937,0.625 -0.5,0.60938 -0.5,1.59375 0,0.98438 0.51562,1.59375 0.51563,0.60938 1.34375,0.60938 z m 5.96619,-1.5 q -0.46875,-0.39063 -0.46875,-0.96875 0,-0.45313 0.25,-0.8125 0.26563,-0.375 0.84375,-0.75 0.57813,-0.375 0.82813,-0.6875 0.25,-0.3125 0.25,-0.6875 0,-0.45313 -0.35938,-0.78125 -0.34375,-0.32813 -1.0625,-0.32813 -1.15625,0 -1.90625,0.98438 l -0.59375,-0.65625 q 0.9375,-1.21875 2.59375,-1.21875 1.04688,0 1.70313,0.53125 0.65625,0.51562 0.65625,1.32812 0,1.01563 -1.15625,1.8125 -0.6875,0.46875 -0.9375,0.75 -0.23438,0.26563 -0.23438,0.57813 0,0.34375 0.32813,0.59375 z m 0.25,2.34375 q -0.28125,0 -0.46875,-0.1875 -0.1875,-0.20313 -0.1875,-0.48438 0,-0.26562 0.1875,-0.45312 0.1875,-0.20313 0.46875,-0.20313 0.28125,0 0.46875,0.20313 0.1875,0.1875 0.1875,0.45312 0,0.28125 -0.1875,0.48438 -0.1875,0.1875 -0.46875,0.1875 z"
       fill-rule="nonzero"
       id="path97" />
    <path
       fill="#000000"
       fill-opacity="0"
       d="m 507.8622,296.12073 v 36.25198"
       fill-rule="evenodd"
       id="path99" />
    <path
       stroke="#ff5252"
       stroke-width="2"
       stroke-linejoin="round"
       stroke-linecap="butt"
       d="m 507.8622,296.12073 v 24.25198"
       fill-rule="evenodd"
       id="path101" />
    <path
       fill="#ff5252"
       stroke="#ff5252"
       stroke-width="2"
       stroke-linecap="butt"
       d="m 504.55875,320.3727 3.30347,9.0762 3.30346,-9.0762 z"
       fill-rule="evenodd"
       id="path103" />
    <path
       fill="#ff5252"
       d="m 495.42847,344.0941 6.02914,-6.02911 6.40461,6.4046 6.40457,-6.4046 6.02917,6.02911 -6.40466,6.4046 6.40466,6.4046 -6.02917,6.02912 -6.40457,-6.4046 -6.40461,6.4046 -6.02914,-6.02912 6.40463,-6.4046 z"
       fill-rule="evenodd"
       id="path105" />
    <path
       stroke="#202729"
       stroke-width="1"
       stroke-linejoin="round"
       stroke-linecap="butt"
       d="m 495.42847,344.0941 6.02914,-6.02911 6.40461,6.4046 6.40457,-6.4046 6.02917,6.02911 -6.40466,6.4046 6.40466,6.4046 -6.02917,6.02912 -6.40457,-6.4046 -6.40461,6.4046 -6.02914,-6.02912 6.40463,-6.4046 z"
       fill-rule="evenodd"
       id="path107" />
    <path
       fill="#000000"
       fill-opacity="0"
       d="m 507.8622,285.23883 h 196.59842 v 42.01578 H 507.8622 Z"
       fill-rule="evenodd"
       id="path109" />
    <path
       fill="#000000"
       d="m 527.1278,312.15884 -7.26563,-9.92188 v 9.92188 h -1.54687 v -12.4375 h 1.59375 l 7.15625,9.71875 v -9.71875 h 1.54687 v 12.4375 z m 8.27118,0.21875 q -1.95313,0 -3.20313,-1.32813 -1.25,-1.32812 -1.25,-3.40625 0,-2.09375 1.25,-3.40625 1.25,-1.3125 3.20313,-1.3125 1.96875,0 3.21875,1.3125 1.25,1.3125 1.25,3.40625 0,2.07813 -1.25,3.40625 -1.25,1.32813 -3.21875,1.32813 z m 0,-1.25 q 1.3125,0 2.15625,-0.96875 0.84375,-0.98438 0.84375,-2.51563 0,-1.51562 -0.84375,-2.48437 -0.84375,-0.98438 -2.15625,-0.98438 -1.29688,0 -2.15625,0.96875 -0.84375,0.96875 -0.84375,2.5 0,1.54688 0.84375,2.51563 0.84375,0.96875 2.15625,0.96875 z m 15.8128,-0.48438 0.21875,-2.42187 h -5 v -2.79688 h 5 l -0.21875,-2.40625 5.23438,3.8125 z m 17.93683,1.51563 v -1.34375 q -0.5,0.6875 -1.29687,1.125 -0.78125,0.4375 -1.73438,0.4375 -1.8125,0 -2.92187,-1.28125 -1.09375,-1.28125 -1.09375,-3.4375 0,-2.15625 1.10937,-3.4375 1.10938,-1.29688 2.90625,-1.29688 0.90625,0 1.70313,0.42188 0.79687,0.42187 1.32812,1.15625 v -4.78125 h 1.40625 v 12.4375 z m -2.70312,-1.03125 q 0.84375,0 1.59375,-0.40625 0.75,-0.40625 1.10937,-1 v -4.09375 q -0.35937,-0.59375 -1.10937,-1.01563 -0.75,-0.4375 -1.59375,-0.4375 -1.29688,0 -2.09375,0.95313 -0.79688,0.95312 -0.79688,2.53125 0,1.54687 0.78125,2.51562 0.79688,0.95313 2.10938,0.95313 z m 7.60235,-9.26563 q -0.375,0 -0.65625,-0.26562 -0.28125,-0.28125 -0.28125,-0.67188 0,-0.39062 0.28125,-0.67187 0.28125,-0.28125 0.65625,-0.28125 0.39063,0 0.67188,0.28125 0.28125,0.28125 0.28125,0.67187 0,0.39063 -0.28125,0.67188 -0.28125,0.26562 -0.67188,0.26562 z m -0.6875,10.29688 v -9.01563 h 1.39063 v 9.01563 z m 7.04145,0.21875 q -2.29688,0 -3.64063,-1.40625 l 0.73438,-1.01563 q 0.45312,0.53125 1.23437,0.90625 0.79688,0.375 1.73438,0.375 1.04687,0 1.57812,-0.4375 0.54688,-0.4375 0.54688,-1.10937 0,-0.59375 -0.59375,-0.9375 -0.57813,-0.34375 -2.1875,-0.71875 -1.35938,-0.28125 -2.07813,-0.875 -0.71875,-0.60938 -0.71875,-1.64063 0,-1.14062 0.90625,-1.85937 0.92188,-0.73438 2.45313,-0.73438 2.03125,0 3.34375,1.3125 l -0.65625,0.96875 q -0.40625,-0.48437 -1.10938,-0.8125 -0.70312,-0.32812 -1.57812,-0.32812 -0.9375,0 -1.46875,0.40625 -0.53125,0.40625 -0.53125,1.01562 0,0.53125 0.59375,0.85938 0.60937,0.3125 2.20312,0.64062 1.35938,0.32813 2.0625,0.96875 0.71875,0.64063 0.71875,1.70313 0,1.25 -0.96875,1.98437 -0.96875,0.73438 -2.57812,0.73438 z m 9.80011,0 q -1.98438,0 -3.25,-1.34375 -1.25,-1.34375 -1.25,-3.39063 0,-2.03125 1.25,-3.375 1.26562,-1.34375 3.25,-1.34375 2.09375,0 3.29687,1.5625 l -0.92187,0.85938 q -0.85938,-1.17188 -2.29688,-1.17188 -1.39062,0 -2.26562,0.96875 -0.85938,0.95313 -0.85938,2.5 0,1.5625 0.85938,2.53125 0.85937,0.95313 2.26562,0.95313 1.40625,0 2.29688,-1.17188 l 0.92187,0.85938 q -1.20312,1.5625 -3.29687,1.5625 z m 10.89111,-0.21875 v -1.03125 q -1.14063,1.25 -2.98438,1.25 -1.35937,0 -2.26562,-0.85938 -0.89063,-0.85937 -0.89063,-2.125 0,-1.29687 0.89063,-2.125 0.89062,-0.84375 2.26562,-0.84375 1.9375,0 2.98438,1.23438 v -1.625 q 0,-0.90625 -0.64063,-1.39063 -0.64062,-0.5 -1.64062,-0.5 -1.57813,0 -2.75,1.25 l -0.65625,-0.98437 q 1.4375,-1.48438 3.59375,-1.48438 1.67187,0 2.57812,0.8125 0.92188,0.79688 0.92188,2.23438 v 6.1875 z m -2.48438,-0.78125 q 1.67188,0 2.48438,-1.125 v -1.6875 q -0.8125,-1.125 -2.48438,-1.125 -0.98437,0 -1.60937,0.54687 -0.60938,0.54688 -0.60938,1.42188 0,0.85937 0.60938,1.42187 0.625,0.54688 1.60937,0.54688 z m 6.69123,0.78125 v -9.01563 h 1.39062 v 1.45313 q 1.25,-1.64063 3,-1.64063 v 1.4375 l -0.54687,-0.0469 q -0.64063,0 -1.40625,0.45312 -0.76563,0.45313 -1.04688,0.98438 v 6.375 z m 12.67218,0 v -1.34375 q -0.5,0.6875 -1.29688,1.125 -0.78125,0.4375 -1.73437,0.4375 -1.8125,0 -2.92188,-1.28125 -1.09375,-1.28125 -1.09375,-3.4375 0,-2.15625 1.10938,-3.4375 1.10937,-1.29688 2.90625,-1.29688 0.90625,0 1.70312,0.42188 0.79688,0.42187 1.32813,1.15625 v -4.78125 h 1.40625 v 12.4375 z m -2.70313,-1.03125 q 0.84375,0 1.59375,-0.40625 0.75,-0.40625 1.10938,-1 v -4.09375 q -0.35938,-0.59375 -1.10938,-1.01563 -0.75,-0.4375 -1.59375,-0.4375 -1.29687,0 -2.09375,0.95313 -0.79687,0.95312 -0.79687,2.53125 0,1.54687 0.78125,2.51562 0.79687,0.95313 2.10937,0.95313 z"
       fill-rule="nonzero"
       id="path111" />
    <path
       fill="#000000"
       d="m 627.3096,303.0026 v 1.35937 h 3.10938 v 6.4375 h -3.10938 v 1.35938 h 7.67188 v -1.35938 h -3 v -7.79687 z m 2.90625,-2.40625 q 0,0.39062 0.23438,0.64062 0.23437,0.25 0.70312,0.25 0.46875,0 0.70313,-0.25 0.23437,-0.25 0.23437,-0.64062 0,-0.20313 -0.0625,-0.375 -0.0625,-0.1875 -0.20312,-0.3125 -0.10938,-0.10938 -0.28125,-0.17188 -0.17188,-0.0625 -0.39063,-0.0625 -0.21875,0 -0.39062,0.0625 -0.17188,0.0625 -0.28125,0.17188 -0.14063,0.14062 -0.20313,0.3125 -0.0625,0.17187 -0.0625,0.375 z m 7.24237,11.5625 h 1.5625 v -6.5625 q 0.17188,-0.29688 0.375,-0.54688 0.21875,-0.25 0.48438,-0.42187 0.3125,-0.21875 0.67187,-0.34375 0.375,-0.125 0.8125,-0.125 0.5,0 0.875,0.125 0.39063,0.10937 0.65625,0.375 0.26563,0.26562 0.40625,0.6875 0.14063,0.42187 0.14063,1.03125 v 5.78125 h 1.5625 v -5.8125 q 0,-0.90625 -0.23438,-1.57813 -0.21875,-0.67187 -0.64062,-1.09375 -0.40625,-0.4375 -1,-0.64062 -0.57813,-0.20313 -1.29688,-0.20313 -0.53125,0.0156 -1.01562,0.17188 -0.48438,0.14062 -0.89063,0.40625 -0.26562,0.17187 -0.51562,0.42187 -0.23438,0.23438 -0.4375,0.53125 l -0.10938,-1.35937 h -1.40625 z m 10.39856,3.51562 h 1.5625 v -4.39062 q 0.17188,0.1875 0.35938,0.34375 0.20312,0.15625 0.42187,0.28125 0.35938,0.20312 0.8125,0.3125 0.45313,0.10937 0.96875,0.10937 0.875,0 1.54688,-0.35937 0.67187,-0.35938 1.125,-0.98438 0.45312,-0.625 0.6875,-1.46875 0.25,-0.85937 0.25,-1.82812 v -0.1875 q 0,-1.01563 -0.25,-1.875 -0.23438,-0.85938 -0.6875,-1.48438 -0.45313,-0.60937 -1.14063,-0.95312 -0.67187,-0.35938 -1.54687,-0.35938 -0.5,0 -0.9375,0.10938 -0.4375,0.10937 -0.79688,0.3125 -0.25,0.125 -0.46875,0.32812 -0.21875,0.1875 -0.40625,0.42188 l -0.0781,-1 h -1.42188 z m 6.15625,-8.17187 v 0.1875 q 0,0.65625 -0.15625,1.26562 -0.14062,0.60938 -0.4375,1.07813 -0.3125,0.46875 -0.78125,0.75 -0.46875,0.26562 -1.125,0.26562 -0.40625,0 -0.75,-0.0937 -0.32812,-0.10937 -0.59375,-0.28125 -0.23437,-0.15625 -0.42187,-0.375 -0.1875,-0.21875 -0.32813,-0.46875 v -4.42187 q 0.15625,-0.28125 0.35938,-0.51563 0.21875,-0.23437 0.5,-0.40625 0.23437,-0.15625 0.54687,-0.23437 0.3125,-0.0937 0.67188,-0.0937 0.65625,0 1.125,0.28125 0.48437,0.26562 0.79687,0.71875 0.29688,0.46875 0.4375,1.07812 0.15625,0.59375 0.15625,1.26563 z m 10.27356,4.65625 h 1.42188 v -9.15625 h -1.5625 v 6.5625 q -0.14063,0.29687 -0.32813,0.54687 -0.1875,0.25 -0.4375,0.4375 -0.3125,0.21875 -0.73437,0.34375 -0.40625,0.10938 -0.92188,0.10938 -0.45312,0 -0.79687,-0.10938 -0.34375,-0.125 -0.57813,-0.42187 -0.23437,-0.28125 -0.35937,-0.76563 -0.10938,-0.5 -0.10938,-1.25 v -5.45312 h -1.57812 v 5.4375 q 0,1.03125 0.21875,1.76562 0.23437,0.71875 0.65625,1.20313 0.40625,0.46875 0.98437,0.70312 0.59375,0.21875 1.3125,0.21875 0.89063,0 1.57813,-0.375 0.6875,-0.375 1.14062,-1.0625 z m 8.07044,-11.375 h -1.5625 v 2.21875 h -2.40625 v 1.21875 h 2.40625 v 4.96875 q 0,0.84375 0.21875,1.4375 0.21875,0.59375 0.60937,0.96875 0.39063,0.39062 0.92188,0.5625 0.53125,0.17187 1.14062,0.17187 0.35938,0 0.71875,-0.0469 0.375,-0.0312 0.70313,-0.0937 0.34375,-0.0625 0.60937,-0.14063 0.28125,-0.0937 0.48438,-0.21875 l -0.21875,-1.10937 q -0.15625,0.0469 -0.375,0.0937 -0.21875,0.0469 -0.48438,0.0781 -0.25,0.0469 -0.53125,0.0781 -0.26562,0.0312 -0.51562,0.0312 -0.34375,0 -0.65625,-0.0781 -0.3125,-0.0937 -0.54688,-0.3125 -0.23437,-0.20312 -0.375,-0.54687 -0.14062,-0.34375 -0.14062,-0.875 v -4.96875 h 3.5 v -1.21875 h -3.5 z m 11.46112,-0.5625 v -1.25 h -1.53125 v 1.28125 q 0,0.71875 -0.20313,1.34375 -0.20312,0.625 -0.59375,1.23437 l 0.84375,0.60938 q 0.35938,-0.3125 0.625,-0.70313 0.28125,-0.39062 0.46875,-0.8125 0.1875,-0.42187 0.28125,-0.85937 0.10938,-0.45313 0.10938,-0.84375 z"
       fill-rule="nonzero"
       id="path113" />
    <path
       fill="#000000"
       fill-opacity="0"
       d="M 433.9567,257.2546 H 240.16143 v -70.20474"
       fill-rule="evenodd"
       id="path115" />
    <path
       stroke="#ff5252"
       stroke-width="2"
       stroke-linejoin="round"
       stroke-linecap="butt"
       d="M 433.9567,257.2546 H 240.16143 v -63.35057"
       fill-rule="evenodd"
       id="path117" />
    <path
       fill="#ff5252"
       stroke="#ff5252"
       stroke-width="2"
       stroke-linecap="butt"
       d="m 240.16142,193.90404 2.24916,2.24918 -2.24916,-6.17954 -2.24918,6.17954 z"
       fill-rule="evenodd"
       id="path119" />
    <path
       fill="#000000"
       fill-opacity="0"
       d="M 255.68898,249.11023 H 433.9567 v 64.62991 H 255.68898 Z"
       fill-rule="evenodd"
       id="path121" />
    <path
       fill="#000000"
       d="m 280.20154,276.03024 v -5.26563 l -4.90625,-7.17187 h 1.8125 l 3.85938,5.78125 3.85937,-5.78125 h 1.8125 l -4.89062,7.17187 v 5.26563 z m 12.06943,0.21875 q -2.03125,0 -3.3125,-1.3125 -1.28125,-1.32813 -1.28125,-3.42188 0,-2 1.26562,-3.35937 1.28125,-1.35938 3.17188,-1.35938 1.9375,0 3.125,1.34375 1.20312,1.34375 1.20312,3.48438 v 0.35937 h -7.29687 q 0.0781,1.375 1,2.25 0.92187,0.85938 2.25,0.85938 1.64062,0 2.78125,-1.14063 l 0.67187,0.92188 q -1.375,1.375 -3.57812,1.375 z m 2.79687,-5.29688 q 0,-1.25 -0.82812,-2.125 -0.8125,-0.875 -2.14063,-0.875 -1.25,0 -2.07812,0.875 -0.82813,0.875 -0.875,2.125 z m 6.48786,5.29688 q -2.29688,0 -3.64063,-1.40625 l 0.73438,-1.01563 q 0.45312,0.53125 1.23437,0.90625 0.79688,0.375 1.73438,0.375 1.04687,0 1.57812,-0.4375 0.54688,-0.4375 0.54688,-1.10937 0,-0.59375 -0.59375,-0.9375 -0.57813,-0.34375 -2.1875,-0.71875 -1.35938,-0.28125 -2.07813,-0.875 -0.71875,-0.60938 -0.71875,-1.64063 0,-1.14062 0.90625,-1.85937 0.92188,-0.73438 2.45313,-0.73438 2.03125,0 3.34375,1.3125 l -0.65625,0.96875 q -0.40625,-0.48437 -1.10938,-0.8125 -0.70312,-0.32812 -1.57812,-0.32812 -0.9375,0 -1.46875,0.40625 -0.53125,0.40625 -0.53125,1.01562 0,0.53125 0.59375,0.85938 0.60937,0.3125 2.20312,0.64062 1.35938,0.32813 2.0625,0.96875 0.71875,0.64063 0.71875,1.70313 0,1.25 -0.96875,1.98437 -0.96875,0.73438 -2.57812,0.73438 z m 14.89471,-1.73438 0.21875,-2.42187 h -5 v -2.79688 h 5 l -0.21875,-2.40625 5.23438,3.8125 z m 17.04623,1.51563 v -1.03125 q -1.14062,1.25 -2.98437,1.25 -1.35938,0 -2.26563,-0.85938 -0.89062,-0.85937 -0.89062,-2.125 0,-1.29687 0.89062,-2.125 0.89063,-0.84375 2.26563,-0.84375 1.9375,0 2.98437,1.23438 v -1.625 q 0,-0.90625 -0.64062,-1.39063 -0.64063,-0.5 -1.64063,-0.5 -1.57812,0 -2.75,1.25 l -0.65625,-0.98437 q 1.4375,-1.48438 3.59375,-1.48438 1.67188,0 2.57813,0.8125 0.92187,0.79688 0.92187,2.23438 v 6.1875 z m -2.48437,-0.78125 q 1.67187,0 2.48437,-1.125 v -1.6875 q -0.8125,-1.125 -2.48437,-1.125 -0.98438,0 -1.60938,0.54687 -0.60937,0.54688 -0.60937,1.42188 0,0.85937 0.60937,1.42187 0.625,0.54688 1.60938,0.54688 z m 13.20685,0.78125 v -1.34375 q -0.5,0.6875 -1.29688,1.125 -0.78125,0.4375 -1.73437,0.4375 -1.8125,0 -2.92188,-1.28125 -1.09375,-1.28125 -1.09375,-3.4375 0,-2.15625 1.10938,-3.4375 1.10937,-1.29688 2.90625,-1.29688 0.90625,0 1.70312,0.42188 0.79688,0.42187 1.32813,1.15625 v -4.78125 h 1.40625 v 12.4375 z m -2.70313,-1.03125 q 0.84375,0 1.59375,-0.40625 0.75,-0.40625 1.10938,-1 v -4.09375 q -0.35938,-0.59375 -1.10938,-1.01563 -0.75,-0.4375 -1.59375,-0.4375 -1.29687,0 -2.09375,0.95313 -0.79687,0.95312 -0.79687,2.53125 0,1.54687 0.78125,2.51562 0.79687,0.95313 2.10937,0.95313 z m 13.43048,1.03125 v -1.34375 q -0.5,0.6875 -1.29687,1.125 -0.78125,0.4375 -1.73438,0.4375 -1.8125,0 -2.92187,-1.28125 -1.09375,-1.28125 -1.09375,-3.4375 0,-2.15625 1.10937,-3.4375 1.10938,-1.29688 2.90625,-1.29688 0.90625,0 1.70313,0.42188 0.79687,0.42187 1.32812,1.15625 v -4.78125 h 1.40625 v 12.4375 z m -2.70312,-1.03125 q 0.84375,0 1.59375,-0.40625 0.75,-0.40625 1.10937,-1 v -4.09375 q -0.35937,-0.59375 -1.10937,-1.01563 -0.75,-0.4375 -1.59375,-0.4375 -1.29688,0 -2.09375,0.95313 -0.79688,0.95312 -0.79688,2.53125 0,1.54687 0.78125,2.51562 0.79688,0.95313 2.10938,0.95313 z"
       fill-rule="nonzero"
       id="path123" />
    <path
       fill="#000000"
       d="m 364.284,266.874 v 1.35938 h 3.10937 v 6.4375 H 364.284 v 1.35937 h 7.67187 v -1.35937 h -3 V 266.874 Z m 2.90625,-2.40625 q 0,0.39063 0.23437,0.64063 0.23438,0.25 0.70313,0.25 0.46875,0 0.70312,-0.25 0.23438,-0.25 0.23438,-0.64063 0,-0.20312 -0.0625,-0.375 -0.0625,-0.1875 -0.20313,-0.3125 -0.10937,-0.10937 -0.28125,-0.17187 -0.17187,-0.0625 -0.39062,-0.0625 -0.21875,0 -0.39063,0.0625 -0.17187,0.0625 -0.28125,0.17187 -0.14062,0.14063 -0.20312,0.3125 -0.0625,0.17188 -0.0625,0.375 z m 7.24231,11.5625 h 1.5625 v -6.5625 q 0.17187,-0.29687 0.375,-0.54687 0.21875,-0.25 0.48437,-0.42188 0.3125,-0.21875 0.67188,-0.34375 0.375,-0.125 0.8125,-0.125 0.5,0 0.875,0.125 0.39062,0.10938 0.65625,0.375 0.26562,0.26563 0.40625,0.6875 0.14062,0.42188 0.14062,1.03125 v 5.78125 h 1.5625 v -5.8125 q 0,-0.90625 -0.23437,-1.57812 -0.21875,-0.67188 -0.64063,-1.09375 -0.40625,-0.4375 -1,-0.64063 -0.57812,-0.20312 -1.29687,-0.20312 -0.53125,0.0156 -1.01563,0.17187 -0.48437,0.14063 -0.89062,0.40625 -0.26563,0.17188 -0.51563,0.42188 -0.23437,0.23437 -0.4375,0.53125 l -0.10937,-1.35938 h -1.40625 z m 10.39859,3.51563 h 1.5625 v -4.39063 q 0.17187,0.1875 0.35937,0.34375 0.20313,0.15625 0.42188,0.28125 0.35937,0.20313 0.8125,0.3125 0.45312,0.10938 0.96875,0.10938 0.875,0 1.54687,-0.35938 0.67188,-0.35937 1.125,-0.98437 0.45313,-0.625 0.6875,-1.46875 0.25,-0.85938 0.25,-1.82813 v -0.1875 q 0,-1.01562 -0.25,-1.875 -0.23437,-0.85937 -0.6875,-1.48437 -0.45312,-0.60938 -1.14062,-0.95313 -0.67188,-0.35937 -1.54688,-0.35937 -0.5,0 -0.9375,0.10937 -0.4375,0.10938 -0.79687,0.3125 -0.25,0.125 -0.46875,0.32813 -0.21875,0.1875 -0.40625,0.42187 l -0.0781,-1 h -1.42187 z m 6.15625,-8.17188 v 0.1875 q 0,0.65625 -0.15625,1.26563 -0.14063,0.60937 -0.4375,1.07812 -0.3125,0.46875 -0.78125,0.75 -0.46875,0.26563 -1.125,0.26563 -0.40625,0 -0.75,-0.0937 -0.32813,-0.10938 -0.59375,-0.28125 -0.23438,-0.15625 -0.42188,-0.375 -0.1875,-0.21875 -0.32812,-0.46875 v -4.42188 q 0.15625,-0.28125 0.35937,-0.51562 0.21875,-0.23438 0.5,-0.40625 0.23438,-0.15625 0.54688,-0.23438 0.3125,-0.0937 0.67187,-0.0937 0.65625,0 1.125,0.28125 0.48438,0.26563 0.79688,0.71875 0.29687,0.46875 0.4375,1.07813 0.15625,0.59375 0.15625,1.26562 z m 10.27356,4.65625 h 1.42187 V 266.874 h -1.5625 v 6.5625 q -0.14062,0.29688 -0.32812,0.54688 -0.1875,0.25 -0.4375,0.4375 -0.3125,0.21875 -0.73438,0.34375 -0.40625,0.10937 -0.92187,0.10937 -0.45313,0 -0.79688,-0.10937 -0.34375,-0.125 -0.57812,-0.42188 -0.23438,-0.28125 -0.35938,-0.76562 -0.10937,-0.5 -0.10937,-1.25 V 266.874 h -1.57813 v 5.4375 q 0,1.03125 0.21875,1.76563 0.23438,0.71875 0.65625,1.20312 0.40625,0.46875 0.98438,0.70313 0.59375,0.21875 1.3125,0.21875 0.89062,0 1.57812,-0.375 0.6875,-0.375 1.14063,-1.0625 z m 8.07046,-11.375 h -1.5625 v 2.21875 h -2.40625 v 1.21875 h 2.40625 v 4.96875 q 0,0.84375 0.21875,1.4375 0.21875,0.59375 0.60938,0.96875 0.39062,0.39063 0.92187,0.5625 0.53125,0.17188 1.14063,0.17188 0.35937,0 0.71875,-0.0469 0.375,-0.0312 0.70312,-0.0937 0.34375,-0.0625 0.60938,-0.14062 0.28125,-0.0937 0.48437,-0.21875 l -0.21875,-1.10938 q -0.15625,0.0469 -0.375,0.0937 -0.21875,0.0469 -0.48437,0.0781 -0.25,0.0469 -0.53125,0.0781 -0.26563,0.0312 -0.51563,0.0312 -0.34375,0 -0.65625,-0.0781 -0.3125,-0.0937 -0.54687,-0.3125 -0.23438,-0.20313 -0.375,-0.54688 -0.14063,-0.34375 -0.14063,-0.875 v -4.96875 h 3.5 V 266.874 h -3.5 z m 11.46106,-0.5625 v -1.25 h -1.53125 v 1.28125 q 0,0.71875 -0.20312,1.34375 -0.20313,0.625 -0.59375,1.23438 l 0.84375,0.60937 q 0.35937,-0.3125 0.625,-0.70312 0.28125,-0.39063 0.46875,-0.8125 0.1875,-0.42188 0.28125,-0.85938 0.10937,-0.45312 0.10937,-0.84375 z"
       fill-rule="nonzero"
       id="path125" />
    <path
       fill="#000000"
       d="m 358.57437,298.649 q -2,0 -2,-2.10938 V 290.649 h -1.48438 v -1.23438 h 1.48438 v -2.45312 h 1.40625 v 2.45312 h 1.82812 v 1.23438 h -1.82812 v 5.59375 q 0,0.51562 0.21875,0.84375 0.23437,0.3125 0.70312,0.3125 0.57813,0 0.9375,-0.375 l 0.42188,1.04687 q -0.57813,0.57813 -1.6875,0.57813 z m 7.14117,0 q -1.95312,0 -3.20312,-1.32813 -1.25,-1.32812 -1.25,-3.40625 0,-2.09375 1.25,-3.40625 1.25,-1.3125 3.20312,-1.3125 1.96875,0 3.21875,1.3125 1.25,1.3125 1.25,3.40625 0,2.07813 -1.25,3.40625 -1.25,1.32813 -3.21875,1.32813 z m 0,-1.25 q 1.3125,0 2.15625,-0.96875 0.84375,-0.98438 0.84375,-2.51563 0,-1.51562 -0.84375,-2.48437 -0.84375,-0.98438 -2.15625,-0.98438 -1.29687,0 -2.15625,0.96875 -0.84375,0.96875 -0.84375,2.5 0,1.54688 0.84375,2.51563 0.84375,0.96875 2.15625,0.96875 z m 14.40656,1.25 q -2.29688,0 -3.64063,-1.40625 l 0.73438,-1.01563 q 0.45312,0.53125 1.23437,0.90625 0.79688,0.375 1.73438,0.375 1.04687,0 1.57812,-0.4375 0.54688,-0.4375 0.54688,-1.10937 0,-0.59375 -0.59375,-0.9375 -0.57813,-0.34375 -2.1875,-0.71875 -1.35938,-0.28125 -2.07813,-0.875 -0.71875,-0.60938 -0.71875,-1.64063 0,-1.14062 0.90625,-1.85937 0.92188,-0.73438 2.45313,-0.73438 2.03125,0 3.34375,1.3125 l -0.65625,0.96875 q -0.40625,-0.48437 -1.10938,-0.8125 -0.70312,-0.32812 -1.57812,-0.32812 -0.9375,0 -1.46875,0.40625 -0.53125,0.40625 -0.53125,1.01562 0,0.53125 0.59375,0.85938 0.60937,0.3125 2.20312,0.64062 1.35938,0.32813 2.0625,0.96875 0.71875,0.64063 0.71875,1.70313 0,1.25 -0.96875,1.98437 -0.96875,0.73438 -2.57812,0.73438 z m 9.89392,0 q -2.03125,0 -3.3125,-1.3125 -1.28125,-1.32813 -1.28125,-3.42188 0,-2 1.26563,-3.35937 1.28125,-1.35938 3.17187,-1.35938 1.9375,0 3.125,1.34375 1.20313,1.34375 1.20313,3.48438 v 0.35937 h -7.29688 q 0.0781,1.375 1,2.25 0.92188,0.85938 2.25,0.85938 1.64063,0 2.78125,-1.14063 l 0.67188,0.92188 q -1.375,1.375 -3.57813,1.375 z m 2.79688,-5.29688 q 0,-1.25 -0.82813,-2.125 -0.8125,-0.875 -2.14062,-0.875 -1.25,0 -2.07813,0.875 -0.82812,0.875 -0.875,2.125 z m 7.70657,5.29688 q -2.03125,0 -3.3125,-1.3125 -1.28125,-1.32813 -1.28125,-3.42188 0,-2 1.26562,-3.35937 1.28125,-1.35938 3.17188,-1.35938 1.9375,0 3.125,1.34375 1.20312,1.34375 1.20312,3.48438 v 0.35937 h -7.29687 q 0.0781,1.375 1,2.25 0.92187,0.85938 2.25,0.85938 1.64062,0 2.78125,-1.14063 l 0.67187,0.92188 q -1.375,1.375 -3.57812,1.375 z m 2.79687,-5.29688 q 0,-1.25 -0.82812,-2.125 -0.8125,-0.875 -2.14063,-0.875 -1.25,0 -2.07812,0.875 -0.82813,0.875 -0.875,2.125 z m 10.15973,5.07813 v -1.34375 q -0.5,0.6875 -1.29687,1.125 -0.78125,0.4375 -1.73438,0.4375 -1.8125,0 -2.92187,-1.28125 -1.09375,-1.28125 -1.09375,-3.4375 0,-2.15625 1.10937,-3.4375 1.10938,-1.29688 2.90625,-1.29688 0.90625,0 1.70313,0.42188 0.79687,0.42187 1.32812,1.15625 v -4.78125 h 1.40625 v 12.4375 z m -2.70312,-1.03125 q 0.84375,0 1.59375,-0.40625 0.75,-0.40625 1.10937,-1 V 291.899 q -0.35937,-0.59375 -1.10937,-1.01563 -0.75,-0.4375 -1.59375,-0.4375 -1.29688,0 -2.09375,0.95313 -0.79688,0.95312 -0.79688,2.53125 0,1.54687 0.78125,2.51562 0.79688,0.95313 2.10938,0.95313 z m 9.75857,1.25 q -2.29687,0 -3.64062,-1.40625 l 0.73437,-1.01563 q 0.45313,0.53125 1.23438,0.90625 0.79687,0.375 1.73437,0.375 1.04688,0 1.57813,-0.4375 0.54687,-0.4375 0.54687,-1.10937 0,-0.59375 -0.59375,-0.9375 -0.57812,-0.34375 -2.1875,-0.71875 -1.35937,-0.28125 -2.07812,-0.875 -0.71875,-0.60938 -0.71875,-1.64063 0,-1.14062 0.90625,-1.85937 0.92187,-0.73438 2.45312,-0.73438 2.03125,0 3.34375,1.3125 l -0.65625,0.96875 q -0.40625,-0.48437 -1.10937,-0.8125 -0.70313,-0.32812 -1.57813,-0.32812 -0.9375,0 -1.46875,0.40625 -0.53125,0.40625 -0.53125,1.01562 0,0.53125 0.59375,0.85938 0.60938,0.3125 2.20313,0.64062 1.35937,0.32813 2.0625,0.96875 0.71875,0.64063 0.71875,1.70313 0,1.25 -0.96875,1.98437 -0.96875,0.73438 -2.57813,0.73438 z"
       fill-rule="nonzero"
       id="path127" />
    <path
       fill="#000000"
       fill-opacity="0"
       d="M 618.1378,257.2546 H 581.75981"
       fill-rule="evenodd"
       id="path129" />
    <path
       stroke="#ff5252"
       stroke-width="2"
       stroke-linejoin="round"
       stroke-linecap="butt"
       d="M 618.1378,257.2546 H 593.75981"
       fill-rule="evenodd"
       id="path131" />
    <path
       fill="#ff5252"
       stroke="#ff5252"
       stroke-width="2"
       stroke-linecap="butt"
       d="m 593.7598,253.95113 -9.07617,3.30348 9.07617,3.30344 z"
       fill-rule="evenodd"
       id="path133" />
    <path
       fill="#000000"
       fill-opacity="0"
       d="m 816.62335,166.05511 h 24.99982 v 91.21262 h -93.50372"
       fill-rule="evenodd"
       id="path135" />
    <path
       stroke="#ff5252"
       stroke-width="2"
       stroke-linejoin="round"
       stroke-linecap="butt"
       d="m 816.62335,166.05511 h 24.99982 v 91.21262 h -86.6496"
       fill-rule="evenodd"
       id="path137" />
    <path
       fill="#ff5252"
       stroke="#ff5252"
       stroke-width="2"
       stroke-linecap="butt"
       d="m 754.9736,257.26773 2.24921,-2.24918 -6.17957,2.24918 6.17957,2.24915 z"
       fill-rule="evenodd"
       id="path139" />
  </g>
</svg>
