<?xml version="1.0" encoding="UTF-8" standalone="no"?>
<svg
   version="1.1"
   viewBox="0 0 768.117 311.58923"
   fill="none"
   stroke="none"
   stroke-linecap="square"
   stroke-miterlimit="10"
   id="svg109"
   sodipodi:docname="prng_random_api.svg"
   width="768.117"
   height="311.58923"
   inkscape:version="1.2.2 (b0a8486541, 2022-12-01)"
   xmlns:inkscape="http://www.inkscape.org/namespaces/inkscape"
   xmlns:sodipodi="http://sodipodi.sourceforge.net/DTD/sodipodi-0.dtd"
   xmlns="http://www.w3.org/2000/svg"
   xmlns:svg="http://www.w3.org/2000/svg">
  <defs
     id="defs113" />
  <sodipodi:namedview
     id="namedview111"
     pagecolor="#ffffff"
     bordercolor="#000000"
     borderopacity="0.25"
     inkscape:showpageshadow="2"
     inkscape:pageopacity="0.0"
     inkscape:pagecheckerboard="0"
     inkscape:deskcolor="#d1d1d1"
     showgrid="false"
     inkscape:zoom="2.0055556"
     inkscape:cx="405.37396"
     inkscape:cy="163.2964"
     inkscape:window-width="2560"
     inkscape:window-height="1373"
     inkscape:window-x="0"
     inkscape:window-y="30"
     inkscape:window-maximized="1"
     inkscape:current-layer="svg109" />
  <clipPath
     id="g244bbc4bcb3_0_119.0">
    <path
       d="M 0,0 H 960 V 540 H 0 Z"
       clip-rule="nonzero"
       id="path2" />
  </clipPath>
  <g
     clip-path="url(#g244bbc4bcb3_0_119.0)"
     id="g107"
     transform="translate(-74.96063,-106.84777)">
    <path
       fill="#000000"
       fill-opacity="0"
       d="M 74.96063,106.84777 H 469.03937 V 171.4147 H 74.96063 Z"
       fill-rule="evenodd"
       id="path7" />
    <path
       fill="#000000"
       d="m 89.47626,132.65964 q 1.34375,0 2.25,-0.53125 0.90625,-0.54688 1.359375,-1.23438 l -0.953125,-0.75 q -0.4375,0.5625 -1.09375,0.90625 -0.640625,0.32813 -1.484375,0.32813 -0.625,0 -1.15625,-0.23438 -0.515625,-0.23437 -0.890625,-0.65625 -0.359375,-0.39062 -0.578125,-0.89062 -0.203125,-0.51563 -0.265625,-1.17188 v -0.0625 h 6.546875 v -0.70311 q 0,-0.95313 -0.25,-1.76563 -0.234375,-0.82812 -0.71875,-1.4375 -0.5,-0.60937 -1.25,-0.95312 -0.734375,-0.34375 -1.71875,-0.34375 -0.78125,0 -1.53125,0.32812 -0.75,0.3125 -1.34375,0.92188 -0.578125,0.60937 -0.9375,1.48437 -0.359375,0.875 -0.359375,1.98438 v 0.35936 q 0,0.95313 0.3125,1.76563 0.328125,0.8125 0.90625,1.40625 0.578125,0.59375 1.375,0.92187 0.8125,0.32813 1.78125,0.32813 z m -0.203125,-8.20312 q 0.609375,0 1.03125,0.21875 0.4375,0.21875 0.734375,0.5625 0.28125,0.35938 0.4375,0.84375 0.171875,0.48438 0.171875,0.92188 v 0.0625 H 86.72626 q 0.07813,-0.625 0.3125,-1.10938 0.234375,-0.48437 0.578125,-0.82812 0.34375,-0.32813 0.765625,-0.5 0.421875,-0.17188 0.890625,-0.17188 z m 6.554825,8.03124 h 1.5625 v -6.56249 q 0.171875,-0.29687 0.375,-0.54687 0.21875,-0.25 0.484375,-0.42188 0.3125,-0.21875 0.671875,-0.34375 0.375,-0.125 0.8125,-0.125 0.5,0 0.875,0.125 0.39062,0.10938 0.65625,0.375 0.26562,0.26563 0.40625,0.6875 0.14062,0.42188 0.14062,1.03125 v 5.78124 h 1.5625 v -5.81249 q 0,-0.90625 -0.23437,-1.57812 -0.21875,-0.67188 -0.64063,-1.09375 -0.40625,-0.4375 -1,-0.64063 -0.57812,-0.20312 -1.29687,-0.20312 -0.53125,0.0156 -1.015625,0.17187 -0.484375,0.14063 -0.890625,0.40625 -0.265625,0.17188 -0.515625,0.42188 -0.234375,0.23437 -0.4375,0.53125 l -0.109375,-1.35938 h -1.40625 z m 16.42982,0 h 1.42188 v -9.15624 h -1.5625 v 6.5625 q -0.14063,0.29687 -0.32813,0.54687 -0.1875,0.25 -0.4375,0.4375 -0.3125,0.21875 -0.73437,0.34375 -0.40625,0.10938 -0.92188,0.10938 -0.45312,0 -0.79687,-0.10938 -0.34375,-0.125 -0.57813,-0.42187 -0.23437,-0.28125 -0.35937,-0.76563 -0.10938,-0.5 -0.10938,-1.25 v -5.45312 h -1.57812 v 5.4375 q 0,1.03125 0.21875,1.76562 0.23437,0.71875 0.65625,1.20313 0.40625,0.46875 0.98437,0.70312 0.59375,0.21875 1.3125,0.21875 0.89063,0 1.57813,-0.375 0.6875,-0.375 1.14062,-1.0625 z m 5.08608,-9.15624 h -1.40625 v 9.15624 h 1.5 v -7.28124 q 0.0469,-0.14062 0.125,-0.25 0.0781,-0.125 0.1875,-0.21875 0.14062,-0.125 0.34375,-0.1875 0.21875,-0.0625 0.5,-0.0625 0.25,0 0.4375,0.0625 0.1875,0.0625 0.32812,0.20313 0.125,0.14062 0.1875,0.35937 0.0625,0.21875 0.0625,0.51563 v 6.85936 h 1.5 v -6.85936 q 0,-0.0469 0,-0.0781 0,-0.0469 0,-0.0781 0.0156,-0.21875 0.0937,-0.39063 0.0781,-0.17187 0.21875,-0.3125 0.125,-0.125 0.32813,-0.20312 0.20312,-0.0781 0.48437,-0.0781 0.26563,0 0.45313,0.0781 0.20312,0.0625 0.34375,0.20312 0.125,0.14063 0.1875,0.35938 0.0781,0.21875 0.0781,0.5 v 6.85936 h 1.48438 v -6.84374 q 0,-0.65625 -0.15625,-1.14062 -0.14063,-0.48438 -0.4375,-0.79688 -0.25,-0.26562 -0.64063,-0.40625 -0.375,-0.14062 -0.85937,-0.14062 -0.34375,0.0156 -0.64063,0.10937 -0.28125,0.0781 -0.51562,0.21875 -0.1875,0.125 -0.35938,0.29688 -0.15625,0.17187 -0.26562,0.35937 -0.0937,-0.20312 -0.23438,-0.375 -0.125,-0.17187 -0.28125,-0.29687 -0.21875,-0.14063 -0.51562,-0.21875 -0.29688,-0.0937 -0.65625,-0.0937 -0.64063,0.0156 -1.09375,0.28125 -0.45313,0.26562 -0.73438,0.75 z m 28.09402,3.70313 v -1.40625 q -0.0156,-0.65625 -0.125,-1.32813 -0.0937,-0.67187 -0.3125,-1.3125 -0.23437,-0.625 -0.57812,-1.15625 -0.34375,-0.54687 -0.8125,-0.95312 -0.46875,-0.40625 -1.09375,-0.64063 -0.60938,-0.23437 -1.375,-0.23437 -0.76563,0 -1.375,0.23437 -0.60938,0.23438 -1.09375,0.64063 -0.46875,0.40625 -0.8125,0.95312 -0.34375,0.54688 -0.5625,1.17188 -0.23438,0.625 -0.34375,1.29687 -0.0937,0.67188 -0.10938,1.32813 v 1.40625 q 0.0156,0.67187 0.125,1.34374 0.10938,0.65625 0.34375,1.28125 0.21875,0.625 0.5625,1.17188 0.34375,0.54687 0.8125,0.95312 0.48438,0.40625 1.09375,0.64063 0.60938,0.23437 1.375,0.23437 0.76563,0 1.375,-0.23437 0.60938,-0.23438 1.09375,-0.64063 0.46875,-0.40625 0.8125,-0.9375 0.34375,-0.54687 0.5625,-1.17187 0.21875,-0.625 0.3125,-1.29688 0.10938,-0.67187 0.125,-1.34374 z m -1.54687,-1.42188 v 1.42188 q -0.0156,0.4375 -0.0625,0.92187 -0.0469,0.48437 -0.15625,0.95312 -0.125,0.46875 -0.32813,0.90625 -0.20312,0.42188 -0.5,0.75 -0.29687,0.32813 -0.71875,0.53125 -0.42187,0.1875 -0.96875,0.1875 -0.54687,0 -0.96875,-0.1875 -0.40625,-0.20312 -0.71875,-0.53125 -0.29687,-0.32812 -0.5,-0.75 -0.20312,-0.4375 -0.32812,-0.92187 -0.125,-0.45313 -0.1875,-0.9375 -0.0625,-0.48437 -0.0625,-0.92187 v -1.42188 q 0,-0.42187 0.0625,-0.90625 0.0625,-0.48437 0.1875,-0.95312 0.10937,-0.46875 0.3125,-0.89063 0.20312,-0.42187 0.51562,-0.75 0.29688,-0.32812 0.70313,-0.51562 0.42187,-0.20313 0.96875,-0.20313 0.54687,0 0.95312,0.1875 0.42188,0.1875 0.73438,0.51563 0.29687,0.32812 0.5,0.76562 0.20312,0.42188 0.32812,0.89063 0.125,0.46875 0.17188,0.95312 0.0469,0.46875 0.0625,0.90625 z m 3.92982,10.39062 h 1.5625 v -4.39063 q 0.17188,0.1875 0.35938,0.34375 0.20312,0.15625 0.42187,0.28125 0.35938,0.20313 0.8125,0.3125 0.45313,0.10938 0.96875,0.10938 0.875,0 1.54688,-0.35938 0.67187,-0.35937 1.125,-0.98437 0.45312,-0.625 0.6875,-1.46875 0.25,-0.85938 0.25,-1.82813 v -0.18749 q 0,-1.01562 -0.25,-1.875 -0.23438,-0.85937 -0.6875,-1.48437 -0.45313,-0.60938 -1.14063,-0.95313 -0.67187,-0.35937 -1.54687,-0.35937 -0.5,0 -0.9375,0.10937 -0.4375,0.10938 -0.79688,0.3125 -0.25,0.125 -0.46875,0.32813 -0.21875,0.1875 -0.40625,0.42187 l -0.0781,-1 h -1.42188 z m 6.15625,-8.17187 v 0.1875 q 0,0.65625 -0.15625,1.26562 -0.14062,0.60938 -0.4375,1.07813 -0.3125,0.46875 -0.78125,0.75 -0.46875,0.26562 -1.125,0.26562 -0.40625,0 -0.75,-0.0937 -0.32812,-0.10937 -0.59375,-0.28125 -0.23437,-0.15625 -0.42187,-0.375 -0.1875,-0.21875 -0.32813,-0.46875 v -4.42187 q 0.15625,-0.28125 0.35938,-0.51562 0.21875,-0.23438 0.5,-0.40625 0.23437,-0.15625 0.54687,-0.23438 0.3125,-0.0937 0.67188,-0.0937 0.65625,0 1.125,0.28125 0.48437,0.26563 0.79687,0.71875 0.29688,0.46875 0.4375,1.07813 0.15625,0.59375 0.15625,1.26562 z m 21.4534,7.75 0.17188,-0.96875 q -0.53125,-0.0156 -0.875,-0.29688 -0.32813,-0.26562 -0.53125,-0.6875 -0.21875,-0.40625 -0.3125,-0.9375 -0.0781,-0.51562 -0.0781,-1.04687 v -1.42188 q 0,-1.01562 -0.46875,-1.78125 -0.46875,-0.76562 -1.45312,-1.14062 0.98437,-0.40625 1.45312,-1.17187 0.46875,-0.76563 0.46875,-1.78125 v -1.4375 q 0,-0.51563 0.0469,-1.03125 0.0625,-0.53125 0.25,-0.95313 0.17187,-0.42187 0.53125,-0.6875 0.35937,-0.26562 0.96875,-0.29687 l -0.17188,-0.96875 q -0.85937,0.0312 -1.46875,0.375 -0.59375,0.34375 -0.96875,0.875 -0.39062,0.57812 -0.57812,1.29687 -0.1875,0.70313 -0.1875,1.39063 v 1.4375 q 0,1.23437 -0.57813,1.78125 -0.57812,0.53125 -1.76562,0.53125 v 1.23437 q 1.1875,0.0156 1.76562,0.5625 0.57813,0.54687 0.57813,1.76562 v 1.42188 q 0,0.6875 0.1875,1.375 0.20312,0.6875 0.59375,1.25 0.39062,0.57812 0.98437,0.9375 0.60938,0.35937 1.4375,0.375 z m 19.98465,-12.42187 q -1,0 -1.78125,0.4375 -0.78125,0.4375 -1.34375,1.1875 v -0.21875 l -0.0781,-1.23438 h -1.48438 v 9.15625 h 1.57813 v -5.875 q 0.15625,-0.42187 0.375,-0.76562 0.23437,-0.34375 0.54687,-0.57813 0.35938,-0.26562 0.8125,-0.40625 0.46875,-0.14062 1.04688,-0.14062 0.45312,0 0.85937,0.0469 0.40625,0.0469 0.85938,0.14063 l 0.21875,-1.53125 q -0.23438,-0.0937 -0.70313,-0.15625 -0.46875,-0.0625 -0.90625,-0.0625 z m 8.44545,9.49999 q 1.34375,0 2.25,-0.53125 0.90625,-0.54687 1.35938,-1.23437 l -0.95313,-0.75 q -0.4375,0.5625 -1.09375,0.90625 -0.64062,0.32812 -1.48437,0.32812 -0.625,0 -1.15625,-0.23437 -0.51563,-0.23438 -0.89063,-0.65625 -0.35937,-0.39063 -0.57812,-0.89063 -0.20313,-0.51562 -0.26563,-1.17187 v -0.0625 h 6.54688 v -0.70312 q 0,-0.95313 -0.25,-1.76563 -0.23438,-0.82812 -0.71875,-1.4375 -0.5,-0.60937 -1.25,-0.95312 -0.73438,-0.34375 -1.71875,-0.34375 -0.78125,0 -1.53125,0.32812 -0.75,0.3125 -1.34375,0.92188 -0.57813,0.60937 -0.9375,1.48437 -0.35938,0.875 -0.35938,1.98438 v 0.35937 q 0,0.95312 0.3125,1.76562 0.32813,0.8125 0.90625,1.40625 0.57813,0.59375 1.375,0.92188 0.8125,0.32812 1.78125,0.32812 z m -0.20312,-8.20312 q 0.60937,0 1.03125,0.21875 0.4375,0.21875 0.73437,0.5625 0.28125,0.35938 0.4375,0.84375 0.17188,0.48438 0.17188,0.92188 v 0.0625 h -4.92188 q 0.0781,-0.625 0.3125,-1.10938 0.23438,-0.48437 0.57813,-0.82812 0.34375,-0.32813 0.76562,-0.5 0.42188,-0.17188 0.89063,-0.17188 z m 12.57045,8.03125 h 1.64062 v -0.14063 q -0.15625,-0.375 -0.25,-0.89062 -0.0781,-0.51563 -0.0781,-0.96875 v -4.25 q 0,-0.76562 -0.28125,-1.34375 -0.28125,-0.57812 -0.75,-0.96875 -0.5,-0.375 -1.17188,-0.5625 -0.65625,-0.20312 -1.4375,-0.20312 -0.85937,0 -1.53125,0.25 -0.67187,0.23437 -1.14062,0.60937 -0.46875,0.39063 -0.71875,0.875 -0.25,0.48438 -0.26563,0.98438 h 1.57813 q 0,-0.29688 0.14062,-0.5625 0.14063,-0.26563 0.39063,-0.45313 0.25,-0.20312 0.625,-0.3125 0.375,-0.125 0.82812,-0.125 0.5,0 0.90625,0.125 0.40625,0.125 0.6875,0.35938 0.26563,0.23437 0.42188,0.5625 0.15625,0.32812 0.15625,0.75 v 0.71875 h -1.70313 q -0.96875,0 -1.75,0.1875 -0.76562,0.1875 -1.3125,0.54687 -0.54687,0.39062 -0.85937,0.95312 -0.29688,0.5625 -0.29688,1.32813 0,0.5625 0.21875,1.0625 0.23438,0.5 0.65625,0.84375 0.40625,0.375 0.98438,0.59375 0.59375,0.20312 1.32812,0.20312 0.4375,0 0.82813,-0.0937 0.40625,-0.0937 0.76562,-0.25 0.34375,-0.17187 0.625,-0.375 0.29688,-0.21875 0.54688,-0.45312 0.0156,0.29687 0.0625,0.5625 0.0625,0.26562 0.15625,0.4375 z m -2.76563,-1.1875 q -0.45312,0 -0.79687,-0.125 -0.34375,-0.125 -0.57813,-0.32813 -0.23437,-0.20312 -0.34375,-0.48437 -0.10937,-0.29688 -0.10937,-0.64063 0,-0.34375 0.125,-0.625 0.125,-0.28125 0.39062,-0.48437 0.34375,-0.28125 0.95313,-0.42188 0.60937,-0.14062 1.42187,-0.14062 h 1.45313 v 1.84375 q -0.14063,0.28125 -0.375,0.53125 -0.23438,0.25 -0.5625,0.4375 -0.32813,0.1875 -0.73438,0.3125 -0.39062,0.125 -0.84375,0.125 z m 6.8517,-3.46875 v 0.1875 q 0,0.96875 0.26563,1.82812 0.26562,0.84375 0.73437,1.46875 0.46875,0.625 1.14063,0.98438 0.6875,0.35937 1.51562,0.35937 0.84375,0 1.46875,-0.28125 0.64063,-0.29687 1.09375,-0.85937 l 0.0781,0.96875 h 1.4375 v -13 h -1.57813 v 4.75 q -0.4375,-0.53125 -1.0625,-0.79687 -0.60937,-0.28125 -1.42187,-0.28125 -0.84375,0 -1.53125,0.35937 -0.67188,0.34375 -1.14063,0.95313 -0.48437,0.625 -0.75,1.48437 -0.25,0.85938 -0.25,1.875 z m 1.5625,0.1875 v -0.1875 q 0,-0.67187 0.14063,-1.26562 0.15625,-0.60938 0.45312,-1.07813 0.29688,-0.45312 0.76563,-0.71875 0.46875,-0.28125 1.14062,-0.28125 0.76563,0 1.28125,0.35938 0.51563,0.35937 0.8125,0.92187 v 4.25 q -0.29687,0.59375 -0.8125,0.95312 -0.51562,0.35938 -1.29687,0.35938 -0.65625,0 -1.125,-0.26563 -0.46875,-0.26562 -0.76563,-0.73437 -0.29687,-0.45313 -0.45312,-1.04688 -0.14063,-0.60937 -0.14063,-1.26562 z m 13.1017,4.10937 v -1.5 h -1.70312 v 1.51563 q 0,0.71875 -0.17188,1.39062 -0.15625,0.67188 -0.5625,1.26563 l 0.96875,0.53125 q 0.67188,-0.60938 1.0625,-1.48438 0.40625,-0.875 0.40625,-1.71875 z m 17.71903,0.35938 h 1.23437 l 1.40625,-5.60937 0.23438,-1.42188 0.23437,1.42188 1.42188,5.60937 h 1.23437 l 1.95313,-9.15625 h -1.39063 l -1.01562,5.84375 -0.21875,1.4375 -0.25,-1.4375 -1.45313,-5.84375 h -1.01562 l -1.45313,5.84375 -0.23437,1.3125 -0.1875,-1.3125 -1.0625,-5.84375 h -1.39063 z m 15.50793,-9.32812 q -1,0 -1.78125,0.4375 -0.78125,0.4375 -1.34375,1.1875 v -0.21875 l -0.0781,-1.23438 h -1.48438 v 9.15625 h 1.57813 v -5.875 q 0.15625,-0.42187 0.375,-0.76562 0.23437,-0.34375 0.54687,-0.57813 0.35938,-0.26562 0.8125,-0.40625 0.46875,-0.14062 1.04688,-0.14062 0.45312,0 0.85937,0.0469 0.40625,0.0469 0.85938,0.14063 l 0.21875,-1.53125 q -0.23438,-0.0937 -0.70313,-0.15625 -0.46875,-0.0625 -0.90625,-0.0625 z m 4.64859,0.17187 v 1.35938 h 3.10938 v 6.43749 h -3.10938 v 1.35938 h 7.67188 v -1.35938 h -3 v -7.79687 z m 2.90625,-2.40625 q 0,0.39063 0.23438,0.64063 0.23437,0.25 0.70312,0.25 0.46875,0 0.70313,-0.25 0.23437,-0.25 0.23437,-0.64063 0,-0.20312 -0.0625,-0.375 -0.0625,-0.1875 -0.20312,-0.3125 -0.10938,-0.10937 -0.28125,-0.17187 -0.17188,-0.0625 -0.39063,-0.0625 -0.21875,0 -0.39062,0.0625 -0.17188,0.0625 -0.28125,0.17187 -0.14063,0.14063 -0.20313,0.3125 -0.0625,0.17188 -0.0625,0.375 z m 10.94544,0.1875 h -1.5625 v 2.21875 h -2.40625 v 1.21875 h 2.40625 v 4.96875 q 0,0.84375 0.21875,1.4375 0.21875,0.59375 0.60937,0.96875 0.39063,0.39062 0.92188,0.5625 0.53125,0.17187 1.14062,0.17187 0.35938,0 0.71875,-0.0469 0.375,-0.0312 0.70313,-0.0937 0.34375,-0.0625 0.60937,-0.14063 0.28125,-0.0937 0.48438,-0.21875 l -0.21875,-1.10937 q -0.15625,0.0469 -0.375,0.0937 -0.21875,0.0469 -0.48438,0.0781 -0.25,0.0469 -0.53125,0.0781 -0.26562,0.0312 -0.51562,0.0312 -0.34375,0 -0.65625,-0.0781 -0.3125,-0.0937 -0.54688,-0.3125 -0.23437,-0.20312 -0.375,-0.54687 -0.14062,-0.34375 -0.14062,-0.875 v -4.96875 h 3.5 v -1.21875 h -3.5 z m 10.74234,11.54687 q 1.34375,0 2.25,-0.53125 0.90625,-0.54687 1.35937,-1.23437 l -0.95312,-0.75 q -0.4375,0.5625 -1.09375,0.90625 -0.64063,0.32812 -1.48438,0.32812 -0.625,0 -1.15625,-0.23437 -0.51562,-0.23438 -0.89062,-0.65625 -0.35938,-0.39063 -0.57813,-0.89063 -0.20312,-0.51562 -0.26562,-1.17187 v -0.0625 h 6.54687 v -0.70312 q 0,-0.95313 -0.25,-1.76563 -0.23437,-0.82812 -0.71875,-1.4375 -0.5,-0.60937 -1.25,-0.95312 -0.73437,-0.34375 -1.71875,-0.34375 -0.78125,0 -1.53125,0.32812 -0.75,0.3125 -1.34375,0.92188 -0.57812,0.60937 -0.9375,1.48437 -0.35937,0.875 -0.35937,1.98438 v 0.35937 q 0,0.95312 0.3125,1.76562 0.32812,0.8125 0.90625,1.40625 0.57812,0.59375 1.375,0.92188 0.8125,0.32812 1.78125,0.32812 z m -0.20313,-8.20312 q 0.60938,0 1.03125,0.21875 0.4375,0.21875 0.73438,0.5625 0.28125,0.35938 0.4375,0.84375 0.17187,0.48438 0.17187,0.92188 v 0.0625 h -4.92187 q 0.0781,-0.625 0.3125,-1.10938 0.23437,-0.48437 0.57812,-0.82812 0.34375,-0.32813 0.76563,-0.5 0.42187,-0.17188 0.89062,-0.17188 z m 18.21903,10.15625 0.17187,0.96875 q 0.82813,-0.0156 1.42188,-0.375 0.60937,-0.35938 1.01562,-0.9375 0.39063,-0.5625 0.5625,-1.25 0.1875,-0.6875 0.1875,-1.375 v -1.42188 q 0,-0.59375 0.14063,-1.01562 0.14062,-0.4375 0.42187,-0.73438 0.28125,-0.29687 0.73438,-0.42187 0.45312,-0.14062 1.0625,-0.15625 v -1.23437 q -0.6875,0 -1.1875,-0.17188 -0.5,-0.1875 -0.78125,-0.57812 -0.1875,-0.28125 -0.29688,-0.65625 -0.0937,-0.39063 -0.0937,-0.90625 v -1.4375 q 0,-0.70313 -0.1875,-1.4375 -0.1875,-0.73438 -0.625,-1.3125 -0.375,-0.51563 -0.96875,-0.82813 -0.57812,-0.32812 -1.40625,-0.35937 l -0.17187,0.96875 q 0.60937,0.0312 0.96875,0.29687 0.35937,0.26563 0.54687,0.6875 0.17188,0.42188 0.21875,0.95313 0.0625,0.51562 0.0625,1.03125 v 1.4375 q 0,0.65625 0.1875,1.21875 0.20313,0.5625 0.60938,0.98437 0.21875,0.23438 0.5,0.42188 0.28125,0.1875 0.625,0.32812 -0.32813,0.125 -0.60938,0.3125 -0.28125,0.17188 -0.5,0.39062 -0.40625,0.42188 -0.60937,0.98438 -0.20313,0.5625 -0.20313,1.23437 v 1.42188 q 0,0.53125 -0.0937,1.04687 -0.0781,0.53125 -0.28125,0.9375 -0.21875,0.42188 -0.5625,0.6875 -0.34375,0.28125 -0.85937,0.29688 z"
       fill-rule="nonzero"
       id="path9" />
    <path
       fill="#000000"
       d="m 93.39813,154.79839 -0.01563,-4.53125 h -4 v 1.32812 h 2.5 l -0.01563,2.76563 q -0.1875,0.28125 -0.484375,0.45312 -0.28125,0.17188 -0.609375,0.28125 -0.328125,0.0937 -0.6875,0.125 -0.34375,0.0312 -0.671875,0.0312 -0.546875,-0.0156 -1,-0.20312 -0.4375,-0.1875 -0.765625,-0.51563 -0.34375,-0.3125 -0.578125,-0.73437 -0.234375,-0.42188 -0.390625,-0.90625 -0.140625,-0.46875 -0.21875,-0.95313 -0.07813,-0.5 -0.07813,-0.96875 v -1.45312 q 0,-0.45313 0.04687,-0.9375 0.0625,-0.5 0.203125,-0.96875 0.140625,-0.46875 0.34375,-0.89063 0.21875,-0.4375 0.53125,-0.76562 0.328125,-0.3125 0.75,-0.5 0.4375,-0.20313 1,-0.20313 0.578125,0 1.015625,0.1875 0.453125,0.1875 0.765625,0.5 0.3125,0.32813 0.5,0.78125 0.203125,0.45313 0.296875,0.98438 h 1.546875 q -0.07813,-0.85938 -0.40625,-1.5625 -0.328125,-0.70313 -0.875,-1.20313 -0.53125,-0.48437 -1.265625,-0.75 -0.71875,-0.26562 -1.59375,-0.26562 -0.765625,0 -1.40625,0.23437 -0.625,0.21875 -1.109375,0.60938 -0.5,0.39062 -0.859375,0.9375 -0.34375,0.53125 -0.59375,1.15625 -0.234375,0.625 -0.34375,1.3125 -0.109375,0.67187 -0.125,1.35937 v 1.4375 q 0.01563,0.6875 0.140625,1.375 0.125,0.67188 0.390625,1.29688 0.265625,0.625 0.640625,1.15625 0.375,0.53125 0.890625,0.92187 0.5,0.40625 1.140625,0.625 0.640625,0.21875 1.40625,0.23438 0.75,0 1.4375,-0.17188 0.6875,-0.17187 1.28125,-0.53125 0.34375,-0.20312 0.65625,-0.46875 0.328125,-0.28125 0.609375,-0.60937 z m 6.4767,1.78125 q 1.34375,0 2.25,-0.53125 0.90625,-0.54688 1.35937,-1.23438 l -0.95312,-0.75 q -0.4375,0.5625 -1.09375,0.90625 -0.64063,0.32813 -1.484375,0.32813 -0.625,0 -1.15625,-0.23438 -0.515625,-0.23437 -0.890625,-0.65625 -0.359375,-0.39062 -0.578125,-0.89062 -0.203125,-0.51563 -0.265625,-1.17188 v -0.0625 h 6.54687 v -0.70312 q 0,-0.95313 -0.25,-1.76563 -0.23437,-0.82812 -0.71875,-1.4375 -0.5,-0.60937 -1.25,-0.95312 -0.73437,-0.34375 -1.718745,-0.34375 -0.78125,0 -1.53125,0.32812 -0.75,0.3125 -1.34375,0.92188 -0.578125,0.60937 -0.9375,1.48437 -0.359375,0.875 -0.359375,1.98438 v 0.35937 q 0,0.95313 0.3125,1.76563 0.328125,0.8125 0.90625,1.40625 0.578125,0.59375 1.375,0.92187 0.8125,0.32813 1.78125,0.32813 z m -0.203125,-8.20313 q 0.609375,0 1.031245,0.21875 0.4375,0.21875 0.73438,0.5625 0.28125,0.35938 0.4375,0.84375 0.17187,0.48438 0.17187,0.92188 v 0.0625 h -4.92187 q 0.07813,-0.625 0.3125,-1.10938 0.234375,-0.48437 0.578125,-0.82812 0.34375,-0.32813 0.765625,-0.5 0.421875,-0.17188 0.890625,-0.17188 z m 6.554825,8.03125 h 1.5625 v -6.5625 q 0.17187,-0.29687 0.375,-0.54687 0.21875,-0.25 0.48437,-0.42188 0.3125,-0.21875 0.67188,-0.34375 0.375,-0.125 0.8125,-0.125 0.5,0 0.875,0.125 0.39062,0.10938 0.65625,0.375 0.26562,0.26563 0.40625,0.6875 0.14062,0.42188 0.14062,1.03125 v 5.78125 h 1.5625 v -5.8125 q 0,-0.90625 -0.23437,-1.57812 -0.21875,-0.67188 -0.64063,-1.09375 -0.40625,-0.4375 -1,-0.64063 -0.57812,-0.20312 -1.29687,-0.20312 -0.53125,0.0156 -1.01563,0.17187 -0.48437,0.14063 -0.89062,0.40625 -0.26563,0.17188 -0.51563,0.42188 -0.23437,0.23437 -0.4375,0.53125 l -0.10937,-1.35938 h -1.40625 z m 15.88295,-12.79687 v -1.28125 h -3.34375 v 16.71875 h 3.34375 v -1.28125 h -1.875 v -14.15625 z m 6.46107,7.79687 v 0.0781 q 0,1.21875 0.1875,2.28125 0.20313,1.0625 0.51563,1.96875 0.3125,0.92187 0.73437,1.67187 0.42188,0.75 0.89063,1.32813 0.45312,0.59375 0.92187,1 0.46875,0.40625 0.89063,0.65625 l 0.32812,-0.96875 q -0.34375,-0.28125 -0.6875,-0.67188 -0.34375,-0.39062 -0.65625,-0.89062 -0.3125,-0.54688 -0.60937,-1.21875 -0.28125,-0.67188 -0.5,-1.45313 -0.20313,-0.78125 -0.32813,-1.70312 -0.125,-0.92188 -0.125,-1.98438 v -0.10937 q 0,-1.10938 0.125,-2.0625 0.14063,-0.95313 0.35938,-1.75 0.25,-0.875 0.59375,-1.60938 0.35937,-0.75 0.75,-1.29687 0.26562,-0.35938 0.53125,-0.64063 0.28125,-0.29687 0.54687,-0.5 l -0.32812,-1.03125 q -0.42188,0.23438 -0.89063,0.65625 -0.46875,0.42188 -0.92187,1 -0.46875,0.57813 -0.89063,1.34375 -0.40625,0.75 -0.73437,1.65625 -0.3125,0.90625 -0.51563,1.98438 -0.1875,1.0625 -0.1875,2.26562 z m 8.8517,-7.3125 v 1.35938 h 2.89063 v 9.59375 h -2.89063 v 1.35937 h 7.45313 v -1.35937 h -2.95313 v -9.59375 h 2.95313 v -1.35938 z m 10.39858,12.3125 h 1.5625 v -6.5625 q 0.17187,-0.29687 0.375,-0.54687 0.21875,-0.25 0.48437,-0.42188 0.3125,-0.21875 0.67188,-0.34375 0.375,-0.125 0.8125,-0.125 0.5,0 0.875,0.125 0.39062,0.10938 0.65625,0.375 0.26562,0.26563 0.40625,0.6875 0.14062,0.42188 0.14062,1.03125 v 5.78125 h 1.5625 v -5.8125 q 0,-0.90625 -0.23437,-1.57812 -0.21875,-0.67188 -0.64063,-1.09375 -0.40625,-0.4375 -1,-0.64063 -0.57812,-0.20312 -1.29687,-0.20312 -0.53125,0.0156 -1.01563,0.17187 -0.48437,0.14063 -0.89062,0.40625 -0.26563,0.17188 -0.51563,0.42188 -0.23437,0.23437 -0.4375,0.53125 l -0.10937,-1.35938 h -1.40625 z m 14.1017,-11.375 h -1.5625 v 2.21875 h -2.40625 v 1.21875 h 2.40625 v 4.96875 q 0,0.84375 0.21875,1.4375 0.21875,0.59375 0.60937,0.96875 0.39063,0.39063 0.92188,0.5625 0.53125,0.17188 1.14062,0.17188 0.35938,0 0.71875,-0.0469 0.375,-0.0312 0.70313,-0.0937 0.34375,-0.0625 0.60937,-0.14062 0.28125,-0.0937 0.48438,-0.21875 l -0.21875,-1.10938 q -0.15625,0.0469 -0.375,0.0937 -0.21875,0.0469 -0.48438,0.0781 -0.25,0.0469 -0.53125,0.0781 -0.26562,0.0312 -0.51562,0.0312 -0.34375,0 -0.65625,-0.0781 -0.3125,-0.0937 -0.54688,-0.3125 -0.23437,-0.20313 -0.375,-0.54688 -0.14062,-0.34375 -0.14062,-0.875 v -4.96875 h 3.5 v -1.21875 h -3.5 z m 10.6642,11.01563 v -1.5 h -1.70313 v 1.51562 q 0,0.71875 -0.17187,1.39063 -0.15625,0.67187 -0.5625,1.26562 l 0.96875,0.53125 q 0.67187,-0.60937 1.0625,-1.48437 0.40625,-0.875 0.40625,-1.71875 z m 24.84402,-5.09375 v -1.40625 q -0.0156,-0.65625 -0.125,-1.32813 -0.0937,-0.67187 -0.3125,-1.3125 -0.23437,-0.625 -0.57812,-1.15625 -0.34375,-0.54687 -0.8125,-0.95312 -0.46875,-0.40625 -1.09375,-0.64063 -0.60938,-0.23437 -1.375,-0.23437 -0.76563,0 -1.375,0.23437 -0.60938,0.23438 -1.09375,0.64063 -0.46875,0.40625 -0.8125,0.95312 -0.34375,0.54688 -0.5625,1.17188 -0.23438,0.625 -0.34375,1.29687 -0.0937,0.67188 -0.10938,1.32813 v 1.40625 q 0.0156,0.67187 0.125,1.34375 0.10938,0.65625 0.34375,1.28125 0.21875,0.625 0.5625,1.17187 0.34375,0.54688 0.8125,0.95313 0.48438,0.40625 1.09375,0.64062 0.60938,0.23438 1.375,0.23438 0.76563,0 1.375,-0.23438 0.60938,-0.23437 1.09375,-0.64062 0.46875,-0.40625 0.8125,-0.9375 0.34375,-0.54688 0.5625,-1.17188 0.21875,-0.625 0.3125,-1.29687 0.10938,-0.67188 0.125,-1.34375 z m -1.54687,-1.42188 v 1.42188 q -0.0156,0.4375 -0.0625,0.92187 -0.0469,0.48438 -0.15625,0.95313 -0.125,0.46875 -0.32813,0.90625 -0.20312,0.42187 -0.5,0.75 -0.29687,0.32812 -0.71875,0.53125 -0.42187,0.1875 -0.96875,0.1875 -0.54687,0 -0.96875,-0.1875 -0.40625,-0.20313 -0.71875,-0.53125 -0.29687,-0.32813 -0.5,-0.75 -0.20312,-0.4375 -0.32812,-0.92188 -0.125,-0.45312 -0.1875,-0.9375 -0.0625,-0.48437 -0.0625,-0.92187 v -1.42188 q 0,-0.42187 0.0625,-0.90625 0.0625,-0.48437 0.1875,-0.95312 0.10937,-0.46875 0.3125,-0.89063 0.20312,-0.42187 0.51562,-0.75 0.29688,-0.32812 0.70313,-0.51562 0.42187,-0.20313 0.96875,-0.20313 0.54687,0 0.95312,0.1875 0.42188,0.1875 0.73438,0.51563 0.29687,0.32812 0.5,0.76562 0.20312,0.42188 0.32812,0.89063 0.125,0.46875 0.17188,0.95312 0.0469,0.46875 0.0625,0.90625 z m 3.92982,10.39063 h 1.5625 v -4.39063 q 0.17188,0.1875 0.35938,0.34375 0.20312,0.15625 0.42187,0.28125 0.35938,0.20313 0.8125,0.3125 0.45313,0.10938 0.96875,0.10938 0.875,0 1.54688,-0.35938 0.67187,-0.35937 1.125,-0.98437 0.45312,-0.625 0.6875,-1.46875 0.25,-0.85938 0.25,-1.82813 v -0.1875 q 0,-1.01562 -0.25,-1.875 -0.23438,-0.85937 -0.6875,-1.48437 -0.45313,-0.60938 -1.14063,-0.95313 -0.67187,-0.35937 -1.54687,-0.35937 -0.5,0 -0.9375,0.10937 -0.4375,0.10938 -0.79688,0.3125 -0.25,0.125 -0.46875,0.32813 -0.21875,0.1875 -0.40625,0.42187 l -0.0781,-1 h -1.42188 z m 6.15625,-8.17188 v 0.1875 q 0,0.65625 -0.15625,1.26563 -0.14062,0.60937 -0.4375,1.07812 -0.3125,0.46875 -0.78125,0.75 -0.46875,0.26563 -1.125,0.26563 -0.40625,0 -0.75,-0.0937 -0.32812,-0.10938 -0.59375,-0.28125 -0.23437,-0.15625 -0.42187,-0.375 -0.1875,-0.21875 -0.32813,-0.46875 v -4.42188 q 0.15625,-0.28125 0.35938,-0.51562 0.21875,-0.23438 0.5,-0.40625 0.23437,-0.15625 0.54687,-0.23438 0.3125,-0.0937 0.67188,-0.0937 0.65625,0 1.125,0.28125 0.48437,0.26563 0.79687,0.71875 0.29688,0.46875 0.4375,1.07813 0.15625,0.59375 0.15625,1.26562 z m 9.96108,-0.26562 v -0.0781 q 0,-1.29687 -0.20313,-2.32812 -0.20312,-1.04688 -0.5,-1.92188 -0.3125,-0.92187 -0.73437,-1.65625 -0.40625,-0.75 -0.89063,-1.34375 -0.45312,-0.57812 -0.9375,-1 -0.46875,-0.42187 -0.89062,-0.65625 l -0.32813,0.95313 q 0.28125,0.23437 0.57813,0.5625 0.29687,0.32812 0.57812,0.75 0.35938,0.5625 0.70313,1.29687 0.35937,0.73438 0.59375,1.67188 0.17187,0.65625 0.3125,1.59375 0.14062,0.92187 0.14062,2.0625 v 0.10937 q 0,1.01563 -0.10937,1.90625 -0.10938,0.875 -0.29688,1.64063 -0.1875,0.8125 -0.48437,1.5 -0.28125,0.70312 -0.59375,1.25 -0.32813,0.53125 -0.70313,0.95312 -0.35937,0.42188 -0.71875,0.67188 l 0.32813,0.96875 q 0.42187,-0.25 0.89062,-0.65625 0.48438,-0.40625 0.9375,-1 0.46875,-0.57813 0.875,-1.32813 0.42188,-0.75 0.75,-1.67187 0.3125,-0.90625 0.5,-1.96875 0.20313,-1.0625 0.20313,-2.28125 z m 6.63295,-9.15625 v 1.28125 h 1.89062 v 14.15625 h -1.89062 v 1.28125 h 3.35937 v -16.71875 z m 11.17982,13.0625 q 0,0.48437 0.29688,0.82812 0.3125,0.34375 0.92187,0.34375 0.60938,0 0.92188,-0.32812 0.32812,-0.34375 0.32812,-0.84375 0,-0.5 -0.32812,-0.84375 -0.3125,-0.35938 -0.92188,-0.35938 -0.60937,0 -0.92187,0.35938 -0.29688,0.34375 -0.29688,0.84375 z m 13.69545,1.01562 h 1.42188 v -9.15625 h -1.5625 v 6.5625 q -0.14063,0.29688 -0.32813,0.54688 -0.1875,0.25 -0.4375,0.4375 -0.3125,0.21875 -0.73437,0.34375 -0.40625,0.10937 -0.92188,0.10937 -0.45312,0 -0.79687,-0.10937 -0.34375,-0.125 -0.57813,-0.42188 -0.23437,-0.28125 -0.35937,-0.76562 -0.10938,-0.5 -0.10938,-1.25 v -5.45313 h -1.57812 v 5.4375 q 0,1.03125 0.21875,1.76563 0.23437,0.71875 0.65625,1.20312 0.40625,0.46875 0.98437,0.70313 0.59375,0.21875 1.3125,0.21875 0.89063,0 1.57813,-0.375 0.6875,-0.375 1.14062,-1.0625 z m 4.36733,0 h 1.5625 v -6.5625 q 0.17187,-0.29687 0.375,-0.54687 0.21875,-0.25 0.48437,-0.42188 0.3125,-0.21875 0.67188,-0.34375 0.375,-0.125 0.8125,-0.125 0.5,0 0.875,0.125 0.39062,0.10938 0.65625,0.375 0.26562,0.26563 0.40625,0.6875 0.14062,0.42188 0.14062,1.03125 v 5.78125 h 1.5625 v -5.8125 q 0,-0.90625 -0.23437,-1.57812 -0.21875,-0.67188 -0.64063,-1.09375 -0.40625,-0.4375 -1,-0.64063 -0.57812,-0.20312 -1.29687,-0.20312 -0.53125,0.0156 -1.01563,0.17187 -0.48437,0.14063 -0.89062,0.40625 -0.26563,0.17188 -0.51563,0.42188 -0.23437,0.23437 -0.4375,0.53125 l -0.10937,-1.35938 h -1.40625 z m 10.64856,-9.15625 v 1.35938 h 3.10937 v 6.4375 h -3.10937 v 1.35937 h 7.67187 v -1.35937 h -3 v -7.79688 z m 2.90625,-2.40625 q 0,0.39063 0.23437,0.64063 0.23438,0.25 0.70313,0.25 0.46875,0 0.70312,-0.25 0.23438,-0.25 0.23438,-0.64063 0,-0.20312 -0.0625,-0.375 -0.0625,-0.1875 -0.20313,-0.3125 -0.10937,-0.10937 -0.28125,-0.17187 -0.17187,-0.0625 -0.39062,-0.0625 -0.21875,0 -0.39063,0.0625 -0.17187,0.0625 -0.28125,0.17187 -0.14062,0.14063 -0.20312,0.3125 -0.0625,0.17188 -0.0625,0.375 z m 9.58609,11.5625 h 1.5625 v -7.9375 h 3.53125 v -1.21875 h -3.53125 v -0.64062 q 0,-0.57813 0.14062,-1 0.15625,-0.4375 0.45313,-0.70313 0.26562,-0.26562 0.67187,-0.39062 0.42188,-0.14063 0.95313,-0.14063 0.51562,0 0.96875,0.0937 0.46875,0.0781 0.82812,0.20313 l 0.17188,-1.29688 q -0.21875,-0.0625 -0.4375,-0.10937 -0.20313,-0.0469 -0.40625,-0.0781 -0.32813,-0.0625 -0.65625,-0.0937 -0.32813,-0.0469 -0.67188,-0.0469 -0.8125,0 -1.46875,0.23437 -0.65625,0.21875 -1.125,0.67188 -0.46875,0.45312 -0.73437,1.125 -0.25,0.65625 -0.25,1.53125 v 0.64062 h -2.53125 v 1.21875 h 2.53125 z m 7.61731,-4.65625 v 0.1875 q 0,0.98438 0.28125,1.82813 0.29687,0.84375 0.84375,1.46875 0.53125,0.625 1.29687,0.98437 0.78125,0.35938 1.75,0.35938 0.96875,0 1.73438,-0.35938 0.76562,-0.35937 1.3125,-0.98437 0.53125,-0.625 0.8125,-1.46875 0.29687,-0.84375 0.29687,-1.82813 v -0.1875 q 0,-1 -0.29687,-1.84375 -0.28125,-0.85937 -0.8125,-1.48437 -0.54688,-0.625 -1.32813,-0.98438 -0.76562,-0.35937 -1.73437,-0.35937 -0.96875,0 -1.73438,0.35937 -0.76562,0.35938 -1.29687,0.98438 -0.54688,0.625 -0.84375,1.48437 -0.28125,0.84375 -0.28125,1.84375 z m 1.5625,0.1875 v -0.1875 q 0,-0.67187 0.15625,-1.28125 0.17187,-0.625 0.5,-1.07812 0.32812,-0.46875 0.79687,-0.73438 0.48438,-0.28125 1.14063,-0.28125 0.65625,0 1.14062,0.28125 0.48438,0.26563 0.8125,0.73438 0.32813,0.45312 0.48438,1.07812 0.17187,0.60938 0.17187,1.28125 v 0.1875 q 0,0.67188 -0.17187,1.28125 -0.15625,0.60938 -0.46875,1.07813 -0.34375,0.46875 -0.82813,0.75 -0.48437,0.26562 -1.125,0.26562 -0.65625,0 -1.14062,-0.26562 -0.48438,-0.28125 -0.8125,-0.75 -0.32813,-0.46875 -0.5,-1.07813 -0.15625,-0.60937 -0.15625,-1.28125 z m 15.27359,-4.85937 q -1,0 -1.78125,0.4375 -0.78125,0.4375 -1.34375,1.1875 v -0.21875 l -0.0781,-1.23438 h -1.48437 v 9.15625 h 1.57812 v -5.875 q 0.15625,-0.42187 0.375,-0.76562 0.23438,-0.34375 0.54688,-0.57813 0.35937,-0.26562 0.8125,-0.40625 0.46875,-0.14062 1.04687,-0.14062 0.45313,0 0.85938,0.0469 0.40625,0.0469 0.85937,0.14063 l 0.21875,-1.53125 q -0.23437,-0.0937 -0.70312,-0.15625 -0.46875,-0.0625 -0.90625,-0.0625 z m 5.11731,0.17187 h -1.40625 v 9.15625 h 1.5 v -7.28125 q 0.0469,-0.14062 0.125,-0.25 0.0781,-0.125 0.1875,-0.21875 0.14062,-0.125 0.34375,-0.1875 0.21875,-0.0625 0.5,-0.0625 0.25,0 0.4375,0.0625 0.1875,0.0625 0.32812,0.20313 0.125,0.14062 0.1875,0.35937 0.0625,0.21875 0.0625,0.51563 v 6.85937 h 1.5 v -6.85937 q 0,-0.0469 0,-0.0781 0,-0.0469 0,-0.0781 0.0156,-0.21875 0.0937,-0.39063 0.0781,-0.17187 0.21875,-0.3125 0.125,-0.125 0.32813,-0.20312 0.20312,-0.0781 0.48437,-0.0781 0.26563,0 0.45313,0.0781 0.20312,0.0625 0.34375,0.20312 0.125,0.14063 0.1875,0.35938 0.0781,0.21875 0.0781,0.5 v 6.85937 h 1.48438 v -6.84375 q 0,-0.65625 -0.15625,-1.14062 -0.14063,-0.48438 -0.4375,-0.79688 -0.25,-0.26562 -0.64063,-0.40625 -0.375,-0.14062 -0.85937,-0.14062 -0.34375,0.0156 -0.64063,0.10937 -0.28125,0.0781 -0.51562,0.21875 -0.1875,0.125 -0.35938,0.29688 -0.15625,0.17187 -0.26562,0.35937 -0.0937,-0.20312 -0.23438,-0.375 -0.125,-0.17187 -0.28125,-0.29687 -0.21875,-0.14063 -0.51562,-0.21875 -0.29688,-0.0937 -0.65625,-0.0937 -0.64063,0.0156 -1.09375,0.28125 -0.45313,0.26562 -0.73438,0.75 z m 11.22671,4.15625 v 0.0781 q 0,1.21875 0.1875,2.28125 0.20313,1.0625 0.51563,1.96875 0.3125,0.92187 0.73437,1.67187 0.42188,0.75 0.89063,1.32813 0.45312,0.59375 0.92187,1 0.46875,0.40625 0.89063,0.65625 l 0.32812,-0.96875 q -0.34375,-0.28125 -0.6875,-0.67188 -0.34375,-0.39062 -0.65625,-0.89062 -0.3125,-0.54688 -0.60937,-1.21875 -0.28125,-0.67188 -0.5,-1.45313 -0.20313,-0.78125 -0.32813,-1.70312 -0.125,-0.92188 -0.125,-1.98438 v -0.10937 q 0,-1.10938 0.125,-2.0625 0.14063,-0.95313 0.35938,-1.75 0.25,-0.875 0.59375,-1.60938 0.35937,-0.75 0.75,-1.29687 0.26562,-0.35938 0.53125,-0.64063 0.28125,-0.29687 0.54687,-0.5 l -0.32812,-1.03125 q -0.42188,0.23438 -0.89063,0.65625 -0.46875,0.42188 -0.92187,1 -0.46875,0.57813 -0.89063,1.34375 -0.40625,0.75 -0.73437,1.65625 -0.3125,0.90625 -0.51563,1.98438 -0.1875,1.0625 -0.1875,2.26562 z m 14.57044,0.0781 v -0.0781 q 0,-1.29687 -0.20313,-2.32812 -0.20312,-1.04688 -0.5,-1.92188 -0.3125,-0.92187 -0.73437,-1.65625 -0.40625,-0.75 -0.89063,-1.34375 -0.45312,-0.57812 -0.9375,-1 -0.46875,-0.42187 -0.89062,-0.65625 l -0.32813,0.95313 q 0.28125,0.23437 0.57813,0.5625 0.29687,0.32812 0.57812,0.75 0.35938,0.5625 0.70313,1.29687 0.35937,0.73438 0.59375,1.67188 0.17187,0.65625 0.3125,1.59375 0.14062,0.92187 0.14062,2.0625 v 0.10937 q 0,1.01563 -0.10937,1.90625 -0.10938,0.875 -0.29688,1.64063 -0.1875,0.8125 -0.48437,1.5 -0.28125,0.70312 -0.59375,1.25 -0.32813,0.53125 -0.70313,0.95312 -0.35937,0.42188 -0.71875,0.67188 l 0.32813,0.96875 q 0.42187,-0.25 0.89062,-0.65625 0.48438,-0.40625 0.9375,-1 0.46875,-0.57813 0.875,-1.32813 0.42188,-0.75 0.75,-1.67187 0.3125,-0.90625 0.5,-1.96875 0.20313,-1.0625 0.20313,-2.28125 z m 7.41421,3.90625 q 0,0.48437 0.29688,0.82812 0.3125,0.34375 0.92187,0.34375 0.60938,0 0.92188,-0.32812 0.32812,-0.34375 0.32812,-0.84375 0,-0.5 -0.32812,-0.84375 -0.3125,-0.35938 -0.92188,-0.35938 -0.60937,0 -0.92187,0.35938 -0.29688,0.34375 -0.29688,0.84375 z m 7.38294,-3.64063 v 0.1875 q 0,0.96875 0.25,1.82813 0.25,0.84375 0.73437,1.46875 0.45313,0.625 1.125,0.98437 0.6875,0.35938 1.53125,0.35938 0.5,0 0.92188,-0.10938 0.4375,-0.10937 0.79687,-0.29687 0.21875,-0.125 0.42188,-0.29688 0.20312,-0.17187 0.375,-0.375 v 0.78125 q 0,0.59375 -0.17188,1.04688 -0.17187,0.46875 -0.48437,0.76562 -0.3125,0.3125 -0.76563,0.46875 -0.45312,0.17188 -1,0.17188 -0.3125,0 -0.625,-0.0625 -0.3125,-0.0625 -0.64062,-0.20313 -0.3125,-0.15625 -0.625,-0.39062 -0.29688,-0.23438 -0.57813,-0.59375 l -0.8125,0.9375 q 0.3125,0.45312 0.75,0.75 0.4375,0.3125 0.90625,0.48437 0.46875,0.1875 0.92188,0.26563 0.45312,0.0937 0.8125,0.0937 0.85937,0 1.5625,-0.26563 0.71875,-0.25 1.23437,-0.73437 0.51563,-0.5 0.79688,-1.20313 0.28125,-0.70312 0.28125,-1.59375 v -8.96875 h -1.42188 l -0.0781,1 q -0.15625,-0.20312 -0.34375,-0.375 -0.17188,-0.17187 -0.375,-0.29687 -0.375,-0.23438 -0.84375,-0.35938 -0.45313,-0.14062 -1,-0.14062 -0.85938,0 -1.54688,0.35937 -0.67187,0.34375 -1.14062,0.95313 -0.46875,0.625 -0.71875,1.48437 -0.25,0.85938 -0.25,1.875 z m 1.5625,0.1875 v -0.1875 q 0,-0.67187 0.14062,-1.26562 0.14063,-0.60938 0.4375,-1.07813 0.29688,-0.45312 0.76563,-0.71875 0.46875,-0.28125 1.14062,-0.28125 0.39063,0 0.70313,0.10938 0.32812,0.0937 0.57812,0.26562 0.26563,0.17188 0.46875,0.40625 0.20313,0.23438 0.35938,0.53125 v 4.1875 q -0.15625,0.29688 -0.35938,0.54688 -0.20312,0.25 -0.45312,0.42187 -0.26563,0.17188 -0.59375,0.28125 -0.3125,0.0937 -0.71875,0.0937 -0.65625,0 -1.125,-0.26562 -0.46875,-0.26563 -0.76563,-0.73438 -0.29687,-0.45312 -0.4375,-1.04687 -0.14062,-0.60938 -0.14062,-1.26563 z m 13.16418,4.64063 q 1.34375,0 2.25,-0.53125 0.90625,-0.54688 1.35938,-1.23438 l -0.95313,-0.75 q -0.4375,0.5625 -1.09375,0.90625 -0.64062,0.32813 -1.48437,0.32813 -0.625,0 -1.15625,-0.23438 -0.51563,-0.23437 -0.89063,-0.65625 -0.35937,-0.39062 -0.57812,-0.89062 -0.20313,-0.51563 -0.26563,-1.17188 v -0.0625 h 6.54688 v -0.70312 q 0,-0.95313 -0.25,-1.76563 -0.23438,-0.82812 -0.71875,-1.4375 -0.5,-0.60937 -1.25,-0.95312 -0.73438,-0.34375 -1.71875,-0.34375 -0.78125,0 -1.53125,0.32812 -0.75,0.3125 -1.34375,0.92188 -0.57813,0.60937 -0.9375,1.48437 -0.35938,0.875 -0.35938,1.98438 v 0.35937 q 0,0.95313 0.3125,1.76563 0.32813,0.8125 0.90625,1.40625 0.57813,0.59375 1.375,0.92187 0.8125,0.32813 1.78125,0.32813 z m -0.20312,-8.20313 q 0.60937,0 1.03125,0.21875 0.4375,0.21875 0.73437,0.5625 0.28125,0.35938 0.4375,0.84375 0.17188,0.48438 0.17188,0.92188 v 0.0625 h -4.92188 q 0.0781,-0.625 0.3125,-1.10938 0.23438,-0.48437 0.57813,-0.82812 0.34375,-0.32813 0.76562,-0.5 0.42188,-0.17188 0.89063,-0.17188 z m 6.55481,8.03125 h 1.5625 v -6.5625 q 0.17187,-0.29687 0.375,-0.54687 0.21875,-0.25 0.48437,-0.42188 0.3125,-0.21875 0.67188,-0.34375 0.375,-0.125 0.8125,-0.125 0.5,0 0.875,0.125 0.39062,0.10938 0.65625,0.375 0.26562,0.26563 0.40625,0.6875 0.14062,0.42188 0.14062,1.03125 v 5.78125 h 1.5625 v -5.8125 q 0,-0.90625 -0.23437,-1.57812 -0.21875,-0.67188 -0.64063,-1.09375 -0.40625,-0.4375 -1,-0.64063 -0.57812,-0.20312 -1.29687,-0.20312 -0.53125,0.0156 -1.01563,0.17187 -0.48437,0.14063 -0.89062,0.40625 -0.26563,0.17188 -0.51563,0.42188 -0.23437,0.23437 -0.4375,0.53125 l -0.10937,-1.35938 h -1.40625 z m 14.44543,0.17188 q 1.34375,0 2.25,-0.53125 0.90625,-0.54688 1.35938,-1.23438 l -0.95313,-0.75 q -0.4375,0.5625 -1.09375,0.90625 -0.64062,0.32813 -1.48437,0.32813 -0.625,0 -1.15625,-0.23438 -0.51563,-0.23437 -0.89063,-0.65625 -0.35937,-0.39062 -0.57812,-0.89062 -0.20313,-0.51563 -0.26563,-1.17188 v -0.0625 h 6.54688 v -0.70312 q 0,-0.95313 -0.25,-1.76563 -0.23438,-0.82812 -0.71875,-1.4375 -0.5,-0.60937 -1.25,-0.95312 -0.73438,-0.34375 -1.71875,-0.34375 -0.78125,0 -1.53125,0.32812 -0.75,0.3125 -1.34375,0.92188 -0.57813,0.60937 -0.9375,1.48437 -0.35938,0.875 -0.35938,1.98438 v 0.35937 q 0,0.95313 0.3125,1.76563 0.32813,0.8125 0.90625,1.40625 0.57813,0.59375 1.375,0.92187 0.8125,0.32813 1.78125,0.32813 z m -0.20312,-8.20313 q 0.60937,0 1.03125,0.21875 0.4375,0.21875 0.73437,0.5625 0.28125,0.35938 0.4375,0.84375 0.17188,0.48438 0.17188,0.92188 v 0.0625 h -4.92188 q 0.0781,-0.625 0.3125,-1.10938 0.23438,-0.48437 0.57813,-0.82812 0.34375,-0.32813 0.76562,-0.5 0.42188,-0.17188 0.89063,-0.17188 z m 12.55481,-1.29687 q -1,0 -1.78125,0.4375 -0.78125,0.4375 -1.34375,1.1875 v -0.21875 l -0.0781,-1.23438 h -1.48437 v 9.15625 h 1.57812 v -5.875 q 0.15625,-0.42187 0.375,-0.76562 0.23438,-0.34375 0.54688,-0.57813 0.35937,-0.26562 0.8125,-0.40625 0.46875,-0.14062 1.04687,-0.14062 0.45313,0 0.85938,0.0469 0.40625,0.0469 0.85937,0.14063 l 0.21875,-1.53125 q -0.23437,-0.0937 -0.70312,-0.15625 -0.46875,-0.0625 -0.90625,-0.0625 z m 10.41418,9.32812 h 1.64063 v -0.14062 q -0.15625,-0.375 -0.25,-0.89063 -0.0781,-0.51562 -0.0781,-0.96875 v -4.25 q 0,-0.76562 -0.28125,-1.34375 -0.28125,-0.57812 -0.75,-0.96875 -0.5,-0.375 -1.17187,-0.5625 -0.65625,-0.20312 -1.4375,-0.20312 -0.85938,0 -1.53125,0.25 -0.67188,0.23437 -1.14063,0.60937 -0.46875,0.39063 -0.71875,0.875 -0.25,0.48438 -0.26562,0.98438 h 1.57812 q 0,-0.29688 0.14063,-0.5625 0.14062,-0.26563 0.39062,-0.45313 0.25,-0.20312 0.625,-0.3125 0.375,-0.125 0.82813,-0.125 0.5,0 0.90625,0.125 0.40625,0.125 0.6875,0.35938 0.26562,0.23437 0.42187,0.5625 0.15625,0.32812 0.15625,0.75 v 0.71875 h -1.70312 q -0.96875,0 -1.75,0.1875 -0.76563,0.1875 -1.3125,0.54687 -0.54688,0.39063 -0.85938,0.95313 -0.29687,0.5625 -0.29687,1.32812 0,0.5625 0.21875,1.0625 0.23437,0.5 0.65625,0.84375 0.40625,0.375 0.98437,0.59375 0.59375,0.20313 1.32813,0.20313 0.4375,0 0.82812,-0.0937 0.40625,-0.0937 0.76563,-0.25 0.34375,-0.17188 0.625,-0.375 0.29687,-0.21875 0.54687,-0.45313 0.0156,0.29688 0.0625,0.5625 0.0625,0.26563 0.15625,0.4375 z m -2.76562,-1.1875 q -0.45313,0 -0.79688,-0.125 -0.34375,-0.125 -0.57812,-0.32812 -0.23438,-0.20313 -0.34375,-0.48438 -0.10938,-0.29687 -0.10938,-0.64062 0,-0.34375 0.125,-0.625 0.125,-0.28125 0.39063,-0.48438 0.34375,-0.28125 0.95312,-0.42187 0.60938,-0.14063 1.42188,-0.14063 h 1.45312 v 1.84375 q -0.14062,0.28125 -0.375,0.53125 -0.23437,0.25 -0.5625,0.4375 -0.32812,0.1875 -0.73437,0.3125 -0.39063,0.125 -0.84375,0.125 z m 10.85168,-10.1875 h -1.5625 v 2.21875 h -2.40625 v 1.21875 h 2.40625 v 4.96875 q 0,0.84375 0.21875,1.4375 0.21875,0.59375 0.60938,0.96875 0.39062,0.39063 0.92187,0.5625 0.53125,0.17188 1.14063,0.17188 0.35937,0 0.71875,-0.0469 0.375,-0.0312 0.70312,-0.0937 0.34375,-0.0625 0.60938,-0.14062 0.28125,-0.0937 0.48437,-0.21875 l -0.21875,-1.10938 q -0.15625,0.0469 -0.375,0.0937 -0.21875,0.0469 -0.48437,0.0781 -0.25,0.0469 -0.53125,0.0781 -0.26563,0.0312 -0.51563,0.0312 -0.34375,0 -0.65625,-0.0781 -0.3125,-0.0937 -0.54687,-0.3125 -0.23438,-0.20313 -0.375,-0.54688 -0.14063,-0.34375 -0.14063,-0.875 v -4.96875 h 3.5 v -1.21875 h -3.5 z m 10.74231,11.54688 q 1.34375,0 2.25,-0.53125 0.90625,-0.54688 1.35938,-1.23438 l -0.95313,-0.75 q -0.4375,0.5625 -1.09375,0.90625 -0.64062,0.32813 -1.48437,0.32813 -0.625,0 -1.15625,-0.23438 -0.51563,-0.23437 -0.89063,-0.65625 -0.35937,-0.39062 -0.57812,-0.89062 -0.20313,-0.51563 -0.26563,-1.17188 v -0.0625 h 6.54688 v -0.70312 q 0,-0.95313 -0.25,-1.76563 -0.23438,-0.82812 -0.71875,-1.4375 -0.5,-0.60937 -1.25,-0.95312 -0.73438,-0.34375 -1.71875,-0.34375 -0.78125,0 -1.53125,0.32812 -0.75,0.3125 -1.34375,0.92188 -0.57813,0.60937 -0.9375,1.48437 -0.35938,0.875 -0.35938,1.98438 v 0.35937 q 0,0.95313 0.3125,1.76563 0.32813,0.8125 0.90625,1.40625 0.57813,0.59375 1.375,0.92187 0.8125,0.32813 1.78125,0.32813 z m -0.20312,-8.20313 q 0.60937,0 1.03125,0.21875 0.4375,0.21875 0.73437,0.5625 0.28125,0.35938 0.4375,0.84375 0.17188,0.48438 0.17188,0.92188 v 0.0625 h -4.92188 q 0.0781,-0.625 0.3125,-1.10938 0.23438,-0.48437 0.57813,-0.82812 0.34375,-0.32813 0.76562,-0.5 0.42188,-0.17188 0.89063,-0.17188 z m 8.10168,3.03125 v 0.0781 q 0,1.21875 0.1875,2.28125 0.20313,1.0625 0.51563,1.96875 0.3125,0.92187 0.73437,1.67187 0.42188,0.75 0.89063,1.32813 0.45312,0.59375 0.92187,1 0.46875,0.40625 0.89063,0.65625 l 0.32812,-0.96875 q -0.34375,-0.28125 -0.6875,-0.67188 -0.34375,-0.39062 -0.65625,-0.89062 -0.3125,-0.54688 -0.60937,-1.21875 -0.28125,-0.67188 -0.5,-1.45313 -0.20313,-0.78125 -0.32813,-1.70312 -0.125,-0.92188 -0.125,-1.98438 v -0.10937 q 0,-1.10938 0.125,-2.0625 0.14063,-0.95313 0.35938,-1.75 0.25,-0.875 0.59375,-1.60938 0.35937,-0.75 0.75,-1.29687 0.26562,-0.35938 0.53125,-0.64063 0.28125,-0.29687 0.54687,-0.5 l -0.32812,-1.03125 q -0.42188,0.23438 -0.89063,0.65625 -0.46875,0.42188 -0.92187,1 -0.46875,0.57813 -0.89063,1.34375 -0.40625,0.75 -0.73437,1.65625 -0.3125,0.90625 -0.51563,1.98438 -0.1875,1.0625 -0.1875,2.26562 z m 14.57044,0.0781 v -0.0781 q 0,-1.29687 -0.20313,-2.32812 -0.20312,-1.04688 -0.5,-1.92188 -0.3125,-0.92187 -0.73437,-1.65625 -0.40625,-0.75 -0.89063,-1.34375 -0.45312,-0.57812 -0.9375,-1 -0.46875,-0.42187 -0.89062,-0.65625 l -0.32813,0.95313 q 0.28125,0.23437 0.57813,0.5625 0.29687,0.32812 0.57812,0.75 0.35938,0.5625 0.70313,1.29687 0.35937,0.73438 0.59375,1.67188 0.17187,0.65625 0.3125,1.59375 0.14062,0.92187 0.14062,2.0625 v 0.10937 q 0,1.01563 -0.10937,1.90625 -0.10938,0.875 -0.29688,1.64063 -0.1875,0.8125 -0.48437,1.5 -0.28125,0.70312 -0.59375,1.25 -0.32813,0.53125 -0.70313,0.95312 -0.35937,0.42188 -0.71875,0.67188 l 0.32813,0.96875 q 0.42187,-0.25 0.89062,-0.65625 0.48438,-0.40625 0.9375,-1 0.46875,-0.57813 0.875,-1.32813 0.42188,-0.75 0.75,-1.67187 0.3125,-0.90625 0.5,-1.96875 0.20313,-1.0625 0.20313,-2.28125 z"
       fill-rule="nonzero"
       id="path11" />
    <path
       fill="#353744"
       d="m 302.9621,191.54593 h 74.36731 c 1.8e-4,0 3.4e-4,8e-5 4.9e-4,2e-4 1.2e-4,1.4e-4 1.8e-4,3e-4 1.8e-4,4.9e-4 l -6.7e-4,42.02014 c 0,4.6416 -3.76279,8.40437 -8.40439,8.40437 h -74.36728 v 0 c -3.6e-4,0 -6.7e-4,-3.1e-4 -6.7e-4,-6.9e-4 l 6.7e-4,-42.02014 v 0 c 0,-4.6416 3.76276,-8.40437 8.40436,-8.40437 z"
       fill-rule="evenodd"
       id="path13" />
    <path
       stroke="#202729"
       stroke-width="1"
       stroke-linejoin="round"
       stroke-linecap="butt"
       d="m 302.9621,191.54593 h 74.36731 c 1.8e-4,0 3.4e-4,8e-5 4.9e-4,2e-4 1.2e-4,1.4e-4 1.8e-4,3e-4 1.8e-4,4.9e-4 l -6.7e-4,42.02014 c 0,4.6416 -3.76279,8.40437 -8.40439,8.40437 h -74.36728 v 0 c -3.6e-4,0 -6.7e-4,-3.1e-4 -6.7e-4,-6.9e-4 l 6.7e-4,-42.02014 v 0 c 0,-4.6416 3.76276,-8.40437 8.40436,-8.40437 z"
       fill-rule="evenodd"
       id="path15" />
    <path
       fill="#ffffff"
       d="m 314.8693,217.96103 h 2.42187 q 0.82813,-0.0156 1.5625,-0.25 0.75,-0.25 1.3125,-0.71875 0.54688,-0.46875 0.875,-1.14063 0.32813,-0.6875 0.32813,-1.57812 0,-0.89063 -0.32813,-1.5625 -0.32812,-0.6875 -0.875,-1.15625 -0.5625,-0.46875 -1.3125,-0.70313 -0.73437,-0.25 -1.5625,-0.26562 h -4 v 12.3125 h 1.57813 z m 0,-1.29688 v -4.79687 h 2.42187 q 0.54688,0 1,0.17187 0.46875,0.17188 0.79688,0.48438 0.32812,0.3125 0.51562,0.76562 0.20313,0.45313 0.20313,1 0,0.5625 -0.20313,1 -0.1875,0.4375 -0.51562,0.73438 -0.34375,0.3125 -0.79688,0.48437 -0.45312,0.15625 -1,0.15625 z m 12.75793,1.20313 2.42188,5.03125 h 1.65625 v -0.0937 l -2.60938,-5.26563 q 0.5,-0.21875 0.92188,-0.53125 0.4375,-0.3125 0.73437,-0.71875 0.3125,-0.40625 0.48438,-0.90625 0.17187,-0.5 0.17187,-1.10937 0,-0.92188 -0.32812,-1.60938 -0.32813,-0.70312 -0.89063,-1.15625 -0.57812,-0.45312 -1.34375,-0.67187 -0.76562,-0.23438 -1.625,-0.25 h -3.60937 v 12.3125 h 1.5625 v -5.03125 z m -2.45312,-1.28125 v -4.71875 h 2.04687 q 0.57813,0 1.04688,0.15625 0.48437,0.15625 0.82812,0.45312 0.34375,0.29688 0.53125,0.75 0.20313,0.4375 0.20313,1.03125 0,0.5625 -0.20313,1 -0.20312,0.42188 -0.54687,0.71875 -0.35938,0.28125 -0.82813,0.4375 -0.45312,0.15625 -0.98437,0.17188 z m 16.49234,6.3125 v -12.3125 h -1.57813 l -0.0312,9.1875 -4.78125,-9.1875 h -1.59375 v 12.3125 h 1.59375 l 0.0156,-9.20313 4.78125,9.20313 z m 10.64856,-1.60938 -0.0156,-4.53125 h -4 v 1.32813 h 2.5 l -0.0156,2.76562 q -0.1875,0.28125 -0.48438,0.45313 -0.28125,0.17187 -0.60937,0.28125 -0.32813,0.0937 -0.6875,0.125 -0.34375,0.0312 -0.67188,0.0312 -0.54687,-0.0156 -1,-0.20313 -0.4375,-0.1875 -0.76562,-0.51562 -0.34375,-0.3125 -0.57813,-0.73438 -0.23437,-0.42187 -0.39062,-0.90625 -0.14063,-0.46875 -0.21875,-0.95312 -0.0781,-0.5 -0.0781,-0.96875 v -1.45313 q 0,-0.45312 0.0469,-0.9375 0.0625,-0.5 0.20312,-0.96875 0.14063,-0.46875 0.34375,-0.89062 0.21875,-0.4375 0.53125,-0.76563 0.32813,-0.3125 0.75,-0.5 0.4375,-0.20312 1,-0.20312 0.57813,0 1.01563,0.1875 0.45312,0.1875 0.76562,0.5 0.3125,0.32812 0.5,0.78125 0.20313,0.45312 0.29688,0.98437 h 1.54687 q -0.0781,-0.85937 -0.40625,-1.5625 -0.32812,-0.70312 -0.875,-1.20312 -0.53125,-0.48438 -1.26562,-0.75 -0.71875,-0.26563 -1.59375,-0.26563 -0.76563,0 -1.40625,0.23438 -0.625,0.21875 -1.10938,0.60937 -0.5,0.39063 -0.85937,0.9375 -0.34375,0.53125 -0.59375,1.15625 -0.23438,0.625 -0.34375,1.3125 -0.10938,0.67188 -0.125,1.35938 v 1.4375 q 0.0156,0.6875 0.14062,1.375 0.125,0.67187 0.39063,1.29687 0.26562,0.625 0.64062,1.15625 0.375,0.53125 0.89063,0.92188 0.5,0.40625 1.14062,0.625 0.64063,0.21875 1.40625,0.23437 0.75,0 1.4375,-0.17187 0.6875,-0.17188 1.28125,-0.53125 0.34375,-0.20313 0.65625,-0.46875 0.32813,-0.28125 0.60938,-0.60938 z"
       fill-rule="nonzero"
       id="path17" />
    <path
       fill="#ffffff"
       d="m 359.41672,226.2579 v -1.92188 q 0,-0.78125 -0.1875,-1.39062 -0.17188,-0.60938 -0.51563,-1.01563 -0.34375,-0.42187 -0.84375,-0.64062 -0.48437,-0.21875 -1.125,-0.21875 -0.625,0 -1.125,0.21875 -0.48437,0.21875 -0.82812,0.64062 -0.34375,0.40625 -0.53125,1.01563 -0.17188,0.60937 -0.17188,1.39062 v 1.92188 q 0,0.78125 0.17188,1.39062 0.1875,0.60938 0.53125,1.01563 0.34375,0.42187 0.84375,0.64062 0.5,0.20313 1.125,0.20313 0.625,0 1.10937,-0.20313 0.5,-0.21875 0.84375,-0.64062 0.34375,-0.40625 0.51563,-1.01563 0.1875,-0.60937 0.1875,-1.39062 z m -4.28125,-0.20313 q 0,-0.15625 0,-0.29687 0,-0.14063 0,-0.28125 v -1.375 q 0,-0.57813 0.10937,-1.01563 0.125,-0.4375 0.35938,-0.70312 0.20312,-0.21875 0.48437,-0.32813 0.28125,-0.125 0.65625,-0.125 0.375,0 0.64063,0.10938 0.28125,0.10937 0.48437,0.3125 0.1875,0.21875 0.29688,0.53125 0.125,0.3125 0.17187,0.71875 z m 3.21875,0.42188 q 0,0.60937 -0.125,1.0625 -0.10938,0.4375 -0.375,0.70312 -0.1875,0.20313 -0.46875,0.3125 -0.26563,0.10938 -0.625,0.10938 -0.34375,0 -0.60938,-0.0937 -0.26562,-0.10938 -0.46875,-0.29688 -0.20312,-0.20312 -0.34375,-0.51562 -0.125,-0.3125 -0.17187,-0.71875 l 3.1875,-2.4375 q 0,0.15625 0,0.39062 0,0.23438 0,0.32813 z"
       fill-rule="nonzero"
       id="path19" />
    <path
       fill="#434343"
       d="m 302.96432,282.51443 h 132.0051 c 3.1e-4,0 6.1e-4,1.2e-4 8.2e-4,3.4e-4 2.2e-4,2.1e-4 3.4e-4,5.1e-4 3.4e-4,8.2e-4 l -10e-4,42.01968 c 0,4.64161 -3.76276,8.40436 -8.40436,8.40436 h -132.0051 v 0 c -6.4e-4,0 -10e-4,-5.2e-4 -10e-4,-0.001 l 10e-4,-42.01968 v 0 c 0,-4.6416 3.76276,-8.40436 8.40436,-8.40436 z"
       fill-rule="evenodd"
       id="path21" />
    <path
       stroke="#202729"
       stroke-width="1"
       stroke-linejoin="round"
       stroke-linecap="butt"
       d="m 302.96432,282.51443 h 132.0051 c 3.1e-4,0 6.1e-4,1.2e-4 8.2e-4,3.4e-4 2.2e-4,2.1e-4 3.4e-4,5.1e-4 3.4e-4,8.2e-4 l -10e-4,42.01968 c 0,4.64161 -3.76276,8.40436 -8.40436,8.40436 h -132.0051 v 0 c -6.4e-4,0 -10e-4,-5.2e-4 -10e-4,-0.001 l 10e-4,-42.01968 v 0 c 0,-4.6416 3.76276,-8.40436 8.40436,-8.40436 z"
       fill-rule="evenodd"
       id="path23" />
    <path
       fill="#ffffff"
       d="m 319.42422,313.86703 h 3.9375 q 0.79687,-0.0156 1.53125,-0.25 0.75,-0.23438 1.3125,-0.6875 0.5625,-0.4375 0.89062,-1.09375 0.34375,-0.65625 0.34375,-1.51563 0,-0.5625 -0.17187,-1.03125 -0.15625,-0.46875 -0.45313,-0.85937 -0.28125,-0.34375 -0.71875,-0.625 -0.42187,-0.29688 -0.89062,-0.40625 v -0.0156 q 0.45312,-0.20312 0.76562,-0.42187 0.3125,-0.21875 0.57813,-0.54688 0.25,-0.3125 0.39062,-0.70312 0.15625,-0.39063 0.17188,-0.875 0,-0.875 -0.34375,-1.48438 -0.32813,-0.625 -0.89063,-1.01562 -0.57812,-0.40625 -1.3125,-0.59375 -0.71875,-0.1875 -1.46875,-0.1875 h -3.67187 z m 1.57812,-5.76563 h 2.5 q 0.5,0.0156 0.92188,0.17188 0.4375,0.15625 0.75,0.4375 0.32812,0.28125 0.5,0.6875 0.1875,0.40625 0.1875,0.9375 0,0.51562 -0.20313,0.92187 -0.20312,0.40625 -0.53125,0.6875 -0.34375,0.26563 -0.78125,0.42188 -0.4375,0.15625 -0.9375,0.17187 h -2.40625 z m 0,-1.29687 v -3.92188 h 2.14063 q 0.45312,0.0156 0.89062,0.125 0.4375,0.10938 0.78125,0.32813 0.32813,0.25 0.51563,0.60937 0.20312,0.35938 0.20312,0.875 0,0.48438 -0.20312,0.85938 -0.20313,0.35937 -0.53125,0.59375 -0.32813,0.26562 -0.75,0.39062 -0.42188,0.125 -0.85938,0.14063 z m 9.57047,10.76562 q 0.625,0 1.09375,-0.23437 0.48437,-0.23438 0.82812,-0.5625 0.35938,-0.34375 0.60938,-0.75 0.25,-0.39063 0.40625,-0.75 l 4.65625,-10.5625 h -1.76563 l -2.35937,5.9375 -0.42188,1.07812 -0.40625,-1.10937 -2.51562,-5.90625 h -1.75 l 3.9375,8.71875 -0.625,1.21875 q -0.0781,0.17187 -0.23438,0.4375 -0.14062,0.26562 -0.34375,0.5 -0.21875,0.25 -0.48437,0.42187 -0.26563,0.1875 -0.59375,0.1875 -0.10938,0 -0.32813,-0.0156 -0.20312,-0.0156 -0.40625,-0.0312 l -0.25,1.28125 q 0.14063,0.0312 0.4375,0.0781 0.29688,0.0625 0.51563,0.0625 z m 13.36731,-15.07812 h -1.5625 v 2.21875 h -2.40625 v 1.21875 h 2.40625 v 4.96875 q 0,0.84375 0.21875,1.4375 0.21875,0.59375 0.60937,0.96875 0.39063,0.39062 0.92188,0.5625 0.53125,0.17187 1.14062,0.17187 0.35938,0 0.71875,-0.0469 0.375,-0.0312 0.70313,-0.0937 0.34375,-0.0625 0.60937,-0.14063 0.28125,-0.0937 0.48438,-0.21875 l -0.21875,-1.10937 q -0.15625,0.0469 -0.375,0.0937 -0.21875,0.0469 -0.48438,0.0781 -0.25,0.0469 -0.53125,0.0781 -0.26562,0.0312 -0.51562,0.0312 -0.34375,0 -0.65625,-0.0781 -0.3125,-0.0937 -0.54688,-0.3125 -0.23437,-0.20312 -0.375,-0.54687 -0.14062,-0.34375 -0.14062,-0.875 v -4.96875 h 3.5 v -1.21875 h -3.5 z m 10.74234,11.54687 q 1.34375,0 2.25,-0.53125 0.90625,-0.54687 1.35937,-1.23437 l -0.95312,-0.75 q -0.4375,0.5625 -1.09375,0.90625 -0.64063,0.32812 -1.48438,0.32812 -0.625,0 -1.15625,-0.23437 -0.51562,-0.23438 -0.89062,-0.65625 -0.35938,-0.39063 -0.57813,-0.89063 -0.20312,-0.51562 -0.26562,-1.17187 v -0.0625 h 6.54687 v -0.70313 q 0,-0.95312 -0.25,-1.76562 -0.23437,-0.82813 -0.71875,-1.4375 -0.5,-0.60938 -1.25,-0.95313 -0.73437,-0.34375 -1.71875,-0.34375 -0.78125,0 -1.53125,0.32813 -0.75,0.3125 -1.34375,0.92187 -0.57812,0.60938 -0.9375,1.48438 -0.35937,0.875 -0.35937,1.98437 v 0.35938 q 0,0.95312 0.3125,1.76562 0.32812,0.8125 0.90625,1.40625 0.57812,0.59375 1.375,0.92188 0.8125,0.32812 1.78125,0.32812 z m -0.20313,-8.20312 q 0.60938,0 1.03125,0.21875 0.4375,0.21875 0.73438,0.5625 0.28125,0.35937 0.4375,0.84375 0.17187,0.48437 0.17187,0.92187 v 0.0625 h -4.92187 q 0.0781,-0.625 0.3125,-1.10937 0.23437,-0.48438 0.57812,-0.82813 0.34375,-0.32812 0.76563,-0.5 0.42187,-0.17187 0.89062,-0.17187 z m 12.03919,-4.76563 v -1.28125 h -3.34375 v 16.71875 h 3.34375 v -1.28125 h -1.875 v -14.15625 z m 6.74234,5.89063 v 1.26562 h 1.125 q 0.57812,0 1.0625,0.14063 0.48437,0.125 0.84375,0.40625 0.32812,0.28125 0.51562,0.70312 0.20313,0.40625 0.20313,0.98438 0,0.59375 -0.17188,1.01562 -0.17187,0.42188 -0.46875,0.71875 -0.3125,0.28125 -0.75,0.42188 -0.42187,0.14062 -0.95312,0.14062 -0.53125,0 -0.96875,-0.14062 -0.4375,-0.15625 -0.73438,-0.4375 -0.3125,-0.28125 -0.48437,-0.67188 -0.15625,-0.40625 -0.15625,-0.89062 h -1.5625 q 0,0.8125 0.29687,1.45312 0.3125,0.625 0.84375,1.0625 0.53125,0.45313 1.23438,0.6875 0.71875,0.21875 1.53125,0.21875 0.82812,0 1.54687,-0.23437 0.71875,-0.25 1.23438,-0.71875 0.53125,-0.45313 0.82812,-1.125 0.29688,-0.67188 0.29688,-1.53125 0,-0.42188 -0.10938,-0.84375 -0.0937,-0.4375 -0.32812,-0.82813 -0.25,-0.39062 -0.65625,-0.70312 -0.39063,-0.3125 -1,-0.51563 0.5,-0.20312 0.85937,-0.51562 0.35938,-0.32813 0.59375,-0.6875 0.23438,-0.35938 0.34375,-0.73438 0.10938,-0.375 0.10938,-0.73437 0,-0.85938 -0.28125,-1.5 -0.26563,-0.65625 -0.75,-1.09375 -0.5,-0.45313 -1.1875,-0.67188 -0.67188,-0.21875 -1.5,-0.21875 -0.85938,0 -1.5625,0.26563 -0.70313,0.26562 -1.1875,0.71875 -0.5,0.46875 -0.78125,1.09375 -0.28125,0.60937 -0.28125,1.3125 h 1.57812 q 0,-0.46875 0.15625,-0.85938 0.17188,-0.39062 0.46875,-0.67187 0.28125,-0.28125 0.6875,-0.42188 0.42188,-0.15625 0.92188,-0.15625 0.51562,0 0.90625,0.14063 0.40625,0.125 0.67187,0.39062 0.28125,0.26563 0.42188,0.67188 0.15625,0.40625 0.15625,0.96875 0,0.45312 -0.17188,0.84375 -0.15625,0.39062 -0.45312,0.67187 -0.3125,0.28125 -0.76563,0.45313 -0.45312,0.15625 -1.04687,0.15625 z m 11.72668,5.89062 q 0,0.48438 0.29688,0.82813 0.3125,0.34375 0.92187,0.34375 0.60938,0 0.92188,-0.32813 0.32812,-0.34375 0.32812,-0.84375 0,-0.5 -0.32812,-0.84375 -0.3125,-0.35937 -0.92188,-0.35937 -0.60937,0 -0.92187,0.35937 -0.29688,0.34375 -0.29688,0.84375 z m 0,-7.40625 q 0,0.48438 0.29688,0.82813 0.3125,0.34375 0.92187,0.34375 0.60938,0 0.92188,-0.32813 0.32812,-0.34375 0.32812,-0.84375 0,-0.5 -0.32812,-0.84375 -0.3125,-0.35937 -0.92188,-0.35937 -0.60937,0 -0.92187,0.35937 -0.29688,0.34375 -0.29688,0.84375 z m 14.97672,3.70313 v -2.875 q 0,-1.1875 -0.26563,-2.09375 -0.26562,-0.90625 -0.78125,-1.53125 -0.51562,-0.625 -1.26562,-0.95313 -0.73438,-0.32812 -1.67188,-0.32812 -0.95312,0 -1.6875,0.32812 -0.73437,0.32813 -1.25,0.95313 -0.51562,0.625 -0.78125,1.53125 -0.26562,0.90625 -0.26562,2.09375 v 2.875 q 0,1.1875 0.26562,2.09375 0.26563,0.90625 0.78125,1.53125 0.51563,0.625 1.26563,0.95312 0.75,0.3125 1.6875,0.3125 0.9375,0 1.67187,-0.3125 0.75,-0.32812 1.25,-0.95312 0.51563,-0.625 0.78125,-1.53125 0.26563,-0.90625 0.26563,-2.09375 z m -6.40625,-0.3125 q 0,-0.21875 0,-0.42188 0,-0.21875 0,-0.42187 v -2.0625 q 0,-0.875 0.17187,-1.53125 0.17188,-0.65625 0.53125,-1.0625 0.29688,-0.32813 0.71875,-0.5 0.4375,-0.17188 1,-0.17188 0.54688,0 0.95313,0.15625 0.42187,0.15625 0.71875,0.48438 0.29687,0.3125 0.46875,0.78125 0.17187,0.46875 0.23437,1.07812 z m 4.82812,0.65625 q 0,0.89062 -0.1875,1.5625 -0.17187,0.67187 -0.5625,1.09375 -0.28125,0.29687 -0.70312,0.46875 -0.40625,0.15625 -0.9375,0.15625 -0.51563,0 -0.92188,-0.14063 -0.40625,-0.15625 -0.6875,-0.45312 -0.3125,-0.29688 -0.51562,-0.76563 -0.1875,-0.46875 -0.26563,-1.09375 l 4.78125,-3.65625 q 0,0.23438 0,0.59375 0,0.35938 0,0.48438 z m 6.19544,-9.70313 v 1.28125 h 1.89062 v 14.15625 h -1.89062 v 1.28125 h 3.35937 V 299.7889 Z"
       fill-rule="nonzero"
       id="path25" />
    <path
       fill="#fff176"
       d="m 302.96432,367.5118 h 132.0051 c 3.1e-4,0 6.1e-4,1.2e-4 8.2e-4,3.4e-4 2.2e-4,2.1e-4 3.4e-4,5.1e-4 3.4e-4,8.2e-4 l -10e-4,42.01968 c 0,4.64161 -3.76276,8.40436 -8.40436,8.40436 h -132.0051 v 0 c -6.4e-4,0 -10e-4,-5.2e-4 -10e-4,-0.001 l 10e-4,-42.01968 v 0 c 0,-4.6416 3.76276,-8.40436 8.40436,-8.40436 z"
       fill-rule="evenodd"
       id="path27" />
    <path
       stroke="#202729"
       stroke-width="1"
       stroke-linejoin="round"
       stroke-linecap="butt"
       d="m 302.96432,367.5118 h 132.0051 c 3.1e-4,0 6.1e-4,1.2e-4 8.2e-4,3.4e-4 2.2e-4,2.1e-4 3.4e-4,5.1e-4 3.4e-4,8.2e-4 l -10e-4,42.01968 c 0,4.64161 -3.76276,8.40436 -8.40436,8.40436 h -132.0051 v 0 c -6.4e-4,0 -10e-4,-5.2e-4 -10e-4,-0.001 l 10e-4,-42.01968 v 0 c 0,-4.6416 3.76276,-8.40436 8.40436,-8.40436 z"
       fill-rule="evenodd"
       id="path29" />
    <path
       fill="#202729"
       d="m 350.6356,386.5519 v 1.35937 h 2.89062 v 9.59375 h -2.89062 v 1.35938 h 7.45312 v -1.35938 h -2.95312 v -9.59375 h 2.95312 v -1.35937 z m 10.39856,12.3125 h 1.5625 v -6.5625 q 0.17187,-0.29688 0.375,-0.54688 0.21875,-0.25 0.48437,-0.42187 0.3125,-0.21875 0.67188,-0.34375 0.375,-0.125 0.8125,-0.125 0.5,0 0.875,0.125 0.39062,0.10937 0.65625,0.375 0.26562,0.26562 0.40625,0.6875 0.14062,0.42187 0.14062,1.03125 v 5.78125 h 1.5625 v -5.8125 q 0,-0.90625 -0.23437,-1.57813 -0.21875,-0.67187 -0.64063,-1.09375 -0.40625,-0.4375 -1,-0.64062 -0.57812,-0.20313 -1.29687,-0.20313 -0.53125,0.0156 -1.01563,0.17188 -0.48437,0.14062 -0.89062,0.40625 -0.26563,0.17187 -0.51563,0.42187 -0.23437,0.23438 -0.4375,0.53125 l -0.10937,-1.35937 h -1.40625 z m 14.10171,-11.375 h -1.5625 v 2.21875 h -2.40625 v 1.21875 h 2.40625 v 4.96875 q 0,0.84375 0.21875,1.4375 0.21875,0.59375 0.60938,0.96875 0.39062,0.39062 0.92187,0.5625 0.53125,0.17187 1.14063,0.17187 0.35937,0 0.71875,-0.0469 0.375,-0.0312 0.70312,-0.0937 0.34375,-0.0625 0.60938,-0.14063 0.28125,-0.0937 0.48437,-0.21875 l -0.21875,-1.10937 q -0.15625,0.0469 -0.375,0.0937 -0.21875,0.0469 -0.48437,0.0781 -0.25,0.0469 -0.53125,0.0781 -0.26563,0.0312 -0.51563,0.0312 -0.34375,0 -0.65625,-0.0781 -0.3125,-0.0937 -0.54687,-0.3125 -0.23438,-0.20312 -0.375,-0.54687 -0.14063,-0.34375 -0.14063,-0.875 v -4.96875 h 3.5 v -1.21875 h -3.5 z"
       fill-rule="nonzero"
       id="path31" />
    <path
       fill="#353744"
       d="m 496.76263,191.54593 h 74.36731 c 1.8e-4,0 3.7e-4,8e-5 4.9e-4,2e-4 1.2e-4,1.4e-4 1.8e-4,3e-4 1.8e-4,4.9e-4 l -6.7e-4,42.02014 c 0,4.6416 -3.76276,8.40437 -8.40442,8.40437 h -74.36725 v 0 c -4e-4,0 -7e-4,-3.1e-4 -7e-4,-6.9e-4 l 7e-4,-42.02014 v 0 c 0,-4.6416 3.76276,-8.40437 8.40436,-8.40437 z"
       fill-rule="evenodd"
       id="path33" />
    <path
       stroke="#202729"
       stroke-width="1"
       stroke-linejoin="round"
       stroke-linecap="butt"
       d="m 496.76263,191.54593 h 74.36731 c 1.8e-4,0 3.7e-4,8e-5 4.9e-4,2e-4 1.2e-4,1.4e-4 1.8e-4,3e-4 1.8e-4,4.9e-4 l -6.7e-4,42.02014 c 0,4.6416 -3.76276,8.40437 -8.40442,8.40437 h -74.36725 v 0 c -4e-4,0 -7e-4,-3.1e-4 -7e-4,-6.9e-4 l 7e-4,-42.02014 v 0 c 0,-4.6416 3.76276,-8.40437 8.40436,-8.40437 z"
       fill-rule="evenodd"
       id="path35" />
    <path
       fill="#ffffff"
       d="m 508.6698,217.96103 h 2.42187 q 0.82813,-0.0156 1.5625,-0.25 0.75,-0.25 1.3125,-0.71875 0.54688,-0.46875 0.875,-1.14063 0.32813,-0.6875 0.32813,-1.57812 0,-0.89063 -0.32813,-1.5625 -0.32812,-0.6875 -0.875,-1.15625 -0.5625,-0.46875 -1.3125,-0.70313 -0.73437,-0.25 -1.5625,-0.26562 h -4 v 12.3125 h 1.57813 z m 0,-1.29688 v -4.79687 h 2.42187 q 0.54688,0 1,0.17187 0.46875,0.17188 0.79688,0.48438 0.32812,0.3125 0.51562,0.76562 0.20313,0.45313 0.20313,1 0,0.5625 -0.20313,1 -0.1875,0.4375 -0.51562,0.73438 -0.34375,0.3125 -0.79688,0.48437 -0.45312,0.15625 -1,0.15625 z m 12.75793,1.20313 2.42188,5.03125 h 1.65625 v -0.0937 l -2.60938,-5.26563 q 0.5,-0.21875 0.92188,-0.53125 0.4375,-0.3125 0.73437,-0.71875 0.3125,-0.40625 0.48438,-0.90625 0.17187,-0.5 0.17187,-1.10937 0,-0.92188 -0.32812,-1.60938 -0.32813,-0.70312 -0.89063,-1.15625 -0.57812,-0.45312 -1.34375,-0.67187 -0.76562,-0.23438 -1.625,-0.25 h -3.60937 v 12.3125 h 1.5625 v -5.03125 z m -2.45312,-1.28125 v -4.71875 h 2.04687 q 0.57813,0 1.04688,0.15625 0.48437,0.15625 0.82812,0.45312 0.34375,0.29688 0.53125,0.75 0.20313,0.4375 0.20313,1.03125 0,0.5625 -0.20313,1 -0.20312,0.42188 -0.54687,0.71875 -0.35938,0.28125 -0.82813,0.4375 -0.45312,0.15625 -0.98437,0.17188 z m 16.49237,6.3125 v -12.3125 h -1.57812 l -0.0312,9.1875 -4.78125,-9.1875 h -1.59375 v 12.3125 h 1.59375 l 0.0156,-9.20313 4.78125,9.20313 z m 10.64856,-1.60938 -0.0156,-4.53125 h -4 v 1.32813 h 2.5 l -0.0156,2.76562 q -0.1875,0.28125 -0.48438,0.45313 -0.28125,0.17187 -0.60937,0.28125 -0.32813,0.0937 -0.6875,0.125 -0.34375,0.0312 -0.67188,0.0312 -0.54687,-0.0156 -1,-0.20313 -0.4375,-0.1875 -0.76562,-0.51562 -0.34375,-0.3125 -0.57813,-0.73438 -0.23437,-0.42187 -0.39062,-0.90625 -0.14063,-0.46875 -0.21875,-0.95312 -0.0781,-0.5 -0.0781,-0.96875 v -1.45313 q 0,-0.45312 0.0469,-0.9375 0.0625,-0.5 0.20312,-0.96875 0.14063,-0.46875 0.34375,-0.89062 0.21875,-0.4375 0.53125,-0.76563 0.32813,-0.3125 0.75,-0.5 0.4375,-0.20312 1,-0.20312 0.57813,0 1.01563,0.1875 0.45312,0.1875 0.76562,0.5 0.3125,0.32812 0.5,0.78125 0.20313,0.45312 0.29688,0.98437 h 1.54687 q -0.0781,-0.85937 -0.40625,-1.5625 -0.32812,-0.70312 -0.875,-1.20312 -0.53125,-0.48438 -1.26562,-0.75 -0.71875,-0.26563 -1.59375,-0.26563 -0.76563,0 -1.40625,0.23438 -0.625,0.21875 -1.10938,0.60937 -0.5,0.39063 -0.85937,0.9375 -0.34375,0.53125 -0.59375,1.15625 -0.23438,0.625 -0.34375,1.3125 -0.10938,0.67188 -0.125,1.35938 v 1.4375 q 0.0156,0.6875 0.14062,1.375 0.125,0.67187 0.39063,1.29687 0.26562,0.625 0.64062,1.15625 0.375,0.53125 0.89063,0.92188 0.5,0.40625 1.14062,0.625 0.64063,0.21875 1.40625,0.23437 0.75,0 1.4375,-0.17187 0.6875,-0.17188 1.28125,-0.53125 0.34375,-0.20313 0.65625,-0.46875 0.32813,-0.28125 0.60938,-0.60938 z"
       fill-rule="nonzero"
       id="path37" />
    <path
       fill="#ffffff"
       d="m 551.436,229.39853 v -8.20313 h -0.0781 l -3.10938,1.1875 v 0.95313 l 2.15625,-0.8125 v 6.875 z"
       fill-rule="nonzero"
       id="path39" />
    <path
       fill="#434343"
       d="m 490.13232,282.51443 h 132.00507 c 3.1e-4,0 6.1e-4,1.2e-4 8.5e-4,3.4e-4 1.9e-4,2.1e-4 3.1e-4,5.1e-4 3.1e-4,8.2e-4 l -10e-4,42.01968 c 0,4.64161 -3.76276,8.40436 -8.40436,8.40436 h -132.0051 v 0 c -6.4e-4,0 -0.001,-5.2e-4 -0.001,-0.001 l 0.001,-42.01968 v 0 c 0,-4.6416 3.76279,-8.40436 8.40439,-8.40436 z"
       fill-rule="evenodd"
       id="path41" />
    <path
       stroke="#202729"
       stroke-width="1"
       stroke-linejoin="round"
       stroke-linecap="butt"
       d="m 490.13232,282.51443 h 132.00507 c 3.1e-4,0 6.1e-4,1.2e-4 8.5e-4,3.4e-4 1.9e-4,2.1e-4 3.1e-4,5.1e-4 3.1e-4,8.2e-4 l -10e-4,42.01968 c 0,4.64161 -3.76276,8.40436 -8.40436,8.40436 h -132.0051 v 0 c -6.4e-4,0 -0.001,-5.2e-4 -0.001,-0.001 l 0.001,-42.01968 v 0 c 0,-4.6416 3.76279,-8.40436 8.40439,-8.40436 z"
       fill-rule="evenodd"
       id="path43" />
    <path
       fill="#ffffff"
       d="m 516.9908,313.86703 h 3.9375 q 0.79688,-0.0156 1.53125,-0.25 0.75,-0.23438 1.3125,-0.6875 0.5625,-0.4375 0.89063,-1.09375 0.34375,-0.65625 0.34375,-1.51563 0,-0.5625 -0.17188,-1.03125 -0.15625,-0.46875 -0.45312,-0.85937 -0.28125,-0.34375 -0.71875,-0.625 -0.42188,-0.29688 -0.89063,-0.40625 v -0.0156 q 0.45313,-0.20312 0.76563,-0.42187 0.3125,-0.21875 0.57812,-0.54688 0.25,-0.3125 0.39063,-0.70312 0.15625,-0.39063 0.17187,-0.875 0,-0.875 -0.34375,-1.48438 -0.32812,-0.625 -0.89062,-1.01562 -0.57813,-0.40625 -1.3125,-0.59375 -0.71875,-0.1875 -1.46875,-0.1875 h -3.67188 z m 1.57813,-5.76563 h 2.5 q 0.5,0.0156 0.92187,0.17188 0.4375,0.15625 0.75,0.4375 0.32813,0.28125 0.5,0.6875 0.1875,0.40625 0.1875,0.9375 0,0.51562 -0.20312,0.92187 -0.20313,0.40625 -0.53125,0.6875 -0.34375,0.26563 -0.78125,0.42188 -0.4375,0.15625 -0.9375,0.17187 h -2.40625 z m 0,-1.29687 v -3.92188 h 2.14062 q 0.45313,0.0156 0.89063,0.125 0.4375,0.10938 0.78125,0.32813 0.32812,0.25 0.51562,0.60937 0.20313,0.35938 0.20313,0.875 0,0.48438 -0.20313,0.85938 -0.20312,0.35937 -0.53125,0.59375 -0.32812,0.26562 -0.75,0.39062 -0.42187,0.125 -0.85937,0.14063 z m 9.57043,10.76562 q 0.625,0 1.09375,-0.23437 0.48437,-0.23438 0.82812,-0.5625 0.35938,-0.34375 0.60938,-0.75 0.25,-0.39063 0.40625,-0.75 l 4.65625,-10.5625 h -1.76563 l -2.35937,5.9375 -0.42188,1.07812 -0.40625,-1.10937 -2.51562,-5.90625 h -1.75 l 3.9375,8.71875 -0.625,1.21875 q -0.0781,0.17187 -0.23438,0.4375 -0.14062,0.26562 -0.34375,0.5 -0.21875,0.25 -0.48437,0.42187 -0.26563,0.1875 -0.59375,0.1875 -0.10938,0 -0.32813,-0.0156 -0.20312,-0.0156 -0.40625,-0.0312 l -0.25,1.28125 q 0.14063,0.0312 0.4375,0.0781 0.29688,0.0625 0.51563,0.0625 z m 13.36737,-15.07812 h -1.5625 v 2.21875 h -2.40625 v 1.21875 h 2.40625 v 4.96875 q 0,0.84375 0.21875,1.4375 0.21875,0.59375 0.60938,0.96875 0.39062,0.39062 0.92187,0.5625 0.53125,0.17187 1.14063,0.17187 0.35937,0 0.71875,-0.0469 0.375,-0.0312 0.70312,-0.0937 0.34375,-0.0625 0.60938,-0.14063 0.28125,-0.0937 0.48437,-0.21875 l -0.21875,-1.10937 q -0.15625,0.0469 -0.375,0.0937 -0.21875,0.0469 -0.48437,0.0781 -0.25,0.0469 -0.53125,0.0781 -0.26563,0.0312 -0.51563,0.0312 -0.34375,0 -0.65625,-0.0781 -0.3125,-0.0937 -0.54687,-0.3125 -0.23438,-0.20312 -0.375,-0.54687 -0.14063,-0.34375 -0.14063,-0.875 v -4.96875 h 3.5 v -1.21875 h -3.5 z m 10.74231,11.54687 q 1.34375,0 2.25,-0.53125 0.90625,-0.54687 1.35938,-1.23437 l -0.95313,-0.75 q -0.4375,0.5625 -1.09375,0.90625 -0.64062,0.32812 -1.48437,0.32812 -0.625,0 -1.15625,-0.23437 -0.51563,-0.23438 -0.89063,-0.65625 -0.35937,-0.39063 -0.57812,-0.89063 -0.20313,-0.51562 -0.26563,-1.17187 v -0.0625 h 6.54688 v -0.70313 q 0,-0.95312 -0.25,-1.76562 -0.23438,-0.82813 -0.71875,-1.4375 -0.5,-0.60938 -1.25,-0.95313 -0.73438,-0.34375 -1.71875,-0.34375 -0.78125,0 -1.53125,0.32813 -0.75,0.3125 -1.34375,0.92187 -0.57813,0.60938 -0.9375,1.48438 -0.35938,0.875 -0.35938,1.98437 v 0.35938 q 0,0.95312 0.3125,1.76562 0.32813,0.8125 0.90625,1.40625 0.57813,0.59375 1.375,0.92188 0.8125,0.32812 1.78125,0.32812 z m -0.20312,-8.20312 q 0.60937,0 1.03125,0.21875 0.4375,0.21875 0.73437,0.5625 0.28125,0.35937 0.4375,0.84375 0.17188,0.48437 0.17188,0.92187 v 0.0625 h -4.92188 q 0.0781,-0.625 0.3125,-1.10937 0.23438,-0.48438 0.57813,-0.82813 0.34375,-0.32812 0.76562,-0.5 0.42188,-0.17187 0.89063,-0.17187 z m 12.03918,-4.76563 v -1.28125 h -3.34375 v 16.71875 h 3.34375 v -1.28125 h -1.875 v -14.15625 z m 12.64856,8.07813 v -2.875 q 0,-1.1875 -0.26562,-2.09375 -0.26563,-0.90625 -0.78125,-1.53125 -0.51563,-0.625 -1.26563,-0.95313 -0.73437,-0.32812 -1.67187,-0.32812 -0.95313,0 -1.6875,0.32812 -0.73438,0.32813 -1.25,0.95313 -0.51563,0.625 -0.78125,1.53125 -0.26563,0.90625 -0.26563,2.09375 v 2.875 q 0,1.1875 0.26563,2.09375 0.26562,0.90625 0.78125,1.53125 0.51562,0.625 1.26562,0.95312 0.75,0.3125 1.6875,0.3125 0.9375,0 1.67188,-0.3125 0.75,-0.32812 1.25,-0.95312 0.51562,-0.625 0.78125,-1.53125 0.26562,-0.90625 0.26562,-2.09375 z m -6.40625,-0.3125 q 0,-0.21875 0,-0.42188 0,-0.21875 0,-0.42187 v -2.0625 q 0,-0.875 0.17188,-1.53125 0.17187,-0.65625 0.53125,-1.0625 0.29687,-0.32813 0.71875,-0.5 0.4375,-0.17188 1,-0.17188 0.54687,0 0.95312,0.15625 0.42188,0.15625 0.71875,0.48438 0.29688,0.3125 0.46875,0.78125 0.17188,0.46875 0.23438,1.07812 z m 4.82813,0.65625 q 0,0.89062 -0.1875,1.5625 -0.17188,0.67187 -0.5625,1.09375 -0.28125,0.29687 -0.70313,0.46875 -0.40625,0.15625 -0.9375,0.15625 -0.51562,0 -0.92187,-0.14063 -0.40625,-0.15625 -0.6875,-0.45312 -0.3125,-0.29688 -0.51563,-0.76563 -0.1875,-0.46875 -0.26562,-1.09375 l 4.78125,-3.65625 q 0,0.23438 0,0.59375 0,0.35938 0,0.48438 z m 6.19549,-9.70313 v 1.28125 h 1.89063 v 14.15625 h -1.89063 v 1.28125 h 3.35938 V 299.7889 Z"
       fill-rule="nonzero"
       id="path45" />
    <path
       fill="#63d297"
       d="m 661.2234,307.72702 90.67718,-38.86612 90.67713,38.86612 -90.67713,38.86615 z"
       fill-rule="evenodd"
       id="path47" />
    <path
       stroke="#4ba173"
       stroke-width="1"
       stroke-linejoin="round"
       stroke-linecap="butt"
       d="m 661.2234,307.72702 90.67718,-38.86612 90.67713,38.86612 -90.67713,38.86615 z"
       fill-rule="evenodd"
       id="path49" />
    <path
       fill="#000000"
       d="m 716.1088,312.97516 v -1.15625 l 7.01562,-3.40625 -7.01562,-3.40625 v -1.1875 l 8.21875,4.09375 v 0.98438 z m 9.30951,-5.85937 v -1 h 8.21875 v 1 z m 0,3.59375 v -0.96875 h 8.21875 v 0.96875 z m 16.90399,3.9375 v -10.39063 l -2,2.10938 -0.9375,-0.95313 3.10938,-3.20312 h 1.375 v 12.4375 z m 3.99634,0 v -1.23438 q 3.29687,-2.59375 4.51562,-3.76562 1.23438,-1.1875 1.8125,-2.125 0.57813,-0.95313 0.57813,-1.84375 0,-1.03125 -0.70313,-1.65625 -0.70312,-0.625 -1.89062,-0.625 -2.17188,0 -3.375,1.5625 l -0.95313,-0.98438 q 0.71875,-0.95312 1.85938,-1.45312 1.15625,-0.5 2.46875,-0.5 1.8125,0 3,1 1.1875,0.98437 1.1875,2.65625 0,1.5 -1.28125,3.17187 -1.28125,1.67188 -4.76563,4.42188 h 6.09375 v 1.375 z m 15.39178,0.21875 q -2,0 -3.23437,-0.9375 -1.21875,-0.95313 -1.21875,-2.4375 0,-1.07813 0.79687,-1.95313 0.79688,-0.89062 2.17188,-1.3125 -1.25,-0.34375 -2.01563,-1.125 -0.75,-0.78125 -0.75,-1.85937 0,-1.45313 1.1875,-2.32813 1.20313,-0.89062 3.0625,-0.89062 1.89063,0 3.07813,0.89062 1.20312,0.89063 1.20312,2.32813 0,1.0625 -0.73437,1.85937 -0.73438,0.78125 -2.04688,1.125 1.35938,0.39063 2.15625,1.28125 0.8125,0.89063 0.8125,1.98438 0,1.51562 -1.28125,2.45312 -1.26562,0.92188 -3.1875,0.92188 z m 0,-7.26563 q 2.71875,-0.54687 2.71875,-2.15625 0,-0.90625 -0.76562,-1.46875 -0.75,-0.57812 -1.95313,-0.57812 -1.1875,0 -1.95312,0.57812 -0.75,0.5625 -0.75,1.46875 0,1.60938 2.70312,2.15625 z m 0,5.89063 q 1.21875,0 2.0625,-0.59375 0.84375,-0.59375 0.84375,-1.57813 0,-0.875 -0.85937,-1.5625 -0.84375,-0.6875 -2.04688,-0.84375 -1.17187,0.15625 -2.04687,0.84375 -0.85938,0.67188 -0.85938,1.5625 0,0.98438 0.84375,1.57813 0.84375,0.59375 2.0625,0.59375 z"
       fill-rule="nonzero"
       id="path51" />
    <path
       fill="#fff176"
       d="m 690.1008,367.5118 h 132.00507 c 3.1e-4,0 6.1e-4,1.2e-4 8.5e-4,3.4e-4 1.9e-4,2.1e-4 3.1e-4,5.1e-4 3.1e-4,8.2e-4 l -10e-4,42.01968 c 0,4.64161 -3.76276,8.40436 -8.40436,8.40436 H 681.69644 v 0 c -6.7e-4,0 -0.001,-5.2e-4 -0.001,-0.001 l 0.001,-42.01968 v 0 c 0,-4.6416 3.76276,-8.40436 8.40436,-8.40436 z"
       fill-rule="evenodd"
       id="path53" />
    <path
       stroke="#202729"
       stroke-width="1"
       stroke-linejoin="round"
       stroke-linecap="butt"
       d="m 690.1008,367.5118 h 132.00507 c 3.1e-4,0 6.1e-4,1.2e-4 8.5e-4,3.4e-4 1.9e-4,2.1e-4 3.1e-4,5.1e-4 3.1e-4,8.2e-4 l -10e-4,42.01968 c 0,4.64161 -3.76276,8.40436 -8.40436,8.40436 H 681.69644 v 0 c -6.7e-4,0 -0.001,-5.2e-4 -0.001,-0.001 l 0.001,-42.01968 v 0 c 0,-4.6416 3.76276,-8.40436 8.40436,-8.40436 z"
       fill-rule="evenodd"
       id="path55" />
    <path
       fill="#202729"
       d="m 750.987,393.4113 v -1.40625 q -0.0156,-0.65625 -0.125,-1.32813 -0.0937,-0.67187 -0.3125,-1.3125 -0.23438,-0.625 -0.57813,-1.15625 -0.34375,-0.54687 -0.8125,-0.95312 -0.46875,-0.40625 -1.09375,-0.64063 -0.60937,-0.23437 -1.375,-0.23437 -0.76562,0 -1.375,0.23437 -0.60937,0.23438 -1.09375,0.64063 -0.46875,0.40625 -0.8125,0.95312 -0.34375,0.54688 -0.5625,1.17188 -0.23437,0.625 -0.34375,1.29687 -0.0937,0.67188 -0.10937,1.32813 v 1.40625 q 0.0156,0.67187 0.125,1.34375 0.10937,0.65625 0.34375,1.28125 0.21875,0.625 0.5625,1.17187 0.34375,0.54688 0.8125,0.95313 0.48437,0.40625 1.09375,0.64062 0.60937,0.23438 1.375,0.23438 0.76562,0 1.375,-0.23438 0.60937,-0.23437 1.09375,-0.64062 0.46875,-0.40625 0.8125,-0.9375 0.34375,-0.54688 0.5625,-1.17188 0.21875,-0.625 0.3125,-1.29687 0.10937,-0.67188 0.125,-1.34375 z m -1.54688,-1.42188 v 1.42188 q -0.0156,0.4375 -0.0625,0.92187 -0.0469,0.48438 -0.15625,0.95313 -0.125,0.46875 -0.32812,0.90625 -0.20313,0.42187 -0.5,0.75 -0.29688,0.32812 -0.71875,0.53125 -0.42188,0.1875 -0.96875,0.1875 -0.54688,0 -0.96875,-0.1875 -0.40625,-0.20313 -0.71875,-0.53125 -0.29688,-0.32813 -0.5,-0.75 -0.20313,-0.4375 -0.32813,-0.92188 -0.125,-0.45312 -0.1875,-0.9375 -0.0625,-0.48437 -0.0625,-0.92187 v -1.42188 q 0,-0.42187 0.0625,-0.90625 0.0625,-0.48437 0.1875,-0.95312 0.10938,-0.46875 0.3125,-0.89063 0.20313,-0.42187 0.51563,-0.75 0.29687,-0.32812 0.70312,-0.51562 0.42188,-0.20313 0.96875,-0.20313 0.54688,0 0.95313,0.1875 0.42187,0.1875 0.73437,0.51563 0.29688,0.32812 0.5,0.76562 0.20313,0.42188 0.32813,0.89063 0.125,0.46875 0.17187,0.95312 0.0469,0.46875 0.0625,0.90625 z m 3.92981,10.39063 h 1.5625 v -4.39063 q 0.17188,0.1875 0.35938,0.34375 0.20312,0.15625 0.42187,0.28125 0.35938,0.20313 0.8125,0.3125 0.45313,0.10938 0.96875,0.10938 0.875,0 1.54688,-0.35938 0.67187,-0.35937 1.125,-0.98437 0.45312,-0.625 0.6875,-1.46875 0.25,-0.85938 0.25,-1.82813 v -0.1875 q 0,-1.01562 -0.25,-1.875 -0.23438,-0.85937 -0.6875,-1.48437 -0.45313,-0.60938 -1.14063,-0.95313 -0.67187,-0.35937 -1.54687,-0.35937 -0.5,0 -0.9375,0.10937 -0.4375,0.10938 -0.79688,0.3125 -0.25,0.125 -0.46875,0.32813 -0.21875,0.1875 -0.40625,0.42187 l -0.0781,-1 h -1.42188 z m 6.15625,-8.17188 v 0.1875 q 0,0.65625 -0.15625,1.26563 -0.14062,0.60937 -0.4375,1.07812 -0.3125,0.46875 -0.78125,0.75 -0.46875,0.26563 -1.125,0.26563 -0.40625,0 -0.75,-0.0937 -0.32812,-0.10938 -0.59375,-0.28125 -0.23437,-0.15625 -0.42187,-0.375 -0.1875,-0.21875 -0.32813,-0.46875 v -4.42188 q 0.15625,-0.28125 0.35938,-0.51562 0.21875,-0.23438 0.5,-0.40625 0.23437,-0.15625 0.54687,-0.23438 0.3125,-0.0937 0.67188,-0.0937 0.65625,0 1.125,0.28125 0.48437,0.26563 0.79687,0.71875 0.29688,0.46875 0.4375,1.07813 0.15625,0.59375 0.15625,1.26562 z"
       fill-rule="nonzero"
       id="path57" />
    <path
       fill="#008800"
       d="m 161.06447,191.54593 h 74.36729 c 1.9e-4,0 3.5e-4,8e-5 4.9e-4,2e-4 1.2e-4,1.4e-4 2e-4,3e-4 2e-4,4.9e-4 l -6.9e-4,42.02014 c 0,4.6416 -3.76277,8.40437 -8.40437,8.40437 h -74.36728 v 0 c -3.8e-4,0 -7e-4,-3.1e-4 -7e-4,-6.9e-4 l 7e-4,-42.02014 v 0 c 0,-4.6416 3.76276,-8.40437 8.40436,-8.40437 z"
       fill-rule="evenodd"
       id="path59" />
    <path
       stroke="#202729"
       stroke-width="1"
       stroke-linejoin="round"
       stroke-linecap="butt"
       d="m 161.06447,191.54593 h 74.36729 c 1.9e-4,0 3.5e-4,8e-5 4.9e-4,2e-4 1.2e-4,1.4e-4 2e-4,3e-4 2e-4,4.9e-4 l -6.9e-4,42.02014 c 0,4.6416 -3.76277,8.40437 -8.40437,8.40437 h -74.36728 v 0 c -3.8e-4,0 -7e-4,-3.1e-4 -7e-4,-6.9e-4 l 7e-4,-42.02014 v 0 c 0,-4.6416 3.76276,-8.40437 8.40436,-8.40437 z"
       fill-rule="evenodd"
       id="path61" />
    <path
       fill="#ffffff"
       d="m 181.17065,219.78915 q 0,0.5 -0.21875,0.875 -0.21875,0.35937 -0.57813,0.59375 -0.34375,0.25 -0.79687,0.375 -0.4375,0.10937 -0.89063,0.10937 -0.57812,0 -1.0625,-0.15625 -0.48437,-0.15625 -0.85937,-0.46875 -0.375,-0.3125 -0.60938,-0.75 -0.23437,-0.45312 -0.3125,-1.01562 h -1.59375 q 0.0312,0.78125 0.34375,1.4375 0.32813,0.64062 0.89063,1.125 0.625,0.5625 1.46875,0.85937 0.85937,0.29688 1.73437,0.29688 0.73438,0 1.46875,-0.20313 0.75,-0.21875 1.32813,-0.625 0.57812,-0.40625 0.9375,-1.01562 0.375,-0.625 0.375,-1.45313 0,-0.82812 -0.34375,-1.45312 -0.34375,-0.625 -0.89063,-1.0625 -0.57812,-0.45313 -1.26562,-0.75 -0.67188,-0.3125 -1.35938,-0.51563 -0.42187,-0.14062 -0.89062,-0.29687 -0.46875,-0.17188 -0.85938,-0.42188 -0.40625,-0.26562 -0.67187,-0.625 -0.26563,-0.375 -0.26563,-0.90625 0,-0.48437 0.1875,-0.85937 0.20313,-0.375 0.54688,-0.625 0.32812,-0.25 0.75,-0.375 0.4375,-0.14063 0.875,-0.14063 0.5625,0 1,0.17188 0.45312,0.17187 0.76562,0.5 0.32813,0.3125 0.51563,0.75 0.20312,0.42187 0.26562,0.95312 h 1.60938 q -0.0156,-0.84375 -0.35938,-1.51562 -0.34375,-0.6875 -0.92187,-1.17188 -0.57813,-0.48437 -1.32813,-0.75 -0.73437,-0.26562 -1.54687,-0.26562 -0.71875,0 -1.4375,0.21875 -0.71875,0.21875 -1.29688,0.65625 -0.5625,0.4375 -0.92187,1.0625 -0.34375,0.625 -0.34375,1.42187 0,0.79688 0.34375,1.39063 0.35937,0.57812 0.92187,1.01562 0.54688,0.42188 1.21875,0.71875 0.67188,0.29688 1.32813,0.51563 0.45312,0.14062 0.9375,0.32812 0.48437,0.17188 0.89062,0.42188 0.40625,0.28125 0.65625,0.67187 0.26563,0.375 0.26563,0.95313 z m 7.99232,3.28125 q 1.34375,0 2.25,-0.53125 0.90625,-0.54688 1.35938,-1.23438 l -0.95313,-0.75 q -0.4375,0.5625 -1.09375,0.90625 -0.64062,0.32813 -1.48437,0.32813 -0.625,0 -1.15625,-0.23438 -0.51563,-0.23437 -0.89063,-0.65625 -0.35937,-0.39062 -0.57812,-0.89062 -0.20313,-0.51563 -0.26563,-1.17188 v -0.0625 h 6.54688 v -0.70312 q 0,-0.95313 -0.25,-1.76563 -0.23438,-0.82812 -0.71875,-1.4375 -0.5,-0.60937 -1.25,-0.95312 -0.73438,-0.34375 -1.71875,-0.34375 -0.78125,0 -1.53125,0.32812 -0.75,0.3125 -1.34375,0.92188 -0.57813,0.60937 -0.9375,1.48437 -0.35938,0.875 -0.35938,1.98438 v 0.35937 q 0,0.95313 0.3125,1.76563 0.32813,0.8125 0.90625,1.40625 0.57813,0.59375 1.375,0.92187 0.8125,0.32813 1.78125,0.32813 z m -0.20312,-8.20313 q 0.60937,0 1.03125,0.21875 0.4375,0.21875 0.73437,0.5625 0.28125,0.35938 0.4375,0.84375 0.17188,0.48438 0.17188,0.92188 v 0.0625 h -4.92188 q 0.0781,-0.625 0.3125,-1.10938 0.23438,-0.48437 0.57813,-0.82812 0.34375,-0.32813 0.76562,-0.5 0.42188,-0.17188 0.89063,-0.17188 z m 10.6017,8.20313 q 1.34375,0 2.25,-0.53125 0.90625,-0.54688 1.35937,-1.23438 l -0.95312,-0.75 q -0.4375,0.5625 -1.09375,0.90625 -0.64063,0.32813 -1.48438,0.32813 -0.625,0 -1.15625,-0.23438 -0.51562,-0.23437 -0.89062,-0.65625 -0.35938,-0.39062 -0.57813,-0.89062 -0.20312,-0.51563 -0.26562,-1.17188 v -0.0625 h 6.54687 v -0.70312 q 0,-0.95313 -0.25,-1.76563 -0.23437,-0.82812 -0.71875,-1.4375 -0.5,-0.60937 -1.25,-0.95312 -0.73437,-0.34375 -1.71875,-0.34375 -0.78125,0 -1.53125,0.32812 -0.75,0.3125 -1.34375,0.92188 -0.57812,0.60937 -0.9375,1.48437 -0.35937,0.875 -0.35937,1.98438 v 0.35937 q 0,0.95313 0.3125,1.76563 0.32812,0.8125 0.90625,1.40625 0.57812,0.59375 1.375,0.92187 0.8125,0.32813 1.78125,0.32813 z m -0.20313,-8.20313 q 0.60938,0 1.03125,0.21875 0.4375,0.21875 0.73438,0.5625 0.28125,0.35938 0.4375,0.84375 0.17187,0.48438 0.17187,0.92188 v 0.0625 h -4.92187 q 0.0781,-0.625 0.3125,-1.10938 0.23437,-0.48437 0.57812,-0.82812 0.34375,-0.32813 0.76563,-0.5 0.42187,-0.17188 0.89062,-0.17188 z m 6.25795,3.375 v 0.1875 q 0,0.96875 0.26563,1.82813 0.26562,0.84375 0.73437,1.46875 0.46875,0.625 1.14063,0.98437 0.6875,0.35938 1.51562,0.35938 0.84375,0 1.46875,-0.28125 0.64063,-0.29688 1.09375,-0.85938 l 0.0781,0.96875 h 1.4375 v -13 h -1.57813 v 4.75 q -0.4375,-0.53125 -1.0625,-0.79687 -0.60937,-0.28125 -1.42187,-0.28125 -0.84375,0 -1.53125,0.35937 -0.67188,0.34375 -1.14063,0.95313 -0.48437,0.625 -0.75,1.48437 -0.25,0.85938 -0.25,1.875 z m 1.5625,0.1875 v -0.1875 q 0,-0.67187 0.14063,-1.26562 0.15625,-0.60938 0.45312,-1.07813 0.29688,-0.45312 0.76563,-0.71875 0.46875,-0.28125 1.14062,-0.28125 0.76563,0 1.28125,0.35938 0.51563,0.35937 0.8125,0.92187 v 4.25 q -0.29687,0.59375 -0.8125,0.95313 -0.51562,0.35937 -1.29687,0.35937 -0.65625,0 -1.125,-0.26562 -0.46875,-0.26563 -0.76563,-0.73438 -0.29687,-0.45312 -0.45312,-1.04687 -0.14063,-0.60938 -0.14063,-1.26563 z"
       fill-rule="nonzero"
       id="path63" />
    <path
       fill="#000000"
       fill-opacity="0"
       d="m 235.43176,216.75853 h 59.1181"
       fill-rule="evenodd"
       id="path65" />
    <path
       stroke="#ff5252"
       stroke-width="2"
       stroke-linejoin="round"
       stroke-linecap="butt"
       d="m 235.43176,216.75853 h 47.1181"
       fill-rule="evenodd"
       id="path67" />
    <path
       fill="#ff5252"
       stroke="#ff5252"
       stroke-width="2"
       stroke-linecap="butt"
       d="m 282.54987,220.062 9.0762,-3.30347 -9.0762,-3.30346 z"
       fill-rule="evenodd"
       id="path69" />
    <path
       fill="#000000"
       fill-opacity="0"
       d="M 377.3294,216.75853 H 488.35302"
       fill-rule="evenodd"
       id="path71" />
    <path
       stroke="#ff5252"
       stroke-width="2"
       stroke-linejoin="round"
       stroke-linecap="butt"
       d="m 377.3294,216.75853 h 99.02362"
       fill-rule="evenodd"
       id="path73" />
    <path
       fill="#ff5252"
       stroke="#ff5252"
       stroke-width="2"
       stroke-linecap="butt"
       d="m 476.35303,220.062 9.07617,-3.30347 -9.07617,-3.30346 z"
       fill-rule="evenodd"
       id="path75" />
    <path
       fill="#000000"
       fill-opacity="0"
       d="m 335.94357,241.97113 28.81891,40.53543"
       fill-rule="evenodd"
       id="path77" />
    <path
       stroke="#ff5252"
       stroke-width="2"
       stroke-linejoin="round"
       stroke-linecap="butt"
       d="m 335.94357,241.97113 21.8656,30.75525"
       fill-rule="evenodd"
       id="path79" />
    <path
       fill="#ff5252"
       stroke="#ff5252"
       stroke-width="2"
       stroke-linecap="butt"
       d="m 355.11682,274.64053 7.95148,5.48309 -2.56674,-9.3114 z"
       fill-rule="evenodd"
       id="path81" />
    <path
       fill="#000000"
       fill-opacity="0"
       d="m 529.7441,241.97113 22.17322,40.53543"
       fill-rule="evenodd"
       id="path83" />
    <path
       stroke="#ff5252"
       stroke-width="2"
       stroke-linejoin="round"
       stroke-linecap="butt"
       d="m 529.7441,241.97113 16.41443,30.00757"
       fill-rule="evenodd"
       id="path85" />
    <path
       fill="#ff5252"
       stroke="#ff5252"
       stroke-width="2"
       stroke-linecap="butt"
       d="m 543.2603,273.56406 7.25384,6.37738 -1.45745,-9.54806 z"
       fill-rule="evenodd"
       id="path87" />
    <path
       fill="#000000"
       fill-opacity="0"
       d="m 364.76468,332.93964 v 34.58267"
       fill-rule="evenodd"
       id="path89" />
    <path
       stroke="#ff5252"
       stroke-width="2"
       stroke-linejoin="round"
       stroke-linecap="butt"
       d="m 364.76468,332.93964 v 22.58267"
       fill-rule="evenodd"
       id="path91" />
    <path
       fill="#ff5252"
       stroke="#ff5252"
       stroke-width="2"
       stroke-linecap="butt"
       d="m 361.4612,355.5223 3.30347,9.0762 3.30346,-9.0762 z"
       fill-rule="evenodd"
       id="path93" />
    <path
       fill="#000000"
       fill-opacity="0"
       d="m 622.1374,307.72702 h 39.08661"
       fill-rule="evenodd"
       id="path95" />
    <path
       stroke="#ff5252"
       stroke-width="2"
       stroke-linejoin="round"
       stroke-linecap="butt"
       d="m 622.1374,307.72702 h 27.08661"
       fill-rule="evenodd"
       id="path97" />
    <path
       fill="#ff5252"
       stroke="#ff5252"
       stroke-width="2"
       stroke-linecap="butt"
       d="m 649.224,311.0305 9.07617,-3.30347 -9.07617,-3.30343 z"
       fill-rule="evenodd"
       id="path99" />
    <path
       fill="#000000"
       fill-opacity="0"
       d="m 751.9006,346.59317 v 20.91339"
       fill-rule="evenodd"
       id="path101" />
    <path
       stroke="#ff5252"
       stroke-width="2"
       stroke-linejoin="round"
       stroke-linecap="butt"
       d="m 751.9006,346.59317 v 8.91339"
       fill-rule="evenodd"
       id="path103" />
    <path
       fill="#ff5252"
       stroke="#ff5252"
       stroke-width="2"
       stroke-linecap="butt"
       d="m 748.5971,355.50656 3.30347,9.0762 3.30346,-9.0762 z"
       fill-rule="evenodd"
       id="path105" />
  </g>
</svg>
