<svg width="2204" height="2181" xmlns="http://www.w3.org/2000/svg" xmlns:xlink="http://www.w3.org/1999/xlink" xml:space="preserve" overflow="hidden"><g transform="translate(-151 -220)"><g><rect x="237" y="227" width="519" height="279" stroke="#000000" stroke-width="10.3125" stroke-linecap="butt" stroke-linejoin="miter" stroke-miterlimit="8" stroke-opacity="1" fill="none"/><text fill="#000000" fill-opacity="1" font-family="Aptos,Aptos_MSFontService,sans-serif" font-style="normal" font-variant="normal" font-weight="400" font-stretch="normal" font-size="83" text-anchor="start" direction="ltr" writing-mode="lr-tb" unicode-bidi="normal" text-decoration="none" transform="matrix(1 0 0 1 423.555 393)">HLS</text><rect x="1753" y="227" width="519" height="279" stroke="#000000" stroke-width="10.3125" stroke-linecap="butt" stroke-linejoin="miter" stroke-miterlimit="8" stroke-opacity="1" fill="none"/><text fill="#000000" fill-opacity="1" font-family="Aptos,Aptos_MSFontService,sans-serif" font-style="normal" font-variant="normal" font-weight="400" font-stretch="normal" font-size="83" text-anchor="start" direction="ltr" writing-mode="lr-tb" unicode-bidi="normal" text-decoration="none" transform="matrix(1 0 0 1 1947.52 393)">RTL</text><path d="M1260.44 1305.05 1572.35 1395.55 1569.48 1405.46 1257.56 1314.95ZM1570.27 1384.21 1595.68 1407.69 1561.65 1413.92Z" fill="#4EA72E" fill-rule="nonzero" fill-opacity="1"/><rect x="1000" y="227" width="519" height="279" stroke="#000000" stroke-width="10.3125" stroke-linecap="butt" stroke-linejoin="miter" stroke-miterlimit="8" stroke-opacity="1" fill="none"/><text fill="#000000" fill-opacity="1" font-family="Aptos,Aptos_MSFontService,sans-serif" font-style="normal" font-variant="normal" font-weight="400" font-stretch="normal" font-size="83" text-anchor="start" direction="ltr" writing-mode="lr-tb" unicode-bidi="normal" text-decoration="none" transform="matrix(1 0 0 1 1161.13 344)">Calyx </text><text fill="#000000" fill-opacity="1" font-family="Aptos,Aptos_MSFontService,sans-serif" font-style="normal" font-variant="normal" font-weight="400" font-stretch="normal" font-size="83" text-anchor="start" direction="ltr" writing-mode="lr-tb" unicode-bidi="normal" text-decoration="none" transform="matrix(1 0 0 1 1078.63 443)">Frontends</text><path d="M218.938 711.771C211.083 673.353 251.526 637.974 309.269 632.748 332.667 630.63 356.456 633.796 376.83 641.738 398.419 614.662 448.868 604.372 489.511 618.754 496.617 621.269 503.14 624.456 508.875 628.217 525.689 605.774 566.644 596.655 600.351 607.851 609.68 610.95 617.818 615.431 624.14 620.951 651.241 599.727 699.129 597.105 731.102 615.095 744.54 622.656 753.597 633.086 756.72 644.594 801.124 652.656 827.319 683.191 815.229 712.797 814.212 715.286 812.937 717.724 811.412 720.095 847.025 750.944 838.307 795.159 791.94 818.853 777.507 826.228 760.459 831.004 742.443 832.718 742.042 865.906 701.25 892.595 651.33 892.329 634.652 892.24 618.336 889.085 604.188 883.212 587.303 920.421 528.408 941.452 472.642 930.186 449.271 925.464 429.078 915.48 415.507 901.935 358.41 924.85 284.3 912.523 249.977 874.402 249.545 873.921 249.12 873.438 248.702 872.951 211.334 875.862 177.486 858.119 173.1 833.322 170.763 820.105 177.32 806.876 191.024 797.16 158.669 784.486 147.8 756.666 166.748 735.023 177.68 722.537 196.852 714.283 218.369 712.799Z" stroke="#000000" stroke-width="10.3125" stroke-linecap="butt" stroke-linejoin="miter" stroke-miterlimit="8" stroke-opacity="1" fill="none" fill-rule="evenodd"/><path d="M231.328 801.963C217.515 802.683 203.704 800.558 191.748 795.875M266.25 868.589C260.696 870.061 254.873 871.041 248.933 871.503M415.469 900.604C411.291 896.434 407.793 891.978 405.035 887.312M608.422 867.459C607.807 872.405 606.411 877.294 604.255 882.044M691.266 777.343C722.584 787.486 742.348 808.691 742.069 831.851M811.094 719.287C806.022 727.174 798.279 734.17 788.472 739.727M756.812 643.448C757.677 646.633 758.077 649.866 758.007 653.101M612.344 632.189C615.291 627.735 619.195 623.589 623.932 619.878M503.953 638.055C505.156 634.375 507.041 630.809 509.566 627.439M376.75 641.661C384.122 644.535 390.942 647.993 397.06 651.961M222.484 722.61C220.875 719.066 219.69 715.442 218.94 711.773" stroke="#000000" stroke-width="10.3125" stroke-linecap="butt" stroke-linejoin="miter" stroke-miterlimit="8" stroke-opacity="1" fill="none" fill-rule="evenodd"/><text fill="#000000" fill-opacity="1" font-family="Aptos,Aptos_MSFontService,sans-serif" font-style="normal" font-variant="normal" font-weight="400" font-stretch="normal" font-size="83" text-anchor="start" direction="ltr" writing-mode="lr-tb" unicode-bidi="normal" text-decoration="none" transform="matrix(1 0 0 1 398.533 736)">HLS </text><text fill="#000000" fill-opacity="1" font-family="Aptos,Aptos_MSFontService,sans-serif" font-style="normal" font-variant="normal" font-weight="400" font-stretch="normal" font-size="83" text-anchor="start" direction="ltr" writing-mode="lr-tb" unicode-bidi="normal" text-decoration="none" transform="matrix(1 0 0 1 306.019 835)">Compiler</text><rect x="1000" y="1110" width="519" height="200" stroke="#000000" stroke-width="10.3125" stroke-linecap="butt" stroke-linejoin="miter" stroke-miterlimit="8" stroke-opacity="1" fill="none"/><text fill="#000000" fill-opacity="1" font-family="Aptos,Aptos_MSFontService,sans-serif" font-style="normal" font-variant="normal" font-weight="400" font-stretch="normal" font-size="83" text-anchor="start" direction="ltr" writing-mode="lr-tb" unicode-bidi="normal" text-decoration="none" transform="matrix(1 0 0 1 1161.14 1237)">Calyx</text><path d="M981.937 692.771C974.083 654.353 1014.53 618.974 1072.27 613.748 1095.67 611.63 1119.46 614.796 1139.83 622.738 1161.42 595.662 1211.87 585.372 1252.51 599.754 1259.62 602.269 1266.14 605.457 1271.88 609.217 1288.69 586.774 1329.64 577.655 1363.35 588.851 1372.68 591.95 1380.82 596.431 1387.14 601.951 1414.24 580.727 1462.13 578.105 1494.1 596.095 1507.54 603.657 1516.6 614.086 1519.72 625.594 1564.12 633.656 1590.32 664.191 1578.23 693.797 1577.21 696.286 1575.94 698.724 1574.41 701.095 1610.02 731.944 1601.31 776.159 1554.94 799.853 1540.51 807.228 1523.46 812.004 1505.44 813.718 1505.04 846.906 1464.25 873.595 1414.33 873.329 1397.65 873.24 1381.34 870.085 1367.19 864.213 1350.3 901.421 1291.41 922.452 1235.64 911.186 1212.27 906.464 1192.08 896.48 1178.51 882.935 1121.41 905.85 1047.3 893.524 1012.98 855.402 1012.54 854.921 1012.12 854.438 1011.7 853.952 974.334 856.862 940.486 839.119 936.1 814.323 933.763 801.105 940.32 787.876 954.024 778.16 921.669 765.486 910.8 737.666 929.748 716.023 940.679 703.537 959.852 695.283 981.369 693.799Z" stroke="#000000" stroke-width="10.3125" stroke-linecap="butt" stroke-linejoin="miter" stroke-miterlimit="8" stroke-opacity="1" fill="none" fill-rule="evenodd"/><path d="M994.328 782.963C980.515 783.683 966.704 781.558 954.748 776.875M1029.25 849.59C1023.7 851.061 1017.87 852.041 1011.93 852.503M1178.47 881.604C1174.29 877.434 1170.79 872.978 1168.03 868.312M1371.42 848.459C1370.81 853.405 1369.41 858.294 1367.26 863.044M1454.27 758.343C1485.58 768.486 1505.35 789.691 1505.07 812.851M1574.09 700.287C1569.02 708.174 1561.28 715.17 1551.47 720.727M1519.81 624.449C1520.68 627.633 1521.08 630.866 1521.01 634.102M1375.34 613.189C1378.29 608.736 1382.19 604.589 1386.93 600.878M1266.95 619.056C1268.16 615.375 1270.04 611.809 1272.57 608.439M1139.75 622.661C1147.12 625.535 1153.94 628.993 1160.06 632.961M985.484 703.61C983.875 700.066 982.69 696.442 981.94 692.773" stroke="#000000" stroke-width="10.3125" stroke-linecap="butt" stroke-linejoin="miter" stroke-miterlimit="8" stroke-opacity="1" fill="none" fill-rule="evenodd"/><text fill="#000000" fill-opacity="1" font-family="Aptos,Aptos_MSFontService,sans-serif" font-style="normal" font-variant="normal" font-weight="400" font-stretch="normal" font-size="83" text-anchor="start" direction="ltr" writing-mode="lr-tb" unicode-bidi="normal" text-decoration="none" transform="matrix(1 0 0 1 1091.89 717)">Custom </text><text fill="#000000" fill-opacity="1" font-family="Aptos,Aptos_MSFontService,sans-serif" font-style="normal" font-variant="normal" font-weight="400" font-stretch="normal" font-size="83" text-anchor="start" direction="ltr" writing-mode="lr-tb" unicode-bidi="normal" text-decoration="none" transform="matrix(1 0 0 1 1068.81 816)">Compiler</text><path d="M5.15605-0.0450516 5.92866 88.3783-4.38344 88.4685-5.15605 0.0450516ZM16.1957 83.1322 0.997867 114.204-14.7406 83.4025Z" fill="#000000" fill-rule="nonzero" fill-opacity="1" transform="matrix(-1 0 0 1 496.998 506)"/><path d="M5.15597-0.053967 5.884 69.5017-4.42794 69.6096-5.15597 0.053967ZM16.142 64.2378 0.997867 95.3355-14.7938 64.5616Z" fill="#000000" fill-rule="nonzero" fill-opacity="1" transform="matrix(-1 0 0 1 1259 506)"/><path d="M1732.94 692.771C1725.08 654.353 1765.53 618.974 1823.27 613.748 1846.67 611.63 1870.46 614.796 1890.83 622.738 1912.42 595.662 1962.87 585.372 2003.51 599.754 2010.62 602.269 2017.14 605.457 2022.88 609.217 2039.69 586.774 2080.64 577.655 2114.35 588.851 2123.68 591.95 2131.82 596.431 2138.14 601.951 2165.24 580.727 2213.13 578.105 2245.1 596.095 2258.54 603.657 2267.6 614.086 2270.72 625.594 2315.12 633.656 2341.32 664.191 2329.23 693.797 2328.21 696.286 2326.94 698.724 2325.41 701.095 2361.02 731.944 2352.31 776.159 2305.94 799.853 2291.51 807.228 2274.46 812.004 2256.44 813.718 2256.04 846.906 2215.25 873.595 2165.33 873.329 2148.65 873.24 2132.34 870.085 2118.19 864.213 2101.3 901.421 2042.41 922.452 1986.64 911.186 1963.27 906.464 1943.08 896.48 1929.51 882.935 1872.41 905.85 1798.3 893.524 1763.98 855.402 1763.54 854.921 1763.12 854.438 1762.7 853.952 1725.33 856.862 1691.49 839.119 1687.1 814.323 1684.76 801.105 1691.32 787.876 1705.02 778.16 1672.67 765.486 1661.8 737.666 1680.75 716.023 1691.68 703.537 1710.85 695.283 1732.37 693.799Z" stroke="#000000" stroke-width="10.3125" stroke-linecap="butt" stroke-linejoin="miter" stroke-miterlimit="8" stroke-opacity="1" fill="none" fill-rule="evenodd"/><path d="M1745.33 782.963C1731.52 783.683 1717.7 781.558 1705.75 776.875M1780.25 849.59C1774.7 851.061 1768.87 852.041 1762.93 852.503M1929.47 881.604C1925.29 877.434 1921.79 872.978 1919.03 868.312M2122.42 848.459C2121.81 853.405 2120.41 858.294 2118.26 863.044M2205.27 758.343C2236.58 768.486 2256.35 789.691 2256.07 812.851M2325.09 700.287C2320.02 708.174 2312.28 715.17 2302.47 720.727M2270.81 624.449C2271.68 627.633 2272.08 630.866 2272.01 634.102M2126.34 613.189C2129.29 608.736 2133.19 604.589 2137.93 600.878M2017.95 619.056C2019.16 615.375 2021.04 611.809 2023.57 608.439M1890.75 622.661C1898.12 625.535 1904.94 628.993 1911.06 632.961M1736.48 703.61C1734.88 700.066 1733.69 696.442 1732.94 692.773" stroke="#000000" stroke-width="10.3125" stroke-linecap="butt" stroke-linejoin="miter" stroke-miterlimit="8" stroke-opacity="1" fill="none" fill-rule="evenodd"/><text fill="#000000" fill-opacity="1" font-family="Aptos,Aptos_MSFontService,sans-serif" font-style="normal" font-variant="normal" font-weight="400" font-stretch="normal" font-size="83" text-anchor="start" direction="ltr" writing-mode="lr-tb" unicode-bidi="normal" text-decoration="none" transform="matrix(1 0 0 1 1920.96 717)">RTL </text><text fill="#000000" fill-opacity="1" font-family="Aptos,Aptos_MSFontService,sans-serif" font-style="normal" font-variant="normal" font-weight="400" font-stretch="normal" font-size="83" text-anchor="start" direction="ltr" writing-mode="lr-tb" unicode-bidi="normal" text-decoration="none" transform="matrix(1 0 0 1 1819.92 816)">Compiler</text><path d="M1263.16 911.974 1264.02 1084.16 1253.71 1084.21 1252.84 912.026ZM1274.31 1078.95 1259 1109.97 1243.37 1079.11Z" fill="#4EA72E" fill-rule="nonzero" fill-opacity="1"/><rect x="1337" y="1408" width="519" height="200" stroke="#000000" stroke-width="10.3125" stroke-linecap="butt" stroke-linejoin="miter" stroke-miterlimit="8" stroke-opacity="1" fill="none"/><text fill="#000000" fill-opacity="1" font-family="Aptos,Aptos_MSFontService,sans-serif" font-style="normal" font-variant="normal" font-weight="400" font-stretch="normal" font-size="83" text-anchor="start" direction="ltr" writing-mode="lr-tb" unicode-bidi="normal" text-decoration="none" transform="matrix(1 0 0 1 1487.72 1534)">RTL IR</text><path d="M3.95912-3.30337 400.883 472.413 392.964 479.019-3.95912 3.30337ZM405.497 461.847 413.44 495.511 381.742 481.667Z" fill="#C00000" fill-rule="nonzero" fill-opacity="1" transform="matrix(-1 0 0 1 2009.44 912)"/><path d="M497.177 925.98 1235.86 1099.19 1233.51 1109.23 494.823 936.02ZM1233.2 1087.98 1259.79 1110.1 1226.14 1118.1Z" fill="#4E95D9" fill-rule="nonzero" fill-opacity="1"/><path d="M5.15443-0.136819 7.00092 69.4265-3.30795 69.7001-5.15443 0.136819ZM17.173 63.9984 2.53058 95.3355-13.7536 64.8194Z" fill="#000000" fill-rule="nonzero" fill-opacity="1" transform="matrix(-1 0 0 1 2012.53 506)"/><rect x="947" y="2117" width="519" height="279" stroke="#000000" stroke-width="10.3125" stroke-linecap="butt" stroke-linejoin="miter" stroke-miterlimit="8" stroke-opacity="1" fill="none"/><text fill="#000000" fill-opacity="1" font-family="Aptos,Aptos_MSFontService,sans-serif" font-style="normal" font-variant="normal" font-weight="400" font-stretch="normal" font-size="83" text-anchor="start" direction="ltr" writing-mode="lr-tb" unicode-bidi="normal" text-decoration="none" transform="matrix(1 0 0 1 1108.35 2283)">FPGA</text><rect x="1632" y="2113" width="519" height="279" stroke="#000000" stroke-width="10.3125" stroke-linecap="butt" stroke-linejoin="miter" stroke-miterlimit="8" stroke-opacity="1" fill="none"/><text fill="#000000" fill-opacity="1" font-family="Aptos,Aptos_MSFontService,sans-serif" font-style="normal" font-variant="normal" font-weight="400" font-stretch="normal" font-size="83" text-anchor="start" direction="ltr" writing-mode="lr-tb" unicode-bidi="normal" text-decoration="none" transform="matrix(1 0 0 1 1804.82 2279)">ASIC</text><rect x="947" y="1774" width="519" height="199" stroke="#000000" stroke-width="10.3125" stroke-linecap="butt" stroke-linejoin="miter" stroke-miterlimit="8" stroke-opacity="1" fill="none"/><text fill="#000000" fill-opacity="1" font-family="Aptos,Aptos_MSFontService,sans-serif" font-style="normal" font-variant="normal" font-weight="400" font-stretch="normal" font-size="73" text-anchor="start" direction="ltr" writing-mode="lr-tb" unicode-bidi="normal" text-decoration="none" transform="matrix(1 0 0 1 1045.05 1897)">FPGA flow</text><rect x="1632" y="1772" width="519" height="200" stroke="#000000" stroke-width="10.3125" stroke-linecap="butt" stroke-linejoin="miter" stroke-miterlimit="8" stroke-opacity="1" fill="none"/><text fill="#000000" fill-opacity="1" font-family="Aptos,Aptos_MSFontService,sans-serif" font-style="normal" font-variant="normal" font-weight="400" font-stretch="normal" font-size="73" text-anchor="start" direction="ltr" writing-mode="lr-tb" unicode-bidi="normal" text-decoration="none" transform="matrix(1 0 0 1 1747.26 1896)">VLSI flow</text><path d="M2.02104-4.74366 367.521 150.978 363.479 160.465-2.02104 4.74366ZM366.819 139.469 389.218 165.826 354.693 167.931Z" fill="#C00000" fill-rule="nonzero" fill-opacity="1" transform="matrix(-1 0 0 1 1596.22 1608)"/><path d="M1598.51 1603.49 1871.48 1755.44 1866.46 1764.45 1593.49 1612.51ZM1871.99 1743.92 1891.5 1772.48 1856.94 1770.95Z" fill="#C00000" fill-rule="nonzero" fill-opacity="1"/><path d="M1212.16 1973 1212.16 2090.82 1201.84 2090.82 1201.84 1973ZM1222.47 2085.66 1207 2116.6 1191.53 2085.66Z" fill="#000000" fill-rule="nonzero" fill-opacity="1"/><path d="M1897.16 1972 1897.16 2087.11 1886.84 2087.11 1886.84 1972ZM1907.47 2081.95 1892 2112.89 1876.53 2081.95Z" fill="#000000" fill-rule="nonzero" fill-opacity="1"/></g></g></svg>