<svg width="2342" height="2186" xmlns="http://www.w3.org/2000/svg" xmlns:xlink="http://www.w3.org/1999/xlink" xml:space="preserve" overflow="hidden"><g transform="translate(-55 -224)"><g><rect x="277" y="231" width="519" height="279" stroke="#000000" stroke-width="10.3125" stroke-linecap="butt" stroke-linejoin="miter" stroke-miterlimit="8" stroke-opacity="1" fill="none"/><text fill="#000000" fill-opacity="1" font-family="Aptos,Aptos_MSFontService,sans-serif" font-style="normal" font-variant="normal" font-weight="400" font-stretch="normal" font-size="83" text-anchor="start" direction="ltr" writing-mode="lr-tb" unicode-bidi="normal" text-decoration="none" transform="matrix(1 0 0 1 463.155 397)">HLS</text><rect x="1792" y="231" width="519" height="279" stroke="#000000" stroke-width="10.3125" stroke-linecap="butt" stroke-linejoin="miter" stroke-miterlimit="8" stroke-opacity="1" fill="none"/><text fill="#000000" fill-opacity="1" font-family="Aptos,Aptos_MSFontService,sans-serif" font-style="normal" font-variant="normal" font-weight="400" font-stretch="normal" font-size="83" text-anchor="start" direction="ltr" writing-mode="lr-tb" unicode-bidi="normal" text-decoration="none" transform="matrix(1 0 0 1 1987.12 397)">RTL</text><rect x="276" y="2125" width="519" height="279" stroke="#000000" stroke-width="10.3125" stroke-linecap="butt" stroke-linejoin="miter" stroke-miterlimit="8" stroke-opacity="1" fill="none"/><text fill="#000000" fill-opacity="1" font-family="Aptos,Aptos_MSFontService,sans-serif" font-style="normal" font-variant="normal" font-weight="400" font-stretch="normal" font-size="83" text-anchor="start" direction="ltr" writing-mode="lr-tb" unicode-bidi="normal" text-decoration="none" transform="matrix(1 0 0 1 385.707 2291)">Verilator</text><rect x="1039" y="231" width="520" height="279" stroke="#000000" stroke-width="10.3125" stroke-linecap="butt" stroke-linejoin="miter" stroke-miterlimit="8" stroke-opacity="1" fill="none"/><text fill="#000000" fill-opacity="1" font-family="Aptos,Aptos_MSFontService,sans-serif" font-style="normal" font-variant="normal" font-weight="400" font-stretch="normal" font-size="83" text-anchor="start" direction="ltr" writing-mode="lr-tb" unicode-bidi="normal" text-decoration="none" transform="matrix(1 0 0 1 1200.73 347)">Calyx </text><text fill="#000000" fill-opacity="1" font-family="Aptos,Aptos_MSFontService,sans-serif" font-style="normal" font-variant="normal" font-weight="400" font-stretch="normal" font-size="83" text-anchor="start" direction="ltr" writing-mode="lr-tb" unicode-bidi="normal" text-decoration="none" transform="matrix(1 0 0 1 1118.23 446)">Frontends</text><rect x="276" y="1777" width="519" height="200" stroke="#000000" stroke-width="10.3125" stroke-linecap="butt" stroke-linejoin="miter" stroke-miterlimit="8" stroke-opacity="1" fill="none"/><text fill="#000000" fill-opacity="1" font-family="Aptos,Aptos_MSFontService,sans-serif" font-style="normal" font-variant="normal" font-weight="400" font-stretch="normal" font-size="50" text-anchor="start" direction="ltr" writing-mode="lr-tb" unicode-bidi="normal" text-decoration="none" transform="matrix(1 0 0 1 443.824 1863)">Discrete</text><text fill="#000000" fill-opacity="1" font-family="Aptos,Aptos_MSFontService,sans-serif" font-style="normal" font-variant="normal" font-weight="400" font-stretch="normal" font-size="50" text-anchor="start" direction="ltr" writing-mode="lr-tb" unicode-bidi="normal" text-decoration="none" transform="matrix(1 0 0 1 401.428 1923)">Event Mode</text><text fill="#000000" fill-opacity="1" font-family="Aptos,Aptos_MSFontService,sans-serif" font-style="normal" font-variant="normal" font-weight="400" font-stretch="normal" font-size="50" text-anchor="start" direction="ltr" writing-mode="lr-tb" unicode-bidi="normal" text-decoration="none" transform="matrix(1 0 0 1 655.803 1923)">l</text><path d="M258.938 714.771C251.083 676.353 291.526 640.974 349.269 635.748 372.667 633.63 396.456 636.796 416.83 644.738 438.419 617.662 488.868 607.372 529.511 621.754 536.618 624.269 543.14 627.457 548.875 631.217 565.689 608.774 606.644 599.655 640.351 610.851 649.68 613.95 657.818 618.431 664.14 623.951 691.241 602.727 739.129 600.105 771.102 618.095 784.54 625.657 793.597 636.086 796.72 647.594 841.124 655.656 867.32 686.191 855.229 715.797 854.212 718.286 852.937 720.724 851.412 723.095 887.025 753.944 878.307 798.159 831.94 821.853 817.507 829.228 800.459 834.004 782.443 835.718 782.043 868.906 741.25 895.595 691.33 895.329 674.652 895.24 658.336 892.085 644.188 886.213 627.303 923.421 568.408 944.452 512.642 933.186 489.271 928.464 469.078 918.48 455.507 904.935 398.41 927.85 324.3 915.524 289.977 877.402 289.545 876.921 289.12 876.438 288.702 875.952 251.334 878.862 217.486 861.119 213.1 836.323 210.763 823.105 217.32 809.876 231.024 800.16 198.669 787.486 187.8 759.666 206.748 738.023 217.68 725.537 236.852 717.283 258.369 715.799Z" stroke="#000000" stroke-width="10.3125" stroke-linecap="butt" stroke-linejoin="miter" stroke-miterlimit="8" stroke-opacity="1" fill="none" fill-rule="evenodd"/><path d="M271.328 804.963C257.515 805.683 243.704 803.558 231.748 798.875M306.25 871.59C300.695 873.061 294.873 874.041 288.933 874.503M455.469 903.604C451.291 899.434 447.793 894.978 445.035 890.312M648.422 870.459C647.808 875.405 646.411 880.294 644.256 885.044M731.266 780.343C762.584 790.486 782.349 811.691 782.069 834.851M851.094 722.287C846.022 730.174 838.279 737.17 828.472 742.727M796.813 646.449C797.677 649.633 798.077 652.866 798.007 656.102M652.344 635.189C655.291 630.736 659.195 626.589 663.933 622.878M543.953 641.056C545.156 637.375 547.041 633.809 549.566 630.439M416.75 644.661C424.122 647.535 430.942 650.993 437.061 654.961M262.484 725.61C260.875 722.066 259.69 718.442 258.94 714.773" stroke="#000000" stroke-width="10.3125" stroke-linecap="butt" stroke-linejoin="miter" stroke-miterlimit="8" stroke-opacity="1" fill="none" fill-rule="evenodd"/><text fill="#000000" fill-opacity="1" font-family="Aptos,Aptos_MSFontService,sans-serif" font-style="normal" font-variant="normal" font-weight="400" font-stretch="normal" font-size="83" text-anchor="start" direction="ltr" writing-mode="lr-tb" unicode-bidi="normal" text-decoration="none" transform="matrix(1 0 0 1 438.133 739)">HLS </text><text fill="#000000" fill-opacity="1" font-family="Aptos,Aptos_MSFontService,sans-serif" font-style="normal" font-variant="normal" font-weight="400" font-stretch="normal" font-size="83" text-anchor="start" direction="ltr" writing-mode="lr-tb" unicode-bidi="normal" text-decoration="none" transform="matrix(1 0 0 1 345.619 838)">Compiler</text><rect x="1039" y="1114" width="520" height="199" stroke="#000000" stroke-width="10.3125" stroke-linecap="butt" stroke-linejoin="miter" stroke-miterlimit="8" stroke-opacity="1" fill="none"/><text fill="#000000" fill-opacity="1" font-family="Aptos,Aptos_MSFontService,sans-serif" font-style="normal" font-variant="normal" font-weight="400" font-stretch="normal" font-size="83" text-anchor="start" direction="ltr" writing-mode="lr-tb" unicode-bidi="normal" text-decoration="none" transform="matrix(1 0 0 1 1200.74 1240)">Calyx</text><path d="M1021.03 695.771C1013.16 657.354 1053.66 621.974 1111.49 616.748 1134.93 614.631 1158.75 617.796 1179.15 625.738 1200.78 598.662 1251.3 588.372 1292 602.754 1299.12 605.269 1305.65 608.457 1311.4 612.217 1328.23 589.774 1369.25 580.656 1403.01 591.851 1412.35 594.95 1420.5 599.431 1426.83 604.951 1453.97 583.727 1501.93 581.105 1533.95 599.095 1547.41 606.657 1556.48 617.086 1559.61 628.595 1604.08 636.656 1630.31 667.191 1618.2 696.797 1617.18 699.286 1615.91 701.724 1614.38 704.095 1650.05 734.944 1641.31 779.159 1594.88 802.853 1580.42 810.229 1563.35 815.004 1545.31 816.718 1544.91 849.906 1504.05 876.595 1454.06 876.329 1437.36 876.24 1421.02 873.085 1406.85 867.213 1389.94 904.421 1330.96 925.452 1275.11 914.186 1251.7 909.465 1231.48 899.48 1217.89 885.935 1160.71 908.851 1086.49 896.524 1052.11 858.402 1051.68 857.921 1051.25 857.438 1050.84 856.952 1013.41 859.862 979.515 842.12 975.123 817.323 972.782 804.105 979.348 790.876 993.073 781.16 960.67 768.486 949.785 740.666 968.761 719.023 979.709 706.537 998.909 698.283 1020.46 696.799Z" stroke="#000000" stroke-width="10.3125" stroke-linecap="butt" stroke-linejoin="miter" stroke-miterlimit="8" stroke-opacity="1" fill="none" fill-rule="evenodd"/><path d="M1033.44 785.963C1019.6 786.683 1005.77 784.558 993.798 779.875M1068.41 852.59C1062.85 854.061 1057.02 855.041 1051.07 855.504M1217.85 884.604C1213.67 880.434 1210.16 875.978 1207.4 871.312M1411.09 851.459C1410.47 856.405 1409.08 861.294 1406.92 866.044M1494.06 761.343C1525.42 771.486 1545.21 792.691 1544.93 815.851M1614.06 703.288C1608.98 711.174 1601.23 718.17 1591.41 723.727M1559.7 627.449C1560.57 630.633 1560.97 633.866 1560.9 637.102M1415.02 616.189C1417.97 611.736 1421.88 607.589 1426.62 603.879M1306.47 622.056C1307.67 618.375 1309.56 614.809 1312.09 611.439M1179.07 625.661C1186.46 628.535 1193.29 631.994 1199.41 635.961M1024.58 706.611C1022.97 703.066 1021.78 699.442 1021.03 695.774" stroke="#000000" stroke-width="10.3125" stroke-linecap="butt" stroke-linejoin="miter" stroke-miterlimit="8" stroke-opacity="1" fill="none" fill-rule="evenodd"/><text fill="#000000" fill-opacity="1" font-family="Aptos,Aptos_MSFontService,sans-serif" font-style="normal" font-variant="normal" font-weight="400" font-stretch="normal" font-size="83" text-anchor="start" direction="ltr" writing-mode="lr-tb" unicode-bidi="normal" text-decoration="none" transform="matrix(1 0 0 1 1131.49 720)">Custom </text><text fill="#000000" fill-opacity="1" font-family="Aptos,Aptos_MSFontService,sans-serif" font-style="normal" font-variant="normal" font-weight="400" font-stretch="normal" font-size="83" text-anchor="start" direction="ltr" writing-mode="lr-tb" unicode-bidi="normal" text-decoration="none" transform="matrix(1 0 0 1 1108.41 819)">Compiler</text><path d="M5.15605-0.0450516 5.92866 88.3783-4.38344 88.4685-5.15605 0.0450516ZM16.1957 83.1322 0.997867 114.204-14.7406 83.4025Z" fill="#000000" fill-rule="nonzero" fill-opacity="1" transform="matrix(-1 0 0 1 535.998 510)"/><path d="M5.15597-0.053967 5.884 69.5017-4.42794 69.6096-5.15597 0.053967ZM16.142 64.2378 0.997867 95.3355-14.7938 64.5616Z" fill="#000000" fill-rule="nonzero" fill-opacity="1" transform="matrix(-1 0 0 1 1299 510)"/><path d="M1772.03 695.771C1764.16 657.354 1804.66 621.974 1862.49 616.748 1885.93 614.631 1909.75 617.796 1930.15 625.738 1951.78 598.662 2002.3 588.372 2043 602.754 2050.12 605.269 2056.65 608.457 2062.4 612.217 2079.23 589.774 2120.25 580.656 2154.01 591.851 2163.35 594.95 2171.5 599.431 2177.83 604.951 2204.97 583.727 2252.93 581.105 2284.95 599.095 2298.41 606.657 2307.48 617.086 2310.61 628.595 2355.08 636.656 2381.31 667.191 2369.2 696.797 2368.18 699.286 2366.91 701.724 2365.38 704.095 2401.05 734.944 2392.31 779.159 2345.88 802.853 2331.42 810.229 2314.35 815.004 2296.31 816.718 2295.91 849.906 2255.05 876.595 2205.06 876.329 2188.36 876.24 2172.02 873.085 2157.85 867.213 2140.94 904.421 2081.96 925.452 2026.11 914.186 2002.7 909.465 1982.48 899.48 1968.89 885.935 1911.71 908.851 1837.49 896.524 1803.11 858.402 1802.68 857.921 1802.25 857.438 1801.84 856.952 1764.41 859.862 1730.51 842.12 1726.12 817.323 1723.78 804.105 1730.35 790.876 1744.07 781.16 1711.67 768.486 1700.79 740.666 1719.76 719.023 1730.71 706.537 1749.91 698.283 1771.46 696.799Z" stroke="#000000" stroke-width="10.3125" stroke-linecap="butt" stroke-linejoin="miter" stroke-miterlimit="8" stroke-opacity="1" fill="none" fill-rule="evenodd"/><path d="M1784.44 785.963C1770.6 786.683 1756.77 784.558 1744.8 779.875M1819.41 852.59C1813.85 854.061 1808.02 855.041 1802.07 855.504M1968.85 884.604C1964.67 880.434 1961.16 875.978 1958.4 871.312M2162.09 851.459C2161.47 856.405 2160.08 861.294 2157.92 866.044M2245.06 761.343C2276.42 771.486 2296.21 792.691 2295.93 815.851M2365.06 703.288C2359.98 711.174 2352.23 718.17 2342.41 723.727M2310.7 627.449C2311.57 630.633 2311.97 633.866 2311.9 637.102M2166.02 616.189C2168.97 611.736 2172.88 607.589 2177.62 603.879M2057.47 622.056C2058.67 618.375 2060.56 614.809 2063.09 611.439M1930.07 625.661C1937.46 628.535 1944.29 631.994 1950.41 635.961M1775.58 706.611C1773.97 703.066 1772.78 699.442 1772.03 695.774" stroke="#000000" stroke-width="10.3125" stroke-linecap="butt" stroke-linejoin="miter" stroke-miterlimit="8" stroke-opacity="1" fill="none" fill-rule="evenodd"/><text fill="#000000" fill-opacity="1" font-family="Aptos,Aptos_MSFontService,sans-serif" font-style="normal" font-variant="normal" font-weight="400" font-stretch="normal" font-size="83" text-anchor="start" direction="ltr" writing-mode="lr-tb" unicode-bidi="normal" text-decoration="none" transform="matrix(1 0 0 1 1960.56 720)">RTL </text><text fill="#000000" fill-opacity="1" font-family="Aptos,Aptos_MSFontService,sans-serif" font-style="normal" font-variant="normal" font-weight="400" font-stretch="normal" font-size="83" text-anchor="start" direction="ltr" writing-mode="lr-tb" unicode-bidi="normal" text-decoration="none" transform="matrix(1 0 0 1 1859.52 819)">Compiler</text><path d="M1303.16 915.974 1304.02 1088.16 1293.71 1088.21 1292.84 916.026ZM1314.31 1082.95 1299 1113.97 1283.37 1083.11Z" fill="#4EA72E" fill-rule="nonzero" fill-opacity="1"/><rect x="1376" y="1411" width="519" height="200" stroke="#000000" stroke-width="10.3125" stroke-linecap="butt" stroke-linejoin="miter" stroke-miterlimit="8" stroke-opacity="1" fill="none"/><text fill="#000000" fill-opacity="1" font-family="Aptos,Aptos_MSFontService,sans-serif" font-style="normal" font-variant="normal" font-weight="400" font-stretch="normal" font-size="83" text-anchor="start" direction="ltr" writing-mode="lr-tb" unicode-bidi="normal" text-decoration="none" transform="matrix(1 0 0 1 1527.32 1538)">RTL IR</text><path d="M0.76831-5.09869 1075.74 156.886 1074.2 167.083-0.76831 5.09869ZM1072.18 145.921 1100.46 165.826 1067.57 176.513Z" fill="#C00000" fill-rule="nonzero" fill-opacity="1" transform="matrix(-1 0 0 1 1635.46 1611)"/><path d="M3.95912-3.30337 400.883 472.413 392.964 479.019-3.95912 3.30337ZM405.497 461.847 413.44 495.511 381.742 481.667Z" fill="#C00000" fill-rule="nonzero" fill-opacity="1" transform="matrix(-1 0 0 1 2049.44 916)"/><path d="M540.156 934 540.156 1750.54 529.844 1750.54 529.844 934ZM550.469 1745.39 535 1776.33 519.531 1745.39Z" fill="#4E95D9" fill-rule="nonzero" fill-opacity="1"/><path d="M540.156 1977 540.156 2099.42 529.844 2099.42 529.844 1977ZM550.469 2094.27 535 2125.2 519.531 2094.27Z" fill="#000000" fill-rule="nonzero" fill-opacity="1"/><path d="M5.15443-0.136819 7.00092 69.4265-3.30795 69.7001-5.15443 0.136819ZM17.173 63.9984 2.53058 95.3355-13.7536 64.8194Z" fill="#000000" fill-rule="nonzero" fill-opacity="1" transform="matrix(-1 0 0 1 2051.53 510)"/><path d="M2.67447-4.40842 744.42 445.589 739.071 454.406-2.67447 4.40842ZM745.362 434.098 763.789 463.37 729.315 460.549Z" fill="#4EA72E" fill-rule="nonzero" fill-opacity="1" transform="matrix(-1 0 0 1 1298.79 1313)"/><text fill="#000000" fill-opacity="1" font-family="Aptos,Aptos_MSFontService,sans-serif" font-style="normal" font-variant="normal" font-weight="400" font-stretch="normal" font-size="83" text-anchor="start" direction="ltr" writing-mode="lr-tb" unicode-bidi="normal" text-decoration="none" transform="matrix(1 0 0 1 158.16 1290)">Interface</text><text fill="#000000" fill-opacity="1" font-family="Aptos,Aptos_MSFontService,sans-serif" font-style="normal" font-variant="normal" font-weight="400" font-stretch="normal" font-size="83" text-anchor="start" direction="ltr" writing-mode="lr-tb" unicode-bidi="normal" text-decoration="none" transform="matrix(1 0 0 1 119.27 1389)">Generatio</text><text fill="#000000" fill-opacity="1" font-family="Aptos,Aptos_MSFontService,sans-serif" font-style="normal" font-variant="normal" font-weight="400" font-stretch="normal" font-size="83" text-anchor="start" direction="ltr" writing-mode="lr-tb" unicode-bidi="normal" text-decoration="none" transform="matrix(1 0 0 1 470.147 1389)">n</text></g></g></svg>