<svg width="4331" height="2553" xmlns="http://www.w3.org/2000/svg" xmlns:xlink="http://www.w3.org/1999/xlink" xml:space="preserve" overflow="hidden"><defs><clipPath id="clip0"><rect x="1155" y="815" width="4331" height="2553"/></clipPath><clipPath id="clip1"><rect x="1155" y="815" width="4331" height="2553"/></clipPath></defs><g clip-path="url(#clip0)" transform="translate(-1155 -815)"><g clip-path="url(#clip1)"><rect x="1157" y="817" width="4323" height="2548" fill="#FFFFFF" fill-opacity="1"/><g><path d="M1687 2568.08 5429 2568.08M1687 2236.07 5429 2236.07M1687 1904.06 5429 1904.06M1687 1571.05 5429 1571.05M1687 1239.04 5429 1239.04M1687 907 5429 907" stroke="#000000" stroke-width="5.72917" stroke-linecap="butt" stroke-linejoin="round" stroke-miterlimit="10" stroke-opacity="1" fill="none" fill-rule="nonzero"/></g><g><rect x="1686.5" y="907.5" width="3743" height="1993" stroke="#000000" stroke-width="9.16667" stroke-linecap="butt" stroke-linejoin="round" stroke-miterlimit="10" stroke-opacity="1" fill="none"/></g><g><path d="M1911.06 2751.09 2211.07 2751.09 2211.07 2900 1911.06 2900ZM2660.09 2717.09 2959.1 2717.09 2959.1 2900 2660.09 2900ZM3408.11 2701.09 3708.12 2701.09 3708.12 2900 3408.11 2900ZM4157.14 2676.09 4456.15 2676.09 4456.15 2900 4157.14 2900ZM4905.16 2601.09 5205.17 2601.09 5205.17 2900 4905.16 2900Z" stroke="#000000" stroke-width="8.02083" stroke-linecap="butt" stroke-linejoin="round" stroke-miterlimit="10" stroke-opacity="1" fill="#156082" fill-rule="nonzero" fill-opacity="1"/></g><g><path d="M1911.06 2543.08 2211.07 2543.08 2211.07 2751.09 1911.06 2751.09ZM2660.09 2477.08 2959.1 2477.08 2959.1 2717.09 2660.09 2717.09ZM3408.11 2382.08 3708.12 2382.08 3708.12 2701.09 3408.11 2701.09ZM4157.14 2319.08 4456.15 2319.08 4456.15 2676.09 4157.14 2676.09ZM4905.16 2103.07 5205.17 2103.07 5205.17 2601.09 4905.16 2601.09Z" stroke="#000000" stroke-width="8.02083" stroke-linecap="butt" stroke-linejoin="round" stroke-miterlimit="10" stroke-opacity="1" fill="#E97132" fill-rule="nonzero" fill-opacity="1"/></g><g><path d="M1911.06 2327.08 2211.07 2327.08 2211.07 2543.08 1911.06 2543.08ZM2660.09 2144.07 2959.1 2144.07 2959.1 2477.08 2660.09 2477.08ZM3408.11 2017.07 3708.12 2017.07 3708.12 2382.08 3408.11 2382.08ZM4157.14 1917.06 4456.15 1917.06 4456.15 2319.08 4157.14 2319.08ZM4905.16 1007.03 5205.17 1007.03 5205.17 2103.07 4905.16 2103.07Z" stroke="#000000" stroke-width="8.02083" stroke-linecap="butt" stroke-linejoin="round" stroke-miterlimit="10" stroke-opacity="1" fill="#196B24" fill-rule="nonzero" fill-opacity="1"/></g><g><path d="M1686.5 2900.5 5429.5 2900.5" stroke="#D9D9D9" stroke-width="3.4375" stroke-linecap="butt" stroke-linejoin="round" stroke-miterlimit="10" stroke-opacity="1" fill="none" fill-rule="evenodd"/></g><g><text fill="#000000" fill-opacity="1" font-family="Aptos Narrow,Aptos Narrow_MSFontService,sans-serif" font-style="normal" font-variant="normal" font-weight="400" font-stretch="semi-condensed" font-size="110" text-anchor="start" direction="ltr" writing-mode="lr-tb" unicode-bidi="normal" text-decoration="none" transform="matrix(1 0 0 1 1529.59 2933)">0</text></g><g><text fill="#000000" fill-opacity="1" font-family="Aptos Narrow,Aptos Narrow_MSFontService,sans-serif" font-style="normal" font-variant="normal" font-weight="400" font-stretch="semi-condensed" font-size="110" text-anchor="start" direction="ltr" writing-mode="lr-tb" unicode-bidi="normal" text-decoration="none" transform="matrix(1 0 0 1 1418.08 2601)">200</text></g><g><text fill="#000000" fill-opacity="1" font-family="Aptos Narrow,Aptos Narrow_MSFontService,sans-serif" font-style="normal" font-variant="normal" font-weight="400" font-stretch="semi-condensed" font-size="110" text-anchor="start" direction="ltr" writing-mode="lr-tb" unicode-bidi="normal" text-decoration="none" transform="matrix(1 0 0 1 1418.08 2268)">400</text></g><g><text fill="#000000" fill-opacity="1" font-family="Aptos Narrow,Aptos Narrow_MSFontService,sans-serif" font-style="normal" font-variant="normal" font-weight="400" font-stretch="semi-condensed" font-size="110" text-anchor="start" direction="ltr" writing-mode="lr-tb" unicode-bidi="normal" text-decoration="none" transform="matrix(1 0 0 1 1418.08 1936)">600</text></g><g><text fill="#000000" fill-opacity="1" font-family="Aptos Narrow,Aptos Narrow_MSFontService,sans-serif" font-style="normal" font-variant="normal" font-weight="400" font-stretch="semi-condensed" font-size="110" text-anchor="start" direction="ltr" writing-mode="lr-tb" unicode-bidi="normal" text-decoration="none" transform="matrix(1 0 0 1 1418.08 1604)">800</text></g><g><text fill="#000000" fill-opacity="1" font-family="Aptos Narrow,Aptos Narrow_MSFontService,sans-serif" font-style="normal" font-variant="normal" font-weight="400" font-stretch="semi-condensed" font-size="110" text-anchor="start" direction="ltr" writing-mode="lr-tb" unicode-bidi="normal" text-decoration="none" transform="matrix(1 0 0 1 1362.32 1272)">1000</text></g><g><text fill="#000000" fill-opacity="1" font-family="Aptos Narrow,Aptos Narrow_MSFontService,sans-serif" font-style="normal" font-variant="normal" font-weight="400" font-stretch="semi-condensed" font-size="110" text-anchor="start" direction="ltr" writing-mode="lr-tb" unicode-bidi="normal" text-decoration="none" transform="matrix(1 0 0 1 1362.32 940)">1200</text></g><g><text fill="#000000" fill-opacity="1" font-family="Aptos Narrow,Aptos Narrow_MSFontService,sans-serif" font-style="normal" font-variant="normal" font-weight="400" font-stretch="semi-condensed" font-size="110" text-anchor="start" direction="ltr" writing-mode="lr-tb" unicode-bidi="normal" text-decoration="none" transform="matrix(1 0 0 1 1908.87 3072)">Rocket</text></g><g><text fill="#000000" fill-opacity="1" font-family="Aptos Narrow,Aptos Narrow_MSFontService,sans-serif" font-style="normal" font-variant="normal" font-weight="400" font-stretch="semi-condensed" font-size="110" text-anchor="start" direction="ltr" writing-mode="lr-tb" unicode-bidi="normal" text-decoration="none" transform="matrix(1 0 0 1 2537.53 3072)">QuadRocket</text></g><g><text fill="#000000" fill-opacity="1" font-family="Aptos Narrow,Aptos Narrow_MSFontService,sans-serif" font-style="normal" font-variant="normal" font-weight="400" font-stretch="semi-condensed" font-size="110" text-anchor="start" direction="ltr" writing-mode="lr-tb" unicode-bidi="normal" text-decoration="none" transform="matrix(1 0 0 1 3204.87 3072)">GemminiRocket</text></g><g><text fill="#000000" fill-opacity="1" font-family="Aptos Narrow,Aptos Narrow_MSFontService,sans-serif" font-style="normal" font-variant="normal" font-weight="400" font-stretch="semi-condensed" font-size="110" text-anchor="start" direction="ltr" writing-mode="lr-tb" unicode-bidi="normal" text-decoration="none" transform="matrix(1 0 0 1 4057.31 3072)">LargeBoom</text></g><g><text fill="#000000" fill-opacity="1" font-family="Aptos Narrow,Aptos Narrow_MSFontService,sans-serif" font-style="normal" font-variant="normal" font-weight="400" font-stretch="semi-condensed" font-size="110" text-anchor="start" direction="ltr" writing-mode="lr-tb" unicode-bidi="normal" text-decoration="none" transform="matrix(1 0 0 1 4685.98 3072)">QuadLargeBoom</text></g><g><text fill="#000000" fill-opacity="1" font-family="Aptos Narrow,Aptos Narrow_MSFontService,sans-serif" font-style="normal" font-variant="normal" font-weight="400" font-stretch="semi-condensed" font-size="110" text-anchor="start" direction="ltr" writing-mode="lr-tb" unicode-bidi="normal" text-decoration="none" transform="matrix(6.12323e-17 -1 1 6.12323e-17 1317.32 2275)">Compile Time (s)</text></g><g><rect x="2331" y="1025" width="80" height="80.9998" stroke="#000000" stroke-width="8.02083" stroke-linecap="butt" stroke-linejoin="round" stroke-miterlimit="10" stroke-opacity="1" fill="#156082" fill-opacity="1"/></g><g><text fill="#000000" fill-opacity="1" font-family="Aptos Narrow,Aptos Narrow_MSFontService,sans-serif" font-style="normal" font-variant="normal" font-weight="400" font-stretch="semi-condensed" font-size="147" text-anchor="start" direction="ltr" writing-mode="lr-tb" unicode-bidi="normal" text-decoration="none" transform="matrix(1 0 0 1 2449.75 1110)">SFC</text></g><g><rect x="2839" y="1025" width="80" height="80.9998" stroke="#000000" stroke-width="8.02083" stroke-linecap="butt" stroke-linejoin="round" stroke-miterlimit="10" stroke-opacity="1" fill="#E97132" fill-opacity="1"/></g><g><text fill="#000000" fill-opacity="1" font-family="Aptos Narrow,Aptos Narrow_MSFontService,sans-serif" font-style="normal" font-variant="normal" font-weight="400" font-stretch="semi-condensed" font-size="147" text-anchor="start" direction="ltr" writing-mode="lr-tb" unicode-bidi="normal" text-decoration="none" transform="matrix(1 0 0 1 2957.89 1110)">MFC</text></g><g><rect x="3377" y="1025" width="80" height="80.9998" stroke="#000000" stroke-width="8.02083" stroke-linecap="butt" stroke-linejoin="round" stroke-miterlimit="10" stroke-opacity="1" fill="#196B24" fill-opacity="1"/></g><g><text fill="#000000" fill-opacity="1" font-family="Aptos Narrow,Aptos Narrow_MSFontService,sans-serif" font-style="normal" font-variant="normal" font-weight="400" font-stretch="semi-condensed" font-size="147" text-anchor="start" direction="ltr" writing-mode="lr-tb" unicode-bidi="normal" text-decoration="none" transform="matrix(1 0 0 1 3495.82 1110)">Verilator (8 threads)</text></g><rect x="1157.5" y="817.5" width="4323" height="2548" stroke="#FFFFFF" stroke-width="3.4375" stroke-linecap="butt" stroke-linejoin="round" stroke-miterlimit="10" stroke-opacity="1" fill="none"/></g></g></svg>