<svg width="1577" height="1458" xmlns="http://www.w3.org/2000/svg" xmlns:xlink="http://www.w3.org/1999/xlink" xml:space="preserve" overflow="hidden"><g transform="translate(-2442 -155)"><g><rect x="2794.5" y="161.5" width="874" height="343" stroke="#000000" stroke-width="6.875" stroke-linecap="butt" stroke-linejoin="miter" stroke-miterlimit="8" stroke-opacity="1" fill="none"/><text fill="#000000" fill-opacity="1" font-family="Aptos,Aptos_MSFontService,sans-serif" font-style="normal" font-variant="normal" font-weight="400" font-stretch="normal" font-size="83" text-anchor="start" direction="ltr" writing-mode="lr-tb" unicode-bidi="normal" text-decoration="none" transform="matrix(1 0 0 1 2919.94 359)">Software Profiling</text><rect x="2794.5" y="716.5" width="874" height="343" stroke="#000000" stroke-width="6.875" stroke-linecap="butt" stroke-linejoin="miter" stroke-miterlimit="8" stroke-opacity="1" fill="none"/><text fill="#000000" fill-opacity="1" font-family="Aptos,Aptos_MSFontService,sans-serif" font-style="normal" font-variant="normal" font-weight="400" font-stretch="normal" font-size="83" text-anchor="start" direction="ltr" writing-mode="lr-tb" unicode-bidi="normal" text-decoration="none" transform="matrix(1 0 0 1 3035.6 864)">RTL Design</text><text fill="#000000" fill-opacity="1" font-family="Aptos,Aptos_MSFontService,sans-serif" font-style="normal" font-variant="normal" font-weight="400" font-stretch="normal" font-size="83" text-anchor="start" direction="ltr" writing-mode="lr-tb" unicode-bidi="normal" text-decoration="none" transform="matrix(1 0 0 1 2995.09 963)">(Simulations)</text><rect x="2794.5" y="1266.5" width="874" height="343" stroke="#000000" stroke-width="6.875" stroke-linecap="butt" stroke-linejoin="miter" stroke-miterlimit="8" stroke-opacity="1" fill="none"/><text fill="#000000" fill-opacity="1" font-family="Aptos,Aptos_MSFontService,sans-serif" font-style="normal" font-variant="normal" font-weight="400" font-stretch="normal" font-size="83" text-anchor="start" direction="ltr" writing-mode="lr-tb" unicode-bidi="normal" text-decoration="none" transform="matrix(1 0 0 1 2974.94 1464)">Backend Tools</text><path d="M3236.16 509 3236.16 690.521 3225.84 690.521 3225.84 509ZM3246.47 685.365 3231 716.302 3215.53 685.365Z" fill="#196B24" fill-rule="nonzero" fill-opacity="1"/><path d="M3236.16 1059 3236.16 1240.52 3225.84 1240.52 3225.84 1059ZM3246.47 1235.36 3231 1266.3 3215.53 1235.36Z" fill="#196B24" fill-rule="nonzero" fill-opacity="1"/><path d="M2794.5 760.13 2709.03 795.205 2709.03 767.486C2556.89 783.564 2450.5 840.058 2450.5 904.771L2450.5 898.948C2450.5 834.235 2556.89 777.741 2709.03 761.663L2709.03 733.944Z" fill="#FF0000" fill-rule="evenodd" fill-opacity="1"/><path d="M2450.57 901.859C2454.42 978.983 2607.27 1040.68 2794.5 1040.68L2794.5 1046.5C2604.51 1046.5 2450.5 983.046 2450.5 904.771 2450.5 903.8 2450.52 902.83 2450.57 901.859Z" fill="#CD0000" fill-rule="evenodd" fill-opacity="1"/><path d="M2450.57 901.859C2454.42 978.983 2607.27 1040.68 2794.5 1040.68L2794.5 1046.5C2604.51 1046.5 2450.5 983.046 2450.5 904.771L2450.5 898.948C2450.5 834.235 2556.89 777.741 2709.03 761.663L2709.03 733.944 2794.5 760.13 2709.03 795.205 2709.03 767.486C2556.89 783.564 2450.5 840.058 2450.5 904.771" stroke="#C00000" stroke-width="6.875" stroke-linecap="butt" stroke-linejoin="miter" stroke-miterlimit="8" stroke-opacity="1" fill="none" fill-rule="evenodd"/><path d="M2794.5 1297.23 2708.76 1332.44 2708.76 1304.63C2556.75 1320.8 2450.5 1377.45 2450.5 1442.32L2450.5 1436.48C2450.5 1371.61 2556.75 1314.96 2708.76 1298.79L2708.76 1270.99Z" fill="#FF0000" fill-rule="evenodd" fill-opacity="1"/><path d="M2450.57 1439.4C2454.42 1516.77 2607.27 1578.66 2794.5 1578.66L2794.5 1584.5C2604.51 1584.5 2450.5 1520.85 2450.5 1442.32 2450.5 1441.35 2450.52 1440.38 2450.57 1439.4Z" fill="#CD0000" fill-rule="evenodd" fill-opacity="1"/><path d="M2450.57 1439.4C2454.42 1516.77 2607.27 1578.66 2794.5 1578.66L2794.5 1584.5C2604.51 1584.5 2450.5 1520.85 2450.5 1442.32L2450.5 1436.48C2450.5 1371.61 2556.75 1314.96 2708.76 1298.79L2708.76 1270.99 2794.5 1297.23 2708.76 1332.44 2708.76 1304.63C2556.75 1320.8 2450.5 1377.45 2450.5 1442.32" stroke="#C00000" stroke-width="6.875" stroke-linecap="butt" stroke-linejoin="miter" stroke-miterlimit="8" stroke-opacity="1" fill="none" fill-rule="evenodd"/><path d="M544.761 344 501.494 251.255 531.574 251.255C498.832 102.7 392.241 0.000359457 270.801 0.000359457L277.12 0C398.561 0 505.152 102.7 537.893 251.254L567.972 251.255Z" fill="#F6C6AD" fill-rule="evenodd" fill-opacity="1" transform="matrix(-6.12323e-17 -1 -1 6.12323e-17 4015.5 1437.5)"/><path d="M273.96 0.0233881C125.644 2.22183 6.31892 155.58 6.31892 344L0 344C-3.67936e-14 154.014 121.242-7.35872e-14 270.801-7.35872e-14 271.854 0 272.908 0.00780558 273.961 0.0234163Z" fill="#C69F8B" fill-rule="evenodd" fill-opacity="1" transform="matrix(-6.12323e-17 -1 -1 6.12323e-17 4015.5 1437.5)"/><path d="M273.96 0.0233881C125.644 2.22183 6.31892 155.58 6.31892 344L0 344C-3.67936e-14 154.014 121.242-7.35872e-14 270.801-7.35872e-14L277.12 0C398.561 0 505.152 102.7 537.893 251.254L567.972 251.255 544.761 344 501.494 251.255 531.574 251.255C498.832 102.7 392.241 0.000359457 270.801 0.000359457" stroke="#E97132" stroke-width="6.875" stroke-linecap="butt" stroke-linejoin="miter" stroke-miterlimit="8" stroke-opacity="1" fill="none" fill-rule="evenodd" transform="matrix(-6.12323e-17 -1 -1 6.12323e-17 4015.5 1437.5)"/></g></g></svg>