<svg width="1576" height="2002" xmlns="http://www.w3.org/2000/svg" xmlns:xlink="http://www.w3.org/1999/xlink" xml:space="preserve" overflow="hidden"><g transform="translate(36 -110)"><g><rect x="312.5" y="113.5" width="874" height="343" stroke="#000000" stroke-width="6.875" stroke-linecap="butt" stroke-linejoin="miter" stroke-miterlimit="8" stroke-opacity="1" fill="none"/><text fill="#000000" fill-opacity="1" font-family="Aptos,Aptos_MSFontService,sans-serif" font-style="normal" font-variant="normal" font-weight="400" font-stretch="normal" font-size="83" text-anchor="start" direction="ltr" writing-mode="lr-tb" unicode-bidi="normal" text-decoration="none" transform="matrix(1 0 0 1 438.068 311)">Software Profiling</text><rect x="312.5" y="663.5" width="874" height="343" stroke="#000000" stroke-width="6.875" stroke-linecap="butt" stroke-linejoin="miter" stroke-miterlimit="8" stroke-opacity="1" fill="none"/><text fill="#000000" fill-opacity="1" font-family="Aptos,Aptos_MSFontService,sans-serif" font-style="normal" font-variant="normal" font-weight="400" font-stretch="normal" font-size="83" text-anchor="start" direction="ltr" writing-mode="lr-tb" unicode-bidi="normal" text-decoration="none" transform="matrix(1 0 0 1 348.155 811)">Performance Modeling</text><text fill="#000000" fill-opacity="1" font-family="Aptos,Aptos_MSFontService,sans-serif" font-style="normal" font-variant="normal" font-weight="400" font-stretch="normal" font-size="83" text-anchor="start" direction="ltr" writing-mode="lr-tb" unicode-bidi="normal" text-decoration="none" transform="matrix(1 0 0 1 513.224 910)">(Simulations)</text><rect x="312.5" y="1213.5" width="874" height="343" stroke="#000000" stroke-width="6.875" stroke-linecap="butt" stroke-linejoin="miter" stroke-miterlimit="8" stroke-opacity="1" fill="none"/><text fill="#000000" fill-opacity="1" font-family="Aptos,Aptos_MSFontService,sans-serif" font-style="normal" font-variant="normal" font-weight="400" font-stretch="normal" font-size="83" text-anchor="start" direction="ltr" writing-mode="lr-tb" unicode-bidi="normal" text-decoration="none" transform="matrix(1 0 0 1 553.729 1361)">RTL Design</text><text fill="#000000" fill-opacity="1" font-family="Aptos,Aptos_MSFontService,sans-serif" font-style="normal" font-variant="normal" font-weight="400" font-stretch="normal" font-size="83" text-anchor="start" direction="ltr" writing-mode="lr-tb" unicode-bidi="normal" text-decoration="none" transform="matrix(1 0 0 1 513.212 1460)">(Simulations)</text><rect x="312.5" y="1763.5" width="874" height="343" stroke="#000000" stroke-width="6.875" stroke-linecap="butt" stroke-linejoin="miter" stroke-miterlimit="8" stroke-opacity="1" fill="none"/><text fill="#000000" fill-opacity="1" font-family="Aptos,Aptos_MSFontService,sans-serif" font-style="normal" font-variant="normal" font-weight="400" font-stretch="normal" font-size="83" text-anchor="start" direction="ltr" writing-mode="lr-tb" unicode-bidi="normal" text-decoration="none" transform="matrix(1 0 0 1 493.068 1961)">Backend Tools</text><path d="M754.156 456 754.157 637.517 743.844 637.517 743.844 456ZM764.469 632.361 749 663.299 733.532 632.361Z" fill="#196B24" fill-rule="nonzero" fill-opacity="1"/><path d="M754.156 1006 754.157 1187.52 743.844 1187.52 743.844 1006ZM764.469 1182.36 749 1213.3 733.532 1182.37Z" fill="#196B24" fill-rule="nonzero" fill-opacity="1"/><path d="M754.156 1556 754.157 1737.52 743.844 1737.52 743.844 1556ZM764.469 1732.36 749 1763.3 733.532 1732.36Z" fill="#196B24" fill-rule="nonzero" fill-opacity="1"/><path d="M312.5 1257.13 227.034 1292.2 227.034 1264.49C74.8898 1280.56-31.5003 1337.06-31.5003 1401.77L-31.5003 1395.95C-31.5003 1331.24 74.8897 1274.74 227.034 1258.66L227.034 1230.94Z" fill="#FF0000" fill-rule="evenodd" fill-opacity="1"/><path d="M-31.4277 1398.86C-27.5812 1475.98 125.268 1537.68 312.5 1537.68L312.5 1543.5C122.514 1543.5-31.5003 1480.05-31.5003 1401.77-31.5003 1400.8-31.4761 1399.83-31.4277 1398.86Z" fill="#CD0000" fill-rule="evenodd" fill-opacity="1"/><path d="M-31.4277 1398.86C-27.5812 1475.98 125.268 1537.68 312.5 1537.68L312.5 1543.5C122.514 1543.5-31.5003 1480.05-31.5003 1401.77L-31.5003 1395.95C-31.5003 1331.24 74.8897 1274.74 227.034 1258.66L227.034 1230.94 312.5 1257.13 227.034 1292.2 227.034 1264.49C74.8898 1280.56-31.5003 1337.06-31.5003 1401.77" stroke="#C00000" stroke-width="6.875" stroke-linecap="butt" stroke-linejoin="miter" stroke-miterlimit="8" stroke-opacity="1" fill="none" fill-rule="evenodd"/><path d="M312.5 1794.23 226.764 1829.44 226.764 1801.63C74.7523 1817.8-31.5001 1874.45-31.5001 1939.32L-31.5001 1933.48C-31.5001 1868.61 74.7523 1811.96 226.764 1795.79L226.764 1767.99Z" fill="#FF0000" fill-rule="evenodd" fill-opacity="1"/><path d="M-31.4275 1936.4C-27.581 2013.77 125.268 2075.66 312.5 2075.66L312.5 2081.5C122.514 2081.5-31.5001 2017.85-31.5001 1939.32-31.5001 1938.35-31.4759 1937.38-31.4275 1936.4Z" fill="#CD0000" fill-rule="evenodd" fill-opacity="1"/><path d="M-31.4275 1936.4C-27.581 2013.77 125.268 2075.66 312.5 2075.66L312.5 2081.5C122.514 2081.5-31.5001 2017.85-31.5001 1939.32L-31.5001 1933.48C-31.5001 1868.61 74.7523 1811.96 226.764 1795.79L226.764 1767.99 312.5 1794.23 226.764 1829.44 226.764 1801.63C74.7523 1817.8-31.5001 1874.45-31.5001 1939.32" stroke="#C00000" stroke-width="6.875" stroke-linecap="butt" stroke-linejoin="miter" stroke-miterlimit="8" stroke-opacity="1" fill="none" fill-rule="evenodd"/><path d="M312.5 689.227 226.764 724.44 226.764 696.634C74.7523 712.803-31.5001 769.45-31.5001 834.324L-31.5001 828.482C-31.5001 763.608 74.7523 706.961 226.764 690.793L226.764 662.987Z" fill="#FF0000" fill-rule="evenodd" fill-opacity="1"/><path d="M-31.4275 831.403C-27.581 908.77 125.268 970.658 312.5 970.658L312.5 976.5C122.514 976.5-31.5001 912.846-31.5001 834.324-31.5001 833.35-31.4759 832.377-31.4275 831.403Z" fill="#CD0000" fill-rule="evenodd" fill-opacity="1"/><path d="M-31.4275 831.403C-27.581 908.77 125.268 970.658 312.5 970.658L312.5 976.5C122.514 976.5-31.5001 912.846-31.5001 834.324L-31.5001 828.482C-31.5001 763.608 74.7523 706.961 226.764 690.793L226.764 662.987 312.5 689.227 226.764 724.44 226.764 696.634C74.7523 712.803-31.5001 769.45-31.5001 834.324" stroke="#C00000" stroke-width="6.875" stroke-linecap="butt" stroke-linejoin="miter" stroke-miterlimit="8" stroke-opacity="1" fill="none" fill-rule="evenodd"/><path d="M544.761 344 501.494 251.255 531.574 251.255C498.832 102.7 392.241 0.000359457 270.801 0.000359457L277.12 0C398.561 0 505.152 102.7 537.893 251.254L567.972 251.255Z" fill="#F6C6AD" fill-rule="evenodd" fill-opacity="1" transform="matrix(-6.12323e-17 -1 -1 6.12323e-17 1533.5 1934.5)"/><path d="M273.96 0.023388C125.644 2.22183 6.31892 155.58 6.31892 344L0 344C-3.67936e-14 154.014 121.242-7.35872e-14 270.801-7.35872e-14 271.854 0 272.908 0.00780557 273.961 0.0234163Z" fill="#C69F8B" fill-rule="evenodd" fill-opacity="1" transform="matrix(-6.12323e-17 -1 -1 6.12323e-17 1533.5 1934.5)"/><path d="M273.96 0.023388C125.644 2.22183 6.31892 155.58 6.31892 344L0 344C-3.67936e-14 154.014 121.242-7.35872e-14 270.801-7.35872e-14L277.12 0C398.561 0 505.152 102.7 537.893 251.254L567.972 251.255 544.761 344 501.494 251.255 531.574 251.255C498.832 102.7 392.241 0.000359457 270.801 0.000359457" stroke="#E97132" stroke-width="6.875" stroke-linecap="butt" stroke-linejoin="miter" stroke-miterlimit="8" stroke-opacity="1" fill="none" fill-rule="evenodd" transform="matrix(-6.12323e-17 -1 -1 6.12323e-17 1533.5 1934.5)"/><path d="M544.664 345 501.303 251.984 531.47 251.984C498.734 102.998 392.165 2.40772e-05 270.748 2.40772e-05L277.085 0C398.502 0 505.072 102.998 537.807 251.984L567.974 251.984Z" fill="#F6C6AD" fill-rule="evenodd" fill-opacity="1" transform="matrix(-6.12323e-17 -1 -1 6.12323e-17 1531.5 1356.5)"/><path d="M273.917 0.023388C125.633 2.23501 6.33758 156.036 6.33758 345L0 345C-3.67935e-14 154.462 121.218-7.35871e-14 270.748-7.35871e-14 271.804-1.47174e-13 272.86 0.00787692 273.917 0.0236303Z" fill="#C69F8B" fill-rule="evenodd" fill-opacity="1" transform="matrix(-6.12323e-17 -1 -1 6.12323e-17 1531.5 1356.5)"/><path d="M273.917 0.023388C125.633 2.23501 6.33758 156.036 6.33758 345L0 345C-3.67935e-14 154.462 121.218-7.35871e-14 270.748-7.35871e-14L277.085 0C398.502 0 505.072 102.998 537.807 251.984L567.974 251.984 544.664 345 501.303 251.984 531.47 251.984C498.734 102.998 392.165 2.40772e-05 270.748 2.40772e-05" stroke="#E97132" stroke-width="6.875" stroke-linecap="butt" stroke-linejoin="miter" stroke-miterlimit="8" stroke-opacity="1" fill="none" fill-rule="evenodd" transform="matrix(-6.12323e-17 -1 -1 6.12323e-17 1531.5 1356.5)"/></g></g></svg>