<svg width="1825" height="1036" xmlns="http://www.w3.org/2000/svg" xmlns:xlink="http://www.w3.org/1999/xlink" xml:space="preserve" overflow="hidden"><g transform="translate(-2442 -829)"><g><path d="M0 0 554.142 0.000360892" stroke="#7F7F7F" stroke-width="18.3333" stroke-linecap="butt" stroke-linejoin="miter" stroke-miterlimit="8" stroke-opacity="1" fill="none" fill-rule="evenodd" transform="matrix(-1 0 0 1 3883.14 1161)"/><path d="M0 0 540.393 0.000360892" stroke="#7F7F7F" stroke-width="18.3333" stroke-linecap="butt" stroke-linejoin="miter" stroke-miterlimit="8" stroke-opacity="1" fill="none" fill-rule="evenodd" transform="matrix(-1 0 0 1 3882.39 1546)"/><path d="M2556.5 962.442C2556.5 942.592 2572.59 926.5 2592.44 926.5L3307.56 926.5C3327.41 926.5 3343.5 942.592 3343.5 962.442L3343.5 1716.56C3343.5 1736.41 3327.41 1752.5 3307.56 1752.5L2592.44 1752.5C2572.59 1752.5 2556.5 1736.41 2556.5 1716.56Z" stroke="#D0CECE" stroke-width="4.58333" stroke-linecap="butt" stroke-linejoin="miter" stroke-miterlimit="8" stroke-opacity="1" fill="#7F7F7F" fill-rule="evenodd" fill-opacity="1"/><text fill="#FFFFFF" fill-opacity="1" font-family="Calibri,Calibri_MSFontService,sans-serif" font-style="normal" font-variant="normal" font-weight="400" font-stretch="normal" font-size="147" text-anchor="start" direction="ltr" writing-mode="lr-tb" unicode-bidi="normal" text-decoration="none" transform="matrix(1 0 0 1 2626.91 1388)">RTL Design</text><path d="M2458 888.985C2458 864.14 2478.14 844 2502.99 844L3398.02 844C3422.86 844 3443 864.14 3443 888.985L3443 1796.02C3443 1820.86 3422.86 1841 3398.02 1841L2502.99 1841C2478.14 1841 2458 1820.86 2458 1796.02Z" stroke="#7F7F7F" stroke-width="21.7708" stroke-linecap="butt" stroke-linejoin="miter" stroke-miterlimit="8" stroke-opacity="1" fill="none" fill-rule="evenodd"/><path d="M3862.5 879.859C3862.5 869.72 3870.72 861.5 3880.86 861.5L4246.14 861.5C4256.28 861.5 4264.5 869.72 4264.5 879.859L4264.5 1840.14C4264.5 1850.28 4256.28 1858.5 4246.14 1858.5L3880.86 1858.5C3870.72 1858.5 3862.5 1850.28 3862.5 1840.14Z" stroke="#7F7F7F" stroke-width="4.58333" stroke-linecap="butt" stroke-linejoin="miter" stroke-miterlimit="8" stroke-opacity="1" fill="#7F7F7F" fill-rule="evenodd" fill-opacity="1"/><text fill="#FFFFFF" fill-opacity="1" font-family="Calibri,Calibri_MSFontService,sans-serif" font-style="normal" font-variant="normal" font-weight="400" font-stretch="normal" font-size="83" text-anchor="start" direction="ltr" writing-mode="lr-tb" unicode-bidi="normal" text-decoration="none" transform="matrix(1 0 0 1 3912.16 1189)">FASED[2]</text><text fill="#FFFFFF" fill-opacity="1" font-family="Calibri,Calibri_MSFontService,sans-serif" font-style="normal" font-variant="normal" font-weight="400" font-stretch="normal" font-size="83" text-anchor="start" direction="ltr" writing-mode="lr-tb" unicode-bidi="normal" text-decoration="none" transform="matrix(1 0 0 1 3956.25 1288)">DRAM</text><text fill="#FFFFFF" fill-opacity="1" font-family="Calibri,Calibri_MSFontService,sans-serif" font-style="normal" font-variant="normal" font-weight="400" font-stretch="normal" font-size="83" text-anchor="start" direction="ltr" writing-mode="lr-tb" unicode-bidi="normal" text-decoration="none" transform="matrix(1 0 0 1 3949.95 1387)">Timing</text><text fill="#FFFFFF" fill-opacity="1" font-family="Calibri,Calibri_MSFontService,sans-serif" font-style="normal" font-variant="normal" font-weight="400" font-stretch="normal" font-size="83" text-anchor="start" direction="ltr" writing-mode="lr-tb" unicode-bidi="normal" text-decoration="none" transform="matrix(1 0 0 1 3954.26 1486)">Model</text><text fill="#FFFFFF" fill-opacity="1" font-family="Calibri,Calibri_MSFontService,sans-serif" font-style="normal" font-variant="normal" font-weight="400" font-stretch="normal" font-size="83" text-anchor="start" direction="ltr" writing-mode="lr-tb" unicode-bidi="normal" text-decoration="none" transform="matrix(1 0 0 1 3959.11 1585)">(4 GB)</text><rect x="3480.5" y="1071.5" width="315" height="153" stroke="#424242" stroke-width="4.58333" stroke-linecap="butt" stroke-linejoin="miter" stroke-miterlimit="8" stroke-opacity="1" fill="#7F7F7F" fill-opacity="1"/><text fill="#FFFFFF" fill-opacity="1" font-family="Calibri,Calibri_MSFontService,sans-serif" font-style="normal" font-variant="normal" font-weight="400" font-stretch="normal" font-size="83" text-anchor="start" direction="ltr" writing-mode="lr-tb" unicode-bidi="normal" text-decoration="none" transform="matrix(1 0 0 1 3525.17 1175)">Queue</text><rect x="3489.5" y="1471.5" width="315" height="154" stroke="#424242" stroke-width="4.58333" stroke-linecap="butt" stroke-linejoin="miter" stroke-miterlimit="8" stroke-opacity="1" fill="#7F7F7F" fill-opacity="1"/><text fill="#FFFFFF" fill-opacity="1" font-family="Calibri,Calibri_MSFontService,sans-serif" font-style="normal" font-variant="normal" font-weight="400" font-stretch="normal" font-size="83" text-anchor="start" direction="ltr" writing-mode="lr-tb" unicode-bidi="normal" text-decoration="none" transform="matrix(1 0 0 1 3533.76 1575)">Queue</text></g></g></svg>