<svg width="1453" height="1008" xmlns="http://www.w3.org/2000/svg" xmlns:xlink="http://www.w3.org/1999/xlink" xml:space="preserve" overflow="hidden"><g transform="translate(-467 -834)"><g><path d="M471.5 882.293C471.5 858.659 490.659 839.5 514.293 839.5L1365.71 839.5C1389.34 839.5 1408.5 858.659 1408.5 882.293L1408.5 1792.71C1408.5 1816.34 1389.34 1835.5 1365.71 1835.5L514.293 1835.5C490.659 1835.5 471.5 1816.34 471.5 1792.71Z" stroke="#2F528F" stroke-width="4.58333" stroke-linecap="butt" stroke-linejoin="miter" stroke-miterlimit="8" stroke-opacity="1" fill="#424242" fill-rule="evenodd" fill-opacity="1"/><text fill="#FFFFFF" fill-opacity="1" font-family="Calibri,Calibri_MSFontService,sans-serif" font-style="normal" font-variant="normal" font-weight="400" font-stretch="normal" font-size="147" text-anchor="start" direction="ltr" writing-mode="lr-tb" unicode-bidi="normal" text-decoration="none" transform="matrix(1 0 0 1 616.739 1386)">RTL Design</text><path d="M1553.5 856.032C1553.5 846.902 1560.9 839.5 1570.03 839.5L1898.97 839.5C1908.1 839.5 1915.5 846.902 1915.5 856.032L1915.5 1818.97C1915.5 1828.1 1908.1 1835.5 1898.97 1835.5L1570.03 1835.5C1560.9 1835.5 1553.5 1828.1 1553.5 1818.97Z" stroke="#2F528F" stroke-width="4.58333" stroke-linecap="butt" stroke-linejoin="miter" stroke-miterlimit="8" stroke-opacity="1" fill="#424242" fill-rule="evenodd" fill-opacity="1"/><text fill="#FFFFFF" fill-opacity="1" font-family="Calibri,Calibri_MSFontService,sans-serif" font-style="normal" font-variant="normal" font-weight="400" font-stretch="normal" font-size="83" text-anchor="start" direction="ltr" writing-mode="lr-tb" unicode-bidi="normal" text-decoration="none" transform="matrix(1 0 0 1 1639.72 1265)">DDR3</text><text fill="#FFFFFF" fill-opacity="1" font-family="Calibri,Calibri_MSFontService,sans-serif" font-style="normal" font-variant="normal" font-weight="400" font-stretch="normal" font-size="83" text-anchor="start" direction="ltr" writing-mode="lr-tb" unicode-bidi="normal" text-decoration="none" transform="matrix(1 0 0 1 1627.11 1364)">DRAM</text><text fill="#FFFFFF" fill-opacity="1" font-family="Calibri,Calibri_MSFontService,sans-serif" font-style="normal" font-variant="normal" font-weight="400" font-stretch="normal" font-size="83" text-anchor="start" direction="ltr" writing-mode="lr-tb" unicode-bidi="normal" text-decoration="none" transform="matrix(1 0 0 1 1629.98 1463)">(4 GB)</text><path d="M0 0 202.814 0.000360892" stroke="#424242" stroke-width="18.3333" stroke-linecap="butt" stroke-linejoin="miter" stroke-miterlimit="8" stroke-opacity="1" fill="none" fill-rule="evenodd" transform="matrix(-1 0 0 1 1557.81 1148)"/><path d="M0 0 202.814 0.000360892" stroke="#424242" stroke-width="18.3333" stroke-linecap="butt" stroke-linejoin="miter" stroke-miterlimit="8" stroke-opacity="1" fill="none" fill-rule="evenodd" transform="matrix(-1 0 0 1 1566.81 1533)"/></g></g></svg>