<svg width="1631" height="930" xmlns="http://www.w3.org/2000/svg" xmlns:xlink="http://www.w3.org/1999/xlink" xml:space="preserve" overflow="hidden"><g transform="translate(-165 -1329)"><g><rect x="169.5" y="1333.5" width="456" height="176" stroke="#000000" stroke-width="6.875" stroke-linecap="butt" stroke-linejoin="miter" stroke-miterlimit="8" stroke-opacity="1" fill="#FBE3D6" fill-opacity="1"/><text fill="#000000" fill-opacity="1" font-family="Aptos,Aptos_MSFontService,sans-serif" font-style="normal" font-variant="normal" font-weight="400" font-stretch="normal" font-size="83" text-anchor="start" direction="ltr" writing-mode="lr-tb" unicode-bidi="normal" text-decoration="none" transform="matrix(1 0 0 1 243.242 1448)">A1.scala</text><rect x="698.5" y="1333.5" width="457" height="176" stroke="#000000" stroke-width="6.875" stroke-linecap="butt" stroke-linejoin="miter" stroke-miterlimit="8" stroke-opacity="1" fill="#DCEAF7" fill-opacity="1"/><text fill="#000000" fill-opacity="1" font-family="Aptos,Aptos_MSFontService,sans-serif" font-style="normal" font-variant="normal" font-weight="400" font-stretch="normal" font-size="83" text-anchor="start" direction="ltr" writing-mode="lr-tb" unicode-bidi="normal" text-decoration="none" transform="matrix(1 0 0 1 794.829 1448)">B.scala</text><rect x="169.5" y="1668.5" width="456" height="156" stroke="#000000" stroke-width="6.875" stroke-linecap="butt" stroke-linejoin="miter" stroke-miterlimit="8" stroke-opacity="1" fill="#F2AA84" fill-opacity="1"/><text fill="#000000" fill-opacity="1" font-family="Aptos,Aptos_MSFontService,sans-serif" font-style="normal" font-variant="normal" font-weight="400" font-stretch="normal" font-size="83" text-anchor="start" direction="ltr" writing-mode="lr-tb" unicode-bidi="normal" text-decoration="none" transform="matrix(1 0 0 1 245.694 1772)">A1.class</text><rect x="698.5" y="1668.5" width="457" height="156" stroke="#000000" stroke-width="6.875" stroke-linecap="butt" stroke-linejoin="miter" stroke-miterlimit="8" stroke-opacity="1" fill="#83CBEB" fill-opacity="1"/><text fill="#000000" fill-opacity="1" font-family="Aptos,Aptos_MSFontService,sans-serif" font-style="normal" font-variant="normal" font-weight="400" font-stretch="normal" font-size="83" text-anchor="start" direction="ltr" writing-mode="lr-tb" unicode-bidi="normal" text-decoration="none" transform="matrix(1 0 0 1 797.282 1772)">B.class</text><rect x="1251.5" y="1334.5" width="529" height="175" stroke="#000000" stroke-width="6.875" stroke-linecap="butt" stroke-linejoin="miter" stroke-miterlimit="8" stroke-opacity="1" fill="#DCEAF7" fill-opacity="1"/><text fill="#000000" fill-opacity="1" font-family="Aptos,Aptos_MSFontService,sans-serif" font-style="normal" font-variant="normal" font-weight="400" font-stretch="normal" font-size="83" text-anchor="start" direction="ltr" writing-mode="lr-tb" unicode-bidi="normal" text-decoration="none" transform="matrix(1 0 0 1 1284.16 1448)">Builder.scala</text><rect x="1251.5" y="1668.5" width="529" height="156" stroke="#000000" stroke-width="6.875" stroke-linecap="butt" stroke-linejoin="miter" stroke-miterlimit="8" stroke-opacity="1" fill="#83CBEB" fill-opacity="1"/><text fill="#000000" fill-opacity="1" font-family="Aptos,Aptos_MSFontService,sans-serif" font-style="normal" font-variant="normal" font-weight="400" font-stretch="normal" font-size="83" text-anchor="start" direction="ltr" writing-mode="lr-tb" unicode-bidi="normal" text-decoration="none" transform="matrix(1 0 0 1 1286.61 1772)">Builder.class</text><path d="M400.937 1509.5 400.938 1645.54 394.063 1645.54 394.062 1509.5ZM411.25 1640.95 397.5 1668.45 383.75 1640.95Z" fill="#156082" fill-rule="nonzero" fill-opacity="1"/><path d="M929.937 1509.5 929.938 1645.54 923.063 1645.54 923.062 1509.5ZM940.25 1640.95 926.501 1668.45 912.75 1640.95Z" fill="#156082" fill-rule="nonzero" fill-opacity="1"/><path d="M1518.94 1509.5 1518.94 1645.54 1512.06 1645.54 1512.06 1509.5ZM1529.25 1640.95 1515.5 1668.45 1501.75 1640.95Z" fill="#156082" fill-rule="nonzero" fill-opacity="1"/><path d="M3.4375-1.44902e-05 3.43849 233.927-3.43651 233.927-3.4375 1.44902e-05ZM13.751 229.343 0.00108268 256.844-13.749 229.344Z" fill="#156082" fill-rule="nonzero" fill-opacity="1" transform="matrix(-1 0 0 1 926.501 1824.5)"/><rect x="698.5" y="2080.5" width="457" height="156" stroke="#000000" stroke-width="6.875" stroke-linecap="butt" stroke-linejoin="miter" stroke-miterlimit="8" stroke-opacity="1" fill="#46B1E1" fill-opacity="1"/><text fill="#000000" fill-opacity="1" font-family="Aptos,Aptos_MSFontService,sans-serif" font-style="normal" font-variant="normal" font-weight="400" font-stretch="normal" font-size="83" text-anchor="start" direction="ltr" writing-mode="lr-tb" unicode-bidi="normal" text-decoration="none" transform="matrix(1 0 0 1 852.957 2185)">B.sv</text><rect x="169.5" y="2080.5" width="456" height="156" stroke="#000000" stroke-width="6.875" stroke-linecap="butt" stroke-linejoin="miter" stroke-miterlimit="8" stroke-opacity="1" fill="#C04F15" fill-opacity="1"/><text fill="#000000" fill-opacity="1" font-family="Aptos,Aptos_MSFontService,sans-serif" font-style="normal" font-variant="normal" font-weight="400" font-stretch="normal" font-size="83" text-anchor="start" direction="ltr" writing-mode="lr-tb" unicode-bidi="normal" text-decoration="none" transform="matrix(1 0 0 1 301.37 2185)">A1.sv</text><path d="M400.937 1828.5 400.938 2062.43 394.063 2062.43 394.062 1828.5ZM411.25 2057.84 397.5 2085.34 383.75 2057.84Z" fill="#156082" fill-rule="nonzero" fill-opacity="1"/><path d="M1519.05 1828.5 1519.05 1906.16 420.412 1906.16 420.412 1899.29 1515.62 1899.29 1512.18 1902.72 1512.18 1828.5ZM425 1916.47 397.5 1902.72 425 1888.97Z" fill="#156082" fill-rule="nonzero" fill-opacity="1"/></g></g></svg>