<svg width="1306" height="1966" xmlns="http://www.w3.org/2000/svg" xmlns:xlink="http://www.w3.org/1999/xlink" xml:space="preserve" overflow="hidden"><g transform="translate(-2452 -307)"><g><rect x="2456.5" y="313.5" width="337" height="384" stroke="#042433" stroke-width="6.875" stroke-linecap="butt" stroke-linejoin="miter" stroke-miterlimit="8" stroke-opacity="1" fill="#CAEEFB" fill-opacity="1"/><text fill="#000000" fill-opacity="1" font-family="Arial,Arial_MSFontService,sans-serif" font-style="normal" font-variant="normal" font-weight="400" font-stretch="normal" font-size="73" text-anchor="start" direction="ltr" writing-mode="lr-tb" unicode-bidi="normal" text-decoration="none" transform="matrix(1 0 0 1 2522.8 532)">A.java</text><rect x="2870.5" y="313.5" width="337" height="384" stroke="#042433" stroke-width="6.875" stroke-linecap="butt" stroke-linejoin="miter" stroke-miterlimit="8" stroke-opacity="1" fill="none"/><text fill="#000000" fill-opacity="1" font-family="Arial,Arial_MSFontService,sans-serif" font-style="normal" font-variant="normal" font-weight="400" font-stretch="normal" font-size="73" text-anchor="start" direction="ltr" writing-mode="lr-tb" unicode-bidi="normal" text-decoration="none" transform="matrix(1 0 0 1 2936.5 532)">B.java</text><rect x="2456.5" y="827.5" width="337" height="384" stroke="#042433" stroke-width="6.875" stroke-linecap="butt" stroke-linejoin="miter" stroke-miterlimit="8" stroke-opacity="1" fill="#CAEEFB" fill-opacity="1"/><text fill="#000000" fill-opacity="1" font-family="Arial,Arial_MSFontService,sans-serif" font-style="normal" font-variant="normal" font-weight="400" font-stretch="normal" font-size="73" text-anchor="start" direction="ltr" writing-mode="lr-tb" unicode-bidi="normal" text-decoration="none" transform="matrix(1 0 0 1 2569.49 1046)">A.ir</text><rect x="2870.5" y="827.5" width="337" height="384" stroke="#042433" stroke-width="6.875" stroke-linecap="butt" stroke-linejoin="miter" stroke-miterlimit="8" stroke-opacity="1" fill="none"/><text fill="#000000" fill-opacity="1" font-family="Arial,Arial_MSFontService,sans-serif" font-style="normal" font-variant="normal" font-weight="400" font-stretch="normal" font-size="73" text-anchor="start" direction="ltr" writing-mode="lr-tb" unicode-bidi="normal" text-decoration="none" transform="matrix(1 0 0 1 2983.19 1046)">B.ir</text><rect x="2456.5" y="1344.5" width="337" height="384" stroke="#042433" stroke-width="6.875" stroke-linecap="butt" stroke-linejoin="miter" stroke-miterlimit="8" stroke-opacity="1" fill="#CAEEFB" fill-opacity="1"/><text fill="#000000" fill-opacity="1" font-family="Arial,Arial_MSFontService,sans-serif" font-style="normal" font-variant="normal" font-weight="400" font-stretch="normal" font-size="73" text-anchor="start" direction="ltr" writing-mode="lr-tb" unicode-bidi="normal" text-decoration="none" transform="matrix(1 0 0 1 2532.83 1563)">A.syn</text><rect x="2870.5" y="1344.5" width="337" height="384" stroke="#042433" stroke-width="6.875" stroke-linecap="butt" stroke-linejoin="miter" stroke-miterlimit="8" stroke-opacity="1" fill="none"/><text fill="#000000" fill-opacity="1" font-family="Arial,Arial_MSFontService,sans-serif" font-style="normal" font-variant="normal" font-weight="400" font-stretch="normal" font-size="73" text-anchor="start" direction="ltr" writing-mode="lr-tb" unicode-bidi="normal" text-decoration="none" transform="matrix(1 0 0 1 2946.52 1563)">B.syn</text><path d="M2627.94 693.5 2627.94 803.899 2621.06 803.899 2621.06 693.5ZM2638.25 799.315 2624.5 826.815 2610.75 799.315Z" fill="#156082" fill-rule="nonzero" fill-opacity="1"/><path d="M3041.94 693.5 3041.94 803.899 3035.06 803.899 3035.06 693.5ZM3052.25 799.315 3038.5 826.815 3024.75 799.315Z" fill="#156082" fill-rule="nonzero" fill-opacity="1"/><path d="M3041.94 1211.5 3041.94 1321.9 3035.06 1321.9 3035.06 1211.5ZM3052.25 1317.32 3038.5 1344.82 3024.75 1317.32Z" fill="#156082" fill-rule="nonzero" fill-opacity="1"/><path d="M2627.94 1211.5 2627.94 1321.9 2621.06 1321.9 2621.06 1211.5ZM2638.25 1317.32 2624.5 1344.82 2610.75 1317.32Z" fill="#156082" fill-rule="nonzero" fill-opacity="1"/><rect x="2456.5" y="1886.5" width="337" height="383" stroke="#042433" stroke-width="6.875" stroke-linecap="butt" stroke-linejoin="miter" stroke-miterlimit="8" stroke-opacity="1" fill="#CAEEFB" fill-opacity="1"/><text fill="#000000" fill-opacity="1" font-family="Arial,Arial_MSFontService,sans-serif" font-style="normal" font-variant="normal" font-weight="400" font-stretch="normal" font-size="73" text-anchor="start" direction="ltr" writing-mode="lr-tb" unicode-bidi="normal" text-decoration="none" transform="matrix(1 0 0 1 2536.84 2104)">A.pnr</text><rect x="2870.5" y="1886.5" width="337" height="383" stroke="#042433" stroke-width="6.875" stroke-linecap="butt" stroke-linejoin="miter" stroke-miterlimit="8" stroke-opacity="1" fill="none"/><text fill="#000000" fill-opacity="1" font-family="Arial,Arial_MSFontService,sans-serif" font-style="normal" font-variant="normal" font-weight="400" font-stretch="normal" font-size="73" text-anchor="start" direction="ltr" writing-mode="lr-tb" unicode-bidi="normal" text-decoration="none" transform="matrix(1 0 0 1 2950.53 2104)">B.pnr</text><path d="M3041.94 1728.5 3041.94 1863.41 3035.06 1863.41 3035.06 1728.5ZM3052.25 1858.83 3038.5 1886.33 3024.75 1858.83Z" fill="#156082" fill-rule="nonzero" fill-opacity="1"/><path d="M2627.94 1728.5 2627.94 1863.41 2621.06 1863.41 2621.06 1728.5ZM2638.25 1858.83 2624.5 1886.33 2610.75 1858.83Z" fill="#156082" fill-rule="nonzero" fill-opacity="1"/><path d="M3207.5 313.5C3238.7 313.5 3264 317.716 3264 322.916L3264 495.596C3264 500.797 3289.3 505.013 3320.5 505.013 3289.3 505.013 3264 509.228 3264 514.429L3264 684.083C3264 689.284 3238.7 693.5 3207.5 693.5" stroke="#156082" stroke-width="6.875" stroke-linecap="butt" stroke-linejoin="miter" stroke-miterlimit="8" stroke-opacity="1" fill="none" fill-rule="evenodd"/><text fill="#000000" fill-opacity="1" font-family="Arial,Arial_MSFontService,sans-serif" font-style="normal" font-variant="normal" font-weight="400" font-stretch="normal" font-size="83" text-anchor="start" direction="ltr" writing-mode="lr-tb" unicode-bidi="normal" text-decoration="none" transform="matrix(1 0 0 1 3377.53 1836)">Backend</text><path d="M3207.5 827.5C3238.7 827.5 3264 831.716 3264 836.916L3264 1011.61C3264 1016.81 3289.3 1021.03 3320.5 1021.03 3289.3 1021.03 3264 1025.24 3264 1030.44L3264 1202.08C3264 1207.28 3238.7 1211.5 3207.5 1211.5" stroke="#156082" stroke-width="6.875" stroke-linecap="butt" stroke-linejoin="miter" stroke-miterlimit="8" stroke-opacity="1" fill="none" fill-rule="evenodd"/><text fill="#000000" fill-opacity="1" font-family="Arial,Arial_MSFontService,sans-serif" font-style="normal" font-variant="normal" font-weight="400" font-stretch="normal" font-size="83" text-anchor="start" direction="ltr" writing-mode="lr-tb" unicode-bidi="normal" text-decoration="none" transform="matrix(1 0 0 1 3377.53 1049)">IR</text><path d="M3207.5 1344.5C3238.7 1344.5 3264 1348.72 3264 1353.92L3264 1801.27C3264 1806.47 3289.3 1810.68 3320.5 1810.68 3289.3 1810.68 3264 1814.9 3264 1820.1L3264 2260.08C3264 2265.28 3238.7 2269.5 3207.5 2269.5" stroke="#156082" stroke-width="6.875" stroke-linecap="butt" stroke-linejoin="miter" stroke-miterlimit="8" stroke-opacity="1" fill="none" fill-rule="evenodd"/><text fill="#000000" fill-opacity="1" font-family="Arial,Arial_MSFontService,sans-serif" font-style="normal" font-variant="normal" font-weight="400" font-stretch="normal" font-size="83" text-anchor="start" direction="ltr" writing-mode="lr-tb" unicode-bidi="normal" text-decoration="none" transform="matrix(1 0 0 1 3377.53 524)">Frontend</text></g></g></svg>