<svg width="1343" height="2488" xmlns="http://www.w3.org/2000/svg" xmlns:xlink="http://www.w3.org/1999/xlink" xml:space="preserve" overflow="hidden"><g transform="translate(-2259 119)"><g><rect x="2268.5" y="-112.5" width="337" height="384" stroke="#042433" stroke-width="6.875" stroke-linecap="butt" stroke-linejoin="miter" stroke-miterlimit="8" stroke-opacity="1" fill="#CAEEFB" fill-opacity="1"/><text fill="#000000" fill-opacity="1" font-family="Arial,Arial_MSFontService,sans-serif" font-style="normal" font-variant="normal" font-weight="400" font-stretch="normal" font-size="73" text-anchor="start" direction="ltr" writing-mode="lr-tb" unicode-bidi="normal" text-decoration="none" transform="matrix(1 0 0 1 2335.05 106)">A.java</text><rect x="2682.5" y="-112.5" width="337" height="384" stroke="#042433" stroke-width="6.875" stroke-linecap="butt" stroke-linejoin="miter" stroke-miterlimit="8" stroke-opacity="1" fill="none"/><text fill="#000000" fill-opacity="1" font-family="Arial,Arial_MSFontService,sans-serif" font-style="normal" font-variant="normal" font-weight="400" font-stretch="normal" font-size="73" text-anchor="start" direction="ltr" writing-mode="lr-tb" unicode-bidi="normal" text-decoration="none" transform="matrix(1 0 0 1 2748.74 106)">B.java</text><rect x="2268.5" y="404.5" width="337" height="384" stroke="#042433" stroke-width="6.875" stroke-linecap="butt" stroke-linejoin="miter" stroke-miterlimit="8" stroke-opacity="1" fill="#CAEEFB" fill-opacity="1"/><text fill="#000000" fill-opacity="1" font-family="Arial,Arial_MSFontService,sans-serif" font-style="normal" font-variant="normal" font-weight="400" font-stretch="normal" font-size="73" text-anchor="start" direction="ltr" writing-mode="lr-tb" unicode-bidi="normal" text-decoration="none" transform="matrix(1 0 0 1 2402.09 579)">A.</text><text fill="#000000" fill-opacity="1" font-family="Arial,Arial_MSFontService,sans-serif" font-style="normal" font-variant="normal" font-weight="400" font-stretch="normal" font-size="73" text-anchor="start" direction="ltr" writing-mode="lr-tb" unicode-bidi="normal" text-decoration="none" transform="matrix(1 0 0 1 2306.69 667)">classfile</text><rect x="2682.5" y="404.5" width="337" height="384" stroke="#042433" stroke-width="6.875" stroke-linecap="butt" stroke-linejoin="miter" stroke-miterlimit="8" stroke-opacity="1" fill="none"/><text fill="#000000" fill-opacity="1" font-family="Arial,Arial_MSFontService,sans-serif" font-style="normal" font-variant="normal" font-weight="400" font-stretch="normal" font-size="73" text-anchor="start" direction="ltr" writing-mode="lr-tb" unicode-bidi="normal" text-decoration="none" transform="matrix(1 0 0 1 2815.78 579)">B.</text><text fill="#000000" fill-opacity="1" font-family="Arial,Arial_MSFontService,sans-serif" font-style="normal" font-variant="normal" font-weight="400" font-stretch="normal" font-size="73" text-anchor="start" direction="ltr" writing-mode="lr-tb" unicode-bidi="normal" text-decoration="none" transform="matrix(1 0 0 1 2720.38 667)">classfile</text><rect x="2268.5" y="921.5" width="337" height="384" stroke="#042433" stroke-width="6.875" stroke-linecap="butt" stroke-linejoin="miter" stroke-miterlimit="8" stroke-opacity="1" fill="#CAEEFB" fill-opacity="1"/><text fill="#000000" fill-opacity="1" font-family="Arial,Arial_MSFontService,sans-serif" font-style="normal" font-variant="normal" font-weight="400" font-stretch="normal" font-size="73" text-anchor="start" direction="ltr" writing-mode="lr-tb" unicode-bidi="normal" text-decoration="none" transform="matrix(1 0 0 1 2381.74 1140)">A.ir</text><rect x="2682.5" y="921.5" width="337" height="384" stroke="#042433" stroke-width="6.875" stroke-linecap="butt" stroke-linejoin="miter" stroke-miterlimit="8" stroke-opacity="1" fill="none"/><text fill="#000000" fill-opacity="1" font-family="Arial,Arial_MSFontService,sans-serif" font-style="normal" font-variant="normal" font-weight="400" font-stretch="normal" font-size="73" text-anchor="start" direction="ltr" writing-mode="lr-tb" unicode-bidi="normal" text-decoration="none" transform="matrix(1 0 0 1 2795.43 1140)">B.ir</text><rect x="2268.5" y="1438.5" width="337" height="384" stroke="#042433" stroke-width="6.875" stroke-linecap="butt" stroke-linejoin="miter" stroke-miterlimit="8" stroke-opacity="1" fill="#CAEEFB" fill-opacity="1"/><text fill="#000000" fill-opacity="1" font-family="Arial,Arial_MSFontService,sans-serif" font-style="normal" font-variant="normal" font-weight="400" font-stretch="normal" font-size="73" text-anchor="start" direction="ltr" writing-mode="lr-tb" unicode-bidi="normal" text-decoration="none" transform="matrix(1 0 0 1 2345.07 1657)">A.syn</text><rect x="2682.5" y="1438.5" width="337" height="384" stroke="#042433" stroke-width="6.875" stroke-linecap="butt" stroke-linejoin="miter" stroke-miterlimit="8" stroke-opacity="1" fill="none"/><text fill="#000000" fill-opacity="1" font-family="Arial,Arial_MSFontService,sans-serif" font-style="normal" font-variant="normal" font-weight="400" font-stretch="normal" font-size="73" text-anchor="start" direction="ltr" writing-mode="lr-tb" unicode-bidi="normal" text-decoration="none" transform="matrix(1 0 0 1 2758.77 1657)">B.syn</text><path d="M2440.94 271.5 2440.94 381.898 2434.06 381.898 2434.06 271.5ZM2451.25 377.315 2437.5 404.815 2423.75 377.315Z" fill="#156082" fill-rule="nonzero" fill-opacity="1"/><path d="M2853.94 271.5 2853.94 381.898 2847.06 381.898 2847.06 271.5ZM2864.25 377.315 2850.5 404.815 2836.75 377.315Z" fill="#156082" fill-rule="nonzero" fill-opacity="1"/><path d="M2440.94 788.5 2440.94 898.899 2434.06 898.899 2434.06 788.5ZM2451.25 894.315 2437.5 921.815 2423.75 894.316Z" fill="#156082" fill-rule="nonzero" fill-opacity="1"/><path d="M2853.94 788.5 2853.94 898.899 2847.06 898.899 2847.06 788.5ZM2864.25 894.315 2850.5 921.815 2836.75 894.316Z" fill="#156082" fill-rule="nonzero" fill-opacity="1"/><path d="M2853.94 1305.5 2853.94 1415.9 2847.06 1415.9 2847.06 1305.5ZM2864.25 1411.32 2850.5 1438.82 2836.75 1411.32Z" fill="#156082" fill-rule="nonzero" fill-opacity="1"/><path d="M2440.94 1305.5 2440.94 1415.9 2434.06 1415.9 2434.06 1305.5ZM2451.25 1411.32 2437.5 1438.82 2423.75 1411.32Z" fill="#156082" fill-rule="nonzero" fill-opacity="1"/><rect x="2268.5" y="1980.5" width="337" height="384" stroke="#042433" stroke-width="6.875" stroke-linecap="butt" stroke-linejoin="miter" stroke-miterlimit="8" stroke-opacity="1" fill="#CAEEFB" fill-opacity="1"/><text fill="#000000" fill-opacity="1" font-family="Arial,Arial_MSFontService,sans-serif" font-style="normal" font-variant="normal" font-weight="400" font-stretch="normal" font-size="73" text-anchor="start" direction="ltr" writing-mode="lr-tb" unicode-bidi="normal" text-decoration="none" transform="matrix(1 0 0 1 2349.08 2199)">A.pnr</text><rect x="2682.5" y="1980.5" width="337" height="384" stroke="#042433" stroke-width="6.875" stroke-linecap="butt" stroke-linejoin="miter" stroke-miterlimit="8" stroke-opacity="1" fill="none"/><text fill="#000000" fill-opacity="1" font-family="Arial,Arial_MSFontService,sans-serif" font-style="normal" font-variant="normal" font-weight="400" font-stretch="normal" font-size="73" text-anchor="start" direction="ltr" writing-mode="lr-tb" unicode-bidi="normal" text-decoration="none" transform="matrix(1 0 0 1 2762.78 2199)">B.pnr</text><path d="M2853.94 1822.5 2853.94 1957.41 2847.06 1957.41 2847.06 1822.5ZM2864.25 1952.83 2850.5 1980.33 2836.75 1952.83Z" fill="#156082" fill-rule="nonzero" fill-opacity="1"/><path d="M2440.94 1822.5 2440.94 1957.41 2434.06 1957.41 2434.06 1822.5ZM2451.25 1952.83 2437.5 1980.33 2423.75 1952.83Z" fill="#156082" fill-rule="nonzero" fill-opacity="1"/><path d="M3019.5-112.5C3050.98-112.5 3076.5-108.247 3076.5-103L3076.5 332.086C3076.5 337.333 3102.02 341.586 3133.5 341.586 3102.02 341.586 3076.5 345.839 3076.5 351.085L3076.5 779C3076.5 784.247 3050.98 788.5 3019.5 788.5" stroke="#156082" stroke-width="6.875" stroke-linecap="butt" stroke-linejoin="miter" stroke-miterlimit="8" stroke-opacity="1" fill="none" fill-rule="evenodd"/><text fill="#000000" fill-opacity="1" font-family="Arial,Arial_MSFontService,sans-serif" font-style="normal" font-variant="normal" font-weight="400" font-stretch="normal" font-size="83" text-anchor="start" direction="ltr" writing-mode="lr-tb" unicode-bidi="normal" text-decoration="none" transform="matrix(1 0 0 1 3220.61 1931)">Backend</text><path d="M3019.5 921.5C3050.98 921.5 3076.5 925.753 3076.5 931L3076.5 1105.53C3076.5 1110.78 3102.02 1115.03 3133.5 1115.03 3102.02 1115.03 3076.5 1119.28 3076.5 1124.53L3076.5 1296C3076.5 1301.25 3050.98 1305.5 3019.5 1305.5" stroke="#156082" stroke-width="6.875" stroke-linecap="butt" stroke-linejoin="miter" stroke-miterlimit="8" stroke-opacity="1" fill="none" fill-rule="evenodd"/><text fill="#000000" fill-opacity="1" font-family="Arial,Arial_MSFontService,sans-serif" font-style="normal" font-variant="normal" font-weight="400" font-stretch="normal" font-size="83" text-anchor="start" direction="ltr" writing-mode="lr-tb" unicode-bidi="normal" text-decoration="none" transform="matrix(1 0 0 1 3220.61 1143)">IR</text><path d="M3019.5 1438.5C3050.98 1438.5 3076.5 1442.75 3076.5 1448L3076.5 1895.69C3076.5 1900.93 3102.02 1905.19 3133.5 1905.19 3102.02 1905.19 3076.5 1909.44 3076.5 1914.69L3076.5 2355C3076.5 2360.25 3050.98 2364.5 3019.5 2364.5" stroke="#156082" stroke-width="6.875" stroke-linecap="butt" stroke-linejoin="miter" stroke-miterlimit="8" stroke-opacity="1" fill="none" fill-rule="evenodd"/><text fill="#000000" fill-opacity="1" font-family="Arial,Arial_MSFontService,sans-serif" font-style="normal" font-variant="normal" font-weight="400" font-stretch="normal" font-size="83" text-anchor="start" direction="ltr" writing-mode="lr-tb" unicode-bidi="normal" text-decoration="none" transform="matrix(1 0 0 1 3220.61 367)">Frontend</text></g></g></svg>