<svg width="2162" height="1888" xmlns="http://www.w3.org/2000/svg" xmlns:xlink="http://www.w3.org/1999/xlink" xml:space="preserve" overflow="hidden"><g transform="translate(325 -435)"><g><rect x="-317" y="443" width="2147" height="1872" stroke="#000000" stroke-width="13.75" stroke-linecap="butt" stroke-linejoin="miter" stroke-miterlimit="8" stroke-opacity="1" fill="#FFFFFF" fill-opacity="1"/><text fill="#000000" fill-opacity="1" font-family="Arial,Arial_MSFontService,sans-serif" font-style="normal" font-variant="normal" font-weight="700" font-stretch="normal" font-size="55" text-anchor="start" direction="ltr" writing-mode="lr-tb" unicode-bidi="normal" text-decoration="none" transform="matrix(1 0 0 1 441.208 513)">Digital SoC Architecture</text><rect x="-225" y="541" width="584" height="638" stroke="#000000" stroke-width="10.3125" stroke-linecap="butt" stroke-linejoin="miter" stroke-miterlimit="8" stroke-opacity="1" fill="#FFFFFF" fill-opacity="1"/><text fill="#000000" fill-opacity="1" font-family="Arial,Arial_MSFontService,sans-serif" font-style="normal" font-variant="normal" font-weight="400" font-stretch="normal" font-size="55" text-anchor="start" direction="ltr" writing-mode="lr-tb" unicode-bidi="normal" text-decoration="none" transform="matrix(1 0 0 1 -61.5121 611)">RocketTile</text><rect x="-202.5" y="631.5" width="247" height="152" stroke="#000000" stroke-width="4.58333" stroke-linecap="butt" stroke-linejoin="miter" stroke-miterlimit="8" stroke-opacity="1" fill="#FFFFFF" fill-opacity="1"/><text fill="#000000" fill-opacity="1" font-family="Arial,Arial_MSFontService,sans-serif" font-style="normal" font-variant="normal" font-weight="400" font-stretch="normal" font-size="55" text-anchor="start" direction="ltr" writing-mode="lr-tb" unicode-bidi="normal" text-decoration="none" transform="matrix(1 0 0 1 -164.783 694)">Rocket</text><text fill="#000000" fill-opacity="1" font-family="Arial,Arial_MSFontService,sans-serif" font-style="normal" font-variant="normal" font-weight="400" font-stretch="normal" font-size="55" text-anchor="start" direction="ltr" writing-mode="lr-tb" unicode-bidi="normal" text-decoration="none" transform="matrix(1 0 0 1 -138.727 760)">Core</text><rect x="90.4999" y="631.5" width="246" height="152" stroke="#000000" stroke-width="4.58333" stroke-linecap="butt" stroke-linejoin="miter" stroke-miterlimit="8" stroke-opacity="1" fill="#FFFFFF" fill-opacity="1"/><text fill="#000000" fill-opacity="1" font-family="Arial,Arial_MSFontService,sans-serif" font-style="normal" font-variant="normal" font-weight="400" font-stretch="normal" font-size="55" text-anchor="start" direction="ltr" writing-mode="lr-tb" unicode-bidi="normal" text-decoration="none" transform="matrix(1 0 0 1 151.374 727)">PTW</text><rect x="-202.5" y="852.5" width="247" height="152" stroke="#000000" stroke-width="4.58333" stroke-linecap="butt" stroke-linejoin="miter" stroke-miterlimit="8" stroke-opacity="1" fill="#FFFFFF" fill-opacity="1"/><text fill="#000000" fill-opacity="1" font-family="Arial,Arial_MSFontService,sans-serif" font-style="normal" font-variant="normal" font-weight="400" font-stretch="normal" font-size="55" text-anchor="start" direction="ltr" writing-mode="lr-tb" unicode-bidi="normal" text-decoration="none" transform="matrix(1 0 0 1 -132.7 948)">L1I$</text><rect x="90.4999" y="852.5" width="246" height="152" stroke="#000000" stroke-width="4.58333" stroke-linecap="butt" stroke-linejoin="miter" stroke-miterlimit="8" stroke-opacity="1" fill="#FFFFFF" fill-opacity="1"/><text fill="#000000" fill-opacity="1" font-family="Arial,Arial_MSFontService,sans-serif" font-style="normal" font-variant="normal" font-weight="400" font-stretch="normal" font-size="55" text-anchor="start" direction="ltr" writing-mode="lr-tb" unicode-bidi="normal" text-decoration="none" transform="matrix(1 0 0 1 147.364 948)">L1D$</text><path d="M44.4999 704.062 67.3804 704.063 67.3804 710.938 44.4998 710.937ZM62.7972 693.75 90.2971 707.5 62.797 721.25Z" fill="#000000" fill-rule="nonzero" fill-opacity="1"/><path d="M-75.0624 783.5-75.0621 829.441-81.9371 829.441-81.9374 783.5ZM-64.7497 824.858-78.4995 852.358-92.2497 824.858Z" fill="#000000" fill-rule="nonzero" fill-opacity="1"/><path d="M216.937 783.5 216.938 829.441 210.063 829.441 210.062 783.5ZM227.25 824.858 213.5 852.358 199.75 824.858Z" fill="#000000" fill-rule="nonzero" fill-opacity="1"/><path d="M-77.7112 780.154 192.09 843.754 190.512 850.446-79.2886 786.846ZM189.995 832.665 213.606 852.358 183.685 859.432Z" fill="#000000" fill-rule="nonzero" fill-opacity="1"/><rect x="-202.5" y="1073.5" width="539" height="84.9999" stroke="#000000" stroke-width="4.58333" stroke-linecap="butt" stroke-linejoin="miter" stroke-miterlimit="8" stroke-opacity="1" fill="#FFFFFF" fill-opacity="1"/><text fill="#000000" fill-opacity="1" font-family="Arial,Arial_MSFontService,sans-serif" font-style="normal" font-variant="normal" font-weight="400" font-stretch="normal" font-size="55" text-anchor="start" direction="ltr" writing-mode="lr-tb" unicode-bidi="normal" text-decoration="none" transform="matrix(1 0 0 1 -31.4658 1136)">Tile Bus</text><path d="M-75.0624 1004.5-75.0621 1050.42-81.9371 1050.42-81.9374 1004.5ZM-64.7497 1045.84-78.4995 1073.34-92.2497 1045.84Z" fill="#000000" fill-rule="nonzero" fill-opacity="1"/><path d="M216.937 1004.5 216.938 1050.42 210.063 1050.42 210.062 1004.5ZM227.25 1045.84 213.5 1073.34 199.75 1045.84Z" fill="#000000" fill-rule="nonzero" fill-opacity="1"/><rect x="405" y="541" width="865" height="638" stroke="#000000" stroke-width="10.3125" stroke-linecap="butt" stroke-linejoin="miter" stroke-miterlimit="8" stroke-opacity="1" fill="#FFFFFF" fill-opacity="1"/><text fill="#000000" fill-opacity="1" font-family="Arial,Arial_MSFontService,sans-serif" font-style="normal" font-variant="normal" font-weight="400" font-stretch="normal" font-size="55" text-anchor="start" direction="ltr" writing-mode="lr-tb" unicode-bidi="normal" text-decoration="none" transform="matrix(1 0 0 1 722.746 611)">BoomTile</text><rect x="708.5" y="631.5" width="246" height="152" stroke="#000000" stroke-width="4.58333" stroke-linecap="butt" stroke-linejoin="miter" stroke-miterlimit="8" stroke-opacity="1" fill="#FFFFFF" fill-opacity="1"/><text fill="#000000" fill-opacity="1" font-family="Arial,Arial_MSFontService,sans-serif" font-style="normal" font-variant="normal" font-weight="400" font-stretch="normal" font-size="55" text-anchor="start" direction="ltr" writing-mode="lr-tb" unicode-bidi="normal" text-decoration="none" transform="matrix(1 0 0 1 759.328 694)">Boom</text><text fill="#000000" fill-opacity="1" font-family="Arial,Arial_MSFontService,sans-serif" font-style="normal" font-variant="normal" font-weight="400" font-stretch="normal" font-size="55" text-anchor="start" direction="ltr" writing-mode="lr-tb" unicode-bidi="normal" text-decoration="none" transform="matrix(1 0 0 1 771.634 760)">Core</text><rect x="1000.5" y="631.5" width="246" height="152" stroke="#000000" stroke-width="4.58333" stroke-linecap="butt" stroke-linejoin="miter" stroke-miterlimit="8" stroke-opacity="1" fill="#FFFFFF" fill-opacity="1"/><text fill="#000000" fill-opacity="1" font-family="Arial,Arial_MSFontService,sans-serif" font-style="normal" font-variant="normal" font-weight="400" font-stretch="normal" font-size="55" text-anchor="start" direction="ltr" writing-mode="lr-tb" unicode-bidi="normal" text-decoration="none" transform="matrix(1 0 0 1 1061.74 727)">PTW</text><rect x="708.5" y="852.5" width="246" height="152" stroke="#000000" stroke-width="4.58333" stroke-linecap="butt" stroke-linejoin="miter" stroke-miterlimit="8" stroke-opacity="1" fill="#FFFFFF" fill-opacity="1"/><text fill="#000000" fill-opacity="1" font-family="Arial,Arial_MSFontService,sans-serif" font-style="normal" font-variant="normal" font-weight="400" font-stretch="normal" font-size="55" text-anchor="start" direction="ltr" writing-mode="lr-tb" unicode-bidi="normal" text-decoration="none" transform="matrix(1 0 0 1 777.661 948)">L1I$</text><rect x="1000.5" y="852.5" width="246" height="152" stroke="#000000" stroke-width="4.58333" stroke-linecap="butt" stroke-linejoin="miter" stroke-miterlimit="8" stroke-opacity="1" fill="#FFFFFF" fill-opacity="1"/><text fill="#000000" fill-opacity="1" font-family="Arial,Arial_MSFontService,sans-serif" font-style="normal" font-variant="normal" font-weight="400" font-stretch="normal" font-size="55" text-anchor="start" direction="ltr" writing-mode="lr-tb" unicode-bidi="normal" text-decoration="none" transform="matrix(1 0 0 1 1057.72 948)">L1D$</text><path d="M954.5 704.062 977.381 704.063 977.381 710.938 954.5 710.937ZM972.797 693.75 1000.3 707.5 972.797 721.25Z" fill="#000000" fill-rule="nonzero" fill-opacity="1"/><path d="M834.938 783.5 834.938 829.441 828.063 829.441 828.063 783.5ZM845.25 824.858 831.5 852.358 817.75 824.858Z" fill="#000000" fill-rule="nonzero" fill-opacity="1"/><path d="M1126.94 783.5 1126.94 829.441 1120.06 829.441 1120.06 783.5ZM1137.25 824.858 1123.5 852.358 1109.75 824.858Z" fill="#000000" fill-rule="nonzero" fill-opacity="1"/><path d="M832.289 780.154 1102.09 843.754 1100.51 850.446 830.711 786.846ZM1099.99 832.665 1123.61 852.358 1093.69 859.432Z" fill="#000000" fill-rule="nonzero" fill-opacity="1"/><rect x="425.5" y="1073.5" width="821" height="84.9999" stroke="#000000" stroke-width="4.58333" stroke-linecap="butt" stroke-linejoin="miter" stroke-miterlimit="8" stroke-opacity="1" fill="#61CBF4" fill-opacity="1"/><text fill="#000000" fill-opacity="1" font-family="Arial,Arial_MSFontService,sans-serif" font-style="normal" font-variant="normal" font-weight="400" font-stretch="normal" font-size="55" text-anchor="start" direction="ltr" writing-mode="lr-tb" unicode-bidi="normal" text-decoration="none" transform="matrix(1 0 0 1 737.286 1136)">Tile Bus</text><path d="M834.938 1004.5 834.938 1050.42 828.063 1050.42 828.063 1004.5ZM845.25 1045.84 831.5 1073.34 817.75 1045.84Z" fill="#000000" fill-rule="nonzero" fill-opacity="1"/><path d="M1126.94 1004.5 1126.94 1050.42 1120.06 1050.42 1120.06 1004.5ZM1137.25 1045.84 1123.5 1073.34 1109.75 1045.84Z" fill="#000000" fill-rule="nonzero" fill-opacity="1"/><rect x="425.5" y="631.5" width="246" height="373" stroke="#000000" stroke-width="4.58333" stroke-linecap="butt" stroke-linejoin="miter" stroke-miterlimit="8" stroke-opacity="1" fill="#61CBF4" fill-opacity="1"/><text fill="#000000" fill-opacity="1" font-family="Arial,Arial_MSFontService,sans-serif" font-style="normal" font-variant="normal" font-weight="400" font-stretch="normal" font-size="55" text-anchor="start" direction="ltr" writing-mode="lr-tb" unicode-bidi="normal" text-decoration="none" transform="matrix(6.12323e-17 1 -1 6.12323e-17 560.717 743)">RoCC</text><text fill="#000000" fill-opacity="1" font-family="Arial,Arial_MSFontService,sans-serif" font-style="normal" font-variant="normal" font-weight="400" font-stretch="normal" font-size="55" text-anchor="start" direction="ltr" writing-mode="lr-tb" unicode-bidi="normal" text-decoration="none" transform="matrix(6.12323e-17 1 -1 6.12323e-17 494.717 679)">Accelerator</text><path d="M547.938 1004.5 547.938 1050.42 541.063 1050.42 541.062 1004.5ZM558.25 1045.84 544.5 1073.34 530.75 1045.84Z" fill="#000000" fill-rule="nonzero" fill-opacity="1"/><path d="M697.417 704.063 708.762 704.063 708.762 710.938 697.417 710.938ZM702 721.25 674.5 707.5 702 693.75Z" fill="#000000" fill-rule="nonzero" fill-opacity="1"/><rect x="1307.5" y="892.5" width="379" height="287" stroke="#000000" stroke-width="4.58333" stroke-linecap="butt" stroke-linejoin="miter" stroke-miterlimit="8" stroke-opacity="1" fill="#FFFFFF" fill-opacity="1"/><text fill="#000000" fill-opacity="1" font-family="Arial,Arial_MSFontService,sans-serif" font-style="normal" font-variant="normal" font-weight="400" font-stretch="normal" font-size="55" text-anchor="start" direction="ltr" writing-mode="lr-tb" unicode-bidi="normal" text-decoration="none" transform="matrix(1 0 0 1 1421.33 1023)">MMIO </text><text fill="#000000" fill-opacity="1" font-family="Arial,Arial_MSFontService,sans-serif" font-style="normal" font-variant="normal" font-weight="400" font-stretch="normal" font-size="55" text-anchor="start" direction="ltr" writing-mode="lr-tb" unicode-bidi="normal" text-decoration="none" transform="matrix(1 0 0 1 1357.74 1089)">Accelerator</text><rect x="-241.5" y="1255.5" width="1928" height="86.0002" stroke="#000000" stroke-width="4.58333" stroke-linecap="butt" stroke-linejoin="miter" stroke-miterlimit="8" stroke-opacity="1" fill="#FFFFFF" fill-opacity="1"/><text fill="#000000" fill-opacity="1" font-family="Arial,Arial_MSFontService,sans-serif" font-style="normal" font-variant="normal" font-weight="400" font-stretch="normal" font-size="55" text-anchor="start" direction="ltr" writing-mode="lr-tb" unicode-bidi="normal" text-decoration="none" transform="matrix(1 0 0 1 575.625 1318)">System Bus</text><rect x="336.5" y="1411.5" width="934" height="84.9999" stroke="#000000" stroke-width="4.58333" stroke-linecap="butt" stroke-linejoin="miter" stroke-miterlimit="8" stroke-opacity="1" fill="#FFFFFF" fill-opacity="1"/><text fill="#000000" fill-opacity="1" font-family="Arial,Arial_MSFontService,sans-serif" font-style="normal" font-variant="normal" font-weight="400" font-stretch="normal" font-size="55" text-anchor="start" direction="ltr" writing-mode="lr-tb" unicode-bidi="normal" text-decoration="none" transform="matrix(1 0 0 1 630.604 1474)">Periphery Bus</text><rect x="902.5" y="1562.5" width="368" height="86.0002" stroke="#000000" stroke-width="4.58333" stroke-linecap="butt" stroke-linejoin="miter" stroke-miterlimit="8" stroke-opacity="1" fill="#FFFFFF" fill-opacity="1"/><text fill="#000000" fill-opacity="1" font-family="Arial,Arial_MSFontService,sans-serif" font-style="normal" font-variant="normal" font-weight="400" font-stretch="normal" font-size="55" text-anchor="start" direction="ltr" writing-mode="lr-tb" unicode-bidi="normal" text-decoration="none" transform="matrix(1 0 0 1 942.386 1625)">Control Bus</text><rect x="1311.5" y="1412.5" width="375" height="85.9999" stroke="#000000" stroke-width="4.58333" stroke-linecap="butt" stroke-linejoin="miter" stroke-miterlimit="8" stroke-opacity="1" fill="#FFFFFF" fill-opacity="1"/><text fill="#000000" fill-opacity="1" font-family="Arial,Arial_MSFontService,sans-serif" font-style="normal" font-variant="normal" font-weight="400" font-stretch="normal" font-size="55" text-anchor="start" direction="ltr" writing-mode="lr-tb" unicode-bidi="normal" text-decoration="none" transform="matrix(1 0 0 1 1379.45 1475)">Front Bus</text><rect x="335.5" y="1711.5" width="246" height="152" stroke="#000000" stroke-width="4.58333" stroke-linecap="butt" stroke-linejoin="miter" stroke-miterlimit="8" stroke-opacity="1" fill="#FFFFFF" fill-opacity="1"/><text fill="#000000" fill-opacity="1" font-family="Arial,Arial_MSFontService,sans-serif" font-style="normal" font-variant="normal" font-weight="400" font-stretch="normal" font-size="55" text-anchor="start" direction="ltr" writing-mode="lr-tb" unicode-bidi="normal" text-decoration="none" transform="matrix(1 0 0 1 383.815 1807)">UART</text><rect x="618.5" y="1711.5" width="246" height="152" stroke="#000000" stroke-width="4.58333" stroke-linecap="butt" stroke-linejoin="miter" stroke-miterlimit="8" stroke-opacity="1" fill="#FFFFFF" fill-opacity="1"/><text fill="#000000" fill-opacity="1" font-family="Arial,Arial_MSFontService,sans-serif" font-style="normal" font-variant="normal" font-weight="400" font-stretch="normal" font-size="55" text-anchor="start" direction="ltr" writing-mode="lr-tb" unicode-bidi="normal" text-decoration="none" transform="matrix(1 0 0 1 657.985 1807)">GPIOs</text><path d="M461.938 1519.42 461.938 1688.28 455.063 1688.28 455.063 1519.42ZM444.75 1524 458.5 1496.5 472.25 1524ZM472.25 1683.69 458.5 1711.19 444.75 1683.69Z" fill="#000000" fill-rule="nonzero" fill-opacity="1"/><path d="M744.938 1519.42 744.938 1688.28 738.063 1688.28 738.062 1519.42ZM727.75 1524 741.5 1496.5 755.25 1524ZM755.25 1683.69 741.5 1711.19 727.75 1683.69Z" fill="#000000" fill-rule="nonzero" fill-opacity="1"/><rect x="-220.5" y="1680.5" width="246" height="183" stroke="#000000" stroke-width="4.58333" stroke-linecap="butt" stroke-linejoin="miter" stroke-miterlimit="8" stroke-opacity="1" fill="#FFFFFF" fill-opacity="1"/><text fill="#000000" fill-opacity="1" font-family="Arial,Arial_MSFontService,sans-serif" font-style="normal" font-variant="normal" font-weight="400" font-stretch="normal" font-size="55" text-anchor="start" direction="ltr" writing-mode="lr-tb" unicode-bidi="normal" text-decoration="none" transform="matrix(1 0 0 1 -128.192 1758)">L2 </text><text fill="#000000" fill-opacity="1" font-family="Arial,Arial_MSFontService,sans-serif" font-style="normal" font-variant="normal" font-weight="400" font-stretch="normal" font-size="55" text-anchor="start" direction="ltr" writing-mode="lr-tb" unicode-bidi="normal" text-decoration="none" transform="matrix(1 0 0 1 -160.275 1824)">Bank</text><rect x="52.5001" y="1680.5" width="247" height="183" stroke="#000000" stroke-width="4.58333" stroke-linecap="butt" stroke-linejoin="miter" stroke-miterlimit="8" stroke-opacity="1" fill="#FFFFFF" fill-opacity="1"/><text fill="#000000" fill-opacity="1" font-family="Arial,Arial_MSFontService,sans-serif" font-style="normal" font-variant="normal" font-weight="400" font-stretch="normal" font-size="55" text-anchor="start" direction="ltr" writing-mode="lr-tb" unicode-bidi="normal" text-decoration="none" transform="matrix(1 0 0 1 145.039 1758)">L2 </text><text fill="#000000" fill-opacity="1" font-family="Arial,Arial_MSFontService,sans-serif" font-style="normal" font-variant="normal" font-weight="400" font-stretch="normal" font-size="55" text-anchor="start" direction="ltr" writing-mode="lr-tb" unicode-bidi="normal" text-decoration="none" transform="matrix(1 0 0 1 112.956 1824)">Bank</text><path d="M-94.0626 1364.42-94.0623 1654.23-100.937 1654.23-100.938 1364.42ZM-111.25 1369-97.5001 1341.5-83.7501 1369ZM-83.7498 1649.64-97.4998 1677.14-111.25 1649.64Z" fill="#000000" fill-rule="nonzero" fill-opacity="1"/><path d="M178.938 1368.42 178.938 1658.23 172.063 1658.23 172.063 1368.42ZM161.75 1373 175.5 1345.5 189.25 1373ZM189.251 1653.64 175.501 1681.14 161.751 1653.64Z" fill="#000000" fill-rule="nonzero" fill-opacity="1"/><path d="M75.9376 1181.42 75.9378 1232.34 69.0628 1232.34 69.0626 1181.42ZM58.7501 1186 72.5 1158.5 86.2501 1186ZM86.2503 1227.75 72.5004 1255.25 58.7503 1227.75Z" fill="#000000" fill-rule="nonzero" fill-opacity="1"/><path d="M831.938 1178.42 831.938 1229.34 825.063 1229.34 825.062 1178.42ZM814.75 1183 828.5 1155.5 842.25 1183ZM842.25 1224.75 828.5 1252.25 814.75 1224.75Z" fill="#000000" fill-rule="nonzero" fill-opacity="1"/><path d="M1489.94 1202.42 1489.94 1232.71 1483.06 1232.71 1483.06 1202.42ZM1472.75 1207 1486.5 1179.5 1500.25 1207ZM1500.25 1228.13 1486.5 1255.63 1472.75 1228.13Z" fill="#000000" fill-rule="nonzero" fill-opacity="1"/><path d="M841.938 1368.42 841.938 1389.21 835.063 1389.21 835.062 1368.42ZM824.75 1373 838.5 1345.5 852.25 1373ZM852.25 1384.62 838.5 1412.12 824.75 1384.62Z" fill="#000000" fill-rule="nonzero" fill-opacity="1"/><path d="M1495.94 1364.42 1495.94 1385.21 1489.06 1385.21 1489.06 1364.42ZM1478.75 1369 1492.5 1341.5 1506.25 1369ZM1506.25 1380.62 1492.5 1408.12 1478.75 1380.62Z" fill="#000000" fill-rule="nonzero" fill-opacity="1"/><path d="M1090.94 1519.42 1090.94 1540.21 1084.06 1540.21 1084.06 1519.42ZM1073.75 1524 1087.5 1496.5 1101.25 1524ZM1101.25 1535.62 1087.5 1563.12 1073.75 1535.62Z" fill="#000000" fill-rule="nonzero" fill-opacity="1"/><rect x="962.5" y="1692.5" width="308" height="87" stroke="#000000" stroke-width="4.58333" stroke-linecap="butt" stroke-linejoin="miter" stroke-miterlimit="8" stroke-opacity="1" fill="#FFFFFF" fill-opacity="1"/><text fill="#000000" fill-opacity="1" font-family="Arial,Arial_MSFontService,sans-serif" font-style="normal" font-variant="normal" font-weight="400" font-stretch="normal" font-size="55" text-anchor="start" direction="ltr" writing-mode="lr-tb" unicode-bidi="normal" text-decoration="none" transform="matrix(1 0 0 1 995.435 1755)">BootROM</text><rect x="962.5" y="1800.5" width="308" height="88" stroke="#000000" stroke-width="4.58333" stroke-linecap="butt" stroke-linejoin="miter" stroke-miterlimit="8" stroke-opacity="1" fill="#FFFFFF" fill-opacity="1"/><text fill="#000000" fill-opacity="1" font-family="Arial,Arial_MSFontService,sans-serif" font-style="normal" font-variant="normal" font-weight="400" font-stretch="normal" font-size="55" text-anchor="start" direction="ltr" writing-mode="lr-tb" unicode-bidi="normal" text-decoration="none" transform="matrix(1 0 0 1 1055.02 1864)">PLIC</text><rect x="966.5" y="1908.5" width="304" height="88" stroke="#000000" stroke-width="4.58333" stroke-linecap="butt" stroke-linejoin="miter" stroke-miterlimit="8" stroke-opacity="1" fill="#FFFFFF" fill-opacity="1"/><text fill="#000000" fill-opacity="1" font-family="Arial,Arial_MSFontService,sans-serif" font-style="normal" font-variant="normal" font-weight="400" font-stretch="normal" font-size="55" text-anchor="start" direction="ltr" writing-mode="lr-tb" unicode-bidi="normal" text-decoration="none" transform="matrix(1 0 0 1 1038.77 1972)">CLINT</text><rect x="966.5" y="2013.5" width="304" height="87.9999" stroke="#000000" stroke-width="4.58333" stroke-linecap="butt" stroke-linejoin="miter" stroke-miterlimit="8" stroke-opacity="1" fill="#FFFFFF" fill-opacity="1"/><text fill="#000000" fill-opacity="1" font-family="Arial,Arial_MSFontService,sans-serif" font-style="normal" font-variant="normal" font-weight="400" font-stretch="normal" font-size="55" text-anchor="start" direction="ltr" writing-mode="lr-tb" unicode-bidi="normal" text-decoration="none" transform="matrix(1 0 0 1 1037.62 2077)">Debug</text><path d="M924.5 1734.06 940.473 1734.06 940.473 1740.94 924.5 1740.94ZM935.89 1723.75 963.39 1737.5 935.889 1751.25Z" fill="#000000" fill-rule="nonzero" fill-opacity="1"/><path d="M926.938 1668.42 926.938 2050.75 920.063 2050.75 920.063 1668.42ZM909.75 1673 923.5 1645.5 937.25 1673Z" fill="#000000" fill-rule="nonzero" fill-opacity="1"/><path d="M924.5 1841.06 940.473 1841.06 940.473 1847.94 924.5 1847.94ZM935.89 1830.75 963.39 1844.5 935.889 1858.25Z" fill="#000000" fill-rule="nonzero" fill-opacity="1"/><path d="M924.5 1949.06 940.473 1949.06 940.473 1955.94 924.5 1955.94ZM935.89 1938.75 963.39 1952.5 935.889 1966.25Z" fill="#000000" fill-rule="nonzero" fill-opacity="1"/><path d="M924.5 2047.06 940.473 2047.06 940.473 2053.94 924.5 2053.94ZM935.89 2036.75 963.39 2050.5 935.889 2064.25Z" fill="#000000" fill-rule="nonzero" fill-opacity="1"/><rect x="1436.5" y="1680.5" width="246" height="152" stroke="#000000" stroke-width="4.58333" stroke-linecap="butt" stroke-linejoin="miter" stroke-miterlimit="8" stroke-opacity="1" fill="#FFFFFF" fill-opacity="1"/><text fill="#000000" fill-opacity="1" font-family="Arial,Arial_MSFontService,sans-serif" font-style="normal" font-variant="normal" font-weight="400" font-stretch="normal" font-size="55" text-anchor="start" direction="ltr" writing-mode="lr-tb" unicode-bidi="normal" text-decoration="none" transform="matrix(1 0 0 1 1472.5 1776)">Serdes</text><path d="M22.9167-3.4375 95.5733-3.4375 95.5733 542.89 88.6983 542.89 88.6983 0 92.1358 3.4375 22.9167 3.4375ZM27.5 13.75 0 0 27.5-13.75ZM105.886 538.307 92.1358 565.807 78.3858 538.307Z" fill="#000000" fill-rule="nonzero" fill-opacity="1" transform="matrix(1 -1.22465e-16 -1.22465e-16 -1 1270.5 2057.31)"/><path d="M1562.94 1519.42 1562.94 1653.63 1556.06 1653.63 1556.06 1519.42ZM1545.75 1524 1559.5 1496.5 1573.25 1524ZM1573.25 1649.05 1559.5 1676.55 1545.75 1649.05Z" fill="#000000" fill-rule="nonzero" fill-opacity="1"/><rect x="-224.5" y="1934.5" width="524" height="84.9999" stroke="#000000" stroke-width="4.58333" stroke-linecap="butt" stroke-linejoin="miter" stroke-miterlimit="8" stroke-opacity="1" fill="#FFFFFF" fill-opacity="1"/><text fill="#000000" fill-opacity="1" font-family="Arial,Arial_MSFontService,sans-serif" font-style="normal" font-variant="normal" font-weight="400" font-stretch="normal" font-size="55" text-anchor="start" direction="ltr" writing-mode="lr-tb" unicode-bidi="normal" text-decoration="none" transform="matrix(1 0 0 1 -117.579 1997)">Memory Bus</text><path d="M-108.062 1888.42-108.062 1911.42-114.937 1911.42-114.937 1888.42ZM-125.25 1893-111.5 1865.5-97.7497 1893ZM-97.7497 1906.84-111.5 1934.34-125.25 1906.84Z" fill="#000000" fill-rule="nonzero" fill-opacity="1"/><path d="M183.938 1888.42 183.938 1911.42 177.063 1911.42 177.063 1888.42ZM166.75 1893 180.5 1865.5 194.25 1893ZM194.25 1906.84 180.5 1934.34 166.75 1906.84Z" fill="#000000" fill-rule="nonzero" fill-opacity="1"/><rect x="52.5001" y="2083.5" width="247" height="150" stroke="#000000" stroke-width="4.58333" stroke-linecap="butt" stroke-linejoin="miter" stroke-miterlimit="8" stroke-opacity="1" fill="#FFFFFF" fill-opacity="1"/><text fill="#000000" fill-opacity="1" font-family="Arial,Arial_MSFontService,sans-serif" font-style="normal" font-variant="normal" font-weight="400" font-stretch="normal" font-size="55" text-anchor="start" direction="ltr" writing-mode="lr-tb" unicode-bidi="normal" text-decoration="none" transform="matrix(1 0 0 1 94.6226 2145)">DRAM </text><text fill="#000000" fill-opacity="1" font-family="Arial,Arial_MSFontService,sans-serif" font-style="normal" font-variant="normal" font-weight="400" font-stretch="normal" font-size="55" text-anchor="start" direction="ltr" writing-mode="lr-tb" unicode-bidi="normal" text-decoration="none" transform="matrix(1 0 0 1 102.345 2211)">Chan.</text><rect x="-224.5" y="2083.5" width="246" height="150" stroke="#000000" stroke-width="4.58333" stroke-linecap="butt" stroke-linejoin="miter" stroke-miterlimit="8" stroke-opacity="1" fill="#FFFFFF" fill-opacity="1"/><text fill="#000000" fill-opacity="1" font-family="Arial,Arial_MSFontService,sans-serif" font-style="normal" font-variant="normal" font-weight="400" font-stretch="normal" font-size="55" text-anchor="start" direction="ltr" writing-mode="lr-tb" unicode-bidi="normal" text-decoration="none" transform="matrix(1 0 0 1 -183.114 2145)">DRAM </text><text fill="#000000" fill-opacity="1" font-family="Arial,Arial_MSFontService,sans-serif" font-style="normal" font-variant="normal" font-weight="400" font-stretch="normal" font-size="55" text-anchor="start" direction="ltr" writing-mode="lr-tb" unicode-bidi="normal" text-decoration="none" transform="matrix(1 0 0 1 -175.391 2211)">Chan.</text><path d="M-108.062 2036.42-108.062 2059.42-114.937 2059.42-114.937 2036.42ZM-125.25 2041-111.5 2013.5-97.7497 2041ZM-97.7497 2054.84-111.5 2082.34-125.25 2054.84Z" fill="#000000" fill-rule="nonzero" fill-opacity="1"/><path d="M183.938 2036.42 183.938 2059.42 177.063 2059.42 177.063 2036.42ZM166.75 2041 180.5 2013.5 194.25 2041ZM194.25 2054.84 180.5 2082.34 166.75 2054.84Z" fill="#000000" fill-rule="nonzero" fill-opacity="1"/></g></g></svg>