<svg width="1343" height="2488" xmlns="http://www.w3.org/2000/svg" xmlns:xlink="http://www.w3.org/1999/xlink" xml:space="preserve" overflow="hidden"><g transform="translate(-462 64)"><g><rect x="471.5" y="-58.4999" width="337" height="384" stroke="#042433" stroke-width="6.875" stroke-linecap="butt" stroke-linejoin="miter" stroke-miterlimit="8" stroke-opacity="1" fill="none"/><text fill="#000000" fill-opacity="1" font-family="Arial,Arial_MSFontService,sans-serif" font-style="normal" font-variant="normal" font-weight="400" font-stretch="normal" font-size="73" text-anchor="start" direction="ltr" writing-mode="lr-tb" unicode-bidi="normal" text-decoration="none" transform="matrix(1 0 0 1 537.631 160)">A.java</text><rect x="884.5" y="-58.4999" width="338" height="384" stroke="#042433" stroke-width="6.875" stroke-linecap="butt" stroke-linejoin="miter" stroke-miterlimit="8" stroke-opacity="1" fill="none"/><text fill="#000000" fill-opacity="1" font-family="Arial,Arial_MSFontService,sans-serif" font-style="normal" font-variant="normal" font-weight="400" font-stretch="normal" font-size="73" text-anchor="start" direction="ltr" writing-mode="lr-tb" unicode-bidi="normal" text-decoration="none" transform="matrix(1 0 0 1 951.327 160)">B.java</text><rect x="471.5" y="459.5" width="337" height="383" stroke="#042433" stroke-width="6.875" stroke-linecap="butt" stroke-linejoin="miter" stroke-miterlimit="8" stroke-opacity="1" fill="none"/><text fill="#000000" fill-opacity="1" font-family="Arial,Arial_MSFontService,sans-serif" font-style="normal" font-variant="normal" font-weight="400" font-stretch="normal" font-size="73" text-anchor="start" direction="ltr" writing-mode="lr-tb" unicode-bidi="normal" text-decoration="none" transform="matrix(1 0 0 1 604.674 633)">A.</text><text fill="#000000" fill-opacity="1" font-family="Arial,Arial_MSFontService,sans-serif" font-style="normal" font-variant="normal" font-weight="400" font-stretch="normal" font-size="73" text-anchor="start" direction="ltr" writing-mode="lr-tb" unicode-bidi="normal" text-decoration="none" transform="matrix(1 0 0 1 509.272 721)">classfile</text><rect x="884.5" y="459.5" width="338" height="383" stroke="#042433" stroke-width="6.875" stroke-linecap="butt" stroke-linejoin="miter" stroke-miterlimit="8" stroke-opacity="1" fill="none"/><text fill="#000000" fill-opacity="1" font-family="Arial,Arial_MSFontService,sans-serif" font-style="normal" font-variant="normal" font-weight="400" font-stretch="normal" font-size="73" text-anchor="start" direction="ltr" writing-mode="lr-tb" unicode-bidi="normal" text-decoration="none" transform="matrix(1 0 0 1 1018.37 633)">B.</text><text fill="#000000" fill-opacity="1" font-family="Arial,Arial_MSFontService,sans-serif" font-style="normal" font-variant="normal" font-weight="400" font-stretch="normal" font-size="73" text-anchor="start" direction="ltr" writing-mode="lr-tb" unicode-bidi="normal" text-decoration="none" transform="matrix(1 0 0 1 922.967 721)">classfile</text><rect x="471.5" y="976.5" width="337" height="383" stroke="#042433" stroke-width="6.875" stroke-linecap="butt" stroke-linejoin="miter" stroke-miterlimit="8" stroke-opacity="1" fill="none"/><text fill="#000000" fill-opacity="1" font-family="Arial,Arial_MSFontService,sans-serif" font-style="normal" font-variant="normal" font-weight="400" font-stretch="normal" font-size="73" text-anchor="start" direction="ltr" writing-mode="lr-tb" unicode-bidi="normal" text-decoration="none" transform="matrix(1 0 0 1 584.324 1195)">A.ir</text><rect x="884.5" y="976.5" width="338" height="383" stroke="#042433" stroke-width="6.875" stroke-linecap="butt" stroke-linejoin="miter" stroke-miterlimit="8" stroke-opacity="1" fill="none"/><text fill="#000000" fill-opacity="1" font-family="Arial,Arial_MSFontService,sans-serif" font-style="normal" font-variant="normal" font-weight="400" font-stretch="normal" font-size="73" text-anchor="start" direction="ltr" writing-mode="lr-tb" unicode-bidi="normal" text-decoration="none" transform="matrix(1 0 0 1 998.02 1195)">B.ir</text><rect x="471.5" y="1493.5" width="337" height="384" stroke="#042433" stroke-width="6.875" stroke-linecap="butt" stroke-linejoin="miter" stroke-miterlimit="8" stroke-opacity="1" fill="none"/><text fill="#000000" fill-opacity="1" font-family="Arial,Arial_MSFontService,sans-serif" font-style="normal" font-variant="normal" font-weight="400" font-stretch="normal" font-size="73" text-anchor="start" direction="ltr" writing-mode="lr-tb" unicode-bidi="normal" text-decoration="none" transform="matrix(1 0 0 1 547.657 1712)">A.syn</text><rect x="884.5" y="1493.5" width="338" height="384" stroke="#042433" stroke-width="6.875" stroke-linecap="butt" stroke-linejoin="miter" stroke-miterlimit="8" stroke-opacity="1" fill="none"/><text fill="#000000" fill-opacity="1" font-family="Arial,Arial_MSFontService,sans-serif" font-style="normal" font-variant="normal" font-weight="400" font-stretch="normal" font-size="73" text-anchor="start" direction="ltr" writing-mode="lr-tb" unicode-bidi="normal" text-decoration="none" transform="matrix(1 0 0 1 961.353 1712)">B.syn</text><path d="M642.937 325.5 642.938 435.898 636.063 435.898 636.062 325.5ZM653.25 431.315 639.5 458.815 625.75 431.315Z" fill="#156082" fill-rule="nonzero" fill-opacity="1"/><path d="M1056.94 325.5 1056.94 435.898 1050.06 435.898 1050.06 325.5ZM1067.25 431.315 1053.5 458.815 1039.75 431.315Z" fill="#156082" fill-rule="nonzero" fill-opacity="1"/><path d="M642.937 842.5 642.938 952.899 636.063 952.899 636.062 842.5ZM653.25 948.315 639.5 975.815 625.75 948.316Z" fill="#156082" fill-rule="nonzero" fill-opacity="1"/><path d="M1056.94 842.5 1056.94 952.899 1050.06 952.899 1050.06 842.5ZM1067.25 948.315 1053.5 975.815 1039.75 948.316Z" fill="#156082" fill-rule="nonzero" fill-opacity="1"/><path d="M1056.94 1359.5 1056.94 1469.9 1050.06 1469.9 1050.06 1359.5ZM1067.25 1465.32 1053.5 1492.82 1039.75 1465.32Z" fill="#156082" fill-rule="nonzero" fill-opacity="1"/><path d="M642.937 1359.5 642.938 1469.9 636.063 1469.9 636.062 1359.5ZM653.25 1465.32 639.5 1492.82 625.75 1465.32Z" fill="#156082" fill-rule="nonzero" fill-opacity="1"/><rect x="471.5" y="2034.5" width="337" height="384" stroke="#042433" stroke-width="6.875" stroke-linecap="butt" stroke-linejoin="miter" stroke-miterlimit="8" stroke-opacity="1" fill="none"/><text fill="#000000" fill-opacity="1" font-family="Arial,Arial_MSFontService,sans-serif" font-style="normal" font-variant="normal" font-weight="400" font-stretch="normal" font-size="73" text-anchor="start" direction="ltr" writing-mode="lr-tb" unicode-bidi="normal" text-decoration="none" transform="matrix(1 0 0 1 551.668 2253)">A.pnr</text><rect x="884.5" y="2034.5" width="338" height="384" stroke="#042433" stroke-width="6.875" stroke-linecap="butt" stroke-linejoin="miter" stroke-miterlimit="8" stroke-opacity="1" fill="none"/><text fill="#000000" fill-opacity="1" font-family="Arial,Arial_MSFontService,sans-serif" font-style="normal" font-variant="normal" font-weight="400" font-stretch="normal" font-size="73" text-anchor="start" direction="ltr" writing-mode="lr-tb" unicode-bidi="normal" text-decoration="none" transform="matrix(1 0 0 1 965.363 2253)">B.pnr</text><path d="M1056.94 1877.5 1056.94 2012.41 1050.06 2012.41 1050.06 1877.5ZM1067.25 2007.83 1053.5 2035.33 1039.75 2007.83Z" fill="#156082" fill-rule="nonzero" fill-opacity="1"/><path d="M642.937 1877.5 642.938 2012.41 636.063 2012.41 636.062 1877.5ZM653.25 2007.83 639.5 2035.33 625.75 2007.83Z" fill="#156082" fill-rule="nonzero" fill-opacity="1"/><path d="M1222.5-58.4999C1253.72-58.4999 1279.04-54.2812 1279.04-49.0771L1279.04 386.164C1279.04 391.368 1304.35 395.587 1335.57 395.587 1304.35 395.587 1279.04 399.805 1279.04 405.01L1279.04 833.077C1279.04 838.281 1253.72 842.5 1222.5 842.5" stroke="#156082" stroke-width="6.875" stroke-linecap="butt" stroke-linejoin="miter" stroke-miterlimit="8" stroke-opacity="1" fill="none" fill-rule="evenodd"/><text fill="#000000" fill-opacity="1" font-family="Arial,Arial_MSFontService,sans-serif" font-style="normal" font-variant="normal" font-weight="400" font-stretch="normal" font-size="83" text-anchor="start" direction="ltr" writing-mode="lr-tb" unicode-bidi="normal" text-decoration="none" transform="matrix(1 0 0 1 1423.19 1985)">Backend</text><path d="M1222.5 976.5C1253.7 976.5 1279 980.716 1279 985.916L1279 1160.11C1279 1165.31 1304.3 1169.52 1335.5 1169.52 1304.3 1169.52 1279 1173.74 1279 1178.94L1279 1350.08C1279 1355.28 1253.7 1359.5 1222.5 1359.5" stroke="#156082" stroke-width="6.875" stroke-linecap="butt" stroke-linejoin="miter" stroke-miterlimit="8" stroke-opacity="1" fill="none" fill-rule="evenodd"/><text fill="#000000" fill-opacity="1" font-family="Arial,Arial_MSFontService,sans-serif" font-style="normal" font-variant="normal" font-weight="400" font-stretch="normal" font-size="83" text-anchor="start" direction="ltr" writing-mode="lr-tb" unicode-bidi="normal" text-decoration="none" transform="matrix(1 0 0 1 1423.19 1197)">IR</text><path d="M1222.5 1493.5C1253.7 1493.5 1279 1497.72 1279 1502.92L1279 1950.27C1279 1955.47 1304.3 1959.68 1335.5 1959.68 1304.3 1959.68 1279 1963.9 1279 1969.1L1279 2409.08C1279 2414.28 1253.7 2418.5 1222.5 2418.5" stroke="#156082" stroke-width="6.875" stroke-linecap="butt" stroke-linejoin="miter" stroke-miterlimit="8" stroke-opacity="1" fill="none" fill-rule="evenodd"/><text fill="#000000" fill-opacity="1" font-family="Arial,Arial_MSFontService,sans-serif" font-style="normal" font-variant="normal" font-weight="400" font-stretch="normal" font-size="83" text-anchor="start" direction="ltr" writing-mode="lr-tb" unicode-bidi="normal" text-decoration="none" transform="matrix(1 0 0 1 1423.19 422)">Frontend</text></g></g></svg>