<svg width="1307" height="1966" xmlns="http://www.w3.org/2000/svg" xmlns:xlink="http://www.w3.org/1999/xlink" xml:space="preserve" overflow="hidden"><g transform="translate(-618 -307)"><g><rect x="622.5" y="312.5" width="337" height="384" stroke="#042433" stroke-width="6.875" stroke-linecap="butt" stroke-linejoin="miter" stroke-miterlimit="8" stroke-opacity="1" fill="none"/><text fill="#000000" fill-opacity="1" font-family="Arial,Arial_MSFontService,sans-serif" font-style="normal" font-variant="normal" font-weight="400" font-stretch="normal" font-size="73" text-anchor="start" direction="ltr" writing-mode="lr-tb" unicode-bidi="normal" text-decoration="none" transform="matrix(1 0 0 1 688.671 531)">A.java</text><rect x="1035.5" y="312.5" width="338" height="384" stroke="#042433" stroke-width="6.875" stroke-linecap="butt" stroke-linejoin="miter" stroke-miterlimit="8" stroke-opacity="1" fill="none"/><text fill="#000000" fill-opacity="1" font-family="Arial,Arial_MSFontService,sans-serif" font-style="normal" font-variant="normal" font-weight="400" font-stretch="normal" font-size="73" text-anchor="start" direction="ltr" writing-mode="lr-tb" unicode-bidi="normal" text-decoration="none" transform="matrix(1 0 0 1 1102.37 531)">B.java</text><rect x="622.5" y="826.5" width="337" height="384" stroke="#042433" stroke-width="6.875" stroke-linecap="butt" stroke-linejoin="miter" stroke-miterlimit="8" stroke-opacity="1" fill="none"/><text fill="#000000" fill-opacity="1" font-family="Arial,Arial_MSFontService,sans-serif" font-style="normal" font-variant="normal" font-weight="400" font-stretch="normal" font-size="73" text-anchor="start" direction="ltr" writing-mode="lr-tb" unicode-bidi="normal" text-decoration="none" transform="matrix(1 0 0 1 735.363 1045)">A.ir</text><rect x="1035.5" y="826.5" width="338" height="384" stroke="#042433" stroke-width="6.875" stroke-linecap="butt" stroke-linejoin="miter" stroke-miterlimit="8" stroke-opacity="1" fill="none"/><text fill="#000000" fill-opacity="1" font-family="Arial,Arial_MSFontService,sans-serif" font-style="normal" font-variant="normal" font-weight="400" font-stretch="normal" font-size="73" text-anchor="start" direction="ltr" writing-mode="lr-tb" unicode-bidi="normal" text-decoration="none" transform="matrix(1 0 0 1 1149.06 1045)">B.ir</text><rect x="622.5" y="1343.5" width="337" height="384" stroke="#042433" stroke-width="6.875" stroke-linecap="butt" stroke-linejoin="miter" stroke-miterlimit="8" stroke-opacity="1" fill="none"/><text fill="#000000" fill-opacity="1" font-family="Arial,Arial_MSFontService,sans-serif" font-style="normal" font-variant="normal" font-weight="400" font-stretch="normal" font-size="73" text-anchor="start" direction="ltr" writing-mode="lr-tb" unicode-bidi="normal" text-decoration="none" transform="matrix(1 0 0 1 698.697 1562)">A.syn</text><rect x="1035.5" y="1343.5" width="338" height="384" stroke="#042433" stroke-width="6.875" stroke-linecap="butt" stroke-linejoin="miter" stroke-miterlimit="8" stroke-opacity="1" fill="none"/><text fill="#000000" fill-opacity="1" font-family="Arial,Arial_MSFontService,sans-serif" font-style="normal" font-variant="normal" font-weight="400" font-stretch="normal" font-size="73" text-anchor="start" direction="ltr" writing-mode="lr-tb" unicode-bidi="normal" text-decoration="none" transform="matrix(1 0 0 1 1112.39 1562)">B.syn</text><path d="M793.938 693.5 793.938 803.899 787.063 803.899 787.063 693.5ZM804.25 799.315 790.5 826.815 776.75 799.315Z" fill="#156082" fill-rule="nonzero" fill-opacity="1"/><path d="M1207.94 693.5 1207.94 803.899 1201.06 803.899 1201.06 693.5ZM1218.25 799.315 1204.5 826.815 1190.75 799.315Z" fill="#156082" fill-rule="nonzero" fill-opacity="1"/><path d="M1207.94 1210.5 1207.94 1320.9 1201.06 1320.9 1201.06 1210.5ZM1218.25 1316.32 1204.5 1343.82 1190.75 1316.32Z" fill="#156082" fill-rule="nonzero" fill-opacity="1"/><path d="M793.938 1210.5 793.938 1320.9 787.063 1320.9 787.063 1210.5ZM804.25 1316.32 790.5 1343.82 776.75 1316.32Z" fill="#156082" fill-rule="nonzero" fill-opacity="1"/><rect x="622.5" y="1885.5" width="337" height="384" stroke="#042433" stroke-width="6.875" stroke-linecap="butt" stroke-linejoin="miter" stroke-miterlimit="8" stroke-opacity="1" fill="none"/><text fill="#000000" fill-opacity="1" font-family="Arial,Arial_MSFontService,sans-serif" font-style="normal" font-variant="normal" font-weight="400" font-stretch="normal" font-size="73" text-anchor="start" direction="ltr" writing-mode="lr-tb" unicode-bidi="normal" text-decoration="none" transform="matrix(1 0 0 1 702.707 2104)">A.pnr</text><rect x="1035.5" y="1885.5" width="338" height="384" stroke="#042433" stroke-width="6.875" stroke-linecap="butt" stroke-linejoin="miter" stroke-miterlimit="8" stroke-opacity="1" fill="none"/><text fill="#000000" fill-opacity="1" font-family="Arial,Arial_MSFontService,sans-serif" font-style="normal" font-variant="normal" font-weight="400" font-stretch="normal" font-size="73" text-anchor="start" direction="ltr" writing-mode="lr-tb" unicode-bidi="normal" text-decoration="none" transform="matrix(1 0 0 1 1116.4 2104)">B.pnr</text><path d="M1207.94 1727.5 1207.94 1862.41 1201.06 1862.41 1201.06 1727.5ZM1218.25 1857.83 1204.5 1885.33 1190.75 1857.83Z" fill="#156082" fill-rule="nonzero" fill-opacity="1"/><path d="M793.938 1727.5 793.938 1862.41 787.063 1862.41 787.063 1727.5ZM804.25 1857.83 790.5 1885.33 776.75 1857.83Z" fill="#156082" fill-rule="nonzero" fill-opacity="1"/><path d="M1373.5 312.5C1404.7 312.5 1430 316.716 1430 321.916L1430 495.1C1430 500.3 1455.3 504.516 1486.5 504.516 1455.3 504.516 1430 508.732 1430 513.932L1430 684.084C1430 689.284 1404.7 693.5 1373.5 693.5" stroke="#156082" stroke-width="6.875" stroke-linecap="butt" stroke-linejoin="miter" stroke-miterlimit="8" stroke-opacity="1" fill="none" fill-rule="evenodd"/><text fill="#000000" fill-opacity="1" font-family="Arial,Arial_MSFontService,sans-serif" font-style="normal" font-variant="normal" font-weight="400" font-stretch="normal" font-size="83" text-anchor="start" direction="ltr" writing-mode="lr-tb" unicode-bidi="normal" text-decoration="none" transform="matrix(1 0 0 1 1543.4 1836)">Backend</text><path d="M1373.5 826.5C1404.7 826.5 1430 830.716 1430 835.916L1430 1010.61C1430 1015.81 1455.3 1020.03 1486.5 1020.03 1455.3 1020.03 1430 1024.24 1430 1029.44L1430 1201.08C1430 1206.28 1404.7 1210.5 1373.5 1210.5" stroke="#156082" stroke-width="6.875" stroke-linecap="butt" stroke-linejoin="miter" stroke-miterlimit="8" stroke-opacity="1" fill="none" fill-rule="evenodd"/><text fill="#000000" fill-opacity="1" font-family="Arial,Arial_MSFontService,sans-serif" font-style="normal" font-variant="normal" font-weight="400" font-stretch="normal" font-size="83" text-anchor="start" direction="ltr" writing-mode="lr-tb" unicode-bidi="normal" text-decoration="none" transform="matrix(1 0 0 1 1543.4 1048)">IR</text><path d="M1373.5 1343.5C1404.72 1343.5 1430.03 1347.72 1430.03 1352.92L1430.03 1800.76C1430.03 1805.97 1455.34 1810.19 1486.56 1810.19 1455.34 1810.19 1430.03 1814.4 1430.03 1819.61L1430.03 2260.08C1430.03 2265.28 1404.72 2269.5 1373.5 2269.5" stroke="#156082" stroke-width="6.875" stroke-linecap="butt" stroke-linejoin="miter" stroke-miterlimit="8" stroke-opacity="1" fill="none" fill-rule="evenodd"/><text fill="#000000" fill-opacity="1" font-family="Arial,Arial_MSFontService,sans-serif" font-style="normal" font-variant="normal" font-weight="400" font-stretch="normal" font-size="83" text-anchor="start" direction="ltr" writing-mode="lr-tb" unicode-bidi="normal" text-decoration="none" transform="matrix(1 0 0 1 1543.4 524)">Frontend</text></g></g></svg>