<svg width="2168" height="1888" xmlns="http://www.w3.org/2000/svg" xmlns:xlink="http://www.w3.org/1999/xlink" xml:space="preserve" overflow="hidden"><g transform="translate(-2044 -435)"><g><rect x="2055" y="443" width="2146" height="1872" stroke="#000000" stroke-width="13.75" stroke-linecap="butt" stroke-linejoin="miter" stroke-miterlimit="8" stroke-opacity="1" fill="#FFFFFF" fill-opacity="1"/><text fill="#000000" fill-opacity="1" font-family="Arial,Arial_MSFontService,sans-serif" font-style="normal" font-variant="normal" font-weight="700" font-stretch="normal" font-size="55" text-anchor="start" direction="ltr" writing-mode="lr-tb" unicode-bidi="normal" text-decoration="none" transform="matrix(1 0 0 1 2812.74 513)">Digital SoC Architecture</text><rect x="2146" y="541" width="585" height="638" stroke="#000000" stroke-width="10.3125" stroke-linecap="butt" stroke-linejoin="miter" stroke-miterlimit="8" stroke-opacity="1" fill="#FFFFFF" fill-opacity="1"/><text fill="#000000" fill-opacity="1" font-family="Arial,Arial_MSFontService,sans-serif" font-style="normal" font-variant="normal" font-weight="400" font-stretch="normal" font-size="55" text-anchor="start" direction="ltr" writing-mode="lr-tb" unicode-bidi="normal" text-decoration="none" transform="matrix(1 0 0 1 2310.02 611)">RocketTile</text><rect x="2169.5" y="631.5" width="246" height="152" stroke="#000000" stroke-width="4.58333" stroke-linecap="butt" stroke-linejoin="miter" stroke-miterlimit="8" stroke-opacity="1" fill="#D86ECC" fill-opacity="1"/><text fill="#000000" fill-opacity="1" font-family="Arial,Arial_MSFontService,sans-serif" font-style="normal" font-variant="normal" font-weight="400" font-stretch="normal" font-size="55" text-anchor="start" direction="ltr" writing-mode="lr-tb" unicode-bidi="normal" text-decoration="none" transform="matrix(1 0 0 1 2206.75 694)">Rocket</text><text fill="#000000" fill-opacity="1" font-family="Arial,Arial_MSFontService,sans-serif" font-style="normal" font-variant="normal" font-weight="400" font-stretch="normal" font-size="55" text-anchor="start" direction="ltr" writing-mode="lr-tb" unicode-bidi="normal" text-decoration="none" transform="matrix(1 0 0 1 2232.8 760)">Core</text><rect x="2461.5" y="631.5" width="246" height="152" stroke="#000000" stroke-width="4.58333" stroke-linecap="butt" stroke-linejoin="miter" stroke-miterlimit="8" stroke-opacity="1" fill="#D86ECC" fill-opacity="1"/><text fill="#000000" fill-opacity="1" font-family="Arial,Arial_MSFontService,sans-serif" font-style="normal" font-variant="normal" font-weight="400" font-stretch="normal" font-size="55" text-anchor="start" direction="ltr" writing-mode="lr-tb" unicode-bidi="normal" text-decoration="none" transform="matrix(1 0 0 1 2522.9 727)">PTW</text><rect x="2169.5" y="852.5" width="246" height="152" stroke="#000000" stroke-width="4.58333" stroke-linecap="butt" stroke-linejoin="miter" stroke-miterlimit="8" stroke-opacity="1" fill="#D86ECC" fill-opacity="1"/><text fill="#000000" fill-opacity="1" font-family="Arial,Arial_MSFontService,sans-serif" font-style="normal" font-variant="normal" font-weight="400" font-stretch="normal" font-size="55" text-anchor="start" direction="ltr" writing-mode="lr-tb" unicode-bidi="normal" text-decoration="none" transform="matrix(1 0 0 1 2238.83 948)">L1I$</text><rect x="2461.5" y="852.5" width="246" height="152" stroke="#000000" stroke-width="4.58333" stroke-linecap="butt" stroke-linejoin="miter" stroke-miterlimit="8" stroke-opacity="1" fill="#D86ECC" fill-opacity="1"/><text fill="#000000" fill-opacity="1" font-family="Arial,Arial_MSFontService,sans-serif" font-style="normal" font-variant="normal" font-weight="400" font-stretch="normal" font-size="55" text-anchor="start" direction="ltr" writing-mode="lr-tb" unicode-bidi="normal" text-decoration="none" transform="matrix(1 0 0 1 2518.89 948)">L1D$</text><path d="M2415.5 704.062 2438.38 704.063 2438.38 710.938 2415.5 710.937ZM2433.8 693.75 2461.3 707.5 2433.8 721.25Z" fill="#000000" fill-rule="nonzero" fill-opacity="1"/><path d="M2295.94 783.5 2295.94 829.441 2289.06 829.441 2289.06 783.5ZM2306.25 824.858 2292.5 852.358 2278.75 824.858Z" fill="#000000" fill-rule="nonzero" fill-opacity="1"/><path d="M2587.94 783.5 2587.94 829.441 2581.06 829.441 2581.06 783.5ZM2598.25 824.858 2584.5 852.358 2570.75 824.858Z" fill="#000000" fill-rule="nonzero" fill-opacity="1"/><path d="M2293.29 780.154 2563.09 843.754 2561.51 850.446 2291.71 786.846ZM2560.99 832.665 2584.61 852.358 2554.69 859.432Z" fill="#000000" fill-rule="nonzero" fill-opacity="1"/><rect x="2169.5" y="1073.5" width="538" height="84.9999" stroke="#000000" stroke-width="4.58333" stroke-linecap="butt" stroke-linejoin="miter" stroke-miterlimit="8" stroke-opacity="1" fill="#D86ECC" fill-opacity="1"/><text fill="#000000" fill-opacity="1" font-family="Arial,Arial_MSFontService,sans-serif" font-style="normal" font-variant="normal" font-weight="400" font-stretch="normal" font-size="55" text-anchor="start" direction="ltr" writing-mode="lr-tb" unicode-bidi="normal" text-decoration="none" transform="matrix(1 0 0 1 2340.06 1136)">Tile Bus</text><path d="M2295.94 1004.5 2295.94 1050.42 2289.06 1050.42 2289.06 1004.5ZM2306.25 1045.84 2292.5 1073.34 2278.75 1045.84Z" fill="#000000" fill-rule="nonzero" fill-opacity="1"/><path d="M2587.94 1004.5 2587.94 1050.42 2581.06 1050.42 2581.06 1004.5ZM2598.25 1045.84 2584.5 1073.34 2570.75 1045.84Z" fill="#000000" fill-rule="nonzero" fill-opacity="1"/><rect x="2777" y="541" width="864" height="638" stroke="#000000" stroke-width="10.3125" stroke-linecap="butt" stroke-linejoin="miter" stroke-miterlimit="8" stroke-opacity="1" fill="#FFFFFF" fill-opacity="1"/><text fill="#000000" fill-opacity="1" font-family="Arial,Arial_MSFontService,sans-serif" font-style="normal" font-variant="normal" font-weight="400" font-stretch="normal" font-size="55" text-anchor="start" direction="ltr" writing-mode="lr-tb" unicode-bidi="normal" text-decoration="none" transform="matrix(1 0 0 1 3094.28 611)">BoomTile</text><rect x="3079.5" y="631.5" width="247" height="152" stroke="#000000" stroke-width="4.58333" stroke-linecap="butt" stroke-linejoin="miter" stroke-miterlimit="8" stroke-opacity="1" fill="#D86ECC" fill-opacity="1"/><text fill="#000000" fill-opacity="1" font-family="Arial,Arial_MSFontService,sans-serif" font-style="normal" font-variant="normal" font-weight="400" font-stretch="normal" font-size="55" text-anchor="start" direction="ltr" writing-mode="lr-tb" unicode-bidi="normal" text-decoration="none" transform="matrix(1 0 0 1 3130.86 694)">Boom</text><text fill="#000000" fill-opacity="1" font-family="Arial,Arial_MSFontService,sans-serif" font-style="normal" font-variant="normal" font-weight="400" font-stretch="normal" font-size="55" text-anchor="start" direction="ltr" writing-mode="lr-tb" unicode-bidi="normal" text-decoration="none" transform="matrix(1 0 0 1 3143.16 760)">Core</text><rect x="3371.5" y="631.5" width="247" height="152" stroke="#000000" stroke-width="4.58333" stroke-linecap="butt" stroke-linejoin="miter" stroke-miterlimit="8" stroke-opacity="1" fill="#D86ECC" fill-opacity="1"/><text fill="#000000" fill-opacity="1" font-family="Arial,Arial_MSFontService,sans-serif" font-style="normal" font-variant="normal" font-weight="400" font-stretch="normal" font-size="55" text-anchor="start" direction="ltr" writing-mode="lr-tb" unicode-bidi="normal" text-decoration="none" transform="matrix(1 0 0 1 3433.27 727)">PTW</text><rect x="3079.5" y="852.5" width="247" height="152" stroke="#000000" stroke-width="4.58333" stroke-linecap="butt" stroke-linejoin="miter" stroke-miterlimit="8" stroke-opacity="1" fill="#D86ECC" fill-opacity="1"/><text fill="#000000" fill-opacity="1" font-family="Arial,Arial_MSFontService,sans-serif" font-style="normal" font-variant="normal" font-weight="400" font-stretch="normal" font-size="55" text-anchor="start" direction="ltr" writing-mode="lr-tb" unicode-bidi="normal" text-decoration="none" transform="matrix(1 0 0 1 3149.19 948)">L1I$</text><rect x="3371.5" y="852.5" width="247" height="152" stroke="#000000" stroke-width="4.58333" stroke-linecap="butt" stroke-linejoin="miter" stroke-miterlimit="8" stroke-opacity="1" fill="#D86ECC" fill-opacity="1"/><text fill="#000000" fill-opacity="1" font-family="Arial,Arial_MSFontService,sans-serif" font-style="normal" font-variant="normal" font-weight="400" font-stretch="normal" font-size="55" text-anchor="start" direction="ltr" writing-mode="lr-tb" unicode-bidi="normal" text-decoration="none" transform="matrix(1 0 0 1 3429.25 948)">L1D$</text><path d="M3326.5 704.062 3349.38 704.063 3349.38 710.938 3326.5 710.937ZM3344.8 693.75 3372.3 707.5 3344.8 721.25Z" fill="#000000" fill-rule="nonzero" fill-opacity="1"/><path d="M3205.94 783.5 3205.94 829.441 3199.06 829.441 3199.06 783.5ZM3216.25 824.858 3202.5 852.358 3188.75 824.858Z" fill="#000000" fill-rule="nonzero" fill-opacity="1"/><path d="M3498.94 783.5 3498.94 829.441 3492.06 829.441 3492.06 783.5ZM3509.25 824.858 3495.5 852.358 3481.75 824.858Z" fill="#000000" fill-rule="nonzero" fill-opacity="1"/><path d="M3203.29 780.154 3473.09 843.754 3471.51 850.446 3201.71 786.846ZM3470.99 832.665 3494.61 852.358 3464.68 859.432Z" fill="#000000" fill-rule="nonzero" fill-opacity="1"/><rect x="2796.5" y="1073.5" width="822" height="84.9999" stroke="#000000" stroke-width="4.58333" stroke-linecap="butt" stroke-linejoin="miter" stroke-miterlimit="8" stroke-opacity="1" fill="#D86ECC" fill-opacity="1"/><text fill="#000000" fill-opacity="1" font-family="Arial,Arial_MSFontService,sans-serif" font-style="normal" font-variant="normal" font-weight="400" font-stretch="normal" font-size="55" text-anchor="start" direction="ltr" writing-mode="lr-tb" unicode-bidi="normal" text-decoration="none" transform="matrix(1 0 0 1 3108.82 1136)">Tile Bus</text><path d="M3205.94 1004.5 3205.94 1050.42 3199.06 1050.42 3199.06 1004.5ZM3216.25 1045.84 3202.5 1073.34 3188.75 1045.84Z" fill="#000000" fill-rule="nonzero" fill-opacity="1"/><path d="M3498.94 1004.5 3498.94 1050.42 3492.06 1050.42 3492.06 1004.5ZM3509.25 1045.84 3495.5 1073.34 3481.75 1045.84Z" fill="#000000" fill-rule="nonzero" fill-opacity="1"/><rect x="2796.5" y="631.5" width="246" height="373" stroke="#000000" stroke-width="4.58333" stroke-linecap="butt" stroke-linejoin="miter" stroke-miterlimit="8" stroke-opacity="1" fill="#D86ECC" fill-opacity="1"/><text fill="#000000" fill-opacity="1" font-family="Arial,Arial_MSFontService,sans-serif" font-style="normal" font-variant="normal" font-weight="400" font-stretch="normal" font-size="55" text-anchor="start" direction="ltr" writing-mode="lr-tb" unicode-bidi="normal" text-decoration="none" transform="matrix(6.12323e-17 1 -1 6.12323e-17 2932.25 743)">RoCC</text><text fill="#000000" fill-opacity="1" font-family="Arial,Arial_MSFontService,sans-serif" font-style="normal" font-variant="normal" font-weight="400" font-stretch="normal" font-size="55" text-anchor="start" direction="ltr" writing-mode="lr-tb" unicode-bidi="normal" text-decoration="none" transform="matrix(6.12323e-17 1 -1 6.12323e-17 2866.25 679)">Accelerator</text><path d="M2918.94 1004.5 2918.94 1050.42 2912.06 1050.42 2912.06 1004.5ZM2929.25 1045.84 2915.5 1073.34 2901.75 1045.84Z" fill="#000000" fill-rule="nonzero" fill-opacity="1"/><path d="M3068.42 704.063 3079.76 704.063 3079.76 710.938 3068.42 710.938ZM3073 721.25 3045.5 707.5 3073 693.75Z" fill="#000000" fill-rule="nonzero" fill-opacity="1"/><rect x="3678.5" y="892.5" width="380" height="287" stroke="#000000" stroke-width="4.58333" stroke-linecap="butt" stroke-linejoin="miter" stroke-miterlimit="8" stroke-opacity="1" fill="#D86ECC" fill-opacity="1"/><text fill="#000000" fill-opacity="1" font-family="Arial,Arial_MSFontService,sans-serif" font-style="normal" font-variant="normal" font-weight="400" font-stretch="normal" font-size="55" text-anchor="start" direction="ltr" writing-mode="lr-tb" unicode-bidi="normal" text-decoration="none" transform="matrix(1 0 0 1 3792.86 1023)">MMIO </text><text fill="#000000" fill-opacity="1" font-family="Arial,Arial_MSFontService,sans-serif" font-style="normal" font-variant="normal" font-weight="400" font-stretch="normal" font-size="55" text-anchor="start" direction="ltr" writing-mode="lr-tb" unicode-bidi="normal" text-decoration="none" transform="matrix(1 0 0 1 3729.27 1089)">Accelerator</text><rect x="2130.5" y="1255.5" width="1928" height="86.0002" stroke="#000000" stroke-width="4.58333" stroke-linecap="butt" stroke-linejoin="miter" stroke-miterlimit="8" stroke-opacity="1" fill="#D86ECC" fill-opacity="1"/><text fill="#000000" fill-opacity="1" font-family="Arial,Arial_MSFontService,sans-serif" font-style="normal" font-variant="normal" font-weight="400" font-stretch="normal" font-size="55" text-anchor="start" direction="ltr" writing-mode="lr-tb" unicode-bidi="normal" text-decoration="none" transform="matrix(1 0 0 1 2947.16 1318)">System Bus</text><rect x="2707.5" y="1411.5" width="934" height="84.9999" stroke="#000000" stroke-width="4.58333" stroke-linecap="butt" stroke-linejoin="miter" stroke-miterlimit="8" stroke-opacity="1" fill="#D86ECC" fill-opacity="1"/><text fill="#000000" fill-opacity="1" font-family="Arial,Arial_MSFontService,sans-serif" font-style="normal" font-variant="normal" font-weight="400" font-stretch="normal" font-size="55" text-anchor="start" direction="ltr" writing-mode="lr-tb" unicode-bidi="normal" text-decoration="none" transform="matrix(1 0 0 1 3002.13 1474)">Periphery Bus</text><rect x="3273.5" y="1562.5" width="368" height="86.0002" stroke="#000000" stroke-width="4.58333" stroke-linecap="butt" stroke-linejoin="miter" stroke-miterlimit="8" stroke-opacity="1" fill="#D86ECC" fill-opacity="1"/><text fill="#000000" fill-opacity="1" font-family="Arial,Arial_MSFontService,sans-serif" font-style="normal" font-variant="normal" font-weight="400" font-stretch="normal" font-size="55" text-anchor="start" direction="ltr" writing-mode="lr-tb" unicode-bidi="normal" text-decoration="none" transform="matrix(1 0 0 1 3313.92 1625)">Control Bus</text><rect x="3683.5" y="1412.5" width="375" height="85.9999" stroke="#000000" stroke-width="4.58333" stroke-linecap="butt" stroke-linejoin="miter" stroke-miterlimit="8" stroke-opacity="1" fill="#D86ECC" fill-opacity="1"/><text fill="#000000" fill-opacity="1" font-family="Arial,Arial_MSFontService,sans-serif" font-style="normal" font-variant="normal" font-weight="400" font-stretch="normal" font-size="55" text-anchor="start" direction="ltr" writing-mode="lr-tb" unicode-bidi="normal" text-decoration="none" transform="matrix(1 0 0 1 3750.99 1475)">Front Bus</text><rect x="2706.5" y="1711.5" width="247" height="152" stroke="#000000" stroke-width="4.58333" stroke-linecap="butt" stroke-linejoin="miter" stroke-miterlimit="8" stroke-opacity="1" fill="#D86ECC" fill-opacity="1"/><text fill="#000000" fill-opacity="1" font-family="Arial,Arial_MSFontService,sans-serif" font-style="normal" font-variant="normal" font-weight="400" font-stretch="normal" font-size="55" text-anchor="start" direction="ltr" writing-mode="lr-tb" unicode-bidi="normal" text-decoration="none" transform="matrix(1 0 0 1 2755.34 1807)">UART</text><rect x="2989.5" y="1711.5" width="246" height="152" stroke="#000000" stroke-width="4.58333" stroke-linecap="butt" stroke-linejoin="miter" stroke-miterlimit="8" stroke-opacity="1" fill="#D86ECC" fill-opacity="1"/><text fill="#000000" fill-opacity="1" font-family="Arial,Arial_MSFontService,sans-serif" font-style="normal" font-variant="normal" font-weight="400" font-stretch="normal" font-size="55" text-anchor="start" direction="ltr" writing-mode="lr-tb" unicode-bidi="normal" text-decoration="none" transform="matrix(1 0 0 1 3029.52 1807)">GPIOs</text><path d="M2833.94 1519.42 2833.94 1688.28 2827.06 1688.28 2827.06 1519.42ZM2816.75 1524 2830.5 1496.5 2844.25 1524ZM2844.25 1683.69 2830.5 1711.19 2816.75 1683.69Z" fill="#000000" fill-rule="nonzero" fill-opacity="1"/><path d="M3115.94 1519.42 3115.94 1688.28 3109.06 1688.28 3109.06 1519.42ZM3098.75 1524 3112.5 1496.5 3126.25 1524ZM3126.25 1683.69 3112.5 1711.19 3098.75 1683.69Z" fill="#000000" fill-rule="nonzero" fill-opacity="1"/><rect x="2151.5" y="1680.5" width="246" height="183" stroke="#000000" stroke-width="4.58333" stroke-linecap="butt" stroke-linejoin="miter" stroke-miterlimit="8" stroke-opacity="1" fill="#D86ECC" fill-opacity="1"/><text fill="#000000" fill-opacity="1" font-family="Arial,Arial_MSFontService,sans-serif" font-style="normal" font-variant="normal" font-weight="400" font-stretch="normal" font-size="55" text-anchor="start" direction="ltr" writing-mode="lr-tb" unicode-bidi="normal" text-decoration="none" transform="matrix(1 0 0 1 2243.34 1758)">L2 </text><text fill="#000000" fill-opacity="1" font-family="Arial,Arial_MSFontService,sans-serif" font-style="normal" font-variant="normal" font-weight="400" font-stretch="normal" font-size="55" text-anchor="start" direction="ltr" writing-mode="lr-tb" unicode-bidi="normal" text-decoration="none" transform="matrix(1 0 0 1 2211.25 1824)">Bank</text><rect x="2424.5" y="1680.5" width="246" height="183" stroke="#000000" stroke-width="4.58333" stroke-linecap="butt" stroke-linejoin="miter" stroke-miterlimit="8" stroke-opacity="1" fill="#D86ECC" fill-opacity="1"/><text fill="#000000" fill-opacity="1" font-family="Arial,Arial_MSFontService,sans-serif" font-style="normal" font-variant="normal" font-weight="400" font-stretch="normal" font-size="55" text-anchor="start" direction="ltr" writing-mode="lr-tb" unicode-bidi="normal" text-decoration="none" transform="matrix(1 0 0 1 2516.57 1758)">L2 </text><text fill="#000000" fill-opacity="1" font-family="Arial,Arial_MSFontService,sans-serif" font-style="normal" font-variant="normal" font-weight="400" font-stretch="normal" font-size="55" text-anchor="start" direction="ltr" writing-mode="lr-tb" unicode-bidi="normal" text-decoration="none" transform="matrix(1 0 0 1 2484.49 1824)">Bank</text><path d="M2277.94 1364.42 2277.94 1654.23 2271.06 1654.23 2271.06 1364.42ZM2260.75 1369 2274.5 1341.5 2288.25 1369ZM2288.25 1649.64 2274.5 1677.14 2260.75 1649.64Z" fill="#000000" fill-rule="nonzero" fill-opacity="1"/><path d="M2550.94 1368.42 2550.94 1658.23 2544.06 1658.23 2544.06 1368.42ZM2533.75 1373 2547.5 1345.5 2561.25 1373ZM2561.25 1653.64 2547.5 1681.14 2533.75 1653.64Z" fill="#000000" fill-rule="nonzero" fill-opacity="1"/><path d="M2446.94 1181.42 2446.94 1232.34 2440.06 1232.34 2440.06 1181.42ZM2429.75 1186 2443.5 1158.5 2457.25 1186ZM2457.25 1227.75 2443.5 1255.25 2429.75 1227.75Z" fill="#000000" fill-rule="nonzero" fill-opacity="1"/><path d="M3203.94 1178.42 3203.94 1229.34 3197.06 1229.34 3197.06 1178.42ZM3186.75 1183 3200.5 1155.5 3214.25 1183ZM3214.25 1224.75 3200.5 1252.25 3186.75 1224.75Z" fill="#000000" fill-rule="nonzero" fill-opacity="1"/><path d="M3861.94 1202.42 3861.94 1232.71 3855.06 1232.71 3855.06 1202.42ZM3844.75 1207 3858.5 1179.5 3872.25 1207ZM3872.25 1228.13 3858.5 1255.63 3844.75 1228.13Z" fill="#000000" fill-rule="nonzero" fill-opacity="1"/><path d="M3212.94 1368.42 3212.94 1389.21 3206.06 1389.21 3206.06 1368.42ZM3195.75 1373 3209.5 1345.5 3223.25 1373ZM3223.25 1384.62 3209.5 1412.12 3195.75 1384.62Z" fill="#000000" fill-rule="nonzero" fill-opacity="1"/><path d="M3867.94 1364.42 3867.94 1385.21 3861.06 1385.21 3861.06 1364.42ZM3850.75 1369 3864.5 1341.5 3878.25 1369ZM3878.25 1380.62 3864.5 1408.12 3850.75 1380.62Z" fill="#000000" fill-rule="nonzero" fill-opacity="1"/><path d="M3462.94 1519.42 3462.94 1540.21 3456.06 1540.21 3456.06 1519.42ZM3445.75 1524 3459.5 1496.5 3473.25 1524ZM3473.25 1535.62 3459.5 1563.12 3445.75 1535.62Z" fill="#000000" fill-rule="nonzero" fill-opacity="1"/><rect x="3334.5" y="1692.5" width="307" height="87" stroke="#000000" stroke-width="4.58333" stroke-linecap="butt" stroke-linejoin="miter" stroke-miterlimit="8" stroke-opacity="1" fill="#D86ECC" fill-opacity="1"/><text fill="#000000" fill-opacity="1" font-family="Arial,Arial_MSFontService,sans-serif" font-style="normal" font-variant="normal" font-weight="400" font-stretch="normal" font-size="55" text-anchor="start" direction="ltr" writing-mode="lr-tb" unicode-bidi="normal" text-decoration="none" transform="matrix(1 0 0 1 3366.97 1755)">BootROM</text><rect x="3334.5" y="1800.5" width="307" height="88" stroke="#000000" stroke-width="4.58333" stroke-linecap="butt" stroke-linejoin="miter" stroke-miterlimit="8" stroke-opacity="1" fill="#D86ECC" fill-opacity="1"/><text fill="#000000" fill-opacity="1" font-family="Arial,Arial_MSFontService,sans-serif" font-style="normal" font-variant="normal" font-weight="400" font-stretch="normal" font-size="55" text-anchor="start" direction="ltr" writing-mode="lr-tb" unicode-bidi="normal" text-decoration="none" transform="matrix(1 0 0 1 3426.55 1864)">PLIC</text><rect x="3338.5" y="1908.5" width="303" height="88" stroke="#000000" stroke-width="4.58333" stroke-linecap="butt" stroke-linejoin="miter" stroke-miterlimit="8" stroke-opacity="1" fill="#D86ECC" fill-opacity="1"/><text fill="#000000" fill-opacity="1" font-family="Arial,Arial_MSFontService,sans-serif" font-style="normal" font-variant="normal" font-weight="400" font-stretch="normal" font-size="55" text-anchor="start" direction="ltr" writing-mode="lr-tb" unicode-bidi="normal" text-decoration="none" transform="matrix(1 0 0 1 3410.3 1972)">CLINT</text><rect x="3338.5" y="2013.5" width="303" height="87.9999" stroke="#000000" stroke-width="4.58333" stroke-linecap="butt" stroke-linejoin="miter" stroke-miterlimit="8" stroke-opacity="1" fill="#D86ECC" fill-opacity="1"/><text fill="#000000" fill-opacity="1" font-family="Arial,Arial_MSFontService,sans-serif" font-style="normal" font-variant="normal" font-weight="400" font-stretch="normal" font-size="55" text-anchor="start" direction="ltr" writing-mode="lr-tb" unicode-bidi="normal" text-decoration="none" transform="matrix(1 0 0 1 3409.15 2077)">Debug</text><path d="M3296.5 1734.06 3312.47 1734.06 3312.47 1740.94 3296.5 1740.94ZM3307.89 1723.75 3335.39 1737.5 3307.89 1751.25Z" fill="#000000" fill-rule="nonzero" fill-opacity="1"/><path d="M3298.94 1668.42 3298.94 2050.75 3292.06 2050.75 3292.06 1668.42ZM3281.75 1673 3295.5 1645.5 3309.25 1673Z" fill="#000000" fill-rule="nonzero" fill-opacity="1"/><path d="M3296.5 1841.06 3312.47 1841.06 3312.47 1847.94 3296.5 1847.94ZM3307.89 1830.75 3335.39 1844.5 3307.89 1858.25Z" fill="#000000" fill-rule="nonzero" fill-opacity="1"/><path d="M3296.5 1949.06 3312.47 1949.06 3312.47 1955.94 3296.5 1955.94ZM3307.89 1938.75 3335.39 1952.5 3307.89 1966.25Z" fill="#000000" fill-rule="nonzero" fill-opacity="1"/><path d="M3296.5 2047.06 3312.47 2047.06 3312.47 2053.94 3296.5 2053.94ZM3307.89 2036.75 3335.39 2050.5 3307.89 2064.25Z" fill="#000000" fill-rule="nonzero" fill-opacity="1"/><rect x="3808.5" y="1680.5" width="246" height="152" stroke="#000000" stroke-width="4.58333" stroke-linecap="butt" stroke-linejoin="miter" stroke-miterlimit="8" stroke-opacity="1" fill="#D86ECC" fill-opacity="1"/><text fill="#000000" fill-opacity="1" font-family="Arial,Arial_MSFontService,sans-serif" font-style="normal" font-variant="normal" font-weight="400" font-stretch="normal" font-size="55" text-anchor="start" direction="ltr" writing-mode="lr-tb" unicode-bidi="normal" text-decoration="none" transform="matrix(1 0 0 1 3844.03 1776)">Serdes</text><path d="M22.9167-3.4375 95.5733-3.4375 95.5733 542.89 88.6983 542.89 88.6983 0 92.1358 3.4375 22.9167 3.4375ZM27.5 13.75 0 0 27.5-13.75ZM105.886 538.307 92.1358 565.807 78.3858 538.307Z" fill="#000000" fill-rule="nonzero" fill-opacity="1" transform="matrix(1 -1.22465e-16 -1.22465e-16 -1 3641.5 2057.31)"/><path d="M3934.94 1519.42 3934.94 1653.63 3928.06 1653.63 3928.06 1519.42ZM3917.75 1524 3931.5 1496.5 3945.25 1524ZM3945.25 1649.05 3931.5 1676.55 3917.75 1649.05Z" fill="#000000" fill-rule="nonzero" fill-opacity="1"/><rect x="2146.5" y="1934.5" width="524" height="84.9999" stroke="#000000" stroke-width="4.58333" stroke-linecap="butt" stroke-linejoin="miter" stroke-miterlimit="8" stroke-opacity="1" fill="#D86ECC" fill-opacity="1"/><text fill="#000000" fill-opacity="1" font-family="Arial,Arial_MSFontService,sans-serif" font-style="normal" font-variant="normal" font-weight="400" font-stretch="normal" font-size="55" text-anchor="start" direction="ltr" writing-mode="lr-tb" unicode-bidi="normal" text-decoration="none" transform="matrix(1 0 0 1 2253.95 1997)">Memory Bus</text><path d="M2263.94 1888.42 2263.94 1911.42 2257.06 1911.42 2257.06 1888.42ZM2246.75 1893 2260.5 1865.5 2274.25 1893ZM2274.25 1906.84 2260.5 1934.34 2246.75 1906.84Z" fill="#000000" fill-rule="nonzero" fill-opacity="1"/><path d="M2555.94 1888.42 2555.94 1911.42 2549.06 1911.42 2549.06 1888.42ZM2538.75 1893 2552.5 1865.5 2566.25 1893ZM2566.25 1906.84 2552.5 1934.34 2538.75 1906.84Z" fill="#000000" fill-rule="nonzero" fill-opacity="1"/><rect x="2424.5" y="2083.5" width="246" height="150" stroke="#000000" stroke-width="4.58333" stroke-linecap="butt" stroke-linejoin="miter" stroke-miterlimit="8" stroke-opacity="1" fill="#D86ECC" fill-opacity="1"/><text fill="#000000" fill-opacity="1" font-family="Arial,Arial_MSFontService,sans-serif" font-style="normal" font-variant="normal" font-weight="400" font-stretch="normal" font-size="55" text-anchor="start" direction="ltr" writing-mode="lr-tb" unicode-bidi="normal" text-decoration="none" transform="matrix(1 0 0 1 2466.15 2145)">DRAM </text><text fill="#000000" fill-opacity="1" font-family="Arial,Arial_MSFontService,sans-serif" font-style="normal" font-variant="normal" font-weight="400" font-stretch="normal" font-size="55" text-anchor="start" direction="ltr" writing-mode="lr-tb" unicode-bidi="normal" text-decoration="none" transform="matrix(1 0 0 1 2473.88 2211)">Chan.</text><rect x="2146.5" y="2083.5" width="246" height="150" stroke="#000000" stroke-width="4.58333" stroke-linecap="butt" stroke-linejoin="miter" stroke-miterlimit="8" stroke-opacity="1" fill="#D86ECC" fill-opacity="1"/><text fill="#000000" fill-opacity="1" font-family="Arial,Arial_MSFontService,sans-serif" font-style="normal" font-variant="normal" font-weight="400" font-stretch="normal" font-size="55" text-anchor="start" direction="ltr" writing-mode="lr-tb" unicode-bidi="normal" text-decoration="none" transform="matrix(1 0 0 1 2188.42 2145)">DRAM </text><text fill="#000000" fill-opacity="1" font-family="Arial,Arial_MSFontService,sans-serif" font-style="normal" font-variant="normal" font-weight="400" font-stretch="normal" font-size="55" text-anchor="start" direction="ltr" writing-mode="lr-tb" unicode-bidi="normal" text-decoration="none" transform="matrix(1 0 0 1 2196.14 2211)">Chan.</text><path d="M2263.94 2036.42 2263.94 2059.42 2257.06 2059.42 2257.06 2036.42ZM2246.75 2041 2260.5 2013.5 2274.25 2041ZM2274.25 2054.84 2260.5 2082.34 2246.75 2054.84Z" fill="#000000" fill-rule="nonzero" fill-opacity="1"/><path d="M2555.94 2036.42 2555.94 2059.42 2549.06 2059.42 2549.06 2036.42ZM2538.75 2041 2552.5 2013.5 2566.25 2041ZM2566.25 2054.84 2552.5 2082.34 2538.75 2054.84Z" fill="#000000" fill-rule="nonzero" fill-opacity="1"/></g></g></svg>