<svg width="1595" height="1971" xmlns="http://www.w3.org/2000/svg" xmlns:xlink="http://www.w3.org/1999/xlink" xml:space="preserve" overflow="hidden"><g transform="translate(-366 -210)"><g><rect x="371.5" y="218.5" width="338" height="383" stroke="#042433" stroke-width="6.875" stroke-linecap="butt" stroke-linejoin="miter" stroke-miterlimit="8" stroke-opacity="1" fill="#CAEEFB" fill-opacity="1"/><text fill="#000000" fill-opacity="1" font-family="Arial,Arial_MSFontService,sans-serif" font-style="normal" font-variant="normal" font-weight="400" font-stretch="normal" font-size="73" text-anchor="start" direction="ltr" writing-mode="lr-tb" unicode-bidi="normal" text-decoration="none" transform="matrix(1 0 0 1 438.239 437)">A.java</text><rect x="371.5" y="732.5" width="338" height="383" stroke="#042433" stroke-width="6.875" stroke-linecap="butt" stroke-linejoin="miter" stroke-miterlimit="8" stroke-opacity="1" fill="#D9F2D0" fill-opacity="1"/><text fill="#000000" fill-opacity="1" font-family="Arial,Arial_MSFontService,sans-serif" font-style="normal" font-variant="normal" font-weight="400" font-stretch="normal" font-size="73" text-anchor="start" direction="ltr" writing-mode="lr-tb" unicode-bidi="normal" text-decoration="none" transform="matrix(1 0 0 1 484.932 950)">A.ir</text><rect x="371.5" y="1249.5" width="338" height="383" stroke="#042433" stroke-width="6.875" stroke-linecap="butt" stroke-linejoin="miter" stroke-miterlimit="8" stroke-opacity="1" fill="none"/><text fill="#000000" fill-opacity="1" font-family="Arial,Arial_MSFontService,sans-serif" font-style="normal" font-variant="normal" font-weight="400" font-stretch="normal" font-size="73" text-anchor="start" direction="ltr" writing-mode="lr-tb" unicode-bidi="normal" text-decoration="none" transform="matrix(1 0 0 1 448.265 1468)">A.syn</text><path d="M543.937 598.5 543.938 708.899 537.063 708.899 537.062 598.5ZM554.25 704.315 540.5 731.815 526.75 704.315Z" fill="#156082" fill-rule="nonzero" fill-opacity="1"/><path d="M543.937 1115.5 543.938 1225.9 537.063 1225.9 537.062 1115.5ZM554.25 1221.32 540.5 1248.82 526.75 1221.32Z" fill="#156082" fill-rule="nonzero" fill-opacity="1"/><rect x="371.5" y="1790.5" width="338" height="384" stroke="#042433" stroke-width="6.875" stroke-linecap="butt" stroke-linejoin="miter" stroke-miterlimit="8" stroke-opacity="1" fill="none"/><text fill="#000000" fill-opacity="1" font-family="Arial,Arial_MSFontService,sans-serif" font-style="normal" font-variant="normal" font-weight="400" font-stretch="normal" font-size="73" text-anchor="start" direction="ltr" writing-mode="lr-tb" unicode-bidi="normal" text-decoration="none" transform="matrix(1 0 0 1 452.275 2009)">A.pnr</text><path d="M543.937 1632.5 543.938 1767.41 537.063 1767.41 537.062 1632.5ZM554.25 1762.83 540.5 1790.33 526.75 1762.83Z" fill="#156082" fill-rule="nonzero" fill-opacity="1"/><path d="M710.5 218.5C741.704 218.5 767 222.716 767 227.917L767 400.596C767 405.797 792.296 410.013 823.5 410.013 792.296 410.013 767 414.229 767 419.429L767 589.083C767 594.284 741.704 598.5 710.5 598.5" stroke="#156082" stroke-width="6.875" stroke-linecap="butt" stroke-linejoin="miter" stroke-miterlimit="8" stroke-opacity="1" fill="none" fill-rule="evenodd"/><text fill="#000000" fill-opacity="1" font-family="Arial,Arial_MSFontService,sans-serif" font-style="normal" font-variant="normal" font-weight="400" font-stretch="normal" font-size="83" text-anchor="start" direction="ltr" writing-mode="lr-tb" unicode-bidi="normal" text-decoration="none" transform="matrix(1 0 0 1 880.467 1741)">Backend</text><path d="M710.5 732.5C741.704 732.5 767 736.716 767 741.916L767 916.108C767 921.308 792.296 925.524 823.5 925.524 792.296 925.524 767 929.74 767 934.94L767 1106.08C767 1111.28 741.704 1115.5 710.5 1115.5" stroke="#156082" stroke-width="6.875" stroke-linecap="butt" stroke-linejoin="miter" stroke-miterlimit="8" stroke-opacity="1" fill="none" fill-rule="evenodd"/><text fill="#000000" fill-opacity="1" font-family="Arial,Arial_MSFontService,sans-serif" font-style="normal" font-variant="normal" font-weight="400" font-stretch="normal" font-size="83" text-anchor="start" direction="ltr" writing-mode="lr-tb" unicode-bidi="normal" text-decoration="none" transform="matrix(1 0 0 1 880.467 953)">IR</text><path d="M710.5 1249.5C741.704 1249.5 767.001 1253.72 767.001 1258.92L767.001 1706.27C767.001 1711.47 792.297 1715.68 823.501 1715.68 792.297 1715.68 767.001 1719.9 767.001 1725.1L767.001 2165.08C767.001 2170.28 741.704 2174.5 710.5 2174.5" stroke="#156082" stroke-width="6.875" stroke-linecap="butt" stroke-linejoin="miter" stroke-miterlimit="8" stroke-opacity="1" fill="none" fill-rule="evenodd"/><text fill="#000000" fill-opacity="1" font-family="Arial,Arial_MSFontService,sans-serif" font-style="normal" font-variant="normal" font-weight="400" font-stretch="normal" font-size="83" text-anchor="start" direction="ltr" writing-mode="lr-tb" unicode-bidi="normal" text-decoration="none" transform="matrix(1 0 0 1 880.467 429)">Frontend</text><path d="M1379.5 647C1379.5 586.525 1428.52 537.5 1489 537.5 1549.48 537.5 1598.5 586.525 1598.5 647 1598.5 707.475 1549.48 756.5 1489 756.5 1428.52 756.5 1379.5 707.475 1379.5 647Z" stroke="#000000" stroke-width="6.875" stroke-linecap="butt" stroke-linejoin="miter" stroke-miterlimit="8" stroke-opacity="1" fill="none" fill-rule="evenodd"/><path d="M1379.5 1033C1379.5 972.525 1428.52 923.5 1489 923.5 1549.48 923.5 1598.5 972.525 1598.5 1033 1598.5 1093.48 1549.48 1142.5 1489 1142.5 1428.52 1142.5 1379.5 1093.48 1379.5 1033Z" stroke="#000000" stroke-width="6.875" stroke-linecap="butt" stroke-linejoin="miter" stroke-miterlimit="8" stroke-opacity="1" fill="#D9F2D0" fill-rule="evenodd" fill-opacity="1"/><text fill="#000000" fill-opacity="1" font-family="Aptos,Aptos_MSFontService,sans-serif" font-style="normal" font-variant="normal" font-weight="400" font-stretch="normal" font-size="83" text-anchor="start" direction="ltr" writing-mode="lr-tb" unicode-bidi="normal" text-decoration="none" transform="matrix(1 0 0 1 1465.52 1059)">b</text><path d="M1735.5 650C1735.5 589.525 1784.52 540.5 1845 540.5 1905.48 540.5 1954.5 589.525 1954.5 650 1954.5 710.475 1905.48 759.5 1845 759.5 1784.52 759.5 1735.5 710.475 1735.5 650Z" stroke="#000000" stroke-width="6.875" stroke-linecap="butt" stroke-linejoin="miter" stroke-miterlimit="8" stroke-opacity="1" fill="#D9F2D0" fill-rule="evenodd" fill-opacity="1"/><text fill="#000000" fill-opacity="1" font-family="Aptos,Aptos_MSFontService,sans-serif" font-style="normal" font-variant="normal" font-weight="400" font-stretch="normal" font-size="83" text-anchor="start" direction="ltr" writing-mode="lr-tb" unicode-bidi="normal" text-decoration="none" transform="matrix(1 0 0 1 1822.25 676)">a</text><path d="M1735.5 1033C1735.5 972.525 1784.52 923.5 1845 923.5 1905.48 923.5 1954.5 972.525 1954.5 1033 1954.5 1093.48 1905.48 1142.5 1845 1142.5 1784.52 1142.5 1735.5 1093.48 1735.5 1033Z" stroke="#000000" stroke-width="6.875" stroke-linecap="butt" stroke-linejoin="miter" stroke-miterlimit="8" stroke-opacity="1" fill="none" fill-rule="evenodd"/><path d="M1373.5 1418C1373.5 1357.52 1422.3 1308.5 1482.5 1308.5 1542.7 1308.5 1591.5 1357.52 1591.5 1418 1591.5 1478.48 1542.7 1527.5 1482.5 1527.5 1422.3 1527.5 1373.5 1478.48 1373.5 1418Z" stroke="#000000" stroke-width="6.875" stroke-linecap="butt" stroke-linejoin="miter" stroke-miterlimit="8" stroke-opacity="1" fill="none" fill-rule="evenodd"/><path d="M1728.5 1418C1728.5 1357.52 1777.52 1308.5 1838 1308.5 1898.47 1308.5 1947.5 1357.52 1947.5 1418 1947.5 1478.48 1898.47 1527.5 1838 1527.5 1777.52 1527.5 1728.5 1478.48 1728.5 1418Z" stroke="#000000" stroke-width="6.875" stroke-linecap="butt" stroke-linejoin="miter" stroke-miterlimit="8" stroke-opacity="1" fill="none" fill-rule="evenodd"/><path d="M1569.09 722.244 1754.92 935.828 1749.73 940.34 1563.91 726.756ZM1759.69 925.601 1767.37 955.373 1738.94 943.651Z" fill="#156082" fill-rule="nonzero" fill-opacity="1"/><path d="M1492.94 756.5 1492.94 900.37 1486.06 900.37 1486.06 756.5ZM1503.25 895.786 1489.5 923.287 1475.75 895.787Z" fill="#156082" fill-rule="nonzero" fill-opacity="1"/><path d="M1.97944-2.81037 261.469 179.957 257.51 185.578-1.97944 2.81037ZM263.66 168.886 278.225 195.963 247.824 191.369Z" fill="#156082" fill-rule="nonzero" fill-opacity="1" transform="matrix(-1 0 0 1 1844.72 759.5)"/><path d="M3.4375-7.56812e-06 3.43781 141.004-3.43719 141.004-3.4375 7.56812e-06ZM13.7503 136.42 0.000360892 163.92-13.7497 136.42Z" fill="#156082" fill-rule="nonzero" fill-opacity="1" transform="matrix(-1 0 0 1 1844.5 759.5)"/><path d="M3.4347-0.138617 9.20983 142.959 2.34043 143.237-3.4347 0.138617ZM19.3291 137.964 6.69925 165.996-8.14851 139.073Z" fill="#156082" fill-rule="nonzero" fill-opacity="1" transform="matrix(-1 0 0 1 1489.2 1142.5)"/><path d="M1491.53 1139.72 1744.54 1324.26 1740.48 1329.81 1487.47 1145.28ZM1746.91 1313.23 1761.03 1340.54 1730.7 1335.44Z" fill="#156082" fill-rule="nonzero" fill-opacity="1"/></g></g></svg>