<svg width="1632" height="935" xmlns="http://www.w3.org/2000/svg" xmlns:xlink="http://www.w3.org/1999/xlink" xml:space="preserve" overflow="hidden"><g transform="translate(-137 -815)"><g><rect x="141.5" y="822.5" width="456" height="176" stroke="#000000" stroke-width="6.875" stroke-linecap="butt" stroke-linejoin="miter" stroke-miterlimit="8" stroke-opacity="1" fill="#DCEAF7" fill-opacity="1"/><text fill="#000000" fill-opacity="1" font-family="Aptos,Aptos_MSFontService,sans-serif" font-style="normal" font-variant="normal" font-weight="400" font-stretch="normal" font-size="83" text-anchor="start" direction="ltr" writing-mode="lr-tb" unicode-bidi="normal" text-decoration="none" transform="matrix(1 0 0 1 236.398 937)">A.scala</text><rect x="670.5" y="822.5" width="456" height="176" stroke="#000000" stroke-width="6.875" stroke-linecap="butt" stroke-linejoin="miter" stroke-miterlimit="8" stroke-opacity="1" fill="#DCEAF7" fill-opacity="1"/><text fill="#000000" fill-opacity="1" font-family="Aptos,Aptos_MSFontService,sans-serif" font-style="normal" font-variant="normal" font-weight="400" font-stretch="normal" font-size="83" text-anchor="start" direction="ltr" writing-mode="lr-tb" unicode-bidi="normal" text-decoration="none" transform="matrix(1 0 0 1 766.719 937)">B.scala</text><rect x="141.5" y="1157.5" width="456" height="156" stroke="#000000" stroke-width="6.875" stroke-linecap="butt" stroke-linejoin="miter" stroke-miterlimit="8" stroke-opacity="1" fill="#83CBEB" fill-opacity="1"/><text fill="#000000" fill-opacity="1" font-family="Aptos,Aptos_MSFontService,sans-serif" font-style="normal" font-variant="normal" font-weight="400" font-stretch="normal" font-size="83" text-anchor="start" direction="ltr" writing-mode="lr-tb" unicode-bidi="normal" text-decoration="none" transform="matrix(1 0 0 1 238.85 1261)">A.class</text><rect x="670.5" y="1157.5" width="456" height="156" stroke="#000000" stroke-width="6.875" stroke-linecap="butt" stroke-linejoin="miter" stroke-miterlimit="8" stroke-opacity="1" fill="#83CBEB" fill-opacity="1"/><text fill="#000000" fill-opacity="1" font-family="Aptos,Aptos_MSFontService,sans-serif" font-style="normal" font-variant="normal" font-weight="400" font-stretch="normal" font-size="83" text-anchor="start" direction="ltr" writing-mode="lr-tb" unicode-bidi="normal" text-decoration="none" transform="matrix(1 0 0 1 769.172 1261)">B.class</text><rect x="1223.5" y="824.5" width="529" height="174" stroke="#000000" stroke-width="6.875" stroke-linecap="butt" stroke-linejoin="miter" stroke-miterlimit="8" stroke-opacity="1" fill="#DCEAF7" fill-opacity="1"/><text fill="#000000" fill-opacity="1" font-family="Aptos,Aptos_MSFontService,sans-serif" font-style="normal" font-variant="normal" font-weight="400" font-stretch="normal" font-size="83" text-anchor="start" direction="ltr" writing-mode="lr-tb" unicode-bidi="normal" text-decoration="none" transform="matrix(1 0 0 1 1256.05 937)">Builder.scala</text><rect x="1223.5" y="1157.5" width="529" height="156" stroke="#000000" stroke-width="6.875" stroke-linecap="butt" stroke-linejoin="miter" stroke-miterlimit="8" stroke-opacity="1" fill="#83CBEB" fill-opacity="1"/><text fill="#000000" fill-opacity="1" font-family="Aptos,Aptos_MSFontService,sans-serif" font-style="normal" font-variant="normal" font-weight="400" font-stretch="normal" font-size="83" text-anchor="start" direction="ltr" writing-mode="lr-tb" unicode-bidi="normal" text-decoration="none" transform="matrix(1 0 0 1 1258.5 1261)">Builder.class</text><path d="M372.938 998.5 372.938 1134.54 366.063 1134.54 366.063 998.5ZM383.25 1129.96 369.5 1157.46 355.75 1129.96Z" fill="#156082" fill-rule="nonzero" fill-opacity="1"/><path d="M901.938 998.5 901.938 1134.54 895.063 1134.54 895.063 998.5ZM912.251 1129.96 898.501 1157.46 884.751 1129.96Z" fill="#156082" fill-rule="nonzero" fill-opacity="1"/><path d="M1490.94 998.5 1490.94 1134.54 1484.06 1134.54 1484.06 998.5ZM1501.25 1129.95 1487.5 1157.45 1473.75 1129.95Z" fill="#156082" fill-rule="nonzero" fill-opacity="1"/><path d="M3.4375-1.44902e-05 3.43849 233.927-3.43651 233.927-3.4375 1.44902e-05ZM13.751 229.343 0.00108268 256.844-13.749 229.344Z" fill="#156082" fill-rule="nonzero" fill-opacity="1" transform="matrix(-1 0 0 1 898.501 1313.5)"/><rect x="670.5" y="1570.5" width="456" height="155" stroke="#000000" stroke-width="6.875" stroke-linecap="butt" stroke-linejoin="miter" stroke-miterlimit="8" stroke-opacity="1" fill="#46B1E1" fill-opacity="1"/><text fill="#000000" fill-opacity="1" font-family="Aptos,Aptos_MSFontService,sans-serif" font-style="normal" font-variant="normal" font-weight="400" font-stretch="normal" font-size="83" text-anchor="start" direction="ltr" writing-mode="lr-tb" unicode-bidi="normal" text-decoration="none" transform="matrix(1 0 0 1 824.846 1674)">B.sv</text><rect x="141.5" y="1570.5" width="456" height="155" stroke="#000000" stroke-width="6.875" stroke-linecap="butt" stroke-linejoin="miter" stroke-miterlimit="8" stroke-opacity="1" fill="#46B1E1" fill-opacity="1"/><text fill="#000000" fill-opacity="1" font-family="Aptos,Aptos_MSFontService,sans-serif" font-style="normal" font-variant="normal" font-weight="400" font-stretch="normal" font-size="83" text-anchor="start" direction="ltr" writing-mode="lr-tb" unicode-bidi="normal" text-decoration="none" transform="matrix(1 0 0 1 294.526 1674)">A.sv</text><path d="M372.938 1313.5 372.938 1547.43 366.063 1547.43 366.063 1313.5ZM383.25 1542.84 369.5 1570.34 355.75 1542.84Z" fill="#156082" fill-rule="nonzero" fill-opacity="1"/><path d="M1491.05 1313.5 1491.05 1391.16 392.412 1391.16 392.412 1384.29 1487.62 1384.29 1484.18 1387.72 1484.18 1313.5ZM397 1401.47 369.5 1387.72 397 1373.97Z" fill="#156082" fill-rule="nonzero" fill-opacity="1"/><path d="M0 3.4375-0.288545 3.4375 3.14895 0 3.14895 85.8007-0.288545 82.3632 566.025 82.3632 566.025 89.2382-3.72605 89.2382-3.72605-3.4375 0-3.4375ZM561.441 72.0507 588.941 85.8007 561.441 99.5507Z" fill="#156082" fill-rule="nonzero" fill-opacity="1" transform="matrix(-1 1.22465e-16 1.22465e-16 1 1487.44 1386.5)"/></g></g></svg>