<svg width="2333" height="1609" xmlns="http://www.w3.org/2000/svg" xmlns:xlink="http://www.w3.org/1999/xlink" xml:space="preserve" overflow="hidden"><g transform="translate(-18 -398)"><g><path d="M570.5 782.5 2345.45 782.5" stroke="#000000" stroke-width="6.875" stroke-linecap="butt" stroke-linejoin="miter" stroke-miterlimit="8" stroke-opacity="1" fill="none" fill-rule="evenodd"/><rect x="634.5" y="404.5" width="394" height="298" stroke="#000000" stroke-width="6.875" stroke-linecap="butt" stroke-linejoin="miter" stroke-miterlimit="8" stroke-opacity="1" fill="none"/><text fill="#000000" fill-opacity="1" font-family="Aptos,Aptos_MSFontService,sans-serif" font-style="normal" font-variant="normal" font-weight="400" font-stretch="normal" font-size="83" text-anchor="start" direction="ltr" writing-mode="lr-tb" unicode-bidi="normal" text-decoration="none" transform="matrix(1 0 0 1 766.886 580)">RT</text><text fill="#000000" fill-opacity="1" font-family="Aptos,Aptos_MSFontService,sans-serif" font-style="normal" font-variant="normal" font-weight="400" font-stretch="normal" font-size="83" text-anchor="start" direction="ltr" writing-mode="lr-tb" unicode-bidi="normal" text-decoration="none" transform="matrix(1 0 0 1 854.68 580)">L</text><rect x="1243.5" y="404.5" width="394" height="298" stroke="#000000" stroke-width="6.875" stroke-linecap="butt" stroke-linejoin="miter" stroke-miterlimit="8" stroke-opacity="1" fill="none"/><text fill="#000000" fill-opacity="1" font-family="Aptos,Aptos_MSFontService,sans-serif" font-style="normal" font-variant="normal" font-weight="400" font-stretch="normal" font-size="83" text-anchor="start" direction="ltr" writing-mode="lr-tb" unicode-bidi="normal" text-decoration="none" transform="matrix(1 0 0 1 1341.89 580)">Calyx</text><rect x="1852.5" y="404.5" width="394" height="298" stroke="#000000" stroke-width="6.875" stroke-linecap="butt" stroke-linejoin="miter" stroke-miterlimit="8" stroke-opacity="1" fill="none"/><text fill="#000000" fill-opacity="1" font-family="Aptos,Aptos_MSFontService,sans-serif" font-style="normal" font-variant="normal" font-weight="400" font-stretch="normal" font-size="83" text-anchor="start" direction="ltr" writing-mode="lr-tb" unicode-bidi="normal" text-decoration="none" transform="matrix(1 0 0 1 1975.84 580)">HLS</text><text fill="#000000" fill-opacity="1" font-family="Aptos,Aptos_MSFontService,sans-serif" font-style="normal" font-variant="normal" font-weight="400" font-stretch="normal" font-size="83" text-anchor="start" direction="ltr" writing-mode="lr-tb" unicode-bidi="normal" text-decoration="none" transform="matrix(1 0 0 1 134.71 579)">Frontend</text><text fill="#000000" fill-opacity="1" font-family="Aptos,Aptos_MSFontService,sans-serif" font-style="normal" font-variant="normal" font-weight="400" font-stretch="normal" font-size="83" text-anchor="start" direction="ltr" writing-mode="lr-tb" unicode-bidi="normal" text-decoration="none" transform="matrix(1 0 0 1 72.0096 678)">abstraction</text><text fill="#000000" fill-opacity="1" font-family="Aptos,Aptos_MSFontService,sans-serif" font-style="normal" font-variant="normal" font-weight="400" font-stretch="normal" font-size="83" text-anchor="start" direction="ltr" writing-mode="lr-tb" unicode-bidi="normal" text-decoration="none" transform="matrix(1 0 0 1 478.712 678)">s</text><text fill="#000000" fill-opacity="1" font-family="Aptos,Aptos_MSFontService,sans-serif" font-style="normal" font-variant="normal" font-weight="400" font-stretch="normal" font-size="83" text-anchor="start" direction="ltr" writing-mode="lr-tb" unicode-bidi="normal" text-decoration="none" transform="matrix(1 0 0 1 195.922 907)">IR</text><rect x="634.5" y="1610.5" width="394" height="298" stroke="#000000" stroke-width="6.875" stroke-linecap="butt" stroke-linejoin="miter" stroke-miterlimit="8" stroke-opacity="1" fill="none"/><text fill="#000000" fill-opacity="1" font-family="Aptos,Aptos_MSFontService,sans-serif" font-style="normal" font-variant="normal" font-weight="400" font-stretch="normal" font-size="83" text-anchor="start" direction="ltr" writing-mode="lr-tb" unicode-bidi="normal" text-decoration="none" transform="matrix(1 0 0 1 721.774 1736)">Graph</text><text fill="#000000" fill-opacity="1" font-family="Aptos,Aptos_MSFontService,sans-serif" font-style="normal" font-variant="normal" font-weight="400" font-stretch="normal" font-size="83" text-anchor="start" direction="ltr" writing-mode="lr-tb" unicode-bidi="normal" text-decoration="none" transform="matrix(1 0 0 1 751.016 1835)">Rep</text><text fill="#000000" fill-opacity="1" font-family="Aptos,Aptos_MSFontService,sans-serif" font-style="normal" font-variant="normal" font-weight="400" font-stretch="normal" font-size="83" text-anchor="start" direction="ltr" writing-mode="lr-tb" unicode-bidi="normal" text-decoration="none" transform="matrix(1 0 0 1 888.31 1835)">.</text><rect x="1243.5" y="1238.5" width="394" height="297" stroke="#000000" stroke-width="6.875" stroke-linecap="butt" stroke-linejoin="miter" stroke-miterlimit="8" stroke-opacity="1" fill="none"/><text fill="#000000" fill-opacity="1" font-family="Aptos,Aptos_MSFontService,sans-serif" font-style="normal" font-variant="normal" font-weight="400" font-stretch="normal" font-size="83" text-anchor="start" direction="ltr" writing-mode="lr-tb" unicode-bidi="normal" text-decoration="none" transform="matrix(1 0 0 1 1341.89 1413)">Calyx</text><rect x="1852.5" y="898.5" width="394" height="298" stroke="#000000" stroke-width="6.875" stroke-linecap="butt" stroke-linejoin="miter" stroke-miterlimit="8" stroke-opacity="1" fill="none"/><text fill="#000000" fill-opacity="1" font-family="Aptos,Aptos_MSFontService,sans-serif" font-style="normal" font-variant="normal" font-weight="400" font-stretch="normal" font-size="64" text-anchor="start" direction="ltr" writing-mode="lr-tb" unicode-bidi="normal" text-decoration="none" transform="matrix(1 0 0 1 1902.34 1029)">Behavioral</text><text fill="#000000" fill-opacity="1" font-family="Aptos,Aptos_MSFontService,sans-serif" font-style="normal" font-variant="normal" font-weight="400" font-stretch="normal" font-size="64" text-anchor="start" direction="ltr" writing-mode="lr-tb" unicode-bidi="normal" text-decoration="none" transform="matrix(1 0 0 1 1960.37 1106)">model</text><path d="M2.90604-1.83612 205.325 318.535 199.513 322.207-2.90604 1.83612ZM211.595 309.152 214.66 339.744 188.347 323.841Z" fill="#000000" fill-rule="nonzero" fill-opacity="1" transform="matrix(-1 0 0 1 1852.16 1047.5)"/><path d="M2.97773-1.71742 206.189 350.616 200.233 354.051-2.97773 1.71742ZM212.832 341.494 214.66 372.185 189.01 355.233Z" fill="#000000" fill-rule="nonzero" fill-opacity="1" transform="matrix(-1 0 0 1 1243.16 1386.5)"/><path d="M3.4375-1.36742e-06 3.43785 884.317-3.43715 884.317-3.4375 1.36742e-06ZM13.7503 879.734 0.000360892 907.234-13.7497 879.734Z" fill="#000000" fill-rule="nonzero" fill-opacity="1" transform="matrix(-1 0 0 1 831.5 702.5)"/><path d="M3.4375-2.31861e-06 3.43785 512.132-3.43715 512.132-3.4375 2.31861e-06ZM13.7503 507.549 0.000360892 535.049-13.7497 507.549Z" fill="#000000" fill-rule="nonzero" fill-opacity="1" transform="matrix(-1 0 0 1 1440.5 702.5)"/><path d="M3.4375-6.35198e-06 3.43782 172.388-3.43718 172.388-3.4375 6.35198e-06ZM13.7503 167.804 0.000360892 195.304-13.7497 167.804Z" fill="#000000" fill-rule="nonzero" fill-opacity="1" transform="matrix(-1 0 0 1 2049.5 702.5)"/><path d="M836.123 1906.6 836.564 1910.47 836.325 1909.4 837.63 1913.26 837.25 1912.4 838.393 1914.45 829.385 1919.47 828.013 1917.01 826.38 1912.18 825.877 1907.77ZM843.921 1921.41 845.241 1922.75 844.876 1922.41 849.358 1926.16 849.038 1925.92 851.144 1927.42 845.162 1935.82 842.892 1934.2 838.065 1930.16 836.57 1928.64ZM859.5 1932.86 859.871 1933.09 859.631 1932.95 866.202 1936.55 865.993 1936.44 868.136 1937.49 863.607 1946.75 861.358 1945.65 854.561 1941.93 854.071 1941.63ZM877.294 1941.76 880.847 1943.33 880.683 1943.26 886.652 1945.65 882.819 1955.22 876.768 1952.8 873.134 1951.2ZM896.163 1949.21 897.915 1949.85 897.782 1949.8 905.792 1952.48 902.519 1962.26 894.442 1959.56 892.624 1958.89ZM915.516 1955.51 917.157 1956.01 917.044 1955.98 925.316 1958.32 922.512 1968.24 914.184 1965.89 912.487 1965.37ZM935.18 1960.93 938.331 1961.75 938.233 1961.73 945.096 1963.37 942.698 1973.4 935.786 1971.74 932.585 1970.91ZM955.056 1965.64 961.203 1966.99 961.114 1966.97 965.054 1967.76 963.021 1977.87 959.036 1977.07 952.845 1975.71ZM975.046 1969.72 985.204 1971.5 983.427 1981.66 973.268 1979.88ZM995.362 1973.28 998.229 1973.78 998.066 1973.75 1005.39 1974.8 1003.94 1985 996.533 1983.95 993.585 1983.44ZM1015.6 1976.25 1024.33 1977.49 1024.18 1977.47 1025.66 1977.63 1024.53 1987.88 1022.96 1987.71 1014.15 1986.46ZM1035.91 1978.77 1046.16 1979.91 1045.03 1990.16 1034.78 1989.02ZM1056.27 1980.87 1066.55 1981.69 1065.73 1991.97 1055.45 1991.15ZM1076.83 1982.52 1079.01 1982.69 1078.85 1982.68 1086.96 1983.08 1086.46 1993.38 1078.27 1992.98 1076.01 1992.8ZM1097.26 1983.58 1107.12 1984.06 1106.96 1984.05 1107.4 1984.06 1107.23 1994.37 1106.7 1994.36 1096.76 1993.88ZM1117.71 1984.23 1128.02 1984.4 1127.85 1994.72 1117.54 1994.54ZM1138.01 1984.4 1148.31 1983.92 1148.78 1994.23 1138.48 1994.7ZM1158.07 1982.66 1163.17 1981.97 1162.73 1982.04 1167.78 1980.91 1170.05 1990.97 1164.78 1992.15 1159.47 1992.88ZM1177.41 1978.67 1187.25 1975.6 1190.33 1985.44 1180.49 1988.52ZM1196.55 1972.16 1204.22 1969.11 1203.88 1969.26 1205.74 1968.36 1210.23 1977.64 1208.2 1978.62 1200.37 1981.74ZM1215.02 1963.87 1217.72 1962.56 1217.42 1962.72 1223.78 1959.11 1228.87 1968.07 1222.37 1971.77 1219.51 1973.15ZM1232.41 1954.08 1241.04 1948.43 1246.68 1957.06 1238.05 1962.71ZM1249.21 1942.65 1257.32 1936.65 1257.1 1936.82 1257.27 1936.68 1263.85 1944.62 1263.57 1944.85 1255.34 1950.94ZM1265.21 1930.1 1270.11 1926.05 1269.91 1926.22 1272.82 1923.55 1279.8 1931.14 1276.79 1933.9 1271.79 1938.05ZM1280.42 1916.57 1282.64 1914.53 1282.46 1914.7 1287.59 1909.51 1294.92 1916.77 1289.71 1922.04 1287.39 1924.17ZM1294.84 1902.18 1294.88 1902.14 1294.72 1902.31 1301.59 1894.7 1309.25 1901.61 1302.3 1909.3 1302.17 1909.43ZM1308.27 1887.14 1314.84 1879.19 1322.79 1885.76 1316.22 1893.71ZM1321.12 1871.29 1327.36 1863.07 1335.57 1869.31 1329.34 1877.52ZM1333.26 1854.87 1339.16 1846.41 1347.62 1852.32 1341.71 1860.77ZM1344.69 1837.95 1350.26 1829.27 1358.94 1834.84 1353.37 1843.52ZM1355.43 1820.57 1360.65 1811.73 1360.56 1811.89 1360.58 1811.86 1369.65 1816.77 1369.58 1816.89 1364.31 1825.81ZM1365.5 1802.79 1370.06 1794.37 1369.97 1794.54 1370.3 1793.88 1379.54 1798.46 1379.17 1799.21 1374.56 1807.7ZM1374.89 1784.64 1378.94 1776.48 1378.86 1776.64 1379.36 1775.55 1388.75 1779.81 1388.22 1780.98 1384.13 1789.23ZM1383.62 1766.16 1387.27 1758.08 1387.2 1758.25 1387.75 1756.91 1397.29 1760.83 1396.7 1762.26 1393.01 1770.41ZM1391.68 1747.37 1395.03 1739.23 1394.96 1739.4 1395.49 1737.98 1405.16 1741.57 1404.6 1743.07 1401.22 1751.3ZM1399.08 1728.32 1402.18 1719.97 1402.12 1720.14 1402.56 1718.8 1412.35 1722.05 1411.87 1723.47 1408.74 1731.91ZM1405.81 1709.02 1408.69 1700.33 1408.63 1700.5 1408.96 1699.39 1418.86 1702.29 1418.5 1703.49 1415.59 1712.26ZM1411.86 1689.49 1414.54 1680.36 1414.49 1680.54 1414.68 1679.77 1424.68 1682.31 1424.46 1683.18 1421.76 1692.39ZM1417.23 1669.77 1419.69 1660.11 1419.65 1660.29 1419.72 1659.96 1429.8 1662.14 1429.71 1662.56 1427.22 1672.32ZM1421.91 1649.88 1424.09 1639.8 1434.17 1641.98 1431.99 1652.06ZM1425.87 1629.84 1427.69 1619.68 1437.84 1621.5 1436.03 1631.65ZM1429.12 1609.67 1430.55 1599.45 1440.76 1600.88 1439.33 1611.1ZM1431.61 1589.4 1432.65 1579.14 1442.91 1580.17 1441.87 1590.43ZM1433.28 1569.09 1433.73 1560.49 1444.03 1561.04 1443.57 1569.64ZM1423.25 1565.4 1439.74 1535 1454.17 1566.44Z" fill="#000000" fill-rule="nonzero" fill-opacity="1"/><text fill="#000000" fill-opacity="1" font-family="Aptos,Aptos_MSFontService,sans-serif" font-style="normal" font-variant="normal" font-weight="400" font-stretch="normal" font-size="83" text-anchor="start" direction="ltr" writing-mode="lr-tb" unicode-bidi="normal" text-decoration="none" transform="matrix(1 0 0 1 1382.47 1933)">?</text></g></g></svg>