<svg width="2132" height="1077" xmlns="http://www.w3.org/2000/svg" xmlns:xlink="http://www.w3.org/1999/xlink" xml:space="preserve" overflow="hidden"><g transform="translate(-297 -1801)"><g><path d="M875.5 2105.5 1028.55 2281.08" stroke="#000000" stroke-width="20.625" stroke-linecap="round" stroke-linejoin="miter" stroke-miterlimit="8" stroke-opacity="1" fill="none" fill-rule="evenodd"/><path d="M0 0 153.045 144.319" stroke="#000000" stroke-width="20.625" stroke-linecap="round" stroke-linejoin="miter" stroke-miterlimit="8" stroke-opacity="1" fill="none" fill-rule="evenodd" transform="matrix(1 0 0 -1 875.5 2712.82)"/><path d="M1028.5 2280.5 1028.5 2568.9" stroke="#000000" stroke-width="20.625" stroke-linecap="round" stroke-linejoin="miter" stroke-miterlimit="8" stroke-opacity="1" fill="none" fill-rule="evenodd"/><path d="M875.5 2107.5 875.5 2384.26" stroke="#000000" stroke-width="20.625" stroke-linecap="round" stroke-linejoin="miter" stroke-miterlimit="8" stroke-opacity="1" fill="none" fill-rule="evenodd"/><path d="M875.5 2451.5 875.5 2712.49" stroke="#000000" stroke-width="20.625" stroke-linecap="round" stroke-linejoin="miter" stroke-miterlimit="8" stroke-opacity="1" fill="none" fill-rule="evenodd"/><path d="M875.5 2384.5 908.935 2421.76" stroke="#000000" stroke-width="20.625" stroke-linecap="round" stroke-linejoin="miter" stroke-miterlimit="8" stroke-opacity="1" fill="none" fill-rule="evenodd"/><path d="M0 0 33.4345 31.5283" stroke="#000000" stroke-width="20.625" stroke-linecap="round" stroke-linejoin="miter" stroke-miterlimit="8" stroke-opacity="1" fill="none" fill-rule="evenodd" transform="matrix(1 0 0 -1 875.5 2453.03)"/><rect x="1432.5" y="2402.5" width="198" height="461" stroke="#000000" stroke-width="20.625" stroke-linecap="round" stroke-linejoin="miter" stroke-miterlimit="8" stroke-opacity="1" fill="none"/><path d="M1432.5 2662.5 1524.5 2750 1432.5 2837.5Z" stroke="#000000" stroke-width="20.625" stroke-linecap="round" stroke-linejoin="miter" stroke-miterlimit="8" stroke-opacity="1" fill="none" fill-rule="evenodd"/><path d="M308.5 2046.19 775.948 2046.19 775.948 2249.34 765.636 2239.03 823.632 2239.03C829.328 2239.03 833.945 2243.65 833.945 2249.34 833.945 2255.04 829.328 2259.66 823.632 2259.66L755.323 2259.66 755.323 2056.5 765.636 2066.81 308.5 2066.81C302.804 2066.81 298.187 2062.2 298.187 2056.5 298.187 2050.8 302.804 2046.19 308.5 2046.19ZM813.32 2218.41 875.195 2249.34 813.32 2280.28Z" fill="#000000" fill-rule="nonzero" fill-opacity="1"/><path d="M0-10.3125 470.854-10.3125 470.854 166.351 460.542 156.039 515.132 156.039C520.828 156.039 525.445 160.656 525.445 166.351 525.445 172.047 520.828 176.664 515.132 176.664L450.229 176.664 450.229 0 460.542 10.3125 0 10.3125C-5.69544 10.3125-10.3125 5.69544-10.3125 0-10.3125-5.69544-5.69544-10.3125 0-10.3125ZM504.82 135.414 566.695 166.351 504.82 197.289Z" fill="#000000" fill-rule="nonzero" fill-opacity="1" transform="matrix(1 0 0 -1 308.5 2762.85)"/><path d="M1028.5 2411.19 1240.89 2411.19 1240.89 2497.45 1230.58 2487.13 1381.1 2487.13C1386.8 2487.13 1391.41 2491.75 1391.41 2497.45 1391.41 2503.14 1386.8 2507.76 1381.1 2507.76L1220.27 2507.76 1220.27 2421.5 1230.58 2431.81 1028.5 2431.81C1022.8 2431.81 1018.19 2427.2 1018.19 2421.5 1018.19 2415.8 1022.8 2411.19 1028.5 2411.19ZM1370.79 2466.51 1432.66 2497.45 1370.79 2528.38Z" fill="#000000" fill-rule="nonzero" fill-opacity="1"/><path d="M1634.5 2481.19 2009.61 2481.19 2009.61 2607.63 1999.3 2597.32 2312.54 2597.32C2318.24 2597.32 2322.85 2601.93 2322.85 2607.63 2322.85 2613.32 2318.24 2617.94 2312.54 2617.94L1988.99 2617.94 1988.99 2491.5 1999.3 2501.81 1634.5 2501.81C1628.8 2501.81 1624.19 2497.2 1624.19 2491.5 1624.19 2485.8 1628.8 2481.19 1634.5 2481.19ZM2302.23 2576.69 2364.1 2607.63 2302.23 2638.57Z" fill="#000000" fill-rule="nonzero" fill-opacity="1"/><path d="M1230.5 2419.62 1230.5 2222.13 1518.66 2222.13 1518.66 1865.5" stroke="#000000" stroke-width="20.625" stroke-linecap="round" stroke-linejoin="miter" stroke-miterlimit="8" stroke-opacity="1" fill="none" fill-rule="evenodd"/><path d="M1518.5 1855.19 2313.99 1855.19C2319.69 1855.19 2324.31 1859.8 2324.31 1865.5 2324.31 1871.2 2319.69 1875.81 2313.99 1875.81L1518.5 1875.81C1512.8 1875.81 1508.19 1871.2 1508.19 1865.5 1508.19 1859.8 1512.8 1855.19 1518.5 1855.19ZM2303.68 1834.56 2365.56 1865.5 2303.68 1896.44Z" fill="#000000" fill-rule="nonzero" fill-opacity="1"/></g></g></svg>