<svg width="2168" height="1893" xmlns="http://www.w3.org/2000/svg" xmlns:xlink="http://www.w3.org/1999/xlink" xml:space="preserve" overflow="hidden"><g transform="translate(-412 -467)"><g><rect x="423" y="478" width="2146" height="1871" stroke="#000000" stroke-width="13.75" stroke-linecap="butt" stroke-linejoin="miter" stroke-miterlimit="8" stroke-opacity="1" fill="none"/><text fill="#000000" fill-opacity="1" font-family="Arial,Arial_MSFontService,sans-serif" font-style="normal" font-variant="normal" font-weight="700" font-stretch="normal" font-size="55" text-anchor="start" direction="ltr" writing-mode="lr-tb" unicode-bidi="normal" text-decoration="none" transform="matrix(1 0 0 1 1180.54 547)">Digital SoC Architecture</text><rect x="514" y="576" width="585" height="637" stroke="#000000" stroke-width="10.3125" stroke-linecap="butt" stroke-linejoin="miter" stroke-miterlimit="8" stroke-opacity="1" fill="none"/><text fill="#000000" fill-opacity="1" font-family="Arial,Arial_MSFontService,sans-serif" font-style="normal" font-variant="normal" font-weight="400" font-stretch="normal" font-size="55" text-anchor="start" direction="ltr" writing-mode="lr-tb" unicode-bidi="normal" text-decoration="none" transform="matrix(1 0 0 1 677.811 645)">RocketTile</text><rect x="537.5" y="665.5" width="246" height="153" stroke="#000000" stroke-width="4.58333" stroke-linecap="butt" stroke-linejoin="miter" stroke-miterlimit="8" stroke-opacity="1" fill="none"/><text fill="#000000" fill-opacity="1" font-family="Arial,Arial_MSFontService,sans-serif" font-style="normal" font-variant="normal" font-weight="400" font-stretch="normal" font-size="55" text-anchor="start" direction="ltr" writing-mode="lr-tb" unicode-bidi="normal" text-decoration="none" transform="matrix(1 0 0 1 574.54 728)">Rocket</text><text fill="#000000" fill-opacity="1" font-family="Arial,Arial_MSFontService,sans-serif" font-style="normal" font-variant="normal" font-weight="400" font-stretch="normal" font-size="55" text-anchor="start" direction="ltr" writing-mode="lr-tb" unicode-bidi="normal" text-decoration="none" transform="matrix(1 0 0 1 600.596 794)">Core</text><rect x="829.5" y="665.5" width="246" height="153" stroke="#000000" stroke-width="4.58333" stroke-linecap="butt" stroke-linejoin="miter" stroke-miterlimit="8" stroke-opacity="1" fill="none"/><text fill="#000000" fill-opacity="1" font-family="Arial,Arial_MSFontService,sans-serif" font-style="normal" font-variant="normal" font-weight="400" font-stretch="normal" font-size="55" text-anchor="start" direction="ltr" writing-mode="lr-tb" unicode-bidi="normal" text-decoration="none" transform="matrix(1 0 0 1 890.697 761)">PTW</text><rect x="537.5" y="886.5" width="246" height="153" stroke="#000000" stroke-width="4.58333" stroke-linecap="butt" stroke-linejoin="miter" stroke-miterlimit="8" stroke-opacity="1" fill="none"/><text fill="#000000" fill-opacity="1" font-family="Arial,Arial_MSFontService,sans-serif" font-style="normal" font-variant="normal" font-weight="400" font-stretch="normal" font-size="55" text-anchor="start" direction="ltr" writing-mode="lr-tb" unicode-bidi="normal" text-decoration="none" transform="matrix(1 0 0 1 606.623 983)">L1I$</text><rect x="829.5" y="886.5" width="246" height="153" stroke="#000000" stroke-width="4.58333" stroke-linecap="butt" stroke-linejoin="miter" stroke-miterlimit="8" stroke-opacity="1" fill="none"/><text fill="#000000" fill-opacity="1" font-family="Arial,Arial_MSFontService,sans-serif" font-style="normal" font-variant="normal" font-weight="400" font-stretch="normal" font-size="55" text-anchor="start" direction="ltr" writing-mode="lr-tb" unicode-bidi="normal" text-decoration="none" transform="matrix(1 0 0 1 886.687 983)">L1D$</text><path d="M783.5 738.062 806.38 738.063 806.38 744.938 783.5 744.937ZM801.797 727.75 829.297 741.5 801.797 755.25Z" fill="#000000" fill-rule="nonzero" fill-opacity="1"/><path d="M663.937 818.5 663.938 864.442 657.063 864.442 657.062 818.5ZM674.25 859.858 660.5 887.358 646.75 859.858Z" fill="#000000" fill-rule="nonzero" fill-opacity="1"/><path d="M955.938 818.5 955.938 864.442 949.063 864.442 949.063 818.5ZM966.25 859.858 952.5 887.358 938.75 859.858Z" fill="#000000" fill-rule="nonzero" fill-opacity="1"/><path d="M661.289 815.154 931.09 878.754 929.512 885.446 659.711 821.846ZM928.995 867.665 952.606 887.358 922.685 894.432Z" fill="#000000" fill-rule="nonzero" fill-opacity="1"/><rect x="537.5" y="1108.5" width="538" height="84.9999" stroke="#000000" stroke-width="4.58333" stroke-linecap="butt" stroke-linejoin="miter" stroke-miterlimit="8" stroke-opacity="1" fill="none"/><text fill="#000000" fill-opacity="1" font-family="Arial,Arial_MSFontService,sans-serif" font-style="normal" font-variant="normal" font-weight="400" font-stretch="normal" font-size="55" text-anchor="start" direction="ltr" writing-mode="lr-tb" unicode-bidi="normal" text-decoration="none" transform="matrix(1 0 0 1 707.857 1170)">Tile Bus</text><path d="M663.937 1039.5 663.938 1085.42 657.063 1085.42 657.062 1039.5ZM674.25 1080.84 660.5 1108.34 646.75 1080.84Z" fill="#000000" fill-rule="nonzero" fill-opacity="1"/><path d="M955.938 1039.5 955.938 1085.42 949.063 1085.42 949.063 1039.5ZM966.25 1080.84 952.5 1108.34 938.75 1080.84Z" fill="#000000" fill-rule="nonzero" fill-opacity="1"/><rect x="498.5" y="1290.5" width="1927" height="84.9999" stroke="#000000" stroke-width="4.58333" stroke-linecap="butt" stroke-linejoin="miter" stroke-miterlimit="8" stroke-opacity="1" fill="none"/><text fill="#000000" fill-opacity="1" font-family="Arial,Arial_MSFontService,sans-serif" font-style="normal" font-variant="normal" font-weight="400" font-stretch="normal" font-size="55" text-anchor="start" direction="ltr" writing-mode="lr-tb" unicode-bidi="normal" text-decoration="none" transform="matrix(1 0 0 1 1314.95 1352)">System Bus</text><rect x="1075.5" y="1446.5" width="934" height="84.9999" stroke="#000000" stroke-width="4.58333" stroke-linecap="butt" stroke-linejoin="miter" stroke-miterlimit="8" stroke-opacity="1" fill="none"/><text fill="#000000" fill-opacity="1" font-family="Arial,Arial_MSFontService,sans-serif" font-style="normal" font-variant="normal" font-weight="400" font-stretch="normal" font-size="55" text-anchor="start" direction="ltr" writing-mode="lr-tb" unicode-bidi="normal" text-decoration="none" transform="matrix(1 0 0 1 1369.93 1508)">Periphery Bus</text><rect x="1641.5" y="1597.5" width="368" height="85.0002" stroke="#000000" stroke-width="4.58333" stroke-linecap="butt" stroke-linejoin="miter" stroke-miterlimit="8" stroke-opacity="1" fill="none"/><text fill="#000000" fill-opacity="1" font-family="Arial,Arial_MSFontService,sans-serif" font-style="normal" font-variant="normal" font-weight="400" font-stretch="normal" font-size="55" text-anchor="start" direction="ltr" writing-mode="lr-tb" unicode-bidi="normal" text-decoration="none" transform="matrix(1 0 0 1 1681.71 1659)">Control Bus</text><rect x="2050.5" y="1447.5" width="375" height="84.9999" stroke="#000000" stroke-width="4.58333" stroke-linecap="butt" stroke-linejoin="miter" stroke-miterlimit="8" stroke-opacity="1" fill="none"/><text fill="#000000" fill-opacity="1" font-family="Arial,Arial_MSFontService,sans-serif" font-style="normal" font-variant="normal" font-weight="400" font-stretch="normal" font-size="55" text-anchor="start" direction="ltr" writing-mode="lr-tb" unicode-bidi="normal" text-decoration="none" transform="matrix(1 0 0 1 2118.78 1509)">Front Bus</text><rect x="1074.5" y="1745.5" width="247" height="152" stroke="#000000" stroke-width="4.58333" stroke-linecap="butt" stroke-linejoin="miter" stroke-miterlimit="8" stroke-opacity="1" fill="none"/><text fill="#000000" fill-opacity="1" font-family="Arial,Arial_MSFontService,sans-serif" font-style="normal" font-variant="normal" font-weight="400" font-stretch="normal" font-size="55" text-anchor="start" direction="ltr" writing-mode="lr-tb" unicode-bidi="normal" text-decoration="none" transform="matrix(1 0 0 1 1123.14 1841)">UART</text><rect x="1357.5" y="1745.5" width="246" height="152" stroke="#000000" stroke-width="4.58333" stroke-linecap="butt" stroke-linejoin="miter" stroke-miterlimit="8" stroke-opacity="1" fill="none"/><text fill="#000000" fill-opacity="1" font-family="Arial,Arial_MSFontService,sans-serif" font-style="normal" font-variant="normal" font-weight="400" font-stretch="normal" font-size="55" text-anchor="start" direction="ltr" writing-mode="lr-tb" unicode-bidi="normal" text-decoration="none" transform="matrix(1 0 0 1 1397.31 1841)">GPIOs</text><path d="M1200.94 1553.42 1200.94 1722.28 1194.06 1722.28 1194.06 1553.42ZM1183.75 1558 1197.5 1530.5 1211.25 1558ZM1211.25 1717.69 1197.5 1745.19 1183.75 1717.69Z" fill="#000000" fill-rule="nonzero" fill-opacity="1"/><path d="M1483.94 1553.42 1483.94 1722.28 1477.06 1722.28 1477.06 1553.42ZM1466.75 1558 1480.5 1530.5 1494.25 1558ZM1494.25 1717.69 1480.5 1745.19 1466.75 1717.69Z" fill="#000000" fill-rule="nonzero" fill-opacity="1"/><rect x="518.5" y="1714.5" width="247" height="183" stroke="#000000" stroke-width="4.58333" stroke-linecap="butt" stroke-linejoin="miter" stroke-miterlimit="8" stroke-opacity="1" fill="none"/><text fill="#000000" fill-opacity="1" font-family="Arial,Arial_MSFontService,sans-serif" font-style="normal" font-variant="normal" font-weight="400" font-stretch="normal" font-size="55" text-anchor="start" direction="ltr" writing-mode="lr-tb" unicode-bidi="normal" text-decoration="none" transform="matrix(1 0 0 1 611.131 1793)">L2 </text><text fill="#000000" fill-opacity="1" font-family="Arial,Arial_MSFontService,sans-serif" font-style="normal" font-variant="normal" font-weight="400" font-stretch="normal" font-size="55" text-anchor="start" direction="ltr" writing-mode="lr-tb" unicode-bidi="normal" text-decoration="none" transform="matrix(1 0 0 1 579.048 1859)">Bank</text><rect x="792.5" y="1714.5" width="246" height="183" stroke="#000000" stroke-width="4.58333" stroke-linecap="butt" stroke-linejoin="miter" stroke-miterlimit="8" stroke-opacity="1" fill="none"/><text fill="#000000" fill-opacity="1" font-family="Arial,Arial_MSFontService,sans-serif" font-style="normal" font-variant="normal" font-weight="400" font-stretch="normal" font-size="55" text-anchor="start" direction="ltr" writing-mode="lr-tb" unicode-bidi="normal" text-decoration="none" transform="matrix(1 0 0 1 884.362 1793)">L2 </text><text fill="#000000" fill-opacity="1" font-family="Arial,Arial_MSFontService,sans-serif" font-style="normal" font-variant="normal" font-weight="400" font-stretch="normal" font-size="55" text-anchor="start" direction="ltr" writing-mode="lr-tb" unicode-bidi="normal" text-decoration="none" transform="matrix(1 0 0 1 852.279 1859)">Bank</text><path d="M644.937 1398.42 644.938 1688.23 638.063 1688.23 638.062 1398.42ZM627.75 1403 641.5 1375.5 655.25 1403ZM655.25 1683.64 641.5 1711.14 627.75 1683.64Z" fill="#000000" fill-rule="nonzero" fill-opacity="1"/><path d="M918.937 1402.42 918.938 1692.23 912.063 1692.23 912.062 1402.42ZM901.75 1407 915.5 1379.5 929.25 1407ZM929.25 1687.64 915.5 1715.14 901.75 1687.64Z" fill="#000000" fill-rule="nonzero" fill-opacity="1"/><path d="M814.938 1216.42 814.938 1267.34 808.063 1267.34 808.063 1216.42ZM797.75 1221 811.5 1193.5 825.25 1221ZM825.25 1262.75 811.5 1290.25 797.75 1262.75Z" fill="#000000" fill-rule="nonzero" fill-opacity="1"/><path d="M1580.94 1402.42 1580.94 1423.21 1574.06 1423.21 1574.06 1402.42ZM1563.75 1407 1577.5 1379.5 1591.25 1407ZM1591.25 1418.62 1577.5 1446.12 1563.75 1418.62Z" fill="#000000" fill-rule="nonzero" fill-opacity="1"/><path d="M2235.94 1398.42 2235.94 1419.21 2229.06 1419.21 2229.06 1398.42ZM2218.75 1403 2232.5 1375.5 2246.25 1403ZM2246.25 1414.62 2232.5 1442.12 2218.75 1414.62Z" fill="#000000" fill-rule="nonzero" fill-opacity="1"/><path d="M1830.94 1553.42 1830.94 1574.21 1824.06 1574.21 1824.06 1553.42ZM1813.75 1558 1827.5 1530.5 1841.25 1558ZM1841.25 1569.62 1827.5 1597.12 1813.75 1569.62Z" fill="#000000" fill-rule="nonzero" fill-opacity="1"/><rect x="1702.5" y="1726.5" width="307" height="87" stroke="#000000" stroke-width="4.58333" stroke-linecap="butt" stroke-linejoin="miter" stroke-miterlimit="8" stroke-opacity="1" fill="none"/><text fill="#000000" fill-opacity="1" font-family="Arial,Arial_MSFontService,sans-serif" font-style="normal" font-variant="normal" font-weight="400" font-stretch="normal" font-size="55" text-anchor="start" direction="ltr" writing-mode="lr-tb" unicode-bidi="normal" text-decoration="none" transform="matrix(1 0 0 1 1734.76 1790)">BootROM</text><rect x="1702.5" y="1834.5" width="307" height="88" stroke="#000000" stroke-width="4.58333" stroke-linecap="butt" stroke-linejoin="miter" stroke-miterlimit="8" stroke-opacity="1" fill="none"/><text fill="#000000" fill-opacity="1" font-family="Arial,Arial_MSFontService,sans-serif" font-style="normal" font-variant="normal" font-weight="400" font-stretch="normal" font-size="55" text-anchor="start" direction="ltr" writing-mode="lr-tb" unicode-bidi="normal" text-decoration="none" transform="matrix(1 0 0 1 1794.34 1898)">PLIC</text><rect x="1706.5" y="1943.5" width="303" height="87" stroke="#000000" stroke-width="4.58333" stroke-linecap="butt" stroke-linejoin="miter" stroke-miterlimit="8" stroke-opacity="1" fill="none"/><text fill="#000000" fill-opacity="1" font-family="Arial,Arial_MSFontService,sans-serif" font-style="normal" font-variant="normal" font-weight="400" font-stretch="normal" font-size="55" text-anchor="start" direction="ltr" writing-mode="lr-tb" unicode-bidi="normal" text-decoration="none" transform="matrix(1 0 0 1 1778.09 2007)">CLINT</text><rect x="1706.5" y="2047.5" width="303" height="87.9999" stroke="#000000" stroke-width="4.58333" stroke-linecap="butt" stroke-linejoin="miter" stroke-miterlimit="8" stroke-opacity="1" fill="none"/><text fill="#000000" fill-opacity="1" font-family="Arial,Arial_MSFontService,sans-serif" font-style="normal" font-variant="normal" font-weight="400" font-stretch="normal" font-size="55" text-anchor="start" direction="ltr" writing-mode="lr-tb" unicode-bidi="normal" text-decoration="none" transform="matrix(1 0 0 1 1776.95 2111)">Debug</text><path d="M1664.5 1768.06 1680.47 1768.06 1680.47 1774.94 1664.5 1774.94ZM1675.89 1757.75 1703.39 1771.5 1675.89 1785.25Z" fill="#000000" fill-rule="nonzero" fill-opacity="1"/><path d="M1666.94 1702.42 1666.94 2084.75 1660.06 2084.75 1660.06 1702.42ZM1649.75 1707 1663.5 1679.5 1677.25 1707Z" fill="#000000" fill-rule="nonzero" fill-opacity="1"/><path d="M1664.5 1875.06 1680.47 1875.06 1680.47 1881.94 1664.5 1881.94ZM1675.89 1864.75 1703.39 1878.5 1675.89 1892.25Z" fill="#000000" fill-rule="nonzero" fill-opacity="1"/><path d="M1664.5 1983.06 1680.47 1983.06 1680.47 1989.94 1664.5 1989.94ZM1675.89 1972.75 1703.39 1986.5 1675.89 2000.25Z" fill="#000000" fill-rule="nonzero" fill-opacity="1"/><path d="M1664.5 2081.06 1680.47 2081.06 1680.47 2087.94 1664.5 2087.94ZM1675.89 2070.75 1703.39 2084.5 1675.89 2098.25Z" fill="#000000" fill-rule="nonzero" fill-opacity="1"/><rect x="2175.5" y="1714.5" width="247" height="152" stroke="#000000" stroke-width="4.58333" stroke-linecap="butt" stroke-linejoin="miter" stroke-miterlimit="8" stroke-opacity="1" fill="none"/><text fill="#000000" fill-opacity="1" font-family="Arial,Arial_MSFontService,sans-serif" font-style="normal" font-variant="normal" font-weight="400" font-stretch="normal" font-size="55" text-anchor="start" direction="ltr" writing-mode="lr-tb" unicode-bidi="normal" text-decoration="none" transform="matrix(1 0 0 1 2211.82 1810)">Serdes</text><path d="M22.9167-3.4375 95.5733-3.4375 95.5733 542.89 88.6983 542.89 88.6983 0 92.1358 3.4375 22.9167 3.4375ZM27.5 13.75 0 0 27.5-13.75ZM105.886 538.307 92.1358 565.807 78.3858 538.307Z" fill="#000000" fill-rule="nonzero" fill-opacity="1" transform="matrix(1 -1.22465e-16 -1.22465e-16 -1 2009.5 2091.31)"/><path d="M2302.94 1553.42 2302.94 1687.63 2296.06 1687.63 2296.06 1553.42ZM2285.75 1558 2299.5 1530.5 2313.25 1558ZM2313.25 1683.05 2299.5 1710.55 2285.75 1683.05Z" fill="#000000" fill-rule="nonzero" fill-opacity="1"/><rect x="514.5" y="1968.5" width="524" height="85.9999" stroke="#000000" stroke-width="4.58333" stroke-linecap="butt" stroke-linejoin="miter" stroke-miterlimit="8" stroke-opacity="1" fill="none"/><text fill="#000000" fill-opacity="1" font-family="Arial,Arial_MSFontService,sans-serif" font-style="normal" font-variant="normal" font-weight="400" font-stretch="normal" font-size="55" text-anchor="start" direction="ltr" writing-mode="lr-tb" unicode-bidi="normal" text-decoration="none" transform="matrix(1 0 0 1 621.744 2031)">Memory Bus</text><path d="M630.937 1923.42 630.938 1946.42 624.063 1946.42 624.062 1923.42ZM613.75 1928 627.5 1900.5 641.25 1928ZM641.25 1941.84 627.5 1969.34 613.75 1941.84Z" fill="#000000" fill-rule="nonzero" fill-opacity="1"/><path d="M922.938 1923.42 922.938 1946.42 916.063 1946.42 916.063 1923.42ZM905.75 1928 919.5 1900.5 933.25 1928ZM933.25 1941.84 919.5 1969.34 905.75 1941.84Z" fill="#000000" fill-rule="nonzero" fill-opacity="1"/><rect x="792.5" y="2117.5" width="246" height="150" stroke="#000000" stroke-width="4.58333" stroke-linecap="butt" stroke-linejoin="miter" stroke-miterlimit="8" stroke-opacity="1" fill="none"/><text fill="#000000" fill-opacity="1" font-family="Arial,Arial_MSFontService,sans-serif" font-style="normal" font-variant="normal" font-weight="400" font-stretch="normal" font-size="55" text-anchor="start" direction="ltr" writing-mode="lr-tb" unicode-bidi="normal" text-decoration="none" transform="matrix(1 0 0 1 833.946 2179)">DRAM </text><text fill="#000000" fill-opacity="1" font-family="Arial,Arial_MSFontService,sans-serif" font-style="normal" font-variant="normal" font-weight="400" font-stretch="normal" font-size="55" text-anchor="start" direction="ltr" writing-mode="lr-tb" unicode-bidi="normal" text-decoration="none" transform="matrix(1 0 0 1 841.669 2245)">Chan.</text><rect x="514.5" y="2117.5" width="246" height="150" stroke="#000000" stroke-width="4.58333" stroke-linecap="butt" stroke-linejoin="miter" stroke-miterlimit="8" stroke-opacity="1" fill="none"/><text fill="#000000" fill-opacity="1" font-family="Arial,Arial_MSFontService,sans-serif" font-style="normal" font-variant="normal" font-weight="400" font-stretch="normal" font-size="55" text-anchor="start" direction="ltr" writing-mode="lr-tb" unicode-bidi="normal" text-decoration="none" transform="matrix(1 0 0 1 556.209 2179)">DRAM </text><text fill="#000000" fill-opacity="1" font-family="Arial,Arial_MSFontService,sans-serif" font-style="normal" font-variant="normal" font-weight="400" font-stretch="normal" font-size="55" text-anchor="start" direction="ltr" writing-mode="lr-tb" unicode-bidi="normal" text-decoration="none" transform="matrix(1 0 0 1 563.932 2245)">Chan.</text><path d="M630.937 2070.42 630.938 2093.42 624.063 2093.42 624.062 2070.42ZM613.75 2075 627.5 2047.5 641.25 2075ZM641.25 2088.84 627.5 2116.34 613.75 2088.84Z" fill="#000000" fill-rule="nonzero" fill-opacity="1"/><path d="M922.938 2070.42 922.938 2093.42 916.063 2093.42 916.063 2070.42ZM905.75 2075 919.5 2047.5 933.25 2075ZM933.25 2088.84 919.5 2116.34 905.75 2088.84Z" fill="#000000" fill-rule="nonzero" fill-opacity="1"/><path d="M1445.94 1256.42 1445.94 1423.25 1439.06 1423.25 1439.06 1256.42ZM1428.75 1261 1442.5 1233.5 1456.25 1261ZM1456.25 1418.66 1442.5 1446.16 1428.75 1418.66Z" fill="#000000" fill-rule="nonzero" fill-opacity="1"/><rect x="1151" y="576" width="585" height="655" stroke="#000000" stroke-width="10.3125" stroke-linecap="butt" stroke-linejoin="miter" stroke-miterlimit="8" stroke-opacity="1" fill="none"/><text fill="#000000" fill-opacity="1" font-family="Arial,Arial_MSFontService,sans-serif" font-style="normal" font-variant="normal" font-weight="400" font-stretch="normal" font-size="64" text-anchor="start" direction="ltr" writing-mode="lr-tb" unicode-bidi="normal" text-decoration="none" transform="matrix(1 0 0 1 1319.22 888)">Dataflow </text><text fill="#000000" fill-opacity="1" font-family="Arial,Arial_MSFontService,sans-serif" font-style="normal" font-variant="normal" font-weight="400" font-stretch="normal" font-size="64" text-anchor="start" direction="ltr" writing-mode="lr-tb" unicode-bidi="normal" text-decoration="none" transform="matrix(1 0 0 1 1281.98 965)">Accelerator</text><path d="M1932.94 1256.42 1932.94 1423.25 1926.06 1423.25 1926.06 1256.42ZM1915.75 1261 1929.5 1233.5 1943.25 1261ZM1943.25 1418.66 1929.5 1446.16 1915.75 1418.66Z" fill="#000000" fill-rule="nonzero" fill-opacity="1"/><rect x="1789" y="576" width="585" height="656" stroke="#000000" stroke-width="10.3125" stroke-linecap="butt" stroke-linejoin="miter" stroke-miterlimit="8" stroke-opacity="1" fill="none"/><text fill="#000000" fill-opacity="1" font-family="Arial,Arial_MSFontService,sans-serif" font-style="normal" font-variant="normal" font-weight="400" font-stretch="normal" font-size="64" text-anchor="start" direction="ltr" writing-mode="lr-tb" unicode-bidi="normal" text-decoration="none" transform="matrix(1 0 0 1 1887.22 850)">Systolic Array </text><text fill="#000000" fill-opacity="1" font-family="Arial,Arial_MSFontService,sans-serif" font-style="normal" font-variant="normal" font-weight="400" font-stretch="normal" font-size="64" text-anchor="start" direction="ltr" writing-mode="lr-tb" unicode-bidi="normal" text-decoration="none" transform="matrix(1 0 0 1 1990.59 927)">Based</text><text fill="#000000" fill-opacity="1" font-family="Arial,Arial_MSFontService,sans-serif" font-style="normal" font-variant="normal" font-weight="400" font-stretch="normal" font-size="64" text-anchor="start" direction="ltr" writing-mode="lr-tb" unicode-bidi="normal" text-decoration="none" transform="matrix(1 0 0 1 1919.55 1004)">Accelerator</text></g></g></svg>